<svg width="750" height="750" viewBox="0 0 750 750" fill="none" xmlns="http://www.w3.org/2000/svg">
<rect width="750" height="750" fill="none"/>
<path fill-rule="evenodd" clip-rule="evenodd" d="M558.976 190.349C626.66 261.616 641.442 388.385 594.278 493.126C547.113 597.866 441.283 673.287 341.519 673.251C328.078 673.251 314.77 672.127 301.823 669.66C205.723 651.344 133.455 559.272 129.2 449.727C124.945 340.182 189.002 220.779 282.21 164.525C375.417 108.271 491.292 119.081 558.976 190.349ZM186.193 534.631C185.277 534.859 184.706 536.099 184.798 537.086C184.889 538.074 185.441 538.857 185.96 539.608C191.195 547.179 194.777 556.09 199.367 564.203C214.525 590.992 239.93 607.933 265.609 622.234C265.857 622.372 266.114 622.513 266.405 622.527C267.429 622.577 268.182 620.987 267.861 619.952C267.539 618.917 266.601 618.365 265.725 617.883C240.487 604.002 215.906 586.864 201.367 560.367C199.134 556.298 197.157 552.039 194.996 547.916C192.898 543.913 190.627 540.039 188.358 536.167C187.864 535.325 187.162 534.39 186.193 534.631ZM408.688 592.827C401.869 592.446 394.405 598.038 391.786 605.491C390.284 609.764 390.315 614.456 391.87 618.233C394.582 624.819 402.104 627.977 408.904 625.383C415.703 622.79 421.041 614.725 420.99 607.124C420.94 599.523 415.507 593.208 408.688 592.827ZM338.391 166.068C304.697 183.354 272.37 205.738 244.576 234.127C216.781 262.515 193.615 297.076 179.828 334.965C171.91 356.725 167.149 379.279 163.156 401.756C160.014 419.444 157.315 437.353 158.265 454.72C160.377 453.208 160.832 450.113 161.046 447.492C164.39 406.376 170.674 364.392 187.092 325.271C215.385 257.851 271.776 205.15 332.542 173.19C335.342 171.718 338.755 169.224 338.391 166.068ZM264.762 557.239C265.646 560.949 269.815 562.392 273.529 561.477C277.243 560.562 280.587 557.897 283.776 555.311C318.975 526.759 354.026 497.971 388.925 468.948C393.109 465.469 398.21 468.961 401.258 472.582C418.11 492.595 428.896 518.476 447.593 536.484C449.704 538.517 452.029 540.5 454.968 540.978C457.908 541.456 461.608 539.949 463.065 536.815C464.334 534.087 463.584 531.124 462.728 528.561C452.091 496.715 429.397 472.351 419.003 440.378C418.376 438.449 417.788 436.408 418.107 434.241C418.606 430.847 421.164 427.966 423.564 425.399C427.027 421.695 430.491 417.99 433.954 414.286C437.368 410.633 441.14 405.842 440.058 401.394C439.303 398.287 436.222 396.646 433.122 396.746C430.021 396.847 426.91 398.358 423.991 400.037C416.343 404.437 409.227 410.224 403.09 417.032C401.427 418.877 398.676 418.626 397.092 417.236C395.507 415.845 394.738 413.656 393.8 411.669C391.342 406.46 387.397 402.25 382.54 399.653C379.202 397.867 374.671 397.017 371.337 399.925C369.616 401.427 368.567 403.686 368.096 405.908C365.819 416.641 375.517 425.443 372.663 436.109C371.533 440.333 368.605 443.954 365.747 447.337C342.454 474.918 316.723 500.177 289.164 522.513C279.146 530.634 267.965 539.756 265.013 552.324C264.624 553.979 264.397 555.703 264.762 557.239ZM564.1 406.923C558.204 409.886 553.861 417.065 553.868 423.835C553.875 430.604 558.23 436.433 564.13 437.565C569.949 438.681 576.823 435.154 580.422 429.206C584.021 423.258 584.075 415.332 580.551 410.422C576.978 405.445 569.995 403.96 564.1 406.923ZM200.278 434.527C193.532 433.109 185.378 438.196 182.349 445.711C179.32 453.227 181.822 462.165 187.85 465.364C193.879 468.564 202.626 465.596 207.084 458.839C210.043 454.354 211.065 448.553 209.734 443.798C208.403 439.044 204.756 435.468 200.278 434.527ZM393.131 227.07C387.262 225.905 380.319 229.293 376.517 235.179C373.288 240.176 372.42 246.7 374.313 251.742C376.205 256.784 380.791 260.161 385.954 260.317C391.118 260.473 396.673 257.401 400.058 252.519C403.269 247.888 404.439 241.786 403.076 236.779C401.713 231.773 397.858 228.009 393.131 227.07Z" />
<path fill-rule="evenodd" clip-rule="evenodd" d="M541.178 367.461C538.693 367.893 536.623 364.673 536.628 361.655C536.634 358.637 538.047 355.916 539.411 353.383C540.228 351.866 541.044 350.35 541.861 348.833C543.035 351.705 543.897 354.761 544.417 357.898C545.045 361.692 544.362 366.908 541.178 367.461" fill="white"/>
<path d="M475.677 419.049C471.626 417.816 456.806 411.508 435.262 411.001C421.297 410.673 404.503 416.292 385.998 415.415C366.681 414.499 344.933 409.414 323.448 409.262C299.817 409.094 275.978 413.972 253.067 413.977C240.078 413.98 227.248 422.95 215.384 423C201.534 423.059 188.913 414.206 177.551 414.32C152.16 414.575 134.271 414.958 129.628 415.415C132.109 410.09 146.649 402.743 168.906 395.542C184.61 390.46 222.286 390.295 244.148 386.118C252.696 384.485 251.331 384.578 254.168 383.128C263.653 378.28 306.57 370.645 334.628 370.668C350.993 370.681 367.624 379.036 383.608 380.394C404.369 382.158 425.113 380.492 443.628 383.128C449.941 384.027 456.063 385.012 461.963 386.066C472.716 387.989 482.529 394.562 491.596 396.834C499.251 398.753 506.431 396.336 512.618 398.361C531.849 404.656 543.403 411.153 543.628 415.891C529.154 412.64 513.604 414.451 500.252 420.944C492.665 424.634 483.744 421.503 475.677 419.049Z" fill="white"/>
<path fill-rule="evenodd" clip-rule="evenodd" d="M475.677 419.049C455.079 412.781 433.071 411.249 411.811 414.602C405.1 415.661 398.422 417.202 391.63 417.3C383.406 417.418 375.322 415.421 367.236 413.912C319.66 405.04 270.602 413.034 223.511 424.221C213.665 426.559 203.506 423.132 193.721 420.55C172.883 415.052 151.07 413.304 129.628 415.415C143.643 385.325 172.723 365.706 200.477 347.664C217.468 336.617 234.659 325.494 253.699 318.608C264.57 314.676 275.906 312.179 287.295 310.232C333.813 302.278 381.85 303.405 427.948 313.53C454.976 319.467 481.855 328.746 503.803 345.678C525.751 362.609 542.308 388.112 543.628 415.891C529.154 412.64 513.604 414.451 500.252 420.944C492.665 424.634 483.744 421.503 475.677 419.049ZM390.202 380.32C421.376 376.897 453.36 381.195 482.545 392.729C487.074 394.518 491.682 396.51 496.548 396.544C512.366 396.655 528.113 401.777 540.998 411.001C534.302 373.014 502.923 343.146 467.586 328.095C432.249 313.044 393.089 310.358 354.761 308.402C271.559 304.157 187.311 342.846 136.035 408.849C166.065 393.776 199.63 385.877 233.196 385.985C239.81 386.006 329.623 356.569 372.703 378.004C378.461 379.363 384.323 380.965 390.202 380.32ZM218.256 422.15C268.845 405.373 323.736 401.895 376.021 412.153C382.402 413.404 388.98 414.859 395.334 413.476C427.851 406.403 462.319 408.643 493.659 419.868C488.196 411.557 481.406 404.13 473.628 397.959C474.064 395.999 477.053 396.868 478.553 398.196C484.437 403.406 489.679 409.346 494.123 415.84C495.819 418.319 499.604 417.277 502.381 416.155C512.359 412.123 523.297 410.519 534.005 411.518C522.647 402.913 508.233 398.475 494.029 399.21C490.294 399.404 486.73 397.798 483.285 396.334C454.445 384.077 422.352 379.657 391.295 383.663C387.683 384.129 383.891 384.687 380.495 383.364C356.051 373.841 328.937 375.209 302.764 376.715C287.392 377.6 271.584 378.592 257.655 385.188C253.426 387.191 249.272 389.736 244.614 390.131C241.836 390.367 239.77 392.719 238.016 394.898C230.974 403.645 223.903 412.434 218.256 422.15ZM139.101 411.388C163.036 410.744 187.074 414.137 209.907 421.383C214.381 422.802 217.921 417.641 220.091 413.46C224.726 404.527 230.791 396.347 237.983 389.329C217.213 386.33 196.27 391.912 176.021 397.444C163.29 400.923 150.365 404.483 139.101 411.388Z" fill="#00160A"/>
<path fill-rule="evenodd" clip-rule="evenodd" d="M373.669 672.526C374.904 669.275 374.987 665.707 375.055 662.222C375.36 646.523 375.665 630.824 375.97 615.125C375.993 613.915 375.346 612.186 374.248 612.647C369.371 614.694 363.851 615.115 358.73 613.83C356.682 613.316 355.668 616.27 355.614 618.42C355.215 634.37 355.342 650.334 355.997 666.276C356.192 671.003 356.901 676.541 360.953 678.849C365.623 681.509 371.736 677.61 373.669 672.526H373.669Z" fill="white"/>
<path fill-rule="evenodd" clip-rule="evenodd" d="M341.055 662.222C341.36 646.523 341.665 630.824 341.97 615.125C341.993 613.915 341.346 612.186 340.248 612.647C335.371 614.694 329.852 615.115 324.73 613.83C322.682 613.316 321.669 616.27 321.615 618.42C321.215 634.37 318.343 650.334 318.998 666.276C319.192 671.003 319.901 676.541 323.953 678.849C328.623 681.509 337.736 677.61 339.669 672.526C340.904 669.275 340.987 665.707 341.055 662.222Z" fill="white"/>
<path fill-rule="evenodd" clip-rule="evenodd" d="M398.796 541.352C401.074 545.5 403.24 549.925 403.314 554.655C403.387 559.386 400.773 564.479 396.225 565.801C370.201 573.363 342.178 580.747 316.49 572.113C314.581 571.472 312.601 570.673 311.377 569.075C309.896 567.14 309.859 564.494 309.991 562.062C310.889 545.621 316.739 529.481 326.589 516.278C329.124 512.879 331.982 509.546 333.139 505.468C334.296 501.39 333.134 496.259 329.318 494.406C327.322 482.797 313.841 471.327 316.674 480.057C312.567 479.864 311.451 474.276 312.009 470.208C313.117 462.138 316.776 453.494 324.317 450.396C328.351 448.739 332.885 448.934 337.146 448.006C341.408 447.078 345.9 444.327 346.406 440C347.568 442.081 358.786 441.679 359.318 440.027C363.733 440.027 368.987 444.711 370.604 448.049C378.604 445.349 387.118 452.038 390.299 459.851C392.276 464.705 392.831 470.482 390.237 475.038C387.644 479.593 381.227 482.071 376.824 479.221C378.261 486.608 373.252 493.984 374.121 501.459C374.782 507.156 378.703 511.851 382.252 516.359C388.441 524.218 393.98 532.587 398.796 541.352Z" fill="white"/>
<path fill-rule="evenodd" clip-rule="evenodd" d="M321.039 413.62C319.056 407.502 317.047 401.082 315.03 398.651C314.311 404.711 313.49 411.045 309.99 416.054C306.49 421.062 299.396 424.147 294.044 421.176C289.636 418.729 287.917 412.972 288.894 408.04C289.87 403.108 293.001 398.881 296.383 395.149C304.775 385.887 315.212 378.54 322.951 368.73C333.422 355.457 352.527 349.681 368.637 354.918C384.748 360.154 396.756 376.044 397.352 392.914C403.044 397.182 407.393 403.202 409.647 409.934C410.775 413.301 411.292 417.301 409.178 420.159C406.096 424.326 399.078 423.301 395.561 419.491C392.043 415.681 391.086 410.247 390.28 405.134C388.115 408.128 385.95 411.122 383.786 414.116C383.743 414.175 391.648 416.054 388.429 421.176C385.667 425.573 380.677 420.442 379.698 421.87C374.999 428.726 365.645 437.644 348.628 437.644C338.045 437.644 329.886 432.057 324.15 420.883C323.694 419.995 316.077 426.817 315.44 419.615C314.804 412.414 321.039 413.62 321.039 413.62Z" fill="white"/>
<circle cx="333.271" cy="417" r="7" fill="#FFB61D"/>
<circle cx="372.271" cy="417" r="7" fill="#FFB61D"/>
<path fill-rule="evenodd" clip-rule="evenodd" d="M373.351 607C371.456 605.487 371.917 602.615 372.407 600.278C374.159 591.915 373.995 583.178 371.929 574.884C371.696 573.949 371.444 572.941 371.821 572.052C372.198 571.163 373.518 570.622 374.201 571.317C374.505 571.626 374.593 572.075 374.667 572.497C376.683 584.021 378.317 596.357 373.351 607Z" fill="#00160A"/>
<path fill-rule="evenodd" clip-rule="evenodd" d="M334.521 169.935C333.284 167.329 333.224 164.396 333.183 161.552C332.999 148.518 332.814 135.483 332.629 122.449C332.61 121.071 332.906 119.3 334.367 119C336.706 125.833 336.67 133.135 336.612 140.299C336.538 149.386 336.465 158.473 336.391 167.56C336.382 168.718 335.697 170.346 334.521 169.935H334.521Z" fill="#E7EAEE"/>
<path fill-rule="evenodd" clip-rule="evenodd" d="M425.117 173.83C425.748 183.182 425.795 192.58 425.259 201.94C425.171 203.475 424.182 205.59 422.928 204.846C422.601 193.236 422.541 181.617 422.751 170.004C424.339 169.893 425.002 172.125 425.117 173.83Z" fill="#E7EAEE"/>
<path fill-rule="evenodd" clip-rule="evenodd" d="M343.939 575C345.301 580.541 344.38 586.377 343.453 592.013C342.941 595.124 342.43 598.236 341.918 601.347C341.429 604.319 340.92 607.355 339.526 610C338.605 609.706 338.551 608.39 338.681 607.399C340.008 597.291 341.336 587.183 342.663 577.075C342.779 576.195 343.091 575.103 343.939 575L343.939 575Z" fill="#00160A"/>
<path fill-rule="evenodd" clip-rule="evenodd" d="M327.074 579.05C326.789 576.77 326.825 573.768 328.941 573C331.167 584.853 331.191 597.136 329.011 608.999C328.972 609.211 328.931 609.428 328.819 609.61C328.404 610.286 327.282 610.014 326.895 609.321C326.508 608.628 326.623 607.768 326.741 606.979C328.117 597.745 328.229 588.315 327.074 579.05H327.074Z" fill="#00160A"/>
<path fill-rule="evenodd" clip-rule="evenodd" d="M390.539 477C391.269 477.631 391.401 478.822 391.458 479.878C392.08 491.353 390.996 502.951 388.269 514C387.425 512.113 387.593 509.853 387.783 507.736C388.702 497.491 389.62 487.245 390.539 477Z" fill="#00160A"/>
<path fill-rule="evenodd" clip-rule="evenodd" d="M339.034 612.428C341.071 611.773 343.279 613.373 344.078 615.368C344.878 617.363 344.642 619.606 344.388 621.742C342.812 634.991 341.051 648.502 343.655 661.587C345.045 668.572 342.933 676.591 337.144 680.697C331.355 684.803 321.927 683.342 318.84 676.93C316.624 672.328 317.966 666.905 318.801 661.862C321.206 647.33 318.964 632.393 320.561 617.749C320.784 615.704 321.139 613.538 322.498 612C327.755 613.995 333.682 614.148 339.034 612.428ZM325.533 615.611C323.605 615.332 322.831 618.022 322.83 619.981C322.822 630.507 322.815 641.032 322.808 651.558C322.806 654.099 322.803 656.653 322.411 659.164C321.517 664.88 318.724 671.129 321.741 676.056C324.564 680.669 331.702 681.18 335.945 677.844C340.187 674.508 341.655 668.486 340.752 663.146C338.988 652.713 339.776 642.034 340.57 631.48C340.978 626.055 341.386 620.629 341.795 615.204C336.448 616.255 330.925 616.393 325.533 615.611Z" fill="#00160A"/>
<path fill-rule="evenodd" clip-rule="evenodd" d="M365.132 460.269C365.595 459.427 366.628 460.745 366.628 461.712C366.632 472.483 366.27 483.255 365.545 494C363.712 493.143 363.546 490.584 363.654 488.521C364.146 479.104 364.639 469.686 365.132 460.269Z" fill="#00160A"/>
<path fill-rule="evenodd" clip-rule="evenodd" d="M382.677 191.854C381.586 184.998 381.345 178.041 381.961 171.141C382.083 169.772 382.241 168.393 382.726 167.086C382.861 166.725 383.042 166.346 383.414 166.144C384.657 165.473 385.648 167.29 385.628 168.554C385.523 175.372 385.418 182.19 385.313 189.008C385.291 190.484 384.17 192.573 382.677 191.854L382.677 191.854Z" fill="#E7EAEE"/>
<path fill-rule="evenodd" clip-rule="evenodd" d="M452.007 131.067C451.94 131.818 451.858 132.611 451.436 133.21C451.125 133.653 450.639 133.946 450.128 134C449.219 125.681 449.552 117.204 451.111 109C453.298 116.032 452.665 123.68 452.007 131.067Z" fill="#E7EAEE"/>
<path fill-rule="evenodd" clip-rule="evenodd" d="M259.597 271.348C259.29 266.54 258.983 261.732 258.676 256.924C258.603 255.787 258.541 254.597 259.081 253.562C259.621 252.528 260.972 251.726 262.197 252.088C262.65 259.232 262.747 266.394 262.485 273.545C262.067 274.213 260.837 274.096 260.278 273.513C259.72 272.931 259.646 272.11 259.597 271.348Z" fill="#E7EAEE"/>
<path fill-rule="evenodd" clip-rule="evenodd" d="M285.907 109C285.515 103.069 285.537 97.1181 285.972 91.1899C286.074 89.8035 286.671 88.005 288.262 88C289.99 93.9248 290.081 100.209 288.524 106.17C288.19 107.449 287.41 108.983 285.907 109Z" fill="#E7EAEE"/>
<path fill-rule="evenodd" clip-rule="evenodd" d="M342.973 473.128C342.723 470.016 342.472 466.903 342.222 463.791C342.075 463.132 341.175 463.095 340.772 463.596C340.37 464.096 340.331 464.84 340.315 465.519C340.231 469 340.148 472.48 340.064 475.961C339.087 476.275 338.612 474.641 338.629 473.482C338.713 467.655 338.796 461.827 338.88 456C343.191 459.887 345.395 466.599 344.386 472.765C344.012 473.152 343.456 473.295 342.973 473.128Z" fill="#00160A"/>
<path fill-rule="evenodd" clip-rule="evenodd" d="M367.63 488.238C368.057 478.461 368.483 468.685 368.91 458.909C368.964 457.677 369.363 456.076 370.622 456C370.694 467.289 370.168 478.582 369.048 489.819C368.403 490.488 367.59 489.157 367.63 488.238Z" fill="#00160A"/>
<path fill-rule="evenodd" clip-rule="evenodd" d="M245.202 97C246.09 103.219 246.566 109.482 246.628 115.748C246.636 116.547 246.529 117.51 245.711 117.872C244.218 118.533 243.15 116.489 243.1 115.03C242.944 110.55 242.789 106.071 242.634 101.591C242.569 99.7129 243.061 97.2274 245.202 97L245.202 97Z" fill="#E7EAEE"/>
<path fill-rule="evenodd" clip-rule="evenodd" d="M358.374 576.917C360.856 588.3 361.305 600.14 359.693 611.685C364.935 611.183 370.177 610.681 375.419 610.18C376.489 610.077 377.793 610.087 378.353 611.022C378.639 611.498 378.636 612.09 378.625 612.648C378.277 629.875 377.93 647.103 377.582 664.33C377.525 667.147 377.461 670.011 376.61 672.692C374.947 677.936 369.916 682.038 364.51 681.999C359.104 681.961 353.937 677.379 353.641 671.877C352.688 654.173 352.407 636.431 352.801 618.705C352.841 616.873 352.911 614.957 353.797 613.363C354.684 611.769 356.666 610.647 358.316 611.374C357.706 599.282 357.096 587.19 356.486 575.099C357.383 574.632 358.156 575.915 358.374 576.917M373.669 672.525C374.904 669.275 374.987 665.707 375.055 662.222C375.36 646.523 375.665 630.824 375.97 615.125C375.993 613.915 375.346 612.186 374.248 612.647C369.371 614.694 363.851 615.115 358.73 613.829C356.682 613.315 355.668 616.27 355.614 618.42C355.215 634.37 355.342 650.334 355.997 666.276C356.192 671.002 356.901 676.541 360.953 678.849C365.623 681.509 371.736 677.61 373.669 672.525H373.669Z" fill="#00160A"/>
<path fill-rule="evenodd" clip-rule="evenodd" d="M304.558 208.52C304.913 214.399 305.268 220.279 305.623 226.159C305.706 227.542 304.89 229.584 303.82 228.843C302.439 221.338 302.256 213.572 303.282 206C304.221 206.17 304.495 207.481 304.558 208.52L304.558 208.52Z" fill="#E7EAEE"/>
<path fill-rule="evenodd" clip-rule="evenodd" d="M527.805 249.238C527.706 250.829 527.143 252.881 525.396 253C524.078 246.397 524.462 239.518 526.509 233.07C527.958 232.597 528.708 234.621 528.622 236.019C528.349 240.425 528.077 244.832 527.805 249.238Z" fill="#E7EAEE"/>
<path fill-rule="evenodd" clip-rule="evenodd" d="M537.628 361.616C537.633 359.353 538.692 357.312 539.716 355.412C540.328 354.275 540.94 353.137 541.553 352C542.433 354.153 543.08 356.445 543.47 358.799C543.941 361.644 543.428 365.556 541.04 365.971C539.177 366.294 537.624 363.88 537.628 361.616ZM541.211 364.018C541.676 364.018 542.273 361.963 542.094 360.835C541.916 359.707 540.568 358.92 539.979 359.824C539.979 359.824 538.897 364.018 541.211 364.018Z" fill="#E7EAEE"/>
<path fill-rule="evenodd" clip-rule="evenodd" d="M334.563 174C335.692 179.873 335.926 185.926 335.254 191.872C335.072 193.485 334.638 195.35 333.186 196C332.117 188.677 332.59 181.123 334.563 174Z" fill="#E7EAEE"/>
<path fill-rule="evenodd" clip-rule="evenodd" d="M380.764 80.9939C379.073 81.1319 378.539 78.8971 378.64 77.2986C378.886 73.4388 379.132 69.5791 379.378 65.7193C379.467 64.3202 380.605 62.3809 381.816 63.1914C382.3 63.5151 382.403 64.1419 382.454 64.6996C382.953 70.1675 382.377 75.7212 380.764 80.9939Z" fill="#E7EAEE"/>
<path fill-rule="evenodd" clip-rule="evenodd" d="M438.37 285C437.799 280.568 437.557 276.104 437.646 271.645C437.681 269.915 437.949 267.896 439.639 267C441.725 268.375 441.74 271.063 441.556 273.345C441.253 277.1 440.951 280.856 440.648 284.611C439.889 284.741 439.13 284.87 438.37 285Z" fill="#E7EAEE"/>
<path fill-rule="evenodd" clip-rule="evenodd" d="M257.097 180C253.861 175.391 257.159 168.574 255.985 162.873C255.689 161.44 255.431 159.353 256.72 159.033C257.999 158.716 258.584 160.738 258.588 162.196C258.602 166.511 258.615 170.826 258.628 175.141C258.634 176.941 258.482 179.071 257.097 180H257.097Z" fill="#E7EAEE"/>
<path fill-rule="evenodd" clip-rule="evenodd" d="M360.629 422.94C358.459 421.819 355.926 423.007 353.553 423.489C353.422 423.516 345.357 424.83 346.785 425.268C351.194 426.619 360.498 423.372 360.629 422.94Z" fill="#00160A"/>
<path fill-rule="evenodd" clip-rule="evenodd" d="M487.465 238C486.516 232.693 486.373 227.217 487.043 221.86C487.163 220.902 487.829 219.636 488.614 220.098C489.831 225.831 489.955 231.833 488.975 237.619C488.472 237.746 487.969 237.873 487.465 238Z" fill="#E7EAEE"/>
<path fill-rule="evenodd" clip-rule="evenodd" d="M341.161 397.043C342.56 397.134 344.218 397.598 344.628 398.988C344.765 399.453 341.267 398.419 339.804 398.5C336.364 398.69 335.328 400.574 334.881 400C333.933 398.781 335.849 397.342 337.348 397.155C338.612 396.997 339.89 396.96 341.161 397.043Z" fill="#00160A"/>
<path fill-rule="evenodd" clip-rule="evenodd" d="M345.628 504.472C349.358 503.632 353.167 503.14 356.99 503.004C358.064 502.965 359.471 503.215 359.628 504.268C355.342 506.502 349.979 506.58 345.628 504.472V504.472Z" fill="#E7EAEE"/>
<path fill-rule="evenodd" clip-rule="evenodd" d="M408.67 79.7991C408.678 77.6655 409.464 74.7475 411.466 75.0175C411.794 80.2945 411.625 85.6059 410.962 90.8476C410.802 92.1054 409.48 93.7093 408.803 92.6611C408.632 92.3964 408.627 92.0539 408.629 91.7335C408.643 87.7554 408.657 83.7772 408.67 79.7991Z" fill="#E7EAEE"/>
<path fill-rule="evenodd" clip-rule="evenodd" d="M380.9 480C381.591 487.8 381.791 495.627 381.497 503.442C381.453 504.632 380.692 506.266 379.207 505.963C379.015 498.477 378.823 490.991 378.63 483.505C378.593 482.062 379.048 480.153 380.9 480L380.9 480Z" fill="#00160A"/>
<path fill-rule="evenodd" clip-rule="evenodd" d="M360.49 498.585C360.343 498.799 360.102 498.901 359.872 498.988C356.589 500.229 352.965 500.332 349.628 499.279C350.486 497.605 352.516 497.324 354.25 497.233C355.732 497.156 357.215 497.079 358.697 497.002C359.663 496.952 361.077 497.732 360.49 498.585H360.49Z" fill="#E7EAEE"/>
<path fill-rule="evenodd" clip-rule="evenodd" d="M372.34 400C370.945 399.67 371.255 398 368.128 398C365.002 398 365.122 399.209 363.628 399.328C363.736 397.455 365.323 396.128 366.853 396.012C368.383 395.895 369.853 396.673 371.255 397.435C372.136 397.914 373.131 399.323 372.34 400Z" fill="#00160A"/>
<path fill-rule="evenodd" clip-rule="evenodd" d="M348.628 415C348.816 413.074 350.316 411.378 352.116 411.056C353.916 410.735 355.857 411.817 356.628 413.572C355.224 413.823 355.774 412.369 352.116 412.369C350.776 412.369 349.891 414.775 348.628 415Z" fill="#00160A"/>
<path fill-rule="evenodd" clip-rule="evenodd" d="M311.318 482.433C311.922 481.955 312.526 481.478 313.13 481C314.075 482.619 313.644 484.722 312.11 485.988C311.294 486.106 310.603 485.356 310.629 484.665C310.655 483.974 311.158 483.367 311.641 482.806L311.318 482.433Z" fill="#00160A"/>
<path fill-rule="evenodd" clip-rule="evenodd" d="M341.395 502.99C343.171 502.816 344.263 500.406 343.224 498.953C342.185 497.5 339.555 497.759 338.817 499.386C338.08 501.013 339.619 503.164 341.395 502.99Z" fill="#00160A"/>
<path fill-rule="evenodd" clip-rule="evenodd" d="M367.44 498.016C366.786 496.745 364.674 496.643 363.902 497.845C363.129 499.047 364.097 500.929 365.523 500.998C366.949 501.067 368.093 499.287 367.44 498.016Z" fill="#00160A"/>
<path fill-rule="evenodd" clip-rule="evenodd" d="M371.203 670.784C371.767 671.522 371.859 672.991 370.928 673C368.631 670.194 364.141 669.49 361.09 671.459C360.104 670.981 360.864 669.45 361.813 668.903C364.833 667.163 369.093 668.016 371.203 670.784V670.784Z" fill="#00160A"/>
<path fill-rule="evenodd" clip-rule="evenodd" d="M336.628 669.966C336.431 671.123 334.752 670.615 333.745 670.075C331.375 668.805 328.273 669.188 326.257 671C325.108 670.745 325.705 668.859 326.683 668.184C329.772 666.055 334.41 666.886 336.628 669.966H336.628Z" fill="#00160A"/>
<path fill-rule="evenodd" clip-rule="evenodd" d="M398.175 539.862C400.42 543.949 402.554 548.308 402.627 552.969C402.699 557.63 400.123 562.648 395.642 563.951C370.001 571.402 342.39 578.677 317.08 570.17C315.2 569.538 313.248 568.751 312.043 567.177C310.583 565.271 310.546 562.664 310.677 560.267C311.561 544.068 317.326 528.165 327.03 515.156C329.529 511.807 332.345 508.523 333.485 504.505C334.625 500.487 333.48 495.432 329.72 493.605C333.244 495.85 338.341 495.183 341.167 492.107C343.994 489.031 344.224 483.902 341.684 480.586C342.019 484.997 341.321 490.859 336.971 491.689C333.98 492.26 331.139 489.62 330.367 486.678C329.595 483.736 330.334 480.633 331.072 477.682C331.933 481.136 332.793 484.59 333.653 488.043C333.852 488.844 334.135 489.748 334.889 490.084C336.299 490.711 337.481 488.861 337.926 487.385C338.992 483.854 340.058 480.324 341.124 476.794C347.542 482.495 344.49 495.073 336.171 497.206C338.844 503.043 334.267 509.401 330.496 514.598C320.581 528.263 314.652 544.779 313.616 561.623C313.544 562.785 313.514 564.028 314.119 565.023C314.794 566.133 316.095 566.673 317.321 567.105C341.666 575.675 368.434 568.702 393.274 561.697C397.766 560.43 400.047 555.076 399.451 550.453C398.855 545.829 396.133 541.795 393.487 537.955C388.003 529.994 382.519 522.033 377.035 514.072C374.453 510.325 371.805 506.416 371.065 501.928C370.485 498.414 371.128 494.825 371.77 491.321C372.525 487.198 373.28 483.075 374.035 478.951C374.456 476.652 376.662 473.662 378.364 475.268C381.546 478.271 387.332 475.612 388.716 471.463C390.099 467.313 388.423 462.787 386.343 458.938C384.405 455.354 381.897 451.798 378.164 450.16C374.43 448.521 369.26 449.603 367.626 453.336C364.958 459.428 357.093 460.83 350.459 461.397C348.535 461.562 346.048 461.38 345.444 459.548C342.613 450.96 329.901 448.846 322.897 454.574C315.893 460.302 314.47 470.867 317.262 479.468C313.215 479.278 312.115 473.772 312.666 469.763C313.757 461.813 317.362 453.296 324.792 450.243C328.767 448.61 333.234 448.803 337.433 447.889C341.632 446.974 346.058 444.264 346.556 440C347.701 442.05 347.883 444.29 349.029 446.34C349.665 447.48 353.165 451.568 354.235 451.517C355.406 451.462 358.463 446.746 358.905 445.374C359.429 443.747 358.755 441.654 359.279 440.027C362.16 442.795 361.736 448.19 358.458 450.476C355.874 452.277 358.369 457.024 361.505 456.714C364.641 456.404 366.575 452.799 366.24 449.669C365.905 446.54 363.976 443.841 362.111 441.304C365.673 442.138 368.805 444.642 370.399 447.931C378.281 445.271 386.67 451.861 389.804 459.559C391.752 464.342 392.298 470.034 389.743 474.522C387.188 479.011 380.865 481.453 376.527 478.645C377.943 485.923 373.008 493.19 373.863 500.555C374.515 506.168 378.378 510.794 381.876 515.236C387.973 522.979 393.431 531.225 398.175 539.862ZM352.561 456.424C353.086 455.604 353.547 454.368 352.757 453.796C349.686 451.574 347.281 448.446 345.924 444.909C343.49 445.481 342.242 448.41 342.647 450.875C343.053 453.341 344.644 455.422 346.184 457.391C346.799 458.176 347.491 459.012 348.465 459.228C350.192 459.612 351.609 457.914 352.561 456.424ZM355.535 455.31C355.011 455.69 354.654 456.291 354.569 456.932C355.13 457.752 355.995 458.36 356.958 458.609C357.097 457.366 356.523 456.067 355.509 455.333L355.535 455.31Z" fill="#00160A"/>
<path fill-rule="evenodd" clip-rule="evenodd" d="M331 375V478H329V375H331Z" fill="#00160A"/>
<path fill-rule="evenodd" clip-rule="evenodd" d="M299.145 419.771C302.733 419.559 305.962 417.286 308.058 414.378C310.154 411.471 311.263 407.978 312.094 404.495C313.238 399.702 313.916 394.813 314.593 389.933C314.807 388.394 314.821 386.446 313.432 385.739C312.326 385.175 311.004 385.794 309.946 386.444C302.071 391.288 295.745 398.592 292.09 407.063C291.109 409.334 290.307 411.849 290.901 414.25C291.761 417.725 295.558 419.983 299.145 419.771ZM325.133 419.708C327.083 424.108 329.236 428.187 331.133 430.047C336.36 435.175 344.238 436.672 351.571 436.515C370.316 436.115 376.871 423.247 379.036 420.922C382.708 416.979 379.685 422.975 377.754 425.557C368.128 438.429 348.743 442.308 336.658 436.115C332.457 433.962 329.582 430.557 326.022 425.922C325.172 424.814 324.313 422.936 323.448 420.657M395.034 394.493C394.758 394.316 394.462 394.138 394.134 394.125C393.426 394.096 392.936 394.808 392.655 395.455C390.385 400.693 392.386 406.695 394.392 412.039C395.353 414.6 396.374 417.254 398.363 419.137C400.351 421.02 403.609 421.875 405.876 420.335C408.602 418.484 408.512 414.449 407.595 411.292C405.605 404.439 401.055 398.355 395.034 394.493ZM321.039 413.62C319.056 407.502 317.047 401.082 315.03 398.651C314.311 404.711 313.49 411.045 309.99 416.054C306.49 421.062 299.396 424.147 294.044 421.176C289.636 418.729 287.917 412.972 288.894 408.04C289.87 403.108 293.001 398.881 296.383 395.149C304.775 385.887 315.212 378.54 322.951 368.73C333.422 355.457 352.527 349.681 368.637 354.918C384.748 360.154 396.756 376.044 397.352 392.914C403.044 397.182 407.393 403.202 409.647 409.934C410.775 413.301 411.292 417.301 409.178 420.159C406.096 424.326 399.078 423.301 395.561 419.491C392.043 415.681 391.086 410.247 390.28 405.134C388.115 408.128 385.95 411.122 383.786 414.116C383.434 414.603 382.626 413.881 382.557 413.035C381.922 405.197 380.362 397.434 377.917 389.958C377.079 390.858 375.722 391.239 374.535 390.91C375.039 388.294 375.543 385.678 376.047 383.062C373.108 382.983 370.168 384.404 368.412 386.753C367.606 385.77 367.078 384.564 366.904 383.307C363.817 389.001 356.533 390.747 350.071 391.414C343.609 392.081 336.483 392.519 331.832 397.038C328.493 400.283 325.556 405.817 321.036 404.663C324.82 401.037 328.603 397.411 332.387 393.785C333.673 392.552 335.003 391.29 336.658 390.624C338.53 389.871 340.616 389.957 342.634 389.908C353.107 389.658 363.428 385.32 370.916 378.022C370.698 379.703 370.503 381.515 371.32 383.001C371.659 381.001 374.59 380.46 376.247 381.64C377.904 382.819 378.561 384.922 379.115 386.874C381.027 393.609 382.938 400.344 384.85 407.079C391.452 400.256 393.732 389.812 391.305 380.65C388.879 371.487 382.07 363.74 373.611 359.405C360.257 352.561 342.861 354.514 331.37 364.146C319.88 373.779 314.977 390.519 319.465 404.795C319.945 406.323 321.02 409.473 322.407 413.081M314.592 384.882C316.345 383.692 317.51 381.68 317.667 379.573C316.465 378.774 314.663 379.069 313.781 380.208C312.898 381.347 313.068 383.157 314.147 384.113M394.098 390.25C394.37 391.036 395.677 390.857 396.068 390.123C396.458 389.389 396.23 388.494 395.994 387.697C395.641 387.277 395.004 387.122 394.496 387.331C394.1 388.239 393.982 389.266 394.161 390.239L394.098 390.25Z" fill="#00160A"/>
<path fill-rule="evenodd" clip-rule="evenodd" d="M322.012 412.969C321.857 412.155 321.071 411.621 320.257 411.776C315.432 412.695 312.922 417.083 314.203 420.894C315.639 425.167 320.404 425.351 325.061 420.736C325.649 420.152 317.181 422.907 316.079 420.736C312.818 414.307 322.167 413.782 322.012 412.969Z" fill="#00160A"/>
<path fill-rule="evenodd" clip-rule="evenodd" d="M213.757 683.642C199.401 683.869 150.034 687.527 149.181 685.695C148.09 683.352 201.925 680.271 213.66 680.085L217.335 680.035C228.005 679.92 213.757 683.642 213.757 683.642ZM424.925 678.883C426.188 678.85 427.239 679.847 427.272 681.11C427.306 682.372 426.309 683.423 425.046 683.456L404.614 683.961C391.897 684.253 257.156 684.556 235.375 684.985C234.112 685.01 233.068 684.006 233.043 682.743C233.018 681.48 234.022 680.436 235.285 680.411L393.854 679.625C405.564 679.371 414.972 679.146 424.925 678.883ZM554.866 673.417C554.866 673.417 558.972 672.708 588.955 674.953C590.215 675.048 591.16 676.145 591.065 677.405C590.971 678.665 576.144 678.028 555.875 677.993L550.301 678.002C535.418 678.068 521.592 678.47 498.645 679.415L469.683 680.638C457.323 681.145 449.95 681.391 440.983 681.603C439.72 681.633 438.672 680.633 438.642 679.37C438.613 678.107 439.612 677.059 440.875 677.029L448.076 676.841C456.641 676.594 465.443 676.249 481.048 675.583L497.595 674.88C523.469 673.81 537.856 673.417 554.866 673.417Z" fill="#00160A"/>
<path fill-rule="evenodd" clip-rule="evenodd" d="M383.786 414.116C381.256 413.085 383.096 412.621 383.91 412.776C388.735 413.695 391.245 418.083 389.964 421.894C388.528 426.167 383.763 426.351 379.106 421.736C378.518 421.152 386.163 425.3 388.142 421.131C390.217 416.762 386.315 415.147 383.786 414.116Z" fill="#00160A"/>
<path d="M390.439 380.319C421.613 376.897 453.597 381.195 482.782 392.729C487.311 394.518 491.919 396.51 496.785 396.544C512.603 396.655 528.35 401.777 541.235 411.001C534.538 373.014 503.16 343.145 467.823 328.095C432.486 313.044 393.326 310.357 354.998 308.402C271.795 304.156 187.548 342.846 136.271 408.849C166.302 393.776 199.867 385.877 233.432 385.984C240.047 386.005 248.059 385.57 251.189 379.713C269.193 346.02 301.5 320.365 338.275 310.56C340.349 310.007 343.087 309.764 344.124 311.651C307.152 322.814 274.764 348.602 255.489 382.224C293.337 370.369 334.347 368.895 372.94 378.004C378.698 379.363 384.56 380.965 390.439 380.319Z" fill="white"/>
<path fill-rule="evenodd" clip-rule="evenodd" d="M460.804 341.052C455.221 336.482 449.492 332.093 443.629 327.894C443.695 326.794 445.339 326.857 446.344 327.296C472.417 338.663 492.392 363.247 498.285 391.219C498.786 393.598 498.997 396.538 497.066 398C494.8 392.857 492.535 387.714 490.269 382.571C485.772 372.361 481.178 361.995 473.989 353.487C470.081 348.862 465.483 344.883 460.804 341.052Z" fill="#00160A"/>
<path fill-rule="evenodd" clip-rule="evenodd" d="M368.816 321.943C368.193 321.14 369.239 319.942 370.275 320.002C371.312 320.062 372.123 320.857 372.797 321.62C380.608 330.468 384.426 342.011 386.319 353.498C387.733 362.078 388.177 370.776 388.619 379.454C388.639 379.849 388.651 380.276 388.419 380.602C387.993 381.204 386.961 381.075 386.452 380.536C385.943 379.998 385.818 379.227 385.722 378.503C383.896 364.686 384.63 350.199 378.843 337.443C376.305 331.85 372.605 326.831 368.816 321.943V321.943Z" fill="#00160A"/>
<path fill-rule="evenodd" clip-rule="evenodd" d="M251.199 379.552C269.203 345.859 301.51 320.204 338.285 310.398C340.359 309.845 343.097 309.602 344.134 311.49C307.163 322.653 274.774 348.441 255.499 382.063C255.499 382.063 248.069 385.409 251.199 379.552Z" fill="#00160A"/>
<path fill-rule="evenodd" clip-rule="evenodd" d="M391.219 380.255L392.044 383.242L391.682 383.148C388.672 382.346 380.228 379.377 378.394 378.851C361.757 374.077 344.807 372.832 320.761 374.993L323.719 372.152C323.719 372.152 344.974 371.169 357.508 372C370.042 372.831 391.219 380.255 391.219 380.255Z" fill="#00160A"/>
<path fill-rule="evenodd" clip-rule="evenodd" d="M320.274 501.649C318.78 502.582 317.001 503.237 315.268 502.918C312.187 502.352 310.397 498.833 310.652 495.721C310.908 492.609 312.652 489.841 314.346 487.215C315.899 484.808 317.452 482.401 319.005 479.995C322.144 475.129 318.359 468.188 321.023 463.048C322.876 459.473 327.561 457.443 328.039 453.447C328.21 452.011 330.353 451.554 331.464 452.485C332.575 453.415 332.77 455.06 332.547 456.488C332.323 457.917 331.767 459.291 331.684 460.735C331.575 462.636 332.291 464.479 332.543 466.367C332.796 468.254 332.407 470.481 330.764 471.453C328.844 472.588 327.877 474.873 327.651 477.085C327.424 479.298 327.811 481.521 327.954 483.74C328.396 490.545 326.072 498.028 320.274 501.649M326.605 468.417C327.624 466.673 329.08 465.185 330.805 464.127C329.259 464.201 327.713 464.275 326.167 464.349C325.63 463.131 327.319 462.215 328.581 461.781C329.843 461.348 331.165 459.672 330.042 458.952C329.749 458.764 329.378 458.749 329.031 458.773C325.855 458.992 323.468 461.959 322.675 465.031C321.882 468.104 322.271 471.336 322.278 474.509C322.285 477.681 321.8 481.085 319.653 483.427C316.572 486.789 314.31 490.892 313.117 495.286C312.899 496.09 312.715 496.935 312.891 497.748C313.307 499.667 315.675 500.658 317.587 500.189C319.5 499.72 320.973 498.205 322.12 496.609C325.706 491.617 327.101 485.116 325.876 479.099C325.01 474.841 327.59 470.147 331.657 468.584C330.15 467.676 328.168 467.611 326.605 468.417ZM330.283 457.241C331.214 456.819 331.597 455.507 331.036 454.654C329.692 454.547 329.011 456.987 330.345 457.174L330.283 457.241Z" fill="#00160A"/>
<path fill-rule="evenodd" clip-rule="evenodd" d="M331.036 454.654C331.597 455.507 331.215 456.819 330.283 457.241L330.346 457.173C329.011 456.987 329.693 454.547 331.036 454.654ZM330.805 464.126C329.081 465.185 327.624 466.673 326.605 468.417C328.169 467.611 330.151 467.676 331.658 468.583C327.591 470.147 325.01 474.841 325.876 479.099C327.101 485.116 325.706 491.617 322.12 496.609C320.973 498.205 319.5 499.72 317.588 500.189C315.675 500.658 313.307 499.667 312.891 497.748C312.715 496.935 312.899 496.09 313.117 495.286C314.311 490.892 316.572 486.789 319.654 483.427C321.801 481.085 322.285 477.681 322.278 474.509C322.277 473.733 322.252 472.954 322.228 472.175C322.152 469.765 322.076 467.353 322.675 465.031C323.468 461.959 325.855 458.992 329.031 458.773C329.379 458.749 329.749 458.764 330.042 458.952C331.165 459.672 329.843 461.347 328.581 461.781C327.319 462.215 325.63 463.131 326.167 464.349L330.805 464.126Z" fill="white"/>
<path fill-rule="evenodd" clip-rule="evenodd" d="M339.485 402.274C341.106 402.274 342.441 402.82 343.414 403.909C343.782 404.321 343.746 404.954 343.334 405.321C342.922 405.689 336.048 405.689 335.636 405.321C335.224 404.954 335.188 404.321 335.556 403.909C336.528 402.82 337.863 402.274 339.485 402.274Z" fill="#00160A"/>
<path fill-rule="evenodd" clip-rule="evenodd" d="M367.485 402.274C369.106 402.274 370.441 402.82 371.414 403.909C371.782 404.321 371.746 404.954 371.334 405.321C370.922 405.689 364.048 405.689 363.636 405.321C363.224 404.954 363.188 404.321 363.556 403.909C364.528 402.82 365.863 402.274 367.485 402.274Z" fill="#00160A"/>
</svg>
