<svg width="534" height="490" viewBox="0 0 534 490" fill="none" xmlns="http://www.w3.org/2000/svg">
<path fill-rule="evenodd" clip-rule="evenodd" d="M296.998 390.105C322.165 373.158 368.748 370.205 360.203 333.225C351.854 295.837 320.472 294.466 262.556 260.717C206.251 223.628 220.454 197.721 137.385 194.237C58.1489 194.27 82.269 308.443 23.8934 290.812C-34.4823 273.182 31.1621 419.003 41.5448 429.797C59.8056 448.781 107.894 471.431 131.35 468.221C149.163 465.845 206.47 452.659 234.527 438.973C261.935 426.201 264.897 412.853 296.998 390.105Z"/>
<path d="M521.164 22.8961L521.331 22.9006C522.729 22.9834 523.795 24.184 523.713 25.5823L523.433 30.42L523.255 33.6567C521.398 68.0197 516.988 97.2278 518.024 121.274L518.183 124.755C519.427 150.666 526.036 187.298 532.719 242.65C533.306 243.061 533.715 243.716 533.79 244.484C533.925 245.878 532.904 247.117 531.51 247.253C498.841 250.418 468.444 252.525 440.319 253.574L436.476 253.711L432.083 253.854C403.649 254.736 363.623 255.165 311.994 255.139C310.593 255.139 309.459 254.003 309.459 252.602C309.459 251.933 291.425 30.1959 291.425 30.1959C291.425 30.1959 520.471 22.9001 521.164 22.8961Z" fill="white"/>
<path d="M476.96 440.704L478.554 440.868C501.222 443.239 516.103 446.66 522.968 450.961L523.396 451.238C528.667 454.742 528.002 458.39 520.425 464.213C512.141 470.58 491.78 476.58 461.314 480.242C423.174 484.826 371.897 485.566 307.502 481.579L300.751 481.159C263.574 478.904 235.051 478.296 182.26 478.01L167.688 477.926C136.259 477.706 122.9 477.273 110.005 475.89L108.779 475.754C92.6115 473.906 83.6768 470.527 80.6833 465.232L80.5739 465.032C80.5169 464.925 80.5166 464.927 80.9509 464.486C81.8204 463.605 83.6038 462.579 86.2567 461.509L86.9441 461.239C92.6939 459.027 101.782 456.759 114.154 454.467L116.497 454.04C141.196 449.604 178.029 445.094 226.971 440.517L234.842 439.789L241.562 439.544C351.693 435.597 430.18 435.987 476.96 440.704Z" fill="white"/>
<path fill-rule="evenodd" clip-rule="evenodd" d="M425.904 23.425C426.852 22.3941 428.456 22.327 429.487 23.2752C430.518 24.2235 430.585 25.8279 429.637 26.8589C429.637 26.8589 314.267 158.006 313.218 154.357C312.64 152.348 361.158 94.0551 368.79 86.1972L370.906 84.0571C374.487 80.3414 392.206 60.0633 425.904 23.425Z" fill="#E7EAEE"/>
<path fill-rule="evenodd" clip-rule="evenodd" d="M367.843 52.196C368.991 51.3942 370.572 51.6752 371.374 52.8237C372.176 53.9722 371.895 55.5533 370.746 56.3551C366.921 59.026 307.255 119.216 305.988 118.737C304.721 118.257 310.836 111.106 310.836 111.106C314.745 107.016 349.667 69.9039 349.667 69.9039C352.601 66.7732 355.311 63.9505 357.905 61.3367C360.473 58.749 363.784 55.0296 367.843 52.196Z" fill="#E7EAEE"/>
<path fill-rule="evenodd" clip-rule="evenodd" d="M426.235 440.704L427.83 440.868C450.497 443.239 465.379 446.66 472.243 450.961L472.671 451.238C477.942 454.742 477.277 458.39 469.701 464.213C461.417 470.58 371.897 476.435 307.502 472.448L300.751 472.029C263.574 469.774 235.051 463.078 182.26 462.792L167.688 462.708C136.259 462.489 122.9 477.273 110.005 475.89L108.779 475.754C92.6115 473.906 83.6768 470.527 80.6833 465.232L80.5739 465.032C80.5169 464.925 80.5166 464.927 80.9509 464.486C81.8204 463.605 83.6038 462.579 86.2567 461.509L86.9441 461.239C92.6939 459.027 101.782 456.759 114.154 454.467L116.497 454.04C141.196 449.604 178.029 445.094 226.971 440.517L234.842 439.789L241.562 439.544C351.693 435.597 379.455 435.987 426.235 440.704Z" fill="#E7EAEE"/>
<path d="M125.72 251.081C126.509 253.151 153.459 256.397 168.229 265.128C173.893 268.476 178.181 282.964 177.903 283.238C171.207 289.842 167.569 293.208 163.964 295.236C151.293 302.366 141.527 300.513 132.072 299.021C120.706 297.228 113.953 284.75 118.384 274.39C119.079 272.767 120.828 270.395 123.725 267.059L124.11 266.62C124.099 266.501 124.1 266.379 124.115 266.255C124.247 265.137 124.264 263.99 124.164 262.813L123.939 260.702C123.675 258.344 123.163 254.341 122.402 252.346C122.053 251.43 122.512 250.404 123.428 250.055C124.344 249.705 125.37 250.165 125.72 251.081Z" fill="white"/>
<path d="M187.949 277.52C187.947 277.094 188.054 276.661 188.28 276.263C188.674 275.572 189.343 275.137 190.071 275.016C190.241 274.863 190.357 274.809 190.423 274.871L190.533 274.982C190.943 274.99 191.358 275.097 191.739 275.315L199.199 279.552C214.663 288.393 231.285 301.541 232.889 311.525C234.706 322.838 222.861 381.709 221.492 381.412C220.123 381.116 194.464 439.425 194.449 439.583C194.398 440.114 171.588 440.96 147.592 443.528C139.205 444.426 160.985 415.167 169.178 394.483C183.23 359.01 187.949 277.52 187.949 277.52Z" fill="white"/>
<path d="M371.95 306.45C362.896 304.476 352.378 305.467 340.358 309.476C330.521 312.758 325.134 317.351 323.791 323.222L323.715 323.573L324.101 323.731C332.133 326.971 339.629 327.791 346.642 326.238L347.154 326.12C352.011 324.96 355.956 322.238 360.639 317.398L361.286 316.721C362.388 315.546 364.987 312.699 365.306 312.357C366.97 310.575 368.242 309.346 369.528 308.342L369.807 308.128C370.458 307.638 371.25 307.164 372.185 306.702L372.465 306.566L371.95 306.45Z" fill="white"/>
<path d="M282.837 292.503C276.395 290.503 268.753 290.27 259.9 291.842L259.484 291.917L259.575 292.1C263.492 299.957 267.044 304.792 270.011 306.546L270.196 306.651C273.179 308.299 280.288 308.417 291.19 306.791L292.803 306.541L292.763 306.406C292.722 306.25 292.696 306.089 292.685 305.924L292.68 305.757C292.68 298.828 289.53 294.582 282.837 292.503Z" fill="white"/>
<path d="M209.321 255.745C209.14 257.189 209.751 262.493 207.711 264.942C206.903 265.913 204.971 266.608 203.711 265.996C203.154 265.725 204.891 263.305 205.946 260.569C206.354 259.512 205.638 258.234 205.946 257.225C206.216 256.341 207.523 255.705 207.711 255.041C208.012 253.985 209.44 254.792 209.321 255.745Z" fill="white"/>
<path d="M212.849 249.549C212.668 250.993 216.952 257.715 214.813 259.87C211.176 263.532 207.681 257.109 208.736 254.373C209.144 253.316 209.166 252.039 209.474 251.029C209.744 250.146 212.968 248.596 212.849 249.549Z" fill="white"/>
<path d="M252.38 355.706C251.591 358.668 250.921 376.052 254.694 385.866C256.074 389.457 258.101 392.089 260.842 393.111C263.147 393.933 265.544 394.444 267.991 394.784C273.265 395.51 313.566 398.938 331.658 396.574C349.751 394.209 348.727 393.989 356.996 392.524C360.998 391.814 365.573 391.059 369.663 389.454C372.677 388.277 375.427 386.64 377.581 384.313C379.51 382.233 380.702 378.696 381.057 374.741C381.509 369.715 380.739 363.068 379.984 359.723C379.984 359.536 379.943 359.466 379.984 359.407C380.171 359.133 377.734 357.775 369.663 357.442C355.827 356.871 334.248 357.952 313.342 357.735C284.814 357.439 257.548 354.826 253.028 355.302C252.613 355.345 252.396 355.649 252.38 355.706Z" fill="white"/>
<path d="M122.789 262.915C124.19 262.906 125.334 264.033 125.344 265.434C125.345 265.581 125.334 265.724 125.311 265.864L125.529 265.724C126.746 264.972 128.252 264.592 127.93 266.432C127.481 268.999 121.055 271.984 121.055 276.923C121.055 284.254 123.882 291.271 134.051 294.205C162.531 302.419 176.597 287.858 181.862 281.578C181.86 281.152 181.967 280.719 182.193 280.321C182.587 279.63 183.256 279.195 183.984 279.074C184.154 278.921 184.27 278.867 184.336 278.929L184.446 279.04C184.856 279.048 185.271 279.155 185.653 279.373L193.112 283.61C208.576 292.451 225.198 305.599 226.802 315.583C228.619 326.896 216.774 385.767 215.405 385.47C214.036 385.174 188.377 443.483 188.362 443.641C188.294 444.358 146.778 445.647 116.832 450.97C97.1955 454.46 84.4166 461.005 84.0032 461.375C82.9596 462.31 81.7471 463.928 80.8128 462.884C74.5404 455.878 72.8683 436.187 75.2911 407.207L74.0224 407.078C48.0681 404.456 35.2654 397.156 36.1368 380.72C38.2747 340.396 49.6266 308.798 62.8324 289.231C74.5578 271.859 93.2879 263.126 122.789 262.915Z" fill="white"/>
<path fill-rule="evenodd" clip-rule="evenodd" d="M181.862 281.578C181.86 281.152 181.967 280.719 182.193 280.321C182.587 279.63 183.256 279.195 183.984 279.074C184.154 278.921 184.27 278.867 184.336 278.929L184.446 279.04C184.856 279.048 185.271 279.155 185.653 279.373L193.112 283.61C208.576 292.451 225.198 305.599 226.802 315.583C228.619 326.896 216.774 385.767 215.405 385.47C214.036 385.174 188.377 443.483 188.362 443.641C188.311 444.172 165.501 445.018 141.505 447.586C133.118 448.484 154.898 419.225 163.091 398.541C177.143 363.068 181.862 281.578 181.862 281.578Z" fill="#E7EAEE"/>
<path d="M183.195 280.751C183.244 282.15 182.059 283.323 180.658 283.287C173.661 283.11 172.549 271.078 173.22 271.03C174.149 270.962 175.736 276.677 178.861 278.759C181.243 280.347 183.058 276.894 183.195 280.751Z" fill="white"/>
<path d="M119.778 248.61C120.746 247.451 122.554 248.478 123.186 249.728C123.818 250.978 123.317 252.504 122.068 253.136C115.689 256.363 107.197 255.165 101.965 250.687C92.8757 242.908 92.5037 222.718 92.5037 216.692C92.5037 215.888 102.874 216.837 107.176 222.464C114.805 232.444 118.531 250.104 119.778 248.61Z" fill="white"/>
<path d="M119.099 193.78L119.196 193.245C119.278 192.771 119.276 192.256 119.033 189.709L118.222 181.736C118.069 180.216 117.946 178.904 117.839 177.626L117.755 176.586C117.025 167.195 117.377 161.858 119.912 159.377C127.07 152.374 131.024 152.525 138.479 154.941L140.041 155.449C143.354 156.497 145.014 155.686 147.279 155.154L147.935 155.006C153.187 153.855 158.661 153.642 164.955 154.189C168.636 154.509 170.914 154.812 176.757 155.816L183.655 157.024C187.972 157.784 190.882 158.257 193.96 158.677L194.639 158.764C199.573 159.362 203.589 159.004 208.436 157.91C208.536 157.888 211.146 157.272 212.169 157.052L212.787 156.929C213.747 156.75 214.559 156.656 215.316 156.656L215.436 156.59C222.833 152.752 229.873 140.763 229.292 131.148C228.572 119.217 217.239 111.645 192.902 111.495L191.717 111.49C187.698 111.447 184.761 110.781 176.323 108.196L172.159 106.91C164.932 104.696 160.578 103.689 155.914 103.376C155.111 103.322 154.324 103.295 153.552 103.295C121.221 103.295 89.3721 130.842 84.9888 156.59C84.1929 161.265 87.798 181.888 89.1016 192.141C89.1016 192.141 101.661 192.279 107.776 193.161C108.359 193.245 113.316 204.05 116.319 204.05C119.033 204.05 119.099 193.78 119.099 193.78Z" fill="white"/>
<path d="M137.693 159.006C142.199 160.488 144.674 160.909 148.082 160.173L149.334 159.89C157.415 158.124 163.602 158.657 180.89 161.688L185.036 162.414C188.239 162.964 190.692 163.351 193.275 163.703C198.964 164.479 203.56 164.153 208.884 163.006L214.317 161.79C215.253 161.595 215.138 161.669 215.476 161.723L215.632 161.742C216.344 161.808 218.758 162.171 219.325 163.81C222.818 173.903 223.833 197.991 220.123 217.821C215.087 244.747 200.635 263.204 179.981 268.811C148.508 277.355 124.846 261.121 108.466 219.196L107.962 217.906L106.604 217.632L105.635 217.431C90.0436 214.09 84.7778 208.098 90.0484 198.343C92.6882 193.457 96.3043 191.943 99.3181 192.965C102.985 194.209 107.605 199.003 112.884 207.375L112.943 207.464C115.259 210.814 118.472 209.53 120.105 205.974C121.123 203.755 122.091 200.043 123.067 194.735L123.263 193.65C123.428 192.634 123.351 191.822 122.501 183.619L122.2 180.681C122.092 179.596 122.001 178.618 121.92 177.674L121.88 177.204C121.546 173.208 121.424 170.025 121.549 167.522C121.677 164.98 122.085 163.355 122.445 163.003L123.048 162.422C128.284 157.465 131.252 156.969 136.609 158.654L137.693 159.006Z" fill="white"/>
<path fill-rule="evenodd" clip-rule="evenodd" d="M220.123 217.821C215.087 244.747 200.635 263.204 179.981 268.811C173.971 270.443 191.379 263.991 200.549 252.393C213.123 236.49 220.197 212.938 221.362 205.806C224.888 184.228 223.833 197.991 220.123 217.821Z" fill="#E7EAEE"/>
<path fill-rule="evenodd" clip-rule="evenodd" d="M120.105 205.974C121.123 203.755 122.091 200.043 123.067 194.735L123.263 193.65C123.428 192.634 123.351 191.822 122.501 183.619L122.2 180.681C122.092 179.596 122.001 178.618 121.92 177.674L121.88 177.204C121.546 173.208 121.424 170.025 121.549 167.522C121.677 164.98 122.085 163.355 122.445 163.003L123.048 162.422C128.284 157.465 131.252 156.969 136.609 158.654L137.693 159.006C142.199 160.488 144.674 160.909 148.082 160.173L149.334 159.89C157.415 158.124 163.602 158.657 180.89 161.688L185.036 162.414C188.239 162.964 190.692 163.351 193.275 163.703C198.964 164.479 203.56 164.153 208.884 163.006L214.317 161.79C215.253 161.595 215.138 161.669 215.476 161.723L215.632 161.742C216.344 161.808 218.758 162.171 219.325 163.81C219.325 163.81 217.125 165.593 215.476 165.714C201.105 166.772 190.656 169.28 179.548 170.343C162.034 172.02 146.37 172.595 137.693 177.204C133.5 179.431 129.048 202.393 123.46 210.176C120.294 214.585 120.105 205.974 120.105 205.974Z" fill="#E7EAEE"/>
<path fill-rule="evenodd" clip-rule="evenodd" d="M252.665 385.866C254.045 389.457 256.072 392.089 258.813 393.111C261.118 393.933 263.515 394.444 265.962 394.784C271.236 395.51 311.537 398.938 329.629 396.574C347.722 394.209 346.698 393.989 354.967 392.524C358.969 391.814 363.544 391.059 367.634 389.454C370.648 388.277 373.398 386.64 375.552 384.313C377.481 382.233 378.673 378.696 379.028 374.741C379.48 369.715 378.71 363.068 377.955 359.723C377.788 358.825 374.775 359.475 374.941 360.373C375.393 363.483 375.534 369.655 374.945 374.222C374.582 377.052 374.027 379.682 372.639 381.175C370.899 383.048 368.656 384.325 366.224 385.279C362.374 386.796 358.062 387.506 354.297 388.189C346.139 389.678 338.518 391.61 304.724 392.524C299.243 392.672 271.795 391.255 266.481 390.492C264.293 390.181 262.148 389.73 260.088 388.987C257.684 388.173 256.42 385.191 255.296 381.846C253.94 377.803 250.791 363.362 252.665 360.258C253.363 359.101 258.403 359.353 261.557 359.687C271.661 360.757 290.199 361.189 308.187 361.388C327.99 361.607 375.211 361.617 375.211 360.709C375.211 359.891 377.089 359.688 377.955 359.723C378.235 359.734 376.384 357.442 367.634 357.442C353.693 357.442 332.219 357.952 311.313 357.735C282.785 357.439 255.519 354.826 250.999 355.302C250.903 355.312 250.812 355.319 250.727 355.324C247.42 355.519 248.892 376.052 252.665 385.866Z" fill="#00160A"/>
<path fill-rule="evenodd" clip-rule="evenodd" d="M259.359 366.09C259.5 365.06 260.693 362.813 261.182 363.993C262.052 366.09 261.166 380.093 269.37 381.548C270.747 381.792 274.369 382.315 274.369 383.471C274.369 384.626 273.809 386.37 270.804 385.554C265.503 384.115 262.47 381.147 260.612 376.435C259.29 373.084 258.939 369.157 259.359 366.09Z" fill="#00160A"/>
<path fill-rule="evenodd" clip-rule="evenodd" d="M76.4572 331.615L76.4595 331.639C76.4607 331.832 76.6988 332.095 76.741 332.663C76.9206 335.079 75.8955 340.766 75.7142 342.562C75.2391 346.768 74.4089 352.028 74.2597 357.054C74.1638 360.301 74.3352 363.448 75.2584 366.116C77.178 371.862 81.6081 375.395 86.9608 377.654C91.7489 379.678 97.2906 380.567 102.606 381.205C106.484 381.667 110.225 382.053 113.543 382.241C114.11 382.241 114.57 382.703 114.57 383.27C114.57 383.838 114.11 384.294 113.543 384.294C110.153 384.487 106.302 384.721 102.319 384.499C96.6201 384.183 90.7122 383.042 85.5935 380.924C79.2719 378.303 74.1685 374.003 71.9142 367.228C70.9325 364.168 70.7014 360.576 70.9617 356.884C71.3227 351.771 72.566 346.476 73.302 342.217C73.6325 340.432 74.2293 334.646 75.1514 332.399C75.6024 331.294 76.3811 331.159 76.4069 331.223C76.514 331.329 76.5309 331.492 76.4572 331.615Z" fill="#00160A"/>
<path fill-rule="evenodd" clip-rule="evenodd" d="M127.584 373.011L124.509 373.501C123.541 373.704 122.439 374.096 121.517 374.698C120.835 375.144 120.275 375.722 119.895 376.397C119.718 376.722 119.616 377.047 119.544 377.372C119.411 377.985 119.448 378.604 119.34 379.261C119.254 379.78 119.223 380.293 119.241 380.806C119.265 381.509 119.383 382.205 119.456 382.911C119.617 384.027 119.668 385.097 120.104 386.083C120.3 386.527 120.565 386.922 120.902 387.327C121.063 387.615 121.427 387.72 121.715 387.559C122.004 387.399 122.108 387.035 121.947 386.747C121.947 386.747 119.949 377.479 122.383 375.943C124.817 374.406 126.167 374.606 126.879 374.43C127.171 374.358 127.805 373.578 127.841 373.399C127.877 373.221 127.762 373.047 127.584 373.011Z" fill="#00160A"/>
<path fill-rule="evenodd" clip-rule="evenodd" d="M127.481 373.362L127.818 374.058C127.926 374.511 127.943 375.036 127.955 375.54C127.965 375.984 128.014 376.42 127.735 376.785C127.584 376.936 127.584 377.181 127.735 377.332C127.886 377.483 128.13 377.483 128.281 377.332C128.776 376.99 129.078 376.506 129.169 375.94C129.286 375.206 128.97 374.408 128.695 373.766C128.604 373.561 128.255 373.057 127.897 372.847C127.611 372.681 127.335 372.639 127.117 372.812C126.966 372.912 126.924 373.116 127.024 373.269C127.124 373.421 127.329 373.463 127.481 373.362Z" fill="#00160A"/>
<path fill-rule="evenodd" clip-rule="evenodd" d="M127.071 376.895C126.806 377.047 126.56 377.201 126.464 377.245C125.531 377.67 124.997 378.598 124.853 379.71C124.68 381.059 125.174 382.624 125.461 383.585C125.544 383.917 125.881 384.119 126.212 384.036C126.544 383.953 126.746 383.617 126.663 383.285C126.444 382.297 126.206 380.627 126.445 379.345C126.536 378.861 126.612 378.405 126.985 378.114C126.985 378.114 127.25 376.793 127.071 376.895Z" fill="#00160A"/>
<path fill-rule="evenodd" clip-rule="evenodd" d="M120.589 378.549C121.148 379.176 121.092 380.138 120.464 380.697C119.51 381.547 118.673 382.195 117.941 382.645L117.584 382.856C116.959 383.21 116.128 383.617 115.081 384.086C114.951 384.144 113.741 384.527 113.3 384.185C113.067 384.003 112.809 383.789 112.675 383.483C112.612 383.34 112.826 383.059 113.219 382.7C113.873 382.102 115.615 381.78 116.819 381.026C118.789 379.793 120.306 378.231 120.589 378.549Z" fill="#00160A"/>
<path fill-rule="evenodd" clip-rule="evenodd" d="M125.992 392.902C126.588 392.309 127.551 392.31 128.144 392.905C130.746 395.514 131.521 398.014 129.834 400.073C128.756 401.388 127.222 402.538 125.047 403.409C124.032 403.815 124.155 404.006 121.508 404.587C120.687 404.767 119.876 404.248 119.695 403.427C119.515 402.606 120.035 401.795 120.856 401.615L121.921 401.375C123.83 400.936 126.72 399.07 127.479 398.144C127.912 397.616 127.627 396.697 125.989 395.054C125.396 394.459 125.397 393.496 125.992 392.902Z" fill="#00160A"/>
<path fill-rule="evenodd" clip-rule="evenodd" d="M165.112 368.368C165.467 375.358 165.611 379.555 165.545 380.959C165.361 384.774 164.664 389.665 162.976 393.924C161.754 397.007 159.978 399.722 157.704 401.594C156.16 402.799 152.893 405.149 143.208 404.479C123.761 403.133 126.85 370.159 126.97 369.68C127.09 369.2 127.595 367.339 128.076 367.456C128.949 367.597 125.566 401.847 142.688 402.08C144.017 402.098 145.326 401.916 146.666 401.741C148.523 401.6 150.477 401.179 152.285 400.477C153.418 400.038 154.495 399.482 155.416 398.727C157.305 397.265 158.705 395.036 159.819 392.584C161.575 388.717 162.853 384.286 163.27 380.77C163.491 378.933 163.98 367.778 163.98 367.778C164.237 366.894 165.102 368.173 165.112 368.368Z" fill="#00160A"/>
<path fill-rule="evenodd" clip-rule="evenodd" d="M146.168 364.362L147.039 364.367C157 364.465 164.936 366.242 164.936 368.42C164.936 370.661 161.187 374.913 150.822 374.913L149.951 374.909C136.024 375.49 127.399 370.598 127.399 368.42C127.399 366.179 135.802 364.362 146.168 364.362Z" fill="#00160A"/>
<path fill-rule="evenodd" clip-rule="evenodd" d="M146.168 365.377L145.324 365.381C136.088 365.48 128.414 367.176 128.414 368.42C128.414 369.702 136.56 372.478 146.168 372.478L147.011 372.474C156.248 372.375 163.921 369.665 163.921 368.42C163.921 367.138 155.775 365.377 146.168 365.377Z" fill="white"/>
<path fill-rule="evenodd" clip-rule="evenodd" d="M160.756 233.409C161.221 234.058 161.795 234.656 162.472 235.178C163.188 235.736 164.019 236.084 164.848 236.328C166.465 236.761 168.062 237.195 169.712 237.464C174.795 238.293 187.53 239.684 188.782 239.918C189.626 240.165 190.511 239.678 190.756 238.832C191 237.986 190.512 237.1 189.668 236.853C188.395 236.343 187.136 235.862 185.821 235.524C183.874 235.022 181.875 234.787 179.882 234.556C176.486 234.153 173.078 233.817 169.665 233.606C168.215 233.521 166.785 233.543 165.335 233.445C164.886 233.427 164.435 233.362 163.988 233.217C163.224 232.976 162.487 232.69 161.866 232.268L160.211 231.029C160.031 231.026 159.883 231.177 159.884 231.36C159.884 231.543 160.63 233.214 160.756 233.409Z" fill="#00160A"/>
<path fill-rule="evenodd" clip-rule="evenodd" d="M176.669 245.547C177.531 246.477 178.949 247.256 180.512 247.49C182.098 247.718 183.728 247.332 184.83 246.717C185.169 246.548 185.306 246.132 185.137 245.793C184.967 245.454 184.554 245.319 184.215 245.489C183.46 245.816 182.452 245.869 181.417 245.822C180.981 245.799 180.542 245.74 180.106 245.705C178.967 245.6 177.882 245.512 177.089 245.038C176.949 244.927 176.74 244.945 176.625 245.085C176.509 245.225 176.529 245.43 176.669 245.547Z" fill="#00160A"/>
<path fill-rule="evenodd" clip-rule="evenodd" d="M521.331 22.9006C522.729 22.9834 523.795 24.184 523.713 25.5823L523.433 30.42C521.425 66.1891 520.956 96.4764 522.024 121.274L522.073 122.38C523.251 148.443 526.129 185.187 532.72 242.65C533.306 243.061 533.715 243.716 533.79 244.484C533.925 245.878 532.904 247.117 531.51 247.253C498.841 250.418 468.444 252.525 440.319 253.574L436.476 253.711C407.831 254.69 366.34 255.166 311.994 255.139C310.593 255.139 309.458 254.003 309.459 252.602C309.459 251.201 310.596 250.066 311.996 250.067L323.433 250.065C373.212 250.022 411.415 249.527 438.033 248.581L442.136 248.428C468.613 247.398 497.107 245.432 527.617 242.53C526.539 231.693 518.135 146.787 517.042 123.402L517.005 122.609C515.816 96.3096 516.365 63.8705 518.649 25.2825C518.728 23.9402 519.838 22.9037 521.164 22.8961L521.331 22.9006ZM288.575 28.0186C289.963 27.8327 291.239 28.8075 291.425 30.1959L292.344 37.107C297.878 79.0282 301.543 112.351 303.338 137.086L303.508 139.478C305.327 165.753 306.459 203.88 306.908 253.876C306.921 255.277 305.796 256.422 304.395 256.435C302.994 256.448 301.849 255.322 301.836 253.922L301.764 246.525C301.289 201.706 300.237 166.932 298.609 142.214L298.447 139.829C296.637 113.678 292.621 77.3533 286.397 30.869C286.212 29.4806 287.186 28.2045 288.575 28.0186Z" fill="#00160A"/>
<path fill-rule="evenodd" clip-rule="evenodd" d="M119.434 262.942C120.835 262.932 121.979 264.059 121.989 265.46C121.999 266.86 120.871 268.004 119.471 268.014C91.5024 268.213 72.327 276.28 61.6528 292.095C49.0016 310.839 37.0726 341.427 37.8471 381.014C38.4234 410.469 100.366 405.794 115.218 405.006C117.201 404.901 118.552 405.956 118.537 406.114C118.424 407.301 117.482 408.279 116.251 408.396C98.153 410.113 82.9399 408.343 70.6673 407.104C44.7131 404.482 31.9103 397.182 32.7818 380.745C34.9197 340.422 46.2716 308.823 59.4774 289.257C71.2027 271.885 89.9328 263.152 119.434 262.942Z" fill="#00160A"/>
<path fill-rule="evenodd" clip-rule="evenodd" d="M119.912 159.377C117.377 161.858 117.025 167.195 117.755 176.586L117.839 177.626C117.946 178.904 118.069 180.216 118.222 181.736L119.033 189.709C119.276 192.257 119.278 192.771 119.196 193.245L119.099 193.78C118.405 197.56 116.711 201.45 116.071 203.373L115.936 203.764L115.859 203.647C110.524 195.595 105.631 189.75 100.947 188.162C95.2283 186.222 90.2957 189.091 86.6001 195.932L86.3856 196.335C79.6582 209.213 87.0798 217.182 104.912 221.226L105.259 221.303L105.8 222.642C123.036 264.846 147.696 282.831 181.31 273.706C204.194 267.494 217.723 247.393 223.08 218.754C226.943 198.105 225.891 173.135 222.09 162.151C220.921 158.773 218.998 156.96 216.101 156.692C215.114 156.6 214.085 156.687 212.787 156.929L212.169 157.052C211.146 157.272 208.536 157.888 208.437 157.91C203.589 159.004 199.573 159.362 194.639 158.764L193.96 158.677C190.882 158.257 187.972 157.784 183.655 157.024L176.757 155.816C170.914 154.812 168.636 154.509 164.955 154.189C158.661 153.642 153.187 153.855 147.935 155.006L147.279 155.154C145.014 155.686 143.354 156.497 140.041 155.449L138.479 154.941C131.024 152.525 127.07 152.374 119.912 159.377ZM137.693 159.006C142.199 160.488 144.674 160.909 148.082 160.173L149.334 159.89C157.415 158.124 163.602 158.657 180.89 161.688L185.036 162.414C188.239 162.964 190.692 163.351 193.275 163.703C198.964 164.479 203.56 164.153 208.884 163.006L214.317 161.79C215.253 161.595 215.138 161.669 215.476 161.723L215.632 161.742C216.344 161.808 218.758 162.171 219.325 163.81C222.818 173.903 223.833 197.991 220.123 217.821C215.087 244.747 200.635 263.204 179.981 268.811C148.508 277.355 124.846 261.121 108.466 219.196L107.962 217.906L106.604 217.632L105.635 217.431C90.0436 214.09 84.7778 208.098 90.0484 198.343C92.6882 193.457 96.3043 191.943 99.3181 192.965C102.985 194.209 107.605 199.003 112.884 207.375L112.943 207.464C115.259 210.814 118.472 209.53 120.105 205.974C121.123 203.755 122.091 200.043 123.067 194.735L123.263 193.65C123.428 192.634 123.351 191.822 122.501 183.619L122.2 180.681C122.092 179.596 122.001 178.618 121.92 177.674L121.88 177.204C121.546 173.208 121.424 170.025 121.549 167.522C121.677 164.98 122.085 163.355 122.445 163.003L123.048 162.422C128.284 157.465 131.252 156.969 136.609 158.654L137.693 159.006Z" fill="#00160A"/>
<path fill-rule="evenodd" clip-rule="evenodd" d="M153.552 98.2224C154.44 98.2224 155.34 98.2535 156.254 98.3149C161.403 98.6604 166.046 99.7325 173.61 102.049L178.141 103.447C186.026 105.855 188.648 106.42 192.16 106.42C219.398 106.42 233.439 115.659 234.356 130.842C235.058 142.489 226.922 156.344 217.772 161.092C216.528 161.737 214.997 161.252 214.352 160.009C213.707 158.766 214.192 157.235 215.436 156.59C222.833 152.752 229.873 140.763 229.292 131.148C228.572 119.217 217.239 111.645 192.902 111.495L191.717 111.49C187.698 111.447 184.761 110.781 176.323 108.196L172.159 106.91C164.932 104.696 160.578 103.689 155.914 103.376C155.111 103.322 154.324 103.295 153.552 103.295C121.221 103.295 89.3721 130.842 84.9888 156.59C83.923 162.85 90.75 197.715 89.3721 197.966C87.9941 198.217 86.6732 197.304 86.4218 195.926L86.1251 194.272C83.1853 177.607 80.0146 162.558 81.827 154.67C89.1649 122.736 118.817 98.2224 153.552 98.2224Z" fill="#00160A"/>
<path fill-rule="evenodd" clip-rule="evenodd" d="M189.493 171.965C191.016 171.965 191.742 175.368 191.477 176.241C190.323 180.031 193.21 201.632 195.35 207.214L195.451 207.471C198.556 215.198 194.038 220.195 183.805 221.588C182.417 221.777 181.139 220.805 180.95 219.417C180.891 218.984 181.271 217.836 182.226 217.92C189.254 218.533 194.353 212.505 192.85 208.544L192.657 208.053C190.202 201.675 187.441 187.749 187.441 174.536C187.441 173.134 188.158 171.965 189.493 171.965Z" fill="#00160A"/>
<path fill-rule="evenodd" clip-rule="evenodd" d="M92.5037 216.692C93.2344 218.466 92.6402 236.215 101.965 245.838C109.374 253.485 117.8 250.978 119.778 248.61C120.746 247.451 122.554 248.478 123.186 249.728C123.818 250.978 123.317 252.504 122.068 253.136C115.689 256.363 107.197 255.165 101.965 250.687C92.8757 242.908 90.8928 225.922 90.8928 219.897C90.8928 217.666 91.8527 215.112 92.5037 216.692Z" fill="#00160A"/>
<path fill-rule="evenodd" clip-rule="evenodd" d="M198.026 194.525C198.91 193.194 200.206 193.037 201.517 193.581C202.796 194.112 204.054 195.482 204.464 196.402C205.07 197.771 205.078 200.008 204.589 202.137C204.09 204.317 203.084 206.345 201.996 207.261C200.961 208.124 200.093 208.472 199.165 207.103C195.627 201.879 197.685 195.037 198.026 194.525Z" fill="#00160A"/>
<path fill-rule="evenodd" clip-rule="evenodd" d="M158.427 199.579C158.043 198.169 158.068 190.875 160.825 190.875C164.925 190.875 165.448 198.466 164.922 199.999C161.957 208.638 158.811 200.99 158.427 199.579Z" fill="#00160A"/>
<path fill-rule="evenodd" clip-rule="evenodd" d="M193.544 121.062C192.74 119.953 195.914 119.611 197.07 120.402C206.743 127.026 211.713 133.359 211.627 139.676C211.543 145.88 206.508 152.81 196.749 160.803C195.665 161.691 194.067 161.532 193.18 160.448C192.292 159.364 205.862 150.649 206.555 139.607C207.249 128.566 195.053 123.144 193.544 121.062Z" fill="#00160A"/>
<path fill-rule="evenodd" clip-rule="evenodd" d="M208.572 118.379C208.159 116.58 210.781 116.692 212.012 117.361C219.818 121.6 223.837 128.172 223.837 136.759C223.837 145.171 218.149 152.498 209.568 160.984C208.572 161.969 206.967 161.96 205.982 160.964C204.997 159.968 219.832 149.576 219.832 134.593C219.832 119.61 209.133 120.822 208.572 118.379Z" fill="#00160A"/>
<ellipse cx="206.023" cy="217.768" rx="9.63768" ry="3.55072" fill="#FFB61D"/>
<path fill-rule="evenodd" clip-rule="evenodd" d="M195.675 174.994C197.968 174.174 201.134 174.679 205.268 176.375C205.972 176.664 206.655 177.041 207.401 177.534L207.92 177.894C208.88 178.578 210.516 179.797 210.834 180.02C211.873 180.749 212.817 181.321 213.838 181.815C214.812 182.285 216.399 182.719 218.566 183.089C219.394 183.23 219.951 184.016 219.81 184.845C219.669 185.673 210.25 184.342 209.086 183.526L206.69 181.774C206.273 181.47 205.913 181.213 205.724 181.088C205.131 180.696 204.615 180.411 204.113 180.206C200.737 178.821 198.289 178.4 196.855 178.824L196.699 178.874C193.703 178.137 194.883 175.277 195.675 174.994Z" fill="#00160A"/>
<path fill-rule="evenodd" clip-rule="evenodd" d="M120.385 250.055C121.301 249.705 122.327 250.165 122.676 251.081C123.769 253.944 124.411 260.242 124.599 261.91C124.781 263.532 124.781 265.12 124.597 266.672C124.482 267.646 123.599 268.342 122.626 268.227C121.652 268.112 120.956 267.229 121.071 266.255C121.222 264.977 121.222 263.662 121.07 262.307C120.923 260.997 120.354 254.954 119.359 252.346C119.009 251.43 119.468 250.404 120.385 250.055Z" fill="#00160A"/>
<path fill-rule="evenodd" clip-rule="evenodd" d="M120.996 266.698C121.918 265.643 125.024 263.891 124.575 266.458C124.126 269.025 117.7 272.01 117.7 276.948C117.7 284.28 120.527 291.297 130.696 294.23C167.122 304.737 179.968 277.987 180.981 278.955C181.993 279.923 182.029 281.529 181.061 282.541C175.339 288.523 170.726 292.511 167.122 294.539C154.451 301.669 140.697 303.081 129.029 299.021C118.357 295.307 110.91 284.75 115.341 274.39C116.06 272.709 117.911 270.225 120.996 266.698Z" fill="#00160A"/>
<path fill-rule="evenodd" clip-rule="evenodd" d="M375.959 3.50036C377.107 2.69852 378.688 2.97955 379.49 4.12806C380.292 5.27657 378.995 6.92886 377.846 7.7307C374.021 10.4015 364.804 19.1261 362.917 21.1243L361.104 23.0559C357.543 26.8908 315.123 71.0022 314.104 70.0409C313.17 69.1594 354.56 23.6455 357.666 20.3192L357.783 20.1937C360.717 17.063 363.427 14.2404 366.021 11.6265C368.589 9.03883 371.9 6.33394 375.959 3.50036Z" fill="#E7EAEE"/>
<path fill-rule="evenodd" clip-rule="evenodd" d="M375.959 41.0366C377.107 40.2348 378.688 40.5158 379.49 41.6643C380.292 42.8128 380.011 44.3939 378.862 45.1957C375.037 47.8665 315.371 108.056 314.104 107.577C312.837 107.098 318.952 99.9464 318.952 99.9464C322.861 95.8565 357.783 58.7445 357.783 58.7445C360.717 55.6138 363.427 52.7911 366.021 50.1773C368.589 47.5896 371.9 43.8702 375.959 41.0366Z" fill="#00160A"/>
<path fill-rule="evenodd" clip-rule="evenodd" d="M431.991 12.2656C432.939 11.2347 434.543 11.1676 435.574 12.1158C436.605 13.064 436.672 14.6685 435.724 15.6995C435.724 15.6995 320.354 146.847 319.304 143.197C318.727 141.189 367.245 82.8956 374.877 75.0378L376.993 72.8977C380.573 69.1819 398.293 48.9039 431.991 12.2656Z" fill="#00160A"/>
<path fill-rule="evenodd" clip-rule="evenodd" d="M165.725 172.045C167.817 171.784 171.434 172.141 175.401 173.388C176.737 173.808 177.48 175.232 177.06 176.568C176.64 177.904 175.217 178.647 173.88 178.227C170.515 177.17 167.919 176.628 166.158 176.582L165.725 176.581C165.108 176.596 164.658 176.703 162.91 177.372L160.281 178.399C157.762 179.392 155.908 179.976 153.855 180.314C151.539 180.694 148.046 180.539 143.248 179.887C141.86 179.698 139.487 178.051 141.077 177.032C142.666 176.012 149.387 177.124 152.538 176.568C155.69 176.012 161.671 172.55 165.725 172.045Z" fill="#00160A"/>
<path fill-rule="evenodd" clip-rule="evenodd" d="M57.3348 345.8C68.7562 345.6 73.6232 348.776 72.5724 349.804C72.5724 349.804 60.4398 348.879 57.3348 348.776C54.0526 348.667 39.0278 348.44 38.6142 347.102C38.4569 346.593 38.4677 346.073 38.6151 345.6C38.769 345.106 41.7219 345.409 46.8281 345.638C49.6912 345.767 53.2314 345.872 57.3348 345.8Z" fill="#00160A"/>
<path fill-rule="evenodd" clip-rule="evenodd" d="M75.3912 407.159C75.3912 407.159 74.3637 455.579 81.2371 459.526C82.1865 460.072 82.0827 462.173 81.0391 463.108C79.9955 464.042 78.3921 463.953 77.4578 462.91C71.1419 455.855 69.4904 435.94 71.987 406.63C72.1011 405.29 75.5101 405.763 75.3912 407.159Z" fill="#00160A"/>
<path fill-rule="evenodd" clip-rule="evenodd" d="M234.592 434.722L234.455 434.731L226.361 435.479C175.775 440.212 144.161 444.877 119.316 449.48L116.982 449.919C104.995 452.214 95.1525 454.499 89.4329 456.805C82.2791 459.688 75.8421 463.127 78.1254 467.416C82.1043 474.889 90.4777 477.818 108.821 479.849L110.777 480.056C124.957 481.503 140.197 481.854 178.832 482.05L192.033 482.126C239.129 482.441 266.364 484.133 301.632 486.295L305.227 486.519C370.173 490.619 422.014 489.962 460.75 485.417L461.92 485.278C493.216 481.516 514.331 475.294 523.516 468.235C528.923 464.079 529.75 459.915 529.899 456.062C530.034 452.599 522.085 447.368 517.545 445.648C504.897 440.86 500.77 439.123 476.454 436.671C428.428 431.829 348.506 430.506 234.592 434.722ZM476.96 440.704L478.554 440.868C501.222 443.239 516.103 446.66 522.968 450.961L523.396 451.238C528.667 454.742 528.002 458.39 520.425 464.213C512.141 470.58 491.78 476.58 461.314 480.241C423.174 484.826 371.897 485.566 307.502 481.579L300.751 481.159C263.574 478.904 235.051 478.296 182.26 478.01L167.688 477.926C136.259 477.706 122.9 477.273 110.005 475.89L108.779 475.754C92.6115 473.906 83.6767 470.527 80.6833 465.231L80.5738 465.032C80.5169 464.925 80.5165 464.927 80.9509 464.486C81.8204 463.605 83.6038 462.579 86.2567 461.509L86.944 461.239C92.6939 459.027 101.782 456.759 114.154 454.467L116.497 454.04C141.196 449.604 178.028 445.094 226.971 440.517L234.842 439.789L241.562 439.544C351.693 435.597 430.18 435.987 476.96 440.704Z" fill="#00160A"/>
<path d="M361.57 391.277C360.643 425.07 357.997 447.58 353.495 455.456C349.687 462.12 336.9 464.383 320.691 463.286L314.856 462.863C306.93 462.269 302.51 461.836 298.249 461.178L297.669 461.087C290.812 459.991 286.288 458.478 283.752 456.019C274.394 446.946 269.433 426.844 268.485 395.53C268.443 394.13 272.155 395.419 273.555 395.377C273.846 395.368 290.59 397.388 313.638 396.313C327.305 395.676 361.57 391.277 361.57 391.277Z" fill="white"/>
<path fill-rule="evenodd" clip-rule="evenodd" d="M271.348 395.147C272.275 428.94 280.242 448.58 284.743 456.456C288.552 463.12 301.339 465.383 317.547 464.286L323.383 463.863C331.308 463.269 302.231 454.609 292.191 443.641C280.931 431.339 271.348 395.147 271.348 395.147Z" fill="#E7EAEE"/>
<path fill-rule="evenodd" clip-rule="evenodd" d="M278.203 405.613C278.393 404.225 280.103 401.851 281.059 403.444C282.015 405.037 282.443 408.901 284.431 413.835L288.649 422.014C289.022 422.939 289.361 423.797 289.68 424.624L289.868 425.117C291.772 430.111 292.939 433.037 293.354 436.361C293.527 437.751 292.541 439.019 291.151 439.192C289.761 439.366 288.494 438.38 288.32 436.99C287.967 434.162 287.913 430.554 286.143 425.909L285.772 424.946C285.518 424.292 285.248 423.614 284.957 422.891L282.028 415.773C281.521 414.527 281.13 413.537 280.785 412.619L280.509 411.873C279.455 408.973 278 407.098 278.203 405.613Z" fill="#00160A"/>
<path fill-rule="evenodd" clip-rule="evenodd" d="M211.428 246.435C209.867 247.621 211.774 249.296 212.385 251.12C212.524 251.536 212.701 251.964 212.935 252.466L213.221 253.06L213.868 254.349L214.136 254.896C214.424 255.494 214.629 255.965 214.791 256.412C215.294 257.797 215.247 258.42 214.774 258.842C212.11 261.22 209.28 262.811 203.857 265.213L200.863 266.523C191.835 270.512 185.811 273.159 182.416 278.558C177.935 285.683 179.13 295.896 182.255 310.768L182.402 311.457C183.001 314.229 181.85 319.29 181.023 326.96L180.963 327.512C180.624 330.578 180.187 334.01 179.59 338.366L177.207 355.272C176.307 361.738 175.637 366.881 175.057 371.918L174.838 373.863C173.093 389.61 172.59 401.993 173.601 412.051C174.477 420.776 179.587 433.258 185.617 439.222C194.476 447.984 203.281 443.834 211.248 425.715C214.809 417.616 217.01 410.015 218.062 402.288C219.469 391.956 218.892 381.423 216.44 367.215L216.185 365.77C214.508 356.56 207.181 322.623 206.307 318.318L206.024 316.948L204.162 308.273C204.043 307.706 203.931 307.171 203.823 306.645L203.478 304.926C201.937 297.095 201.402 291.898 201.982 288.534C202.037 288.217 202.305 287.751 202.853 287.159C203.707 286.237 205.063 285.197 207.059 283.911L207.947 283.351C209.816 282.199 214.263 279.553 214.294 279.534L215.25 278.948C224.641 273.137 229.057 268.581 229.057 262.132C229.057 255.725 226.354 250.829 221.966 247.907C218.318 245.478 213.723 244.691 211.428 246.435ZM216.544 252.42L215.672 250.666L215.574 250.647C216.709 250.841 217.986 251.351 219.154 252.129C222.15 254.124 223.985 257.447 223.985 262.132C223.985 266.14 220.446 269.765 212.543 274.658L211.161 275.496C209.81 276.302 206.11 278.511 204.829 279.316L204.723 279.383C202.176 281 200.406 282.336 199.131 283.713C197.972 284.965 197.228 286.258 196.984 287.672C196.232 292.029 196.889 297.964 198.73 307.053L199.198 309.315L200.904 317.251L201.861 321.842C203.818 331.107 209.856 359.215 211.24 366.928L211.285 367.183C213.787 381.383 214.391 391.652 213.036 401.603C212.05 408.85 209.98 415.997 206.605 423.673C202.961 431.961 199.298 436.603 195.929 438.027C193.409 439.092 190.884 438.3 188.169 435.615C183.061 430.563 178.4 419.178 177.633 411.544C176.666 401.911 177.157 389.833 178.867 374.404L179.082 372.498C179.682 367.29 180.38 361.954 181.335 355.122L183.415 340.398L183.862 337.134C184.307 333.83 184.655 331.061 184.938 328.539L185.116 326.898C185.924 319.22 186.057 314.032 185.383 310.637L185.331 310.385C182.289 296.315 181.966 287.189 185.695 281.259C188.336 277.059 192.647 274.83 200.456 271.353L203.936 269.827C209.793 267.231 212.966 265.444 216.123 262.626C218.456 260.544 218.664 257.802 217.53 254.68C217.272 253.971 216.97 253.288 216.544 252.42Z" fill="#00160A"/>
<path d="M216.544 252.42L215.671 250.666L215.574 250.647C216.709 250.841 217.986 251.351 219.154 252.129C222.15 254.124 223.985 257.447 223.985 262.132C223.985 266.14 220.446 269.765 212.543 274.658L211.161 275.496C209.81 276.302 206.11 278.511 204.829 279.316L204.723 279.383C202.176 281 200.406 282.336 199.131 283.713C197.972 284.965 197.228 286.258 196.984 287.672C196.232 292.029 196.889 297.964 198.73 307.053L199.198 309.315L200.904 317.251L201.861 321.842C203.818 331.107 209.856 359.215 211.24 366.928L211.285 367.183C213.787 381.383 214.391 391.652 213.036 401.603C212.05 408.85 209.98 415.997 206.605 423.673C202.961 431.961 199.298 436.603 195.929 438.027C193.409 439.092 190.884 438.3 188.169 435.615C183.061 430.563 178.4 419.178 177.633 411.544C176.666 401.911 177.157 389.833 178.867 374.404L179.082 372.498C179.682 367.29 180.38 361.954 181.335 355.122L183.415 340.398L183.862 337.134C184.307 333.83 184.654 331.061 184.938 328.539L185.116 326.898C185.924 319.22 186.057 314.032 185.383 310.637L185.331 310.386C182.288 296.315 181.966 287.189 185.695 281.259C188.336 277.059 192.647 274.83 200.456 271.353L203.936 269.827C209.793 267.231 212.966 265.444 216.123 262.626C218.456 260.544 218.664 257.802 217.53 254.68C217.272 253.971 216.97 253.288 216.544 252.42Z" fill="white"/>
<path fill-rule="evenodd" clip-rule="evenodd" d="M200.143 286.434C200.836 285.217 202.385 284.792 203.602 285.485C218.243 293.824 226.632 303.863 228.519 315.608C230.336 326.922 218.491 385.793 217.122 385.496C215.753 385.199 214.884 383.849 215.181 382.48L215.821 379.499C222.594 347.696 225.142 326.567 223.511 316.413C221.899 306.377 214.509 297.535 201.091 289.893C199.874 289.2 199.45 287.651 200.143 286.434Z" fill="#00160A"/>
<path fill-rule="evenodd" clip-rule="evenodd" d="M206.168 252.505C207.347 251.748 208.916 252.089 209.673 253.268C210.977 255.298 211.759 256.951 212.003 258.362C212.243 259.753 212.081 261.619 211.572 264.101C211.29 265.473 209.949 266.357 208.577 266.075C207.935 265.944 207.4 265.58 207.041 265.089C206.633 264.532 209.033 263.081 209.033 259.227C209.033 255.372 204.99 253.262 206.168 252.505Z" fill="#00160A"/>
<path fill-rule="evenodd" clip-rule="evenodd" d="M205.242 256.414C205.856 255.902 206.397 257.835 206.277 258.789C206.097 260.232 206.097 265.417 204.057 267.866C203.249 268.836 201.928 269.651 200.668 269.039C200.111 268.769 201.848 266.348 202.903 263.613C203.667 261.631 204.263 259.508 204.668 258.084C204.968 257.028 204.606 256.945 205.242 256.414Z" fill="#00160A"/>
<path fill-rule="evenodd" clip-rule="evenodd" d="M359.097 388.561C360.497 388.596 361.604 389.76 361.569 391.16L361.514 393.245C360.587 427.039 357.997 447.58 353.495 455.456C349.687 462.12 336.9 464.383 320.691 463.286L314.856 462.863C306.93 462.269 302.51 461.836 298.249 461.178L297.669 461.087C290.812 459.991 286.288 458.478 283.752 456.019C274.394 446.946 269.433 426.844 268.485 395.53C268.443 394.13 269.544 392.961 270.944 392.918C272.344 392.876 273.513 393.977 273.555 395.377L273.615 397.168C274.655 426.208 279.332 444.668 287.283 452.377L287.474 452.554C290.403 455.148 297.666 456.433 314.511 457.745L320.496 458.188L321.537 458.258C335.527 459.133 346.699 457.125 349.092 452.939C353.089 445.945 355.646 425.102 356.498 391.033C356.533 389.633 357.697 388.526 359.097 388.561Z" fill="#00160A"/>
<path fill-rule="evenodd" clip-rule="evenodd" d="M267.051 294.453C267.537 293.139 275.632 295.149 277.783 296.408C278.572 296.87 296.625 305.337 301.823 308.593C308.42 312.726 313.058 330.532 311.493 350.519C311.263 353.462 309.488 356.705 306.273 360.402C305.354 361.459 303.752 361.57 302.695 360.651C301.638 359.732 301.527 358.13 302.446 357.073C305.013 354.121 306.309 351.754 306.436 350.123L306.516 349.035C307.73 331.288 304.597 314.676 300.328 312.001L299.498 311.49C295.462 309.045 292.996 308.241 288.059 307.323C288.059 307.323 280.358 301.116 277.32 299.381C270.584 295.534 266.828 295.056 267.051 294.453Z" fill="#00160A"/>
<path fill-rule="evenodd" clip-rule="evenodd" d="M335.246 273.493C336.24 274.48 315.225 292.509 314.104 293.52C310.666 296.621 308.535 303.66 309.408 312.781L309.458 313.283C309.636 314.988 310.238 321.875 310.263 322.842L310.329 324.26C310.36 324.756 310.406 325.28 310.499 326.182L310.993 330.728C311.821 338.259 312.04 343.531 311.493 350.519C311.263 353.462 309.488 356.705 306.273 360.402C305.354 361.459 303.752 361.57 302.695 360.651C301.638 359.732 308.213 350.806 308.341 349.176C308.838 342.822 305.416 326.343 305.416 326.343C305.271 324.899 305.252 324.431 305.201 323.23C305.135 321.688 305.282 320.48 305.728 318.286L306.078 316.596C306.438 314.8 306.537 313.893 306.456 312.946L306.442 312.796C305.84 307.029 306.179 302.358 307.334 298.597C308.373 295.214 310.072 292.568 312.339 290.522C313.334 289.625 314.346 288.917 315.555 288.208L316.984 287.394C317.161 287.29 317.276 287.216 317.347 287.164L317.556 287.005C319.538 285.468 334.252 272.506 335.246 273.493Z" fill="#00160A"/>
<path fill-rule="evenodd" clip-rule="evenodd" d="M358.767 311.657C359.11 313.016 325.283 324.34 320.785 328.195C314.626 333.474 311.335 341.141 312.277 347.988L312.334 348.368C312.948 352.174 311.368 356.161 305.991 360.679C304.919 361.58 303.319 361.441 302.418 360.369C301.517 359.296 301.656 357.697 302.728 356.795C306.854 353.329 308.582 350.672 308.341 349.176C306.925 340.394 310.945 330.817 318.499 324.344C323.973 319.652 358.424 310.299 358.767 311.657Z" fill="#00160A"/>
<path fill-rule="evenodd" clip-rule="evenodd" d="M255.238 287.606C266.423 285.109 276.129 285.109 284.341 287.659C293.15 290.395 297.752 296.599 297.752 305.757C297.752 306.247 297.613 306.705 297.372 307.093L297.259 307.258L297.343 307.386C297.482 307.611 297.588 307.86 297.652 308.129L297.685 308.293C297.92 309.673 296.992 310.984 295.611 311.219L294.308 311.437C280.986 313.618 272.267 313.59 267.743 311.091C263.148 308.553 258.506 301.936 253.49 291.151C252.808 289.682 253.657 287.959 255.238 287.606ZM282.837 292.503C276.395 290.503 268.753 290.27 259.9 291.842L259.484 291.917L259.575 292.1C263.493 299.957 267.044 304.792 270.011 306.546L270.196 306.651C273.18 308.299 280.288 308.417 291.19 306.791L292.803 306.541L292.763 306.406C292.722 306.25 292.696 306.089 292.685 305.924L292.68 305.757C292.68 298.828 289.53 294.582 282.837 292.503Z" fill="#00160A"/>
<path fill-rule="evenodd" clip-rule="evenodd" d="M342.792 261.175C344.082 261.197 345.15 262.184 345.273 263.469C346.166 272.8 344.999 279.89 341.603 284.715C337.94 289.92 330.859 291.562 320.691 290.047C319.361 289.849 318.427 288.652 318.537 287.331L318.547 287.245L318.419 287.21C317.852 287.03 317.347 286.653 317.018 286.113L316.933 285.961C313.425 279.214 315.061 272.943 321.503 267.934C327.336 263.398 334.269 261.142 342.209 261.169L342.792 261.175ZM340.424 266.672L340.402 266.28L340.393 266.28C334.331 266.571 329.095 268.456 324.617 271.938C320.044 275.494 319.096 279.126 321.433 283.621C321.649 284.035 321.739 284.482 321.717 284.917L321.704 285.067L321.906 285.098C329.952 286.226 334.993 285.064 337.323 281.976L337.455 281.795C339.741 278.547 340.769 273.511 340.424 266.672Z" fill="#00160A"/>
<path d="M128.885 378.625C131.898 378.726 133.029 382.1 131.274 385.49C130.06 387.837 127.09 390.305 124.023 391.756C122.271 392.585 120.241 392.693 117.983 392.124C117.168 391.919 116.674 391.092 116.879 390.277C117.084 389.462 117.911 388.967 118.726 389.173C120.34 389.579 119.085 387.341 118.992 386.506C118.9 385.671 119.502 384.919 120.338 384.826C121.868 384.657 122.668 383.865 123.445 383.333C123.663 383.184 123.947 382.887 124.346 382.388L124.798 381.803L124.955 381.596C126.671 379.316 127.343 378.624 128.728 378.622L128.885 378.625Z" fill="white"/>
<path fill-rule="evenodd" clip-rule="evenodd" d="M128.885 378.625C131.898 378.726 133.029 382.1 131.274 385.49C130.06 387.837 127.09 390.305 124.023 391.756C122.271 392.585 120.241 392.693 117.983 392.124C117.168 391.919 116.674 391.092 116.879 390.277C117.084 389.462 117.911 388.967 118.726 389.173C120.34 389.579 121.655 389.509 122.721 389.005C125.237 387.814 127.706 385.763 128.571 384.091C129.07 383.128 129.177 382.374 129.026 381.923C128.993 381.825 128.958 381.762 128.918 381.723L128.879 381.692L128.826 381.733C128.782 381.767 128.732 381.81 128.677 381.861L128.592 381.944C128.338 382.199 128.106 382.478 127.655 383.07L127.047 383.874C126.302 384.848 125.782 385.422 125.164 385.845C123.929 386.69 122.662 387.631 120.672 387.851C119.837 387.944 119.085 387.341 118.992 386.506C118.9 385.671 119.502 384.919 120.338 384.826C121.868 384.657 122.668 383.865 123.445 383.333C123.663 383.184 123.947 382.887 124.346 382.388L124.798 381.803L124.955 381.596C126.671 379.316 127.343 378.624 128.728 378.622L128.885 378.625Z" fill="#00160A"/>
<path fill-rule="evenodd" clip-rule="evenodd" d="M129.974 385.408C131.823 385.47 132.502 387.092 132.353 388.991C132.242 390.408 131.67 391.924 130.803 392.891C129.705 394.115 128.172 395.167 126.095 396.251L125.673 396.469C124.923 396.849 124.405 397.094 123.034 397.729C121.352 398.507 119.111 398.786 116.293 398.613C115.454 398.562 114.815 397.841 114.867 397.002C114.918 396.163 115.639 395.524 116.478 395.576C118.837 395.72 120.602 395.5 121.755 394.967L123.185 394.299C123.602 394.101 123.92 393.945 124.296 393.754C126.28 392.748 127.676 391.819 128.537 390.859C128.891 390.464 129.201 389.688 129.298 388.953L129.319 388.753L129.321 388.712L129.203 388.783C128.909 389.072 125.216 391.294 124.817 391.373C119.621 392.407 120.568 391.994 118.578 392.214C117.743 392.306 116.991 391.704 116.899 390.869C116.806 390.034 117.408 389.281 118.244 389.189C118.794 389.128 119.828 390.11 120.974 390.019C121.954 389.941 124.379 388.695 124.379 388.695L125.425 387.822C125.683 387.608 125.907 387.425 126.123 387.254L126.636 386.857C127.96 385.861 128.939 385.373 129.974 385.408Z" fill="#00160A"/>
<path fill-rule="evenodd" clip-rule="evenodd" d="M124.654 400.227C126.717 399.475 128.41 401.322 129.204 403.086C130.065 405.001 129.008 406.69 127.009 407.925C125.654 408.763 123.813 409.401 122.44 409.556C120.503 409.775 118.201 409.128 115.484 407.681C114.742 407.287 114.461 406.365 114.856 405.623C115.251 404.881 116.172 404.6 116.914 404.995C119.138 406.179 120.883 406.669 122.098 406.532C123.024 406.428 124.435 405.938 125.409 405.337C125.893 405.037 127.962 403.086 125.695 403.086C124.84 403.086 123.864 402.612 123.745 402.177C123.625 401.742 123.864 400.514 124.654 400.227Z" fill="#00160A"/>
<path fill-rule="evenodd" clip-rule="evenodd" d="M153.63 368.077C153.96 367.91 154.457 368.2 154.499 368.551L154.5 368.627L154.382 369.823L157.894 368.076C158.076 367.978 158.368 368.041 158.588 368.214L158.667 368.285C158.867 368.485 158.902 368.722 158.759 368.849L158.697 368.892L154.036 371.113C153.658 371.278 153.134 370.988 153.122 370.638L153.127 370.562L152.955 369.823L149.384 371.112C149.016 371.265 148.563 371.032 148.537 370.706L148.539 370.629L148.463 369.717L144.088 371.115C143.677 371.269 143.257 371.008 143.322 370.67L143.343 370.597L143.403 369.717L139.894 370.961C139.489 371.119 139.102 370.9 139.16 370.577L139.181 370.5L139.381 369.594L136.147 370.516C135.765 370.648 135.438 370.471 135.481 370.181L135.499 370.106L135.847 369.098L133.255 369.717C132.974 369.783 132.751 369.684 132.719 369.493L132.717 369.417C132.735 369.204 132.95 368.98 133.215 368.881L133.315 368.85L136.566 368.05C136.892 367.968 137.139 368.144 137.106 368.409L137.09 368.484L136.81 369.387L140.302 368.074C140.667 367.931 141.005 368.15 140.96 368.467L140.943 368.542L140.546 369.751L144.427 368.082C144.796 367.913 145.199 368.173 145.157 368.518L145.141 368.592L144.726 369.881L149.03 368.074C149.357 367.927 149.771 368.159 149.813 368.484L149.815 368.56L149.722 369.903L153.63 368.077Z" fill="#FFB61D"/>
<ellipse cx="160.421" cy="214.727" rx="10.4907" ry="2.94753" transform="rotate(8.98977 160.421 214.727)" fill="#FFB61D"/>
<path fill-rule="evenodd" clip-rule="evenodd" d="M77.2754 282.203L79.1061 286.051L83.2137 287.186L80.1197 290.116L80.3098 294.373L76.5668 292.336L72.5767 293.832L73.3575 289.643L70.7014 286.311L74.9269 285.759L77.2754 282.203Z" fill="#00160A"/>
<path fill-rule="evenodd" clip-rule="evenodd" d="M106.921 275.098L108.244 278.038L111.232 278.895L108.971 281.146L109.099 284.403L106.379 282.854L103.469 284.009L104.049 280.802L102.123 278.259L105.202 277.825L106.921 275.098Z" fill="#00160A"/>
<path fill-rule="evenodd" clip-rule="evenodd" d="M127.211 335.968L128.534 338.907L131.522 339.765L129.261 342.015L129.388 345.273L126.668 343.724L123.759 344.879L124.339 341.671L122.413 339.128L125.491 338.695L127.211 335.968Z" fill="#00160A"/>
<path fill-rule="evenodd" clip-rule="evenodd" d="M215.472 315.678L216.795 318.618L219.782 319.475L217.522 321.726L217.649 324.983L214.929 323.434L212.02 324.589L212.6 321.381L210.674 318.838L213.752 318.405L215.472 315.678Z" fill="#00160A"/>
<path fill-rule="evenodd" clip-rule="evenodd" d="M84.602 413.069L85.925 416.009L88.9128 416.867L86.6523 419.117L86.7797 422.374L84.0597 420.825L81.1505 421.98L81.7299 418.773L79.8046 416.23L82.8828 415.796L84.602 413.069Z" fill="#00160A"/>
<path fill-rule="evenodd" clip-rule="evenodd" d="M83.6583 439.448L85.2752 443.042L88.9271 444.09L86.1642 446.84L86.3199 450.821L82.9954 448.928L79.4398 450.34L80.148 446.419L77.7948 443.311L81.557 442.782L83.6583 439.448Z" fill="#00160A"/>
<path fill-rule="evenodd" clip-rule="evenodd" d="M114.093 424.231L115.71 427.824L119.362 428.872L116.599 431.623L116.755 435.604L113.43 433.71L109.875 435.123L110.583 431.202L108.23 428.094L111.992 427.564L114.093 424.231Z" fill="#00160A"/>
<path fill-rule="evenodd" clip-rule="evenodd" d="M154.673 412.057L156.29 415.65L159.942 416.698L157.179 419.449L157.334 423.43L154.01 421.536L150.454 422.949L151.162 419.028L148.809 415.92L152.571 415.39L154.673 412.057Z" fill="#00160A"/>
<path fill-rule="evenodd" clip-rule="evenodd" d="M94.5218 326.841L96.3525 330.689L100.46 331.823L97.3661 334.754L97.5562 339.011L93.8132 336.974L89.8231 338.47L90.6039 334.281L87.9478 330.948L92.1733 330.396L94.5218 326.841Z" fill="#00160A"/>
<path fill-rule="evenodd" clip-rule="evenodd" d="M99.5943 298.435L101.425 302.283L105.533 303.418L102.439 306.348L102.629 310.605L98.8857 308.568L94.8956 310.064L95.6764 305.875L93.0202 302.543L97.2458 301.991L99.5943 298.435Z" fill="#00160A"/>
<path fill-rule="evenodd" clip-rule="evenodd" d="M145.246 315.681L147.077 319.529L151.185 320.664L148.091 323.594L148.281 327.851L144.538 325.814L140.548 327.311L141.329 323.121L138.672 319.789L142.898 319.237L145.246 315.681Z" fill="#00160A"/>
<path fill-rule="evenodd" clip-rule="evenodd" d="M171.623 302.493L173.454 306.341L177.562 307.476L174.467 310.406L174.658 314.663L170.915 312.626L166.925 314.122L167.705 309.933L165.049 306.601L169.275 306.049L171.623 302.493Z" fill="#00160A"/>
<path fill-rule="evenodd" clip-rule="evenodd" d="M163.507 343.072L165.338 346.921L169.446 348.055L166.352 350.986L166.542 355.243L162.799 353.206L158.809 354.702L159.589 350.513L156.933 347.18L161.159 346.628L163.507 343.072Z" fill="#00160A"/>
<path fill-rule="evenodd" clip-rule="evenodd" d="M96.5507 356.261L98.3815 360.109L102.489 361.244L99.395 364.174L99.5851 368.431L95.8422 366.394L91.8521 367.89L92.6329 363.701L89.9767 360.369L94.2023 359.817L96.5507 356.261Z" fill="#00160A"/>
<path fill-rule="evenodd" clip-rule="evenodd" d="M70.4345 311.621L72.0734 314.899L75.7303 315.876L72.9861 318.36L73.1668 321.982L69.8319 320.239L66.2867 321.501L66.9698 317.939L64.598 315.097L68.3552 314.639L70.4345 311.621Z" fill="#00160A"/>
<path fill-rule="evenodd" clip-rule="evenodd" d="M52.1736 332.925L53.8126 336.204L57.4694 337.18L54.7252 339.664L54.906 343.286L51.571 341.543L48.0259 342.805L48.709 339.244L46.3372 336.402L50.0943 335.944L52.1736 332.925Z" fill="#00160A"/>
<path fill-rule="evenodd" clip-rule="evenodd" d="M185.224 279.736C185.273 281.136 184.088 282.308 182.687 282.273C175.69 282.095 174.578 270.064 175.249 270.015C176.178 269.948 177.765 275.663 180.89 277.745C183.272 279.332 185.087 275.879 185.224 279.736Z" fill="#00160A"/>
<path fill-rule="evenodd" clip-rule="evenodd" d="M338.753 304.665C355.25 299.162 369.445 298.957 381.258 304.162C383.434 305.121 383.213 308.278 380.924 308.924L380.053 309.175C376.656 310.181 374.286 311.171 373.01 312.07L372.753 312.26L372.65 312.34C371.687 313.092 370.659 314.073 369.308 315.505L365.225 319.934C365.035 320.138 364.87 320.314 364.741 320.45C359.254 326.214 354.488 329.584 348.333 331.054C339.905 333.066 330.961 332.088 321.562 328.172C320.807 327.857 320.285 327.221 320.088 326.489L320.083 326.469L319.95 326.411C319.041 325.971 318.456 325.014 318.524 323.966L318.54 323.8C319.674 315.09 326.577 308.726 338.753 304.665ZM371.95 306.45C362.896 304.476 352.378 305.467 340.358 309.476C330.521 312.758 325.134 317.351 323.791 323.222L323.715 323.573L324.101 323.731C332.133 326.971 339.629 327.791 346.642 326.238L347.154 326.12C352.011 324.96 355.956 322.238 360.639 317.398L361.286 316.721C362.388 315.546 364.987 312.699 365.306 312.357C366.97 310.575 368.242 309.346 369.528 308.342L369.807 308.128C370.459 307.638 371.25 307.164 372.185 306.702L372.465 306.566L371.95 306.45Z" fill="#00160A"/>
<path fill-rule="evenodd" clip-rule="evenodd" d="M375.959 0.456892C377.107 -0.344949 378.688 -0.0639179 379.49 1.08459C380.292 2.2331 378.995 3.88539 377.846 4.68723C374.021 7.35803 364.804 16.0826 362.917 18.0808L361.104 20.0124C357.543 23.8473 315.123 67.9588 314.104 66.9975C313.17 66.1159 354.56 20.602 357.666 17.2758L357.783 17.1503C360.717 14.0195 363.427 11.1969 366.021 8.58305C368.589 5.99535 371.9 3.29047 375.959 0.456892Z" fill="#00160A"/>
</svg>
