<svg width="655" height="663" viewBox="0 0 655 663" fill="none" xmlns="http://www.w3.org/2000/svg">
<path fill-rule="evenodd" clip-rule="evenodd" d="M308.607 521.305C216.098 501.058 92.8388 460.879 113.094 323.018C133.349 185.156 220.175 132 327.595 132C435.01 132 557.051 213.041 533.094 380.925C509.136 548.809 401.117 541.551 308.607 521.305ZM612.68 355.122C616.5 316.761 612.441 278.805 601.538 243.225L632.646 226.561C637.889 223.754 639.861 217.229 637.058 211.987L594.588 132.698C591.776 127.456 585.251 125.484 580.007 128.291L548.9 144.954C525.318 116.169 495.97 91.7598 461.927 73.6834L472.131 39.919C473.855 34.2271 470.637 28.2188 464.942 26.4981L378.844 0.463552C373.15 -1.25717 367.146 1.96144 365.422 7.65326L355.218 41.4177C316.851 37.5987 288.9 51.6574 253.318 62.5538L236.654 31.4455C233.847 26.2038 227.322 24.2311 222.081 27.0385L142.792 69.5109C137.55 72.3184 135.577 78.8431 138.385 84.084L155.048 115.193C126.263 138.775 91.8535 158.122 73.7771 192.172L40.0118 181.962C34.3209 180.242 28.3116 183.46 26.5909 189.151L0.557307 275.25C-1.16341 280.942 2.0552 286.95 7.74612 288.672L41.5114 298.881C37.6924 337.241 41.7511 375.197 52.6475 410.777L21.5393 427.442C16.2975 430.249 14.3248 436.774 17.1322 442.016L59.6046 521.305C62.412 526.546 68.9368 528.519 74.1776 525.711L105.287 509.047C128.868 537.834 158.216 562.243 192.265 580.319L182.056 614.084C180.335 619.775 183.554 625.784 189.245 627.505L275.345 653.535C281.031 655.259 287.043 652.04 288.768 646.346L298.972 612.585C337.33 616.404 375.29 612.345 410.871 601.448L427.53 632.557C430.342 637.798 436.868 639.767 442.111 636.963L521.4 594.491C526.635 591.684 528.616 585.159 525.804 579.918L509.136 548.809C537.927 525.227 562.332 495.879 580.414 461.83L614.174 472.04C619.869 473.76 625.881 470.543 627.597 464.851L653.629 378.752C655.353 373.061 652.134 367.052 646.44 365.331L612.68 355.122Z" />
<path fill-rule="evenodd" clip-rule="evenodd" d="M446.093 161.551L443.095 161.449L443.01 164.113C442.868 168.906 442.933 174.034 443.005 179.624C443.055 183.52 443.107 187.641 443.095 192.031L442.597 200.698C442.61 208.773 442.667 220.013 442.767 234.417L443.093 275.421C440.889 276.152 439.233 278.054 438.901 280.369C437.083 280.646 435.687 282.19 435.687 284.047C435.687 285.362 436.387 286.518 437.441 287.181L436.158 290.281C435.589 291.659 434.649 292.836 433.44 293.687C428.141 297.414 425.021 303.451 425.095 309.836C425.097 310.006 425.101 310.175 425.108 310.344C425.131 310.956 425.655 311.427 426.281 311.411C426.906 311.388 427.394 310.873 427.371 310.261C427.365 310.112 427.361 309.962 427.359 309.811C427.294 304.149 431.061 298.795 435.76 295.489C437.317 294.393 438.527 292.881 439.257 291.114L439.641 287.77H441.251C441.251 287.77 441.81 290.78 441.81 293.133C441.81 295.487 441.251 300.148 441.251 300.148H439.395C437.27 300.148 435.541 301.842 435.541 303.924C435.541 306.005 437.27 307.699 439.395 307.699H439.661C441.786 307.699 442.515 306.612 442.515 303.924C442.515 302.517 442.671 301.51 444.967 301.51C447.264 301.51 446.672 303.924 446.672 303.924C446.672 306.005 448.401 307.699 450.527 307.699H450.792C452.918 307.699 454.647 306.005 454.647 303.924C454.647 301.842 451.062 300.081 448.937 300.081C448.937 300.081 448.371 295.845 448.371 293.687C448.371 291.868 448.937 288.148 448.937 288.148H446.672C446.672 288.148 447.145 291.62 447.145 293.738C447.145 295.857 446.672 300.081 446.672 300.081C446.672 300.081 445.424 300.306 444.828 300.319C444.233 300.332 443.515 300.148 443.515 300.148C443.515 300.148 443.019 295.817 443.019 293.738C443.019 291.66 443.515 287.77 443.515 287.77H446.672H448.937H450.547L451.93 291.114C452.625 292.793 454.705 294.268 456.291 295.392L456.492 295.534C461.086 298.797 462.829 304.059 462.829 309.609C462.829 314.298 460.952 318.692 457.542 321.983C454.134 325.274 449.62 328.049 444.828 327.98C441.029 327.926 437.145 325.832 434.108 323.563C431.168 321.366 427.359 315.357 426.725 313.969C426.091 312.582 425.793 314.771 425.978 315.357C427.198 319.225 429.694 322.718 433.006 325.193C436.431 327.752 440.508 329.137 444.795 329.198C450.199 329.274 455.288 327.274 459.132 323.563C462.976 319.852 465.094 314.896 465.094 309.609C465.094 303.35 462.001 297.417 456.821 293.738C455.559 292.842 454.594 291.647 454.029 290.281L452.747 287.181C453.8 286.519 454.5 285.362 454.5 284.047C454.5 282.19 453.104 280.646 451.286 280.369C450.912 277.759 448.854 275.673 446.226 275.2L446.081 275.2L444.344 237.07C444.24 222.556 445.598 193.546 445.598 193.546C445.622 182.39 445.759 172.61 446.009 164.205L446.093 161.551ZM450.527 305.481C449.65 305.481 448.937 304.782 448.937 303.924V301.51C448.937 301.51 452.382 302.2 452.382 303.924C452.382 305.505 451.782 305.496 451.006 305.483H451.004C450.935 305.482 450.864 305.481 450.792 305.481H450.527ZM436.939 303.924C437.085 306.092 441.584 307.038 441.251 303.924V301.51C441.251 301.51 436.792 301.755 436.939 303.924ZM441.21 280.324C441.626 278.602 443.21 277.316 445.094 277.316C446.978 277.316 448.561 278.602 448.977 280.324H441.21ZM450.7 282.543H450.216H439.972H439.488C438.641 282.543 437.952 283.218 437.952 284.047C437.952 284.877 438.641 285.551 439.488 285.551H450.7C451.547 285.551 452.236 284.877 452.236 284.047C452.236 283.218 451.547 282.543 450.7 282.543ZM470.104 292.2H472.083C472.641 292.2 473.094 291.752 473.094 291.2C473.094 290.648 472.641 290.2 472.083 290.2H470.104C469.546 290.2 469.094 290.648 469.094 291.2C469.094 291.752 469.546 292.2 470.104 292.2ZM468.532 299.279L470.436 300.081C470.973 300.307 471.234 300.947 471.018 301.51C470.803 302.073 470.193 302.347 469.656 302.121L467.751 301.319C467.215 301.093 466.954 300.453 467.169 299.89C467.333 299.461 467.726 299.2 468.142 299.2C468.272 299.2 468.404 299.225 468.532 299.279ZM466.832 282.972L468.616 281.54C469.119 281.137 469.245 280.337 468.897 279.753C468.682 279.393 468.336 279.2 467.985 279.2C467.767 279.2 467.548 279.274 467.355 279.428L465.571 280.86C465.068 281.264 464.943 282.064 465.291 282.647C465.639 283.23 466.329 283.375 466.832 282.972ZM419.083 292.2H417.104C416.546 292.2 416.094 291.752 416.094 291.2C416.094 290.648 416.546 290.2 417.104 290.2H419.083C419.641 290.2 420.094 290.648 420.094 291.2C420.094 291.752 419.641 292.2 419.083 292.2ZM420.656 299.279L418.752 300.081C418.215 300.307 417.954 300.947 418.169 301.51C418.385 302.073 418.995 302.347 419.532 302.121L421.436 301.319C421.973 301.093 422.234 300.453 422.018 299.89C421.854 299.461 421.461 299.2 421.046 299.2C420.916 299.2 420.784 299.225 420.656 299.279ZM422.356 282.972L420.571 281.54C420.068 281.137 419.943 280.337 420.291 279.754C420.506 279.393 420.851 279.2 421.203 279.2C421.42 279.2 421.64 279.274 421.832 279.428L423.616 280.86C424.119 281.263 424.245 282.063 423.897 282.647C423.549 283.23 422.859 283.375 422.356 282.972Z" fill="#FFB61D"/>
<path d="M298.364 440.782C309.394 443.685 315.054 450.594 319.834 457.029C324.624 463.463 314.094 460.402 308.284 458.079C302.474 455.757 288.484 447.168 288.484 447.168L242.104 433.14V411.688L255.974 410.878C255.974 410.878 287.324 437.878 298.364 440.782Z" fill="white"/>
<path d="M250.305 283.67C260.225 321.214 265.345 357.137 266.155 391.598C266.155 391.598 275.445 392.759 274.285 400.888C273.125 409.017 248.735 431.08 248.735 431.08L240.285 403.071L237.125 299.859L250.305 283.67Z" fill="white"/>
<path fill-rule="evenodd" clip-rule="evenodd" d="M253.69 302.885L247.994 299.106C247.63 298.865 247.15 299.053 247.019 299.487L245.033 306.084C244.867 306.634 245.361 307.148 245.874 306.961L253.556 304.142C254.08 303.95 254.16 303.196 253.69 302.885ZM253 303.975L246 306L248.084 300L253 303.975Z" fill="#FFB61D"/>
<path fill-rule="evenodd" clip-rule="evenodd" d="M251.19 350.385L245.494 346.606C245.13 346.365 244.65 346.553 244.519 346.987L242.533 353.584C242.367 354.134 242.861 354.648 243.374 354.461L251.056 351.642C251.58 351.45 251.66 350.696 251.19 350.385ZM250.5 351.475L243.5 353.5L245.584 347.5L250.5 351.475Z" fill="#FFB61D"/>
<path fill-rule="evenodd" clip-rule="evenodd" d="M248.195 377.071L248.619 370.249C248.646 369.813 248.244 369.491 247.802 369.595L241.095 371.173C240.537 371.305 240.338 371.99 240.757 372.34L247.04 377.584C247.468 377.941 248.16 377.634 248.195 377.071ZM246.906 377.019L241.652 371.969L247.89 370.773L246.906 377.019Z" fill="#FFB61D"/>
<path fill-rule="evenodd" clip-rule="evenodd" d="M258.991 372.038L252.169 371.614C251.733 371.587 251.411 371.989 251.515 372.431L253.094 379.137C253.225 379.696 253.91 379.894 254.26 379.476L259.504 373.193C259.862 372.765 259.554 372.073 258.991 372.038ZM258.939 373.327L253.889 378.58L252.694 372.342L258.939 373.327Z" fill="#FFB61D"/>
<path fill-rule="evenodd" clip-rule="evenodd" d="M253.724 406.815L247.604 409.859C247.213 410.053 247.136 410.563 247.447 410.893L252.167 415.912C252.56 416.33 253.253 416.16 253.346 415.622L254.746 407.559C254.842 407.01 254.23 406.564 253.724 406.815ZM254.324 407.958L252.578 415.032L248.423 410.228L254.324 407.958Z" fill="#FFB61D"/>
<path fill-rule="evenodd" clip-rule="evenodd" d="M256.724 387.815L250.604 390.859C250.213 391.053 250.136 391.563 250.447 391.893L255.167 396.912C255.56 397.33 256.253 397.16 256.346 396.622L257.746 388.559C257.842 388.01 257.23 387.564 256.724 387.815ZM257.324 388.958L255.578 396.032L251.423 391.228L257.324 388.958Z" fill="#FFB61D"/>
<path d="M217.047 306.246L210.318 326.563C194.935 373.092 187.36 396.709 187.133 398.923C186.991 400.298 187.825 401.327 189.112 401.676C189.885 401.886 190.83 401.875 192.004 401.701C193.831 401.43 196.273 400.745 199.222 399.726C201.501 398.939 203.965 397.994 206.46 396.972L207.51 396.539C207.851 396.397 208.182 396.258 208.503 396.121L210.171 395.403L210.646 395.193L210.923 394.752C211.415 393.97 212.115 392.586 212.806 390.688C213.413 389.021 213.897 387.236 214.215 385.349L214.326 384.637C214.425 383.944 215.376 382.341 217.337 379.604L218.704 377.733C219.825 376.222 221.982 373.335 222.199 373.043L223.467 371.325C224.679 369.673 225.737 368.197 226.771 366.709C231.956 359.244 235.62 352.709 237.782 346.421C239.616 341.087 240.259 336.145 239.533 331.601C238.421 324.666 238.847 318.039 240.47 311.819C241.818 306.652 237.553 301.884 231.404 300.132C225.05 298.321 218.997 300.372 217.047 306.246Z" fill="white"/>
<path d="M228.311 276.203C232.059 280.181 235.204 283.214 237.745 285.303C242.026 288.822 248.164 292.594 256.157 296.618C231.707 302.28 216.777 303.399 211.368 299.976C211.368 299.976 213.621 289.374 216.858 284.832C219.269 281.45 228.311 276.203 228.311 276.203Z" fill="white"/>
<path d="M267.204 225.092C262.124 244.386 248.244 264.529 233.464 260.639C218.684 256.748 210.504 230.377 215.584 211.083C220.664 191.789 236.764 179.302 251.544 183.192C266.324 187.082 272.284 205.799 267.204 225.092Z" fill="white"/>
<path d="M270.585 231.245C264.836 253.325 249.128 276.377 232.402 271.925C215.675 267.472 206.418 237.293 212.167 215.213C217.916 193.133 236.136 178.843 252.863 183.294C269.589 187.746 276.334 209.166 270.585 231.245Z" fill="white"/>
<path fill-rule="evenodd" clip-rule="evenodd" d="M243.892 185.834C255.29 186.481 263.608 190.226 268.271 196.824L268.797 197.587C271.103 200.915 273.042 203.01 273.89 209.309L273.972 209.979C274.456 214.123 274.598 218.495 274.349 219.946C274.215 220.559 273.952 220.773 273.62 220.708C272.867 220.56 270.916 217.094 267.768 210.308L265.126 213.4C263.688 215.061 260.639 216.627 258.832 217.803C257.025 218.98 243.892 185.834 243.892 185.834Z" fill="#E7EAEE"/>
<path fill-rule="evenodd" clip-rule="evenodd" d="M255.399 248.511C261.746 251.158 266.567 254.596 267.846 253.166C269.124 251.736 264.764 247.382 261.377 241.468C257.831 235.588 254.463 228.18 253.833 225.166L252.221 217.549C247.505 223.5 243.089 243.468 255.399 248.511Z" fill="white"/>
<path d="M329.188 612.122L328.844 633.303H316.796L313.188 609L329.188 612.122Z" fill="white"/>
<path d="M197.24 499.488C197.24 499.488 275.413 497.762 299.987 494.217C327.267 490.282 342.185 480.983 348.118 482.082C350.898 482.597 367.307 485.505 401.546 489.147C416.027 490.687 453.616 490.923 453.616 490.923L468.205 459.872C468.205 459.872 365.541 439.26 333.082 448.181C322.872 450.987 300.763 455.037 274.476 453.558C251.745 452.279 189.923 440.272 189.923 440.272C189.923 440.272 164.962 449.232 169.48 471.267C173.998 493.301 197.24 499.488 197.24 499.488Z" fill="white"/>
<path fill-rule="evenodd" clip-rule="evenodd" d="M459.84 473.157L464.646 459.242C464.646 459.242 362.155 440.125 329.696 449.046C319.487 451.852 310.26 456.479 283.973 455C273.91 454.434 256.704 452.079 232.356 447.934C220.039 445.838 218.061 446.614 227.741 452.944C250.189 467.624 300.123 464.164 345.428 457.549C429.63 445.255 459.84 473.157 459.84 473.157Z" fill="#E7EAEE"/>
<path d="M315.587 616.932C310.487 622.567 303.727 631.847 307.207 641.137L367.597 659.717C367.597 659.717 369.917 652.747 366.437 646.947C362.947 641.137 329.999 618.215 329.999 618.215L315.587 616.932Z" fill="white"/>
<path fill-rule="evenodd" clip-rule="evenodd" d="M343.462 629.517C343.862 629.408 344.273 629.645 344.382 630.044C344.49 630.444 344.254 630.856 343.854 630.964C341.887 631.497 340.591 632.74 340.136 634.314C339.546 636.348 339.482 638.429 340.15 641.76C340.232 642.166 339.969 642.561 339.563 642.643C339.157 642.724 338.761 642.461 338.68 642.055C337.965 638.493 338.037 636.168 338.695 633.896C339.298 631.813 340.996 630.185 343.462 629.517Z" fill="#E7EAEE"/>
<path fill-rule="evenodd" clip-rule="evenodd" d="M310.207 642.137L369.619 659.618C369.619 659.618 377.164 658.032 369.362 656.923C361.346 655.784 314.413 634.293 309.251 638.207C308.517 638.764 309.753 640.923 310.207 642.137Z" fill="#E7EAEE"/>
<path d="M162.171 495.056C162.171 495.056 188.979 503.518 210.567 506.69C232.155 509.862 275.216 511.667 275.216 511.667C275.216 511.667 288.66 518.975 289.527 522.359C289.865 523.677 291.902 541.097 297.535 563.349C300.184 573.816 314.342 621.152 314.342 621.152L333.082 612.856C333.082 612.856 332.33 525.854 320.367 496.998C308.405 468.142 185.442 440.115 185.442 440.115C185.442 440.115 159.345 435.394 152.241 456.736C145.136 478.078 162.171 495.056 162.171 495.056Z" fill="white"/>
<path fill-rule="evenodd" clip-rule="evenodd" d="M317.342 618.152L336.082 609.856C335.58 551.855 331.342 513.235 323.367 493.998C323.367 493.998 331.517 596.409 317.342 618.152Z" fill="#E7EAEE"/>
<path d="M480.755 474.299C485.418 480.3 493.383 488.569 503.137 486.755L531.921 430.509C531.921 430.509 524.514 427.233 518.198 429.653C511.871 432.081 484.047 461.116 484.047 461.116L480.755 474.299Z" fill="white"/>
<path fill-rule="evenodd" clip-rule="evenodd" d="M355.73 639.504C356.029 639.218 356.504 639.228 356.791 639.527C357.077 639.826 357.067 640.301 356.768 640.587C355.025 642.257 354.702 645.055 355.702 646.744C355.913 647.1 355.795 647.56 355.438 647.771C355.082 647.982 354.622 647.864 354.411 647.508C353.063 645.23 353.475 641.665 355.73 639.504Z" fill="#E7EAEE"/>
<path fill-rule="evenodd" clip-rule="evenodd" d="M349.604 634.559C349.906 634.275 350.38 634.29 350.664 634.592C350.947 634.893 350.933 635.368 350.631 635.652L350.225 636.042C347.071 639.145 346.167 641.859 348.944 644.77C349.23 645.07 349.219 645.545 348.919 645.83C348.619 646.116 348.144 646.105 347.859 645.805C345.806 643.654 345.385 641.33 346.294 639.004C346.921 637.4 348.012 636.054 349.604 634.559Z" fill="#E7EAEE"/>
<path fill-rule="evenodd" clip-rule="evenodd" d="M320.737 633.576C322.459 636.867 331.599 635.516 330.008 626.414C329.256 622.108 315.969 624.461 320.737 633.576Z" fill="#E7EAEE"/>
<path fill-rule="evenodd" clip-rule="evenodd" d="M497.43 487.801C509.509 473.998 516.451 442.956 526.398 432.274C529.909 428.504 534.463 427.658 529.561 436.584C520.592 452.915 503.354 487.801 503.354 487.801C502.442 488.258 501.314 487.801 500.294 487.801H497.43Z" fill="#E7EAEE"/>
<path d="M298.364 440.782C309.394 443.685 315.054 450.594 319.834 457.029C324.624 463.463 314.094 460.402 308.284 458.079C302.474 455.757 291.36 446.943 291.36 446.943L298.364 440.782Z" fill="white"/>
<path d="M197.894 414.654C197.894 414.654 259.984 441.327 268.734 441.362C277.474 441.398 298.924 451.813 300.084 459.942C301.494 469.831 264.084 455.297 264.084 455.297C264.084 455.297 180.474 455.297 166.544 441.362C152.605 427.427 161.894 398.396 161.894 398.396L197.894 414.654Z" fill="white"/>
<path d="M182.794 290.401C182.794 290.401 197.894 299.69 200.214 329.883C202.534 360.075 193.244 396.074 193.244 396.074C193.244 396.074 199.054 400.719 200.214 405.364C201.374 410.009 197.844 416.14 197.844 416.14C197.844 416.14 163.056 433.234 160.733 434.395C158.411 435.556 149.121 432.072 149.121 422.782C149.121 413.493 152.605 405.364 152.605 405.364C154.272 344.079 144.476 284.594 182.794 290.401Z" fill="white"/>
<path fill-rule="evenodd" clip-rule="evenodd" d="M244.304 226.155C247.875 221.372 255.425 219.815 257.439 227.365C257.439 227.365 258.987 231.921 255.867 234.736C246.31 243.36 240.732 230.938 244.304 226.155Z" fill="white"/>
<path fill-rule="evenodd" clip-rule="evenodd" d="M264.249 231.343C267.642 226.799 274.814 225.32 276.728 232.493C276.728 232.493 278.199 236.821 275.235 239.496C266.155 247.688 260.856 235.887 264.249 231.343Z" fill="white"/>
<path d="M236.464 289.504C236.464 289.504 236.464 345.324 237.284 376.517C238.104 407.71 230.954 438.444 217.294 462.479C203.634 486.515 205.493 520.898 195.424 523.454C115.779 543.669 137.222 296.282 166.691 280.474C196.16 264.665 205.894 261.317 205.894 261.317" fill="white"/>
<path fill-rule="evenodd" clip-rule="evenodd" d="M195.617 305.165L188.754 315.413C188.184 316.263 188.614 317.421 189.6 317.694L198.759 320.226C199.824 320.52 200.83 319.602 200.635 318.515L198.34 305.735C198.102 304.407 196.368 304.044 195.617 305.165ZM197.109 306.742L199.159 318.78L191.194 315.413L197.109 306.742Z" fill="#FFB61D"/>
<path fill-rule="evenodd" clip-rule="evenodd" d="M173.534 295.156L165.445 308.139C164.929 308.969 165.33 310.063 166.261 310.361L180.384 314.889C181.56 315.266 182.662 314.139 182.26 312.971L176.225 295.46C175.814 294.266 174.202 294.084 173.534 295.156ZM175.452 296.738L179.584 312.971L167.339 308.139L175.452 296.738Z" fill="#FFB61D"/>
<path fill-rule="evenodd" clip-rule="evenodd" d="M168.551 393.386L174.053 414.063C174.391 415.333 176.084 415.585 176.777 414.468L184.957 401.278C185.411 400.546 185.158 399.584 184.403 399.171L170.72 391.684C169.563 391.051 168.212 392.111 168.551 393.386ZM170 394L182.683 400.487L175.502 413.677L170 394Z" fill="#FFB61D"/>
<path fill-rule="evenodd" clip-rule="evenodd" d="M157.532 469.311L160.532 483.484C160.808 484.785 162.513 485.111 163.249 484.004L171.354 471.81C171.952 470.91 171.431 469.692 170.368 469.503L159.263 467.523C158.216 467.337 157.312 468.27 157.532 469.311ZM160.15 469.087L169.774 472.498L161.47 481.98L160.15 469.087Z" fill="#FFB61D"/>
<path fill-rule="evenodd" clip-rule="evenodd" d="M183.532 466.311L186.532 480.484C186.808 481.785 188.513 482.111 189.249 481.004L197.354 468.81C197.952 467.91 197.431 466.692 196.368 466.503L185.263 464.523C184.216 464.337 183.312 465.27 183.532 466.311ZM184.921 467.543L196.125 467.234L186.905 479.081L184.921 467.543Z" fill="#FFB61D"/>
<path fill-rule="evenodd" clip-rule="evenodd" d="M169.532 437.311L172.532 451.484C172.808 452.785 174.513 453.111 175.249 452.004L183.354 439.81C183.952 438.91 183.431 437.692 182.368 437.503L171.263 435.523C170.216 435.337 169.312 436.27 169.532 437.311ZM171 437L181.105 439.979L173 450.174L171 437Z" fill="#FFB61D"/>
<path fill-rule="evenodd" clip-rule="evenodd" d="M501.59 483.175C500.836 484.647 499.6 485.262 497.951 485.354C492.079 485.68 487.424 483.09 483.271 479.315C481.696 477.884 480.3 476.257 478.723 474.83C477.613 473.827 476.423 473.173 474.691 473.794C473.365 474.27 471.808 474.09 470.358 474.238C467.087 474.572 463.825 475.008 460.548 475.246C458.459 475.398 458.407 477.18 457.917 478.41C456.808 481.191 455.979 484.087 455.097 486.955C454.755 488.069 454.21 488.509 452.959 488.493C446.713 488.417 440.465 488.423 434.218 488.474C431.373 488.497 428.526 488.838 425.686 488.773C420.342 488.653 414.991 488.481 409.664 488.072C404.51 487.676 399.383 486.933 394.24 486.384C390.628 485.999 386.993 485.795 383.396 485.307C379.213 484.739 375.065 483.911 370.891 483.27C368.802 482.949 366.679 482.854 364.588 482.547C361.003 482.019 357.418 481.47 353.855 480.807C350.55 480.191 347.44 480.83 344.329 481.857C338.271 483.857 332.198 485.81 326.122 487.754C325.042 488.099 324.722 488.383 325.21 489.695C327 494.511 328.676 499.38 330.133 504.306C331.161 507.782 331.873 511.363 332.532 514.933C333.341 519.308 334.017 523.71 334.62 528.118C335.08 531.486 335.372 534.879 335.675 538.266C336.059 542.571 336.422 546.879 336.712 551.191C337.001 555.485 337.243 559.784 337.406 564.085C337.683 571.389 337.89 578.694 338.11 586C338.243 590.423 338.326 594.848 338.471 599.271C338.514 600.555 338.926 601.872 338.73 603.105C338.583 604.034 337.922 605.335 337.164 605.627C335.212 606.38 334.648 607.832 334.665 609.832C334.687 612.387 335.007 614.944 334.941 617.493C334.898 619.117 335.52 620.251 336.701 621.112C342.068 625.027 347.488 628.869 352.852 632.788C355.398 634.648 357.909 636.562 360.35 638.558C362.963 640.695 365.524 642.902 368.016 645.18C370.499 647.451 371.819 650.227 372.238 653.689C372.563 656.373 372.218 658.867 371.771 661.421C371.538 662.751 370.778 663.295 369.395 662.844C363.585 660.948 357.786 659.016 351.948 657.21C342.305 654.225 332.635 651.327 322.975 648.394C319.532 647.349 316.089 646.306 312.642 645.274C310.53 644.642 310.084 642.748 309.692 641.033C308.578 636.159 310.017 631.722 312.588 627.635C314.162 625.133 315.996 622.795 317.716 620.386C319.121 618.418 318.758 616.403 318.063 614.274C315.798 607.344 313.572 600.399 311.431 593.43C309.318 586.55 307.224 579.661 305.31 572.724C303.286 565.392 301.45 558.008 299.6 550.629C298.599 546.637 297.655 542.626 296.844 538.591C296.238 535.574 295.895 532.505 295.419 529.461C294.85 525.826 294.508 522.128 293.572 518.588C293.169 517.065 291.69 515.671 290.401 514.567C287.594 512.163 284.369 510.372 280.866 509.148C280 508.845 279.062 508.637 278.149 508.602C273.803 508.438 269.452 508.395 265.106 508.22C260.861 508.049 256.617 507.813 252.379 507.528C248.007 507.234 243.638 506.881 239.274 506.489C234.603 506.069 229.915 505.736 225.278 505.067C220.362 504.357 215.491 503.325 210.612 502.37C209.026 502.06 207.867 503.023 207.621 505.26C207.083 510.151 205.421 514.696 203.447 519.147C202.023 522.356 199.337 523.961 196.024 524.508C193.659 524.899 191.236 525.272 188.857 525.182C182.085 524.926 176.046 522.692 170.675 518.398C163.862 512.95 159.876 505.672 156.482 497.913C154.961 494.436 153.003 491.118 151.809 487.539C150.513 483.651 149.857 479.549 148.954 475.533C148.251 472.407 147.535 469.282 146.944 466.135C146.476 463.646 146.182 461.124 145.827 458.614C145.355 455.28 144.89 451.945 144.441 448.608C144.293 447.504 144.146 446.394 144.1 445.283C143.955 441.805 143.883 438.324 143.736 434.847C143.529 429.969 143.143 425.095 143.078 420.216C142.968 411.872 142.979 403.525 143.079 395.18C143.123 391.516 143.433 387.848 143.763 384.195C144.137 380.042 144.704 375.907 145.118 371.757C145.413 368.795 145.506 365.812 145.845 362.855C146.344 358.518 146.89 354.182 147.584 349.872C148.409 344.747 149.352 339.638 150.35 334.543C152.237 324.9 154.433 315.316 158.027 306.155C160.318 300.318 162.708 294.363 167.383 289.957C169.406 288.05 172.218 286.951 174.732 285.597C181.633 281.882 188.571 278.233 195.474 274.522C195.797 274.349 196.074 273.845 196.127 273.461C196.31 272.13 196.229 270.745 196.555 269.459C196.768 268.621 197.356 267.702 198.051 267.196C200.38 265.497 202.819 263.948 205.248 262.391C205.683 262.112 206.298 261.868 206.776 261.945C209.336 262.358 210.621 260.783 211.499 258.844C212.687 256.219 213.772 253.533 214.694 250.804C216.221 246.283 217.761 241.751 218.916 237.129C219.315 235.534 218.702 233.632 218.342 231.915C217.609 228.419 217.001 224.859 215.822 221.509C215.067 219.367 213.541 217.424 212.083 215.617C208.312 210.943 206.332 205.709 206.966 199.712C207.241 197.108 208.358 194.681 210.306 192.789C212.598 190.562 214.948 188.395 217.248 186.176C218.924 184.558 218.804 183.321 216.621 181.739C213.566 179.526 210.637 177.134 207.715 174.745C205.219 172.704 204.145 169.788 203.484 166.799C202.585 162.733 202.477 158.63 204.135 154.661C206.788 148.313 210.61 143.075 217.607 141.1C223.774 139.359 229.927 139.477 235.461 142.973C240.49 146.149 243.684 150.88 245.089 156.72C246.738 163.573 244.861 169.74 241.398 175.606C241.108 176.097 241.078 176.742 240.928 177.316C241.443 177.413 241.955 177.574 242.473 177.598C249.134 177.901 255.755 178.641 261.721 181.816C269.551 185.983 274.477 192.588 276.649 201.185C276.974 202.472 276.971 203.855 277.014 205.197C277.159 209.774 277.171 214.357 277.441 218.925C277.498 219.879 278.228 221.05 279.008 221.66C282.752 224.593 284.025 231.773 280.544 236.023C280.195 236.449 279.899 236.916 279.557 237.347C278.219 239.031 276.279 239.848 274.348 239.504C272.702 239.211 272.563 239.765 272.02 240.98C270.861 243.571 269.471 246.078 267.974 248.494C265.966 251.733 263.917 254.967 261.596 257.981C260.194 259.801 258.301 261.266 256.525 262.769C254.372 264.592 252.095 266.269 249.903 268.047C248.809 268.934 247.61 269.392 246.213 269.19C244.764 268.981 243.948 269.796 243.524 270.97C242.705 273.236 241.964 275.536 241.317 277.857C241.181 278.346 241.47 279.059 241.766 279.546C244.351 283.801 246.919 288.069 249.62 292.251C251.812 295.644 254.305 298.848 256.426 302.282C257.738 304.407 258.607 306.805 259.67 309.082C261.523 313.056 263.417 317.012 265.188 321.022C265.552 321.847 265.652 322.904 265.525 323.805C265.339 325.116 264.046 325.534 262.645 324.688C261.016 323.705 259.483 322.555 257.958 321.411C257.014 320.703 256.165 319.868 255.267 319.097C255.163 319.007 255.024 318.959 254.902 318.892C254.882 319.048 254.827 319.21 254.849 319.361C255.1 321.125 255.301 322.898 255.638 324.646C255.987 326.451 256.517 328.22 256.884 330.022C257.612 333.602 258.316 337.187 258.967 340.781C259.7 344.823 260.405 348.871 261.042 352.929C261.369 355.015 261.481 357.134 261.763 359.229C262.189 362.395 262.724 365.548 263.123 368.718C263.341 370.449 263.389 372.203 263.485 373.949C263.616 376.329 263.703 378.711 263.839 381.09C264.176 386.96 264.516 392.83 264.887 398.698C264.979 400.152 265.833 401.271 267.143 401.687C270.87 402.871 273.474 407.221 272.847 410.853C272.702 411.697 272.514 412.57 272.143 413.331C271.251 415.158 272.414 416.195 273.57 417.145C275.447 418.687 277.403 420.136 279.364 421.573C284.018 424.985 288.705 428.352 293.359 431.763C297.576 434.853 302.228 437.001 307.22 438.524C311.228 439.747 314.637 442.065 317.842 444.736C319.416 446.048 320.778 447.99 323.271 447.511C326.799 446.833 330.317 446.098 333.836 445.372C334.897 445.153 335.939 444.833 337.005 444.65C340.717 444.011 342.91 441.384 345.095 438.666C346.721 436.644 348.534 434.773 350.226 432.803C353.555 428.926 356.847 425.019 360.174 421.141C361.827 419.213 363.53 417.327 365.2 415.414C369.906 410.021 374.585 404.604 379.321 399.237C381.804 396.424 384.39 393.702 386.916 390.927C387.596 390.18 388.323 389.451 388.861 388.607C389.679 387.323 390.513 386.929 392.111 387.447C395.604 388.577 395.541 388.362 393.099 391.041C388.725 395.84 384.496 400.771 380.189 405.631C378.083 408.007 375.907 410.321 373.819 412.712C370.154 416.907 366.544 421.15 362.887 425.352C360.291 428.335 357.663 431.289 355.035 434.244C353.002 436.53 350.941 438.791 348.914 441.083C348.737 441.283 348.598 441.838 348.661 441.877C349.156 442.188 349.714 442.647 350.235 442.626C354.48 442.461 358.72 442.136 362.965 441.991C366.143 441.883 369.33 441.882 372.508 441.992C376.58 442.132 380.658 442.308 384.712 442.697C389.23 443.13 393.722 443.826 398.227 444.396C402.845 444.982 407.479 445.464 412.08 446.158C416.679 446.852 421.241 447.787 425.83 448.55C429.631 449.182 433.459 449.652 437.254 450.312C442.094 451.155 446.911 452.135 451.743 453.022C455.137 453.646 458.544 454.189 461.937 454.813C465.209 455.414 468.463 456.112 471.739 456.693C473.803 457.059 475.885 457.429 477.971 457.515C478.845 457.551 479.959 457.076 480.608 456.459C485.569 451.739 490.378 446.858 495.362 442.162C500.939 436.906 506.772 431.945 513.06 427.534C515.938 425.516 519.16 425.868 522.295 426.14C524.122 426.298 525.889 427.179 527.679 427.748C529.147 428.214 529.278 429.121 528.625 430.403C525.658 436.226 522.744 442.076 519.775 447.899C517.21 452.931 514.597 457.94 511.919 463.046C508.419 469.814 505.01 476.497 501.59 483.175ZM227.005 440.232C228.565 435.722 229.934 431.136 231.164 426.523C231.963 423.527 232.417 420.433 232.93 417.367C233.458 414.217 233.899 411.051 234.325 407.885C234.821 404.208 235.591 400.529 235.651 396.841C235.771 389.436 235.465 382.024 235.383 374.615C235.333 370.087 235.307 365.556 235.396 361.03C235.465 357.469 233.393 354.814 231.883 351.894C230.878 349.95 229.817 347.988 229.175 345.912C227.997 342.105 227.039 338.223 226.127 334.341C225.502 331.686 225.043 328.987 224.632 326.289C224.157 323.167 223.131 320.235 221.798 317.402C221.686 317.164 220.75 316.991 220.649 317.125C220.112 317.844 219.712 318.667 219.278 319.461C218.506 320.875 217.333 322.221 217.065 323.727C216.529 326.735 215.143 329.317 213.726 331.898C212.844 333.505 211.358 333.547 210.326 332.072C209.217 330.487 208.019 328.888 207.311 327.114C205.647 322.945 204.157 318.699 202.771 314.428C200.95 308.815 199.233 303.166 197.598 297.495C196.744 294.535 195.894 291.528 195.535 288.484C195.184 285.5 195.462 282.441 195.453 279.416C195.452 279.145 195.369 278.875 195.325 278.604C195.202 278.701 195.09 278.816 194.955 278.89C191.784 280.635 188.632 282.417 185.431 284.104C182.256 285.777 179.065 287.429 175.816 288.952C172.256 290.621 168.683 292.343 166.621 295.84C164.39 299.623 161.783 303.228 160.439 307.493C159.053 311.889 157.486 316.235 156.28 320.679C155.046 325.224 154.207 329.876 153.095 334.456C152.385 337.382 151.215 340.221 150.749 343.177C150.038 347.686 149.599 352.254 149.344 356.815C149.126 360.729 149.142 364.652 148.614 368.551C148.204 371.578 147.925 374.623 147.556 377.656C146.993 382.274 145.983 386.882 145.91 391.506C145.75 401.743 146.172 411.988 146.124 422.229C146.099 427.596 146.9 432.843 147.532 438.133C148.234 444.006 148.649 449.913 149.319 455.79C149.774 459.785 150.23 463.802 151.082 467.723C152.469 474.106 153.959 480.484 155.811 486.745C158.122 494.556 161.514 501.915 166.291 508.589C169.276 512.76 172.921 516.176 177.419 518.631C183.518 521.96 190.059 521.672 196.612 520.656C197.686 520.489 199.077 519.663 199.537 518.747C200.827 516.181 201.954 513.475 202.688 510.704C203.732 506.765 204.193 502.674 205.217 498.729C206.905 492.225 209.028 485.831 210.619 479.305C211.929 473.929 214.426 469.079 216.595 464.081C218.192 460.404 220.08 456.852 222.011 453.071C223.689 448.796 225.506 444.569 227.005 440.232ZM284.573 506.629C287.729 508.558 290.823 510.604 293.825 512.763C295.7 514.112 297.047 516.071 297.458 518.337C298.41 523.583 299.041 528.887 299.961 534.139C300.607 537.826 301.535 541.462 302.302 545.128C302.927 548.112 303.505 551.107 304.097 554.097C304.68 557.037 305.247 559.979 305.836 562.916C306.286 565.155 306.75 567.391 307.224 569.625C307.99 573.238 308.599 576.894 309.589 580.445C310.564 583.942 312.03 587.3 313.1 590.775C314.88 596.557 317.09 602.155 319.649 607.635C320.256 608.934 321.277 608.673 321.882 608.436C325.711 606.937 329.488 605.3 333.241 603.615C334.425 603.084 335.055 602.054 335 600.646C334.852 596.822 334.749 592.996 334.644 589.171C334.519 584.595 334.412 580.018 334.295 575.441C334.18 570.96 334.155 566.475 333.922 562C333.694 557.628 333.265 553.267 332.904 548.903C332.453 543.467 332.034 538.027 331.5 532.598C331.132 528.85 330.794 525.079 330.085 521.387C328.858 514.995 327.35 508.656 325.966 502.293C324.352 494.878 321.236 488.417 315.073 483.564C310.38 479.868 305.457 476.568 300.134 473.931C294.245 471.014 288.29 468.174 282.178 465.776C275.19 463.036 268.403 459.573 260.709 458.942C257.013 458.639 253.347 457.991 249.656 457.598C246.696 457.284 243.711 457.194 240.752 456.87C236.068 456.357 231.403 455.676 226.715 455.216C226.058 455.152 225.068 455.769 224.665 456.364C223.738 457.73 223.041 459.26 222.317 460.755C220.058 465.426 217.412 469.964 215.693 474.828C213.422 481.255 211.881 487.939 210.039 494.517C208.996 498.244 208.973 498.41 212.223 499.091C215.982 499.88 219.801 500.403 223.61 500.927C226.101 501.27 228.626 501.365 231.126 501.652C235.864 502.196 240.59 502.847 245.331 503.359C248.348 503.684 251.381 503.881 254.411 504.06C258.94 504.329 263.47 504.581 268.004 504.746C270.718 504.845 273.439 504.764 276.504 504.764C279.351 504.712 282.132 505.137 284.573 506.629ZM420.603 484.985C423.524 485.122 426.445 485.265 429.367 485.327C436.142 485.471 442.918 485.585 449.695 485.668C451.047 485.684 452.266 485.124 452.63 483.731C454.594 476.236 458.454 469.286 458.95 461.357C459.076 459.346 458.204 457.925 456.151 457.566C454.01 457.191 451.895 456.666 449.759 456.258C447.073 455.746 444.375 455.297 441.685 454.803C439.27 454.359 436.858 453.898 434.447 453.432C432.682 453.091 430.925 452.715 429.159 452.381C425.778 451.742 422.394 451.116 419.01 450.496C416.696 450.072 414.384 449.638 412.062 449.265C410.261 448.976 408.443 448.794 406.638 448.531C402.824 447.974 399.013 447.397 395.201 446.826C393.023 446.5 390.851 446.142 388.669 445.848C385.759 445.455 382.841 444.791 379.929 444.808C372.622 444.849 365.315 445.17 358.011 445.455C354.518 445.592 351.018 445.786 347.547 446.178C345.604 446.397 343.735 447.012 342.326 448.649C340.03 451.316 337.565 453.837 335.245 456.484C333.781 458.156 332.41 459.914 331.071 461.689C329.3 464.038 327.14 465.465 324.052 465.226C318.995 464.835 313.93 464.547 308.872 464.159C306.995 464.015 305.127 463.735 303.261 463.474C300.095 463.031 296.94 462.517 293.771 462.102C290.741 461.706 287.701 461.377 284.661 461.064C283.802 460.976 282.926 461.025 282.061 461.073C281.889 461.083 281.732 461.377 281.569 461.54C281.745 461.622 281.925 461.696 282.098 461.786C283.619 462.58 285.101 463.465 286.667 464.157C291.261 466.186 295.999 467.92 300.477 470.172C306.98 473.443 313.048 477.436 318.565 482.237C320.276 483.726 321.918 484.831 324.724 484.458C329.171 483.866 333.327 482.769 337.318 480.828C342.689 478.214 348.153 476.071 354.329 477.351C357.903 478.092 361.495 478.741 365.064 479.506C367.324 479.991 369.529 480.79 371.807 481.128C374.633 481.547 377.508 481.621 380.36 481.87C385.548 482.322 390.733 482.801 395.92 483.251C399.442 483.557 402.967 483.833 406.664 484.295C411.31 484.526 415.956 484.768 420.603 484.985ZM239.871 384.757C239.922 386.143 239.867 387.532 239.89 388.919C239.998 395.404 240.1 401.889 240.245 408.373C240.287 410.255 240.204 412.195 240.635 414C241.508 417.653 242.653 421.244 243.768 424.835C244.245 426.373 244.91 427.838 246.648 428.447C248.16 428.976 249.625 429.642 251.141 430.163C253.389 430.935 254.079 430.643 255.545 428.585C256.03 427.905 256.59 427.276 257.135 426.64C260.648 422.543 264.268 418.532 267.651 414.331C270.149 411.23 269.716 406.24 265.534 404.639C265.084 404.467 264.638 404.26 264.171 404.163C261.7 403.651 261.814 403.658 261.732 401.323C261.439 392.98 262.418 384.614 261.107 376.281C260.584 372.954 260.799 369.513 260.318 366.176C259.569 360.984 258.533 355.832 257.582 350.67C256.683 345.788 255.782 340.905 254.797 336.039C254.061 332.408 253.178 328.808 252.386 325.188C251.782 322.427 251.308 319.634 250.579 316.908C250.382 316.171 249.467 315.626 248.882 314.993C248.197 315.654 246.998 316.257 246.915 316.986C246.495 320.685 245.925 324.455 246.25 328.125C246.623 332.341 247.256 336.521 246.451 340.706C245.534 345.476 244.008 350.056 241.424 354.229C239.991 356.542 238.921 358.942 239.165 361.804C239.406 364.636 239.484 367.487 239.525 370.33C239.582 374.376 239.539 378.424 239.539 382.818C239.655 383.464 239.847 384.107 239.871 384.757ZM221.672 241.451C221.38 241.903 220.975 242.318 220.814 242.813C219.166 247.857 217.66 252.951 215.898 257.954C214.837 260.969 213.171 263.659 210.417 265.553C208.416 266.929 206.549 268.5 204.591 269.941C203.626 270.651 203.83 271.267 204.432 272.13C206.234 274.711 208.138 277.251 209.642 280.004C211.718 283.803 213.496 287.767 215.343 291.688C217.143 295.508 219.023 299.302 220.581 303.221C221.906 306.55 222.618 310.126 223.981 313.436C225.212 316.429 226.534 319.379 226.98 322.584C227.132 323.674 227.485 323.683 228.311 323.68C233.274 323.663 238.067 323.007 242.252 320.052C242.61 319.799 242.912 319.28 242.98 318.844C243.145 317.79 243.116 316.707 243.24 315.645C243.327 314.895 243.816 314.085 243.641 313.431C242.989 311.002 242.121 308.631 241.363 306.23C239.914 301.642 238.014 297.103 237.884 292.263C237.752 287.338 238.195 282.391 238.533 277.464C238.67 275.454 239.064 273.437 239.573 271.483C240.169 269.192 240.027 268.565 237.959 267.447C234.555 265.607 231.621 263.134 229.524 259.944C226.1 254.737 223.47 249.134 222.532 242.657C222.245 242.255 221.959 241.853 221.672 241.451ZM271.045 239.915C271.139 239.727 271.981 239.143 270.729 238.932C269.464 238.719 268.035 238.105 267.166 237.199C265.462 235.422 264.052 233.352 262.62 231.333C262.215 230.761 262.071 230.414 261.501 231.1C261.14 231.535 260.67 231.88 260.309 232.315C257.178 236.097 252.675 237.703 248.459 236.652C243.404 235.392 240.323 230.003 240.254 225.328C240.226 223.464 239.637 221.902 238.148 220.83C235.671 219.046 233.122 217.358 230.576 215.672C229.15 214.728 227.792 215.036 227.424 216.525C226.513 220.21 225.379 223.904 225.061 227.656C224.668 232.297 224.855 236.984 225.963 241.616C227.83 249.419 230.254 256.834 236.622 262.333C240.728 265.879 245.799 266.676 250.688 264.531C255.533 262.404 258.509 258.471 261.405 254.377C263.839 250.936 266.265 247.489 268.868 243.872C269.604 242.558 270.367 241.258 271.045 239.915ZM480.856 471.675C484.222 475.959 488.137 479.535 493.495 481.264C496.804 482.333 498.016 482.144 499.847 478.653C503.584 471.532 507.276 464.387 510.958 457.238C512.428 454.382 513.788 451.469 515.261 448.615C518.138 443.04 521.053 437.484 523.97 431.928C524.502 430.915 523.996 429.997 523.212 429.892C520.491 429.529 517.618 428.752 515.091 430.433C511.758 432.649 508.404 434.879 505.338 437.438C500.688 441.32 496.209 445.415 491.798 449.569C489.798 451.454 488.108 453.675 486.33 455.787C484.925 457.456 483.122 458.861 482.587 461.141C482.093 463.25 481.605 465.36 481.115 467.816C480.538 469.074 479.893 470.449 480.856 471.675ZM366.223 657.875C367.016 657.938 368.544 657.578 368.552 657.364C368.654 654.378 369.219 651.213 366.539 648.882C363.056 645.851 359.681 642.681 356.048 639.841C350.187 635.259 344.155 630.895 338.191 626.444C336.06 624.853 333.941 623.165 331.229 622.75C328.801 622.379 326.326 622.33 323.89 622.005C321.835 621.73 320.437 622.621 319.189 624.1C316.163 627.687 313.962 631.675 313.13 636.333C312.477 639.984 313.652 641.995 316.599 642.862C322.21 644.514 327.781 646.302 333.381 647.991C337.394 649.201 341.444 650.292 345.449 651.528C351.289 653.331 357.104 655.217 363.277 657.067C364.258 657.353 365.226 657.797 366.223 657.875ZM248.39 432.941C244.515 431.407 240.663 429.815 236.779 428.305C235.632 427.859 234.655 427.727 234.276 429.494C233.866 431.413 232.99 433.23 232.357 435.104C230.952 439.264 229.541 443.422 228.211 447.606C227.965 448.379 227.591 449.464 229.119 449.612C231.108 449.804 233.086 450.136 235.079 450.281C238.97 450.564 242.864 450.842 246.762 450.97C252.553 451.161 258.347 451.23 264.141 451.332C265.991 451.364 267.842 451.331 269.693 451.341C270.143 451.343 270.62 451.311 271.038 451.442C276.054 453.009 281.052 454.634 286.073 456.186C291.123 457.747 296.181 459.281 301.576 458.98C303.449 458.875 303.793 458.524 303.104 456.8C302.728 455.86 302.206 454.902 301.514 454.177C298.135 450.635 294.009 448.163 289.595 446.13C286.079 444.511 282.641 442.704 278.686 442.297C276.834 442.107 274.969 441.84 273.171 441.375C270.314 440.635 267.481 439.779 264.687 438.827C261.196 437.638 257.754 436.303 253.944 435.031C252.091 434.336 250.229 433.669 248.39 432.941ZM204.814 279.788C203.19 277.271 201.481 274.81 199.802 272.328C199.569 271.982 199.314 271.651 199.069 271.314C198.907 271.882 198.679 272.441 198.595 273.021C198.317 274.936 198.161 276.872 197.832 278.777C197.181 282.55 196.826 286.257 199.272 289.61C199.426 289.822 199.548 290.077 199.618 290.331C200.517 293.599 201.4 296.872 202.297 300.141C202.524 300.969 202.761 301.795 203.033 302.609C204.202 306.11 205.62 309.549 206.501 313.12C207.406 316.789 208.1 320.476 209.98 323.827C210.52 324.789 210.695 325.952 211.094 327.001C211.213 327.315 211.605 327.819 211.729 327.78C212.127 327.656 212.65 327.393 212.784 327.051C214.336 323.064 215.084 318.71 218.029 315.362C220.531 312.519 220.012 309.613 218.477 306.577C217.878 305.391 217.507 304.091 216.971 302.87C215.814 300.229 214.706 297.561 213.411 294.987C212.279 292.739 210.909 290.612 209.663 288.421C208.787 286.88 207.944 285.32 206.913 283.595C206.218 282.323 205.598 281.003 204.814 279.788ZM298.566 439.01C293.497 435.736 288.358 432.555 283.446 429.056C279.333 426.127 275.522 422.777 271.525 419.681C270.446 418.846 269.208 418.568 268.106 419.828C266.32 421.868 264.5 423.879 262.717 425.922C261.389 427.444 260.113 429.011 258.783 430.531C257.743 431.719 257.852 432.356 259.374 432.811C264.265 434.273 269.191 435.619 274.067 437.128C280.723 439.189 287.372 441.282 293.968 443.525C296.078 444.243 297.938 445.693 300.046 446.42C302.187 447.16 304.475 447.545 306.731 447.859C309.336 448.223 311.975 448.368 314.603 448.531C315.023 448.557 315.467 448.182 315.899 447.993C315.643 447.637 315.448 447.205 315.12 446.936C310.953 443.526 305.976 441.765 300.801 439.888C300.052 439.602 299.225 439.436 298.566 439.01ZM232.566 347.63C233.21 350.074 234.741 351.263 237.099 351.485C239.135 351.676 239.733 350.559 240.229 349.072C240.94 346.941 241.644 344.808 242.311 342.663C243.793 337.9 243.581 333.1 242.694 328.258C242.405 326.679 242.473 325.033 242.4 323.417C242.39 323.183 242.509 322.942 242.569 322.704C242.331 322.774 242.084 322.822 241.856 322.916C240.427 323.507 239.051 324.326 237.565 324.66C234.782 325.285 231.944 325.699 229.112 326.061C228.018 326.2 227.37 326.315 227.717 327.653C228.045 328.917 228.176 330.231 228.437 331.514C228.999 334.278 229.589 337.037 230.168 340.145C230.978 342.637 231.899 345.1 232.566 347.63ZM262.227 321.532C262.497 321.761 262.797 321.954 263.083 322.163C263.081 321.776 263.188 321.347 263.06 321.007C262.308 319.009 261.607 316.981 260.69 315.058C258.732 310.953 256.933 306.732 254.544 302.885C252.195 299.103 249.032 295.834 246.536 292.131C244.749 289.479 243.484 286.475 241.957 283.644C241.723 283.208 241.335 282.855 241.018 282.464C240.872 282.924 240.591 283.387 240.602 283.842C240.675 286.8 240.714 289.764 240.962 292.709C241.131 294.718 241.47 296.742 242.01 298.682C242.609 300.836 243.696 302.858 244.256 305.019C244.912 307.548 246.113 309.148 248.562 310.499C252.623 312.739 256.814 315.067 259.671 319.329C260.522 320.065 261.369 320.805 262.227 321.532ZM244.148 223.501C242.816 225.441 245.287 232.24 246.631 232.746C256.037 236.286 258.718 230.228 258.842 228.565C259.087 225.263 259.494 221.916 256.373 219.24C248.141 217.602 246.302 220.364 244.148 223.501ZM280.165 226.249C278.901 223.1 276.988 221.046 273.656 221.764C271.956 222.131 270.459 223.479 268.895 224.425C265.536 226.456 265.097 227.568 266.271 231.17C267.446 234.775 270.187 236.84 273.675 237.541C276.561 238.121 278.624 236.331 280.149 233.637C280.533 231.177 281.166 228.742 280.165 226.249ZM267.709 222.177C269.065 221.213 270.535 219.785 271.998 219.732C274.529 219.641 274.118 218.095 273.845 216.878C273.082 213.477 272.085 210.125 271.112 206.775C270.446 204.481 269.883 204.349 268.267 205.965C265.499 208.732 262.695 211.446 259.218 213.357C258.131 213.955 257.981 215.331 258.759 216.416C259.048 216.819 259.441 217.166 259.658 217.602C260.727 219.752 261.697 221.953 262.838 224.063C263.091 224.529 262.899 226.179 264.53 224.964C265.583 224.026 266.566 222.99 267.709 222.177ZM471.962 471.053C474.323 470.613 476.853 470.008 477.218 466.867C477.279 466.339 477.52 465.835 477.64 465.312C478.385 462.064 477.541 461.024 474.29 460.675C471.229 460.347 468.19 459.799 465.148 459.308C463.521 459.045 463.221 459.35 463.041 461.006C462.792 463.3 462.435 465.588 462.006 467.857C461.63 469.844 462.186 471.417 463.934 471.806C466.613 471.574 469.33 471.542 471.962 471.053ZM330.225 618.853C330.555 618.838 331.117 618.183 331.129 617.809C331.211 615.327 331.151 612.842 331.179 610.358C331.195 608.962 330.125 608.916 329.358 609.161C327.687 609.693 326.097 610.487 324.484 611.196C323.319 611.709 322.009 612.124 322.15 613.805C322.25 614.991 322.25 616.205 322.523 617.353C322.977 619.258 324.622 618.352 325.965 618.731C327.386 618.789 328.81 618.916 330.225 618.853ZM237.778 417.038C237.678 416.756 237.268 416.583 237 416.36C236.805 416.639 236.466 416.904 236.439 417.198C236.276 418.982 236.137 420.771 236.082 422.561C236.028 424.31 237.267 425.444 239.045 425.282C239.347 425.255 239.881 424.724 239.842 424.511C239.58 423.09 239.192 421.692 238.672 420.113C238.382 419.085 238.133 418.043 237.778 417.038ZM335.569 449.813C335.761 449.432 336.166 448.369 334.989 448.59C333.193 448.927 331.428 449.436 329.662 449.918C329.339 450.006 329.075 450.308 328.784 450.512C329.122 450.671 329.455 450.956 329.798 450.968C331.237 451.02 332.68 450.99 334.295 450.816C334.737 450.491 335.348 450.25 335.569 449.813ZM201.533 267.81C201.256 267.971 200.979 268.132 200.703 268.293C200.92 268.535 201.099 268.872 201.37 268.985C201.533 269.053 201.889 268.82 202.076 268.639C203.144 267.604 204.193 266.549 205.236 265.488C205.444 265.275 205.596 265.007 205.774 264.764C205.423 264.833 204.982 264.79 204.737 264.989C203.695 265.833 202.711 266.748 201.533 267.81Z" fill="#00160A"/>
<path fill-rule="evenodd" clip-rule="evenodd" d="M238.726 247.601C237.1 246.721 235.491 246 235.153 244.041C234.497 240.235 235.868 235.75 240.829 236.011C245.302 236.246 248.14 239.961 246.558 244.156C245.391 247.25 242.559 248.784 238.726 247.601Z" fill="#FFB61D"/>
<path fill-rule="evenodd" clip-rule="evenodd" d="M260.784 233.401C260.873 232.817 260.962 232.409 261.051 232C261.192 232.356 261.373 232.702 261.467 233.07C262.165 235.801 264.376 242.599 261.742 245.727C261.523 245.988 260.412 246.029 259.72 245.985C258.36 245.899 256.774 243.893 257.027 242.599C257.065 242.405 260.347 245.591 261.051 243.866C262.226 240.991 260.784 234.389 260.784 233.401Z" fill="#00160A"/>
<path fill-rule="evenodd" clip-rule="evenodd" d="M242.268 253.322C242.131 253.253 241.942 253.271 241.778 253.278C241.374 253.295 240.821 252.571 241.056 252.264C241.411 251.803 241.813 251.338 242.294 251.034C242.58 250.853 243.053 251.439 243.017 251.699C242.991 251.892 243.175 252.196 243.353 252.327C246.071 254.323 249.088 255.617 252.389 256.239C252.607 256.28 252.797 256.475 253 256.598C252.798 256.739 252.596 257.012 252.393 257C248.791 256.789 244.627 254.519 242.268 253.322Z" fill="#00160A"/>
<path fill-rule="evenodd" clip-rule="evenodd" d="M154.521 409.658L151.1 424.268C150.836 425.398 151.899 426.387 153.007 426.042L164.883 422.345C165.882 422.034 166.263 420.821 165.622 419.994L157.168 409.081C156.394 408.083 154.809 408.429 154.521 409.658ZM155.982 412L163.437 420.913L152.561 424.61L155.982 412Z" fill="#FFB61D"/>
<path fill-rule="evenodd" clip-rule="evenodd" d="M165.134 325.365C163.884 325.252 163.057 326.634 163.747 327.683L172.447 340.909C173.033 341.801 174.337 341.812 174.939 340.931L182.946 329.204C183.592 328.258 182.982 326.966 181.842 326.864L165.134 325.365ZM166.311 326.864L181.269 329.771L172.447 339.005L166.311 326.864Z" fill="#FFB61D"/>
<path fill-rule="evenodd" clip-rule="evenodd" d="M220.271 426.5H208C206.983 426.5 206.261 427.491 206.572 428.459L210.694 441.271C211.083 442.481 212.706 442.689 213.388 441.617L221.537 428.805C222.172 427.806 221.455 426.5 220.271 426.5ZM219.271 429L213.122 440.812L209 428L219.271 429Z" fill="#FFB61D"/>
<path fill-rule="evenodd" clip-rule="evenodd" d="M180.063 495.924L179.502 507.032C179.443 508.196 180.677 508.979 181.705 508.431L195.973 500.831C197.181 500.187 196.966 498.393 195.639 498.054L181.933 494.547C181.014 494.312 180.111 494.977 180.063 495.924ZM181.147 496.985L194.259 498.805L181.705 506.226L181.147 496.985Z" fill="#FFB61D"/>
<path fill-rule="evenodd" clip-rule="evenodd" d="M161.146 359.507L150.146 367.131C149.215 367.777 149.307 369.181 150.315 369.699L163.188 376.307C164.264 376.86 165.518 375.976 165.36 374.777L163.487 360.544C163.341 359.431 162.068 358.867 161.146 359.507ZM161.587 362.156L163.873 374.973L151 368.364L161.587 362.156Z" fill="#FFB61D"/>
<path fill-rule="evenodd" clip-rule="evenodd" d="M211.618 392.165L204.754 402.413C204.163 403.296 204.651 404.496 205.69 404.716L213.715 406.413C214.707 406.623 215.617 405.809 215.519 404.8L214.357 392.855C214.221 391.453 212.401 390.995 211.618 392.165ZM213.487 394.219V405.193L206.586 402.413L213.487 394.219Z" fill="#FFB61D"/>
<path fill-rule="evenodd" clip-rule="evenodd" d="M212.918 343.886C214.915 342.583 216.667 342.892 215.241 345.76C215.241 345.76 204.83 372.156 201.72 372.469C198.77 372.765 197.346 368.95 193.227 358.043L193.052 357.579C193.036 357.538 193.023 357.496 193.011 357.456L192.989 357.368L192.962 357.32L192.905 357.187L192.413 355.855C191.831 354.267 190.366 351.646 189.592 350.735C188.767 349.765 190.608 349.164 191.968 349.164C194.506 349.164 197.612 349.873 202.496 348.463C208.217 346.812 210.18 345.673 212.918 343.886ZM208.49 357.447L208.353 357.536C206.9 358.43 205.295 359.118 203.541 359.597C201.443 360.171 198.399 360.242 196.429 359.812L196.1 359.735L196.222 360.038C197.333 362.808 198.321 366.011 199.182 367.64L199.483 368.195C200.023 369.165 200.497 369.869 200.88 370.293L201 370.418L201.149 370.238C201.791 369.417 204.077 366.329 205.664 363.244L205.83 362.92C206.51 361.587 207.251 360.072 208.054 358.376L208.49 357.447ZM212.775 346.936L212.534 347.073C210.275 348.331 206.539 350.419 203.328 351.345C199.485 352.455 196.226 352.851 193.545 352.496L193.381 352.471L193.475 352.737C193.731 353.453 194.817 356.846 195.201 357.368C196.757 358.805 198.664 358.942 201 358.376L201.335 358.29C209.698 356.674 212.775 346.936 212.775 346.936Z" fill="#FFB61D"/>
<path fill-rule="evenodd" clip-rule="evenodd" d="M506.479 439.216C506.812 438.97 507.282 439.041 507.528 439.374C509.259 441.722 512.19 441.838 516.087 439.674C516.449 439.473 516.906 439.604 517.107 439.966C517.308 440.328 517.178 440.784 516.815 440.985C512.332 443.475 508.578 443.327 506.32 440.264C506.074 439.931 506.145 439.461 506.479 439.216Z" fill="#E7EAEE"/>
<path fill-rule="evenodd" clip-rule="evenodd" d="M500.809 445.224C501.116 444.945 501.59 444.968 501.869 445.274C504.495 448.163 507.985 448.328 510.823 446.812C511.189 446.617 511.643 446.755 511.838 447.12C512.033 447.486 511.895 447.94 511.53 448.135C508.14 449.946 503.907 449.746 500.759 446.283C500.48 445.977 500.503 445.503 500.809 445.224Z" fill="#E7EAEE"/>
<path fill-rule="evenodd" clip-rule="evenodd" d="M494.668 451.175C494.969 450.891 495.444 450.905 495.728 451.207C498.259 453.896 503.405 455.21 506.925 453.345C507.291 453.151 507.745 453.29 507.939 453.656C508.133 454.022 507.993 454.476 507.627 454.67C503.459 456.879 497.598 455.382 494.636 452.235C494.352 451.933 494.366 451.459 494.668 451.175Z" fill="#E7EAEE"/>
<path fill-rule="evenodd" clip-rule="evenodd" d="M499.435 474.696C504.7 472.149 499.257 462.709 494.162 466.53C490.894 468.98 494.477 477.095 499.435 474.696Z" fill="#E7EAEE"/>
</svg>
