<svg width="750" height="750" viewBox="0 0 750 750" fill="none" xmlns="http://www.w3.org/2000/svg">
<rect width="750" height="750" fill="none"/>
<path d="M269.119 288.528C247.017 362.025 285.584 430.437 312.6 467.745C339.617 505.053 410.577 548.472 485.895 539.398C535.252 533.451 543.36 506.275 551.836 477.863C556.295 462.919 560.855 447.632 571.575 434.915C578.669 426.498 587.565 418.379 596.73 410.016C627.738 381.719 661.819 350.618 639.579 295.663C624.981 259.594 594.156 250.886 559.415 241.072C525.58 231.514 488.031 220.906 458.138 182.954C397.55 106.032 291.222 215.032 269.119 288.528Z" />
<path d="M178.741 482.839C219.114 553.916 347.254 608.448 386.602 595.322C425.95 582.196 418.516 563.434 399.773 552.172C396.715 550.335 392.151 548.18 386.474 545.5C357.361 531.755 298.994 504.198 264.485 434.792C237.109 379.731 245.973 331.156 252.09 297.634C255.187 280.661 257.58 267.548 254.209 259.404C244.179 235.178 225.103 213.901 190.276 256.929C155.45 299.956 138.369 411.762 178.741 482.839Z" />
<path fill-rule="evenodd" clip-rule="evenodd" d="M438.983 364.838C437.891 365.081 437.429 366.48 437.791 367.523C438.154 368.566 439.063 369.316 439.932 370.011C441.036 370.894 442.867 369.731 442.929 368.333C442.992 366.934 441.844 365.733 440.563 365.127C440.07 364.895 439.516 364.72 438.983 364.838" fill="white"/>
<path fill-rule="evenodd" clip-rule="evenodd" d="M427.623 365.709C428.119 366.021 428.778 365.796 429.28 365.493C429.868 365.137 430.394 364.68 430.827 364.149C430.003 363.759 429.076 363.359 428.204 363.631C427.333 363.903 426.852 365.225 427.623 365.709L427.623 365.709Z" fill="white"/>
<path fill-rule="evenodd" clip-rule="evenodd" d="M164.651 530.837C164.651 530.837 151.457 522.675 151.194 530.837C150.931 539 142.064 549.743 133.032 543.872C124 538 135.101 519 139.55 508.5C144 498 151.591 500 146.296 455C146.343 431.756 154.101 412 154.101 412C154.101 412 157.304 399.134 146.296 410C135.287 420.866 137.232 422.015 129.627 422.015C122.021 422.015 126.383 407.06 134.698 405C143.012 402.94 155.124 395.119 155.124 395.119C155.124 395.119 179.156 358.475 185 347.783C190.844 337.091 212 303.567 226.5 260C227.773 256.402 235.556 235.538 226.5 232.818C215.945 229.648 188 250.372 190.205 232.818C192.41 215.264 238.746 183.982 243 177C251.114 163.682 274.448 181.912 267.567 173.447C266.062 171.595 264.22 169.773 262 168C261.372 154.136 276.795 147.141 295 147.141C311.158 147.141 334.491 154.756 331.698 170.586C331.551 171.423 340.595 167.8 351.881 161.477C367.635 152.651 384.357 134.929 387.97 137.537C387.517 139.465 426.592 133.881 425.915 135.738C423.043 143.619 409.169 163.725 415.493 177.718C417.919 183.085 440.402 186 440.402 186C440.402 186 456.386 192.418 447.557 198.121C431.432 208.534 382.661 223.72 386.38 229.879C331.391 203.203 305.906 216.423 303.321 223.128C294.394 246.293 291.342 275.559 311.049 308.95C322.819 328.44 325.367 330.63 325.367 330.63L332.959 340.719C332.959 340.719 334.897 327.24 340.883 327.24C346.87 327.24 356.863 338.829 348.4 362.75C346.602 370.635 348.338 375.538 354 388.444C355.983 395.737 355.165 399.609 355.165 399.609C355.165 399.609 354.115 408.502 359.435 416.947C364.756 425.393 374.809 439.989 366.508 449.966C361.085 455.892 358.206 446.063 358.206 446.063C358.206 446.063 346.831 476.589 344.915 486.577C343 496.564 334.161 512.41 332.959 526.942C331.938 516.656 323.268 486.298 313.803 501.599C309.492 520.258 311.049 527.658 311.049 541.927C299.071 521.74 288.419 498 269.709 508.5C259.822 514.049 266.37 529.49 266.37 538C268.306 546.282 269.963 559.4 268.166 569.95C264.625 544.882 243.638 537.743 235.819 543.872C228 550 235.819 578 235.819 584C235.819 590 238.947 603.63 231 617.854C230.237 597.407 233.199 551.051 201 550C168.801 548.949 191.978 589.539 190.205 599.461C188.214 599.037 187.165 585.967 177.5 560.967C174.168 552.349 164.651 530.837 164.651 530.837Z" fill="white"/>
<path fill-rule="evenodd" clip-rule="evenodd" d="M560.399 416.899C559.276 412.478 552.108 412.552 549.53 416.317C546.951 420.083 547.835 425.199 549.462 429.461C549.823 430.406 550.217 431.348 550.611 432.291C551.996 435.601 553.387 438.927 553.376 442.477C549.987 442.158 546.768 440.333 544.759 437.59C544.876 440.977 545.74 444.335 547.272 447.359C536.934 445.049 530.606 432.055 535.173 422.515C538.685 415.181 532.695 406.579 525.635 402.526C522.761 400.877 519.666 399.618 516.577 398.363L516.576 398.363C512.075 396.533 507.589 394.709 503.824 391.69C498.45 387.38 495.233 381.23 492.003 375.054C490.416 372.021 488.826 368.981 486.976 366.15C475.736 348.957 453.35 339.837 433.265 344.271C429.511 345.099 425.737 342.216 424.23 338.686C422.724 335.156 422.928 331.165 423.165 327.335C423.856 316.203 425.024 304.091 432.739 296.022C439.643 288.802 450.294 286.558 460.29 286.298C475.454 285.904 490.702 289.284 504.272 296.05C507.604 297.711 511.841 296.089 514.247 293.251C516.653 290.413 517.624 286.658 518.368 283.016C519.724 276.377 520.588 269.555 521.452 262.738C523.503 246.549 525.55 230.391 534.165 216.789C540.78 206.346 550.755 198.422 561.345 192.024C583.398 178.698 610.13 171.177 635.245 176.983C625.63 180.222 617.418 187.413 612.951 196.507C637.069 188.368 663.847 188.31 688 196.345C672.368 203.009 657.416 212.835 648.607 227.343C638.56 243.89 637.777 263.962 637.016 283.497L637.016 283.501C636.917 286.044 636.818 288.577 636.699 291.093C635.667 312.936 631.607 336.929 614.67 350.804C608.964 355.478 606.937 363.511 607.7 370.839C608.464 378.166 611.602 385.007 614.697 391.696C616.876 396.404 619.21 401.309 623.358 404.433C627.507 407.558 634.052 408.171 637.565 404.349C640.482 401.176 646.152 405.734 645.366 409.968C644.58 414.202 640.478 416.871 636.748 419.035C640.276 418.851 643.984 418.701 647.149 420.266C650.313 421.831 652.612 425.74 651.151 428.949C650.458 430.471 649.084 431.555 647.759 432.577L636.656 441.149L648.945 454.068C650.217 455.405 651.533 456.817 652.026 458.594C653.046 462.267 649.994 466.072 646.374 467.287C642.754 468.503 638.803 467.829 635.046 467.142C638.509 471.698 641.842 478.614 637.615 482.473C634.846 485.001 630.96 484.194 627.015 483.375C623.319 482.607 619.572 481.829 616.645 483.773C618.603 490.446 618.836 498.377 614.241 503.604C609.646 508.831 599.139 508.241 597.284 501.539C591.047 508.693 583.318 514.546 574.735 518.614C570.594 520.577 563.921 520.942 563.122 516.437C562.802 514.631 563.753 512.868 564.671 511.278L576.22 491.267C566.708 498.901 554.897 503.645 542.738 504.716C538.632 505.078 533.029 503.648 533.183 499.538C533.236 498.123 534.05 496.862 534.866 495.703C539.701 488.835 545.613 482.604 551.5 476.399C562.146 465.177 572.71 454.043 576.67 439.385C578.022 434.377 578.365 428.567 575.204 424.45C570.105 417.807 559.813 419.526 551.774 421.905C553.075 418.565 556.847 416.376 560.399 416.899ZM426.695 330.078C426.243 330.834 426.278 331.773 426.328 332.652C426.437 334.622 426.691 336.865 428.299 338.012C431.009 336.18 431.342 331.721 428.933 329.509C428.284 328.913 427.146 329.321 426.695 330.078ZM434.099 337.11C434.982 337.409 435.674 338.211 435.84 339.127C435.877 339.334 435.89 339.549 435.847 339.755C435.78 340.078 435.574 340.37 435.292 340.541C434.735 340.879 433.978 340.704 433.477 340.287C432.977 339.87 432.681 339.262 432.433 338.66C432.334 338.42 432.239 338.167 432.263 337.909C432.334 337.145 433.37 336.863 434.099 337.11Z" fill="white"/>
<path fill-rule="evenodd" clip-rule="evenodd" d="M193.389 171.626C149.694 178.315 108.22 198.782 76.3628 229.375C67.9215 237.482 59.5458 248.514 62.6677 259.784C67.9873 242.271 81.4453 228.375 96.0192 217.272C136.267 186.61 187.34 172.547 237.898 169.85C250.309 169.188 265.77 171.092 270.151 182.702C272.063 187.771 271.146 193.548 268.925 198.489C261.479 215.055 242.35 221.966 225.097 228.201C224.459 228.431 223.823 228.661 223.191 228.89C173.378 246.945 126.503 277.124 97.1517 321.17C95.1962 324.105 93.2614 327.786 94.7651 330.974C124.929 284.575 171.939 249.351 224.995 233.394C222.182 290.304 189.242 340.735 157.395 388.021C163.136 385.846 166.765 380.299 169.998 375.088L201.877 323.71C204.664 334.163 199.53 344.401 194.53 354.374C193.352 356.722 192.182 359.055 191.125 361.374C183.908 377.193 181.677 394.751 179.53 412C182.01 411.734 183.172 408.865 183.821 406.461L198.671 351.431C199.469 356.214 201.705 360.749 205.016 364.298C208.273 359.161 208.292 352.749 208.311 346.625L208.311 346.61L208.312 346.033C208.313 345.828 208.314 345.624 208.315 345.421C208.543 302.312 225.211 259.49 254.199 227.536C255.431 226.178 256.687 224.835 257.944 223.492L257.944 223.491C262.823 218.275 267.714 213.046 271.25 206.871C275.697 199.106 277.73 189.309 273.964 181.193C273.378 179.93 272.659 178.714 271.94 177.5C270.475 175.023 269.016 172.557 268.715 169.735C268.178 164.703 271.651 159.925 276.031 157.375C280.411 154.825 285.568 154.046 290.585 153.315C298.693 152.133 307.176 150.982 314.911 153.68C322.646 156.377 329.234 164.254 327.537 172.255C326.763 175.906 324.454 178.996 322.212 181.998L322.027 182.246L321.834 182.505C294.047 219.804 281.594 268.148 287.912 314.202C291.12 301.837 292.432 288.983 291.789 276.227C301.469 297.738 313.505 318.192 327.614 337.105C329.11 330.629 325.3 324.25 321.824 318.581C306.298 293.254 294.068 262.918 302.117 234.332C303.483 229.48 305.488 224.674 308.948 221.003C318.733 210.622 335.737 212.902 349.231 217.567C373.733 226.036 396.389 239.784 415.201 257.597C406.25 240.234 390.196 227.129 372.208 219.454C354.221 211.779 334.378 209.212 314.818 209.448L332.839 179.486C334.104 177.383 335.445 175.201 337.532 173.906C340.736 171.919 344.84 172.495 348.556 173.139L458 192.099C423.756 172.781 383.025 169.634 343.785 166.917C369.222 156.157 391.385 137.819 406.696 114.864C408.204 112.604 409.035 108.598 406.382 108C389.264 133.025 365.276 153.319 337.739 166.071C336.905 154.491 324.716 147.079 313.328 144.718C302.54 142.481 291.196 142.966 280.639 146.115C273.335 148.294 266.5 151.688 259.659 155.085C254.009 157.89 248.356 160.697 242.432 162.823C231.034 166.913 218.966 168.379 206.9 169.844C202.384 170.392 197.869 170.941 193.389 171.626ZM331.745 516.001C328.105 531.862 327.459 548.976 333.693 564C335.102 531.027 342.032 498.299 354.104 467.603L354.292 467.126L354.292 467.125C355.437 464.219 356.595 461.282 356.956 458.182C357.216 455.947 356.332 452.936 354.092 453.001C352.121 453.058 351.231 455.448 350.775 457.374C349.787 461.549 348.483 465.642 347.098 469.702C345.522 474.321 343.838 478.907 342.154 483.493L342.153 483.494C338.223 494.197 334.293 504.898 331.745 516.001ZM186.558 641.989L184.972 642C188.782 610.245 184.263 577.032 168.801 548.949C168.35 548.13 167.889 547.314 167.428 546.496C165.228 542.599 163.02 538.688 161.827 534.399C160.384 529.21 160.656 523.218 164.034 519C171.709 531.735 179.423 544.55 184.755 558.406C191.636 576.287 194.386 595.589 193.957 614.717C193.742 624.296 192.52 634.437 186.558 641.989ZM225.068 560.482C224.01 557.162 222.803 553.891 221.596 550.622L220.014 546.338L217 538.172C221.814 537.265 226.738 540.054 229.675 543.956C232.612 547.858 233.937 552.704 235.046 557.452C237.924 569.776 239.77 582.472 238.686 595.078C237.602 607.684 233.42 620.262 225.302 630C232.3 607.521 232.217 582.915 225.068 560.482ZM270.451 564.562C270.154 567.165 269.693 569.858 268.171 572C267.268 540.41 257.438 509.119 240.091 482.612C239.662 481.957 239.228 481.303 238.794 480.648C235.891 476.275 232.965 471.867 231.455 466.871C231.068 465.591 230.782 464.2 231.222 462.937C231.663 461.675 233.08 460.664 234.352 461.105C235.215 461.404 235.751 462.238 236.22 463.016C245.635 478.622 255.093 494.314 261.83 511.229C268.566 528.143 272.515 546.49 270.451 564.562ZM323.828 383.982C320.054 396.823 314.083 409.014 306.252 419.866C302.144 425.56 297.02 431.204 290.16 432.692C290.31 443.103 293.195 453.462 298.449 462.449C300.423 453.904 305.812 446.726 311.122 439.654C312.023 438.453 312.922 437.256 313.802 436.055C323.794 422.419 331.792 407.323 337.463 391.396C338.243 389.206 340.746 386.555 342.276 388.305C343.01 389.143 342.736 390.428 342.412 391.494C334.521 417.441 321.525 441.823 304.384 462.835C302.49 465.158 303.77 468.601 305.113 471.281L314.79 490.593C319.368 479.303 326.668 469.363 333.894 459.555L348.713 439.44C351.227 442.035 349.126 446.299 346.981 449.206C332.092 469.382 316.714 490.823 313.845 515.738C312.822 524.623 313.454 533.565 314.086 542.509C314.344 546.153 314.601 549.797 314.747 553.438C315.25 566.016 314.246 579.205 307.774 590L306.051 511.936C305.887 504.495 305.701 496.924 303.357 489.861C301.41 483.993 298.075 478.767 294.734 473.532C292.989 470.798 291.243 468.062 289.692 465.23C276.542 441.222 278.127 412.118 280.917 384.883C281.466 379.53 282.167 373.873 285.477 369.632C286.403 368.447 288.193 367.378 289.269 368.428C289.914 369.058 289.854 370.094 289.748 370.99L284.95 411.604C289.441 405.131 292.056 397.373 292.402 389.502C293.257 390.389 293.947 391.435 294.425 392.571C298.65 382.297 308.443 374.52 319.404 372.737C330.364 370.954 342.116 375.225 349.376 383.632L347.33 377.777C347.117 377.168 346.904 376.497 347.133 375.894C347.847 374.011 350.695 375.593 351.696 377.341C354.757 382.681 356.573 388.731 356.958 394.875C357.088 396.94 356.985 399.219 355.606 400.761C354.227 402.304 351.166 402.305 350.471 400.356C348.113 393.739 344.53 387.562 339.957 382.231C336.648 378.373 330.845 374.816 326.903 378.023C325.164 379.437 324.487 381.74 323.854 383.895L323.828 383.982ZM321.61 376.571C310.651 377.19 301.293 385.532 296.476 395.4C291.659 405.268 290.595 416.501 289.97 427.465C289.94 428.004 289.933 428.611 290.308 428.999C291.065 429.786 292.339 428.922 293.053 428.096C299.581 420.537 306.137 412.94 311.419 404.462C316.7 395.984 320.696 386.518 321.61 376.571ZM157.492 405C152.65 407.143 150.566 412.664 149.222 417.687C142.77 441.786 142.287 467.388 147.825 491.704C147.884 491.96 147.946 492.223 148.089 492.446C148.741 493.46 150.396 492.931 151.245 492.068C154.229 489.034 153.599 484.191 152.933 480.035C149.185 456.661 150.741 432.49 157.458 409.758C157.923 408.185 158.385 406.386 157.492 405ZM181.004 465.278C181.103 460.379 183.087 455.543 186.451 452C190.169 471.579 195.682 491.073 205.737 508.248C206.822 510.102 204.329 512.386 202.236 511.945C200.143 511.503 198.749 509.56 197.608 507.74C191.493 497.986 186.607 487.454 183.104 476.474C181.945 472.84 180.927 469.093 181.004 465.278ZM431.848 116.542C431.544 115.589 430.536 114.78 429.567 115.054C428.695 115.301 428.259 116.244 427.932 117.083C422.061 132.157 416.269 147.261 410.557 162.395C409.802 164.396 409.53 167.41 411.617 167.937C413.286 168.358 414.612 166.582 415.384 165.056C422.691 150.614 428.193 135.275 431.724 119.501C431.943 118.525 432.152 117.494 431.848 116.542ZM187.275 179.291C187.867 178.939 188.89 178.802 189 179.489C186.874 180.702 185.179 182.507 183.483 184.314C181.854 186.049 180.224 187.786 178.208 189C177.728 188.538 178.17 187.738 178.613 187.239C181.23 184.292 183.903 181.299 187.275 179.291ZM217 176.068C216.215 175.776 215.439 176.476 214.878 177.113L210.663 181.902C210.129 182.509 209.652 183.604 210.348 184C213.172 181.999 215.486 179.239 217 176.068ZM193 183.85C195.919 182.852 198.411 180.801 199.844 178.22C200.769 176.553 203.089 176.16 205.088 176.009C205.39 175.986 205.752 175.99 205.922 176.224C206.206 176.617 205.656 177.057 205.216 177.293C203.661 178.127 202.539 179.477 201.43 180.813L201.429 180.814L201.428 180.814L201.428 180.815L201.428 180.815L201.427 180.816L201.427 180.816L201.427 180.817L201.426 180.817C201.207 181.081 200.988 181.345 200.766 181.604C199.421 183.173 197.742 184.706 195.612 184.973C194.581 185.102 193.33 184.774 193 183.85ZM203.003 184.191C202.968 184.569 203.224 184.999 203.596 185L210.393 178.562C210.837 178.141 211.275 177.362 210.783 177C207.995 178.557 205.508 180.675 203.509 183.197C203.275 183.491 203.039 183.814 203.003 184.191ZM213.526 406.081C214.132 406.934 214.743 407.796 215.136 408.766C215.455 409.551 215.624 410.387 215.791 411.217L217.594 420.166C217.863 421.501 218.133 422.87 217.928 424.216C217.691 425.773 216.281 427.421 214.799 426.903C213.77 426.544 213.321 425.361 213.003 424.316C210.872 417.317 208.913 410.265 207.13 403.169C207.044 402.827 206.958 402.471 207.022 402.123C207.198 401.178 208.44 400.777 209.334 401.122C210.229 401.467 210.836 402.291 211.392 403.075L213.526 406.081ZM189.447 182.175C188.146 183.254 186.912 184.42 185.755 185.664C185.14 186.326 184.611 187.561 185.389 188C187.482 186.376 189.373 184.47 191 182.347C190.512 182.077 189.879 181.817 189.447 182.175ZM227.292 175.489C227.797 175.047 228.735 174.725 229 175.342C227.382 177.139 225.868 179.029 224.466 181C223.779 180.769 223.959 179.741 224.321 179.111C225.104 177.75 226.112 176.521 227.292 175.489ZM193.107 181L197 178.756C196.307 177.972 195.046 177.766 194.139 178.288C193.233 178.811 192.778 180.006 193.107 181ZM173.494 183.735C173.038 183.984 172.502 184.061 172 183.951C171.99 182.478 173.877 181.451 175 182.318C174.596 182.887 174.074 183.363 173.483 183.702L173.494 183.735ZM235.39 176.545C235.037 176.986 234.762 177.741 235.311 177.96C235.659 178.098 236.036 177.854 236.321 177.625L239.44 175.115C239.768 174.851 240.129 174.47 239.954 174.104C238.152 173.578 236.503 175.149 235.39 176.545ZM245.657 173.624C245.368 174.109 245.052 174.619 244.529 174.876C244.006 175.132 243.22 174.99 243.038 174.462C242.916 174.111 243.103 173.721 243.382 173.46C244.077 172.81 245.36 172.856 246 173.554L245.657 173.624ZM158.002 194.185C157.968 194.622 158.368 195.106 158.788 194.979C158.994 194.917 159.137 194.736 159.266 194.564C159.845 193.796 160.384 192.596 159.629 192C159.294 192.35 158.964 192.704 158.638 193.062C158.343 193.386 158.036 193.747 158.002 194.185ZM222.181 174.61C222.711 174.056 223.829 173.66 224 174.425C222.366 176.812 220.494 179.019 218.425 181C217.68 180.709 218.043 179.526 218.539 178.873C219.674 177.381 220.891 175.957 222.181 174.61ZM163.546 189.952C164.088 190.145 164.866 189.722 164.644 189.31L164.632 189.268C165.169 188.962 165.107 188.253 164.521 188C163.956 188.153 163.399 188.401 163.132 188.798C162.865 189.194 163.004 189.758 163.546 189.952ZM232.752 175.046C233.207 175.276 232.954 176.015 232.645 176.441C231.713 177.726 230.51 179.145 229 178.988C229.64 177.466 230.691 176.147 231.992 175.233C232.22 175.073 232.506 174.921 232.752 175.046ZM404.546 187.941C405.15 188.171 406.042 187.684 405.764 187.235L406 187.174L405.989 186C405.31 186.052 404.606 186.245 404.226 186.654C403.845 187.062 403.942 187.712 404.546 187.941ZM437.462 318.582C436.439 316.587 437.176 313.868 439.066 312.664C440.955 311.46 443.728 311.943 445.1 313.715C446.472 315.488 446.248 318.296 444.612 319.828C442.976 321.359 440.162 321.395 438.487 319.906C438.068 319.533 437.719 319.081 437.462 318.582ZM441.712 316.168C441.426 316.766 441.981 317.576 442.642 317.525C443.302 317.474 443.726 316.588 443.351 316.041C442.976 315.494 441.998 315.57 441.712 316.168ZM560.399 416.899C556.847 416.376 553.075 418.565 551.774 421.905C559.813 419.526 570.105 417.807 575.204 424.45C578.365 428.567 578.022 434.377 576.67 439.385C572.71 454.043 562.146 465.177 551.5 476.399C545.613 482.604 539.701 488.835 534.866 495.703C534.05 496.862 533.236 498.123 533.183 499.538C533.029 503.648 538.632 505.078 542.738 504.716C554.897 503.645 566.708 498.901 576.22 491.267L564.671 511.278C563.753 512.868 562.802 514.631 563.122 516.437C563.921 520.942 570.594 520.577 574.735 518.614C583.318 514.546 591.047 508.693 597.284 501.539C599.139 508.241 609.646 508.831 614.241 503.604C618.836 498.377 618.604 490.446 616.645 483.773C619.572 481.829 623.319 482.607 627.015 483.375C630.96 484.194 634.846 485.001 637.615 482.473C641.842 478.614 638.509 471.698 635.046 467.142C638.803 467.829 642.754 468.503 646.374 467.287C649.994 466.072 653.046 462.267 652.026 458.594C651.533 456.817 650.217 455.405 648.945 454.068L636.656 441.149L647.759 432.577C649.084 431.555 650.458 430.471 651.151 428.949C652.612 425.74 650.313 421.831 647.149 420.266C643.984 418.701 640.276 418.851 636.748 419.035C640.478 416.871 644.58 414.202 645.366 409.968C646.152 405.734 640.482 401.176 637.565 404.349C634.052 408.171 627.507 407.558 623.358 404.433C619.21 401.309 616.876 396.404 614.697 391.696C611.602 385.007 608.464 378.166 607.7 370.839C606.937 363.511 608.964 355.478 614.67 350.804C631.607 336.929 635.667 312.936 636.699 291.093C636.818 288.576 636.917 286.041 637.016 283.497C637.777 263.962 638.56 243.89 648.607 227.343C657.416 212.835 672.368 203.009 688 196.345C663.847 188.31 637.069 188.368 612.951 196.507C617.418 187.413 625.63 180.222 635.245 176.983C610.13 171.177 583.398 178.698 561.345 192.024C550.755 198.422 540.78 206.346 534.165 216.789C525.55 230.391 523.503 246.549 521.452 262.738C520.588 269.555 519.724 276.377 518.368 283.016C517.624 286.658 516.653 290.413 514.247 293.251C511.841 296.089 507.604 297.711 504.272 296.05C490.702 289.284 475.454 285.904 460.29 286.298C450.294 286.558 439.643 288.802 432.739 296.022C425.024 304.091 423.856 316.203 423.165 327.335C422.928 331.165 422.724 335.156 424.23 338.686C425.737 342.216 429.511 345.099 433.265 344.271C453.35 339.837 475.736 348.957 486.976 366.151C488.826 368.981 490.416 372.021 492.003 375.054C495.233 381.23 498.45 387.38 503.824 391.69C507.589 394.709 512.076 396.533 516.577 398.363C519.666 399.618 522.761 400.877 525.635 402.526C532.695 406.579 538.685 415.181 535.173 422.515C530.606 432.055 536.934 445.049 547.272 447.359C545.74 444.335 544.876 440.977 544.759 437.59C546.768 440.333 549.987 442.158 553.376 442.477C553.387 438.927 551.996 435.601 550.611 432.291C550.217 431.348 549.823 430.406 549.462 429.461C547.835 425.199 546.951 420.083 549.53 416.317C552.108 412.552 559.276 412.478 560.399 416.899ZM465.978 291.958C478.673 292.035 491.332 295.527 502.265 301.968C496.428 305.248 494.087 313.514 497.34 319.358C501.216 310.833 510.068 306.749 518.882 302.684C521.971 301.259 525.055 299.836 527.919 298.225C545.682 288.233 555.847 269.83 566 251.45C576.322 232.764 586.631 214.102 604.897 204.321C614.96 198.932 626.483 196.904 637.862 195.938C651.02 194.82 664.405 195.037 677.25 198.094C656.978 205.917 640.867 223.741 635.15 244.669C631.996 256.218 631.895 268.24 631.793 280.277C631.702 291.105 631.611 301.945 629.297 312.463C624.707 333.324 611.044 352.032 592.549 362.779C595.819 364.852 600.104 365.236 603.692 363.777C602.747 375.321 607.608 386.182 612.416 396.924C613.637 399.652 614.855 402.373 615.973 405.095C621.494 418.535 624.112 435.611 614.201 446.248L621.071 444.099C623.158 455.581 627.417 466.665 633.559 476.594C630.945 480.526 624.429 479.757 621.282 476.235C618.136 472.712 617.523 467.654 617.346 462.938C617.329 462.481 617.314 462.022 617.299 461.562C617.16 457.272 617.017 452.875 615.032 449.102L610.795 495.457C610.558 498.045 610.014 501.092 607.651 502.185C604.912 503.452 601.662 500.854 601.047 497.904C600.456 495.064 601.497 492.182 602.487 489.441L602.6 489.126C605.535 480.983 607.592 472.525 608.727 463.946C609.063 461.404 607.859 457.605 605.458 458.516C602.858 464.185 601.031 470.155 599.204 476.126C597.617 481.314 596.029 486.504 593.933 491.501C589.424 502.248 581.697 512.642 570.473 515.849C580.958 489.243 591.861 461.961 611.344 441.001C602.168 446.642 595.726 455.723 589.894 464.768C589.324 465.651 588.757 466.538 588.188 467.426C582.938 475.632 577.63 483.927 570.217 490.209C562.002 497.171 550.46 501.307 540.275 497.791C554.995 485.694 567.227 470.594 575.996 453.695C579.679 446.596 582.825 438.682 581.536 430.793C579.784 420.076 570.238 412.213 560.214 407.991C555.041 405.813 549.619 404.333 544.195 402.852C539.107 401.463 534.018 400.074 529.134 398.108C517.672 393.496 507.521 385.689 500.129 375.805C497.957 372.901 496.01 369.813 494.065 366.729C490.474 361.035 486.892 355.354 481.92 350.866C474.553 344.216 464.854 340.847 455.351 337.962C447.226 335.495 438.24 332.672 433.957 325.354C429.22 317.26 432.548 306.207 439.638 300.059C446.728 293.911 456.585 291.901 465.978 291.958ZM551.92 204.968C571.19 189.508 595.517 180.431 620.224 179.484C616.538 180.261 613.932 183.534 612.133 186.838C611.696 187.641 611.283 188.464 610.87 189.287C609.583 191.851 608.293 194.42 606.257 196.413C604.215 198.411 601.599 199.654 599 200.889C598.435 201.157 597.87 201.426 597.312 201.701C586.11 207.236 576.939 216.296 569.741 226.495C562.543 236.695 557.183 248.056 552.147 259.474C551.978 259.855 551.811 260.236 551.642 260.618C548.814 267.044 545.964 273.518 541.804 279.168C537.397 285.154 531.293 290.225 524.031 291.854C526.581 270.759 530.594 249.84 536.03 229.296C537.016 225.571 538.061 221.824 539.853 218.411C542.669 213.042 547.188 208.765 551.92 204.968ZM632.061 462.307C631.51 461.905 631.239 461.234 630.994 460.599L624.982 444.997C623.79 441.904 622.597 438.425 623.893 435.373C624.297 434.424 625.618 433.533 626.222 434.37C632.678 443.323 640.033 451.63 648.142 459.126C648.653 459.598 648.435 460.511 647.89 460.945C647.345 461.379 646.61 461.465 645.917 461.534L634.59 462.669C633.722 462.756 632.765 462.821 632.061 462.307ZM543.041 418.988C542.031 418.104 540.63 419.566 540.225 420.844C538.625 425.901 539.57 431.451 541.475 436.401L541.511 436.495C542.403 438.812 543.44 441.507 542.113 443.593C540.686 442.726 539.825 441.182 539.154 439.656C536.481 433.575 535.843 426.623 537.365 420.159C538 417.463 539.325 414.527 541.974 413.701C542.47 413.546 542.554 412.818 542.254 412.393C541.967 411.985 541.476 411.787 541.01 411.598L540.952 411.575C537.996 410.375 535.357 408.406 533.37 405.914C533.165 405.657 532.955 405.344 533.034 405.026C533.184 404.426 534.057 404.497 534.638 404.707L550.853 410.559C550.354 411.469 549.359 411.823 548.343 412.185C547.692 412.416 547.032 412.651 546.489 413.038C544.338 414.569 544.671 417.799 545.236 420.376L548.981 437.451C543.304 433.451 540.759 425.538 543.041 418.988ZM644.076 426.625C644.877 426.835 645.712 427.062 646.324 427.618C644.113 429.352 641.782 430.933 639.353 432.348C637.171 433.62 634.654 434.793 632.2 434.189C630.475 433.764 629.054 432.494 628.084 431.008C627.114 429.522 626.537 427.82 625.984 426.135C625.719 425.325 625.462 424.411 625.851 423.653C626.522 422.345 628.422 422.524 629.846 422.897L644.076 426.625ZM634.084 415.177C633.298 415.849 632.455 416.531 631.44 416.738C630.23 416.986 628.992 416.515 627.89 415.956C626.608 415.305 625.393 414.521 624.271 413.621C623.848 413.282 623.404 412.704 623.72 412.264C623.885 412.033 624.194 411.967 624.475 411.92C629.004 411.163 633.632 410.999 638.204 411.435C636.869 412.723 635.495 413.971 634.084 415.177ZM426.695 330.078C427.146 329.321 428.284 328.913 428.933 329.509C431.341 331.721 431.009 336.18 428.299 338.012C426.691 336.865 426.437 334.622 426.328 332.652C426.279 331.773 426.243 330.834 426.695 330.078ZM435.84 339.127C435.877 339.334 435.89 339.549 435.847 339.755C435.78 340.078 435.574 340.37 435.292 340.541C434.735 340.879 433.978 340.704 433.477 340.287C432.977 339.87 432.681 339.262 432.433 338.66C432.335 338.42 432.239 338.167 432.263 337.909C432.334 337.145 433.37 336.863 434.099 337.11C434.982 337.409 435.674 338.211 435.84 339.127Z" fill="#00160A"/>
<path fill-rule="evenodd" clip-rule="evenodd" d="M294.999 334.077C295.02 330.946 294.576 327.832 294.132 324.733C293.899 323.103 293.533 321.261 292.144 320.409C290.689 319.516 288.715 320.19 287.527 321.423C286.545 322.442 285.949 323.753 285.357 325.055C285.232 325.329 285.107 325.604 284.979 325.874C281.224 333.819 274.151 339.535 267.31 344.965C263.416 348.057 261.37 353.375 262.172 358.324C262.974 363.273 266.59 367.648 271.255 369.313C273.968 370.281 277.13 370.324 279.587 368.807C281.574 367.58 282.879 365.508 284.098 363.499C289.585 354.46 294.928 344.691 294.999 334.077ZM285.545 349.713C284.048 356.538 278.885 362.415 272.372 364.707C271.889 364.877 271.36 365.028 270.874 364.867C269.905 364.545 269.702 363.263 269.71 362.229C269.799 350.102 275.854 338.17 285.531 331.047C285.959 330.733 286.577 330.433 286.966 330.796C287.227 331.039 287.22 331.451 287.192 331.81L286.257 343.957C286.108 345.886 285.959 347.824 285.545 349.713ZM208.022 488.485C205.529 486.728 204.19 483.784 203.247 480.895C198.551 466.508 201.335 449.924 210.479 437.831C212.781 434.786 216.68 431.762 220.082 433.518C222.212 434.618 223.084 437.15 223.677 439.461C226.084 448.826 227.073 458.523 226.996 468.188C226.95 473.913 226.421 479.966 223.086 484.634C219.751 489.302 212.722 491.797 208.022 488.485ZM214.591 483.638C217.386 483.878 219.261 480.887 220.206 478.263C224.629 465.982 223.866 451.948 218.138 440.212C217.692 439.298 217.122 438.315 216.145 438.012C214.486 437.499 213.042 439.22 212.238 440.75C206.144 452.333 205.283 466.513 209.93 478.741C210.774 480.963 212.209 483.433 214.591 483.638ZM132.035 548.13C127.059 544.575 126.388 537.346 127.406 531.275C129.042 521.522 133.87 512.359 140.895 505.47C144.464 501.97 148.754 498.971 153.649 498.082C154.162 497.989 154.719 497.926 155.18 498.172C155.793 498.499 156.03 499.251 156.199 499.931C158.913 510.883 158.552 522.595 155.17 533.355C153.556 538.49 151.122 543.599 146.914 546.91C142.707 550.22 136.389 551.241 132.035 548.13ZM141.224 543.441C142.38 542.867 143.218 541.807 143.957 540.74C150.285 531.603 152.034 519.841 150.846 508.754C150.717 507.55 150.525 506.275 149.746 505.353C148.968 504.431 147.4 504.092 146.584 504.98C139.822 512.34 135.205 521.687 133.449 531.571C132.933 534.479 132.688 537.614 133.98 540.265C135.273 542.916 138.599 544.744 141.224 543.441ZM210.87 367.628C216.759 369.528 222.676 371.554 227.927 374.814C233.178 378.075 237.773 382.71 239.873 388.497C241.972 394.284 241.204 401.288 237.02 405.822C232.835 410.356 225.075 411.542 220.262 407.671C218.767 406.468 217.624 404.894 216.533 403.319C213.152 398.444 210.07 393.364 207.31 388.117C204.756 383.261 202.419 377.922 203.129 372.489C203.427 370.214 204.566 367.723 206.797 367.133C208.138 366.778 209.55 367.202 210.87 367.628ZM210.232 375.8C210.44 384.549 214.278 393.158 220.658 399.192C222.755 401.176 225.238 402.942 228.101 403.37C230.964 403.798 234.237 402.539 235.372 399.893C236.42 397.448 235.45 394.638 234.277 392.25C230.952 385.475 225.954 379.517 219.845 375.047C217.817 373.563 215.507 372.193 212.989 372.238C212.345 372.25 211.672 372.369 211.169 372.768C210.305 373.453 210.206 374.703 210.232 375.8ZM162.354 457.921C165.19 461.26 170.087 462.962 174.2 461.435C179.379 459.513 181.728 453.598 182.943 448.226C185 439.128 185.521 429.687 184.477 420.42C184.303 418.878 182.566 417.897 181.014 418.009C179.461 418.121 178.09 419.024 176.843 419.952C171.832 423.68 167.491 428.3 164.086 433.527C161.696 437.196 159.741 441.245 159.163 445.581C158.585 449.917 159.519 454.583 162.354 457.921ZM177.381 446.681C176.477 448.928 174.909 450.838 173.312 452.663C171.6 454.62 169.343 456.701 166.779 456.24C164.617 455.852 163.149 453.659 162.913 451.483C162.677 449.306 163.407 447.149 164.199 445.107C167.475 436.663 172.065 428.658 178.238 422.014L178.471 437.436C178.518 440.56 178.548 443.781 177.381 446.681ZM369.696 451.722C367.739 453.734 365.012 455.611 362.322 454.812C360.331 454.22 359.036 452.336 358.019 450.524C351.548 438.995 349.811 424.454 355.2 412.381C355.855 410.914 356.818 409.327 358.398 409.044C360.692 408.635 362.339 411.136 363.292 413.264C366.448 420.316 369.38 427.47 372.081 434.709C373.343 438.091 374.571 441.737 373.715 445.244C373.105 447.743 371.489 449.878 369.696 451.722ZM358.95 421.056C358.208 421.521 358.172 422.57 358.22 423.445L358.959 436.701C359.171 440.506 359.648 444.828 362.717 447.084C363.338 447.541 364.131 447.895 364.867 447.663C365.956 447.32 366.292 445.962 366.391 444.824C367.127 436.342 364.359 427.628 358.95 421.056ZM229.631 537.824C231.064 538.46 232.573 539.107 234.135 538.985C235.816 538.854 237.306 537.846 238.535 536.688C241.476 533.914 243.423 529.86 242.921 525.84C242.515 522.584 240.551 519.658 237.998 517.608C235.444 515.558 232.338 514.309 229.181 513.457C223.905 512.032 218.352 511.646 212.93 512.327C211.014 512.568 208.994 513.001 207.615 514.358C205.931 516.017 205.64 518.738 206.39 520.983C207.141 523.229 208.764 525.071 210.506 526.667C215.977 531.68 222.855 534.819 229.631 537.824ZM239.496 528.978C239.527 530.367 238.995 531.816 237.895 532.66C236.708 533.572 235.091 533.656 233.6 533.544C225.486 532.936 217.965 527.259 215.132 519.603C214.685 518.396 215.537 517.014 216.688 516.446C217.839 515.878 219.186 515.924 220.465 516.033C223.901 516.323 227.343 516.982 230.485 518.409C233.627 519.836 236.466 522.078 238.225 525.055C238.932 526.251 239.465 527.588 239.496 528.978ZM139.489 421.299C137.145 423.46 134.133 425.311 130.954 424.956C127.012 424.516 124.095 420.555 124.003 416.618C123.911 412.68 126.131 408.971 129.08 406.336C132.029 403.702 135.662 401.969 139.242 400.271L156.682 392C157.763 392.677 158.153 394.112 157.947 395.364C157.741 396.617 157.053 397.732 156.37 398.804C152.895 404.262 149.181 409.571 145.243 414.709C143.467 417.026 141.637 419.318 139.489 421.299ZM128.184 415.933C127.954 418.219 130.598 419.968 132.896 419.697C135.194 419.427 137.078 417.811 138.708 416.18C143.76 411.127 147.917 405.194 150.931 398.734C142.778 401.53 135.396 406.511 129.776 413.007C129.036 413.862 128.297 414.812 128.184 415.933ZM348.765 328.092C345.997 325.39 341.69 324.108 338.185 325.688C333.622 327.745 332.002 333.556 332 338.643C331.996 350.556 338.239 362.285 348.037 368.773C348.808 369.284 349.903 368.872 350.466 368.131C351.029 367.39 351.196 366.423 351.345 365.498L352.485 358.453C353.552 351.855 354.62 345.117 353.568 338.517C352.954 334.66 351.532 330.795 348.765 328.092ZM335.999 338.255C335.988 336.485 336.592 334.717 337.68 333.337C338.333 332.51 339.173 331.811 340.16 331.472C342.381 330.708 344.904 331.973 346.274 333.913C347.644 335.852 348.081 338.312 348.271 340.695C348.737 346.526 347.933 352.46 345.933 357.944C345.795 358.322 345.589 358.752 345.199 358.82C344.727 358.901 344.375 358.4 344.152 357.967C341.813 353.424 339.629 348.798 337.606 344.099C336.803 342.233 336.011 340.293 335.999 338.255Z" fill="#FFB61D"/>
<path fill-rule="evenodd" clip-rule="evenodd" d="M417.946 338.545C418.729 337.975 419.533 337.395 420.465 337.131C421.396 336.867 422.497 336.98 423.183 337.662C423.861 338.336 423.986 339.378 424 340.334C424.014 341.363 423.576 342.737 422.55 342.636C418.866 344.93 414.87 346.725 410.708 347.956C409.686 348.258 408.789 346.945 409.044 345.911C409.298 344.878 410.219 344.166 411.08 343.54C413.369 341.875 415.658 340.21 417.946 338.545Z" fill="#FFB61D"/>
<path fill-rule="evenodd" clip-rule="evenodd" d="M426.817 370.262C426.091 370.496 425.42 370.892 424.673 371.046C422.074 371.583 419.709 368.725 420.029 366.131C420.35 363.536 422.546 361.507 424.946 360.387C427.345 359.268 430.008 358.834 432.522 357.994C433.482 357.674 434.486 357.242 435.012 356.389C435.435 355.705 435.478 354.864 435.474 354.063C435.457 350.979 434.917 347.899 433.882 344.988C434.451 343.544 436.806 343.793 437.758 345.026C438.71 346.259 438.753 347.922 439.043 349.444C439.81 353.468 442.461 356.846 444.494 360.418C446.527 363.99 447.977 368.409 446.196 372.109C445.857 372.814 445.401 373.476 444.791 373.975C442.302 376.014 438.533 374.657 435.782 372.977C433.03 371.297 429.894 369.271 426.817 370.262M438.983 364.838C437.891 365.081 437.43 366.48 437.792 367.523C438.154 368.566 439.063 369.316 439.933 370.011C441.037 370.894 442.867 369.731 442.93 368.333C442.992 366.934 441.845 365.733 440.563 365.127C440.071 364.895 439.516 364.72 438.983 364.838ZM427.623 365.709C428.119 366.021 428.778 365.796 429.28 365.492C429.869 365.136 430.394 364.68 430.827 364.149C430.003 363.758 429.076 363.359 428.204 363.631C427.333 363.902 426.852 365.225 427.623 365.709L427.623 365.709Z" fill="#FFB61D"/>
</svg>
