<svg width="750" height="750" viewBox="0 0 750 750" fill="none" xmlns="http://www.w3.org/2000/svg">
<rect width="750" height="750" fill="none"/>
<path fill-rule="evenodd" clip-rule="evenodd" d="M609.155 521.814C751.34 339.175 729.36 201.575 414.952 157.416C100.543 113.257 38.7363 413.742 70.0766 459.028C101.417 504.314 466.97 704.453 609.155 521.814Z" />
<path fill-rule="evenodd" clip-rule="evenodd" d="M487.174 302.211C482.897 306.637 478.651 311.107 474.135 315.28C471.029 318.15 467.705 320.919 464.076 323.049C460.734 325.01 456.967 326.592 453.186 327.383C448.887 328.283 454.68 385.011 423.506 405.516C412.629 412.67 370.068 409.537 363.612 404.094C362.47 403.132 365.62 391.457 365.34 386.754C365.232 384.938 364.439 383.08 363.612 381.414C362.89 379.958 361.482 379.737 359.881 380.339C355.888 381.839 351.806 383.113 347.86 384.724C346.363 385.335 345.189 386.696 343.784 387.584C341.015 389.333 338.23 391.068 335.354 392.628C334.7 392.983 333.649 392.605 332.78 392.564C333.224 391.923 333.537 388.904 329.27 391.141C321.001 395.476 314.859 402.093 309.554 409.537C306.189 414.259 303.194 419.247 300.079 424.145C299.915 424.402 294.006 433.136 290.686 432.418C288.573 431.96 289.407 421.141 287.309 422.961C279.229 429.971 262.542 435.926 261.307 435.293C259.199 434.212 259.011 431.362 260.056 429.404C262.249 425.297 264.468 421.046 267.508 417.585C272.599 411.786 278.178 406.384 283.846 401.132C292.186 393.406 300.647 385.796 309.339 378.471C312.95 375.429 317.276 373.228 321.321 370.715C321.746 370.451 322.473 370.671 323.06 370.666C322.929 371.05 322.722 371.613 322.44 372.356C325.617 372.71 326.29 371.341 324.461 368.248C323.053 365.867 321.612 363.489 322.07 360.678C322.621 357.302 325.869 354.766 329.612 354.678C331.537 354.633 333.47 355.15 335.407 355.314C336.276 355.387 337.393 355.541 338.009 355.107C344.098 350.82 349.891 346.075 356.19 342.135C363.968 337.27 371.952 332.638 380.222 328.692C385.65 326.101 391.733 324.873 397.543 323.104C398.707 322.749 400.014 322.856 401.164 322.475C401.942 322.216 402.897 321.618 403.19 320.926C404.567 317.673 407.088 315.91 410.263 314.727C411.116 314.408 412.086 313.621 412.417 312.81C414.733 307.127 416.917 301.39 419.04 295.632C419.136 295.373 418.17 294.307 417.827 294.366C414.839 294.88 412.286 294.645 410.907 291.409C410.795 291.146 410.147 291.075 409.733 290.982C404.325 289.767 402.176 283.585 405.583 279.238C405.969 278.747 406.106 277.498 405.768 277.092C403.298 274.125 403.122 270.524 403.786 267.205C404.226 265.004 406.213 263.024 407.771 261.167C408.787 259.955 409.216 259.263 408.321 257.615C407.225 255.594 405.841 253.685 406.257 250.849C407.093 245.141 408.161 244.082 414.391 242.344C416.098 241.868 416.681 241.277 416.945 239.561C418.232 231.173 420.196 228.055 428.734 225.657C431.626 224.845 434.37 225.028 437.195 226.178C438.083 226.54 439.641 226.061 440.541 225.45C444.073 223.047 447.628 221.459 452.073 222.799C453.127 223.117 454.695 222.501 455.762 221.868C459.895 219.419 464.13 218.267 468.794 220.138C469.505 220.423 470.137 220.903 470.844 221.202C472.256 221.799 473.672 222.736 475.128 222.821C480.002 223.105 483.86 224.6 485.607 229.656C485.787 230.178 487.037 230.388 487.825 230.631C489.711 231.211 491.727 231.489 493.49 232.316C496.61 233.779 497.059 235.384 496.08 238.746C495.684 240.106 494.788 241.68 497.745 241.834C500.649 241.986 501.715 244.009 502.224 247.125C502.411 248.275 503.392 249.721 504.412 250.235C508.497 252.291 509.019 253.108 508.239 257.856C508.137 258.473 508.2 259.137 508.296 259.763C508.613 261.837 509.182 263.894 509.284 265.975C509.451 269.412 509.329 272.863 509.329 276.585C508.097 281.399 499.641 287.468 493.49 293.453C490.405 296.455 488.251 301.097 487.174 302.211Z" fill="white"/>
<path d="M472.5 306C474.985 306 477 304.209 477 302C477 299.791 474.985 298 472.5 298C470.015 298 468 299.791 468 302C468 304.209 470.015 306 472.5 306Z" fill="#FFB61D"/>
<path d="M437.5 295C439.985 295 442 293.433 442 291.5C442 289.567 439.985 288 437.5 288C435.015 288 433 289.567 433 291.5C433 293.433 435.015 295 437.5 295Z" fill="#FFB61D"/>
<path fill-rule="evenodd" clip-rule="evenodd" d="M504.348 374.995C505.025 374.295 505.6 373.161 506.397 372.974C509.032 372.354 511.501 373.344 513.055 375.364C515.039 377.943 516.846 380.789 518.006 383.799C518.296 384.551 517.661 386.048 516.101 388.29C517.795 389.362 518.822 390.042 519.182 390.329C522.958 393.345 526.645 396.479 530.269 399.677C533.135 402.205 535.868 404.883 538.67 407.483C538.958 407.751 539.317 407.943 539.643 408.171C539.87 407.712 540.311 407.242 540.289 406.795C540.189 404.806 539.81 402.824 539.812 400.839C539.815 398.794 540.385 396.737 540.284 394.706C539.826 385.521 539.124 376.348 538.704 367.162C538.484 362.372 540.997 359.155 545.531 357.379C551.082 355.205 556.786 353.869 562.749 353.5C570.182 353.039 577.611 351.91 585.03 352.003C592.481 352.096 599.917 353.349 607.362 354.07C611.449 354.466 615.542 354.811 619.632 355.183C627.721 355.919 635.823 356.544 643.886 357.502C645.331 357.674 646.964 358.965 647.902 360.2C650.697 363.88 651.963 368.092 652.234 372.809C652.531 377.972 653.653 383.083 654.328 388.228C654.63 390.535 654.791 392.866 654.888 395.192C655.288 404.816 655.996 414.447 655.861 424.065C655.791 429.052 654.232 434.024 653.273 438.988C652.745 441.716 650.595 442.769 648.197 443.153C643.928 443.837 639.615 444.25 635.332 444.858C609.614 448.51 583.736 446.472 557.933 447.118C546.91 447.395 536.973 444.468 527.476 439.049C522.664 436.303 518.654 433.13 517.365 427.605C516.756 424.993 516.152 421.993 518.665 419.813C519.324 419.24 520.384 419.068 521.295 418.879C521.613 418.814 522.036 419.254 522.41 419.463C522.219 419.789 522.102 420.208 521.826 420.426C519.818 422.012 520.044 423.363 521.865 425.069C526.713 429.611 532.755 432.04 538.572 434.884C539.108 435.146 539.654 435.396 540.215 435.592C540.574 435.717 541.167 435.915 541.311 435.76C541.608 435.441 541.797 434.909 541.805 434.461C541.813 433.966 541.376 433.43 541.462 432.975C542.221 428.99 539.882 427.52 536.707 425.858C527.661 421.121 518.863 415.909 509.962 410.894C507.801 409.675 505.585 409.007 503.179 410.292C502.813 410.487 502.327 410.523 501.897 410.523C491.196 410.535 480.493 410.672 469.796 410.487C461.735 410.348 453.684 409.684 445.623 409.453C435.187 409.155 418.522 406.479 421.614 406.653C422.164 406.684 422.804 406.821 423.244 406.597C423.639 406.396 423.816 405.766 424.089 405.326C423.683 405.217 423.189 404.9 422.886 405.03C420.35 406.118 420.895 404.984 421.145 403.148C421.853 397.96 422.381 392.841 420.932 387.515C419.796 383.336 420.991 378.872 422.535 374.731C424.083 370.576 425.706 366.448 427.187 362.27C427.46 361.501 427.21 360.547 427.202 359.679C426.561 360.09 425.937 360.53 425.275 360.904C424.522 361.328 423.736 361.693 422.964 362.083C422.97 361.127 422.69 360.051 423.029 359.233C425.183 354.037 427.538 348.924 429.666 343.717C430.087 342.688 429.832 341.373 429.846 340.189C429.858 339.137 429.564 338.017 429.83 337.042C430.898 333.133 433.245 332.054 437.317 333.241C441.255 334.388 442.725 336.415 446.755 333.588C447.411 333.128 448.2 332.678 448.568 332.022C449.418 330.507 450.555 328.893 452.228 329.852C453.532 330.6 454.806 332.472 454.935 333.946C455.13 336.185 456.038 336.428 457.847 336.386C464.822 336.226 470.372 339.676 475.49 343.836C479.486 347.084 483.359 350.529 486.956 354.21C491.633 358.994 505.009 375.217 504.348 374.995Z" fill="white"/>
<path fill-rule="evenodd" clip-rule="evenodd" d="M606.371 384.25L606.826 384.303C607.474 384.379 608.003 383.875 608.008 383.176C608.012 382.478 607.494 381.851 606.85 381.775L606.397 381.722C605.05 381.563 603.803 381.937 602.818 382.687C602.153 380.422 600.279 378.628 598.04 378.363L594.969 378L594.807 382.084C594.683 385.176 596.948 387.965 599.854 388.3L600.624 388.389L600.561 390.943C599.695 390.2 598.639 389.7 597.491 389.568C594.469 389.221 591.89 391.544 591.743 394.747C591.726 395.112 591.741 395.473 591.786 395.828C589.219 396.083 587.169 398.212 587.01 401.016C586.851 403.819 588.684 406.382 591.265 407.211C591.186 407.552 591.137 407.906 591.12 408.271C590.991 411.074 592.88 413.637 595.509 414.466C595.433 414.807 595.387 415.16 595.374 415.526C595.261 418.729 597.822 421.618 601.083 421.966C604.344 422.313 607.019 419.99 607.045 416.787C607.048 416.421 607.018 416.061 606.957 415.706C609.609 415.451 611.601 413.322 611.594 410.518C611.593 410.153 611.56 409.792 611.496 409.437C614.101 409.183 616.036 407.053 616 404.25C615.963 401.446 614.014 398.883 611.471 398.054C611.532 397.713 611.562 397.36 611.561 396.995C611.554 393.791 609.089 390.902 606.067 390.555C604.919 390.423 603.847 390.677 602.952 391.217L603.024 387.399C603.061 385.452 604.562 384.039 606.371 384.25ZM597.002 381.537L597.061 380L597.907 380.088C599.659 380.27 601.046 381.784 600.999 383.463L600.956 385L600.1 384.912C598.328 384.73 596.938 383.216 597.002 381.537ZM608 396.401C607.999 396.774 607.934 397.122 607.811 397.441C606.678 397.616 605.686 398.176 604.967 399C604.268 398.02 603.291 397.244 602.165 396.82C602.05 396.474 601.993 396.112 602.001 395.739C602.033 394.056 603.394 392.835 605.035 393.018C606.676 393.201 608.006 394.718 608 396.401ZM600.933 404.982C599.267 404.804 597.951 403.321 598.001 401.676C598.052 400.032 599.427 398.839 601.068 399.018C602.708 399.196 604.024 400.679 604 402.324C603.976 403.968 602.6 405.161 600.933 404.982ZM598.103 391.018C599.742 391.201 601.042 392.718 600.999 394.401C600.989 394.781 600.919 395.124 600.788 395.441C599.649 395.616 598.643 396.176 597.903 397C597.224 396.02 596.263 395.244 595.145 394.82C595.036 394.473 594.987 394.111 595.003 393.739C595.072 392.056 596.463 390.835 598.103 391.018ZM590.004 400.676C590.09 399.032 591.494 397.839 593.134 398.018C594.773 398.196 596.058 399.679 595.998 401.324C595.938 402.968 594.534 404.161 592.868 403.982C591.203 403.804 589.918 402.321 590.004 400.676ZM593.23 406.559C594.364 406.384 595.365 405.824 596.095 405C596.768 405.979 597.725 406.756 598.841 407.18C598.954 407.527 599.008 407.888 598.999 408.261C598.958 409.944 597.568 411.165 595.902 410.982C594.236 410.799 592.935 409.282 593.003 407.599C593.017 407.227 593.095 406.879 593.23 406.559ZM598.001 415.599C598.012 415.225 598.085 414.878 598.216 414.559C599.348 414.384 600.342 413.824 601.063 413C601.746 413.979 602.711 414.756 603.83 415.18C603.947 415.527 604.005 415.889 604 416.261C603.977 417.944 602.602 419.165 600.935 418.982C599.269 418.799 597.953 417.282 598.001 415.599ZM604.966 412.982C603.299 412.799 601.969 411.282 602.001 409.599C602.008 409.219 602.075 408.876 602.203 408.559C603.333 408.384 604.32 407.824 605.033 407C605.725 407.979 606.697 408.756 607.819 409.18C607.939 409.527 608.001 409.889 608 410.261C607.994 411.944 606.633 413.165 604.966 412.982ZM609.998 405.982C608.331 405.804 606.986 404.321 607 402.676C607.014 401.032 608.361 399.839 610.002 400.018C611.643 400.196 612.988 401.679 613 403.324C613.012 404.968 611.666 406.161 609.998 405.982Z" fill="#FFB61D"/>
<path fill-rule="evenodd" clip-rule="evenodd" d="M134.095 504.074C128.773 503.341 123.466 502.472 118.128 501.894C111.731 501.201 105.283 500.949 98.9041 500.136C94.219 499.538 89.4944 498.932 85.4679 495.828C82.0722 493.21 81.4322 489.413 84.4813 486.423C86.0898 484.845 87.8063 483.371 89.5443 481.936C89.9564 481.595 90.651 481.597 91.2156 481.441C91.1421 481.648 126.83 418.786 161.133 413.933C195.436 409.08 312.075 418.967 310.207 418.788C309.394 418.71 308.636 418.048 307.853 417.655C308.701 417.126 309.553 416.133 310.397 416.139C319.177 416.208 327.955 416.584 336.733 416.581C345.881 416.578 355.028 416.105 364.176 416.108C373.692 416.111 383.215 416.28 392.723 416.673C399.699 416.962 406.662 417.663 413.62 418.3C420.793 418.956 427.95 419.783 435.119 420.489C442.11 421.176 447.922 428.967 445.039 435.308C443.726 438.197 441.551 440.702 439.704 443.338C435.442 449.419 431.078 455.43 426.874 461.551C422.15 468.43 417.178 475.179 413.011 482.387C408.804 489.664 402.795 495.252 397.223 501.273C393.54 505.252 389.427 508.837 385.785 512.851C382.402 516.578 377.999 517.812 373.408 518.394C368.066 519.072 362.653 519.187 357.273 519.578C352.536 519.923 347.79 520.719 343.068 520.589C335.079 520.368 327.102 519.622 319.127 519.004C312.985 518.529 306.849 517.971 300.721 517.344C294.194 516.676 287.681 515.87 281.159 515.153C279.027 514.919 276.888 514.732 274.747 514.602C271.136 514.381 267.523 514.152 263.908 514.053C255.592 513.823 247.273 513.698 238.956 513.473C234.603 513.355 230.252 513.151 225.903 512.923C219.505 512.586 213.102 512.303 206.717 511.796C198.896 511.176 191.095 510.304 183.279 509.626C178.089 509.175 172.877 508.967 167.692 508.474C163.385 508.064 159.102 507.396 154.532 506.843C147.535 505.92 140.814 505 134.095 504.074Z" fill="white"/>
<path fill-rule="evenodd" clip-rule="evenodd" d="M192.724 236.732C192.54 233.58 192.175 230.703 192.205 227.83C192.289 220.034 194.912 186.309 195.158 178.516C195.179 177.83 279.989 177.395 280.479 176.976C280.846 176.663 281.397 176.492 281.891 176.414C288.316 175.401 294.691 174.933 301.191 176.308C305.269 177.17 309.536 177.139 313.718 177.507C320.037 178.061 326.367 178.521 332.672 179.208C335.672 179.535 337.317 182.623 337.236 186.4C337.178 189.117 337.499 191.849 337.758 194.564C338.061 197.738 338.622 200.892 338.821 204.071C339.28 211.383 339.526 218.709 339.988 226.021C340.16 228.74 341.108 231.457 340.973 234.138C340.729 238.994 339.948 243.823 339.37 248.661C339.034 251.466 338.4 254.262 338.345 257.07C338.2 264.538 338.363 272.012 338.272 279.482C338.213 284.388 338.149 289.312 337.677 294.189C337.249 298.617 336.155 302.977 335.589 307.398C335.393 308.933 336.078 310.561 336.049 312.141C335.953 317.323 335.569 322.504 335.593 327.684C335.604 330.058 333.559 330.523 332.52 330.633C327.763 331.136 323.274 332.987 318.294 332.602C310.379 331.991 302.407 332.06 294.458 331.969C291.862 331.939 289.249 332.566 286.666 332.441C277.758 332.011 268.859 331.391 259.958 330.821C257.818 330.684 255.685 330.329 253.546 330.295C239.234 330.071 224.916 330.081 210.613 329.625C205.637 329.467 200.631 328.712 196.169 325.801C192.675 323.522 190.873 320.271 190.615 316.516C190.083 308.777 189.927 300.994 190.018 293.234C190.107 285.636 190.634 278.04 191.091 270.45C191.299 266.996 191.985 263.567 192.125 260.114C192.31 255.57 192.103 251.012 192.194 246.463C192.257 243.309 192.54 240.16 192.724 236.732Z" fill="white"/>
<path fill-rule="evenodd" clip-rule="evenodd" d="M364.176 416.108C373.692 416.111 383.215 416.28 392.723 416.673C399.699 416.962 406.662 417.663 413.62 418.3C420.793 418.956 427.95 419.783 435.119 420.489C442.11 421.176 447.922 428.967 445.039 435.308C443.726 438.197 441.551 440.702 439.704 443.338C435.442 449.419 431.078 455.43 426.874 461.551C422.15 468.43 417.178 475.179 413.011 482.387C408.804 489.664 402.795 495.252 397.223 501.273C393.54 505.252 389.427 508.837 385.785 512.851C382.402 516.578 377.999 517.812 373.408 518.394C368.066 519.072 362.653 519.187 357.273 519.578C352.536 519.923 347.79 520.719 343.068 520.589C335.079 520.368 327.102 519.622 319.127 519.004C312.985 518.529 306.849 517.971 300.721 517.344C294.194 516.676 287.681 515.87 281.159 515.153C279.027 514.919 276.888 514.732 274.747 514.602C271.136 514.381 267.523 514.152 263.908 514.053C255.592 513.823 247.273 513.698 238.956 513.473C234.603 513.355 230.252 513.151 225.903 512.923C219.505 512.586 213.102 512.303 206.717 511.796C198.896 511.176 191.095 510.304 183.279 509.626C178.089 509.175 172.877 508.967 167.692 508.474C163.385 508.064 159.102 507.396 154.532 506.843C147.535 505.92 140.814 505.001 134.095 504.074C128.773 503.341 123.466 502.472 118.128 501.894C111.731 501.201 105.283 500.949 98.9041 500.136L97.997 500.019C93.6122 499.449 89.2346 498.732 85.4679 495.828C82.0721 493.21 81.4322 489.413 84.4813 486.423C86.0898 484.845 87.8063 483.371 89.5443 481.936C89.9564 481.596 90.651 481.597 91.2156 481.441C91.0341 481.952 90.9845 482.583 90.6479 482.952C89.2973 484.434 87.6733 485.698 86.4905 487.295C84.2333 490.342 84.8151 493.087 88.3897 494.577C91.6139 495.92 95.1011 496.869 98.562 497.361C106.634 498.509 114.764 499.245 122.862 500.212C128.559 500.892 134.238 501.717 139.935 502.4C143.647 502.846 147.37 503.244 151.099 503.487C153.285 503.629 154.574 501.646 153.666 499.635C149.744 490.95 140.516 483.59 129.402 485.35C123.655 486.26 119.54 489.969 116.854 495.202C116.432 496.024 115.48 496.574 114.773 497.25C114.742 496.124 114.285 494.77 114.748 493.909C118.252 487.383 123.518 483.235 131.107 482.483C131.536 482.44 132.211 482.447 132.341 482.202C133.626 479.781 136.404 478.237 136.297 474.976C136.123 469.71 138.418 465.923 143.228 463.5C144.54 462.839 145.657 461.301 146.31 459.907C148.659 454.888 152.196 451.696 157.948 451.504C159.158 451.464 160.372 451.581 161.585 451.626C160.409 452.343 159.287 453.176 158.045 453.751C156.27 454.573 154.267 454.976 152.616 455.978C150.508 457.256 148.775 458.963 149.478 461.932C149.588 462.395 148.858 463.272 148.305 463.635C146.437 464.861 144.475 465.945 142.544 467.076C139.381 468.93 139.104 472.24 138.543 475.32C138.343 476.416 138.645 477.38 140.451 476.476C143.944 474.729 147.62 476.551 150.203 479.806C152.208 482.332 153.952 484.888 154.635 487.954C155.037 489.753 154.746 491.761 154.476 493.634C154.312 494.768 155.76 499.328 156.812 499.352C157.694 499.372 158.661 498.785 159.47 498.275C162.8 496.178 166.236 495.122 170.22 496.265C171.557 496.649 173.272 496.906 174.387 495.538C176.76 492.625 179.998 492.332 183.357 492.477C185.005 492.548 185.415 491.584 186.418 490.478C189.077 487.549 187.029 486.599 185.146 485.082C184.127 484.261 183.291 483.129 182.632 481.987C182.352 481.502 182.738 480.632 182.821 479.937C183.267 480.238 183.781 480.473 184.147 480.851C186.894 483.692 189.905 485.971 194.037 486.439C194.764 486.521 195.379 487.6 196.045 488.218C195.239 488.362 194.388 488.745 193.635 488.604C191.468 488.198 187.795 490.55 187.844 492.746C187.863 493.584 188.877 494.847 189.708 495.136C192.459 496.093 194.372 497.833 195.439 500.439C195.771 501.25 195.476 502.318 195.467 503.269C194.815 502.785 193.982 502.428 193.54 501.797C190.36 497.263 186.06 495.016 180.519 495.241C179.852 495.268 179.145 495.49 178.548 495.799C177.869 496.15 177.293 496.7 176.672 497.164C177.282 497.438 178.015 497.579 178.482 498.009C181.051 500.368 183.548 502.806 186.086 505.2C186.89 505.959 187.676 507.188 188.587 507.307C192.928 507.875 197.305 508.199 201.677 508.488C208.161 508.916 214.653 509.231 221.141 509.615C223.741 509.769 226.335 510.062 228.937 510.148C235.962 510.379 242.989 510.514 250.014 510.724C255.104 510.876 260.207 510.906 265.278 511.314C272.273 511.878 279.243 512.754 286.226 513.48C288.268 513.693 290.313 513.889 292.361 514.032C297.926 514.42 303.505 514.648 309.055 515.183C314.234 515.682 319.377 516.55 324.549 517.143C326.565 517.374 328.616 517.295 330.65 517.36C336.385 517.543 342.119 517.787 347.855 517.879C349.712 517.909 351.603 517.672 353.421 517.285C354.009 517.16 354.748 516.219 354.849 515.563C355.805 509.38 359.204 505.214 364.993 502.985C366.608 502.363 367.206 501.876 366.64 499.743C364.924 493.276 357.777 489.564 352.264 489.162C347.52 488.816 342.882 489.301 338.991 492.47C338.069 493.22 337.348 494.211 336.503 495.061C336.085 495.482 335.597 495.832 335.14 496.215C334.901 495.576 334.266 494.662 334.488 494.345C335.631 492.707 336.702 490.72 338.332 489.775C344.036 486.469 350.15 485.107 356.645 487.471C358.029 487.974 358.927 487.882 358.792 486.022C358.578 483.068 359.651 480.563 361.503 478.275C361.862 477.832 361.779 476.608 361.417 476.069C356.906 469.361 350.432 466.144 342.469 465.918C338.861 465.816 335.02 465.161 332.138 468.38C332.047 468.481 331.162 468.158 331.15 467.996C331.088 467.161 330.919 465.737 331.282 465.565C333.354 464.585 335.538 463.336 337.738 463.22C344.763 462.851 351.638 463.816 357.49 468.151C359.45 469.604 361.141 471.542 362.589 473.526C363.804 475.19 364.449 475.703 366.606 474.537C372.603 471.294 379.066 471.133 385.525 473.158C386.195 473.368 386.52 474.679 387.004 475.479C386.212 475.454 385.361 475.609 384.635 475.377C377.909 473.227 371.521 474.58 365.599 477.771C362.783 479.288 361.576 482.481 360.951 485.731C360.526 487.944 360.935 489.215 363.057 490.544C366.173 492.496 368.132 495.719 369.239 499.244C369.804 501.044 370.883 501.586 372.444 501.281C377.987 500.2 382.885 501.849 387.406 504.821C389.22 506.015 390.339 505.711 391.66 504.168C394.652 500.67 397.654 497.168 400.862 493.872C404.961 489.66 408.348 485.005 411.448 479.996C416.208 472.305 421.534 464.963 426.671 457.508C429.35 453.62 432.184 449.837 434.795 445.906C435.01 445.584 434.223 444.064 433.611 443.815C430.925 442.725 428.191 441.588 425.364 441.048C421.034 440.22 416.624 439.747 412.227 439.343C405.087 438.686 397.924 438.273 390.782 437.636C383.424 436.98 376.085 436.123 368.727 435.464C365.127 435.142 361.505 435.03 357.89 434.896C351.972 434.677 346.052 434.509 340.133 434.336C333.476 434.141 326.814 434.054 320.163 433.748C315.88 433.55 311.607 433.086 307.343 432.623C306.738 432.557 306.205 431.821 305.639 431.395C306.227 431.083 306.819 430.493 307.403 430.5C316.828 430.626 326.253 430.799 335.676 431.031C338.37 431.097 341.055 431.463 343.749 431.55C350.866 431.781 358.006 431.657 365.098 432.193C373.042 432.794 380.937 434.01 388.864 434.864C391.909 435.191 394.991 435.157 398.039 435.458C409.19 436.559 420.497 436.529 431.343 439.89C432.554 440.266 434.002 440.659 434.762 441.541C436.186 443.193 437.027 442.44 437.92 441.241C439.434 439.206 440.854 437.102 442.361 435.061C445.339 431.024 440.024 423.325 435.205 423.142C428.482 422.886 421.797 421.736 415.085 421.067C410.451 420.605 405.806 420.132 401.155 419.98C391.642 419.67 382.123 419.555 372.607 419.393C360.6 419.19 348.593 418.936 336.586 418.872C330.944 418.842 325.302 419.301 319.658 419.351C316.508 419.378 313.348 419.089 310.207 418.788C309.394 418.71 308.636 418.048 307.853 417.655C308.701 417.126 309.553 416.133 310.397 416.139C319.177 416.208 327.955 416.584 336.733 416.581C345.881 416.578 355.028 416.106 364.176 416.108ZM357.669 513.762C357.533 518.156 357.973 517.35 361.469 517.33C362.96 517.321 364.446 516.868 365.94 516.826C373.888 516.601 381.17 514.659 386.91 508.772C387.171 508.505 386.879 507.101 386.5 506.91C384.453 505.876 382.365 504.799 380.165 504.214C372.415 502.153 361.058 504.304 357.669 513.762ZM279.43 454.316C281.633 454.914 283.664 456.128 285.851 456.811C286.817 457.113 288.246 457.171 289.013 456.661C293.136 453.919 297.289 454.559 301.607 455.979C302.956 456.422 304.505 456.211 305.92 456.504C307.509 456.832 309.312 457.033 310.548 457.937C312.179 459.132 313.312 460.993 314.738 462.492C315.333 463.119 316.068 463.867 316.847 464.025C324.447 465.568 327.379 471.163 328.856 477.889C330.361 484.745 330.804 491.651 328.908 498.546C328.743 499.147 328.886 499.832 328.886 500.754C328.333 503.844 327.812 506.665 327.211 509.468C326.942 510.721 326.747 512.096 326.072 513.123C325.586 513.863 324.362 514.12 323.467 514.592C323.32 514.239 322.978 513.835 323.055 513.542C324.041 509.808 325.246 506.125 326.073 502.358C326.842 498.854 327.348 495.28 327.735 491.711C327.975 489.492 327.985 487.203 327.73 484.988C327.372 481.876 326.719 478.793 326.108 475.715C325.267 471.48 319.009 466.149 315.253 466.451C313.832 466.565 312.636 466.625 314.089 468.668C315.183 470.206 315.536 472.288 316.112 474.161C316.2 474.447 315.705 474.911 315.479 475.293C315.149 475.014 314.747 474.788 314.502 474.449C312.912 472.255 312.483 469.219 309.638 467.933C305.73 466.167 301.922 464.433 297.371 465.814C294.492 466.689 293.244 468.255 293.456 471.157C293.496 471.707 293.599 472.312 293.424 472.803C293.241 473.319 292.76 473.729 292.409 474.186C292.022 473.765 291.414 473.397 291.298 472.912C291.111 472.127 291.248 471.265 291.248 470.435C291.248 462.93 285.055 456.827 277.552 457.081C276.607 457.113 275.692 457.883 274.755 458.293C274.309 458.489 273.844 458.643 273.388 458.816C273.378 458.187 273.107 457.367 273.403 456.959C274.87 454.939 276.881 453.624 279.43 454.316ZM310.65 488.824C311.185 488.926 311.776 488.917 312.244 489.153C313.394 489.731 314.487 490.422 315.741 491.206C317.791 494.33 319.266 497.182 317.438 500.998C315.865 504.282 315.08 507.951 314.069 511.485C313.918 512.012 314.307 512.833 314.693 513.323C314.948 513.647 315.646 513.621 316.145 513.751C315.546 513.847 314.949 514.016 314.349 514.026C311.521 514.073 310.828 513.199 311.745 510.552C312.777 507.573 314.031 504.669 315.028 501.679C316.502 497.259 315.752 494.965 312.161 492.042C311.663 491.637 311.091 491.208 310.83 490.659C310.581 490.137 310.696 489.443 310.65 488.824ZM261.679 422.2C261.443 422.591 261.294 423.093 260.959 423.357C256.452 426.902 257.177 431.799 257.762 436.491C258.577 443.015 262.298 448.11 266.728 452.671C272.296 458.403 277.906 464.102 283.693 469.61C288.713 474.388 293.944 478.951 299.216 483.453C300.686 484.708 302.626 485.412 304.356 486.36C304.729 486.565 305.247 486.634 305.485 486.934C306.286 487.943 306.99 489.027 307.732 490.082C306.787 489.795 305.852 489.469 304.896 489.226C299.72 487.909 295.744 484.535 291.951 481.139C284.679 474.63 277.465 468.016 270.728 460.966C265.907 455.922 261.699 450.245 257.611 444.567C255.24 441.271 254.945 437.162 255.259 433.109C255.295 432.644 255.171 432.166 255.121 431.694C254.617 431.937 253.904 432.044 253.643 432.446C251.427 435.849 249.506 439.465 247.072 442.698C244.895 445.587 242.19 448.08 239.696 450.728C238.696 451.79 237.333 452.631 236.663 453.861C234.785 457.303 233.233 460.922 231.457 464.422C229.113 469.038 230.927 473.291 232.782 477.351C236.111 484.637 239.646 491.909 244.842 498.05C247.957 501.732 251.948 504.672 255.543 507.948C256.013 508.377 256.468 508.823 256.931 509.261C256.347 509.378 255.756 509.624 255.182 509.586C253.379 509.467 251.581 509.25 249.784 509.044C249.599 509.022 249.323 508.85 249.279 508.694C247.518 502.478 244.076 500.881 237.701 503.771C235.679 504.687 234.075 506.532 232.292 507.967C231.935 508.255 231.677 508.82 231.301 508.897C230.527 509.053 229.704 508.966 228.9 508.979C229.224 508.338 229.446 507.613 229.889 507.069C232.794 503.51 236.398 501.185 241.092 500.721C242.074 500.624 243.574 500.871 242.093 498.782C238.38 493.545 237.42 493.002 231.46 494.963C230.246 495.362 229.067 495.869 227.733 496.326C227.08 496.142 226.553 495.984 226.056 495.759C225.871 495.675 225.756 495.436 225.609 495.267C228.209 494.221 227.271 491.608 227.413 489.94C227.686 486.751 229.491 484.479 230.693 481.831C230.984 481.192 231.065 480.302 230.88 479.627C230.04 476.574 228.742 473.612 228.221 470.515C227.324 465.175 230.22 460.795 232.466 456.267C234.558 452.047 237.743 448.908 241.159 445.739C244.286 442.838 246.545 439.002 249.18 435.573C249.93 434.597 250.658 433.603 251.396 432.618C250.217 432.452 249.035 432.301 247.859 432.115C246.826 431.952 245.799 431.595 244.768 431.59C235.085 431.549 225.395 431.782 215.72 431.505C206.166 431.231 196.62 430.541 187.084 429.849C184.612 429.67 182.175 428.853 179.756 428.203C179.209 428.057 178.803 427.386 178.333 426.957C178.924 426.648 179.546 426.029 180.101 426.085C182.543 426.329 184.956 426.85 187.396 427.125C206.208 429.243 225.099 428.781 243.975 428.823C246.482 428.829 248.996 429.091 251.49 429.377C253.336 429.589 254.232 428.712 255.003 427.184C255.817 425.57 256.813 424.013 257.953 422.613C258.425 422.033 259.455 421.808 260.275 421.652C260.693 421.572 261.208 422.001 261.679 422.2ZM324.101 484.149C324.404 484.729 324.83 485.276 324.993 485.893C326.424 491.323 324.992 496.609 324.123 501.922C323.854 503.565 323.678 505.227 323.321 506.849C323.15 507.622 322.652 508.323 322.302 509.057C321.914 508.269 321.115 507.429 321.209 506.704C321.589 503.778 322.277 500.893 322.777 497.98C322.915 497.175 322.798 496.325 322.798 495.219C322.798 492.086 322.708 489.225 322.858 486.376C322.897 485.614 323.666 484.89 324.101 484.149ZM227.456 496.326L226.979 496.732C223.636 499.574 220.356 502.525 220.347 507.613C220.347 507.911 219.573 508.489 219.197 508.46C215.353 508.162 211.518 507.767 207.68 507.392C207.335 507.359 206.995 507.272 206.652 507.21C207.001 507.088 207.342 506.918 207.702 506.85C210.693 506.284 213.694 505.768 216.676 505.159C217.394 505.012 218.053 504.573 218.739 504.268C218.155 503.897 217.532 503.161 216.996 503.219C214.8 503.46 212.589 503.792 210.463 504.379C208.339 504.966 206.34 506 204.222 506.622C203.434 506.853 202.466 506.471 201.58 506.369C202.136 505.695 202.557 504.688 203.269 504.399C208.286 502.359 213.209 499.791 218.977 501.167C219.494 501.29 220.501 500.387 220.915 499.731C222.425 497.334 224.255 495.722 227.456 496.326ZM319.866 499.76C320.106 500.12 320.585 500.513 320.541 500.834C320.368 502.111 320.03 503.366 319.615 504.767C319.348 505.403 319.294 505.939 319.068 506.387C318.872 506.775 318.481 507.064 318.175 507.396C317.899 506.907 317.31 506.349 317.4 505.94C317.802 504.111 318.365 502.313 318.953 500.531C319.059 500.209 319.552 500.014 319.866 499.76ZM164.118 498.691C161.928 499.329 159.771 500.247 157.795 501.379C156.758 501.974 154.92 502.631 156.469 504.629C158.693 504.813 160.916 505.004 163.14 505.18C165.726 505.385 168.315 505.553 170.898 505.78C174.709 506.114 178.512 506.543 182.326 506.807C183.434 506.884 184.175 506.716 183.114 505.161C179.526 499.904 170.822 496.739 164.118 498.691ZM225.868 485.467C225.588 485.976 225.411 486.595 225.008 486.974C223.584 488.313 222.031 489.518 220.639 490.887C220.195 491.325 220.16 492.15 219.834 492.74C219.094 494.075 218.666 495.741 216.371 494.858C214.514 494.144 212.33 496.159 212.134 498.668C212.053 499.71 212.05 500.478 210.575 500.062C209.206 496.853 210.056 493.97 212.758 493.055C215.059 492.277 214.64 491.361 213.328 490.083C212.998 489.763 212.57 489.487 212.378 489.096C212.122 488.574 212.052 487.961 211.903 487.387C212.596 487.397 213.494 487.138 213.937 487.476C214.756 488.1 215.276 489.103 215.985 489.89C216.32 490.26 216.835 490.757 217.215 490.715C217.575 490.675 218.012 490.054 218.161 489.604C219.103 486.757 221.569 485.74 224.009 484.777C224.466 484.596 225.24 485.216 225.868 485.467ZM160.206 478.476C160.621 479.42 161.15 480.231 161.132 481.031C161.034 485.56 160.849 490.088 160.574 494.61C160.532 495.302 159.938 496.016 159.461 496.608C159.159 496.982 158.598 497.149 158.154 497.409C158.054 496.914 157.853 496.416 157.869 495.925L158.027 490.752C158.137 487.304 158.266 483.857 158.477 480.415C158.521 479.692 159.514 479.028 160.206 478.476ZM164.137 426.069C164.691 426.207 165.117 426.859 165.602 427.273C165.027 427.597 164.447 428.21 163.876 428.201C156.935 428.098 151.564 431.382 146.967 436.129C141.013 442.278 135.214 448.578 129.209 454.952C127.116 457.414 125.127 459.711 123.212 462.068C119.24 466.958 115.319 471.89 111.355 476.786C108.23 480.645 104.931 484.373 101.989 488.365C100.542 490.327 99.7473 492.765 98.6137 494.965C98.3553 495.467 97.9156 495.875 97.5593 496.326C97.1776 495.808 96.5426 495.33 96.4552 494.766C95.8889 491.116 98.3634 488.617 100.308 486.178C107.912 476.641 115.645 467.202 123.551 457.914C128.886 451.647 134.457 445.564 140.179 439.647C143.934 435.764 147.863 431.924 152.246 428.815C155.595 426.441 159.731 424.967 164.137 426.069ZM171.027 478.227C171.248 478.688 171.639 479.14 171.664 479.612C171.894 483.954 172.102 488.299 172.2 492.645C172.215 493.312 171.641 493.992 171.34 494.666C170.719 494.019 170.049 493.411 169.505 492.705C169.327 492.474 169.477 491.99 169.477 491.345C169.477 487.752 169.468 484.436 169.485 481.12C169.488 480.5 169.443 479.802 169.706 479.285C169.94 478.827 170.571 478.572 171.027 478.227ZM232.903 483.645C232.794 483.751 232.648 483.838 232.582 483.966C231.835 485.407 231.1 486.855 230.362 488.854C230.362 489.222 230.441 489.613 230.348 489.956C230.039 491.095 229.667 492.217 229.32 493.346C230.336 493.048 231.34 492.697 232.371 492.466C233.479 492.218 234.607 491.974 235.734 491.927C237.048 491.872 237.415 491.786 236.498 490.439C235.204 488.536 234.233 486.413 233.136 484.378C233.016 484.156 232.979 483.89 232.903 483.645ZM138.238 479.232C137.197 479.745 136.544 481.048 135.713 481.988C136.166 482.339 136.586 482.938 137.077 483.004C142.61 483.75 146.676 486.952 150.658 491.068C151.177 491.471 151.696 491.875 152.215 492.278C152.434 491.543 152.938 490.759 152.822 490.081C152.358 487.372 151.727 484.747 149.886 482.485C147.026 478.973 142.054 477.355 138.238 479.232ZM179.682 478.648C179.97 478.951 180.395 479.203 180.525 479.563C181.629 482.608 182.77 485.646 183.68 488.751C183.896 489.491 183.284 490.474 183.053 491.345C182.402 490.728 181.437 490.224 181.165 489.471C180.584 487.858 180.362 486.115 179.855 484.287C179.392 482.902 178.934 481.668 178.804 480.401C178.748 479.852 179.369 479.235 179.682 478.648ZM165.433 382.024C169.466 384.281 171.098 388.851 172.774 393.013C175.525 399.841 175.585 407.059 175.566 414.271C175.56 416.793 175.699 419.324 175.535 421.835C175.267 425.927 174.852 430.012 174.399 434.09C174.218 435.723 173.553 437.318 173.486 438.946C173.287 443.779 171.89 448.932 174.07 453.356C176.357 457.999 179.695 462.192 182.979 466.254C185.59 469.484 184.669 474.919 180.853 476.27C179.061 476.905 176.987 476.945 175.045 476.917C169.124 476.833 163.197 476.721 157.292 476.335C154.82 476.173 152.193 475.695 150.022 474.597C148.587 473.872 147.461 471.919 146.892 470.275C146.351 468.712 147.212 467.391 148.817 466.149C151.772 463.863 154.162 460.862 156.912 458.293C158.714 456.609 160.639 455.019 162.68 453.639C165.794 451.534 166.195 448.202 166.65 445.037C167.585 438.546 168.336 432.018 168.854 425.481C169.082 422.607 168.673 419.657 168.282 416.778C168.19 416.096 167.041 415.091 166.315 415.033C158.484 414.416 151.369 415.994 145.103 421.244C137.187 427.877 129.846 434.997 123.678 443.297C123.41 443.656 122.911 443.843 122.519 444.111C122.305 443.646 121.836 443.123 121.927 442.729C122.133 441.83 122.457 440.875 123.006 440.15C130.705 429.964 139.525 420.915 150.782 414.686C155.476 412.089 160.86 411.871 166.211 412.466C166.703 412.521 167.782 411.747 167.742 411.486C166.96 406.312 167.421 400.914 165.058 396.014C164.764 395.403 164.788 394.526 164.345 394.117C160.966 390.992 157.571 387.875 154.025 384.946C153.182 384.25 151.756 384.064 150.579 384C145.016 383.698 139.48 383.908 134.118 385.641C132.662 386.111 131.154 386.587 129.866 387.379C126.541 389.424 123.212 391.496 120.089 393.83C112.6 399.425 107.993 406.873 106.987 416.217C106.321 422.397 106.401 428.656 105.749 434.838C105.329 438.812 107.268 440.93 109.993 443.314C111.899 444.981 113.453 447.669 113.998 450.156C115.49 456.971 112.996 462.55 107.454 466.805C106.903 467.229 106.543 468.106 106.407 468.831C105.509 473.605 102.514 476.837 98.5033 479.077C97.1469 479.834 95.1518 479.882 93.5362 479.648C90.3358 479.185 87.811 480.198 85.7055 482.429C82.2104 486.132 77.6533 487.885 72.9309 488.976C69.0933 489.863 65.6683 488.145 63.352 485.052C58.8942 479.1 55.5655 472.622 56.0462 464.867C56.1577 463.069 56.7462 461.3 57.1152 459.241C58.6122 453.578 62.7601 452.168 67.6659 452.066C72.2152 451.971 76.7768 451.887 81.3137 452.142C82.6902 452.219 85.0726 453.381 85.115 454.149C85.1962 455.623 83.947 457.178 83.2067 458.678C83.1185 458.857 82.702 458.848 82.541 459.021C82.0223 459.581 81.5519 460.185 81.0628 460.772C81.7986 461 82.5265 461.26 83.2736 461.441C83.6222 461.525 84.0445 461.355 84.3707 461.473C85.8511 462.008 87.5113 461.959 88.2088 464.081C88.8683 466.087 87.7847 466.926 86.7724 468.09C86.2429 468.698 85.9179 469.485 85.5005 470.191C86.2535 470.231 87.0206 470.195 87.7556 470.332C88.5935 470.487 89.4027 470.797 90.2244 471.04C89.9657 471.736 89.7525 472.452 89.4385 473.121C88.8651 474.343 88.2321 475.537 87.624 476.743C89.9253 477.165 92.407 478.352 94.4932 477.861C100.048 476.553 104.599 470.986 104.225 465.307C103.921 460.715 104.8 455.977 104.023 451.5C102.638 443.52 102.846 435.531 103.203 427.59C103.503 420.899 103.238 413.886 106.434 407.682L106.869 406.838C109.984 400.784 113.183 394.706 119.531 391.134C121.87 389.819 124.17 388.368 126.261 386.697C129.923 383.771 134.282 382.667 138.67 381.928C143.926 381.043 149.297 380.26 154.525 382.316C155.237 382.596 156.013 382.912 156.541 383.432C160.072 386.913 164.276 390.002 166.806 394.115C168.913 397.539 169.593 402.147 169.888 406.302C170.253 411.465 170.554 416.56 171.535 421.684C172.16 424.943 171.45 428.514 171.025 431.906C170.493 436.152 169.171 440.343 169.035 444.585C168.838 450.684 165.636 454.641 161.233 458.15C158.158 460.601 155.183 463.179 152.247 465.794C152.102 465.922 152.671 467.407 153.042 467.47C156.003 467.971 159.003 468.236 161.974 468.685C162.664 468.79 163.288 469.327 163.942 469.665C163.257 470.065 162.517 470.879 161.897 470.796C158.351 470.323 154.835 469.628 151.304 469.034C150.873 468.962 150.136 468.894 150.026 469.093C149.767 469.561 149.526 470.45 149.768 470.709C150.609 471.605 151.557 472.733 152.65 472.994C155.294 473.625 158.035 474.051 160.751 474.136C166.127 474.304 171.512 474.176 176.893 474.19C179.154 474.196 181.132 473.675 182.01 471.319C182.788 469.23 181.272 468.047 180.046 466.759C175.661 462.153 171.713 457.135 170.781 450.711C170.233 446.933 170.824 442.955 171.18 439.092C171.542 435.153 172.583 431.258 172.724 427.321C172.983 420.105 172.932 412.869 172.759 405.647C172.592 398.659 170.722 391.957 166.445 386.476C164.449 383.919 160.842 382.499 157.781 380.921C153.619 378.777 149.18 377.232 144.385 377.902C135.662 379.12 127.219 381.559 120.313 387.128C115.918 390.673 111.901 395.001 108.715 399.662C102.929 408.124 97.8632 417.081 92.5482 425.862C88.4457 432.64 84.4348 439.474 80.3464 446.261C79.8022 447.164 79.124 448.028 78.3492 448.736C77.8749 449.17 77.098 449.273 76.4569 449.524C76.4998 448.764 76.2811 447.847 76.6277 447.268C79.0261 443.266 81.6107 439.376 84.0064 435.372C89.3985 426.361 95.0759 417.494 99.946 408.205C103.633 401.174 108.4 394.98 113.698 389.359C120.626 382.008 129.831 378.46 139.684 376.077C149.513 373.7 157.523 377.598 165.433 382.024ZM72.0177 454.286C71.7315 454.29 71.3647 454.62 71.2019 454.897C71.1184 455.039 71.3314 455.53 71.5321 455.639C74.5992 457.308 75.8516 460.207 77.0853 463.263C79.0852 468.217 79.5943 473.09 77.0414 478.337C76.603 478.983 76.1647 479.629 75.7264 480.274C75.5245 479.162 74.8553 477.874 75.1957 476.965C77.6081 470.518 75.242 460.883 69.8802 456.854C68.1315 455.54 66.228 454.41 63.6753 455.101C60.493 455.963 59.1367 460.115 58.7583 463.257C57.9356 470.085 60.2684 476.066 63.812 481.627C65.5127 484.295 67.6043 486.74 71.446 486.393C76.844 485.905 81.1959 483.149 85.4779 480.22C85.7488 480.035 85.7318 478.762 85.4257 478.511C83.7655 477.149 83.9585 476.03 85.5395 474.8C86.8738 473.762 86.7504 473.098 85.0436 472.486C82.2023 471.466 81.8741 469.674 84.0036 467.529C84.5497 466.978 85.4683 466.722 85.8435 466.105C86.1018 465.679 85.933 464.619 85.5607 464.293C85.195 463.974 84.3198 464.302 83.6882 464.209C81.3604 463.867 78.7095 463.263 78.2974 460.762C77.9141 458.435 80.3737 457.433 82.2467 456.455C82.6052 456.268 82.8387 455.842 83.1299 455.526C82.6523 455.104 82.1866 454.333 81.6952 454.316C78.4724 454.207 75.2438 454.244 72.0177 454.286ZM164.966 479.167C165.363 479.758 166.03 480.318 166.102 480.946C166.271 482.424 166.229 483.941 166.101 485.428C166.071 485.77 165.352 486.053 164.949 486.363C164.614 485.895 164.057 485.457 163.987 484.953C163.839 483.873 163.942 482.758 163.942 481.381C164.283 480.459 164.625 479.813 164.966 479.167ZM175.012 479.167C175.75 481.177 176.263 483.177 176.619 485.205C176.676 485.527 176.091 486.111 175.676 486.306C175.465 486.405 174.662 485.916 174.658 485.683C174.618 483.512 174.693 481.339 175.012 479.167ZM468.794 220.138C469.505 220.423 470.137 220.902 470.844 221.201C472.256 221.799 473.672 222.736 475.128 222.821C480.002 223.105 483.86 224.599 485.607 229.655C485.787 230.178 487.037 230.388 487.825 230.631C489.711 231.211 491.727 231.489 493.49 232.316C496.61 233.779 497.059 235.384 496.08 238.745C495.684 240.106 494.788 241.68 497.745 241.834C500.649 241.986 501.716 244.009 502.224 247.125C502.411 248.275 503.392 249.721 504.412 250.235C508.497 252.291 509.019 253.108 508.239 257.856C508.138 258.473 508.2 259.137 508.296 259.762C508.613 261.837 509.182 263.893 509.284 265.975C509.451 269.412 509.329 272.863 509.329 276.584C507.479 283.814 503.159 289.45 496.941 292.147C491.814 294.37 490.397 298.876 487.174 302.211C482.898 306.637 478.651 311.107 474.135 315.28C471.029 318.15 467.705 320.919 464.076 323.048C460.734 325.01 456.967 326.592 453.186 327.383C447.387 328.596 443.362 325.024 439.909 320.891C436.601 316.932 433.316 312.949 430.134 308.887C427.481 305.501 425.005 301.974 422.414 298.538C422.017 298.012 421.422 297.636 420.919 297.19C420.684 297.831 420.355 298.454 420.229 299.115C418.886 306.168 417.152 313.014 410.976 317.655C409.6 318.689 411.031 319.292 411.513 319.56C415.4 321.726 419.459 323.599 423.257 325.904C425.871 327.491 428.167 329.605 430.562 331.537C430.8 331.729 430.904 332.355 430.786 332.675C429.322 336.679 427.885 340.696 426.28 344.644C424.751 348.406 421.823 350.831 418.197 352.503C414.931 354.01 412.175 352.154 411.903 348.301C411.574 343.655 411.412 338.978 410.737 334.379C410.094 330.007 408.235 326.197 403.261 325.271C401.888 325.015 400.381 325.066 399.002 325.326C389.395 327.139 380.373 330.527 371.992 335.594C365.061 339.786 358.022 343.807 351.204 348.174C347.287 350.683 343.697 353.707 339.997 356.547C338.662 357.572 338.471 358.567 339.606 360.195C343.297 365.49 344.954 371.556 345.477 377.941C345.601 379.453 345.471 380.987 345.645 382.489C345.676 382.764 346.867 383.272 347.099 383.101C352.095 379.391 358.054 378.28 363.865 376.775C367.868 375.739 371.854 374.585 375.912 373.826C378.385 373.363 380.984 373.433 383.515 373.531C384.146 373.556 384.736 374.616 385.344 375.2C384.69 375.539 384.06 376.107 383.378 376.178C379.111 376.621 374.831 376.941 370.56 377.342C370.124 377.383 369.714 377.694 369.292 377.879C369.732 378.247 370.149 378.648 370.618 378.975C371.263 379.424 371.946 379.818 372.613 380.236C371.665 380.556 370.732 380.949 369.759 381.157C369.429 381.227 369.015 380.756 368.61 380.659C367.793 380.464 366.955 380.356 366.126 380.212C366.349 380.907 366.682 381.588 366.777 382.3C367.279 386.069 368.16 389.86 368.039 393.616C367.95 396.336 366.606 399.051 365.605 401.686C365.276 402.553 364.268 403.163 363.571 403.891C363.531 402.794 363.097 401.51 363.516 400.632C365.641 396.175 365.62 391.457 365.34 386.753C365.232 384.937 364.439 383.08 363.612 381.413C362.89 379.958 361.482 379.737 359.882 380.338C355.888 381.838 351.806 383.113 347.861 384.724C346.363 385.335 345.189 386.696 343.784 387.583C341.015 389.333 338.23 391.067 335.354 392.628C334.701 392.983 333.649 392.604 332.781 392.563C333.224 391.922 333.555 391.141 334.138 390.673C335 389.981 335.979 389.321 337.017 388.977C342.949 387.017 343.754 384.052 343.229 379.508C342.523 373.401 341.196 367.475 337.846 362.09C336.026 359.163 334.313 357.087 330.418 357.284C327.841 357.414 325.615 358.299 324.875 360.296C324.316 361.803 325.169 364.197 326.074 365.817C328.792 370.68 331.934 375.27 333.372 380.801C334.588 385.479 333.537 388.903 329.27 391.14C321.001 395.476 314.859 402.093 309.554 409.537C306.189 414.259 303.194 419.247 300.079 424.144C299.413 425.191 298.536 425.957 300.875 426.733C304.211 427.839 305.229 435.016 302.647 438.574C301.483 440.176 301.835 440.385 303.29 441.184C310.264 445.014 316.429 449.779 320.959 456.505C323.274 459.941 326.257 462.935 328.491 466.416C331.729 471.463 333.045 477.16 332.726 483.172C332.69 483.864 332.177 484.532 331.885 485.21C331.624 484.489 331.09 483.746 331.144 483.048C331.502 478.428 329.622 474.23 328.139 470.149C326.96 466.904 324.122 464.231 321.888 461.409C319.229 458.053 316.73 454.48 313.605 451.606C310.347 448.61 306.427 446.333 302.794 443.744C301.941 443.135 301.16 442.29 300.207 441.987C298.904 441.572 297.38 441.181 296.106 441.467C292.426 442.292 288.839 443.406 286.852 447.188C286.532 447.798 284.73 448.39 284.35 448.082C282.301 446.422 281.239 447.738 280.031 449.103C279.853 449.305 279.338 449.329 279.015 449.262C276.825 448.802 275.984 450.314 275.206 451.86C274.377 453.509 273.655 455.981 271.511 455.172C270.156 454.66 269.38 452.32 268.614 450.675C268.261 449.917 268.792 448.768 268.486 447.961C268.191 447.183 267.261 445.998 266.738 446.061C264.026 446.388 263.954 444.4 263.614 442.756C263.394 441.695 263.502 440.546 263.588 439.446C263.74 437.529 263.372 436.351 261.307 435.293C259.199 434.212 259.011 431.362 260.056 429.404C262.249 425.297 264.468 421.046 267.508 417.584C272.599 411.786 278.178 406.383 283.846 401.132C292.186 393.406 300.647 385.795 309.34 378.471C312.95 375.428 317.276 373.228 321.321 370.715C321.746 370.451 322.473 370.671 323.06 370.666C322.863 371.242 322.842 372.047 322.44 372.356C319.801 374.385 317.021 376.232 314.398 378.281C310.477 381.344 306.503 384.365 302.808 387.689C295.176 394.557 287.874 401.799 280.13 408.535C273.728 414.104 267.905 420.079 263.617 427.426C262.813 428.804 262.182 430.429 262.07 431.983C262.032 432.514 263.917 433.8 264.775 433.68C270.726 432.849 275.739 430.018 280.064 425.886C281.695 424.329 283.333 422.75 285.148 421.429C286.069 420.758 287.696 420.014 288.47 420.393C290.355 421.316 290.639 423.377 290.509 425.385C290.392 427.179 290.207 428.972 290.182 430.767C290.176 431.206 290.677 431.651 290.946 432.094C291.415 431.768 292.047 431.545 292.331 431.101C296.425 424.687 300.293 418.121 304.574 411.837C311.044 402.34 318.38 393.674 328.945 388.338C330.947 387.326 331.815 385.655 331.224 382.899C330.053 377.438 327.205 372.887 324.461 368.248C323.053 365.867 321.612 363.488 322.07 360.678C322.621 357.302 325.869 354.766 329.612 354.678C331.537 354.633 333.47 355.15 335.407 355.314C336.276 355.387 337.393 355.541 338.009 355.107C344.098 350.82 349.891 346.075 356.19 342.134C363.968 337.27 371.952 332.638 380.222 328.691C385.65 326.101 391.733 324.872 397.543 323.103C398.707 322.749 400.014 322.856 401.164 322.474C401.942 322.216 402.897 321.618 403.19 320.925C404.567 317.673 407.088 315.91 410.263 314.726C411.116 314.408 412.087 313.621 412.417 312.81C414.733 307.127 416.917 301.389 419.04 295.632C419.136 295.372 418.17 294.307 417.827 294.366C414.839 294.88 412.286 294.645 410.907 291.409C410.795 291.146 410.147 291.075 409.733 290.982C404.325 289.767 402.176 283.585 405.583 279.238C405.969 278.747 406.106 277.497 405.768 277.091C403.298 274.125 403.122 270.524 403.786 267.205C404.226 265.004 406.213 263.024 407.771 261.166C408.788 259.955 409.216 259.263 408.321 257.615C407.225 255.594 405.841 253.685 406.257 250.849C407.094 245.14 408.161 244.082 414.392 242.344C416.098 241.868 416.682 241.276 416.945 239.56C418.232 231.173 420.196 228.055 428.734 225.657C431.626 224.845 434.37 225.028 437.195 226.178C438.083 226.539 439.641 226.061 440.541 225.449C444.073 223.047 447.629 221.458 452.073 222.799C453.127 223.117 454.695 222.501 455.762 221.868C459.895 219.419 464.13 218.267 468.794 220.138ZM154.428 477.507C154.832 477.974 155.303 478.402 155.611 478.925C155.77 479.195 155.639 479.635 155.639 480.274C155.391 481.537 155.143 482.524 154.894 483.51C154.405 482.59 153.818 481.706 153.462 480.736C153.257 480.176 153.296 479.442 153.465 478.855C153.608 478.355 154.094 477.953 154.428 477.507ZM191.188 449.234C195.736 450.358 200.4 451.01 204.964 452.081C208.772 452.974 211.472 455.638 213.721 458.637C216.007 461.687 216.297 461.744 219.66 460.349C221.786 459.468 224.155 459.089 226.454 458.77C227.118 458.678 227.918 459.58 228.656 460.025C227.869 460.502 227.053 461.427 226.302 461.377C223.246 461.171 220.5 462.125 218.121 463.726C213.931 466.545 209.228 468.977 207.399 474.216C206.945 475.515 206.925 476.962 206.525 478.286C206.307 479.008 205.711 479.616 205.285 480.274C204.973 479.703 204.437 479.148 204.392 478.556C204.288 477.166 203.871 475.336 204.562 474.442C206.213 472.305 204.763 471.309 203.495 470.352C201.061 468.516 198.5 466.81 194.938 466.99L194.168 466.991C191.369 466.999 188.843 467.156 187.318 469.883C187.236 470.031 186.941 470.06 186.746 470.145C186.355 469.2 185.896 468.273 185.636 467.294C185.59 467.122 186.363 466.703 186.785 466.441C193.134 462.497 199.374 464.026 204.463 468.037C206.035 469.276 206.819 470.542 208.292 467.907C209.045 466.561 210.779 465.693 212.194 464.807C213.597 463.929 213.592 463.301 212.815 461.78C210.223 456.708 205.548 454.587 200.62 453.272C196.391 452.143 191.891 451.662 187.503 451.614C184.014 451.575 180.328 451.95 177.33 454.357C177.174 454.482 176.534 454.004 176.119 453.807C176.867 452.749 177.412 451.057 178.397 450.743L179.222 450.482C183.078 449.266 186.979 448.193 191.188 449.234ZM255.387 455.819C260.309 460.199 263.313 466.005 266.227 471.759C266.996 473.277 266.741 475.749 264.562 476.728C262.848 477.498 261.323 476.941 260.029 475.408C258.584 473.696 257.102 471.778 254.328 472.48C254.237 472.503 253.73 471.682 253.83 471.537C255.526 469.057 254.211 467.19 252.759 465.234C252.353 464.686 252.474 463.748 252.353 462.989C253.058 463.225 254.051 463.244 254.421 463.733C256.629 466.653 258.684 469.687 260.814 472.667C261.179 473.178 261.59 473.708 262.102 474.047C262.509 474.317 263.384 474.561 263.551 474.373C263.896 473.983 264.188 473.177 264.006 472.756C263.431 471.427 262.628 470.196 261.774 468.789C259.554 465.462 257.516 462.244 255.356 459.109C254.886 458.426 254.044 457.885 253.257 457.57C252.531 457.28 251.649 457.381 250.836 457.31C250.838 458.079 250.614 458.94 250.885 459.598C251.665 461.491 251.406 463.152 250.091 464.629C249.894 464.85 248.825 464.691 248.816 464.624C248.52 462.302 247.776 459.872 248.191 457.662C248.912 453.822 252.235 453.013 255.387 455.819ZM289.901 459.326C290.101 460.522 291.357 461.539 292.149 462.64C292.246 462.775 292.283 462.952 292.356 463.105C293.027 464.513 293.713 464.691 295.294 463.93C297.111 463.056 299.386 462.437 301.332 462.692C304.166 463.063 306.867 464.373 309.663 465.148C310.331 465.333 311.336 465.214 311.826 464.804C312.137 464.544 312.04 463.284 311.678 462.829C310.717 461.622 309.514 460.608 308.13 459.241C307.335 459.737 305.174 457.993 305.719 460.74C305.826 461.275 305.56 461.884 305.466 462.458C304.956 462.202 304.174 462.076 303.98 461.67C302.468 458.501 299.301 458.075 296.512 457.066C295.108 456.558 289.744 458.39 289.901 459.326ZM106.255 443.19C106.111 444.02 105.967 444.85 105.824 446.234C106.927 448.813 107.829 451.503 109.183 453.943C110.922 457.079 109.542 459.449 107.882 461.913C107.543 462.417 107.399 463.052 107.164 463.626C107.739 463.265 108.419 463.004 108.871 462.527C112.987 458.183 113.254 448.659 108.128 444.663C107.502 444.175 106.879 443.681 106.255 443.19ZM333.976 444.85C336.604 445.147 338.888 448.812 339.479 452.327C340.413 457.876 333.906 462.525 327.918 459.103C324.896 456.591 323.765 453.493 324.685 449.942C325.855 445.424 328.309 444.209 333.976 444.85ZM106.683 455.92C106.489 456.658 106.295 457.396 105.824 458.411L106.525 459.795C106.845 459.511 107.389 459.263 107.44 458.937C107.572 458.103 107.529 457.23 107.448 456.384C107.431 456.206 106.95 456.074 106.683 455.92ZM331.351 447.577C328.417 447.739 326.885 449.094 326.672 452.139C326.517 454.36 329.15 457.585 331.31 457.553C336.714 457.473 337.585 455.437 336.082 449.555C334.931 447.871 333.337 447.467 331.351 447.577ZM266.34 442.445C266.714 442.878 267.036 443.618 267.47 443.69C269.332 443.999 270.481 444.927 270.764 446.816C270.972 448.208 271.079 449.618 271.345 450.998C271.488 451.737 271.87 452.431 272.145 453.145C272.424 452.438 272.764 451.748 272.971 451.02C273.694 448.474 274.407 446.61 277.908 446.253C280.26 446.013 282.493 443.996 285.249 445.026C285.446 445.1 285.74 444.915 286.266 444.573C286.614 444.183 286.962 443.793 287.309 443.402C286.771 443.147 286.223 442.656 285.696 442.678C283.653 442.76 281.556 442.761 279.588 443.241C275.571 444.22 271.754 443.855 267.958 442.358C267.501 442.178 266.883 442.406 266.34 442.445ZM155.346 431.582C155.976 431.832 156.729 431.947 157.198 432.374C157.589 432.731 157.782 433.441 157.83 434.015C158.065 436.793 158.222 439.577 158.407 442.636C158.591 444.865 158.793 446.816 158.925 448.772C158.936 448.924 158.323 449.31 158.222 449.244C157.691 448.901 156.879 448.503 156.803 448.023C156.322 444.967 156.044 441.878 155.625 438.811C155.389 437.086 154.918 435.39 154.742 433.662C154.674 432.996 155.129 432.277 155.346 431.582ZM452.228 329.852C453.532 330.6 454.806 332.472 454.935 333.946C455.13 336.184 456.038 336.428 457.847 336.386C464.822 336.226 470.372 339.676 475.49 343.836C479.486 347.084 483.359 350.529 486.956 354.209C491.633 358.994 496.43 363.771 500.353 369.151C504.681 375.086 502.295 378.86 497.129 382.817C491.785 386.91 486.116 390.577 480.767 394.664C479.398 395.71 478.441 397.372 479.741 399.581C482.407 404.11 488.909 406.49 493.035 403.811C494.704 402.727 495.797 400.754 497.29 399.048C501.363 393.916 506.893 391.036 512.179 387.859C515.645 385.775 516.668 384.989 514.216 381.015C512.511 378.252 510.718 374.875 506.326 375.617C505.719 375.72 505.009 375.217 504.348 374.995C505.025 374.295 505.6 373.161 506.398 372.974C509.032 372.354 511.501 373.344 513.055 375.364C515.039 377.942 516.846 380.789 518.006 383.799C518.441 384.927 517.274 387.404 516.101 388.29C512.095 391.314 507.656 393.761 503.595 396.719C501.472 398.266 499.76 400.392 497.959 402.345C497.771 402.549 498.107 403.717 498.427 403.839C506.347 406.846 514.32 409.582 521.45 414.466C527.098 418.335 533.325 421.361 539.354 424.654C539.519 424.745 540.735 423.651 540.807 423.033C541.012 421.273 540.717 419.454 540.914 417.692C541.278 414.449 540.302 411.964 537.747 409.833C531.135 404.318 524.655 398.646 518.126 393.033C517.847 392.793 517.519 392.557 517.359 392.244C517.039 391.622 516.819 390.949 516.558 390.296C517.449 390.287 518.643 389.898 519.182 390.329C522.958 393.345 526.645 396.479 530.27 399.677C533.135 402.205 535.868 404.883 538.67 407.483C538.958 407.751 539.317 407.943 539.643 408.171C539.871 407.712 540.311 407.242 540.289 406.795C540.189 404.806 539.81 402.824 539.812 400.839C539.815 398.794 540.385 396.737 540.284 394.706C539.826 385.521 539.124 376.348 538.704 367.162C538.484 362.372 540.997 359.155 545.531 357.379C551.082 355.205 556.786 353.869 562.749 353.499C570.182 353.039 577.612 351.91 585.031 352.003C592.482 352.096 599.917 353.349 607.362 354.07C611.45 354.466 615.542 354.811 619.633 355.183C627.721 355.919 635.824 356.544 643.886 357.502C645.331 357.674 646.964 358.965 647.902 360.2C650.697 363.88 651.963 368.092 652.234 372.809C652.531 377.971 653.653 383.083 654.328 388.228C654.63 390.535 654.792 392.866 654.888 395.192C655.288 404.816 655.997 414.447 655.861 424.065C655.791 429.051 654.232 434.024 653.273 438.988C652.746 441.716 650.595 442.769 648.198 443.153C643.928 443.837 639.615 444.25 635.332 444.858C609.614 448.509 583.736 446.472 557.933 447.118C546.91 447.395 536.973 444.468 527.477 439.049C522.664 436.303 518.654 433.13 517.365 427.605C516.756 424.993 516.153 421.993 518.665 419.813C519.325 419.24 520.385 419.067 521.295 418.879C521.613 418.813 522.036 419.253 522.41 419.463C522.22 419.789 522.102 420.208 521.826 420.426C519.818 422.011 520.045 423.363 521.866 425.069C526.713 429.611 532.755 432.04 538.573 434.884C539.108 435.146 539.654 435.396 540.215 435.592C540.575 435.717 541.167 435.915 541.311 435.76C541.608 435.44 541.797 434.909 541.805 434.461C541.813 433.966 541.376 433.43 541.462 432.974C542.221 428.99 539.882 427.52 536.707 425.858C527.661 421.121 518.863 415.909 509.962 410.894C507.801 409.675 505.585 409.007 503.179 410.292C502.813 410.487 502.327 410.523 501.897 410.523C491.197 410.535 480.494 410.672 469.796 410.487C461.735 410.348 453.685 409.684 445.624 409.453C435.187 409.155 424.746 408.998 414.305 408.89C405.635 408.801 396.963 408.931 388.292 408.86C370.749 408.717 353.206 408.576 335.665 408.276C330.186 408.182 324.712 407.631 319.247 407.16C318.385 407.085 317.583 406.318 316.753 405.872C317.634 405.396 318.523 404.491 319.394 404.508C333.541 404.787 347.686 405.187 361.831 405.545C363.614 405.59 365.4 405.533 367.184 405.554C382.236 405.734 397.288 405.896 412.339 406.125C415.433 406.172 418.522 406.479 421.615 406.653C422.165 406.684 422.805 406.821 423.245 406.597C423.639 406.396 423.816 405.766 424.089 405.326C423.684 405.217 423.189 404.9 422.886 405.03C420.35 406.118 420.895 404.984 421.145 403.148C421.854 397.96 422.382 392.841 420.933 387.515C419.796 383.336 420.991 378.872 422.535 374.731C424.084 370.576 425.706 366.448 427.187 362.27C427.46 361.501 427.211 360.547 427.202 359.679C426.561 360.09 425.937 360.53 425.275 360.904C424.522 361.328 423.736 361.692 422.964 362.083C422.97 361.127 422.69 360.051 423.029 359.233C425.183 354.037 427.538 348.924 429.666 343.717C430.087 342.688 429.833 341.373 429.846 340.189C429.858 339.137 429.564 338.017 429.83 337.042C430.898 333.133 433.245 332.054 437.317 333.24C441.256 334.388 442.972 336.737 441.119 340.651C439.452 344.172 440.001 347.074 441.187 350.427C443.467 356.876 445.35 363.463 447.47 369.969C449.342 375.713 448.529 381.29 446.181 386.614C443.313 393.119 440.046 399.439 435.163 404.753C434.842 405.102 434.785 405.694 434.606 406.174C435.144 406.335 435.681 406.629 436.221 406.636C439.48 406.68 442.743 406.594 446.001 406.672C451.553 406.805 457.102 407.038 462.653 407.209C469.034 407.405 475.416 407.555 481.795 407.785C483.291 407.838 484.777 408.158 486.273 408.298C486.565 408.325 486.883 408.085 487.189 407.968C486.926 407.716 486.696 407.411 486.394 407.22C483.912 405.649 481.213 404.343 478.975 402.482C476.193 400.17 476.106 398.407 477.497 394.963C477.648 394.59 477.164 393.574 476.765 393.427C473.559 392.25 470.328 391.119 467.052 390.155C464.292 389.344 462.494 391.048 460.78 392.892C460.282 393.428 459.499 393.699 458.847 394.091C458.885 393.122 458.612 391.993 459.013 391.209C460.93 387.457 464.882 386.896 470.054 388.692C472.957 389.701 475.827 390.833 478.786 391.633C479.628 391.861 480.89 391.344 481.69 390.783C485.854 387.864 489.97 384.872 494.02 381.796C495.812 380.436 497.582 378.97 499.046 377.279C500.64 375.437 499.97 373.375 498.79 371.488C494.017 363.856 487.184 358.166 480.629 352.212C478.14 349.952 475.76 347.568 473.207 345.385C468.684 341.518 463.409 339.233 457.491 338.606C454.715 338.312 453.919 339.364 453.416 343.114C452.903 346.949 452.418 350.793 451.698 354.591C451.506 355.605 450.694 356.949 449.83 357.289C448.315 357.886 447.275 356.875 446.596 355.325C445.297 352.355 443.625 349.544 442.392 346.55C440.632 342.274 442.725 336.415 446.755 333.588C447.411 333.127 448.2 332.678 448.568 332.022C449.418 330.507 450.555 328.893 452.228 329.852ZM347.393 439.348C349.495 439.817 350.385 441.482 349.824 443.422C349.537 444.415 348.259 445.121 347.152 445.957C344.225 445.782 343.062 444.526 343.278 442.073C343.482 439.751 344.813 438.772 347.393 439.348ZM589.269 354.674C581.765 354.907 574.271 355.478 566.767 355.702C560.399 355.891 554.178 356.862 548.251 359.114C543.533 360.906 540.864 362.301 541.413 368.294C542.05 375.249 542.66 382.21 543.036 389.182C543.195 392.13 542.553 395.113 542.578 398.077C542.619 402.888 542.914 407.697 543.092 412.508C543.283 417.686 543.433 422.867 543.659 428.044C543.773 430.644 544.15 433.238 544.161 435.836C544.172 438.261 542.475 439.632 540.559 438.645C533.995 435.266 526.798 432.982 521.273 427.755C520.973 427.471 520.528 427.34 520.151 427.138C520.08 427.631 519.765 428.329 519.978 428.583C521.779 430.731 523.336 433.339 525.618 434.77C529.868 437.433 534.534 439.444 539.074 441.626C540.835 442.472 542.699 443.555 544.562 443.654C552.127 444.053 559.71 444.291 567.285 444.26C584.174 444.192 601.067 444.138 617.947 443.657C626.875 443.403 635.787 442.364 644.688 441.49C649.516 441.016 651.498 439.312 652.069 434.914C652.718 429.908 653.18 424.837 653.161 419.797C653.137 413.956 652.537 408.114 652.125 402.277C651.607 394.944 651.104 387.608 650.444 380.286C650.048 375.891 649.503 371.499 648.773 367.148C648.072 362.973 645.06 359.953 641.694 359.612C637.976 359.235 634.259 358.838 630.536 358.51C621.9 357.75 613.258 357.063 604.626 356.262C602.641 356.078 600.688 355.551 598.167 355.182C595.2 354.998 592.227 354.582 589.269 354.674ZM297.669 428.886C296.658 429.238 296.019 430.559 295.109 431.319C293.833 432.384 292.573 433.554 291.11 434.29C287.429 436.142 283.448 436.624 279.336 436.6C275.455 436.577 271.571 436.906 267.688 437.051C267.246 437.068 266.798 436.896 266.353 436.812C266.475 437.311 266.548 437.828 266.726 438.306C267.587 440.614 269.767 440.816 271.651 440.921C280.613 441.419 289.419 440.086 298.14 438.174C300.175 437.728 301.759 436.628 301.233 434.05C301.089 433.342 301.211 432.58 301.211 431.289C300.872 429.237 299.592 428.214 297.669 428.886ZM286.067 429.971C281.604 430.083 277.324 431.074 273.383 433.25C272.973 433.476 272.743 434.027 272.429 434.427C272.881 434.58 273.348 434.898 273.784 434.861C277.678 434.529 281.582 434.235 285.447 433.683C286.343 433.555 287.104 432.481 287.927 431.289C287.306 430.828 286.676 429.956 286.067 429.971ZM287.901 422.96C287.14 423.37 286.232 423.633 285.649 424.219C284.484 425.39 283.497 426.738 282.437 428.013C284.175 427.537 285.912 427.061 287.927 426.308C287.927 425.944 287.93 425.581 287.926 425.217C287.92 424.465 287.91 423.713 287.901 422.96ZM336.082 421.049C337.189 421.475 338.019 421.9 338.849 422.326C338.064 423.376 337.471 424.864 336.425 425.325C335.718 425.637 333.806 424.772 333.425 423.965C332.447 421.892 334.689 421.799 336.082 421.049ZM184.705 411.212C192.78 413.482 201.03 413.277 209.285 413.329C217.326 413.38 225.366 413.669 233.683 413.854C240.325 413.854 246.689 413.808 253.053 413.879C255.192 413.903 257.336 414.165 259.459 414.451C259.946 414.516 260.358 415.129 260.805 415.49C260.374 415.867 259.999 416.414 259.498 416.577C258.914 416.767 258.221 416.621 257.576 416.621C245.216 416.621 232.856 416.686 220.497 416.597C213.009 416.543 205.508 416.475 198.041 415.989C193.154 415.67 188.312 414.618 183.464 413.812C182.995 413.734 182.624 413.071 182.207 412.68C183.049 412.16 184.061 411.031 184.705 411.212ZM492.208 406.936C491.958 406.996 491.811 407.478 491.617 407.764C491.945 407.949 492.27 408.287 492.601 408.294C494.923 408.341 497.247 408.339 499.57 408.303C500.057 408.295 500.541 408.081 501.027 407.962C500.565 407.527 500.104 407.093 499.366 406.381C496.754 403.5 494.559 406.366 492.208 406.936ZM427.41 404.721L425.985 406.063C426.992 406.261 427.994 406.509 429.01 406.632C429.381 406.677 429.788 406.423 430.178 406.305C429.711 405.685 429.295 405.013 428.748 404.473C428.565 404.291 428.05 404.444 427.41 404.721ZM466.998 392.279C467.092 393.099 467.341 393.937 467.252 394.737C466.952 397.429 466.69 400.145 466.071 402.77C465.847 403.72 466.295 406.293 463.527 404.859C463.942 401.196 464.406 397.652 465.122 394.16C465.27 393.435 466.348 392.901 466.998 392.279ZM434.376 344.772C434 344.711 433.194 345.8 432.996 346.483C432.633 347.738 432.698 349.111 432.372 350.381C430.162 359.004 428.162 367.67 424.784 375.98C423.576 378.949 423.397 382.544 423.555 385.815C423.829 391.463 427.232 396.048 429.702 400.921C431.814 405.089 431.99 405.097 434.751 401.262C434.911 401.041 435.174 400.893 435.328 400.669L435.881 399.858C441.589 391.478 446.926 382.956 445.399 371.787C442.724 363.221 440.104 354.636 437.274 346.122C437.033 345.397 435.419 344.94 434.376 344.772ZM426.12 400.663C425.443 400.909 424.766 401.154 424.089 401.953C424.827 401.766 425.566 401.582 426.294 401.361C426.306 401.358 426.181 400.906 426.12 400.663ZM189.587 395.638C202.695 395.752 215.806 395.803 228.906 396.2C236.615 396.434 244.304 397.292 252.007 397.785C256.349 398.063 260.709 398.083 265.05 398.385C268.134 398.6 271.207 399.044 274.266 399.509C274.808 399.591 275.258 400.277 275.75 400.685C275.181 401.015 274.598 401.655 274.045 401.63C267.557 401.334 261.073 400.935 254.588 400.575C253.853 400.534 253.111 400.608 252.376 400.564C235.012 399.533 217.655 398.352 200.237 398.872C197.464 398.954 194.675 398.54 191.617 398.356C190.695 398.356 189.96 398.553 189.425 398.31C188.607 397.939 187.927 397.264 187.189 396.718C187.989 396.341 188.791 395.631 189.587 395.638ZM429.194 351.308C428.23 353.192 427.249 355.068 426.341 356.979C426.276 357.116 426.748 357.731 426.961 357.726C427.287 357.719 427.787 357.434 427.896 357.146C428.524 355.496 429.058 353.811 429.624 351.584C429.481 351.492 429.337 351.4 429.194 351.308ZM451.09 332.96C449.059 334.5 447.101 336.137 445.123 338.3C443.576 340.834 443.755 343.337 444.999 345.972C446.118 348.345 446.927 350.863 447.966 353.277C448.197 353.814 448.818 354.182 449.259 354.629C449.541 353.922 450.039 353.219 450.052 352.508C450.071 351.487 449.408 350.39 449.607 349.446C450.489 345.249 451.644 341.109 452.541 336.914C452.779 335.801 452.521 334.555 452.329 333.397C452.292 333.173 451.296 332.804 451.09 332.96ZM406.316 320.665C405.056 322.42 406.295 323.127 407.538 324.262C409.25 325.823 410.851 327.736 411.84 329.813C414.527 335.45 414.369 341.638 414.68 348.263C414.86 350.967 415.673 351.371 417.909 350.034C422.98 347.002 425.208 341.899 427.329 336.832C428.216 334.715 428.934 332.061 426.134 330.394C424.143 329.21 422.111 328.095 420.095 326.954C416.586 324.969 413.003 323.102 409.602 320.946C408.387 320.177 407.552 318.943 406.316 320.665ZM431.521 336.404C430.768 337.655 431.947 340.692 433.577 341.7C435.501 342.889 437.782 342.393 439.311 340.238C440.436 338.569 440.267 337.307 438.319 336.343C435.432 334.915 432.44 334.877 431.521 336.404ZM301.191 176.308C305.269 177.17 309.536 177.139 313.718 177.507C320.037 178.061 326.367 178.521 332.672 179.208C335.672 179.535 337.317 182.623 337.236 186.4C337.178 189.117 337.499 191.849 337.758 194.564C338.061 197.738 338.622 200.892 338.821 204.071C339.28 211.383 339.526 218.709 339.988 226.021C340.16 228.74 341.108 231.457 340.973 234.138C340.729 238.994 339.948 243.823 339.37 248.661C339.034 251.466 338.4 254.262 338.345 257.07C338.2 264.538 338.363 272.012 338.272 279.482C338.213 284.388 338.149 289.312 337.677 294.189C337.249 298.617 336.155 302.977 335.589 307.398C335.393 308.933 336.078 310.561 336.049 312.141C335.953 317.323 335.569 322.504 335.593 327.684C335.604 330.058 333.559 330.523 332.52 330.633C327.763 331.136 323.274 332.987 318.294 332.602C310.379 331.991 302.407 332.06 294.458 331.969C291.862 331.939 289.249 332.566 286.666 332.441C277.758 332.011 268.859 331.391 259.958 330.821C257.818 330.684 255.685 330.329 253.546 330.295C239.234 330.071 224.916 330.081 210.613 329.625C205.636 329.467 200.631 328.712 196.169 325.801C192.675 323.522 190.873 320.271 190.615 316.516C190.083 308.777 189.927 300.994 190.017 293.234C190.106 285.636 190.634 278.04 191.091 270.45C191.299 266.996 191.985 263.567 192.125 260.114C192.31 255.57 192.103 251.012 192.194 246.463C192.257 243.309 192.54 240.16 192.724 236.732C192.54 233.58 192.175 230.703 192.205 227.83C192.289 220.034 192.517 212.239 192.763 204.446C192.785 203.76 193.355 203.091 193.671 202.415C194.278 203.093 195.43 203.791 195.405 204.445C195.216 209.38 194.755 214.303 194.465 219.235C194.336 221.434 194.351 223.645 194.394 225.849C194.554 233.89 194.848 241.929 194.9 249.97C194.928 254.32 194.568 258.672 194.385 263.022C194.015 271.816 193.689 280.612 193.263 289.403C192.97 295.434 192.346 301.455 192.247 307.486C192.191 310.831 192.623 314.252 193.346 317.526C194.375 322.188 197.926 324.722 202.28 325.761C205.622 326.559 209.143 326.639 212.594 326.937C215.646 327.2 218.711 327.451 221.771 327.467C224.276 327.48 226.785 326.957 229.289 326.987C236.869 327.078 244.448 327.298 252.026 327.516C256.747 327.652 261.485 327.667 266.182 328.102C277.095 329.115 287.999 329.998 298.98 329.755C306.848 329.58 314.727 329.874 322.592 329.645C325.696 329.555 328.783 328.646 331.861 328.029C332.388 327.924 333.233 327.43 333.25 327.081C333.379 324.561 333.293 322.032 333.349 319.508C333.455 314.742 333.493 309.971 333.784 305.216C333.989 301.868 334.616 298.548 334.962 295.207C335.385 291.122 335.922 287.033 336.022 282.937C336.117 279.022 335.565 275.095 335.569 271.174C335.573 267.008 335.719 262.824 336.125 258.679C336.693 252.881 337.857 247.129 338.195 241.324C338.438 237.157 339.133 232.88 337.777 228.723C337.668 228.39 337.753 227.995 337.742 227.629C337.558 221.618 337.613 215.587 337.119 209.602C336.664 204.089 335.562 198.632 334.859 193.136C334.563 190.815 334.482 188.458 334.439 186.115C334.37 182.412 333.434 181.578 329.722 181.35C322.473 180.904 315.233 180.309 307.995 179.71C301.948 179.209 295.918 178.425 289.863 178.145C287.087 178.017 284.275 178.86 281.466 179.125C280.753 179.192 279.99 178.733 279.25 178.516C279.652 177.994 279.988 177.395 280.479 176.976C280.846 176.663 281.397 176.492 281.891 176.414C288.315 175.401 294.691 174.933 301.191 176.308ZM251.074 180.354C258.576 180.33 266.08 181.006 273.583 181.384C276.921 181.552 280.254 181.834 283.593 181.919C292.648 182.15 301.735 181.916 310.748 182.634C316.166 183.065 321.742 183.509 326.498 187.357C330.508 190.601 332.854 194.655 333.737 199.306C334.991 205.913 335.405 212.684 336.056 219.398C336.387 222.812 336.751 226.269 336.568 229.678C336.259 235.457 335.542 241.216 334.97 246.98C334.628 250.427 334.082 253.862 333.898 257.316C333.437 266.013 333.118 274.718 332.766 283.422C332.556 288.602 332.438 293.786 332.196 298.965C331.872 305.917 331.487 312.866 331.084 319.814C331.014 321.035 330.843 322.275 330.524 323.453C329.855 325.919 327.561 326.183 325.658 326.334C318.905 326.871 312.129 327.138 305.086 327.507C295.555 326.655 286.333 325.572 276.992 325.761C271.713 325.867 266.419 324.881 261.125 324.789C251.319 324.617 241.496 325.041 231.701 324.659C220.871 324.236 210.205 322.596 200.36 317.553C196.146 315.394 194.283 312.199 195.548 307.731C198.254 298.172 196.713 288.44 197.15 278.793C197.528 270.46 197.876 262.126 198.266 253.793C198.405 250.824 198.715 247.86 198.796 244.89C199.028 236.389 199.225 227.887 199.351 219.384C199.433 213.819 199.532 208.245 199.296 202.689C199.178 199.936 198.293 197.22 197.814 194.478C197.674 193.679 197.59 192.813 197.759 192.04C197.864 191.564 198.497 191.203 198.892 190.791C199.235 191.164 199.81 191.497 199.883 191.917C200.501 195.458 201.365 199.001 201.514 202.571C201.897 211.71 202.167 220.866 202.073 230.011C201.976 239.454 201.445 248.894 201.008 258.331C200.738 264.179 200.153 270.013 199.951 275.862C199.646 284.729 199.616 293.605 199.313 302.472C199.25 304.337 198.61 306.208 198.063 308.024C197.17 310.992 197.706 312.497 200.217 314.268C205.132 317.734 210.788 319.098 216.531 320.328C224.718 322.081 233.006 321.949 241.306 322.001C251.316 322.063 261.328 322.253 271.334 322.554C278.657 322.775 285.972 323.263 293.291 323.632C300.609 324.001 307.925 324.549 315.248 324.665C318.962 324.723 322.713 324.143 326.391 323.518C327.166 323.386 328.158 321.835 328.251 320.862C328.632 316.899 328.732 312.907 328.879 308.923C329.092 303.189 329.239 297.453 329.445 291.719C329.602 287.367 329.665 283.005 330.027 278.668C330.582 272.022 331.382 265.397 331.997 258.756C332.042 258.272 331.496 257.342 331.113 257.277C329.184 256.951 327.216 256.667 325.265 256.687C312.612 256.816 299.958 257.21 287.307 257.149C278.511 257.106 269.717 256.473 260.923 256.105C256.479 255.919 252.037 255.694 247.592 255.561C240.29 255.341 232.978 255.337 225.686 254.949C219.815 254.636 213.958 253.968 208.111 253.312C203.579 252.804 202.357 250.614 203.741 246.347C204.093 245.262 203.735 243.961 203.829 242.77C203.859 242.4 204.307 242.065 204.563 241.714C204.86 242.024 205.339 242.291 205.425 242.652C205.978 244.976 207.663 245.881 209.783 246.126C214.991 246.727 220.196 247.467 225.423 247.749C232.715 248.143 240.026 248.295 247.329 248.316C252.971 248.332 258.615 247.807 264.257 247.838C277.464 247.91 290.672 248.081 303.875 248.39C311.567 248.57 319.252 249.071 326.937 249.503C327.603 249.541 328.237 250.149 328.886 250.492C328.289 250.887 327.687 251.632 327.095 251.623C319.852 251.521 312.61 251.262 305.367 251.139C300.48 251.056 295.589 251.156 290.701 251.117C269.193 250.946 247.678 251.012 226.181 250.416C219.52 250.232 212.529 250.534 206.229 247.279C205.92 247.119 205.207 247.257 205.004 247.513C204.804 247.764 204.844 248.508 205.076 248.744C205.753 249.431 206.513 250.366 207.356 250.503C211.623 251.201 215.914 252.013 220.219 252.164C231.112 252.547 242.02 252.509 252.916 252.816C259.779 253.01 266.633 253.518 273.49 253.892C280.163 254.256 286.835 254.916 293.509 254.935C305.7 254.97 317.892 254.611 330.084 254.467C331.536 254.45 332.146 254.095 332.251 252.487C332.702 245.607 333.271 238.733 333.879 231.865C334.596 223.781 333.778 215.793 332.832 207.772C332.223 202.606 331.463 197.706 328.405 193.24C325.323 188.738 321.281 186.171 315.983 185.855C307.014 185.32 298.028 185.043 289.048 184.712C282.669 184.477 276.287 184.355 269.907 184.144C259.267 183.793 248.63 183.193 237.988 183.12C231.133 183.073 224.271 183.732 217.417 184.166C213.044 184.443 208.688 185.007 204.313 185.207C202.008 185.312 200.422 185.908 199.882 188.352C199.772 188.85 199.187 189.243 198.82 189.684C198.449 189.156 197.837 188.665 197.747 188.092C197.34 185.522 198.89 183.612 201.86 183.062C204.364 182.597 206.89 182.135 209.425 181.971C214.229 181.661 219.048 181.573 223.86 181.38C232.931 181.016 242.002 180.385 251.074 180.354ZM459.015 257.556C456.743 260.001 453.982 261.268 450.381 262.193C447.582 262.003 444.642 262.899 442.149 260.654C439.606 258.363 438.087 259 436.759 262.252C436.115 263.828 435.066 265.438 433.763 266.494C432.203 267.759 430.069 268.29 428.377 269.427C426.019 271.013 423.488 271.399 421.024 270.358C419.179 269.578 419.249 270.48 419.104 271.661C418.825 273.93 420.388 275.218 421.681 276.689C423.315 278.548 424.757 280.326 423.628 283.241C422.792 285.398 422.742 287.874 422.442 290.221C422.013 293.577 423.777 296.025 425.71 298.56C432.165 307.029 438.316 315.769 446.923 322.274C448.348 323.351 450.56 324.325 452.168 324.032C455.75 323.38 459.659 322.601 462.583 320.618C471.486 314.581 479.571 307.469 486.126 298.858L486.422 298.472C488.661 295.572 491.224 292.562 489.476 288.211C489.096 287.265 489.484 285.896 489.803 284.805C490.62 282.019 491.958 279.333 492.379 276.502C492.642 274.728 491.877 272.636 491.036 270.957C490.747 270.381 488.794 270.743 487.653 270.467C486.162 270.106 484.705 269.583 483.266 269.042C482.311 268.683 481.428 267.833 480.487 267.792C477.771 267.674 475.979 266.536 474.375 264.288C472.805 262.088 471.005 259.724 467.39 261.001C465.549 261.651 463.746 260.803 462.918 258.691C461.996 256.337 460.657 255.79 459.015 257.556ZM200.556 308.882C201.186 309.013 202.004 308.937 202.415 309.31C204.96 311.618 207.919 312.382 211.314 312.639C217.484 313.106 223.619 314.041 229.769 314.771C230.133 314.814 230.506 314.772 230.875 314.777C245.184 314.961 259.494 315.115 273.802 315.344C279.814 315.441 285.822 315.851 291.832 315.843C298.58 315.834 305.327 315.501 312.075 315.336C314.791 315.27 317.511 315.212 320.224 315.294C320.884 315.314 321.527 315.9 322.178 316.226C321.346 316.665 320.538 317.412 319.676 317.484C317.477 317.665 315.254 317.516 313.041 317.548C300.945 317.723 288.849 317.992 276.753 318.061C271.39 318.092 266.025 317.614 260.66 317.583C256.956 317.562 253.25 318.079 249.547 318.058C244.182 318.027 238.818 317.739 233.455 317.522C233.063 317.506 232.684 317.175 232.023 316.99C222.988 317.032 214.319 316.099 205.804 314.125C203.981 313.702 202.385 312.109 200.826 310.876C200.447 310.576 200.631 309.565 200.556 308.882ZM448.01 304.059C452.316 304.767 455.508 305.516 459.642 306.504C461.601 306.972 462.012 308.368 460.546 309.869C455.878 314.644 449.209 315.001 445.35 308.201C444.267 306.294 445.961 304.999 448.01 304.059ZM313.377 286.483C315.951 287.656 316.962 289.225 316.112 291.854C315.008 295.264 314.056 298.731 312.776 302.074C312.201 303.574 310.99 304.83 309.929 306.335C303.243 311.923 295.956 314.573 287.354 312.604C286.041 312.304 284.574 312.386 283.226 312.597C280.033 313.098 277.449 311.515 274.77 310.3C274.214 310.048 273.467 309.001 273.609 308.615C274.962 304.947 275.991 301.022 278.071 297.788C281.946 291.764 287.834 288.599 295.069 288.217C299.532 287.982 304.004 287.904 308.463 287.621C310.116 287.516 311.229 285.503 313.377 286.483ZM251.46 260.663C255.256 260.64 259.135 261 262.828 261.858C265.883 262.567 266.092 265.675 266.302 268.286C266.486 270.577 266.34 272.895 266.34 275.477C266.156 283.425 266.001 291.097 265.769 298.767C265.699 301.092 265.501 303.421 265.212 305.73C264.857 308.567 261.73 310.758 257.78 310.879C254.278 310.987 250.714 311.272 247.29 310.744C245.605 310.484 243.882 308.805 242.687 307.349C239.458 303.412 240.998 298.651 240.93 294.19C240.925 293.862 241.642 293.523 242.024 293.19C242.38 293.641 243.01 294.073 243.044 294.547C243.167 296.291 243.286 298.075 243.05 299.795C242.654 302.666 244.009 304.895 245.321 307.177C245.522 307.528 245.903 307.775 246.201 308.07C246.457 307.623 246.956 307.16 246.93 306.73C246.661 302.344 246.252 297.966 245.995 293.579C245.845 291.019 245.935 288.446 245.853 285.88C245.695 280.944 245.495 276.008 245.253 271.075C245.25 271.025 244.397 270.903 243.995 271.012C243.444 271.163 242.944 271.503 242.422 271.762C242.327 271.013 241.909 270.1 242.193 269.544C243.363 267.249 244.422 264.753 246.158 262.939C247.403 261.637 249.652 260.674 251.46 260.663ZM232.469 281.253C235.552 281.671 236.295 284.372 237.021 286.961C238.552 292.417 238.201 297.914 237.558 303.706C237.558 308.906 236.228 310.485 230.516 310.817C226.284 311.063 222.001 310.613 217.751 310.315C215.551 310.161 214.63 308.452 214.332 306.514C213.357 300.173 213.356 293.849 214.842 287.559C215.146 286.274 214.98 284.867 215.356 283.614C216.219 280.735 219.057 280.7 221.168 280.585C224.916 280.38 228.733 280.746 232.469 281.253ZM447.575 307.368C447.799 307.692 447.963 308.09 448.256 308.328C450.446 310.099 452.799 311.311 456.004 310.009C456.65 309.668 457.296 309.328 457.942 308.987C457.826 308.774 457.742 308.402 457.59 308.372C454.62 307.787 451.647 307.216 448.661 306.725C448.342 306.673 447.939 307.141 447.575 307.368ZM311.653 289.171C309.233 289.47 306.854 290.134 304.432 290.365C303.062 290.496 301.641 290.02 300.236 289.89C299.835 289.853 299.198 289.95 299.053 290.205C298.885 290.5 299.047 291.366 299.227 291.417C301.349 292.022 300.817 293.479 300.363 294.852C299.601 297.156 298.1 299.119 295.658 299.179C292.483 299.256 289.295 298.58 286.106 298.304C284.431 298.159 282.206 297.469 281.162 298.258C278.394 300.351 276.915 303.527 277.518 307.108C277.687 308.116 279.099 309.604 280.037 309.679C285.323 310.103 290.645 310.417 295.943 310.288C303.627 310.101 312.388 302.018 313.358 294.574C313.439 293.956 313.098 293.283 312.954 292.636C312.545 293.128 312.001 293.558 311.748 294.12C308.718 300.857 303.862 305.411 295.953 307.027C293.322 307.581 290.707 308.246 288.051 308.61C287.375 308.703 286.568 307.838 285.822 307.413C286.444 307.087 287.033 306.616 287.696 306.462C289.56 306.027 291.495 305.866 293.328 305.339C298.522 303.848 303.598 302.246 306.883 297.315C308.454 294.958 310.728 293.069 312.698 290.98C313.081 290.573 313.525 290.224 313.942 289.848C313.177 289.605 312.377 289.082 311.653 289.171ZM247.521 268.005C247.337 268.297 246.964 268.611 246.996 268.877C247.509 273.165 248.254 277.433 248.561 281.733C248.744 284.301 248.087 286.918 248.113 289.509C248.157 293.854 248.357 298.202 248.649 302.538C249.046 308.418 249.986 309.19 255.767 308.669C257.058 308.552 258.524 308.512 259.557 307.87C260.896 307.04 262.36 305.827 262.899 304.44C263.581 302.684 263.529 300.589 263.532 298.639C263.536 296.782 262.99 294.917 263.056 293.069C263.338 285.208 263.93 277.355 264.057 269.493C264.125 265.276 263.244 264.405 259.738 263.894C257.082 263.506 254.375 263.387 251.686 263.326C248.567 263.254 247.543 264.356 247.521 268.005ZM217.065 289.766C216.913 295.029 216.569 300.294 216.662 305.552C216.678 306.429 218.461 307.944 219.506 308.016C223.66 308.303 227.847 308.211 232.017 308.094C233.559 308.051 234.876 307.501 234.837 305.4C234.802 303.455 235.159 301.504 235.344 299.001C235.344 296.792 235.195 294.57 235.384 292.377C235.587 290.025 234.892 289.206 232.392 289.243C227.87 289.312 223.328 289.085 218.823 288.671C217.586 288.557 217.106 288.357 217.065 289.766ZM255.252 294.884C255.706 294.84 256.187 295.282 256.68 295.391C258.036 295.691 260.425 295.658 260.584 296.248C261.134 298.287 261.182 300.569 260.918 302.696C260.44 306.542 257.233 305.028 254.717 305.367C252.452 305.303 250.708 305.11 250.796 302.35C250.855 300.5 250.093 298.576 250.375 296.792C250.839 293.856 253.441 295.059 255.252 294.884ZM252.442 299.893C252.531 302.112 253.104 303.399 256.1 303.153C257.115 302.523 258.73 302.1 259.03 301.225C259.852 298.826 258.556 297.621 255.662 297.618C254.065 297.617 252.331 297.154 252.442 299.893ZM461.036 290.837C462.641 291.578 461.988 296.544 461.786 298.39C461.313 302.696 455.639 301.731 455.639 300.546C455.639 298.399 457.403 299.221 457.942 299.001C460.189 298.086 459.431 290.096 461.036 290.837ZM232.715 296.095C229.724 297.795 226.895 299.404 224.001 300.883C223.306 301.238 222.391 301.164 221.578 301.287C221.975 300.659 222.229 299.823 222.792 299.437C225.285 297.727 227.799 296.025 230.44 294.565C232.111 293.64 232.972 294.277 232.715 296.095ZM224.588 294.337C225.16 294.388 225.708 294.703 226.267 294.906C226.025 295.295 225.871 295.814 225.525 296.052C224.036 297.076 222.513 298.058 220.945 298.954C220.64 299.129 220.078 298.856 219.635 298.79C219.73 298.282 219.648 297.557 219.954 297.305C220.949 296.486 222.085 295.84 223.305 294.988C223.826 294.666 224.224 294.305 224.588 294.337ZM290.695 291.41C291.109 291.772 291.479 292.223 291.954 292.469C292.32 292.658 292.89 292.463 293.243 292.663C293.908 293.04 294.482 293.578 295.094 294.049C294.379 294.316 293.68 294.664 292.941 294.816C292.572 294.892 292.134 294.591 291.719 294.495C289.149 293.903 286.558 292.244 284.036 294.601C283.664 294.949 283.362 295.374 283.028 295.763C283.46 295.828 283.891 295.905 284.324 295.955C285.991 296.145 287.655 296.376 289.327 296.499C291.856 296.684 294.544 298.169 297.06 295.404C299.088 294.156 298.475 292.77 296.873 292.009C295.434 291.325 293.693 291.248 292.07 291.007C291.641 290.943 291.154 291.265 290.695 291.41ZM471.046 289.476C471.52 287.036 473.003 285.272 474.359 285.536C475.714 285.799 476.428 287.991 475.954 290.43C475.48 292.87 473.997 294.634 472.641 294.37C471.286 294.107 470.572 291.916 471.046 289.476ZM261.087 269.051C261.993 269.317 262.914 271.306 262.926 272.523C262.973 277.135 262.657 281.75 262.458 286.364C262.431 286.975 262.296 287.581 262.208 288.189C261.824 290.837 260.419 291.682 257.665 291.604C249.353 291.37 250.366 292.476 250.265 284.026C250.216 279.87 249.923 275.717 249.734 271.563C249.653 269.809 250.358 268.795 252.233 268.833C252.968 268.848 253.704 268.835 254.717 268.835C257.041 268.853 259.198 268.495 261.087 269.051ZM449.43 281.241L449.563 281.254C450.93 281.446 451.758 283.597 451.412 286.058C451.066 288.519 449.677 290.358 448.31 290.166C446.943 289.974 446.115 287.823 446.461 285.362C446.807 282.901 448.195 281.061 449.563 281.254L449.43 281.241ZM254.515 271.106C253.741 271.475 252.612 272.237 252.591 272.862C252.429 277.542 252.421 282.234 252.58 286.914C252.608 287.732 253.623 289.168 254.228 289.192C256.032 289.264 258.029 289.121 259.596 288.345C260.267 288.013 260.06 285.909 260.252 284.057C260.252 281.3 259.877 278.48 260.336 275.802C261.098 271.357 261.063 271.049 256.692 271.049C255.957 271.049 255.113 270.821 254.515 271.106ZM224.025 283.246C222.352 283.339 220.662 283.477 219.035 283.839C218.482 283.962 218.095 284.827 217.632 285.353C218.222 285.751 218.805 286.482 219.403 286.495C223.928 286.591 228.456 286.562 232.982 286.523C233.402 286.52 234.152 286.199 234.168 285.983C234.2 285.53 233.966 284.772 233.631 284.627C232.309 284.058 230.905 283.677 228.979 283.226C227.327 283.226 225.671 283.155 224.025 283.246ZM478.122 278.024C481.035 279.05 481.84 281.548 481.876 282.174C481.912 282.801 475.954 278.793 471.553 280.921C470.974 281.2 469.134 280.546 468.923 279.898C468.596 278.891 469.758 278.021 470.477 277.61C473.056 276.137 475.21 276.998 478.122 278.024ZM455.861 275.003C456.548 275.371 457.729 276.534 457.138 277.576C456.961 277.889 454.923 277.977 454.324 277.713C449.259 275.477 440.568 278.211 439.259 278.194C440.294 277.288 441.188 275.994 442.393 275.556C445.117 274.567 447.962 273.67 450.822 273.392C452.452 273.233 454.31 274.173 455.861 275.003ZM294.934 206.583C296.51 209.241 298.971 209.024 301.206 209.559C303.334 210.068 304.37 211.273 305.171 213.225C305.657 214.411 306.814 215.551 307.96 216.194C310.855 217.82 314.02 218.973 316.878 220.654C319.622 222.268 319 225.222 318.87 227.783C318.807 229.028 318.185 230.244 317.816 231.75C316.384 234.936 315.207 238.012 313.444 240.704C311.799 243.215 308.83 243.819 305.986 243.891C300.829 244.021 295.623 244.336 290.517 243.809C285.697 243.312 280.742 243.574 276.083 241.355C272.315 239.56 271.201 236.131 269.734 232.942C268.139 229.471 267.076 225.75 265.852 222.114C264.75 218.841 266.493 215.602 269.983 214.62C272.477 213.919 275.057 213.529 277.573 212.9C278.21 212.741 279.043 212.336 279.29 211.811C280.657 208.908 283.274 208.815 285.918 208.435C287.121 208.263 288.37 207.543 289.332 206.749C291.155 205.246 293.829 204.72 294.934 206.583ZM231.427 198.576C234.302 198.589 237.175 198.909 240.326 199.094C242.128 201.776 244.58 202.832 247.429 203.879C252.312 205.672 255.004 209.836 255.708 214.875C256.022 217.116 254.896 219.521 254.763 221.871C254.579 225.119 254.781 228.387 254.693 231.643C254.639 233.598 254.503 235.578 254.127 237.492C253.561 240.373 250.886 242.187 247.143 242.246C241.889 242.329 236.633 242.267 231.377 242.267C229.225 242.267 227.015 241.951 224.933 242.333C220.56 243.134 216.239 236.878 215.942 232.879C215.501 226.923 214.95 220.972 214.285 215.036C213.697 209.779 216.761 205.036 221.914 203.496C222.468 203.33 223.139 202.914 223.376 202.429C225.057 198.987 228.191 198.561 231.427 198.576ZM273.185 216.308C268.988 216.727 268.167 218.09 269.14 222.258C269.801 225.09 270.768 227.851 271.875 230.92C272.97 234.678 274.342 238.4 278.484 239.644C281.396 240.518 284.511 240.995 287.553 241.095C294.035 241.308 300.529 241.22 307.017 241.127C309.251 241.095 311.411 240.509 312.322 238.063C313.632 234.546 314.972 231.034 316.102 227.458C316.459 226.33 316.698 224.559 316.093 223.854C314.678 222.206 312.915 220.532 310.944 219.747C304.556 217.204 297.89 215.307 290.985 215.235C285.054 215.173 279.098 215.718 273.185 216.308ZM225.463 205.262C220.251 205.848 217.078 207.405 217.108 214.222C217.122 217.558 217.374 220.898 217.653 224.225C217.926 227.491 218.384 230.742 218.734 234.002C219.005 236.523 221.427 239.395 223.647 239.475C230.575 239.726 237.509 240.059 244.437 239.997C250.856 239.94 251.847 238.55 251.984 231.952C252.081 227.269 252.503 222.592 253.056 217.636C253.619 212.8 251.721 209.033 247.569 206.747C245.446 205.579 242.846 204.81 240.433 204.732C235.45 204.573 230.415 204.706 225.463 205.262ZM289.508 219.217C289.534 219.786 289.796 220.498 289.55 220.901C287.623 224.054 285.598 227.148 283.607 230.261C283.376 230.622 283.233 231.071 282.929 231.342C282.515 231.712 281.984 231.951 281.503 232.245C281.311 231.554 280.806 230.76 280.994 230.195C281.336 229.166 282.088 228.272 282.807 227.184C284.626 224.628 286.274 222.186 288.019 219.816C288.289 219.449 289 219.408 289.508 219.217ZM282.711 222.937C282.292 223.882 281.976 224.892 281.426 225.753C280.77 226.781 279.913 227.681 279.142 228.635C278.194 229.808 277.635 229.578 277.41 227.876C278.115 226.526 278.651 225.267 279.573 224.435C280.398 223.691 281.649 223.418 282.711 222.937ZM235.679 216.928C235.848 216.92 236.362 218.19 236.205 218.344C233.546 220.946 230.817 223.478 228.058 225.975C227.876 226.14 227.126 226.024 226.991 225.813C226.775 225.478 226.645 224.769 226.846 224.54C227.876 223.366 229.036 222.308 230.121 221.181C230.379 220.913 230.527 220.539 230.726 220.213C230.346 220.351 229.892 220.398 229.6 220.64C228.152 221.843 226.78 223.141 225.306 224.31C224.796 224.715 224.068 224.847 223.439 225.104C223.533 224.389 223.413 223.538 223.766 222.99C224.439 221.944 225.381 221.071 226.488 220.127C228.867 216.669 232.392 217.073 235.679 216.928ZM283.364 211.297C282.996 211.381 282.714 211.842 282.392 212.127C282.731 212.395 283.063 212.884 283.411 212.895C285.622 212.966 287.847 212.794 290.047 212.964C293.132 213.203 296.199 213.669 299.827 214.038C300.446 214.103 301.065 214.223 301.683 214.217C302.194 214.212 302.704 214.059 303.215 213.972C302.964 213.581 302.776 213.12 302.445 212.817C302.073 212.476 301.6 212.132 301.122 212.038C295.242 210.879 289.344 209.933 283.364 211.297ZM231.193 200.754C230.256 200.939 229.296 201.047 228.392 201.334C227.774 201.531 227.236 201.977 226.662 202.312C227.4 202.531 228.145 202.956 228.875 202.932C231.84 202.835 234.802 202.63 237.76 202.391C238.443 202.336 239.102 201.99 239.772 201.777C239.03 201.436 238.306 200.857 237.543 200.801C235.62 200.66 233.68 200.754 231.193 200.754Z" fill="#00160A"/>
</svg>
