<svg width="750" height="750" viewBox="0 0 750 750" fill="none" xmlns="http://www.w3.org/2000/svg">
<rect width="750" height="750" fill="none"/>
<path fill-rule="evenodd" clip-rule="evenodd" d="M68.8887 577.946C67.3595 570.911 65.6825 563.908 64.2182 556.861C63.51 553.453 63.1052 549.979 62.6235 546.527C61.7254 540.088 60.8378 533.647 60.0174 527.199C59.7288 524.93 59.522 522.637 59.496 520.352C59.2854 501.846 58.7823 483.333 59.1055 464.835C59.2551 456.269 61.0314 447.73 62.0963 439.181C63.4972 427.937 66.4399 417.049 69.8352 406.276C74.7217 390.772 79.6693 375.287 84.6009 359.796C87.2502 351.475 90.0954 343.21 92.5033 334.819C93.6145 330.947 94.0637 326.854 94.4931 322.827C94.9013 318.999 95.3377 315.083 94.9707 311.283C94.284 304.172 93.1026 297.104 91.9803 290.042C91.0223 284.013 89.9024 278.009 88.776 272.009C87.0264 262.69 86.5098 253.285 86.6977 243.829C86.846 236.369 86.616 228.87 87.3171 221.461C88.3305 210.751 89.8721 200.02 94.1003 190.025C97.3355 182.377 100.921 174.821 105.044 167.621C109.116 160.508 113.952 153.819 118.659 147.088C121.531 142.983 124.574 138.952 127.931 135.242C133.103 129.526 138.451 123.946 144.015 118.613C152.705 110.284 162.44 103.263 172.786 97.1404C182.55 91.3621 192.883 86.7822 203.735 83.429C211.163 81.1338 218.654 79.0393 226.047 76.6369C231.335 74.9181 236.404 72.4607 241.756 71.0142C248.397 69.219 255.184 67.8404 261.988 66.8108C268.972 65.7541 276.047 65.2746 283.091 64.6579C288.259 64.2056 293.438 63.8305 298.619 63.6178C305.521 63.3344 312.429 63.1654 319.336 63.0877C327.157 62.9998 334.984 62.9356 342.803 63.1103C348.769 63.2436 354.733 63.6794 360.686 64.1353C368.69 64.7483 376.689 65.442 384.677 66.2303C390.592 66.814 396.513 67.4368 402.385 68.3421C410.38 69.5747 418.352 70.982 426.296 72.5153C437.501 74.6781 448.753 76.6869 459.833 79.3853C471.538 82.2359 483.246 85.3102 494.237 90.4128C504.12 95.0009 514.02 99.5925 523.633 104.709C532.39 109.371 540.757 114.764 549.325 119.785C552.613 121.712 556.035 123.414 559.297 125.382C561.484 126.702 563.688 128.104 565.557 129.824C574.049 137.638 582.464 145.537 590.827 153.49C594.86 157.325 598.717 161.346 602.654 165.283C607.073 169.702 611.704 173.934 615.86 178.589C621.136 184.498 625.975 190.795 631.098 196.843C637.988 204.978 642.61 214.465 647.607 223.76C651 230.07 653.11 236.843 655.589 243.486C657.283 248.026 659.223 252.598 659.995 257.329C661.174 264.55 665.45 270.285 668.016 276.805C670.645 283.486 672.744 290.379 674.976 297.211C676.885 303.057 678.867 308.892 680.421 314.835C681.852 320.306 682.768 325.912 683.885 331.464C684.745 335.736 685.644 340.002 686.377 344.295C686.897 347.341 687.161 350.429 687.555 353.496C688.246 358.878 688.992 364.253 689.632 369.64C690.06 373.237 690.446 376.844 690.668 380.458C690.948 385.002 691.05 389.558 691.215 394.109C691.399 399.182 691.904 404.272 691.673 409.327C691.129 421.241 671.517 469.136 663.599 480.887C659.007 487.701 654.583 494.63 649.872 501.36C643.7 510.176 637.388 518.897 631.011 527.568C623.376 537.949 615.704 548.306 607.859 558.528C604.153 563.358 600.089 567.924 596.033 572.473C592.642 576.274 589.24 580.111 585.467 583.516C578.098 590.162 570.501 596.559 562.935 602.984C552.962 611.451 542.021 618.612 530.715 625.056C521.488 630.314 511.72 634.74 501.886 638.791C487.057 644.899 471.988 650.431 456.971 656.071C445.494 660.382 434.014 664.71 422.393 668.605C412.565 671.899 402.608 674.874 392.569 677.447C384.07 679.626 375.395 681.155 366.753 682.727C360.701 683.827 354.589 684.643 348.477 685.351C342.52 686.042 336.532 686.468 330.552 686.944C327.403 687.195 324.245 687.399 321.087 687.465C310.606 687.683 300.124 687.912 289.642 687.969C284.481 687.997 279.307 687.824 274.161 687.441C266.937 686.903 259.701 686.318 252.53 685.326C244.349 684.195 236.239 682.557 228.086 681.213C221.377 680.106 214.62 679.269 207.938 678.024C196.468 675.887 184.984 673.763 173.61 671.18C164.505 669.113 155.44 666.722 146.561 663.848C132.435 659.276 119.198 652.729 107.246 643.839C103.24 640.859 99.2766 637.671 95.9058 634.014C87.8742 625.3 81.4161 615.469 76.7479 604.261C73.1752 595.602 70.8221 586.84 68.8887 577.946Z" />
<path d="M407.012 596.933C405.964 602.43 405.548 607.9 403.711 612.842C401.328 619.254 395.812 623.129 389.443 625.101C382.446 627.267 375.24 628.785 368.079 630.375C365.7 630.903 363.179 630.802 360.72 630.95C351.867 631.484 343.011 631.98 334.159 632.533C329.329 632.834 324.508 633.285 319.677 633.553C315.044 633.811 310.4 634.106 305.766 634.035C304.738 634.02 298.31 634.949 289.316 635.581C287.57 635.704 290.288 645.139 287.148 646.128C280.152 648.333 263.016 647.714 260.026 643.035C257.037 638.356 258.097 636.385 254.782 635.033C238.574 628.418 221.879 626.873 216.987 612.842C213.73 603.503 219.928 581.378 218.126 564.393C213.504 520.839 204.312 472.241 204.012 471.992C204.043 471.959 194.224 472.798 193.493 469.199C184.421 424.545 180.283 365.694 204.012 350.854C218.301 341.918 245.519 332.74 275.693 325.243C280.079 324.154 282.668 317.71 287.148 316.697C288.15 316.471 291.216 310.649 293.845 304.801C296.493 298.912 298.72 292.995 304.156 292.737C315.33 292.205 334.606 277.893 347.682 282.359C359.657 286.448 365.728 309.469 370.352 306.681C375.013 303.871 379.137 308.749 385.521 308.749C431.213 308.749 465.626 395.551 470.411 416.909C462.414 428.449 438.729 428.449 416.348 435.287C412.645 430.719 405.204 417.02 402.801 409.313C400.327 401.383 399.474 419.367 399.301 425.74C399.077 433.982 399.816 442.255 400.223 450.51C400.491 455.952 400.936 461.384 401.248 466.824C401.795 476.374 402.373 485.923 402.801 495.479C403.101 502.204 402.971 508.953 403.405 515.667C403.848 522.546 404.765 529.394 405.434 536.26C405.827 540.297 406.186 544.34 406.474 548.386C406.718 551.797 407.061 555.224 406.964 558.633C406.778 565.239 406.087 571.836 406.058 578.438C406.043 581.886 407.198 585.325 407.437 588.794C407.616 591.398 407.176 594.044 407.012 596.933Z" fill="white"/>
<path d="M480.074 185.064C477.127 182.273 475.326 178.786 473.009 175.683C472.941 175.592 472.875 175.496 472.828 175.394C471.015 171.46 469.244 167.528 468.383 163.228C467.879 160.717 467.901 158.27 468.282 155.78C468.472 154.541 468.552 153.283 468.798 152.057C469.553 148.295 471.388 145.019 473.54 141.903C474.188 140.966 474.932 140.093 475.562 139.144C477.924 135.591 481.256 133.303 485.136 131.709C487.661 130.672 490.253 129.797 492.724 128.624C493.028 128.48 493.363 128.351 493.694 128.32C497.781 127.933 501.867 127.531 505.96 127.205C509.951 126.886 513.949 126.974 517.943 127.232C520.107 127.371 522.28 127.431 524.436 127.65C529.111 128.125 533.632 129.18 537.972 131.078C541.004 132.404 544.061 133.644 546.968 135.247C550.309 137.09 553.142 139.537 555.825 142.196C557.053 143.413 557.993 144.839 558.832 146.338C559.335 147.233 559.779 148.17 560.366 149.006C563.781 153.867 564.518 159.279 563.689 165.002C563.494 166.351 563.061 167.668 563.174 169.057C562.5 171.829 561.845 174.613 560.193 177.013C558.896 178.896 557.491 180.691 555.743 182.191C555.137 182.711 554.527 183.235 553.98 183.814C552.793 185.071 551.345 185.972 549.973 186.992C547.018 189.189 543.726 190.74 540.469 192.372C540.065 192.574 539.636 192.736 539.202 192.867C537.458 193.398 535.708 193.911 533.959 194.427C531.989 195.007 530.029 195.623 528.044 196.151C524.938 196.978 521.716 196.99 518.552 197.41C518.105 197.469 517.632 197.437 517.186 197.361C513.809 196.788 510.387 196.613 506.994 196.19C506.43 196.12 505.876 195.973 505.319 195.857C501.519 195.066 497.697 194.364 494.011 193.107C493.088 192.793 492.254 192.864 491.394 193.369C490.412 193.945 489.369 194.417 488.342 194.916C486.172 195.969 484.284 197.451 482.329 198.833C481.774 199.225 481.192 199.582 480.601 199.918C480.144 200.177 479.362 199.787 479.242 199.246C479.094 198.581 478.949 197.923 479.145 197.224C480.243 193.326 480.205 189.339 480.074 185.064Z" fill="white"/>
<path fill-rule="evenodd" clip-rule="evenodd" d="M288.633 313.457C288.633 313.457 293.607 306.647 295.324 303.097C297.041 299.547 298.656 292.737 298.656 292.737C298.656 292.737 334.149 342.991 328.533 343.645C317.306 344.953 288.633 313.457 288.633 313.457Z" fill="#E7EAEE"/>
<path d="M441.687 474.327C436.068 465.393 424.128 444.568 418.629 435.771C418.502 435.568 444.107 412.024 466.899 417.984C469.162 418.576 473.513 427.397 475.647 428.449C479.619 430.407 478.909 420.839 486.511 407.358C498.481 386.131 520.529 354.43 529.184 335.506C532.702 327.814 530.215 321.819 529.844 320.14C528.47 313.927 525.247 308.859 520.593 304.602C517.574 301.841 517.454 295.679 520.891 293.981C523.429 292.728 526.29 292.331 529.184 293.777C532.49 295.428 535.78 296.99 538.054 300.068C538.361 300.484 538.9 300.728 539.332 301.052C539.54 300.527 539.769 300.01 539.952 299.477C541.784 294.13 543.47 288.728 545.478 283.449C547.252 278.783 549.217 274.17 551.449 269.709C552.185 268.239 554.04 266.346 555.343 266.376C557.262 266.419 558.513 268.491 558.801 270.663C558.954 271.814 559.117 272.966 559.334 274.107C559.43 274.608 559.672 275.081 559.848 275.567C560.196 275.151 560.518 274.71 560.896 274.323C562.035 273.156 563.046 271.78 564.385 270.913C566.223 269.721 568.317 271.045 568.17 273.334C567.965 276.495 567.719 279.709 566.956 282.768C565.584 288.266 563.81 293.665 562.225 299.111C562.13 299.435 562.222 299.814 562.226 300.167C562.583 299.975 563.116 299.875 563.268 299.578C564.266 297.642 565.334 295.72 566.09 293.687C567.313 290.4 569.162 287.585 571.838 285.363C572.46 284.845 573.47 284.795 574.302 284.529C574.542 285.302 575.143 286.172 574.965 286.832C573.677 291.603 572.563 296.461 570.77 301.048C566.252 312.604 561.427 324.039 556.683 335.506C553.941 342.132 550.757 348.601 548.43 355.367C546.057 362.266 544.675 369.499 542.522 376.481C540.238 383.884 537.606 391.182 535.038 398.495C531.134 409.609 527.621 420.893 523.057 431.731C519.489 440.202 514.845 448.263 510.173 456.209C506.673 462.163 502.666 467.886 498.308 473.243C495.749 476.39 492.114 478.684 488.872 481.248C483.683 485.352 477.79 487.971 471.339 489.45C463.914 491.152 457.324 489.827 451.783 484.41C448.427 481.128 445.137 477.778 441.687 474.327Z" fill="white"/>
<path fill-rule="evenodd" clip-rule="evenodd" d="M267.012 254.055C266.297 255.502 266.343 256.768 267.275 257.996C267.693 258.547 268.145 259.072 268.597 259.597C269.082 260.16 269.567 260.724 270.01 261.319C270.678 262.218 271.369 263.106 272.06 263.994C273.875 266.325 275.691 268.658 277.116 271.208C279.128 274.811 281.459 277.468 285.689 278.231C287.406 278.541 288.054 279.913 288.26 281.719C288.546 284.233 289.014 286.782 289.849 289.16C290.446 290.861 292.026 291.989 294.038 291.771C294.981 291.669 295.92 291.51 296.859 291.351C298.304 291.106 299.747 290.861 301.197 290.826C302.586 290.793 304.388 291.156 305.322 292.052C307.818 294.446 310.116 297.05 312.412 299.65C312.887 300.188 313.361 300.725 313.837 301.261C314.013 301.458 314.185 301.657 314.356 301.855L314.357 301.856C316.033 303.793 317.591 305.593 320.923 304.437C324.879 303.065 329.039 302.45 333.33 302.729C337.266 302.985 338.803 301.652 340.014 297.798C340.139 297.403 340.244 296.999 340.349 296.595L340.349 296.595C340.552 295.816 340.755 295.037 341.094 294.322C341.223 294.052 341.35 293.777 341.478 293.502L341.478 293.501C342.178 291.992 342.893 290.449 343.972 289.263C345.922 287.122 348.449 287.451 351.039 288.369C353.955 289.403 355.467 288.769 356.725 286.119C357.257 284.997 357.433 285.011 358.407 285.729C359.194 286.31 360.435 286.578 361.439 286.504C363.924 286.32 366.412 285.973 368.847 285.452C369.727 285.264 370.893 284.568 371.194 283.811C371.562 282.886 371.932 281.961 372.302 281.036C374.391 275.82 376.483 270.596 378.156 265.245C380.878 256.541 382.905 247.629 382.9 238.435C382.897 232.275 382.716 226.116 382.536 219.957C382.49 218.396 382.444 216.835 382.401 215.274C382.381 214.534 382.363 213.793 382.345 213.052L382.345 213.049V213.049C382.265 209.671 382.184 206.289 381.845 202.935C381.233 196.884 380.444 190.849 379.656 184.816L379.654 184.8C379.522 183.792 379.391 182.783 379.26 181.775C378.874 178.803 378.424 175.839 377.975 172.875L377.974 172.872C377.826 171.893 377.677 170.913 377.531 169.934L377.214 167.81C376.512 163.099 375.81 158.387 375.067 153.681C375.038 153.497 375.012 153.307 374.985 153.114C374.85 152.135 374.704 151.085 374.152 150.423C373.658 149.832 373.165 149.239 372.673 148.645C369.52 144.847 366.358 141.039 362.841 137.602C360.081 134.906 356.756 132.741 353.49 130.615L353.065 130.338C344.141 124.524 334.145 121.906 323.638 121.215C320.759 121.026 317.865 121.07 314.97 121.113C313.237 121.14 311.504 121.166 309.773 121.142C308.193 121.12 307.338 121.623 306.312 123.002C304.952 124.83 302.919 126.302 300.911 127.478C295.898 130.416 291.486 133.866 288.098 138.716C283.647 145.087 279.569 151.642 276.904 158.949C274.848 164.586 273.426 170.375 272.936 176.438C272.777 178.395 272.383 180.327 271.988 182.26C271.224 186 270.459 189.745 271.403 193.689C271.81 195.388 272.046 197.131 272.283 198.873C272.56 200.915 272.837 202.955 273.388 204.921C273.489 205.283 273.591 205.644 273.692 206.005C275.449 212.25 277.172 218.379 276.829 225.099C276.461 232.323 273.898 238.634 270.928 245.472C270.549 246.311 270.175 247.153 269.802 247.994L269.802 247.995L269.802 247.995C268.9 250.029 267.998 252.063 267.012 254.055ZM384.504 206.492C384.508 206.554 384.501 206.621 384.494 206.687C384.481 206.807 384.469 206.924 384.518 207.006C384.67 207.259 384.853 207.494 385.036 207.729C385.108 207.822 385.18 207.915 385.251 208.009C385.328 207.939 385.41 207.873 385.491 207.806L385.491 207.806C385.666 207.662 385.841 207.518 385.983 207.346C386.385 206.859 386.79 206.373 387.194 205.888L387.195 205.887L387.196 205.886C388.348 204.504 389.501 203.122 390.583 201.686C392.968 198.518 395.3 195.309 397.585 192.067C398.932 190.156 397.592 189.365 395.995 189.251C392.669 189.015 389.852 190.421 386.994 192.064C384.952 193.238 383.448 194.221 383.982 197.319L384.062 198.712C384.21 201.305 384.358 203.898 384.504 206.492ZM270.601 207.962C270.529 208.079 270.457 208.197 270.405 208.31C268.982 207.632 267.663 206.822 266.357 206.02C265.214 205.318 264.081 204.623 262.898 204.027C260.223 202.681 259.282 200.235 258.426 197.805C257.44 195.008 259.634 192.337 262.608 192.357C262.74 192.358 262.873 192.358 263.006 192.359C264.066 192.363 265.143 192.366 266.162 192.59C268.165 193.029 268.364 194.581 268.555 196.077C268.614 196.541 268.673 196.999 268.785 197.418C269.5 200.094 270.022 202.823 270.544 205.55C270.652 206.114 270.76 206.678 270.87 207.241C270.912 207.456 270.756 207.709 270.601 207.962Z" fill="white"/>
<circle cx="366" cy="239" r="7" fill="#FFB61D"/>
<circle cx="293" cy="233" r="7" fill="#FFB61D"/>
<path fill-rule="evenodd" clip-rule="evenodd" d="M326.092 148.654C330.081 149.511 334.407 150.551 338.438 148.362C339.803 147.621 341.086 146.708 342.33 145.772C343.089 145.201 343.772 144.492 344.368 143.748C349.103 137.846 352.597 138.727 359.117 142.581C367.458 147.511 377.117 161.873 351.256 161.873C338.23 161.873 286.203 154.78 293.467 147.729C296.436 144.848 300.326 142.919 303.772 140.522C305.07 139.619 306.391 138.715 307.536 137.636C309.196 136.073 310.202 136.898 311.238 138.335C312.6 140.224 314.021 142.069 315.548 144.063C319.138 145.735 322.469 147.876 326.092 148.654Z" fill="#E7EAEE"/>
<path fill-rule="evenodd" clip-rule="evenodd" d="M465.478 418.668C464.126 419.482 462.776 420.294 461.324 420.845C457.812 422.177 454.251 423.381 450.655 424.598L450.654 424.598C448.377 425.369 446.085 426.144 443.781 426.96C443.087 427.23 442.477 427.408 441.886 427.58L441.885 427.58C441.746 427.621 441.608 427.661 441.471 427.702C439.414 428.314 437.358 428.933 435.303 429.551L435.302 429.551L435.302 429.551L435.301 429.552L435.3 429.552L435.3 429.552L435.299 429.552L435.298 429.552L435.298 429.553L435.297 429.553L435.296 429.553L435.296 429.553L435.295 429.553L435.294 429.553L435.293 429.554C430.136 431.105 424.979 432.657 419.795 434.111C417.695 434.7 415.959 434.04 414.818 431.77C411.982 426.129 408.948 420.585 405.895 415.057C405.683 414.673 405.16 414.462 404.637 414.25C404.394 414.152 404.151 414.054 403.939 413.938C403.86 414.206 403.734 414.497 403.607 414.789C403.335 415.417 403.063 416.045 403.263 416.428C406.666 422.968 410.161 429.464 413.817 435.865C414.269 436.657 415.906 437.384 416.809 437.205C421.609 436.259 426.373 435.102 431.104 433.848C432.933 433.363 434.742 432.796 436.551 432.23C439.158 431.413 441.763 430.597 444.422 430.028C453.553 428.073 462.289 425.25 470.126 420.029C472.94 418.154 473.712 415.287 472.344 412.316C471.869 411.287 471.386 410.26 470.902 409.232L470.901 409.231L470.901 409.229L470.9 409.227L470.899 409.226L470.898 409.224L470.898 409.222L470.897 409.221L470.896 409.219L470.895 409.218L470.895 409.216L470.892 409.21C469.213 405.643 467.531 402.071 466.216 398.372C462.184 387.034 457.646 375.915 452.302 365.144C448.92 358.327 445.329 351.6 441.513 345.018C436.414 336.224 431.074 327.437 422.876 321.18C417.182 316.834 411.084 312.741 404.601 309.77C395.125 305.429 384.718 304.478 374.362 303.756C372.246 303.608 370.022 302.815 368.154 301.772C364.406 299.681 362.884 295.977 361.351 292.248C361.183 291.84 361.015 291.431 360.844 291.025C360.087 289.226 361.305 288.889 362.071 288.73C364.044 288.322 366.128 287.999 368.111 288.199C371.202 288.511 372.902 287.073 374.036 284.51C376.818 278.225 379.254 271.834 381.093 265.182C383.639 255.973 385.814 246.765 385.582 237.114C385.481 232.932 385.505 228.746 385.528 224.561V224.559C385.54 222.377 385.552 220.194 385.547 218.012C385.545 217.416 385.473 216.793 385.401 216.172C385.256 214.924 385.112 213.683 385.547 212.688C386.615 210.242 388.37 208.046 390.073 205.936C391.421 204.267 392.828 202.646 394.236 201.025C395.941 199.061 397.646 197.098 399.243 195.049C400.529 193.399 401.488 191.298 400.193 189.107C398.928 186.967 396.899 186.098 394.542 186.63C394.138 186.721 393.731 186.807 393.323 186.893C390.36 187.52 387.364 188.154 385.272 190.781C384.267 192.043 383.686 192.047 383.425 190.217C383.232 188.857 382.957 187.509 382.682 186.161C382.397 184.765 382.112 183.37 381.918 181.961C381.679 180.225 381.518 178.479 381.357 176.733C381.202 175.043 381.046 173.353 380.82 171.673C380.502 169.314 380.143 166.961 379.784 164.607C379.241 161.044 378.698 157.482 378.297 153.904C378.059 151.779 377.469 150.077 376.043 148.528C375.304 147.724 374.552 146.928 373.801 146.132C371.497 143.691 369.19 141.248 367.203 138.57C361.72 131.182 353.933 127.307 345.853 123.793C340.646 121.529 335.262 119.909 329.536 119.582C327.017 119.439 324.499 119.259 321.981 119.08C319.411 118.896 316.84 118.713 314.267 118.568C312.15 118.448 309.998 118.363 307.907 118.626C306.868 118.757 305.828 119.588 304.971 120.317C304.124 121.036 303.319 121.805 302.513 122.574C301.476 123.565 300.439 124.555 299.316 125.437C298.132 126.367 296.877 127.22 295.625 128.073C293.569 129.472 291.517 130.869 289.786 132.594C287.797 134.578 286.208 136.968 284.621 139.354L284.621 139.354L284.621 139.355C284.037 140.233 283.454 141.11 282.851 141.967C278.376 148.325 274.938 155.196 273.045 162.76C271.874 167.442 270.882 172.17 269.897 176.896L269.741 177.644C269.019 181.104 268.294 184.572 267.839 188.07L267.819 188.225C267.46 190.996 267.432 191.207 264.774 190.224C262.028 189.209 259.662 189.894 257.729 191.757C255.83 193.587 255.621 196.056 256.281 198.544C258.215 205.833 263.786 208.884 270.445 210.702C271.026 210.861 271.668 211.428 271.945 211.975C274.816 217.654 274.94 223.695 273.123 229.552C271.45 234.945 269.468 240.242 267.486 245.539L267.486 245.539L267.486 245.539L267.486 245.539L267.486 245.539L267.486 245.54L267.486 245.54L267.486 245.54L267.486 245.54L267.486 245.54L267.486 245.54L267.486 245.54L267.485 245.541L267.485 245.541L267.485 245.541L267.485 245.542L267.485 245.542L267.485 245.543L267.485 245.543L267.484 245.543L267.484 245.544L267.484 245.544L267.484 245.545L267.484 245.545L267.484 245.546L267.483 245.546L267.483 245.547L267.483 245.547L267.483 245.548C266.609 247.883 265.735 250.218 264.888 252.562C264.015 254.978 263.536 257.193 265.537 259.532C269.84 264.565 273.949 269.774 277.053 275.677C278.284 278.018 280.173 279.703 282.707 280.211C285.121 280.696 285.448 281.889 285.733 284.154C286.107 287.139 287.101 290.276 288.713 292.777C289.225 293.571 290.606 293.785 292.019 294.005C292.767 294.122 293.524 294.239 294.167 294.445C294.691 294.613 295.524 295.313 295.46 295.597C295.345 296.102 295.234 296.609 295.122 297.117L295.122 297.117L295.122 297.118L295.122 297.119L295.122 297.119C294.586 299.557 294.048 302.007 293.143 304.308C291.162 309.346 286.948 312.498 282.858 315.557C282.299 315.975 281.743 316.392 281.194 316.811C274.054 322.27 265.559 325.268 257.025 327.855C253.015 329.071 248.946 330.094 244.877 331.117L244.876 331.117C242.236 331.781 239.596 332.445 236.971 333.162C235.336 333.608 233.719 334.137 232.104 334.665L232.104 334.665L232.104 334.665L232.104 334.665L232.103 334.665L232.103 334.665L232.103 334.665L232.103 334.665L232.103 334.665L232.103 334.665L232.103 334.665L232.103 334.665L232.102 334.665L232.102 334.665L232.102 334.665C229.707 335.448 227.314 336.23 224.863 336.744C215.443 338.72 207.134 342.785 199.836 349.011C194.93 353.195 192.297 358.822 189.65 364.48C189.521 364.755 189.392 365.03 189.263 365.305C185.685 372.932 182.547 381.064 182.105 389.317C181.981 391.632 182.158 393.961 182.335 396.292C182.424 397.471 182.514 398.649 182.564 399.827C182.678 402.473 182.775 405.121 182.873 407.769C183.085 413.528 183.297 419.286 183.676 425.034C183.888 428.239 184.458 431.424 185.027 434.604L185.027 434.604C185.191 435.517 185.354 436.43 185.509 437.342C185.93 439.826 186.4 442.302 186.871 444.778C187.184 446.429 187.498 448.081 187.797 449.735C187.992 450.814 188.202 451.892 188.411 452.969L188.411 452.97C188.975 455.869 189.539 458.77 189.825 461.697C190.088 464.387 190.011 467.112 189.935 469.833C189.912 470.638 189.89 471.443 189.876 472.247C189.852 473.663 190.099 474.809 191.801 474.425C193.482 474.045 195.135 473.535 196.786 473.024C197.305 472.863 197.824 472.703 198.344 472.547C200.097 472.019 201.171 472.637 201.397 474.44C201.621 476.223 201.818 478.009 202.015 479.795C202.314 482.507 202.613 485.218 203.005 487.915C203.958 494.474 205.006 501.02 206.136 507.551C208.211 519.538 211.202 531.312 215.131 542.816C218.625 553.043 222.403 563.175 226.218 573.288C228.416 579.112 230.766 584.88 233.116 590.646C233.717 592.12 234.317 593.594 234.915 595.068C237.338 601.043 239.813 606.996 242.292 612.948C242.867 614.329 243.436 615.713 244.004 617.097C245.671 621.157 247.338 625.217 249.178 629.197C250.776 632.652 252.591 636.007 254.406 639.36C254.941 640.35 255.477 641.339 256.006 642.331C256.171 642.639 256.501 642.858 256.832 643.078C256.985 643.18 257.139 643.282 257.276 643.392C257.342 643.211 257.419 643.03 257.495 642.85C257.675 642.427 257.855 642.005 257.896 641.569C257.928 641.228 257.735 640.856 257.55 640.499C257.501 640.405 257.453 640.313 257.409 640.222C256.792 638.928 256.154 637.643 255.515 636.358C254.177 633.664 252.838 630.97 251.695 628.196C247.736 618.583 243.938 608.902 240.154 599.218C238.454 594.867 236.792 590.5 235.129 586.134C233.493 581.836 231.857 577.537 230.184 573.253C229.144 570.589 228.044 567.946 226.945 565.303C224.977 560.573 223.01 555.843 221.384 550.998C217.934 540.711 214.847 530.287 212.052 519.802C210.477 513.894 209.395 507.849 208.314 501.815L208.314 501.814C208.12 500.729 207.926 499.644 207.729 498.561C207.184 495.564 206.837 492.531 206.49 489.498C206.371 488.463 206.253 487.428 206.127 486.395C205.578 481.905 205.061 477.41 204.558 472.914C204.391 471.416 205.054 470.706 206.583 470.222C212.44 468.368 218.268 466.426 224.097 464.484C226.164 463.795 228.232 463.105 230.301 462.42C231.84 461.911 233.479 461.422 235.163 460.92C241.401 459.06 248.267 457.014 253.015 453.019C253.29 452.788 254.009 452.656 254.182 452.825C254.492 453.129 254.711 453.708 254.678 454.151C254.514 456.368 254.315 458.585 254.116 460.8C253.724 465.17 253.332 469.54 253.209 473.917C253.053 479.469 253.319 485.038 253.585 490.597L253.585 490.597L253.586 490.6L253.586 490.602L253.586 490.605L253.586 490.607L253.586 490.61L253.586 490.612L253.586 490.615L253.586 490.618L253.586 490.62L253.587 490.623L253.587 490.625L253.587 490.628C253.622 491.352 253.656 492.076 253.69 492.799C253.854 496.327 254.117 499.883 254.75 503.35C256.36 512.173 259.701 520.429 263.624 528.448C264.194 529.614 264.872 530.736 265.55 531.856C266.562 533.531 267.573 535.203 268.215 537.01C269.198 539.774 270.237 542.519 271.276 545.265C274.129 552.804 276.983 560.344 278.677 568.276C279.21 570.771 279.832 573.247 280.454 575.723C281.145 578.471 281.835 581.218 282.403 583.991C283.28 588.267 283.962 592.584 284.645 596.899L284.645 596.9L284.645 596.901L284.645 596.902L284.645 596.903C284.802 597.896 284.959 598.889 285.119 599.882C285.313 601.096 285.531 602.31 285.749 603.525C286.339 606.821 286.93 610.121 287.073 613.438C287.356 620.037 287.446 626.644 287.536 633.252C287.584 636.78 287.632 640.308 287.71 643.834C287.721 644.36 287.944 644.881 288.168 645.402C288.272 645.644 288.376 645.886 288.458 646.129C288.597 645.883 288.768 645.64 288.94 645.397C289.312 644.871 289.684 644.345 289.716 643.799C289.889 640.825 289.99 637.846 290.092 634.867L290.092 634.866L290.092 634.865L290.092 634.863L290.092 634.862L290.092 634.861L290.092 634.86L290.092 634.858L290.092 634.857L290.092 634.856L290.092 634.854L290.092 634.853L290.092 634.852L290.092 634.851L290.092 634.849C290.158 632.934 290.223 631.018 290.307 629.104C290.347 628.19 290.443 627.277 290.538 626.364L290.538 626.363L290.538 626.363L290.538 626.363L290.538 626.363L290.538 626.362L290.538 626.362L290.538 626.362L290.538 626.362L290.538 626.361L290.538 626.361L290.538 626.361L290.538 626.36L290.538 626.36L290.538 626.36C290.681 624.989 290.823 623.62 290.78 622.256C290.735 620.831 290.695 619.406 290.654 617.981L290.654 617.979L290.654 617.978L290.654 617.976L290.654 617.975L290.654 617.973L290.654 617.972L290.654 617.97L290.654 617.969L290.654 617.967L290.654 617.966L290.654 617.965L290.654 617.963C290.467 611.418 290.281 604.868 289.666 598.361C289.254 593.997 288.22 589.68 287.191 585.383C286.994 584.558 286.796 583.733 286.604 582.91C286.142 580.937 285.691 578.959 285.24 576.982C283.642 569.97 282.043 562.953 279.942 556.092C276.493 544.825 271.81 534.011 266.431 523.485C263.986 518.7 261.936 513.593 260.563 508.406C257.867 498.22 257.633 487.691 257.401 477.221L257.379 476.236C257.271 471.418 257.469 466.592 257.667 461.768L257.667 461.767L257.667 461.765C257.735 460.119 257.803 458.473 257.858 456.828C257.931 454.667 258.097 452.508 258.263 450.35L258.263 450.347L258.263 450.343L258.263 450.34L258.264 450.337L258.264 450.333C258.3 449.866 258.336 449.399 258.371 448.932C258.532 446.782 258.728 444.633 258.924 442.483L258.925 442.482C259.354 437.784 259.783 433.087 259.842 428.384C259.889 424.602 259.643 420.817 259.398 417.031C259.194 413.895 258.991 410.759 258.953 407.621C258.901 403.194 257.623 399.102 256.344 395.008C255.939 393.709 255.533 392.41 255.167 391.1C255.026 390.597 254.505 390.2 253.984 389.803C253.743 389.619 253.502 389.435 253.299 389.241C253.219 389.525 253.105 389.816 252.99 390.107C252.74 390.743 252.49 391.378 252.605 391.94C252.833 393.066 253.175 394.175 253.515 395.283C253.992 396.833 254.468 398.379 254.632 399.962C255.368 407.05 256.065 414.17 256.179 421.287C256.227 424.266 255.995 427.252 255.762 430.237C255.503 433.567 255.243 436.896 255.374 440.211C255.56 444.941 253.147 447.456 249.916 449.856C245.666 453.013 239.595 454.837 234.145 456.475C232.701 456.909 231.301 457.33 229.989 457.759C221.844 460.424 213.747 463.237 205.65 466.05C202.306 467.212 198.962 468.374 195.614 469.526L195.558 469.545C194.439 469.931 193.516 470.249 193.517 468.339C193.519 466.011 193.278 463.676 193.038 461.354L193.025 461.23C192.888 459.908 192.754 458.586 192.62 457.265L192.62 457.262L192.62 457.262C192.102 452.151 191.584 447.04 190.91 441.95C190.499 438.841 189.999 435.743 189.499 432.645C188.901 428.942 188.304 425.24 187.858 421.52C187.23 416.289 186.857 411.001 186.815 405.735C186.772 400.401 186.936 395.065 187.1 389.729L187.1 389.729C187.164 387.635 187.229 385.541 187.281 383.447C187.42 377.828 190.179 372.673 192.869 367.646C193.876 365.765 194.873 363.902 195.72 362.04C200.014 352.592 208.1 347.383 217.203 343.703C221.576 341.935 226.139 340.628 230.7 339.323L230.7 339.323L230.7 339.323L230.7 339.323L230.7 339.323L230.7 339.323L230.7 339.323L230.701 339.322L230.701 339.322L230.701 339.322L230.701 339.322L230.701 339.322L230.701 339.322L230.701 339.322L230.701 339.322L230.702 339.322L230.703 339.322L230.703 339.322L230.704 339.321L230.704 339.321L230.705 339.321L230.706 339.321L230.706 339.321L230.707 339.321L230.707 339.32L230.708 339.32L230.709 339.32L230.709 339.32L230.71 339.32C232.383 338.841 234.055 338.362 235.717 337.86C239.448 336.735 243.187 335.639 246.927 334.543L246.929 334.542L246.93 334.542L246.93 334.542L246.931 334.542L246.932 334.541L246.932 334.541L246.933 334.541L246.933 334.541L246.934 334.541L246.935 334.54L246.935 334.54L246.936 334.54L246.936 334.54L246.937 334.54L246.938 334.54C254.314 332.378 261.689 330.216 268.992 327.829C275.508 325.7 281.712 322.65 286.844 317.928C288.249 316.635 288.941 316.864 290.181 318.049C294.228 321.918 298.372 325.686 302.516 329.454L303.229 330.104C310.294 336.529 318.156 341.783 326.899 345.614C328.194 346.182 330.315 346.103 331.519 345.403C334.233 343.824 336.772 341.935 339.306 340.051C339.828 339.662 340.35 339.274 340.873 338.889C341.924 338.114 342.978 337.342 344.031 336.569C348.409 333.359 352.789 330.148 357.047 326.784C361.57 323.211 364.807 318.503 368.032 313.812C368.548 313.061 369.063 312.312 369.584 311.567C369.788 311.274 369.067 309.767 368.605 309.673C366.792 309.306 365.96 310.487 365.087 311.726C364.921 311.961 364.754 312.199 364.578 312.428C363.854 313.373 363.147 314.342 362.439 315.314C360.246 318.324 358.041 321.35 355.27 323.687C350.847 327.416 346.202 330.878 341.555 334.342C338.251 336.804 334.947 339.267 331.721 341.827C329.714 343.42 328.236 343.303 326.296 342.208C325.871 341.968 325.446 341.729 325.021 341.491L325.02 341.49C320.495 338.948 316.006 336.427 312.091 332.829C307.059 328.205 301.777 323.85 296.497 319.497C294.987 318.252 293.477 317.008 291.973 315.757C290.579 314.597 290.83 313.88 292.029 312.783C296.047 309.107 298.203 304.56 298.787 299.074C298.823 298.739 298.835 298.371 298.847 297.988V297.988C298.903 296.258 298.969 294.237 301.283 293.698C303.507 293.179 305.165 294.632 306.493 296.243C307.345 297.278 308.159 298.346 308.973 299.413C309.985 300.741 310.997 302.068 312.083 303.332L312.287 303.57C314.363 305.992 316.65 308.659 320.259 307.411C325.306 305.667 330.399 305.342 335.644 305.28C337.135 305.262 339.206 304.147 339.97 302.899C341.233 300.836 342.166 298.57 343.099 296.306L343.099 296.305L343.099 296.305L343.099 296.305L343.099 296.305L343.099 296.304L343.099 296.304L343.1 296.304L343.1 296.303L343.1 296.303L343.1 296.303L343.1 296.303L343.1 296.302L343.1 296.302L343.101 296.302L343.101 296.301L343.101 296.3L343.102 296.299L343.102 296.298L343.102 296.297L343.103 296.297L343.103 296.296L343.104 296.295L343.104 296.294L343.104 296.293L343.105 296.292L343.105 296.291L343.105 296.29L343.106 296.29C343.465 295.417 343.824 294.545 344.202 293.685C345.541 290.64 346.933 289.502 350.285 290.722C351.741 291.253 353.669 291.675 354.986 291.151C357.596 290.113 358.089 291.371 358.821 293.237C358.851 293.313 358.881 293.39 358.912 293.467C360.621 297.796 362.359 302.137 366.484 304.96C369.203 306.821 372.28 307.336 375.361 307.852C375.647 307.9 375.933 307.948 376.219 307.997C378.898 308.456 381.586 308.867 384.273 309.279L384.275 309.279C388.14 309.871 392.005 310.462 395.843 311.195C405.841 313.103 414.41 318.239 421.754 324.884C426.883 329.525 431.027 335.37 435.067 341.069L435.067 341.07L435.184 341.234C438.118 345.373 440.503 349.92 442.875 354.44L442.875 354.44C443.149 354.962 443.422 355.483 443.696 356.003C444.433 357.402 445.177 358.8 445.92 360.198C449.316 366.585 452.716 372.98 455.596 379.596C458.929 387.253 461.967 395.038 465.006 402.824L465.006 402.825C466.482 406.605 467.957 410.384 469.466 414.15C469.97 415.409 470.132 416.208 468.6 416.93C467.527 417.435 466.502 418.052 465.479 418.668L465.478 418.668ZM269.802 247.995C270.176 247.153 270.549 246.311 270.929 245.472C273.898 238.634 276.461 232.323 276.83 225.099C277.173 218.379 275.449 212.251 273.693 206.006C273.591 205.645 273.49 205.283 273.388 204.921C272.838 202.955 272.561 200.915 272.283 198.873L272.283 198.873L272.283 198.873L272.283 198.873L272.283 198.873L272.283 198.872L272.283 198.872L272.283 198.872L272.283 198.872L272.283 198.872L272.283 198.872L272.283 198.872L272.283 198.872L272.283 198.872L272.283 198.871C272.047 197.13 271.81 195.388 271.404 193.689C270.46 189.745 271.225 186.001 271.989 182.261C272.383 180.327 272.778 178.396 272.936 176.438C273.427 170.375 274.849 164.586 276.905 158.95C279.57 151.642 283.648 145.087 288.099 138.716C291.487 133.866 295.899 130.416 300.912 127.478C302.919 126.302 304.953 124.831 306.313 123.002C307.338 121.624 308.194 121.12 309.774 121.142C311.505 121.166 313.238 121.14 314.971 121.114C317.866 121.07 320.759 121.026 323.638 121.216C334.146 121.906 344.141 124.524 353.066 130.339L353.49 130.615C356.756 132.741 360.082 134.906 362.841 137.602C366.358 141.039 369.52 144.847 372.673 148.645C373.166 149.239 373.659 149.832 374.152 150.424C374.705 151.086 374.85 152.135 374.986 153.114C375.013 153.307 375.039 153.497 375.068 153.681C375.81 158.386 376.512 163.096 377.214 167.807L377.215 167.809L377.532 169.934C377.678 170.914 377.826 171.893 377.975 172.873L377.975 172.876C378.425 175.839 378.874 178.803 379.26 181.775C379.392 182.79 379.524 183.804 379.657 184.818C380.445 190.851 381.233 196.884 381.846 202.935C382.185 206.289 382.266 209.671 382.346 213.048V213.049C382.364 213.791 382.381 214.533 382.402 215.274C382.445 216.834 382.49 218.394 382.536 219.954L382.536 219.956L382.536 219.958V219.959V219.96V219.96V219.961V219.962V219.963V219.963V219.964V219.965V219.966V219.966V219.967V219.968V219.969C382.717 226.124 382.898 232.28 382.901 238.435C382.906 247.629 380.879 256.541 378.157 265.245C376.484 270.596 374.392 275.819 372.304 281.035L372.303 281.036C371.933 281.961 371.562 282.886 371.194 283.812C370.893 284.568 369.727 285.264 368.848 285.452C366.412 285.973 363.924 286.321 361.44 286.504C360.436 286.579 359.195 286.31 358.407 285.729C357.434 285.012 357.258 284.997 356.726 286.119C355.468 288.77 353.955 289.404 351.04 288.37C348.45 287.451 345.922 287.122 343.973 289.264C342.894 290.449 342.178 291.992 341.479 293.501C341.351 293.777 341.224 294.052 341.095 294.323C340.755 295.037 340.553 295.816 340.349 296.595L340.349 296.596L340.349 296.596L340.349 296.596L340.349 296.596L340.349 296.596L340.349 296.596L340.349 296.596L340.349 296.597L340.349 296.597C340.244 297 340.139 297.404 340.015 297.799C338.804 301.652 337.267 302.986 333.331 302.729C329.039 302.45 324.879 303.065 320.924 304.437C317.592 305.593 316.034 303.793 314.357 301.856C314.186 301.658 314.013 301.459 313.838 301.261C313.362 300.725 312.887 300.188 312.413 299.65L312.412 299.65C310.117 297.049 307.819 294.446 305.323 292.052C304.389 291.156 302.587 290.793 301.197 290.826C299.747 290.861 298.304 291.106 296.86 291.351C295.921 291.51 294.981 291.669 294.038 291.771C292.026 291.989 290.447 290.861 289.85 289.16C289.015 286.782 288.547 284.234 288.261 281.72C288.055 279.913 287.407 278.541 285.69 278.231C281.46 277.468 279.129 274.811 277.116 271.208C275.692 268.658 273.876 266.325 272.061 263.994L272.061 263.994L272.061 263.994L272.06 263.993L272.06 263.993L272.06 263.993L272.06 263.992L272.059 263.992L272.059 263.991L272.059 263.991L272.058 263.991L272.058 263.99C271.368 263.104 270.678 262.217 270.01 261.32C269.567 260.724 269.082 260.161 268.597 259.597L268.597 259.597C268.146 259.072 267.694 258.547 267.276 257.997C266.344 256.768 266.297 255.502 267.013 254.056C267.998 252.063 268.9 250.029 269.802 247.996L269.802 247.995ZM384.059 198.647L383.983 197.319C383.449 194.221 384.953 193.238 386.995 192.064C389.853 190.421 392.669 189.016 395.995 189.251C397.593 189.365 398.932 190.157 397.585 192.068C395.301 195.309 392.968 198.518 390.583 201.686C389.502 203.122 388.349 204.504 387.196 205.887L387.196 205.887L387.195 205.888L387.194 205.889C386.79 206.374 386.385 206.859 385.984 207.347C385.842 207.519 385.667 207.662 385.491 207.806C385.461 207.831 385.431 207.856 385.401 207.881C385.35 207.923 385.3 207.965 385.251 208.009C385.181 207.915 385.109 207.822 385.037 207.73C384.854 207.495 384.671 207.259 384.519 207.006C384.469 206.924 384.482 206.807 384.494 206.688C384.501 206.621 384.508 206.554 384.505 206.492C384.357 203.877 384.208 201.262 384.059 198.647ZM270.602 207.962C270.53 208.08 270.458 208.197 270.405 208.311C268.983 207.632 267.664 206.822 266.358 206.021L266.358 206.02C265.215 205.319 264.082 204.623 262.899 204.027C260.224 202.681 259.283 200.236 258.426 197.805C257.44 195.009 259.634 192.337 262.608 192.357C262.741 192.358 262.874 192.359 263.007 192.359C264.067 192.363 265.143 192.367 266.163 192.59C268.165 193.029 268.364 194.581 268.556 196.077C268.615 196.541 268.674 197 268.785 197.418C269.501 200.094 270.023 202.824 270.545 205.55C270.653 206.114 270.761 206.678 270.871 207.242C270.912 207.456 270.757 207.709 270.602 207.962L270.602 207.962ZM429.17 454.334C433.309 460.96 437.46 467.607 441.687 474.328C442.766 475.406 443.828 476.474 444.882 477.534C447.2 479.865 449.476 482.154 451.783 484.41C457.324 489.827 463.914 491.152 471.34 489.45C477.79 487.971 483.684 485.352 488.873 481.248C489.695 480.598 490.543 479.964 491.392 479.33L491.393 479.33C493.89 477.465 496.399 475.591 498.308 473.243C502.666 467.886 506.673 462.163 510.174 456.209C514.845 448.263 519.49 440.202 523.057 431.731C526.382 423.835 529.15 415.703 531.916 407.572L531.918 407.567C532.949 404.539 533.979 401.511 535.038 398.495L535.358 397.586L535.593 396.918L535.79 396.358L536.202 395.191L536.203 395.187L536.203 395.187L536.203 395.187L536.203 395.187L536.203 395.186L536.204 395.186L536.204 395.186L536.204 395.185L536.204 395.185L536.204 395.185L536.204 395.185L536.204 395.184L536.204 395.184L536.204 395.184L536.204 395.184C538.393 388.976 540.583 382.767 542.522 376.481C543.463 373.429 544.257 370.328 545.051 367.229C546.073 363.239 547.095 359.25 548.43 355.367C549.963 350.909 551.868 346.58 553.774 342.25C554.761 340.008 555.748 337.766 556.683 335.506C557.667 333.127 558.655 330.75 559.642 328.373L559.643 328.371C563.417 319.288 567.19 310.206 570.771 301.048C572.19 297.417 573.184 293.616 574.175 289.823L574.176 289.818L574.177 289.815L574.177 289.813L574.178 289.812L574.178 289.81L574.179 289.808L574.179 289.806L574.18 289.805L574.18 289.803L574.181 289.801L574.181 289.799L574.181 289.798L574.182 289.796C574.441 288.806 574.699 287.817 574.965 286.832C575.087 286.381 574.845 285.832 574.603 285.282C574.49 285.028 574.378 284.774 574.302 284.529C574.04 284.613 573.76 284.675 573.48 284.738C572.872 284.873 572.264 285.008 571.838 285.363C569.162 287.585 567.313 290.4 566.091 293.687C565.464 295.371 564.625 296.978 563.788 298.579L563.788 298.58C563.699 298.75 563.61 298.921 563.521 299.091C563.437 299.253 563.353 299.416 563.269 299.578C563.164 299.781 562.882 299.892 562.6 300.003C562.47 300.055 562.34 300.106 562.227 300.167C562.225 300.055 562.215 299.94 562.205 299.825C562.183 299.579 562.161 299.333 562.225 299.111C562.73 297.377 563.254 295.648 563.777 293.919L563.778 293.917L563.779 293.915L563.779 293.914L563.78 293.912L563.78 293.91L563.781 293.908L563.781 293.906L563.782 293.904L563.782 293.903L563.783 293.9L563.784 293.897L563.785 293.894L563.786 293.891C564.905 290.198 566.023 286.506 566.956 282.768C567.719 279.709 567.966 276.496 568.17 273.334C568.318 271.046 566.224 269.721 564.385 270.913C563.431 271.531 562.644 272.407 561.857 273.282C561.54 273.635 561.223 273.988 560.896 274.323C560.637 274.589 560.404 274.88 560.171 275.171C560.064 275.304 559.957 275.437 559.848 275.567C559.793 275.415 559.732 275.265 559.671 275.114C559.535 274.783 559.4 274.452 559.335 274.107C559.117 272.966 558.954 271.814 558.802 270.663C558.513 268.491 557.263 266.419 555.344 266.376C554.04 266.346 552.185 268.239 551.45 269.709C549.217 274.17 547.252 278.783 545.478 283.449C544.099 287.075 542.872 290.76 541.645 294.444L541.644 294.447C541.084 296.126 540.525 297.804 539.952 299.477C539.827 299.841 539.681 300.198 539.534 300.555C539.466 300.72 539.398 300.886 539.332 301.052C539.196 300.949 539.048 300.855 538.901 300.76C538.582 300.556 538.264 300.352 538.054 300.068C535.869 297.11 532.744 295.552 529.57 293.969L529.185 293.777C526.29 292.331 523.429 292.728 520.891 293.981C517.454 295.679 517.574 301.841 520.593 304.602C525.248 308.859 528.47 313.927 529.844 320.14C531.71 328.577 529.943 336.202 524.955 343.186L524.712 343.527L524.214 344.224L524.214 344.224C521.728 347.701 519.239 351.182 516.953 354.788C511.094 364.03 505.292 373.311 499.624 382.671L499.287 383.226C494.046 391.879 488.799 400.54 483.955 409.416C481.764 413.429 479.988 417.671 478.213 421.91C477.586 423.406 476.96 424.903 476.315 426.389C475.739 427.716 475.332 428.182 474.235 426.832C473.414 425.823 472.475 424.875 471.448 424.081C471.133 423.838 470.654 423.805 470.176 423.772C469.959 423.757 469.742 423.742 469.54 423.707C469.528 423.856 469.493 424.025 469.459 424.194C469.385 424.559 469.311 424.925 469.46 425.091C469.655 425.31 469.849 425.531 470.044 425.753L470.044 425.753C471.055 426.904 472.08 428.07 473.306 428.936C477.132 431.64 477.586 431.326 479.276 426.868C479.366 426.631 479.455 426.395 479.544 426.158C479.666 425.834 479.788 425.511 479.909 425.187L479.91 425.186C481.374 421.289 482.847 417.365 484.847 413.749C490.275 403.93 496.005 394.273 501.771 384.646C507.474 375.126 513.276 365.663 519.221 356.293C520.563 354.177 522.055 352.15 523.546 350.124L523.547 350.123L523.547 350.122C525.636 347.285 527.722 344.45 529.389 341.383C535.586 329.984 534.68 318.642 527.463 307.907C526.747 306.842 525.818 305.916 524.891 304.991C523.869 303.972 522.849 302.954 522.118 301.756C521.331 300.464 521.244 298.123 521.909 296.786C522.358 295.884 524.876 295.246 526.113 295.631C532.058 297.484 537.71 299.893 538.959 307.134C539.018 307.473 539.413 307.754 539.808 308.035C539.991 308.166 540.175 308.297 540.325 308.433C540.396 308.325 540.477 308.219 540.558 308.114C540.733 307.886 540.908 307.658 540.987 307.401C541.723 304.985 542.431 302.561 543.139 300.137L543.469 299.008C544.004 297.178 544.521 295.342 545.038 293.506L545.039 293.505L545.039 293.504L545.04 293.503L545.04 293.501L545.04 293.5L545.041 293.499L545.041 293.498L545.041 293.496L545.042 293.495L545.042 293.494L545.042 293.493L545.043 293.492L545.043 293.49L545.044 293.489L545.044 293.488L545.044 293.487L545.044 293.486L545.045 293.485L545.045 293.484L545.045 293.484L545.045 293.483L545.046 293.482L545.046 293.481L545.046 293.48L545.047 293.479L545.047 293.478L545.047 293.477L545.047 293.476C546.265 289.156 547.483 284.836 548.927 280.593C549.834 277.93 551.152 275.404 552.467 272.884C552.875 272.102 553.284 271.319 553.679 270.534C553.95 269.995 554.662 269.62 555.252 269.338C555.405 269.265 556.103 269.799 556.142 270.106C556.208 270.637 556.301 271.177 556.394 271.718C556.654 273.229 556.917 274.753 556.604 276.141C555.967 278.956 555.096 281.716 554.224 284.478L554.224 284.479C553.73 286.046 553.235 287.613 552.783 289.19C551.754 292.785 550.804 296.406 549.965 300.049C549.893 300.362 550.235 300.77 550.577 301.179C550.735 301.368 550.894 301.557 551.011 301.737C551.17 301.599 551.355 301.471 551.54 301.343L551.54 301.342L551.541 301.342L551.541 301.342C551.942 301.064 552.344 300.785 552.473 300.413C553.317 297.97 554.087 295.501 554.857 293.033C555.123 292.181 555.389 291.329 555.657 290.478C557.457 284.78 559.369 279.136 563.63 274.687C563.896 274.41 564.253 274.219 564.609 274.028L564.61 274.028L564.61 274.027L564.611 274.027C564.69 273.984 564.77 273.942 564.849 273.898C564.933 273.851 565.016 273.803 565.096 273.753C565.15 273.953 565.23 274.158 565.309 274.363C565.48 274.805 565.652 275.247 565.562 275.628C564.067 281.975 562.508 288.307 560.918 294.631C560.683 295.565 560.408 296.491 560.132 297.416C559.688 298.906 559.244 300.395 558.973 301.916C558.853 302.591 559.149 303.34 559.446 304.09C559.581 304.431 559.715 304.772 559.811 305.106C560.076 305.012 560.373 304.944 560.67 304.876C561.319 304.727 561.967 304.578 562.278 304.171C563.869 302.092 565.339 299.896 566.614 297.61C567.364 296.266 568.016 294.869 568.669 293.471L568.669 293.47C569.212 292.307 569.755 291.143 570.354 290.011C570.569 289.604 571.028 289.326 571.487 289.048C571.699 288.92 571.91 288.793 572.097 288.652C572.075 288.861 572.065 289.076 572.056 289.29C572.037 289.753 572.017 290.215 571.861 290.627C571.631 291.236 571.401 291.845 571.171 292.454C569.522 296.822 567.873 301.191 566.1 305.508C565.37 307.285 564.553 309.025 563.737 310.765L563.736 310.766L563.736 310.767L563.736 310.768L563.735 310.769L563.735 310.769L563.734 310.77L563.734 310.771L563.734 310.772L563.733 310.773L563.733 310.774L563.733 310.775L563.732 310.776L563.732 310.776L563.732 310.777C562.939 312.465 562.147 314.153 561.435 315.874C560.106 319.086 558.824 322.318 557.542 325.551C555.258 331.31 552.975 337.069 550.425 342.708C546.814 350.694 543.928 358.886 541.517 367.281C540.556 370.626 539.57 373.968 538.466 377.268C537.288 380.793 536.069 384.304 534.849 387.816L534.848 387.82C532.464 394.686 530.081 401.551 528.001 408.507C524.939 418.747 521.531 428.821 517.013 438.503C512.197 448.823 506.253 458.518 499.328 467.505C496.075 471.728 491.967 475.642 487.473 478.466C482.345 481.688 476.848 484.662 470.7 485.897C466.612 486.718 462.492 487.199 458.742 485.037C451.843 481.06 446.688 475.128 442.139 468.776C438.709 463.988 435.466 459.068 432.222 454.147C430.356 451.316 428.489 448.484 426.587 445.678C426.277 445.22 425.736 444.919 425.196 444.617C424.945 444.478 424.693 444.338 424.465 444.182C424.455 444.443 424.441 444.704 424.426 444.965L424.426 444.966C424.388 445.66 424.35 446.355 424.387 447.045C424.395 447.191 424.558 447.319 424.731 447.454C424.865 447.558 425.004 447.667 425.083 447.792C426.443 449.968 427.802 452.144 429.163 454.323L429.167 454.329L429.17 454.334ZM407.012 596.934C406.704 598.552 406.45 600.168 406.198 601.769C405.596 605.606 405.007 609.355 403.711 612.842C401.328 619.255 395.812 623.13 389.443 625.101C383.181 627.039 376.753 628.459 370.338 629.875L370.338 629.876L370.337 629.876L370.336 629.876L370.336 629.876L370.285 629.887L370.212 629.903C369.501 630.06 368.79 630.217 368.079 630.375C366.376 630.753 364.599 630.809 362.824 630.864C362.121 630.886 361.418 630.908 360.72 630.95C357.199 631.163 353.678 631.369 350.157 631.575C344.824 631.888 339.491 632.2 334.159 632.533C331.987 632.669 329.817 632.834 327.646 633C324.991 633.203 322.335 633.406 319.677 633.553C319.255 633.577 318.833 633.601 318.411 633.624L318.396 633.625L318.38 633.626C314.178 633.863 309.968 634.1 305.766 634.036C302.836 633.991 299.909 633.636 296.986 633.281L296.985 633.281C296.22 633.188 295.455 633.095 294.691 633.008C294.383 632.973 294.104 632.68 293.825 632.388C293.696 632.253 293.567 632.117 293.435 632.008C293.537 631.897 293.635 631.763 293.733 631.629C293.947 631.337 294.16 631.045 294.419 630.996C294.69 630.946 294.962 630.89 295.236 630.834C296.461 630.584 297.712 630.329 298.898 630.482C307.096 631.54 315.228 630.849 323.376 629.931C327.36 629.483 331.365 629.208 335.367 628.933H335.368L336.284 628.87C339.063 628.679 341.845 628.521 344.628 628.364L344.629 628.364L344.63 628.363L344.632 628.363L344.633 628.363L344.635 628.363L344.636 628.363L344.638 628.363L344.639 628.363L344.641 628.363L344.642 628.363L344.644 628.363L344.645 628.363L344.647 628.362L344.649 628.362H344.65C349.936 628.063 355.222 627.764 360.485 627.233C370.699 626.203 380.803 624.369 390.362 620.445C395.887 618.177 399.69 613.862 401.132 608.171L401.279 607.594C402.87 601.324 404.488 594.953 403.846 588.358C403.696 586.821 403.442 585.289 403.188 583.757L403.188 583.757L403.188 583.757L403.188 583.757L403.188 583.756L403.187 583.756L403.187 583.756L403.187 583.755L403.187 583.755L403.187 583.755L403.187 583.755L403.187 583.754L403.187 583.754L403.187 583.754C402.797 581.405 402.408 579.059 402.398 576.708C402.386 573.617 402.613 570.526 402.84 567.434C403.038 564.739 403.237 562.045 403.276 559.349C403.311 556.945 402.997 554.535 402.682 552.126C402.549 551.101 402.415 550.076 402.308 549.052C402.215 548.162 402.129 547.272 402.042 546.381C401.812 544.011 401.581 541.641 401.235 539.287C399.987 530.822 399.504 522.324 399.645 513.769C399.682 511.529 399.542 509.287 399.403 507.044V507.044V507.043V507.043V507.043V507.042V507.042V507.041V507.041V507.041V507.04V507.04V507.04L399.403 507.039L399.403 507.038C399.308 505.517 399.214 503.995 399.174 502.473C399.085 499.053 399.022 495.633 398.958 492.212V492.212V492.211V492.211V492.211V492.21V492.21V492.209V492.209V492.208V492.208V492.207V492.207V492.206L398.958 492.204C398.868 487.326 398.777 482.448 398.612 477.572C398.477 473.566 398.247 469.563 398.017 465.56C397.87 462.993 397.722 460.425 397.6 457.857C397.5 455.754 397.429 453.65 397.358 451.545V451.545V451.544V451.544V451.544V451.543V451.543V451.542V451.542V451.541V451.541V451.54V451.54V451.539C397.273 449.007 397.188 446.475 397.052 443.946C396.955 442.147 396.788 440.348 396.622 438.549C396.31 435.166 395.998 431.785 396.146 428.423C396.307 424.775 396.949 421.148 397.592 417.52L397.592 417.52L397.592 417.519L397.593 417.519L397.593 417.518L397.593 417.518L397.593 417.518L397.593 417.517L397.593 417.517L397.593 417.516L397.593 417.516L397.593 417.515L397.593 417.515L397.593 417.514C397.88 415.898 398.167 414.281 398.41 412.662C398.573 411.579 398.741 410.497 398.908 409.414C399.362 406.474 399.817 403.533 400.187 400.582C400.396 398.916 400.55 397.243 400.704 395.571C400.882 393.635 401.061 391.7 401.324 389.777C401.382 389.351 401.863 388.982 402.344 388.614C402.566 388.444 402.788 388.274 402.968 388.098C403.064 388.3 403.191 388.505 403.318 388.711C403.593 389.153 403.867 389.596 403.822 390.004C403.209 395.568 402.508 401.123 401.775 406.673C401.501 408.742 401.162 410.808 400.823 412.874C400.121 417.158 399.418 421.44 399.301 425.74C399.134 431.873 399.501 438.022 399.867 444.169C399.993 446.283 400.119 448.397 400.223 450.51C400.376 453.609 400.586 456.704 400.796 459.799L400.796 459.8L400.796 459.801L400.796 459.802L400.797 459.803L400.797 459.804L400.797 459.805L400.797 459.806L400.797 459.807L400.797 459.808L400.797 459.809L400.797 459.81L400.797 459.811L400.797 459.812C400.956 462.149 401.114 464.486 401.248 466.824C401.34 468.418 401.432 470.012 401.524 471.606L401.525 471.616L401.525 471.625L401.526 471.635L401.526 471.638C401.986 479.583 402.445 487.529 402.801 495.479C402.931 498.393 402.98 501.312 403.03 504.23V504.23V504.23V504.231V504.231V504.232V504.232V504.232V504.233V504.233V504.233V504.234V504.234V504.234C403.095 508.049 403.159 511.864 403.405 515.667C403.696 520.177 404.19 524.674 404.684 529.172L404.685 529.173L404.685 529.174L404.685 529.176L404.685 529.177L404.685 529.178L404.685 529.179L404.685 529.181L404.686 529.182L404.686 529.183L404.686 529.185L404.686 529.186L404.686 529.187C404.945 531.544 405.204 533.901 405.434 536.26C405.827 540.298 406.186 544.34 406.475 548.386C406.519 549.01 406.567 549.634 406.615 550.259L406.615 550.264L406.615 550.264L406.615 550.265C406.829 553.054 407.043 555.85 406.965 558.633C406.884 561.491 406.709 564.347 406.534 567.203L406.534 567.204C406.304 570.949 406.075 574.693 406.059 578.438C406.05 580.368 406.408 582.295 406.767 584.226C407.049 585.745 407.332 587.267 407.437 588.795C407.558 590.549 407.397 592.323 407.23 594.178L407.23 594.179L407.23 594.179C407.148 595.076 407.066 595.992 407.012 596.934ZM214.554 606.502C216.752 615.822 222.774 622.733 230.496 628.468L231.139 628.726C234.506 630.073 237.745 631.369 241.049 632.468C241.682 632.679 242.423 632.564 243.164 632.45C243.504 632.398 243.845 632.345 244.174 632.324C243.984 632.123 243.794 631.921 243.605 631.719C243.049 631.125 242.493 630.532 241.908 629.969C241.833 629.897 241.688 629.908 241.535 629.919C241.404 629.929 241.267 629.939 241.163 629.898C240.299 629.551 239.393 629.255 238.487 628.959C236.413 628.281 234.338 627.603 232.761 626.315C228.915 623.173 225.408 619.479 222.341 615.561C219.31 611.69 217.765 607.039 218.05 601.936C218.153 600.089 218.209 598.239 218.264 596.39C218.342 593.776 218.42 591.163 218.634 588.56C218.796 586.582 219.104 584.616 219.412 582.65C219.684 580.915 219.956 579.18 220.128 577.436C220.504 573.62 220.738 569.789 220.973 565.958C221.029 565.043 221.085 564.127 221.143 563.212C221.165 562.864 220.937 562.379 220.663 562.172C220.438 562 219.801 561.996 219.643 562.177C219.533 562.303 219.415 562.432 219.294 562.563C218.768 563.134 218.205 563.745 218.126 564.393C217.795 567.099 217.565 569.816 217.334 572.534L217.334 572.535L217.334 572.535L217.334 572.536L217.334 572.536L217.334 572.537L217.334 572.537L217.334 572.538L217.334 572.538L217.334 572.539L217.334 572.539L217.334 572.54L217.334 572.541C217.229 573.775 217.125 575.009 217.011 576.242C216.976 576.613 216.899 576.98 216.822 577.348C216.764 577.627 216.705 577.906 216.665 578.187C216.443 579.753 216.203 581.317 215.963 582.882C215.383 586.665 214.803 590.449 214.472 594.254C214.447 594.543 214.421 594.834 214.395 595.126L214.395 595.126C214.057 598.93 213.704 602.897 214.554 606.502ZM354.885 343.444L354.886 343.444L354.886 343.444C360.558 339.615 366.158 335.834 370.748 330.824C373.168 328.183 375.314 325.29 377.459 322.398L377.46 322.397C378.404 321.124 379.348 319.851 380.316 318.599C380.424 318.46 380.515 318.295 380.606 318.132L380.606 318.132C380.77 317.836 380.932 317.544 381.181 317.419C381.685 317.165 382.246 317.024 382.806 316.882C383.04 316.824 383.274 316.765 383.503 316.698C383.429 316.929 383.371 317.171 383.313 317.414C383.189 317.939 383.064 318.464 382.771 318.866C382.169 319.693 381.57 320.523 380.971 321.354C378.554 324.704 376.135 328.057 373.5 331.229C371.125 334.089 368.506 336.856 365.579 339.126C360.498 343.066 355.276 346.892 349.776 350.206C343.76 353.831 337.445 356.998 331.093 360.011C327.945 361.504 324.513 361.31 321.396 359.28C311.972 353.141 302.784 346.695 294.951 338.543C292.784 336.287 290.781 333.857 288.887 331.367C288.58 330.964 288.621 330.297 288.661 329.629C288.68 329.322 288.698 329.015 288.683 328.733C288.964 328.786 289.278 328.808 289.591 328.83C290.272 328.878 290.954 328.926 291.306 329.291C292.254 330.276 293.122 331.339 293.989 332.403L293.99 332.403L293.99 332.403L293.99 332.403L293.99 332.403L293.99 332.403L293.99 332.404L293.99 332.404L293.991 332.404L293.991 332.404L293.991 332.404L293.991 332.405L293.991 332.405C294.998 333.638 296.003 334.87 297.133 335.978C300.048 338.836 303.113 341.567 306.315 344.099C310.154 347.136 314.103 350.035 318.05 352.934C318.927 353.577 319.803 354.221 320.679 354.866C321.257 355.292 321.88 355.658 322.502 356.024C323.151 356.404 323.799 356.785 324.396 357.233C326.889 359.104 329.036 357.878 331.005 356.754C331.494 356.475 331.972 356.202 332.441 355.985C337.11 353.821 341.624 351.322 346.204 348.786C347.665 347.977 349.134 347.164 350.616 346.357C352.034 345.369 353.462 344.405 354.885 343.444ZM551.839 319.957C552.612 319.007 553.399 318.041 554.218 317.046C554.775 316.984 555.306 316.977 555.819 316.97C556.385 316.963 556.929 316.956 557.463 316.875C557.912 316.807 558.332 316.551 558.753 316.295C558.941 316.18 559.13 316.065 559.321 315.967C559.169 315.792 559.029 315.587 558.888 315.383C558.583 314.941 558.278 314.499 557.866 314.345C553.976 312.895 547.11 318.23 547.317 322.518C547.336 322.919 547.567 323.309 547.799 323.7C547.906 323.881 548.013 324.061 548.099 324.243C548.233 324.111 548.37 323.982 548.507 323.854L548.509 323.852L548.509 323.852C548.809 323.571 549.11 323.289 549.37 322.975C550.192 321.979 551.007 320.978 551.839 319.957ZM356.897 247.958C358.154 248.256 359.281 248.685 360.408 249.114L360.408 249.114C360.237 249.399 360.083 249.701 359.929 250.004C359.597 250.655 359.264 251.307 358.769 251.792C352.695 257.739 345.297 261.214 337.067 262.94C336.07 263.149 334.958 262.875 333.872 262.608C333.544 262.526 333.217 262.446 332.897 262.38C332.6 262.318 332.152 261.509 332.206 261.452C332.322 261.328 332.441 261.191 332.561 261.052C333.003 260.543 333.474 259.999 334.001 259.92C342.25 258.685 349.169 254.896 355.147 249.205C355.429 248.936 355.762 248.719 356.129 248.481C356.372 248.324 356.629 248.156 356.897 247.958ZM540.979 324.211C542.211 321.145 541.216 318.239 540.086 315.215C539.95 315.058 539.816 314.904 539.684 314.75C539.524 314.565 539.367 314.383 539.211 314.202C538.393 313.253 537.625 312.36 536.82 311.503C536.768 311.447 535.79 312.083 535.82 312.154C536.225 313.115 536.704 314.049 537.221 314.958C538.806 317.748 539.011 320.778 538.953 323.894C538.945 324.328 539.203 324.767 539.461 325.206C539.58 325.409 539.699 325.611 539.792 325.813C539.919 325.646 540.061 325.484 540.202 325.322C540.508 324.97 540.814 324.619 540.979 324.211ZM315.548 144.063C316.572 144.54 317.575 145.055 318.569 145.565C321.062 146.845 323.502 148.098 326.093 148.655L326.497 148.742C330.372 149.578 334.543 150.477 338.438 148.362C339.803 147.621 341.087 146.708 342.331 145.772C343.089 145.201 343.772 144.492 344.369 143.748C349.104 137.846 352.598 138.727 359.117 142.581C367.459 147.511 370.497 155.927 373.433 164.299C374.901 168.482 375.823 172.869 376.741 177.232L376.742 177.236L376.742 177.239L376.743 177.242C376.866 177.825 376.988 178.407 377.112 178.988C377.718 181.839 377.974 184.779 378.199 187.693C378.466 191.149 378.592 194.618 378.718 198.084L378.741 198.721C378.81 200.618 378.847 202.517 378.883 204.417V204.417V204.418V204.418V204.419V204.419V204.42V204.42V204.421C378.954 208.121 379.025 211.82 379.337 215.5C379.814 221.129 378.915 226.554 377.659 231.936C376.213 238.133 371.502 241.121 365.792 242.514C363.387 243.1 360.877 243.27 358.372 243.439L358.371 243.439H358.371L358.371 243.439L358.371 243.439L358.37 243.439L358.37 243.439L358.37 243.439L358.37 243.439C357.505 243.497 356.641 243.556 355.782 243.631C346.941 244.408 338.156 245.502 329.615 248.034C326.966 248.819 324.435 248.458 322.214 246.981C317.73 244 312.665 242.911 307.5 242.075C297.867 240.518 288.723 237.89 281.664 230.563C279.8 228.629 278.605 226.559 278.725 223.646C278.938 218.481 278.192 213.397 277.447 208.318V208.318V208.318V208.318V208.318V208.318V208.318V208.318C277.022 205.417 276.597 202.518 276.351 199.607C275.606 190.805 275.933 181.962 278.624 173.196C281.625 163.418 286.204 154.78 293.468 147.73C295.463 145.793 297.874 144.287 300.287 142.779C301.464 142.044 302.642 141.308 303.772 140.522L303.962 140.39L303.963 140.389C305.199 139.53 306.447 138.662 307.537 137.636C309.196 136.073 310.203 136.899 311.239 138.335C312.476 140.051 313.762 141.73 315.131 143.519L315.131 143.519L315.548 144.063ZM369.066 159.896C368.928 159.566 368.788 159.236 368.649 158.907C368.348 158.197 368.048 157.488 367.759 156.774C365.004 149.971 360.136 145.197 353.47 142.326C352.434 141.88 350.632 142.139 349.698 142.799C348.921 143.348 348.375 144.211 347.825 145.081C347.513 145.574 347.2 146.068 346.843 146.51C343.654 150.454 339.915 153.537 334.457 153.051C331.079 152.75 327.667 152.316 324.397 151.459C319.271 150.116 314.604 147.705 311.289 143.407C311.176 143.261 311.069 143.121 310.966 142.988L310.965 142.987C308.787 140.151 308.76 140.116 305.791 142.109C304.812 142.766 303.806 143.395 302.799 144.025L302.798 144.025C300.289 145.595 297.776 147.167 295.68 149.17C288.593 155.945 283.938 164.089 281.145 173.729C278.628 182.417 278.476 191.031 278.889 199.743C279.224 206.817 280.35 213.873 281.474 220.882C281.499 221.034 281.523 221.187 281.547 221.341L281.548 221.346C282.04 224.45 282.546 227.643 285.256 230.046C290.388 234.597 296.469 237.046 303.008 238.349C303.895 238.526 304.783 238.696 305.67 238.867C311.905 240.063 318.103 241.253 323.719 244.607C325.029 245.39 327.012 245.562 328.576 245.318C332.094 244.767 335.599 244.126 339.104 243.484L339.104 243.484L339.104 243.484L339.104 243.484L339.105 243.484L339.105 243.484L339.105 243.484L339.105 243.484C342.737 242.819 346.369 242.155 350.017 241.591C352.084 241.271 354.179 241.099 356.273 240.927L356.273 240.927C359.131 240.692 361.985 240.457 364.762 239.848C368.586 239.01 372.886 237.713 374.126 233.238C375.331 228.889 376.37 224.367 376.535 219.886C376.763 213.692 376.502 207.476 376.241 201.268V201.268V201.267V201.267V201.266V201.266V201.266V201.265C376.194 200.136 376.146 199.007 376.102 197.878C376.011 195.579 375.818 193.283 375.624 190.987V190.987V190.987V190.987V190.987V190.986V190.986V190.986C375.411 188.459 375.198 185.933 375.122 183.402C374.886 175.514 372.191 168.283 369.391 160.769L369.391 160.769L369.066 159.896ZM363.73 185.999C359.299 182.537 354.103 181.828 348.392 182.402C347.861 182.497 347.411 182.603 346.994 182.701C346.644 182.783 346.318 182.86 345.99 182.92C340.593 183.901 335.966 186.104 332.787 190.84C332.454 191.337 331.207 191.589 330.519 191.417C327.486 190.657 324.671 190.593 322.316 193.045C322.024 193.348 321.753 193.672 321.482 193.996C321.357 194.145 321.232 194.293 321.105 194.44C321.057 194.224 320.991 194.005 320.925 193.787L320.925 193.787C320.783 193.315 320.641 192.844 320.68 192.389C321.151 186.97 318.556 183.596 313.829 181.317C309.406 179.185 304.76 178.73 299.981 178.736C292.703 178.745 286.504 183.458 283.946 190.351C282.383 194.56 282.807 198.652 284.154 202.54C285.47 206.335 286.965 210.392 290.873 212.496C291.368 212.763 291.866 213.042 292.368 213.323C294.664 214.611 297.027 215.937 299.471 216.23C299.69 216.256 299.91 216.283 300.132 216.31C303.757 216.754 307.645 217.231 311.07 214.784C316.246 211.085 319.07 205.858 320.568 199.925C321.276 197.126 322.704 195.441 325.2 194.322C328.957 192.638 331.313 194.12 331.705 198.01C332.164 202.56 333.165 207.036 335.832 210.933C338.956 215.5 343.198 218.277 348.436 220.209C354.748 222.536 359.283 221.118 363.86 217.417C372.365 210.54 373.211 193.406 363.73 185.999ZM343.976 186.205C347.544 185.141 351.417 184.797 355.196 185.804C359.487 186.127 362.305 188.547 364.385 191.485C366.472 194.435 368.364 197.779 368.231 201.602C368.088 205.703 366.546 209.395 363.969 212.622C361.758 215.39 358.878 217.16 355.461 217.918C354.744 218.077 353.939 217.87 353.144 217.666C352.86 217.593 352.578 217.52 352.301 217.464C343.207 215.641 337.119 210.661 335.308 201.218C335.192 200.615 335.046 200.018 334.9 199.422C334.312 197.028 333.731 194.66 335.2 192.102C337.21 188.601 340.619 187.206 343.976 186.205ZM317.504 192.373C318.071 197.185 316.513 201.511 314.371 205.694C313.94 206.266 313.57 206.811 313.22 207.325C312.709 208.079 312.241 208.768 311.691 209.383C308.665 212.773 305.047 213.839 300.456 212.87C297.239 212.191 294.376 211.359 291.701 209.312C288.478 206.846 287.096 203.443 286.171 199.862C284.698 194.157 286.705 189.368 290.794 185.272C294.097 181.964 298.273 181.553 302.445 181.972C306.461 182.376 310.383 183.372 313.927 185.749C316.468 187.453 317.19 189.71 317.504 192.373ZM316.464 172.458C319.127 172.608 321.338 172.326 323.354 170.699C323.723 170.4 324.498 170.604 325.273 170.808C325.628 170.902 325.984 170.996 326.3 171.041C326.151 171.213 326.007 171.39 325.863 171.568C325.551 171.952 325.239 172.336 324.877 172.664C321.504 175.713 317.792 175.5 313.686 174.23C310.097 173.119 306.328 172.263 302.593 172.031C296.984 171.682 292.187 173.865 288.436 178.19C288.112 178.563 287.611 178.783 287.109 179.002C286.877 179.104 286.645 179.206 286.43 179.323C286.498 179.02 286.537 178.692 286.575 178.364C286.658 177.657 286.741 176.951 287.124 176.498C293.383 169.098 301.534 168.791 310.163 170.637C311.372 170.896 312.556 171.269 313.791 171.657L313.791 171.657C314.65 171.927 315.532 172.205 316.464 172.458ZM357.775 174.33C352.677 173.548 347.602 173.636 343.027 177.038C342.359 177.531 341.7 178.004 341.052 178.468L341.052 178.468C339.754 179.399 338.501 180.298 337.308 181.271C337.039 181.491 336.998 181.989 336.956 182.488C336.937 182.717 336.918 182.947 336.877 183.149C337.056 183.126 337.244 183.118 337.432 183.111C337.847 183.094 338.263 183.077 338.581 182.892C339.494 182.363 340.323 181.677 341.142 181L341.18 180.968C346.257 176.77 351.898 175.075 358.398 176.956C360.658 177.61 362.938 178.212 365.238 178.691C365.612 178.769 366.042 178.571 366.473 178.372C366.671 178.281 366.87 178.19 367.062 178.125C366.916 177.97 366.778 177.789 366.641 177.608C366.342 177.215 366.043 176.822 365.656 176.689C365.162 176.519 364.668 176.343 364.174 176.167C362.069 175.418 359.951 174.664 357.775 174.33ZM330.204 229.116C327.135 229.334 324.195 229.513 321.263 229.429C320.874 229.417 320.499 228.925 320.125 228.433C319.952 228.206 319.779 227.979 319.605 227.799C319.83 227.704 320.055 227.586 320.279 227.468C320.768 227.211 321.257 226.955 321.757 226.932C324.458 226.809 327.167 226.818 329.871 226.848C330.517 226.856 331.162 226.959 331.807 227.063C332.101 227.11 332.395 227.157 332.69 227.196L332.689 227.196L332.688 227.197L332.687 227.197L332.687 227.198C331.903 227.793 331.118 228.389 330.204 229.116ZM346.426 191.434C344.562 193.505 344.765 197.865 346.952 200.067C351.386 200.198 354.046 195.752 351.981 192.011C350.835 189.934 348.037 189.644 346.426 191.434ZM307.043 188.683C307.977 191.44 307.366 194.295 305.285 195.833C304.68 196.28 303.147 196.42 302.721 196.003C300.315 193.655 299.912 189.681 303.354 187.619C304.922 186.679 306.04 187.114 307.043 188.683ZM476.639 176.079C477.992 178.111 479.354 180.157 481.202 181.908C481.323 185.877 481.359 189.579 480.34 193.198C480.158 193.847 480.293 194.458 480.43 195.075C480.541 195.578 481.267 195.94 481.691 195.699C482.239 195.387 482.779 195.056 483.294 194.692C483.64 194.448 483.984 194.2 484.327 193.952C485.785 192.899 487.243 191.847 488.873 191.055C489.071 190.959 489.27 190.864 489.469 190.768C490.226 190.406 490.983 190.043 491.704 189.619C492.502 189.15 493.276 189.084 494.132 189.376C497.082 190.383 500.125 191.006 503.167 191.629C503.653 191.729 504.138 191.828 504.623 191.929C504.769 191.96 504.914 191.992 505.06 192.025C505.431 192.108 505.802 192.192 506.177 192.238C507.387 192.389 508.602 192.506 509.816 192.623C511.76 192.81 513.705 192.998 515.633 193.325C516.047 193.396 516.486 193.426 516.9 193.371C517.88 193.241 518.865 193.153 519.85 193.065C521.819 192.89 523.787 192.714 525.707 192.202C527.023 191.852 528.327 191.46 529.63 191.068C530.152 190.912 530.673 190.755 531.194 190.601C531.436 190.53 531.678 190.458 531.92 190.387C533.302 189.98 534.683 189.573 536.059 189.153C536.461 189.031 536.859 188.881 537.234 188.693C537.559 188.53 537.884 188.368 538.209 188.207C540.909 186.862 543.605 185.519 546.052 183.698C546.36 183.469 546.673 183.246 546.985 183.023C547.961 182.327 548.935 181.633 549.769 180.748C550.275 180.212 550.838 179.728 551.398 179.247L551.405 179.241C553.027 177.848 554.33 176.182 555.533 174.434C557.037 172.247 557.651 169.718 558.264 167.193L558.299 167.047C558.226 166.149 558.399 165.284 558.571 164.418C558.647 164.041 558.722 163.663 558.777 163.282C559.546 157.969 558.862 152.944 555.694 148.431C555.307 147.88 554.987 147.282 554.668 146.684C554.537 146.439 554.406 146.195 554.271 145.954C553.492 144.562 552.62 143.238 551.481 142.108C548.992 139.64 546.363 137.368 543.264 135.657C541.064 134.443 538.772 133.453 536.475 132.461C535.956 132.237 535.437 132.013 534.918 131.786C530.891 130.024 526.697 129.044 522.359 128.603C521.023 128.468 519.679 128.398 518.336 128.328C517.669 128.293 517.002 128.258 516.335 128.215C512.63 127.976 508.921 127.894 505.218 128.19C502.053 128.443 498.892 128.744 495.732 129.045C495.101 129.105 494.469 129.165 493.838 129.225C493.531 129.254 493.22 129.374 492.938 129.508C491.455 130.213 489.925 130.801 488.395 131.39C487.56 131.711 486.725 132.032 485.898 132.372C482.298 133.852 479.207 135.976 477.016 139.275C476.699 139.752 476.352 140.209 476.004 140.665C475.71 141.051 475.416 141.437 475.14 141.836C473.143 144.729 471.441 147.771 470.74 151.264C470.603 151.949 470.521 152.645 470.44 153.342C470.386 153.802 470.332 154.263 470.262 154.72C469.908 157.032 469.888 159.304 470.355 161.635C471.154 165.627 472.797 169.278 474.479 172.93C474.523 173.025 474.584 173.114 474.647 173.199C475.344 174.133 475.991 175.104 476.639 176.079ZM483.155 191.029C483.139 191.031 483.122 191.032 483.106 191.034C483.095 191.053 483.12 191.08 483.182 191.114C483.173 191.086 483.164 191.057 483.155 191.029ZM483.416 191.02C483.328 191.021 483.239 191.022 483.155 191.029C482.977 190.427 483.074 189.818 483.244 189.239C483.659 187.823 483.84 186.37 484.02 184.916C484.127 184.058 484.233 183.2 484.388 182.35C484.485 181.815 484.365 181.269 483.797 181.006C481.991 180.172 480.812 178.658 479.683 177.129C478.742 175.854 477.848 174.522 477.117 173.119C476.437 171.814 475.933 170.404 475.471 169.001C474.876 167.192 474.363 165.354 473.884 163.51C473.454 161.86 473.412 160.157 473.427 158.46C473.43 158.092 473.455 157.724 473.48 157.355C473.513 156.876 473.545 156.397 473.529 155.919C473.358 150.705 475.454 146.244 478.13 141.979C479.812 139.299 482.226 137.341 484.98 135.953C488.184 134.338 491.515 132.922 495.058 132.166C498.372 131.459 501.706 130.873 505.109 130.759C506.367 130.717 507.611 130.649 508.855 130.221C509.714 129.926 510.697 129.934 511.644 129.941C511.762 129.942 511.879 129.943 511.995 129.943C513.264 129.947 514.538 130.032 515.8 130.172C515.91 130.184 516.02 130.197 516.13 130.209C517.388 130.35 518.641 130.49 519.913 130.506C520.759 130.518 521.609 130.703 522.447 130.885C522.542 130.906 522.637 130.927 522.732 130.947C524.953 131.426 527.108 132.128 529.263 132.83C530.63 133.276 531.997 133.722 533.381 134.11C534.173 134.497 534.966 134.882 535.759 135.268C537.534 136.13 539.308 136.993 541.074 137.873C544.518 139.59 547.256 142.215 549.99 144.836L550.28 145.114C552.165 146.919 553.284 149.223 554.117 151.627C554.912 153.922 555.464 156.292 555.631 158.75C555.909 162.846 555.205 166.742 553.753 170.568C552.241 174.553 549.798 177.862 546.429 180.35C542.077 183.564 537.338 186.166 532.166 187.87C529.96 188.597 527.755 189.322 525.466 189.8C522.014 190.52 518.529 190.581 515.033 190.618C514.89 190.62 514.747 190.613 514.604 190.606C514.429 190.598 514.255 190.59 514.08 190.596C507.727 190.833 501.696 189.27 495.73 187.331C495.16 187.146 494.584 186.981 494.008 186.816C493.67 186.719 493.332 186.622 492.995 186.521C492.342 186.325 491.73 186.435 491.178 186.807C490.112 187.526 488.969 188.111 487.827 188.697C486.52 189.366 485.212 190.036 484.018 190.905C483.869 191.014 483.643 191.017 483.416 191.02Z" fill="#00160A"/>
<path fill-rule="evenodd" clip-rule="evenodd" d="M407.561 358.827L407.561 358.827C408.02 358.425 408.487 358.016 408.975 357.61C409.3 357.183 409.631 356.776 409.955 356.377L409.955 356.377C410.742 355.409 411.489 354.491 412.012 353.459C413.309 350.9 412.62 349.978 409.885 348.75C408.638 348.19 407.494 347.409 406.348 346.626C405.597 346.113 404.845 345.599 404.063 345.147L403.887 345.045C402.83 344.432 401.676 343.762 400.524 343.667C394.496 343.17 389.33 351.123 391.731 356.883C394.213 362.838 399.161 364.639 404.339 361.373C405.473 360.658 406.494 359.763 407.561 358.827ZM393.917 354.459C393.755 352.451 394.032 350.613 395.497 349.105C395.875 348.816 396.195 348.606 396.476 348.423C396.748 348.245 396.984 348.091 397.198 347.913C399.733 345.801 401.36 345.939 403.883 347.988C405.373 349.199 407.151 350.14 408.933 350.881C410.301 351.45 410.441 352.228 409.598 353.037C409.063 353.551 408.533 354.081 408.002 354.612L408.002 354.612L408.001 354.613L408.001 354.613C406.131 356.483 404.245 358.369 402.027 359.658C398.65 361.621 394.241 358.49 393.917 354.459ZM240.572 358.264L240.959 357.921L240.959 357.92C243.128 355.995 245.209 354.148 247.536 352.695C250.12 351.082 253.057 351.774 255.33 353.9C258.825 357.169 261.143 356.789 263.424 353.999C263.643 353.731 263.885 353.464 264.164 353.263C264.467 353.045 264.768 352.805 265.07 352.563L265.07 352.563C266.424 351.479 267.817 350.365 269.677 351.08C271.971 351.962 272.893 354.045 273.617 356.418C275.266 361.823 271.913 366.413 267.714 368.807C262.89 371.557 257.694 372.631 252.364 373.428C248.534 374.001 241.156 370.672 239.496 367.962C237.354 364.464 238.661 361.492 240.572 358.264ZM263.75 367.613L263.751 367.613C267.698 365.661 271.621 363.721 270.958 358.045C270.923 357.745 270.906 357.431 270.889 357.116C270.813 355.69 270.737 354.251 268.949 354.069C267.811 353.952 266.31 354.906 265.368 355.794C261.464 359.477 258.226 359.826 254.133 355.966C252.884 354.789 251.486 353.568 249.112 354.507C244.978 356.142 243.14 359.547 241.73 363.187C241.087 364.846 241.253 367.177 243.74 367.96C244.479 368.193 245.22 368.471 245.963 368.75C247.861 369.462 249.769 370.178 251.656 370.143C254.64 370.087 257.61 369.33 260.717 368.538C261.494 368.339 262.281 368.139 263.078 367.947C263.301 367.835 263.526 367.724 263.75 367.613ZM350.878 501.544C350.774 501.757 350.67 501.97 350.567 502.182C348.869 505.68 347.228 509.061 343.413 510.55C339.44 512.1 333.025 512.609 329.905 508.644C328.055 506.294 327.933 503.173 330.006 500.944C330.661 500.238 331.357 499.553 332.054 498.867L332.054 498.867C333.82 497.128 335.589 495.386 336.721 493.301C337.803 491.308 338.287 488.991 338.77 486.673L338.771 486.672C338.993 485.603 339.217 484.534 339.498 483.496C340.395 480.193 341.335 476.846 344.58 475.011C346.917 473.689 348.778 474.548 350.524 476.677C353.696 480.544 353.393 484.912 353.093 489.237C353.016 490.358 352.938 491.476 352.921 492.582C352.889 494.735 352.246 496.879 351.587 499.074L351.587 499.074L351.587 499.075C351.342 499.89 351.096 500.712 350.878 501.544ZM343.083 485.128C343.055 485.305 343.027 485.482 342.999 485.659C342.438 489.217 341.871 492.806 339.456 495.673C337.626 497.846 335.558 499.859 333.385 501.692C331.334 503.423 330.98 505.463 332.827 507.308C336.078 510.555 343.961 509.079 346.258 504.635C347.623 501.996 348.782 499.214 349.699 496.388C351.396 491.158 350.345 486.045 348.416 481.084C348.124 480.333 347.304 479.35 346.664 479.3C346.062 479.254 345.225 480.2 344.764 480.891C344.099 481.888 343.681 483.05 343.158 484.665C343.133 484.819 343.108 484.974 343.083 485.128ZM343.51 375.45C341.11 373.726 338.829 373.698 336.365 374.262C332.333 375.185 327.974 379.884 327.974 384.693C327.974 389.535 330.128 393.078 334.099 395.362C337.931 397.567 341.965 399.104 346.718 398.669C352.284 398.16 356.491 395.981 358.767 390.893C359.241 389.834 359.196 388.543 359.152 387.252C359.131 386.66 359.111 386.069 359.14 385.5C358.651 385.502 358.147 385.465 357.643 385.428C356.509 385.345 355.374 385.262 354.409 385.625C352.61 386.303 351.648 385.68 351.044 384.338C349.373 380.628 346.843 377.844 343.51 375.45ZM335.056 378.2C337.375 377.108 341.647 375.893 344.183 378.2C346.718 380.508 347.679 382.67 348.316 384.149C349.853 387.717 352.015 388.891 355.666 387.908C356.01 387.815 356.379 387.815 356.748 387.815C356.919 387.815 357.09 387.815 357.259 387.806C357.207 387.975 357.161 388.146 357.114 388.317C357.014 388.686 356.914 389.054 356.761 389.4C353.154 397.57 341.561 396.351 336.141 392.902C332.835 390.798 330.956 388.054 331.116 384.055C331.226 381.284 332.67 379.324 335.056 378.2ZM358.729 442.924C358.112 443.446 357.528 443.998 356.953 444.543C355.654 445.772 354.399 446.959 352.914 447.659C349.671 449.189 346.209 448.403 343.055 446.851C337.73 444.232 334.446 440.25 334.775 433.949C335.009 429.459 337.691 426.84 341.312 424.681C344.366 422.86 347.348 422.477 350.541 424.014C352.927 425.163 353.584 427.389 354.233 429.587C354.363 430.027 354.493 430.467 354.636 430.896C354.822 431.454 354.873 432.059 354.923 432.663C354.978 433.319 355.032 433.975 355.261 434.565C355.593 435.42 356.398 436.478 357.199 436.7C361.146 437.795 361.539 438.763 359.054 442.092C358.987 442.181 358.954 442.296 358.914 442.434C358.873 442.574 358.826 442.738 358.729 442.924ZM353.626 443.316C353.739 443.258 353.857 443.205 353.975 443.153C354.23 443.039 354.485 442.926 354.693 442.756C357.187 440.719 357.179 440.712 354.781 438.634L354.655 438.525C353.954 437.916 353.386 436.954 353.145 436.051C352.898 435.119 352.727 434.159 352.557 433.201C352.281 431.649 352.006 430.102 351.404 428.688C350.871 427.434 349.146 426.161 347.769 425.902C344.955 425.372 338.746 430.391 338.497 433.259C338.162 437.125 339.323 440.418 342.911 442.583C346.279 444.614 349.636 445.788 353.626 443.316ZM209.923 394.485C215.695 390.779 219.389 385.861 220.159 378.677C220.159 378.039 220.181 377.425 220.202 376.83V376.83V376.829V376.829V376.829C220.247 375.553 220.289 374.359 220.109 373.201C219.717 370.686 218.889 368.241 215.419 368.803C213.722 369.078 211.978 369.858 210.55 370.837C207.594 372.865 206.597 376.219 205.648 379.409L205.563 379.695C204.157 384.409 201.977 387.726 196.389 387.723C195.415 387.723 193.831 389.552 193.583 390.754C192.906 394.028 196.171 397.387 199.681 397.521C203.442 397.665 206.738 396.53 209.923 394.485ZM202.486 394.692C202.181 394.758 201.877 394.824 201.578 394.902C199.051 395.183 197.846 393.861 196.684 392.586C196.593 392.486 196.501 392.386 196.41 392.287C196.223 392.085 196.322 391.263 196.555 391.095C196.61 391.055 196.666 391.014 196.722 390.973L196.724 390.972C197.457 390.437 198.254 389.856 199.095 389.713C203.346 388.989 205.698 386.515 207.168 382.496C208.406 379.111 210.267 375.896 212.27 372.884C212.91 371.921 214.913 371.461 216.235 371.557C216.751 371.594 217.459 373.787 217.487 375.011C217.704 384.678 212.331 390.698 204.401 394.146C203.797 394.409 203.141 394.551 202.486 394.692ZM213.747 417.8C214.778 414.68 217.022 412.683 219.234 410.713L219.235 410.713C220.017 410.016 220.796 409.322 221.516 408.584C222.944 407.119 226.235 409.038 226.964 411.521C227.269 412.558 227.566 413.598 227.863 414.638L227.863 414.638L227.863 414.638L227.863 414.638L227.863 414.638L227.863 414.638L227.863 414.638L227.863 414.638L227.863 414.638L227.863 414.638C228.612 417.258 229.36 419.877 230.229 422.456C230.982 424.693 230.67 426.443 229.068 428.194C227.854 429.52 226.756 431.035 225.956 432.641C223.99 436.588 221.096 437.571 216.707 434.135C210.91 429.597 211.681 423.897 213.747 417.8ZM227.487 423.427C227.161 422.612 226.835 421.797 226.51 420.981C225.613 418.738 224.717 416.495 223.825 414.249C223.643 413.789 223.476 413.322 223.308 412.856L223.308 412.856C223.231 412.641 223.155 412.426 223.076 412.212C222.85 412.32 222.616 412.418 222.383 412.516L222.383 412.516L222.382 412.516C221.876 412.729 221.369 412.941 220.938 413.257C217.741 415.599 216.23 419.087 215.56 422.729C215.026 425.63 214.899 428.937 217.203 431.338C218.26 432.44 219.947 433.098 221.469 433.481C221.701 433.539 222.118 432.814 222.559 432.045C222.81 431.608 223.068 431.158 223.306 430.828C223.709 430.269 224.128 429.72 224.546 429.171L224.546 429.17C225.233 428.269 225.921 427.367 226.54 426.421C226.962 425.775 227.142 424.97 227.395 423.837C227.424 423.705 227.455 423.568 227.487 423.427ZM286.463 408.228C281.192 406.233 275.94 407.439 275.639 414.268C275.958 414.999 276.252 415.73 276.542 416.452C277.364 418.498 278.154 420.463 279.372 422.111C283.768 428.057 289.328 429.844 295.511 427.367C299.442 425.793 299.46 422.195 296.828 419.937C294.354 417.816 292.224 415.428 290.915 412.216C290.228 410.532 288.238 408.9 286.463 408.228ZM291.711 424.781C288.869 425.299 286.006 425.821 283.752 423.165C280.95 420.409 279.015 417.612 278.765 413.9C278.665 412.407 279.255 411.596 280.652 411.04C282.614 410.259 287.128 411.212 287.563 413.15C288.18 415.896 289.805 417.884 291.432 419.875C292.074 420.661 292.717 421.447 293.298 422.281C293.635 422.765 293.995 423.644 293.781 423.999C293.517 424.433 292.678 424.606 292.056 424.719L291.901 424.747L291.711 424.781ZM273.546 478.122C273.65 477.486 273.713 476.849 273.774 476.226C273.916 474.771 274.051 473.4 274.695 472.338C276.362 469.588 275.972 467.221 274.605 464.674C274.471 464.425 274.398 464.143 274.324 463.861C274.253 463.589 274.183 463.316 274.057 463.073C272.946 460.912 273.467 458.794 275.408 457.893C276.772 457.259 279.053 457.458 280.431 458.202C284.908 460.618 286.939 464.905 287.629 469.738C288.233 473.961 287.286 478.065 285.568 481.939C283.351 486.936 278.876 486.3 276.021 483.338C275.124 482.407 274.642 481.077 274.133 479.67C273.948 479.159 273.759 478.638 273.546 478.122ZM282.443 464.252C282.176 463.985 281.914 463.712 281.651 463.439C281.005 462.767 280.358 462.095 279.642 461.508C279.339 461.26 278.901 461.177 278.464 461.093C278.265 461.055 278.067 461.017 277.881 460.964C277.837 461.172 277.759 461.399 277.682 461.626C277.514 462.116 277.347 462.606 277.516 462.906C279.395 466.22 278.967 469.273 276.999 472.393C276.584 473.051 276.432 473.874 276.28 474.698L276.28 474.698C276.205 475.106 276.13 475.514 276.022 475.904C275.438 478.024 276.996 482.048 278.981 482.659C279.029 482.674 279.078 482.69 279.128 482.706L279.147 482.712L279.15 482.712C280.208 483.045 281.634 483.493 282.475 481.726C285.183 476.039 286.082 470.421 282.443 464.252ZM436.509 409.984C439.877 411.465 445.538 410.97 449.8 406.286C450.114 405.802 450.428 405.33 450.737 404.865L450.739 404.861C451.707 403.404 452.631 402.01 453.414 400.541C455.371 396.867 451.978 391.208 447.788 391.292C446.597 391.316 445.411 391.542 444.224 391.768C443.12 391.979 442.015 392.189 440.904 392.237C437.539 392.383 434.871 393.577 432.992 396.402C429.743 401.286 430.964 407.547 436.509 409.984ZM441.845 395.957C442.01 395.953 442.176 395.949 442.342 395.949C442.735 395.882 443.113 395.837 443.465 395.795C444.426 395.679 445.204 395.586 445.641 395.151C447.074 393.724 448.322 394.386 449.426 395.254C450.621 396.193 451.282 397.345 450.708 399.177C449.353 403.499 446.908 406.686 442.435 407.835C439.93 408.479 437.585 407.861 435.849 405.691C434.281 403.731 434.041 401.655 435.197 399.434C436.368 397.187 438.006 395.669 440.772 395.941C441.127 395.976 441.486 395.967 441.845 395.957ZM377.048 402.099C380.35 399.916 383.496 399.777 386.494 402.252C387.343 402.953 388.091 403.852 388.658 404.797C388.908 405.212 389.057 405.703 389.204 406.188C389.394 406.815 389.582 407.433 389.98 407.873C391.754 409.829 390.644 411.583 389.195 412.3C385.534 414.11 381.672 415.587 377.769 416.805C375.714 417.446 372.969 415.017 372.47 412.694C371.376 407.599 373.441 404.239 377.048 402.099ZM386.076 409.295C385.822 408.95 385.571 408.602 385.32 408.254L385.32 408.253L385.32 408.253C384.71 407.407 384.1 406.561 383.442 405.754L383.384 405.682C382.941 405.138 382.375 404.441 381.807 404.379C377.549 403.916 373.902 408.835 375.639 412.68C376.15 413.812 377.198 415.026 378.441 413.698C380.16 411.862 382.284 411.488 384.531 411.091L384.683 411.065C385.304 410.955 385.79 410.08 386.076 409.295ZM368.211 516.704C368.123 517.128 368.031 517.571 367.888 518.031C367.91 518.369 368.002 518.673 368.088 518.961C368.173 519.242 368.253 519.508 368.259 519.775C368.407 526.24 376.852 531.235 382.122 530.471C385.805 529.938 387.822 528.599 388.352 525.206C388.823 522.189 388.083 518.887 385.719 516.959C382.996 514.74 379.71 513.068 376.443 511.696C372.563 510.066 370.114 511.37 368.592 515.262C368.415 515.714 368.316 516.195 368.211 516.704ZM372.076 515.549C372.307 515.113 372.538 514.676 372.73 514.237C373.2 514.349 373.67 514.455 374.136 514.562C378.501 515.556 382.552 516.478 384.498 520.822C385.42 522.883 386.471 525.355 383.941 526.959C382.72 527.732 380.856 527.973 379.379 527.767C375.707 527.256 370.488 523.297 370.97 518.443C371.068 517.452 371.572 516.5 372.076 515.549ZM374.562 451.429C378.821 451.828 382.199 453.711 382.901 458.201C383.149 459.79 384.154 460.001 385.259 460.233C385.42 460.267 385.583 460.301 385.746 460.34C388.192 460.925 390.135 462.939 389.75 466.118C389.472 468.422 388.288 469.361 384.988 469.176C382.78 469.052 380.463 468.818 378.428 468.03C371.842 465.48 369.954 460.059 370.419 454.325C370.593 452.173 372.183 451.296 374.562 451.429ZM384.244 462.944C381.42 463.122 380.072 461.43 379.852 458.966C379.62 456.363 377.756 455.531 375.919 454.711L375.709 454.617C374.396 454.029 372.851 455.558 373.066 456.999C373.871 462.385 380.006 467.063 385.506 466.641C387.536 466.485 387.279 465.438 386.546 464.369C386.306 464.019 385.868 463.805 385.348 463.55C385.005 463.382 384.626 463.197 384.244 462.944ZM321.698 552.968C321.762 552.279 321.766 551.578 321.77 550.894C321.779 549.387 321.788 547.964 322.43 546.938C323.998 544.437 325.887 542.137 327.777 539.837L327.777 539.836L327.778 539.835C328.547 538.899 329.316 537.963 330.064 537.013C331.35 535.379 333.345 534.431 334.971 535.315C336.624 536.213 338.228 538.041 338.858 539.814C340.355 544.031 338.467 547.655 335.643 550.749C334.842 551.627 333.934 552.405 333.025 553.183L333.025 553.183C332.309 553.797 331.592 554.411 330.927 555.074C327.238 558.755 323.949 557.039 321.698 552.968ZM330.858 551.921C334.628 549.443 337.061 546.224 336.902 541.445C336.846 539.775 336.22 538.661 334.706 537.956C333.115 537.215 332.03 538.213 331.541 539.289C330.304 542.007 328.537 544.327 326.766 546.652L326.766 546.653C326.154 547.457 325.541 548.262 324.949 549.084C324.347 549.921 324.719 551.943 325.327 553.041C326.036 554.32 327.454 554.105 328.652 553.123C328.945 552.883 329.298 552.717 329.706 552.525C330.052 552.363 330.437 552.182 330.858 551.921ZM309.072 521.71C310.703 517.927 310.949 513.869 310.053 509.657C309.978 509.582 309.92 509.529 309.875 509.487C309.804 509.421 309.765 509.384 309.74 509.34C307.931 506.121 306.039 504.681 303.914 505.385C301.225 506.276 300.222 508.288 300.127 511.209C300.059 513.292 299.232 515.13 296.432 515.947C292.275 517.16 292.575 520.886 295.139 522.902C296.118 523.672 297.364 524.118 298.597 524.559C298.985 524.697 299.372 524.835 299.748 524.983C302.107 525.908 307.907 524.41 309.072 521.71ZM307.244 511.361C307.348 511.538 307.453 511.714 307.567 511.881C307.567 512.819 307.627 513.722 307.685 514.587C307.807 516.396 307.917 518.04 307.438 519.488C306.209 523.202 298.907 523.863 296.578 520.649C296.329 520.305 297.023 518.624 297.5 518.512C301.36 517.613 302.793 515.112 302.926 511.382C302.954 510.573 303.732 509.604 304.443 509.101C304.71 508.912 305.836 509.756 306.44 510.279C306.771 510.566 307.007 510.964 307.244 511.361Z" fill="#FFB61D"/>
</svg>
