<svg width="750" height="750" viewBox="0 0 750 750" fill="none" xmlns="http://www.w3.org/2000/svg">
<rect width="750" height="750" fill="none"/>
<path fill-rule="evenodd" clip-rule="evenodd" d="M131.443 409.362C252.395 380.614 467.354 386.54 611.567 422.597C755.78 458.654 774.636 511.188 653.683 539.935C538.573 567.294 338.318 563.248 194.932 531.713C170.146 527.9 146.471 523.259 124.689 517.813C1.6331 487.046 -14.4566 442.219 88.7513 417.69C100.527 414.891 113.347 412.477 127.002 410.443C128.459 410.08 129.94 409.719 131.443 409.362Z" />
<path fill-rule="evenodd" clip-rule="evenodd" d="M141.512 470.422C130.236 478.876 113.213 475.889 102.651 466.558C92.0896 457.227 86.9881 443.111 84.6673 429.21C80.1564 402.192 84.8728 373.719 97.8544 349.599C100.759 344.203 104.509 338.654 110.318 336.703C166.099 317.967 223.906 305.27 282.404 298.902C326.365 294.117 371.115 292.931 414.553 301.214C457.992 309.497 500.257 327.736 532.466 358.037C545.076 369.901 563.501 372.999 580.802 373.7C598.102 374.4 615.88 373.323 632.265 378.919C660.04 388.405 677.951 414.721 693.839 439.4C698.128 446.064 702.462 452.817 704.966 460.336C712.707 483.583 702.1 511.067 713.777 532.608C706.668 534.788 699.032 535.228 691.72 533.879C693.119 540.377 684.492 543.949 677.906 544.846C648.872 548.8 619.837 552.754 590.803 556.707C589.822 553.781 590.731 550.313 593.02 548.244C544.136 543.334 495.222 538.715 446.282 534.386C440.806 533.902 434.307 533.85 431.021 538.257C413.085 562.309 372.665 564.554 352.175 542.637C344.626 534.562 339.06 523.606 328.663 519.851C287.414 504.949 246.165 490.048 204.916 475.147C193.465 471.01 175.823 466.582 151.991 461.862C150.342 461.352 149.156 461.396 148.432 461.994C144.818 464.982 142.473 469.701 141.512 470.422Z" fill="white"/>
<path fill-rule="evenodd" clip-rule="evenodd" d="M90.7074 384.796C93.0937 373.606 107.64 368.521 118.343 372.566C129.046 376.611 135.441 388.681 140.244 399.065C146.8 413.237 148.892 462.237 136.748 471.342C125.472 479.796 113.213 475.889 102.652 466.558C92.0897 457.227 86.9883 443.11 84.6674 429.209C80.1565 402.192 93.4119 375.21 90.7074 384.796Z" fill="#00160A"/>
<path fill-rule="evenodd" clip-rule="evenodd" d="M110.574 470.072C122.706 470.072 132.541 450.193 132.541 425.67C132.541 401.148 118.52 381.605 110.574 381.269C102.629 380.934 88.6074 401.148 88.6074 425.67C88.6074 450.193 98.4423 470.072 110.574 470.072Z" fill="white"/>
<path fill-rule="evenodd" clip-rule="evenodd" d="M418.403 549.333C421.691 547.176 424.717 544.623 427.713 542.05C432.71 537.757 437.782 533.212 440.649 527.177C442.836 522.573 443.593 517.392 444.071 512.283C445.624 495.682 445.735 477.368 440.649 461.544C435.563 445.72 425.141 432.429 412.376 422.274C406.354 417.485 399.479 413.671 392.034 412.134C381.083 409.874 367.967 412.371 358.48 418.475C348.992 424.578 341.914 432.805 336.497 442.925C327.798 459.176 324.444 480.928 329.017 498.898C330.541 504.888 332.657 513.278 335.384 518.79C339.587 527.286 350.812 549.862 371.786 556.383C395.076 563.625 411.278 554.008 418.403 549.333Z" fill="#00160A"/>
<path fill-rule="evenodd" clip-rule="evenodd" d="M392.209 549.982C423.298 545.419 436.272 525.451 436.272 493.498C436.272 461.544 411.563 427.408 384.46 427.408C357.356 427.408 335.385 454.611 335.385 488.168C335.385 521.724 361.12 554.546 392.209 549.982Z" fill="white"/>
<path fill-rule="evenodd" clip-rule="evenodd" d="M223.525 374.184C222.713 373.448 222.841 372.16 223.035 371.081C223.174 370.308 223.587 369.322 224.364 369.433C225.722 369.627 224.828 372.446 226.156 372.792C231.531 374.193 236.85 375.81 242.096 377.639C243.173 378.014 244.238 377.153 245.163 376.485C246.087 375.817 247.56 375.378 248.223 376.306C246.792 377.581 245.209 378.924 243.296 379.052C242.54 379.103 241.787 378.956 241.044 378.806C235.585 377.701 230.173 376.361 224.829 374.792C224.364 374.656 223.884 374.509 223.525 374.184Z" fill="#00160A"/>
<path fill-rule="evenodd" clip-rule="evenodd" d="M319.803 493.497C289.575 481.748 260.656 466.632 233.755 448.518C225.548 442.992 219.465 434.706 215.367 425.701C211.269 416.696 209.042 406.955 207.406 397.198C205.408 385.282 204.256 373.225 203.959 361.146C204.911 360.999 205.355 362.278 205.427 363.239C207.028 384.559 208.105 406.525 217.07 425.934C218.52 429.074 220.36 432.315 223.464 433.838C252.474 448.074 281.483 462.309 310.493 476.544C309.176 477.373 307.465 476.696 306.068 476.009C278.268 462.347 250.468 448.685 222.669 435.023C225.977 441.449 232.154 445.827 238.193 449.798C262.453 465.751 288.288 479.308 315.199 490.21C311.956 486.545 308.496 482.234 309.073 477.374C309.985 478.239 310.44 479.463 310.947 480.613C313.056 485.399 316.452 489.483 319.803 493.497Z" fill="#00160A"/>
<path fill-rule="evenodd" clip-rule="evenodd" d="M681.922 204.072C682.213 203.829 682.669 204.249 682.598 204.621C682.528 204.994 682.179 205.237 681.859 205.44C681.546 205.033 681.552 204.411 681.873 204.01L681.922 204.072Z" fill="#00160A"/>
<path fill-rule="evenodd" clip-rule="evenodd" d="M504.05 403.301C504.577 402.442 505.838 402.549 506.822 402.77C548.521 412.153 586.662 433.949 619.82 460.92C620.77 461.693 621.803 462.644 621.784 463.869C616.182 459.71 610.581 455.551 604.979 451.393C601.255 448.628 597.531 445.864 593.733 443.201C566.775 424.302 536.138 410.671 504.05 403.301Z" fill="#00160A"/>
<path fill-rule="evenodd" clip-rule="evenodd" d="M445.759 415.835C444.922 415.875 444.133 415.483 443.385 415.107C419.408 403.025 393.354 395.746 367.49 388.539C367.973 387.628 369.305 387.777 370.297 388.059C393.905 394.763 417.63 401.51 439.879 411.867C442.043 412.874 444.266 413.973 445.759 415.835Z" fill="#00160A"/>
<path fill-rule="evenodd" clip-rule="evenodd" d="M353.021 486.62C352.673 487.012 352.015 487.075 351.6 486.756C356.709 470.904 370.178 458.015 386.24 453.608C386.464 454.671 385.182 455.361 384.152 455.706C369.786 460.517 357.932 472.288 353.021 486.62Z" fill="#00160A"/>
<path fill-rule="evenodd" clip-rule="evenodd" d="M262.062 483.404C268.715 487.118 274.394 492.559 278.39 499.047C277.362 499.625 276.228 498.52 275.544 497.559C271.36 491.679 266.141 486.283 259.533 483.381C237.49 473.701 215.805 463.204 194.538 451.92C195.37 451.498 196.364 451.901 197.206 452.303C206.1 456.55 214.994 460.796 223.888 465.043C229.911 467.918 235.933 470.794 241.955 473.669C246.957 476.057 251.958 478.446 256.96 480.834C258.679 481.655 260.399 482.476 262.062 483.404Z" fill="#00160A"/>
<path fill-rule="evenodd" clip-rule="evenodd" d="M339.969 460.674C340.781 458.506 341.251 456.13 343.255 454.971C337.128 467.742 335.323 482.181 336.131 496.322C336.232 498.091 336.389 499.863 336.752 501.597C337.347 504.448 338.497 507.182 340.12 509.601C340.072 510.076 339.432 510.29 338.998 510.092C338.563 509.894 338.305 509.448 338.086 509.025C334.245 501.6 333.837 492.875 334.46 484.54C334.614 482.477 334.827 480.416 335.17 478.376C336.193 472.308 337.335 466.397 339.491 460.634L339.969 460.674Z" fill="#00160A"/>
<path fill-rule="evenodd" clip-rule="evenodd" d="M652.004 455.098C653.001 455.115 654.066 455.274 654.806 455.943C655.168 456.27 655.424 456.694 655.67 457.116C656.909 459.237 658.022 461.431 659.002 463.683C658.617 464.558 657.551 464.967 656.6 464.876C655.649 464.785 654.786 464.302 653.962 463.817C651.694 462.482 649.481 461.052 647.33 459.534C646.739 459.116 646.077 458.44 646.381 457.783C647.307 455.788 649.804 455.058 652.004 455.098ZM656.926 463.952C657.128 463.719 657.33 463.486 657.533 463.253C656.854 461.987 656.175 460.722 655.496 459.456C654.905 458.354 654.233 457.176 653.085 456.679C652.208 456.3 651.205 456.392 650.264 456.555C649.636 456.665 648.97 456.826 648.538 457.294C648.105 457.763 648.064 458.635 648.61 458.963C651.382 460.626 654.154 462.289 656.926 463.952Z" fill="#00160A"/>
<path fill-rule="evenodd" clip-rule="evenodd" d="M365.501 489.52C364.94 488.361 365.253 486.981 365.659 485.759C368.808 476.27 376.704 469.068 385.253 463.883C385.646 463.644 386.097 463.4 386.543 463.514C386.988 463.628 387.243 464.317 386.847 464.551C378.407 469.546 370.423 476.398 367.312 485.699C366.861 487.048 366.485 488.492 365.501 489.52Z" fill="#00160A"/>
<path fill-rule="evenodd" clip-rule="evenodd" d="M124.67 414.939C125.106 414.087 126.352 415.021 126.72 415.905C129.517 422.621 130.091 430.243 128.331 437.302C126.572 444.362 122.488 450.822 116.866 455.44C115.933 454.996 116.663 453.597 117.424 452.896C122.498 448.222 126.019 441.89 127.313 435.114C128.607 428.338 127.666 421.154 124.67 414.939Z" fill="#00160A"/>
<path fill-rule="evenodd" clip-rule="evenodd" d="M98.898 437.031C99.0441 437.31 99.1945 437.609 99.1679 437.923C99.1412 438.237 98.8567 438.55 98.5487 438.483C98.3394 438.438 98.1993 438.244 98.0967 438.056C97.6086 437.161 97.5177 436.058 97.8527 435.095C98.4723 435.5 98.8196 436.284 98.7024 437.015L98.898 437.031Z" fill="#00160A"/>
<path fill-rule="evenodd" clip-rule="evenodd" d="M139.995 446.611C140.488 446.989 140.197 447.949 139.576 447.989C139.252 447.681 139.444 447.028 139.884 446.945L139.995 446.611Z" fill="#00160A"/>
<path fill-rule="evenodd" clip-rule="evenodd" d="M95.6311 438.05C95.2456 437.053 95.0121 435.63 95.9779 435.171C96.6648 437.099 97.3517 439.026 98.0385 440.954C98.1414 441.242 98.2458 441.549 98.1828 441.849C98.1199 442.149 97.8188 442.421 97.5246 442.335C97.2786 442.264 97.1557 441.995 97.0633 441.756C96.5859 440.521 96.1085 439.286 95.6311 438.05Z" fill="#00160A"/>
<path fill-rule="evenodd" clip-rule="evenodd" d="M93.604 436.1C94.438 436.526 94.3199 437.716 94.3378 438.653C94.3754 440.629 95.5459 442.371 96.4932 444.105C96.6825 444.452 96.8696 444.849 96.7567 445.227C96.6437 445.605 96.0626 445.817 95.85 445.484C94.4835 443.345 93.5101 440.956 92.9929 438.471C92.813 437.607 92.8084 436.482 93.604 436.1Z" fill="#00160A"/>
<path fill-rule="evenodd" clip-rule="evenodd" d="M237.376 322.735C209.636 327.82 182.073 335.385 157.218 348.711C156.524 347.726 157.799 346.556 158.884 346.031C188.702 331.615 221.068 322.487 254.025 319.199C261.671 318.436 269.461 317.992 276.983 319.564C295.89 323.514 310.264 339.846 317.259 357.85C321.239 368.092 323.911 379.942 332.944 386.198C323.599 385.152 314.63 382.027 305.753 378.924C302.298 377.716 298.843 376.509 295.388 375.301C288.272 372.813 281.156 370.326 274.04 367.839C282.312 369.184 290.447 371.372 298.278 374.358C297.653 372.575 296.423 371.01 294.839 369.98C282.572 366.824 269.675 366.133 257.14 367.963C254.729 368.315 253.975 364.879 252.559 362.895C251.188 360.974 248.712 360.261 246.426 359.673C230.579 355.602 214.733 351.53 198.886 347.458C199.568 346.733 200.736 346.876 201.71 347.077C218.188 350.481 234.485 354.766 250.507 359.907C249.349 357.527 248.192 355.147 247.034 352.767C246.854 352.396 246.668 351.993 246.743 351.588C246.848 351.019 247.412 350.671 247.925 350.402C262.468 342.785 280.107 341.309 295.714 346.403C297.867 347.106 300.347 348.403 300.44 350.665C300.787 359.113 307.451 365.767 313.666 371.498C316.418 374.035 319.273 376.636 322.801 377.885C319.652 368.091 316.475 358.233 311.594 349.177C306.712 340.12 299.973 331.813 291.082 326.637C275.225 317.406 255.423 319.426 237.376 322.735ZM297.146 350.5C296.644 349.586 296.042 348.588 295.037 348.312C288.247 346.443 281.268 344.557 274.261 345.258C270.849 345.599 267.532 346.546 264.235 347.49C259.589 348.82 254.942 350.151 250.296 351.481C249.903 351.593 249.448 351.767 249.351 352.164C249.28 352.448 249.429 352.736 249.573 352.992C251.553 356.508 253.533 360.025 255.513 363.541C255.9 364.229 256.325 364.954 257.028 365.312C257.564 365.585 258.188 365.605 258.789 365.609C267.443 365.672 276.232 363.633 284.662 365.591C286.882 366.106 289.045 366.895 291.307 367.18C293.568 367.465 296.027 367.179 297.808 365.757C299.981 364.023 300.682 360.933 300.261 358.186C299.841 355.438 298.482 352.937 297.146 350.5ZM329.526 383.918C327.445 380.975 323.6 380.03 320.393 378.384C313.332 374.761 309.015 367.385 302.634 362.665C301.45 364.628 299.774 366.29 297.801 367.457C297.273 367.769 296.643 368.185 296.691 368.797C296.712 369.058 296.86 369.289 297.004 369.508C297.953 370.951 298.902 372.394 299.851 373.837C300.451 374.75 301.072 375.684 301.964 376.315C302.75 376.871 303.692 377.152 304.616 377.424C312.909 379.867 321.203 382.309 329.496 384.752C329.817 384.675 329.717 384.188 329.526 383.918Z" fill="#00160A"/>
<path fill-rule="evenodd" clip-rule="evenodd" d="M94.0382 430.345C92.2008 425.063 92.4155 419.193 94.0539 413.846C95.6922 408.499 98.692 403.643 102.273 399.347C102.558 399.005 102.854 398.66 103.233 398.427C103.526 398.248 103.863 398.141 104.205 398.118C104.438 398.807 103.951 399.513 103.499 400.083C100.548 403.804 97.8483 407.781 96.099 412.196C94.3497 416.611 93.5918 421.511 94.582 426.156C94.894 427.619 95.2457 429.461 94.0382 430.345H94.0382Z" fill="#00160A"/>
<path fill-rule="evenodd" clip-rule="evenodd" d="M125.089 424.041C126.891 432.168 123.704 441.195 117.198 446.389C117.121 446.45 117.041 446.512 116.948 446.543C116.578 446.667 116.227 446.211 116.287 445.825C116.347 445.439 116.652 445.145 116.936 444.876C118.556 443.337 120.008 441.611 121.16 439.695C123.719 435.438 124.709 430.261 123.903 425.359C123.828 424.903 123.747 424.396 123.999 424.008C124.251 423.619 124.988 423.589 125.089 424.041Z" fill="#00160A"/>
<path fill-rule="evenodd" clip-rule="evenodd" d="M121.942 398.346C122.094 398.655 122.237 399.014 122.11 399.335C121.984 399.656 121.448 399.78 121.309 399.465C120.59 397.832 119.428 396.397 117.98 395.354C117.572 395.061 117.962 394.335 118.464 394.31C118.966 394.285 119.386 394.67 119.72 395.045C120.607 396.037 121.356 397.151 121.942 398.346Z" fill="#00160A"/>
<path fill-rule="evenodd" clip-rule="evenodd" d="M119.371 392.329C119.045 392.037 119.434 391.443 119.871 391.447C120.309 391.452 120.658 391.8 120.943 392.132C122.633 394.097 123.955 396.375 124.824 398.816C124.947 399.164 125.059 399.563 124.885 399.888C124.711 400.214 124.119 400.269 124.025 399.913C123.256 397.004 121.616 394.332 119.371 392.329Z" fill="#00160A"/>
<path fill-rule="evenodd" clip-rule="evenodd" d="M119.296 401.758C118.543 401.132 117.789 400.505 117.036 399.879C116.733 399.627 117.062 399.081 117.456 399.065C117.85 399.05 118.181 399.342 118.465 399.615C118.918 400.05 119.371 400.485 119.823 400.919C120.129 401.213 120.415 401.77 120.05 401.984C119.807 402.126 119.511 401.937 119.296 401.758Z" fill="#00160A"/>
<path fill-rule="evenodd" clip-rule="evenodd" d="M429.584 498.92C428.181 507.067 423.784 514.664 417.419 519.939C413.908 522.849 409.859 525.047 405.703 526.925C400.987 529.056 396.096 530.8 391.096 532.133C391.167 530.812 392.707 530.171 393.98 529.811C401.413 527.709 408.728 524.795 414.884 520.129C421.039 515.462 425.979 508.89 427.584 501.334C427.826 500.193 428.439 498.7 429.584 498.92Z" fill="#00160A"/>
<path fill-rule="evenodd" clip-rule="evenodd" d="M112.641 427.301C111.659 427.609 110.549 427.254 109.782 426.568C109.015 425.882 108.555 424.909 108.296 423.913C108.063 423.014 107.979 422.077 108.048 421.152C108.175 419.441 108.826 417.791 109.789 416.372C110.274 415.659 110.887 414.965 111.716 414.727C113.104 414.33 114.555 415.404 115.151 416.718C115.714 417.958 115.734 419.37 115.677 420.731C115.602 422.519 115.384 424.384 114.388 425.87C113.961 426.508 113.373 427.071 112.641 427.301ZM112.059 416.232C109.246 418.17 108.397 422.45 110.256 425.315C110.656 425.932 111.274 426.531 112.007 426.471C112.869 426.4 113.377 425.491 113.682 424.682C114.692 421.993 115.085 418.743 113.388 416.426C113.246 416.232 113.074 416.037 112.84 415.984C112.566 415.921 112.291 416.072 112.059 416.232Z" fill="#00160A"/>
<path fill-rule="evenodd" clip-rule="evenodd" d="M105.539 405.056C101.981 408.06 100.351 412.721 99.0656 417.196C98.4452 419.356 97.8653 421.548 97.7556 423.792C97.7082 424.761 97.7029 425.85 97.0096 426.529C96.2466 426.191 96.1713 425.152 96.2394 424.321C96.8065 417.391 99.2674 410.625 103.285 404.95C103.66 404.42 104.129 403.852 104.777 403.8C105.424 403.747 106.035 404.637 105.539 405.056Z" fill="#00160A"/>
<path fill-rule="evenodd" clip-rule="evenodd" d="M375.619 510.501C375.953 510.81 375.56 511.423 375.105 511.435C374.65 511.447 374.271 511.106 373.954 510.779C371.904 508.658 370.254 506.154 369.113 503.434C369.428 503.053 370.061 503.108 370.452 503.41C370.843 503.712 371.056 504.183 371.271 504.627C372.339 506.832 373.822 508.835 375.619 510.501Z" fill="#00160A"/>
<path fill-rule="evenodd" clip-rule="evenodd" d="M377.926 507.032C376.547 505.875 375.38 504.466 374.501 502.895C374.387 502.692 374.275 502.464 374.323 502.237C374.404 501.855 374.914 501.705 375.275 501.854C375.636 502.002 375.875 502.343 376.094 502.666C376.927 503.895 377.76 505.124 378.592 506.353C378.37 506.579 378.148 506.805 377.926 507.032Z" fill="#00160A"/>
<path fill-rule="evenodd" clip-rule="evenodd" d="M364.194 506.114C364.756 507.766 365.442 509.376 366.244 510.926C367.335 513.033 368.65 515.042 370.312 516.735C370.665 517.094 370.165 517.745 369.664 517.698C369.162 517.652 368.795 517.221 368.493 516.818C366.655 514.374 365.05 511.754 363.707 509.007C363.455 508.49 363.206 507.944 363.227 507.37C363.247 506.796 363.625 506.192 364.194 506.114Z" fill="#00160A"/>
<path fill-rule="evenodd" clip-rule="evenodd" d="M192.223 354.205C190.284 371.012 193.319 387.951 196.342 404.597C196.856 407.427 197.371 410.258 198.063 413.05C200.27 421.943 204.299 430.38 209.83 437.686C210.562 438.653 211.324 440.041 210.529 440.958C200.265 434.582 190.233 427.832 180.459 420.727C179.568 420.079 178.631 419.365 178.269 418.324C171.014 397.477 168.769 375.274 166.575 353.31C166.539 352.953 166.505 352.58 166.63 352.243C166.845 351.663 167.459 351.349 168.02 351.088C175.613 347.573 183.206 344.058 190.798 340.542C195.594 338.322 200.483 336.074 205.724 335.394C203.603 337.262 200.923 338.488 198.123 338.872C196.581 339.083 195.338 340.327 194.694 341.744C194.051 343.161 193.902 344.745 193.762 346.296C197.488 343.723 201.213 341.151 204.938 338.579C205.893 337.92 207.53 337.444 207.932 338.532C203.661 341.178 199.477 343.963 195.388 346.881C193.156 348.474 192.537 351.48 192.223 354.205ZM202.755 429.026C201.504 426.886 200.248 424.737 199.327 422.436C198.285 419.83 197.689 417.071 197.098 414.328C194.496 402.251 191.888 390.138 190.778 377.834C189.668 365.53 190.089 352.962 193.465 341.079C189.628 342.447 185.948 344.219 182.278 345.988C177.731 348.178 173.185 350.369 168.639 352.559C168.416 352.667 168.182 352.784 168.049 352.992C167.885 353.25 167.915 353.58 167.951 353.883C168.597 359.339 169.243 364.794 169.888 370.25C170.872 378.561 171.857 386.882 173.471 395.094C174.693 401.309 176.273 407.452 178.202 413.485C179.056 416.155 180.118 418.992 182.446 420.554C190.869 426.204 199.292 431.855 207.715 437.505C206.061 434.679 204.408 431.852 202.755 429.026Z" fill="#00160A"/>
<path fill-rule="evenodd" clip-rule="evenodd" d="M410.91 470.888C412.376 472.295 413.568 473.985 414.401 475.838C414.48 476.015 414.558 476.204 414.532 476.397C414.469 476.869 413.802 477.032 413.389 476.794C412.977 476.556 412.762 476.09 412.552 475.663C411.659 473.841 410.4 472.2 408.871 470.866C408.891 470.435 409.396 470.16 409.823 470.225C410.25 470.29 410.599 470.589 410.91 470.888Z" fill="#00160A"/>
<path fill-rule="evenodd" clip-rule="evenodd" d="M417.638 495.38C417.766 495.056 418.306 495.142 418.466 495.452C418.626 495.761 418.529 496.136 418.422 496.468C415.246 506.293 406.277 513.237 396.775 517.277C396.296 517.48 395.747 517.679 395.272 517.466C394.797 517.254 394.668 516.42 395.165 516.265C405.261 513.12 413.762 505.219 417.638 495.38Z" fill="#00160A"/>
<path fill-rule="evenodd" clip-rule="evenodd" d="M406.612 476.238C407.518 477.375 408.233 478.665 408.716 480.037C408.763 480.168 408.807 480.311 408.766 480.443C408.624 480.905 407.923 480.586 407.618 480.212C406.672 479.051 405.727 477.891 404.781 476.73C404.631 476.546 404.474 476.346 404.453 476.109C404.411 475.624 404.997 475.277 405.473 475.375C405.949 475.473 406.308 475.857 406.612 476.238Z" fill="#00160A"/>
<path fill-rule="evenodd" clip-rule="evenodd" d="M420.095 473.453C419.586 473.133 419.426 472.481 419.278 471.899C418.472 468.733 416.743 465.809 414.359 463.576C414.02 463.259 413.648 462.922 413.555 462.467C413.462 462.013 413.837 461.448 414.289 461.558C414.464 461.6 414.603 461.73 414.732 461.856C417.327 464.4 419.335 467.538 420.56 470.959C420.877 471.846 420.978 473.122 420.095 473.453Z" fill="#00160A"/>
<path fill-rule="evenodd" clip-rule="evenodd" d="M389.75 485.455C391.298 485.209 392.939 485.608 394.202 486.537C394.711 486.912 395.158 487.367 395.54 487.87C396.796 489.524 397.308 491.721 396.913 493.759C396.518 495.797 395.223 497.644 393.441 498.709C393.014 498.964 392.554 499.178 392.062 499.254C391.692 499.311 391.312 499.288 390.942 499.227C389.085 498.922 387.462 497.663 386.474 496.061C385.063 493.773 384.906 490.763 386.07 488.34C386.478 487.49 387.052 486.698 387.835 486.173C388.406 485.791 389.071 485.562 389.75 485.455ZM393.13 496.573C393.963 495.716 394.555 494.629 394.824 493.465C395.275 491.516 394.692 489.248 393.064 488.086C391.435 486.925 388.784 487.309 387.866 489.086C387.097 490.573 387.003 492.391 387.615 493.949C388.226 495.506 389.532 496.776 391.106 497.343C391.825 497.601 392.598 497.121 393.13 496.573V496.573Z" fill="#00160A"/>
<path fill-rule="evenodd" clip-rule="evenodd" d="M381.751 478.093C386.947 474.24 394.8 474.209 400.029 478.02C406.937 468.897 412.722 458.976 417.224 448.535C418.018 446.691 416.403 444.764 414.917 443.379C408.183 437.103 400.971 430.64 391.906 428.449C382.805 426.25 372.063 427.859 364.107 432.673C356.15 437.486 349.788 444.393 343.962 451.517C343.754 450.07 344.767 448.751 345.737 447.632C351.685 440.77 358.364 434.297 366.522 430.078C374.68 425.858 385.463 425.027 394.245 427.834C396.931 428.692 399.463 429.953 401.886 431.366C414.2 438.549 423.747 449.727 430.037 462.252C436.326 474.776 439.489 488.615 440.709 502.493C441.03 506.146 441.219 509.841 440.633 513.462C440.078 516.898 438.835 520.202 437.29 523.341C433 532.059 426.245 539.688 417.761 544.757C403.448 553.309 384.649 553.905 369.398 547.043C354.146 540.181 342.661 526.294 338.188 510.585C351.852 507.571 364.993 502.338 376.896 495.172C374.469 489.284 376.555 481.946 381.751 478.093ZM412.029 545.736C411.701 545.532 411.229 545.728 411.1 546.122C411.772 546.14 412.448 545.882 412.969 545.407C412.743 544.992 412.039 545.21 412.034 545.696L412.029 545.736ZM360.623 540.076C368.702 545.66 378.33 549.318 388.262 549.805C394.635 550.118 401.075 549.124 407.028 546.909C409.397 546.028 411.684 544.958 413.968 543.89C416.591 542.664 419.231 541.427 421.562 539.74C423.061 538.654 424.415 537.394 425.71 536.088C430.629 531.124 434.794 525.343 437.043 518.832C441.599 505.643 437.885 491.271 433.998 477.885C424.792 478.805 415.794 481.609 407.773 486.057C409.947 492.297 408.741 499.733 404.025 504.495C399.309 509.258 391.043 510.658 385.319 507.064C384.228 506.378 382.825 507.242 381.864 508.09C373.867 515.144 367.565 523.97 363.587 533.687C362.697 535.861 361.912 538.097 360.623 540.076ZM380.639 506.135C380.894 505.889 381.168 505.61 381.187 505.259C381.201 504.972 381.038 504.707 380.88 504.464C379.18 501.836 377.479 499.208 375.779 496.58C364.671 503.782 352.161 508.903 339.123 511.588C343.408 521.973 350.258 531.333 358.925 538.644C363.672 526.453 371.134 515.282 380.639 506.135ZM382.456 503.858C385.691 506.681 390.232 508.239 394.605 507.687C395.814 507.535 397.004 507.227 398.106 506.736C399.117 506.285 400.047 505.683 400.906 505.009C404.257 502.375 406.535 498.561 407.182 494.498C407.62 491.746 407.293 488.806 405.757 486.428C405.163 485.509 404.405 484.694 403.651 483.884C402.066 482.182 400.456 480.459 398.462 479.191C394.708 476.804 389.691 476.279 385.471 477.833C381.251 479.387 377.946 482.976 376.912 487.126C376.44 489.02 376.418 490.997 376.687 492.925C377.261 497.041 379.221 501.035 382.456 503.858ZM433.534 475.837C431.36 465.654 426.576 455.999 419.727 447.973C415.555 458.583 409.516 468.508 401.947 477.194C401.546 477.654 401.84 478.348 402.146 478.872C402.916 480.194 403.716 481.551 404.95 482.49C406.184 483.428 407.973 483.856 409.348 483.122C416.789 479.15 425.073 476.655 433.534 475.837Z" fill="#00160A"/>
<path fill-rule="evenodd" clip-rule="evenodd" d="M535.836 382.534C482.24 382.656 428.644 382.778 375.048 382.901C360.833 382.933 347.538 374.999 337.924 364.528C328.31 354.057 321.143 339.467 314.756 326.767C320.068 325.217 326.779 326.621 332.168 325.344C345.377 322.214 356.425 316.556 369.782 314.632C401.105 310.118 435.002 312.256 466.58 316.063C428.058 304.093 387.839 297.594 347.507 296.823C303.854 295.989 260.304 301.827 217.481 310.34C181.258 317.54 145.418 326.662 110.16 337.654C117.77 336.837 128.544 338.099 129.856 347.035C125.829 337.924 111.963 337.467 104.239 343.755C96.5137 350.043 93.4117 360.254 90.7073 369.84C93.0936 358.65 107.64 353.565 118.343 357.61C129.045 361.655 136.136 371.887 140.94 382.271C147.496 396.444 151.057 411.853 152.959 427.352C154.858 442.825 153.985 461.07 141.512 470.422C130.236 478.876 113.213 475.889 102.651 466.558C92.0896 457.227 86.9881 443.111 84.6673 429.21C80.1564 402.192 84.8728 373.719 97.8544 349.599C100.759 344.203 104.509 338.654 110.318 336.703C166.099 317.967 223.906 305.27 282.404 298.902C326.365 294.117 371.115 292.931 414.553 301.214C457.991 309.497 500.257 327.736 532.466 358.037C545.076 369.901 563.501 372.999 580.802 373.7C598.102 374.4 615.88 373.323 632.265 378.919C660.04 388.405 677.951 414.721 693.839 439.4C698.128 446.064 702.462 452.817 704.966 460.336C712.707 483.583 702.1 511.067 713.777 532.608C706.668 534.788 699.032 535.228 691.72 533.879C693.119 540.377 684.492 543.949 677.906 544.846C648.872 548.8 619.837 552.754 590.803 556.707C589.822 553.781 590.731 550.313 593.02 548.244C544.136 543.334 495.222 538.715 446.282 534.386C440.806 533.902 434.307 533.85 431.021 538.257C413.085 562.309 372.665 564.554 352.175 542.637C344.626 534.562 339.06 523.606 328.663 519.851C287.414 504.949 246.165 490.048 204.916 475.147C187.739 468.942 170.236 462.67 151.991 461.862C162.715 459.095 173.922 462.871 184.35 466.601C233.923 484.329 283.495 502.057 333.067 519.785C327.172 499.243 324.203 477.168 329.877 456.563C335.551 435.958 351.289 417.183 372.163 412.601C399.107 406.686 426.822 426.358 437.644 451.731C448.465 477.104 445.702 506.258 438.861 532.981C463.291 531.878 487.839 533.411 511.943 537.543C497.32 512.559 485.483 485.946 476.722 458.355C487.68 482.054 498.638 505.754 509.596 529.453C511.984 534.619 515.614 540.606 521.304 540.462C508.832 514.305 496.36 488.147 483.888 461.99C555.372 475.553 629.347 488.5 700.29 472.341C678.822 472.166 657.587 477.614 636.122 477.227C612.454 476.8 588.968 469.066 569.678 455.345C572.083 459.027 565.629 461.935 561.238 461.685C539.833 460.464 518.428 459.244 497.023 458.024C490.257 457.638 483.228 457.18 477.303 453.891C466.904 448.121 462.79 435.516 459.56 424.071C498.016 426.599 535.896 437.542 569.776 455.911C608.375 476.839 655.395 481.659 697.437 468.996C688.903 441.876 679.333 413.177 657.355 395.14C631.779 374.15 595.736 372.706 562.685 374.25C609.564 385.922 651.676 415.745 678.249 456.09C650.725 417.552 609.969 388.653 564.494 375.432C559.294 373.92 552.48 373.168 549.593 377.749C546.884 382.047 540.916 382.522 535.836 382.534ZM356.913 427.007C368.925 419.032 384.78 416.205 398.13 421.653C401.529 423.041 404.711 424.921 407.731 427.009C418.918 434.746 428.007 445.486 433.786 457.8C440.818 472.783 442.87 489.615 443.396 506.158C443.823 501.582 444.014 496.985 443.966 492.39C443.79 475.509 440.251 458.384 431.621 443.874C422.991 429.364 408.91 417.7 392.424 414.061C375.939 410.422 357.27 415.694 346.651 428.819C343.499 432.715 341.101 437.158 338.838 441.63C335.699 447.833 332.758 454.221 331.344 461.028C336.47 447.552 344.902 434.982 356.913 427.007ZM317.128 327.793C324.453 342.099 331.988 356.691 343.585 367.818C355.182 378.945 371.799 386.164 387.434 382.442C403.312 378.661 419.855 379.158 436.169 379.678C464.971 380.594 493.772 381.511 522.574 382.428C533.378 382.772 546.017 382.265 552.329 373.49C536.896 363.449 523.172 351.022 508.313 340.149C493.455 329.276 476.979 319.786 458.798 316.877C450.929 315.618 442.919 315.622 434.95 315.628C418.262 315.643 401.573 315.657 384.885 315.672C378.081 315.677 371.194 315.693 364.602 317.378C359.327 318.725 354.384 321.106 349.27 322.97C339.023 326.705 328.02 328.356 317.128 327.793ZM513.037 495.953C517.719 510.187 523.105 524.19 529.169 537.893C529.719 539.136 530.514 540.555 531.868 540.674C554.115 542.623 576.363 544.572 598.611 546.521C599.589 546.606 600.617 546.684 601.512 546.281C602.325 545.914 602.918 545.2 603.481 544.509C608.46 538.397 613.439 532.285 618.418 526.174C613.364 518.957 605.26 514.339 596.819 511.816C588.378 509.292 579.508 508.657 570.726 507.957C569.539 507.862 567.923 506.778 568.764 505.935C577.5 506.404 586.202 507.502 594.78 509.218C600.648 510.392 606.864 512.097 610.728 516.666C615.917 507.062 621.105 497.458 626.294 487.855C651.552 484.562 676.722 480.6 701.77 475.974C680.293 477.897 658.815 479.82 637.337 481.744C632.577 482.17 627.81 482.597 623.031 482.611C617.078 482.628 611.145 482.006 605.225 481.385C598.04 480.63 590.855 479.876 583.669 479.121C551.273 475.72 518.717 472.289 487.26 463.831C497.657 489.025 509.619 513.574 523.053 537.289C524.095 539.128 526.074 541.256 527.914 540.216C518.497 518.153 510.349 495.548 503.522 472.551C503.052 470.967 502.688 468.989 503.917 467.885C506.897 476.774 509.789 485.691 512.595 494.637C528.144 494.773 543.675 496.937 558.67 501.055C564.813 502.742 571.871 504.628 577.144 501.054C570.945 494.995 563.188 490.545 554.829 488.252C550.14 486.967 545.298 486.353 540.475 485.744C530.053 484.427 519.63 483.11 509.208 481.794C523.614 480.648 538.029 483.188 552.257 485.717C555.067 486.216 557.898 486.722 560.55 487.775C563.345 488.886 565.867 490.575 568.364 492.251C572.757 495.2 577.151 498.149 581.545 501.099C578.192 504.048 573.468 505.004 569.01 504.758C564.551 504.511 560.234 503.192 555.906 502.094C541.899 498.538 527.432 497.24 513.037 495.953ZM376.329 556.871C377.294 557.209 378.537 557.453 379.198 556.672C376.384 556.407 373.666 555.207 371.575 553.305C385.796 559.441 403.009 558.087 416.095 549.803C419.299 547.775 422.248 545.375 425.168 542.956C430.037 538.92 434.98 534.647 437.774 528.973C439.906 524.644 440.643 519.773 441.109 514.97C442.623 499.363 441.509 483.37 436.552 468.493C431.595 453.616 422.662 439.893 410.221 430.346C404.353 425.843 397.653 422.257 390.399 420.813C379.727 418.687 368.4 421.405 359.154 427.144C349.909 432.882 342.646 441.463 337.366 450.978C328.889 466.257 325.349 484.67 329.805 501.566C331.29 507.197 333.62 512.575 336.277 517.758C345.003 534.773 358.286 550.535 376.329 556.871ZM617.468 530.427C612.677 536.87 607.237 542.8 601.809 548.717C600.919 549.687 599.205 550.613 598.52 549.49C597.885 548.449 596.308 548.37 595.264 548.999C594.22 549.628 593.584 550.742 592.992 551.808C592.525 552.649 592.058 553.491 591.591 554.332C621.656 550.857 651.649 546.769 681.546 542.071C683.819 541.714 686.324 541.219 687.707 539.381C688.252 538.657 688.564 537.789 688.865 536.934C692.059 527.862 694.867 518.655 697.281 509.346C691.553 510.941 685.824 512.536 680.095 514.132C677.768 514.78 675.44 515.428 673.091 515.992C657.771 519.674 641.755 519.755 626.45 523.503C625.418 523.756 624.382 524.028 623.426 524.491C620.875 525.724 619.158 528.153 617.468 530.427ZM568.255 459.483C557.528 449.139 542.807 444.271 528.619 439.715C523.242 437.988 517.865 436.261 512.487 434.534C509.254 433.495 506.019 432.456 502.746 431.548C489.208 427.794 475.151 426.317 461.143 425.246C460.952 425.231 460.751 425.218 460.577 425.298C460.027 425.549 460.201 426.367 460.465 426.91C463.556 433.294 466.939 439.536 470.6 445.611C472.182 448.236 473.858 450.878 476.225 452.824C479.376 455.414 483.509 456.548 487.577 456.841C491.645 457.135 495.724 456.658 499.793 456.379C508.852 455.758 517.978 456.122 526.96 457.46C531.861 458.191 536.718 459.211 541.632 459.844C550.464 460.982 559.457 460.86 568.255 459.483ZM686.524 510.144C690.095 509.192 693.725 508.458 697.385 507.947C699.03 501.852 700.675 495.758 702.32 489.663C698.865 490.663 695.361 491.492 691.824 492.145C689.022 492.663 686.201 493.07 683.379 493.463C663.413 496.238 643.342 498.262 623.223 499.53C622.113 499.599 621.419 500.724 620.916 501.716C618.328 506.82 615.74 511.924 613.152 517.029C612.953 517.42 612.75 517.865 612.886 518.283C612.981 518.573 613.224 518.787 613.456 518.985C614.634 519.994 615.812 521.002 616.99 522.011C618.102 522.963 619.526 523.98 620.902 523.479C637.325 517.491 655.492 518.608 672.424 514.263C677.167 513.046 681.792 511.405 686.524 510.144ZM104.499 434.888C101.838 440.049 99.1774 445.21 96.5168 450.371C96.0425 451.291 95.5554 452.268 95.6143 453.301C95.6595 454.094 96.0239 454.83 96.4036 455.528C100.43 462.925 107.093 468.851 114.91 471.987C115.892 472.381 116.945 472.738 117.988 472.566C119.313 472.348 120.346 471.332 121.242 470.332C129.42 461.21 134.003 449.109 134.715 436.878C135.427 424.647 132.384 412.328 126.772 401.437C125.715 402.516 124.658 403.595 123.601 404.674C121.249 407.074 118.702 410.248 119.797 413.424C122.147 420.236 121.997 428.263 117.832 434.143C115.974 436.766 112.891 438.993 109.748 438.317C107.837 437.906 106.294 436.497 105.084 434.962C103.632 433.121 102.512 431.018 101.794 428.786C99.2838 432.065 95.7647 434.562 91.8396 435.848C90.2993 436.352 90.3231 438.523 90.6976 440.1C91.6534 444.124 92.8929 448.081 94.4039 451.931C96.6171 446.339 99.3662 440.96 102.601 435.891C103.032 435.217 103.825 434.458 104.499 434.888ZM116.451 383.348C125.006 391.34 129.77 402.563 133.179 413.762C133.9 416.131 134.572 418.517 135.091 420.939C139.04 439.358 133.434 459.561 120.559 473.312C125.373 473.107 130.149 472.044 134.596 470.189C135.488 469.817 136.389 469.398 137.067 468.708C138.095 467.662 138.462 466.154 138.789 464.724C140.828 455.786 142.876 446.792 143.328 437.636C143.959 424.825 141.44 412.029 137.638 399.779C136.912 397.438 136.137 395.11 135.203 392.843C132.153 385.443 127.388 378.755 121.389 373.456C117.74 370.233 112.88 367.385 108.225 368.812C105.341 369.696 103.177 372.06 101.331 374.447C91.7213 386.867 86.7266 402.775 87.5128 418.459C89.2253 407.722 93.341 397.375 99.4714 388.396C101.096 386.016 102.914 383.682 105.354 382.151C107.794 380.62 110.983 380.015 113.588 381.244C114.663 381.752 115.582 382.536 116.451 383.348ZM627.515 489.588C626.94 490.067 626.591 490.756 626.257 491.425C625.212 493.52 624.168 495.614 623.123 497.709C649.587 495.777 676.169 493.828 702.047 487.964C702.981 485.302 703.298 482.426 702.967 479.625C702.927 479.284 702.869 478.926 702.65 478.662C702.235 478.162 701.465 478.221 700.823 478.325C683.73 481.092 666.637 483.859 649.544 486.625C643.451 487.611 637.334 488.6 631.163 488.719C629.887 488.743 628.495 488.771 627.515 489.588ZM103.182 413.454C104.261 410.041 106.339 406.801 109.474 405.075C112.317 403.51 113.476 400.092 114.398 396.981C115.352 393.762 116.305 390.543 117.259 387.325C117.412 386.806 117.003 386.305 116.626 385.918C114.788 384.035 112.654 382.019 110.023 382.003C107.838 381.989 105.907 383.387 104.329 384.899C99.5724 389.457 96.5192 395.484 93.8916 401.526C92.9432 403.707 92.0373 405.908 91.2882 408.165C88.4229 416.799 87.9242 426.204 89.8606 435.092C92.5295 434.054 95.2395 432.992 97.5055 431.241C99.7715 429.49 101.572 426.921 101.722 424.061C101.909 420.486 102.104 416.867 103.182 413.454ZM115.816 367.663C123.409 372.15 129.729 378.766 133.866 386.556C134.676 388.082 135.404 389.652 136.094 391.237C146.574 415.327 147.858 443.286 139.63 468.236C141.373 466.656 143.723 465.891 145.519 464.373C149.195 461.267 149.736 455.893 149.944 451.086C150.845 430.317 150.448 408.839 142.209 389.752C139.192 382.764 135.159 376.216 130.276 370.377C129.478 369.423 128.621 368.46 127.491 367.942C126.29 367.392 124.917 367.405 123.597 367.433C121.003 367.489 118.409 367.565 115.816 367.663ZM708.466 486.701C708.214 483.887 706.941 481.284 706 478.619C705.059 475.955 704.453 472.96 705.531 470.348C706.865 467.113 706.729 463.407 705.718 460.057C704.706 456.707 702.875 453.664 700.87 450.796C697.002 445.262 692.419 440.229 687.27 435.86C689.344 449.104 696.062 461.083 702.35 472.922C703.494 475.075 704.646 477.29 704.98 479.705C705.26 481.731 704.948 483.788 704.605 485.805C703.285 493.572 701.502 501.261 699.269 508.817C698.795 510.421 699.59 512.101 700.408 513.56C703.368 518.837 706.941 523.77 711.033 528.226C709.841 524.457 708.65 520.687 707.458 516.918C705.93 512.083 704.382 507.049 705.085 502.026C705.813 496.815 708.933 491.942 708.466 486.701ZM113.711 358.389C109.121 357.071 103.741 357.593 100.218 360.818C93.3034 367.146 88.9953 375.976 86.9984 385.134C85.0016 394.292 85.1865 403.803 86.2306 413.118C86.3464 398.634 91.5333 384.24 100.683 373.011C102.332 370.987 104.163 369.019 106.502 367.857C109.093 366.571 112.074 366.385 114.962 366.222C118.634 366.016 122.305 365.81 125.976 365.603C122.262 362.6 118.302 359.708 113.711 358.389ZM112.984 406.084C110.92 405.701 108.811 406.861 107.498 408.499C106.184 410.136 105.518 412.186 104.918 414.198C103.928 417.521 103.042 420.916 102.967 424.382C102.891 427.849 103.689 431.43 105.783 434.193C106.84 435.588 108.293 436.787 110.019 437.078C112.959 437.575 115.698 435.334 117.289 432.812C120.619 427.537 120.783 420.732 119.056 414.738C118.911 414.236 118.75 413.728 118.452 413.299C118.116 412.814 117.616 412.443 117.368 411.908C117.12 411.372 117.31 410.558 117.896 410.484C116.766 408.514 115.218 406.498 112.984 406.084ZM711.911 532.082C709.391 528.828 706.87 525.574 704.349 522.321C702.037 519.336 699.679 516.265 698.57 512.656C696.682 518.709 694.794 524.763 692.907 530.816C692.782 531.214 692.661 531.661 692.849 532.034C693.112 532.559 693.812 532.642 694.398 532.658C699.067 532.781 703.735 532.905 708.404 533.029C709.657 533.062 711.084 533.023 711.911 532.082ZM125.913 399.592C126.083 398.903 125.77 398.195 125.449 397.561C123.84 394.375 121.862 391.376 119.567 388.642C119.234 388.246 118.455 387.943 118.347 388.448C117.14 394.091 115.227 399.582 112.667 404.754C115.126 405.423 117.304 407.068 118.62 409.25C120.304 406.229 122.423 403.451 124.89 401.028C125.315 400.61 125.77 400.171 125.913 399.592ZM442.859 511.11C442.998 510.691 442.894 510.201 442.598 509.873C442.275 510.836 442.28 511.906 442.612 512.866C442.919 512.349 443.008 511.708 442.853 511.128L442.859 511.11ZM446.433 533.808C446.185 533.918 445.937 534.028 445.689 534.138C446.483 534.512 447.444 534.512 448.238 534.137C447.703 533.862 447.071 533.784 446.486 533.92L446.433 533.808Z" fill="#00160A"/>
<path fill-rule="evenodd" clip-rule="evenodd" d="M438.956 506.935C438.182 506.935 437.481 507.248 436.973 507.756C436.466 508.263 436.152 508.964 436.152 509.739C436.152 510.216 436.27 510.665 436.482 511.057C436.594 511.265 436.733 511.459 436.899 511.635C436.701 511.772 436.522 511.932 436.366 512.112C435.941 512.604 435.684 513.245 435.684 513.945C435.684 514.501 435.846 515.02 436.125 515.456C436.414 515.906 436.828 516.268 437.318 516.493L438.818 517.181L437.456 518.113C436.104 519.04 435.217 520.595 435.217 522.358C435.217 523.032 435.346 523.676 435.582 524.264C435.678 524.506 435.794 524.741 435.929 524.969C435.693 525.092 435.465 525.229 435.245 525.381C433.517 526.573 432.413 528.578 432.413 531.238C432.413 531.586 432.432 531.922 432.468 532.247C432.145 532.199 431.815 532.173 431.478 532.173C429.671 532.173 428.035 532.906 426.851 534.09C425.667 535.274 424.935 536.91 424.935 538.716C424.935 540.523 425.667 542.159 426.851 543.343C428.035 544.527 429.671 545.26 431.478 545.26C433.3 545.26 434.948 544.513 436.132 543.256C437.307 542.007 438.021 540.26 438.021 538.249C438.021 537.904 438 537.567 437.96 537.239C438.284 537.289 438.617 537.314 438.956 537.314C440.763 537.314 442.399 536.582 443.583 535.398C444.767 534.214 445.499 532.578 445.499 530.771C445.499 529.312 445.022 527.964 444.215 526.877C444.056 526.663 443.884 526.459 443.7 526.265C443.9 526.094 444.086 525.908 444.257 525.71C445.031 524.81 445.499 523.639 445.499 522.358C445.499 520.869 444.866 519.527 443.854 518.589C443.57 518.326 443.256 518.095 442.92 517.901C443.257 517.748 443.558 517.53 443.807 517.264C444.277 516.763 444.565 516.089 444.565 515.347C444.565 514.63 444.295 513.976 443.853 513.48C443.405 512.979 442.781 512.64 442.077 512.562L440.643 512.402L441.375 511.159C441.62 510.742 441.76 510.257 441.76 509.739C441.76 508.964 441.446 508.263 440.939 507.756C440.431 507.248 439.73 506.935 438.956 506.935Z" fill="white" stroke="#00160A" stroke-width="1.86952"/>
<path fill-rule="evenodd" clip-rule="evenodd" d="M405.3 435.55C404.802 436.144 404.111 436.479 403.396 436.542C402.681 436.604 401.942 436.394 401.349 435.896C400.984 435.59 400.716 435.21 400.551 434.796C400.464 434.577 400.405 434.345 400.377 434.105C400.145 434.169 399.907 434.203 399.669 434.206C399.019 434.216 398.363 434.001 397.826 433.55C397.4 433.193 397.107 432.736 396.953 432.242C396.794 431.731 396.782 431.181 396.925 430.662L397.362 429.07L395.772 429.514C394.194 429.954 392.432 429.634 391.081 428.501C390.565 428.068 390.155 427.555 389.856 426.996C389.733 426.767 389.627 426.526 389.539 426.277C389.293 426.379 389.041 426.465 388.784 426.536C386.76 427.093 384.514 426.651 382.476 424.941C382.21 424.717 381.964 424.487 381.739 424.25C381.569 424.528 381.376 424.798 381.159 425.056C379.998 426.44 378.385 427.222 376.717 427.368C375.049 427.514 373.325 427.024 371.941 425.862C370.557 424.701 369.774 423.089 369.628 421.42C369.482 419.752 369.973 418.028 371.134 416.644C372.306 415.248 373.937 414.465 375.661 414.367C377.373 414.269 379.17 414.845 380.711 416.138C380.975 416.36 381.22 416.592 381.445 416.834C381.616 416.554 381.81 416.282 382.028 416.023C383.189 414.639 384.802 413.856 386.47 413.71C388.138 413.564 389.862 414.055 391.246 415.216C392.364 416.154 393.089 417.386 393.403 418.703C393.465 418.962 393.511 419.225 393.541 419.491C393.8 419.448 394.062 419.425 394.324 419.421C395.512 419.406 396.71 419.801 397.691 420.624C398.832 421.581 399.452 422.929 399.52 424.307C399.539 424.694 399.515 425.082 399.447 425.465C399.781 425.305 400.141 425.214 400.505 425.194C401.191 425.157 401.893 425.37 402.46 425.846C403.01 426.307 403.338 426.934 403.433 427.592C403.529 428.257 403.388 428.953 402.996 429.542L402.196 430.744L403.619 430.982C404.096 431.062 404.557 431.267 404.954 431.6C405.547 432.097 405.883 432.789 405.945 433.503C406.008 434.218 405.798 434.957 405.3 435.55Z" fill="white" stroke="#00160A" stroke-width="1.86952"/>
<path fill-rule="evenodd" clip-rule="evenodd" d="M392.231 443.792C391.598 444.546 390.72 444.972 389.811 445.051C388.902 445.131 387.962 444.864 387.208 444.231C386.941 444.007 386.715 443.752 386.532 443.476C386.429 443.321 386.338 443.157 386.26 442.983C386.075 443.023 385.888 443.049 385.7 443.059C384.826 443.109 383.932 442.838 383.208 442.231C382.623 441.74 382.235 441.102 382.054 440.416C381.867 439.711 381.898 438.955 382.157 438.259L382.832 436.446L380.992 437.044C379.045 437.677 376.89 437.38 375.28 436.029C374.806 435.631 374.413 435.171 374.102 434.667C373.971 434.454 373.852 434.231 373.749 433.999C373.512 434.099 373.27 434.189 373.022 434.268C370.589 435.046 367.95 434.702 365.994 433.061C365.809 432.906 365.634 432.742 365.472 432.571L364.773 431.835L364.096 432.592C362.556 434.317 360.543 435.347 358.512 435.603C356.539 435.851 354.549 435.366 352.994 434.061C351.402 432.725 350.577 430.791 350.512 428.753C350.445 426.661 351.176 424.459 352.705 422.637C354.233 420.815 356.275 419.714 358.347 419.416C360.365 419.126 362.413 419.603 364.005 420.938C364.192 421.095 364.367 421.259 364.531 421.43L365.23 422.161L365.904 421.407C367.444 419.682 369.457 418.652 371.488 418.397C373.461 418.148 375.451 418.634 377.005 419.938C378.24 420.974 379.014 422.37 379.328 423.895C379.381 424.149 379.42 424.405 379.446 424.662C379.7 424.639 379.955 424.632 380.211 424.641C381.471 424.685 382.705 425.119 383.72 425.971C385.203 427.215 385.887 429.072 385.761 430.941C385.736 431.319 385.678 431.691 385.588 432.054C385.939 431.961 386.298 431.923 386.654 431.938C387.412 431.97 388.166 432.243 388.792 432.769C389.387 433.268 389.778 433.921 389.956 434.622C390.138 435.341 390.094 436.109 389.815 436.812C389.643 437.245 389.389 437.634 389.074 437.962C389.544 437.904 390.005 437.941 390.439 438.059C390.921 438.19 391.383 438.426 391.792 438.769C392.546 439.402 392.972 440.28 393.052 441.189C393.131 442.098 392.864 443.037 392.231 443.792Z" fill="white" stroke="#00160A" stroke-width="1.86952"/>
<path fill-rule="evenodd" clip-rule="evenodd" d="M140.954 421.799C140.18 421.799 139.479 422.113 138.971 422.621C138.464 423.128 138.15 423.829 138.15 424.604C138.15 425.08 138.268 425.53 138.48 425.922C138.592 426.129 138.731 426.324 138.897 426.5C138.699 426.636 138.52 426.797 138.364 426.977C137.939 427.469 137.682 428.109 137.682 428.81C137.682 429.366 137.844 429.885 138.123 430.32C138.412 430.77 138.826 431.133 139.316 431.357L140.816 432.045L139.454 432.978C138.102 433.905 137.215 435.46 137.215 437.223C137.215 437.897 137.344 438.54 137.58 439.129C137.676 439.371 137.792 439.606 137.927 439.834C137.691 439.957 137.463 440.094 137.243 440.246C135.515 441.438 134.411 443.443 134.411 446.103C134.411 446.451 134.43 446.787 134.466 447.112C134.143 447.063 133.813 447.038 133.476 447.038C131.669 447.038 130.033 447.77 128.849 448.954C127.665 450.138 126.933 451.774 126.933 453.581C126.933 455.388 127.665 457.024 128.849 458.208C130.033 459.392 131.669 460.125 133.476 460.125C135.298 460.125 136.946 459.378 138.13 458.12C139.305 456.872 140.019 455.125 140.019 453.114C140.019 452.769 139.998 452.432 139.958 452.104C140.282 452.153 140.615 452.179 140.954 452.179C142.761 452.179 144.397 451.447 145.581 450.263C146.765 449.078 147.497 447.443 147.497 445.636C147.497 444.177 147.02 442.829 146.213 441.742C146.054 441.528 145.882 441.324 145.698 441.13C145.898 440.959 146.084 440.773 146.255 440.575C147.029 439.675 147.497 438.503 147.497 437.223C147.497 435.733 146.864 434.392 145.852 433.454C145.568 433.191 145.254 432.96 144.918 432.766C145.255 432.613 145.556 432.395 145.805 432.129C146.275 431.628 146.563 430.954 146.563 430.212C146.563 429.495 146.294 428.841 145.851 428.345C145.403 427.844 144.779 427.505 144.075 427.427L142.641 427.267L143.373 426.023C143.618 425.607 143.758 425.122 143.758 424.604C143.758 423.829 143.444 423.128 142.937 422.621C142.429 422.113 141.728 421.799 140.954 421.799Z" fill="white" stroke="#00160A" stroke-width="1.86952"/>
<path fill-rule="evenodd" clip-rule="evenodd" d="M140.954 447.038C139.141 447.038 137.499 447.777 136.316 448.991C135.136 450.202 134.413 451.884 134.414 453.775C134.415 454.372 134.487 454.948 134.624 455.495C134.15 455.146 133.643 454.859 133.115 454.636C132.221 454.258 131.237 454.049 130.205 454.049C128.14 454.049 126.27 454.886 124.917 456.239C123.564 457.592 122.727 459.462 122.727 461.527C122.727 463.592 123.564 465.461 124.917 466.815C126.27 468.168 128.14 469.005 130.205 469.005C132.765 469.005 135.024 467.719 136.372 465.758C136.543 465.509 136.699 465.25 136.839 464.984C137.078 465.164 137.329 465.325 137.589 465.466C138.45 465.935 139.438 466.201 140.487 466.201C142.165 466.201 143.684 465.521 144.783 464.421C145.883 463.322 146.563 461.803 146.563 460.125C146.563 459.426 146.445 458.756 146.343 457.294C147.072 456.239 147.498 454.96 147.498 453.581C147.498 451.775 146.765 450.139 145.581 448.955C144.397 447.77 142.761 447.038 140.954 447.038Z" fill="white" stroke="#00160A" stroke-width="1.86952"/>
<path fill-rule="evenodd" clip-rule="evenodd" d="M124.129 461.994C121.96 461.994 119.983 462.815 118.485 464.162C116.969 465.527 115.944 467.432 115.71 469.574C115.678 469.868 115.662 470.161 115.66 470.452C115.371 470.422 115.078 470.407 114.781 470.407C112.458 470.407 110.355 471.349 108.832 472.871C107.31 474.393 106.368 476.497 106.368 478.82C106.368 481.143 107.31 483.246 108.832 484.769C110.355 486.291 112.458 487.233 114.781 487.233C116.511 487.233 118.12 486.711 119.457 485.815C120.835 484.892 121.926 483.572 122.564 482.019C122.708 481.67 122.827 481.313 122.921 480.952C123.226 481.174 123.544 481.374 123.873 481.552C125.062 482.195 126.422 482.559 127.868 482.559C129.747 482.559 131.483 481.943 132.883 480.901C134.318 479.834 135.402 478.32 135.927 476.565C136.013 476.279 136.083 475.991 136.137 475.701C136.419 475.791 136.703 475.862 136.988 475.913C137.365 475.98 137.753 476.016 138.15 476.016C139.957 476.016 141.593 475.283 142.777 474.099C143.961 472.915 144.693 471.279 144.693 469.472C144.693 467.665 143.961 466.03 142.777 464.845C141.593 463.661 139.957 462.929 138.15 462.929C135.892 462.929 133.902 464.073 132.726 465.812C132.407 466.284 132.151 466.796 131.964 467.333C131.752 466.798 131.487 466.284 131.17 465.801C129.667 463.509 127.075 461.994 124.129 461.994Z" fill="white" stroke="#00160A" stroke-width="1.86952"/>
<path fill-rule="evenodd" clip-rule="evenodd" d="M69.9119 424.604C67.5887 424.604 65.4855 425.545 63.9631 427.068C62.4407 428.59 61.499 430.693 61.499 433.016C61.499 435.022 62.2006 436.863 63.372 438.309C64.5654 439.781 66.2459 440.843 68.1688 441.247C68.6012 441.338 69.0357 441.393 69.4688 441.415C69.2226 441.781 69.0074 442.163 68.824 442.556C68.3222 443.634 68.0424 444.836 68.0424 446.103C68.0424 448.521 69.0627 450.701 70.6963 452.235C71.3313 452.832 72.0579 453.329 72.8507 453.706C72.0315 453.514 71.1633 453.541 70.3436 453.806C69.3923 454.113 68.5746 454.718 67.9989 455.509C67.4381 456.28 67.1076 457.229 67.1076 458.255C67.1076 459.546 67.6307 460.714 68.4765 461.56C69.3223 462.406 70.4908 462.929 71.7814 462.929C72.8077 462.929 73.7568 462.598 74.5276 462.037C75.3188 461.462 75.9227 460.644 76.2294 459.693C76.4851 458.9 76.5189 458.062 76.3458 457.266C76.7394 458.028 77.2238 458.726 77.8004 459.34C78.9907 460.607 80.5661 461.504 82.332 462.033C82.5634 462.103 82.7954 462.165 83.0278 462.22C83.0085 462.453 82.9985 462.69 82.9985 462.929C82.9985 464.79 83.6031 466.511 84.627 467.904C85.6771 469.333 87.1678 470.419 88.8992 470.959C89.1128 471.026 89.3281 471.083 89.5446 471.132C89.5391 471.354 89.5421 471.577 89.5542 471.801C89.6736 474.024 90.656 476.017 92.1717 477.452C93.6792 478.879 95.7147 479.754 97.9547 479.754C98.1861 479.754 98.4154 479.745 98.6416 479.726L99.3104 479.671L99.5769 480.287C100.233 481.803 101.323 483.089 102.689 483.987C104.014 484.857 105.599 485.363 107.302 485.363C109.625 485.363 111.729 484.421 113.251 482.899C114.774 481.377 115.715 479.273 115.715 476.95C115.715 474.627 114.774 472.524 113.251 471.001C111.729 469.479 109.625 468.537 107.302 468.537C107.07 468.537 106.84 468.547 106.613 468.565L105.946 468.619L105.68 468.004C104.715 465.773 102.811 464.042 100.467 463.31C100.253 463.244 100.038 463.186 99.8217 463.137C99.827 462.916 99.824 462.693 99.8119 462.468C99.7089 460.555 98.9663 458.813 97.7966 457.428C96.5926 456.002 94.9368 454.955 93.0557 454.488C92.8091 454.427 92.5613 454.377 92.3128 454.336C92.3348 454.088 92.3462 453.836 92.3462 453.581C92.3462 450.8 90.9969 448.335 88.9185 446.804C88.7579 446.686 88.5932 446.574 88.4249 446.467C88.4784 446.28 88.5198 446.093 88.5494 445.906C88.5874 445.665 88.6071 445.419 88.6071 445.168C88.6071 443.625 87.859 442.256 86.707 441.406C86.4646 441.227 86.2056 441.072 85.9339 440.943C86.1248 440.694 86.3013 440.436 86.4625 440.17C87.2306 438.901 87.6723 437.412 87.6723 435.821C87.6723 433.498 86.7307 431.394 85.2083 429.872C83.6859 428.349 81.5826 427.408 79.2595 427.408C78.5174 427.408 77.7977 427.504 77.1123 427.684C76.9251 427.733 76.7387 427.789 76.5535 427.852C76.4338 427.698 76.3088 427.549 76.1788 427.404C74.6384 425.685 72.4014 424.604 69.9119 424.604Z" fill="white" stroke="#00160A" stroke-width="1.86952"/>
<path fill-rule="evenodd" clip-rule="evenodd" d="M67.1082 411.517C64.785 411.517 62.6818 412.459 61.1594 413.981C59.637 415.504 58.6953 417.607 58.6953 419.93C58.6953 421.486 59.1172 422.943 59.8534 424.193C60.616 425.488 61.7153 426.561 63.4974 427.946C63.8482 429.934 64.8978 431.681 66.3826 432.925C67.8437 434.149 69.7268 434.886 71.782 434.886C73.6602 434.886 75.3948 434.271 76.7947 433.23C78.2295 432.164 79.3132 430.652 79.8394 428.898C79.9237 428.618 79.9926 428.334 80.0464 428.049C80.3269 428.133 80.6086 428.198 80.8898 428.245C81.271 428.309 81.6635 428.343 82.0644 428.343C83.8785 428.343 85.5232 427.658 86.7128 426.542C87.8799 425.448 88.6077 423.938 88.6077 422.267C88.6077 420.596 87.8799 419.086 86.7128 417.991C85.5232 416.876 83.8785 416.191 82.0644 416.191C79.9942 416.191 78.1435 417.083 76.9415 418.49L75.7265 419.912L75.3186 418.087C74.8944 416.188 73.8281 414.532 72.3602 413.357C70.9209 412.206 69.0949 411.517 67.1082 411.517Z" fill="white" stroke="#00160A" stroke-width="1.86952"/>
<path fill-rule="evenodd" clip-rule="evenodd" d="M73.6509 398.431C71.7163 398.431 69.974 399.21 68.771 400.459C68.6339 400.602 68.5033 400.751 68.3794 400.906C68.1919 400.83 68.0027 400.762 67.812 400.701C67.0007 400.441 66.1358 400.3 65.2381 400.3C62.9149 400.3 60.8117 401.242 59.2893 402.764C57.7668 404.287 56.8252 406.39 56.8252 408.713C56.8252 411.036 57.7668 413.139 59.2893 414.662C60.8117 416.184 62.9149 417.126 65.2381 417.126C66.9342 417.126 68.5133 416.624 69.8343 415.76C71.1975 414.869 72.2864 413.593 72.9462 412.086L74.102 409.447L74.7158 412.262C75.0202 413.659 75.8402 414.877 76.9748 415.744C78.1076 416.61 79.5543 417.126 81.129 417.126C82.9431 417.126 84.5878 416.441 85.7775 415.325C86.9446 414.231 87.6723 412.721 87.6723 411.05C87.6723 409.378 86.944 407.868 85.7744 406.774C84.5825 405.659 82.934 404.974 81.1128 404.974C80.7923 404.974 80.4772 404.996 80.1689 405.037C80.1978 404.731 80.2022 404.419 80.1802 404.105C80.0691 402.521 79.3034 401.107 78.142 400.089C76.9666 399.058 75.3864 398.431 73.6509 398.431Z" fill="white" stroke="#00160A" stroke-width="1.86952"/>
<path d="M56.8259 413.387C61.4722 413.387 65.2388 409.62 65.2388 404.974C65.2388 400.328 61.4722 396.561 56.8259 396.561C52.1796 396.561 48.4131 400.328 48.4131 404.974C48.4131 409.62 52.1796 413.387 56.8259 413.387Z" fill="white" stroke="#00160A" stroke-width="1.86952"/>
<path d="M85.8027 465.733C88.384 465.733 90.4765 463.641 90.4765 461.06C90.4765 458.478 88.384 456.386 85.8027 456.386C83.2214 456.386 81.1289 458.478 81.1289 461.06C81.1289 463.641 83.2214 465.733 85.8027 465.733Z" fill="white" stroke="#00160A" stroke-width="1.86952"/>
<path d="M59.6299 454.516C62.2111 454.516 64.3037 452.424 64.3037 449.842C64.3037 447.261 62.2111 445.168 59.6299 445.168C57.0486 445.168 54.9561 447.261 54.9561 449.842C54.9561 452.424 57.0486 454.516 59.6299 454.516Z" fill="white" stroke="#00160A" stroke-width="1.86952"/>
<path d="M45.6084 429.277C48.1897 429.277 50.2822 427.185 50.2822 424.604C50.2822 422.022 48.1897 419.93 45.6084 419.93C43.0271 419.93 40.9346 422.022 40.9346 424.604C40.9346 427.185 43.0271 429.277 45.6084 429.277Z" fill="white" stroke="#00160A" stroke-width="1.86952"/>
<path d="M53.0869 438.625C55.6682 438.625 57.7607 436.532 57.7607 433.951C57.7607 431.37 55.6682 429.277 53.0869 429.277C50.5056 429.277 48.4131 431.37 48.4131 433.951C48.4131 436.532 50.5056 438.625 53.0869 438.625Z" fill="white" stroke="#00160A" stroke-width="1.86952"/>
<path fill-rule="evenodd" clip-rule="evenodd" d="M109.639 352.627C106.671 352.627 103.984 353.83 102.038 355.775C100.093 357.721 98.8896 360.408 98.8896 363.377C98.8896 366.169 99.9543 368.713 101.7 370.624C103.461 372.552 105.914 373.837 108.667 374.083C108.837 374.098 109.007 374.109 109.176 374.116C109.249 374.269 109.326 374.421 109.406 374.57C110.25 376.134 111.505 377.444 113.027 378.353C114.497 379.231 116.216 379.735 118.052 379.735C118.345 379.735 118.634 379.722 118.919 379.697L120.476 379.556L119.863 380.994C119.6 381.612 119.454 382.292 119.454 383.007C119.454 384.426 120.03 385.712 120.96 386.642C121.891 387.572 123.176 388.148 124.596 388.148C126.015 388.148 127.301 387.572 128.231 386.642C129.161 385.712 129.737 384.426 129.737 383.007C129.737 381.812 129.329 380.712 128.645 379.839C127.946 378.947 126.96 378.292 125.825 378.015C125.115 377.842 124.389 377.826 123.693 377.953C124.301 377.525 124.858 377.031 125.352 376.482C126.916 374.743 127.867 372.443 127.867 369.92C127.867 367.645 127.094 365.551 125.795 363.887C124.468 362.187 122.594 360.935 120.436 360.398C120.271 360.356 120.105 360.32 119.939 360.288C119.89 360.125 119.837 359.963 119.781 359.801C119.034 357.683 117.641 355.869 115.84 354.595C114.088 353.355 111.949 352.627 109.639 352.627Z" fill="white" stroke="#00160A" stroke-width="1.86952"/>
<path fill-rule="evenodd" clip-rule="evenodd" d="M132.074 374.127C130.654 374.127 129.369 374.702 128.439 375.632C127.508 376.563 126.933 377.848 126.933 379.268C126.933 380.687 127.508 381.973 128.439 382.903C129.369 383.833 130.654 384.409 132.074 384.409C133.494 384.409 134.779 383.833 135.709 382.903C136.64 381.973 137.215 380.687 137.215 379.268C137.215 377.848 136.64 376.563 135.709 375.632C134.779 374.702 133.494 374.127 132.074 374.127ZM118.987 349.823C116.401 349.823 114.058 350.82 112.362 352.439C110.682 354.042 109.64 356.256 109.64 358.703C109.64 361.15 110.682 363.364 112.362 364.967C114.058 366.586 116.401 367.583 118.987 367.583C121.574 367.583 123.917 366.586 125.613 364.967C127.292 363.364 128.335 361.15 128.335 358.703C128.335 356.256 127.292 354.042 125.613 352.439C123.917 350.82 121.574 349.823 118.987 349.823Z" fill="white" stroke="#00160A" stroke-width="1.86952"/>
<path fill-rule="evenodd" clip-rule="evenodd" d="M128.335 362.91C126.716 362.91 125.226 363.458 124.04 364.379C122.827 365.321 121.931 366.651 121.54 368.184C121.498 368.349 121.462 368.515 120.956 368.831C119.958 369.197 119.106 369.863 118.507 370.72C117.926 371.553 117.585 372.567 117.585 373.659C117.585 375.079 118.16 376.364 119.091 377.295C120.021 378.225 121.306 378.801 122.726 378.801C124.218 378.801 125.562 378.165 126.82 376.768C126.987 376.804 127.154 376.834 127.321 376.858C127.652 376.906 127.99 376.931 128.335 376.931C130.271 376.931 132.023 376.146 133.292 374.878C134.561 373.609 135.345 371.856 135.345 369.92C135.345 367.984 134.561 366.232 133.292 364.963C132.023 363.694 130.271 362.91 128.335 362.91Z" fill="white" stroke="#00160A" stroke-width="1.86952"/>
<path d="M97.0201 378.8C101.15 378.8 104.498 375.661 104.498 371.79C104.498 367.918 101.15 364.779 97.0201 364.779C92.89 364.779 89.542 367.918 89.542 371.79C89.542 375.661 92.89 378.8 97.0201 378.8Z" fill="white" stroke="#00160A" stroke-width="1.86952"/>
<path fill-rule="evenodd" clip-rule="evenodd" d="M84.8681 349.823C83.054 349.823 81.4093 350.508 80.2196 351.623C79.0525 352.717 78.3248 354.227 78.3248 355.899C78.3248 357.181 78.7531 358.369 79.4797 359.346C79.7425 359.7 80.0431 360.024 80.3778 360.311C79.9513 360.414 79.5314 360.561 79.1256 360.751C78.0361 361.26 77.1183 362.046 76.4805 363.012C75.8726 363.933 75.5205 365.018 75.5205 366.181C75.5205 367.852 76.2482 369.362 77.4154 370.456C78.605 371.572 80.2497 372.257 82.0638 372.257C84.4585 372.257 86.5617 371.062 87.7048 369.26C87.9672 368.846 88.1791 368.401 88.3375 367.933C88.5764 368.368 88.8624 368.772 89.1895 369.136C90.3945 370.477 92.201 371.322 94.2157 371.322C96.0299 371.322 97.6746 370.637 98.8642 369.522C100.031 368.428 100.759 366.918 100.759 365.246C100.759 363.575 100.031 362.065 98.8642 360.971C97.6746 359.856 96.0299 359.17 94.2157 359.17C93.4572 359.17 92.7285 359.29 92.0517 359.512L90.0369 360.174L90.9079 358.24C91.2321 357.52 91.4115 356.729 91.4115 355.899C91.4115 354.227 90.6837 352.717 89.5166 351.623C88.327 350.508 86.6822 349.823 84.8681 349.823Z" fill="white" stroke="#00160A" stroke-width="1.86952"/>
<path fill-rule="evenodd" clip-rule="evenodd" d="M80.1947 334.867C78.3806 334.867 76.7359 335.552 75.5462 336.667C74.3791 337.761 73.6514 339.271 73.6514 340.943C73.6514 342.478 74.2656 343.878 75.2708 344.944C76.3063 346.041 77.7549 346.786 79.3862 346.973L80.2823 347.075L80.1947 348.421C80.1947 350.092 80.9224 351.602 82.0895 352.696C83.2792 353.811 84.9239 354.497 86.738 354.497C87.6383 354.497 88.4966 354.328 89.2772 354.021L90.7894 353.427L90.5429 355.033C90.4995 355.316 90.4771 355.605 90.4771 355.899C90.4771 357.57 91.2048 359.08 92.3719 360.174C93.5616 361.29 95.2063 361.975 97.0204 361.975C98.8345 361.975 100.479 361.29 101.669 360.174C102.836 359.08 103.564 357.57 103.564 355.899C103.564 354.228 102.836 352.718 101.669 351.623C100.479 350.508 98.8345 349.823 97.0204 349.823C96.1203 349.823 95.2622 349.991 94.482 350.299L92.9684 350.895L93.2154 349.287C93.2589 349.004 93.2814 348.715 93.2814 348.421C93.2814 346.885 92.6671 345.486 91.6619 344.42C90.6265 343.322 89.1779 342.578 87.5466 342.391L86.6503 342.289L86.738 340.943C86.738 339.271 86.0103 337.761 84.8432 336.667C83.6535 335.552 82.0088 334.867 80.1947 334.867Z" fill="white" stroke="#00160A" stroke-width="1.86952"/>
<path d="M92.3461 389.083C95.9599 389.083 98.8894 386.362 98.8894 383.007C98.8894 379.651 95.9599 376.931 92.3461 376.931C88.7323 376.931 85.8027 379.651 85.8027 383.007C85.8027 386.362 88.7323 389.083 92.3461 389.083Z" fill="white" stroke="#00160A" stroke-width="1.86952"/>
<path fill-rule="evenodd" clip-rule="evenodd" d="M76.455 383.53L74.8409 381.815C73.6369 380.536 71.8734 379.735 69.9125 379.735C68.0983 379.735 66.4536 380.421 65.264 381.536C64.0969 382.63 63.3691 384.14 63.3691 385.811C63.3691 387.483 64.0969 388.993 65.264 390.087C66.4536 391.202 68.0983 391.887 69.9125 391.887C71.728 391.887 73.3739 391.201 74.5635 390.08C75.7298 388.98 76.4555 387.462 76.4553 385.774L76.455 383.53ZM76.4566 383.419L78.0707 385.134C79.2747 386.413 81.0382 387.214 82.9991 387.214C85.314 387.214 87.3558 386.097 88.9926 384.039C90.2652 383.605 91.3553 382.813 92.1193 381.79C92.8506 380.811 93.2815 379.62 93.2815 378.333C93.2815 376.662 92.5538 375.152 91.3867 374.058C90.197 372.943 88.5523 372.257 86.7382 372.257C84.4233 372.257 82.3815 373.374 80.7446 375.432C79.471 375.866 78.3803 376.659 77.6165 377.687C76.8857 378.672 76.4561 379.872 76.4563 381.174L76.4566 383.419Z" fill="white" stroke="#00160A" stroke-width="1.86952"/>
<path fill-rule="evenodd" clip-rule="evenodd" d="M81.1292 379.735C79.3151 379.735 77.6704 380.421 76.4808 381.536C75.3136 382.63 74.5859 384.14 74.5859 385.811C74.5859 386.901 74.8948 387.922 75.4345 388.803C75.7083 389.25 76.0414 389.661 76.4299 390.022C75.9072 390.02 75.3768 390.079 74.8505 390.202C73.4118 390.539 72.1596 391.319 71.2743 392.383C70.4225 393.407 69.9121 394.694 69.9121 396.094C69.9121 397.765 70.6398 399.275 71.807 400.369C72.9966 401.484 74.6413 402.17 76.4554 402.17C78.0005 402.17 79.4222 401.673 80.5451 400.836C81.6723 399.997 82.4988 398.815 82.8335 397.455C82.9954 396.797 83.036 396.123 82.966 395.459C83.3474 396.03 83.808 396.532 84.327 396.95C85.4774 397.875 86.9735 398.431 88.6073 398.431C90.4215 398.431 92.0662 397.745 93.2558 396.63C94.4229 395.536 95.1507 394.026 95.1507 392.355C95.1507 390.683 94.4224 389.172 93.2527 388.078C92.0608 386.963 90.4123 386.279 88.5911 386.279C88.2706 386.279 87.9555 386.3 87.6473 386.341C87.6762 386.035 87.6806 385.724 87.6585 385.41C87.5474 383.826 86.7818 382.412 85.6204 381.393C84.445 380.362 82.8647 379.735 81.1292 379.735Z" fill="white" stroke="#00160A" stroke-width="1.86952"/>
<path fill-rule="evenodd" clip-rule="evenodd" d="M333.152 444.935C331.338 444.935 329.693 445.62 328.503 446.735C327.336 447.829 326.608 449.339 326.608 451.011C326.608 452.1 326.917 453.122 327.457 454.003C327.731 454.45 328.064 454.86 328.452 455.221C327.93 455.219 327.399 455.278 326.873 455.401C325.434 455.738 324.182 456.518 323.297 457.582C322.445 458.606 321.935 459.893 321.935 461.293C321.935 462.964 322.662 464.474 323.829 465.568C325.019 466.684 326.664 467.369 328.478 467.369C330.023 467.369 331.445 466.872 332.568 466.036C333.695 465.196 334.521 464.014 334.856 462.654C335.018 461.996 335.058 461.322 334.988 460.658C335.37 461.23 335.831 461.732 336.349 462.149C337.5 463.074 338.996 463.63 340.63 463.63C342.444 463.63 344.089 462.945 345.278 461.829C346.445 460.735 347.173 459.225 347.173 457.554C347.173 455.882 346.445 454.372 345.275 453.278C344.083 452.163 342.435 451.478 340.614 451.478C340.293 451.478 339.978 451.5 339.67 451.541C339.699 451.234 339.703 450.923 339.681 450.609C339.57 449.025 338.804 447.611 337.643 446.592C336.467 445.562 334.887 444.935 333.152 444.935Z" fill="white" stroke="#00160A" stroke-width="1.86952"/>
<path fill-rule="evenodd" clip-rule="evenodd" d="M313.935 474C313.935 476.222 314.889 478.231 316.425 479.686C317.98 481.158 320.129 482.065 322.5 482.065C324.047 482.065 325.498 481.68 326.751 481.003C327.163 480.78 327.56 480.523 327.938 480.231C327.952 480.697 328.008 481.164 328.109 481.627C328.511 483.478 329.587 485.094 331.078 486.244C332.557 487.384 334.445 488.065 336.5 488.065C338.871 488.065 341.02 487.158 342.574 485.686C344.11 484.231 345.065 482.222 345.065 480C345.065 478.202 344.44 476.542 343.386 475.204C342.295 473.818 340.747 472.776 338.956 472.272C338.255 472.075 337.543 471.968 336.836 471.947C337.463 471.609 338.045 471.186 338.567 470.693C340.107 469.237 341.065 467.226 341.065 465C341.065 462.779 340.11 460.77 338.574 459.315C337.02 457.842 334.871 456.935 332.5 456.935C330.128 456.935 327.979 457.842 326.424 459.317C324.889 460.774 323.935 462.785 323.935 465.012L323.935 465.994L322.5 465.935C320.129 465.935 317.98 466.842 316.425 468.315C314.889 469.77 313.935 471.779 313.935 474Z" fill="white" stroke="#00160A" stroke-width="1.86952"/>
<path d="M83.934 408.713C87.5477 408.713 90.4773 405.993 90.4773 402.637C90.4773 399.281 87.5477 396.561 83.934 396.561C80.3202 396.561 77.3906 399.281 77.3906 402.637C77.3906 405.993 80.3202 408.713 83.934 408.713Z" fill="white" stroke="#00160A" stroke-width="1.86952"/>
<path d="M73.6508 380.67C77.2645 380.67 80.1941 377.95 80.1941 374.594C80.1941 371.238 77.2645 368.518 73.6508 368.518C70.037 368.518 67.1074 371.238 67.1074 374.594C67.1074 377.95 70.037 380.67 73.6508 380.67Z" fill="white" stroke="#00160A" stroke-width="1.86952"/>
<path fill-rule="evenodd" clip-rule="evenodd" d="M76.4556 338.605C74.6415 338.605 72.9968 339.291 71.8071 340.406C70.64 341.5 69.9123 343.01 69.9123 344.681C69.9123 346.359 70.6458 347.875 71.8208 348.97C72.2439 349.365 72.7172 349.699 73.2279 349.959C72.6673 350.063 72.115 350.244 71.5877 350.497C70.3385 351.096 69.3198 352.06 68.6998 353.243C68.5847 353.462 68.4836 353.689 68.3966 353.921C68.1567 353.841 67.9151 353.775 67.673 353.722C67.1912 353.617 66.6891 353.562 66.1732 353.562C64.3591 353.562 62.7144 354.247 61.5247 355.362C60.3576 356.456 59.6299 357.966 59.6299 359.638C59.6299 361.309 60.3576 362.819 61.5247 363.913C62.7144 365.028 64.3591 365.714 66.1732 365.714C67.4492 365.714 68.641 365.375 69.65 364.785C70.6805 364.184 71.5206 363.321 72.0595 362.293C72.1746 362.074 72.2757 361.848 72.3626 361.615C72.6026 361.695 72.8442 361.762 73.0863 361.814C73.5681 361.919 74.0702 361.975 74.5861 361.975C76.4002 361.975 78.0449 361.289 79.2346 360.174C80.4017 359.08 81.1294 357.57 81.1294 355.899C81.1294 354.221 80.3958 352.705 79.2198 351.611C78.7949 351.216 78.3193 350.882 77.8062 350.623C78.3687 350.518 78.9231 350.338 79.4523 350.084C80.5258 349.569 81.4288 348.785 82.0558 347.825C82.6534 346.91 82.9989 345.833 82.9989 344.681C82.9989 343.01 82.2712 341.5 81.1041 340.406C79.9144 339.291 78.2697 338.605 76.4556 338.605Z" fill="white" stroke="#00160A" stroke-width="1.86952"/>
<path fill-rule="evenodd" clip-rule="evenodd" d="M71.7816 330.193C70.1985 330.193 68.7449 330.715 67.6095 331.589C66.4729 332.463 65.6549 333.692 65.3592 335.098C65.3101 335.332 65.2762 335.567 65.2569 335.802C65.0188 335.801 64.7783 335.812 64.5365 335.836C63.0305 335.985 61.6749 336.609 60.6474 337.549C59.6351 338.474 58.9415 339.708 58.7489 341.09C58.7224 341.281 58.7058 341.471 58.6987 341.66C58.5135 341.712 58.3294 341.771 58.1471 341.838C56.9174 342.293 55.8682 343.085 55.1343 344.095C54.4328 345.062 54.0211 346.229 54.0211 347.486C54.0211 349.246 54.8284 350.827 56.1062 351.931C56.5566 352.321 57.0573 352.643 57.593 352.887C57.0139 353.024 56.4441 353.224 55.8945 353.484C54.4809 354.152 53.2913 355.177 52.4647 356.435C51.674 357.638 51.2168 359.055 51.2168 360.573C51.2168 362.76 52.1677 364.737 53.6957 366.17C55.2462 367.624 57.3895 368.518 59.7543 368.518C62.1191 368.518 64.2623 367.624 65.8129 366.17C67.3408 364.737 68.2918 362.76 68.2918 360.573C68.2918 360.395 68.2855 360.219 68.2723 360.045L68.2279 359.463L68.7308 359.168C70.5542 358.096 71.7816 356.201 71.7816 354.029C71.7816 352.932 71.468 351.903 70.9216 351.017C70.3479 350.086 69.5186 349.313 68.5259 348.776L67.0048 347.954L68.5255 347.132C70.118 346.27 71.2928 344.797 71.6614 343.048C71.7106 342.814 71.7446 342.579 71.7641 342.344C72.002 342.345 72.2423 342.334 72.4839 342.31C74.1401 342.146 75.6147 341.408 76.6703 340.307C77.6963 339.236 78.3249 337.822 78.3249 336.269C78.3249 334.598 77.5972 333.088 76.43 331.993C75.2404 330.878 73.5957 330.193 71.7816 330.193Z" fill="white" stroke="#00160A" stroke-width="1.86952"/>
<path d="M67.1078 400.3C70.7216 400.3 73.6511 397.58 73.6511 394.224C73.6511 390.868 70.7216 388.148 67.1078 388.148C63.494 388.148 60.5645 390.868 60.5645 394.224C60.5645 397.58 63.494 400.3 67.1078 400.3Z" fill="white" stroke="#00160A" stroke-width="1.86952"/>
<path d="M61.4994 394.691C65.1132 394.691 68.0427 391.971 68.0427 388.615C68.0427 385.26 65.1132 382.54 61.4994 382.54C57.8856 382.54 54.9561 385.26 54.9561 388.615C54.9561 391.971 57.8856 394.691 61.4994 394.691Z" fill="white" stroke="#00160A" stroke-width="1.86952"/>
<path fill-rule="evenodd" clip-rule="evenodd" d="M68.167 361.04C66.2796 361.04 64.537 361.616 62.2965 362.913C60.277 362.97 58.4319 363.679 56.9967 364.827C55.5597 365.977 54.5335 367.568 53.7663 369.975C51.591 371.41 50.1572 373.777 50.1572 376.464C50.1572 378.651 51.1082 380.628 52.6361 382.061C54.1867 383.515 56.3299 384.409 58.6947 384.409C60.7767 384.409 62.6864 383.715 64.1897 382.528C65.7037 381.333 66.8046 379.639 67.2555 377.658C67.3131 377.405 67.3591 377.152 67.3938 376.899C67.6483 376.92 67.9063 376.931 68.167 376.931C70.5318 376.931 72.675 376.036 74.2255 374.583C75.7535 373.15 76.7045 371.173 76.7045 368.986C76.7045 366.798 75.7535 364.821 74.2255 363.388C72.675 361.935 70.5318 361.04 68.167 361.04Z" fill="white" stroke="#00160A" stroke-width="1.86952"/>
<path d="M82.0638 337.671C85.6776 337.671 88.6072 334.951 88.6072 331.595C88.6072 328.239 85.6776 325.519 82.0638 325.519C78.4501 325.519 75.5205 328.239 75.5205 331.595C75.5205 334.951 78.4501 337.671 82.0638 337.671Z" fill="white" stroke="#00160A" stroke-width="1.86952"/>
<path fill-rule="evenodd" clip-rule="evenodd" d="M426.162 535.935C424.349 535.935 422.707 536.673 421.524 537.888C420.344 539.099 419.621 540.78 419.622 542.671C419.623 543.268 419.695 543.844 419.832 544.391C419.358 544.042 418.851 543.756 418.323 543.533C417.429 543.154 416.445 542.945 415.413 542.945C413.348 542.945 411.478 543.782 410.125 545.136C408.772 546.489 407.935 548.358 407.935 550.423C407.935 552.488 408.772 554.358 410.125 555.711C411.478 557.064 413.348 557.901 415.413 557.901C417.973 557.901 420.232 556.615 421.58 554.655C421.751 554.406 421.907 554.147 422.047 553.88C422.286 554.06 422.537 554.221 422.797 554.363C423.658 554.831 424.646 555.097 425.695 555.097C427.373 555.097 428.892 554.417 429.991 553.318C431.091 552.218 431.771 550.699 431.771 549.021C431.771 548.323 431.653 547.652 431.551 546.191C432.28 545.136 432.706 543.857 432.706 542.478C432.706 540.671 431.973 539.035 430.789 537.851C429.605 536.667 427.969 535.935 426.162 535.935Z" fill="white" stroke="#00160A" stroke-width="1.86952"/>
<path fill-rule="evenodd" clip-rule="evenodd" d="M391.074 561.241C392.778 561.862 394.573 561.729 396.101 560.992C397.623 560.258 398.878 558.925 399.523 557.148C399.727 556.587 399.856 556.021 399.915 555.46C400.241 555.95 400.619 556.392 401.039 556.783C401.75 557.444 402.603 557.977 403.573 558.33C405.513 559.036 407.556 558.889 409.291 558.08C411.025 557.272 412.451 555.801 413.158 553.861C413.864 551.92 413.717 549.877 412.908 548.143C412.099 546.408 410.629 544.982 408.688 544.276C406.283 543.4 403.719 543.836 401.782 545.218C401.536 545.393 401.301 545.583 401.079 545.786C400.916 545.535 400.735 545.297 400.539 545.075C399.89 544.341 399.053 543.753 398.067 543.394C396.49 542.82 394.83 542.94 393.421 543.597C392.012 544.254 390.853 545.449 390.279 547.026C390.04 547.682 389.921 548.352 389.518 549.761C388.472 550.503 387.634 551.559 387.163 552.855C386.545 554.553 386.674 556.34 387.381 557.858C388.089 559.376 389.376 560.623 391.074 561.241Z" fill="white" stroke="#00160A" stroke-width="1.86952"/>
<path d="M401.5 568.065C405.678 568.065 409.065 564.678 409.065 560.5C409.065 556.322 405.678 552.935 401.5 552.935C397.322 552.935 393.935 556.322 393.935 560.5C393.935 564.678 397.322 568.065 401.5 568.065Z" fill="white" stroke="#00160A" stroke-width="1.86952"/>
<path d="M411.5 566.065C415.678 566.065 419.065 562.678 419.065 558.5C419.065 554.322 415.678 550.935 411.5 550.935C407.322 550.935 403.935 554.322 403.935 558.5C403.935 562.678 407.322 566.065 411.5 566.065Z" fill="white" stroke="#00160A" stroke-width="1.86952"/>
<path fill-rule="evenodd" clip-rule="evenodd" d="M350.5 421.935C348.998 421.935 347.599 422.372 346.395 423.125C345.116 423.924 344.056 425.078 343.323 426.442C343.233 426.611 343.147 426.782 343.068 426.955C342.88 426.942 342.691 426.935 342.5 426.935C340.411 426.935 338.519 427.781 337.15 429.15C335.781 430.519 334.935 432.411 334.935 434.5C334.935 435.621 335.178 436.685 335.617 437.641C335.833 438.113 336.1 438.566 336.418 438.992C335.905 438.928 335.379 438.917 334.847 438.962C332.902 439.128 331.168 440.03 329.923 441.388C328.688 442.734 327.935 444.529 327.935 446.5C327.935 448.589 328.781 450.48 330.15 451.849C331.519 453.218 333.411 454.065 335.5 454.065C336.201 454.065 336.879 453.97 337.522 453.793C337.729 453.736 337.934 453.67 338.137 453.594C338.254 453.775 338.378 453.951 338.51 454.122C339.894 455.912 342.062 457.065 344.5 457.065C346.589 457.065 348.48 456.218 349.849 454.849C351.218 453.48 352.065 451.589 352.065 449.5C352.065 448.379 351.822 447.315 351.383 446.358C351.167 445.886 350.899 445.433 350.582 445.007C351.095 445.071 351.621 445.083 352.153 445.037C354.098 444.871 355.832 443.969 357.077 442.612C358.312 441.265 359.065 439.471 359.065 437.5C359.065 435.866 358.547 434.352 357.666 433.116C357.567 432.977 357.462 432.841 357.354 432.708C357.426 432.552 357.494 432.395 357.556 432.235C357.885 431.387 358.065 430.464 358.065 429.5C358.065 427.411 357.218 425.519 355.849 424.15C354.48 422.781 352.589 421.935 350.5 421.935Z" fill="white" stroke="#00160A" stroke-width="1.86952"/>
<path d="M359.5 442.065C363.678 442.065 367.065 438.678 367.065 434.5C367.065 430.322 363.678 426.935 359.5 426.935C355.322 426.935 351.935 430.322 351.935 434.5C351.935 438.678 355.322 442.065 359.5 442.065Z" fill="white" stroke="#00160A" stroke-width="1.86952"/>
<path d="M336 478.065C339.35 478.065 342.065 475.35 342.065 472C342.065 468.65 339.35 465.935 336 465.935C332.65 465.935 329.935 468.65 329.935 472C329.935 475.35 332.65 478.065 336 478.065Z" fill="white" stroke="#00160A" stroke-width="1.86952"/>
<path d="M349 426.565C351.797 426.565 354.065 424.297 354.065 421.5C354.065 418.702 351.797 416.435 349 416.435C346.202 416.435 343.935 418.702 343.935 421.5C343.935 424.297 346.202 426.565 349 426.565Z" fill="white" stroke="#00160A" stroke-width="1.86952"/>
<path d="M335 417.065C337.797 417.065 340.065 414.797 340.065 412C340.065 409.202 337.797 406.935 335 406.935C332.202 406.935 329.935 409.202 329.935 412C329.935 414.797 332.202 417.065 335 417.065Z" fill="white" stroke="#00160A" stroke-width="1.86952"/>
<path fill-rule="evenodd" clip-rule="evenodd" d="M330.777 501.935C327.616 501.935 324.861 502.92 322.977 504.548C321.188 506.094 320.2 508.226 320.478 510.591C320.724 512.684 321.894 514.594 323.612 516.099C325.429 517.69 327.861 518.832 330.536 519.268C331.003 519.345 331.471 519.398 331.936 519.429C331.66 519.792 331.425 520.181 331.229 520.592C330.712 521.681 330.493 522.895 330.639 524.175C330.927 526.713 332.562 528.978 334.89 530.582L336.564 531.735L334.598 532.255C333.365 532.581 332.335 533.212 331.66 534.055C331.047 534.821 330.737 535.764 330.854 536.785C331.009 538.149 331.866 539.364 333.079 540.253C334.367 541.197 336.066 541.776 337.867 541.776C339.275 541.776 340.54 541.422 341.532 540.806C342.48 540.218 343.176 539.391 343.465 538.416C343.627 537.868 343.656 537.29 343.567 536.71C344.002 537.159 344.459 537.572 344.936 537.944C346.679 539.302 348.894 540.264 351.323 540.831C351.549 540.884 351.775 540.933 352.001 540.978C352.004 541.2 352.017 541.422 352.04 541.644C352.242 543.582 353.227 545.363 354.704 546.811C356.272 548.349 358.395 549.511 360.775 550.092C360.983 550.143 361.191 550.189 361.399 550.23C361.416 550.436 361.441 550.642 361.476 550.846C361.866 553.178 363.375 555.252 365.493 556.754C367.667 558.296 370.49 559.237 373.49 559.237C373.8 559.237 374.106 559.227 374.407 559.207C374.595 559.194 374.785 559.177 374.975 559.156C375.066 559.321 375.161 559.483 375.261 559.641C377.282 562.849 381.456 565.057 386.041 565.057C389.103 565.057 391.801 564.07 393.676 562.445C395.469 560.89 396.497 558.747 396.298 556.37C396.096 553.943 394.66 551.765 392.549 550.18C390.36 548.537 387.44 547.526 384.311 547.526C383.997 547.526 383.688 547.536 383.384 547.556C383.197 547.568 383.007 547.584 382.817 547.605C382.727 547.44 382.632 547.279 382.533 547.122C381.027 544.733 378.3 542.901 375.094 542.119C374.885 542.068 374.675 542.022 374.466 541.981C374.45 541.773 374.426 541.566 374.393 541.359C374.072 539.363 372.915 537.555 371.249 536.113C369.48 534.581 367.137 533.46 364.549 532.959C364.309 532.912 364.07 532.871 363.83 532.836C363.83 532.602 363.819 532.367 363.796 532.132C363.51 529.206 361.428 526.647 358.527 525.046C358.332 524.938 358.135 524.836 357.936 524.739C357.991 524.537 358.028 524.335 358.048 524.135C358.072 523.897 358.072 523.652 358.047 523.404C357.883 521.761 356.691 520.341 355.066 519.444C354.737 519.263 354.398 519.107 354.056 518.982C354.305 518.711 354.533 518.419 354.739 518.108C355.593 516.823 356.011 515.316 355.849 513.704C355.604 511.273 354.102 509.094 351.922 507.507C349.658 505.858 346.654 504.845 343.453 504.845C342.432 504.845 341.452 504.948 339.753 504.958C337.428 503.097 334.211 501.935 330.777 501.935Z" fill="white" stroke="#00160A" stroke-width="1.86952"/>
<path d="M370.5 551.065C374.678 551.065 378.065 547.678 378.065 543.5C378.065 539.322 374.678 535.935 370.5 535.935C366.322 535.935 362.935 539.322 362.935 543.5C362.935 547.678 366.322 551.065 370.5 551.065Z" fill="white" stroke="#00160A" stroke-width="1.86952"/>
<path fill-rule="evenodd" clip-rule="evenodd" d="M325 480.935C322.629 480.935 320.471 481.845 318.855 483.334C317.227 484.836 316.15 486.926 315.964 489.268C315.944 489.512 315.935 489.755 315.935 489.996C315.695 490.024 315.455 490.062 315.215 490.11C313.12 490.528 311.286 491.669 309.983 493.26C308.703 494.823 307.935 496.822 307.935 499C307.935 501.503 308.949 503.769 310.59 505.41C312.23 507.05 314.497 508.065 317 508.065C318.809 508.065 320.495 507.535 321.91 506.622C323.371 505.678 324.543 504.327 325.265 502.728C325.507 502.192 325.694 501.636 325.827 501.069C326.102 501.581 326.435 502.06 326.818 502.495C328.205 504.071 330.236 505.065 332.5 505.065C334.589 505.065 336.48 504.218 337.849 502.849C339.218 501.48 340.065 499.589 340.065 497.5C340.065 494.78 338.629 492.395 336.474 491.063C336.306 490.959 336.134 490.862 335.959 490.772C335.992 490.575 336.017 490.379 336.035 490.184C336.055 489.959 336.065 489.731 336.065 489.5C336.065 487.568 335.341 485.806 334.15 484.469C332.946 483.117 331.264 482.2 329.057 481.891C327.836 481.279 326.458 480.935 325 480.935Z" fill="white" stroke="#00160A" stroke-width="1.86952"/>
<path d="M324 509.065C328.454 509.065 332.065 505.454 332.065 501C332.065 496.546 328.454 492.935 324 492.935C319.546 492.935 315.935 496.546 315.935 501C315.935 505.454 319.546 509.065 324 509.065Z" fill="white" stroke="#00160A" stroke-width="1.86952"/>
<path d="M318 496.065C322.454 496.065 326.065 492.454 326.065 488C326.065 483.546 322.454 479.935 318 479.935C313.546 479.935 309.935 483.546 309.935 488C309.935 492.454 313.546 496.065 318 496.065Z" fill="white" stroke="#00160A" stroke-width="1.86952"/>
<path d="M312 488.065C316.454 488.065 320.065 484.454 320.065 480C320.065 475.546 316.454 471.935 312 471.935C307.546 471.935 303.935 475.546 303.935 480C303.935 484.454 307.546 488.065 312 488.065Z" fill="white" stroke="#00160A" stroke-width="1.86952"/>
<path d="M312 474.065C316.454 474.065 320.065 470.454 320.065 466C320.065 461.546 316.454 457.935 312 457.935C307.546 457.935 303.935 461.546 303.935 466C303.935 470.454 307.546 474.065 312 474.065Z" fill="white" stroke="#00160A" stroke-width="1.86952"/>
</svg>
