<svg width="750" height="750" viewBox="0 0 750 750" fill="none" xmlns="http://www.w3.org/2000/svg">
<rect width="750" height="750" fill="none"/>
<path d="M138.006 365.932C133.211 366.539 130.308 362.96 126.776 360.909C126.259 360.609 125.854 359.238 126.05 358.576C127.211 354.662 128.362 350.716 129.931 346.974C130.871 344.73 132.819 344.421 134.859 345.936C136.194 346.927 137.625 347.773 138.998 348.708C143.421 351.722 143.945 353.534 141.709 358.504C140.615 360.937 139.39 363.305 138.006 365.932ZM132.106 351.921C131.367 354.206 130.627 356.492 129.888 358.777C132.046 359.288 134.909 360.915 136.182 360.027C137.75 358.931 139.038 355.428 138.527 353.54C137.978 351.512 135.499 349.114 132.106 351.921Z" fill="#FFB61D"/>
<path d="M618.006 185.932C613.211 186.539 610.308 182.96 606.776 180.909C606.259 180.609 605.854 179.238 606.05 178.576C607.211 174.662 608.362 170.716 609.931 166.974C610.871 164.73 612.819 164.421 614.859 165.936C616.194 166.927 617.625 167.773 618.998 168.708C623.421 171.722 623.945 173.534 621.709 178.504C620.615 180.937 619.39 183.305 618.006 185.932ZM612.106 171.921C611.367 174.206 610.627 176.492 609.888 178.777C612.046 179.288 614.909 180.915 616.182 180.027C617.75 178.931 619.038 175.428 618.527 173.54C617.978 171.512 615.499 169.114 612.106 171.921Z" fill="#FFB61D"/>
<path d="M274.596 648.982C206.742 645.876 124.711 498.501 200.023 447.298C275.336 396.096 253.081 248.165 253.081 248.165C262.382 187.746 268.787 128.421 334.441 98.2521C370.388 81.7335 422.455 107.473 454.288 93.6863C527.595 61.9383 547.673 50.4696 577.296 97.6249C663.255 234.457 527.903 342.53 557.868 454.361C574.013 514.612 594.017 574.545 572.591 619.385C551.166 664.225 541.98 640.723 482.347 656.701C452.583 664.677 419.784 682.129 384.616 684.227C349.447 686.325 359.336 670.26 328.105 656.494C308.553 647.876 290.506 665.847 274.596 648.982Z" />
<path fill-rule="evenodd" clip-rule="evenodd" d="M335.5 570C329.25 566.75 324.15 559.941 323.355 552.787C322.592 545.914 327.275 538.336 330.751 532.749C331.594 531.394 332.511 530.117 333.426 528.844C334.846 526.865 336.26 524.897 337.377 522.663C337.596 522.226 337.82 521.771 338.049 521.305C339.444 518.474 341.041 515.233 342.895 512.916C345.182 510.057 347.151 507.086 349.157 504.06L349.163 504.052L349.174 504.035C349.514 503.522 349.856 503.007 350.2 502.49C351.122 501.106 352.151 499.772 353.18 498.436C354.752 496.398 356.325 494.356 357.527 492.132C359.246 488.952 361.907 485.716 364.244 482.973C365.84 481.099 367.171 479.062 368.503 477.022C369.663 475.248 370.823 473.472 372.159 471.801C373.609 469.989 374.769 467.976 375.928 465.965C376.782 464.483 377.636 463.001 378.605 461.602C380.493 458.874 382.53 454.967 383.263 451.741C383.582 450.339 384.051 449.036 384.515 447.746C385.2 445.844 385.874 443.968 386.045 441.836C386.362 437.872 386.048 435.15 384.62 431.478C384.409 430.934 384.233 430.361 384.056 429.783C383.763 428.829 383.467 427.863 383 427C382.752 425.935 382.034 426.56 380.989 427.468C378.812 429.361 375.217 432.487 371.501 424.124C370.662 422.444 370.192 420.45 369.748 418.562C369.64 418.102 369.533 417.647 369.422 417.205C368.261 412.562 368.256 407.057 369.358 402.406C369.734 400.819 370.001 399.17 370.268 397.53C370.405 396.686 370.542 395.843 370.693 395.012C371.088 392.84 371.721 388.21 371.5 386C370.528 380.412 367.077 372.462 363.44 364.084C359.592 355.221 355.536 345.879 353.987 338.346C352.653 333.276 350.586 329.093 348.237 324.396C342.233 321.966 336.147 319.916 330.012 317.871C322.187 315.263 316.649 311.1 311.786 304.346C307.957 299.027 305.226 292.131 303.786 285.795C303.294 283.631 303.108 281.458 302.921 279.282C302.792 277.788 302.664 276.292 302.436 274.795C302.07 272.391 302.821 269.448 303.51 266.743C303.788 265.655 304.055 264.606 304.236 263.645C305.461 257.152 309.091 251.283 312.582 245.638C313.376 244.355 314.162 243.084 314.912 241.819C317.958 236.679 322.358 232.014 326.613 227.504C328.004 226.03 329.379 224.572 330.687 223.119C331.424 222.3 332.041 221.39 332.659 220.478C333.242 219.618 333.825 218.757 334.512 217.969C335.65 216.663 336.843 215.525 338.051 214.373C338.661 213.792 339.275 213.206 339.887 212.594C341.363 211.118 342.688 209.505 344.012 207.892C345.426 206.17 346.84 204.448 348.437 202.894C351.965 199.461 368.5 176 371.334 167.858C372.646 164.943 374.061 162.059 375.476 159.176C377.181 155.702 378.885 152.229 380.406 148.705C380.998 147.335 381.84 146.088 382.682 144.841C383.657 143.396 384.633 141.95 385.22 140.312C385.976 138.205 387.106 136.284 388.237 134.363C388.918 133.205 389.599 132.047 390.199 130.849C393.836 123.574 398.665 116.826 403.756 110.462C408.699 104.283 416.916 99.8638 424.471 97.9749C426.696 97.4188 427.585 97.4368 429.465 97.4751C430.032 97.4866 430.689 97.4999 431.5 97.4999C435.963 96.535 438.304 97.2738 440.377 97.9277C441.092 98.153 441.774 98.3682 442.5 98.5002C445.332 99.0152 448.626 100.786 451 102.5C455.867 106.015 464.773 117.665 463.5 131.5C462.591 141.377 454.652 165.836 452.5 171C451.916 172.401 451.603 174.652 451.323 176.673C451.176 177.73 451.038 178.723 450.874 179.5C450.537 181.102 450.181 183.369 450 185C449.594 188.65 450.019 190.919 450.874 194.529C451.035 195.209 451.203 195.889 451.371 196.568L451.372 196.572C451.635 197.637 451.898 198.701 452.135 199.769C452.403 200.973 453.103 202.286 453.75 203.498L453.75 203.499C453.956 203.884 454.156 204.259 454.335 204.617C454.399 204.745 454.464 204.876 454.53 205.009C454.576 205.103 454.623 205.198 454.67 205.294L454.785 205.528C456.223 208.452 458.034 212.135 460.765 213.695C461.931 213.987 462.813 214.298 463.707 214.613C464.546 214.91 465.395 215.209 466.5 215.5L467.014 215.635C469.006 216.155 470.946 216.663 472.772 217.593C478.379 220.45 482.492 225.033 485.884 230.25C486.491 231.184 487.004 232.317 487.419 233.355C487.971 234.736 488.532 235.51 489.568 236.584C489.705 236.726 489.847 236.869 489.991 237.014C490.853 237.881 491.789 238.823 492.082 240.019C492.307 240.943 492.696 241.621 493.127 242.375L493.128 242.377L493.129 242.38C493.233 242.561 493.339 242.747 493.446 242.941C493.715 243.429 493.844 243.911 493.972 244.388C494.141 245.016 494.308 245.637 494.788 246.251C495.511 247.174 495.718 248.119 495.956 249.207C495.976 249.297 495.996 249.388 496.016 249.48C496.247 250.52 496.596 251.55 496.945 252.583C497.263 253.522 497.581 254.463 497.813 255.417C498.092 256.564 498.619 257.607 499.144 258.647C499.69 259.729 500.235 260.808 500.5 262C500.606 262.479 501.811 265.274 502.658 264.196C503.115 263.615 503.312 262.659 503.494 261.775C503.587 261.323 503.677 260.889 503.795 260.534C503.929 260.131 504.127 259.746 504.325 259.362C504.635 258.759 504.943 258.159 505 257.5C505.337 256.094 505.838 255.035 506.325 254.005C506.56 253.509 506.791 253.019 507 252.5C507.531 251.181 507.899 250.352 508.463 249.083L508.5 249C509.13 247.583 509.873 246.132 510.602 244.709C510.907 244.113 511.21 243.522 511.5 242.941C511.754 242.434 512.017 241.901 512.285 241.357L512.286 241.355C513.008 239.892 513.769 238.349 514.5 237C515.08 235.929 515.695 234.94 516.314 233.943C516.71 233.307 517.108 232.667 517.5 232C517.907 231.308 518.116 230.38 518.309 229.522C518.368 229.259 518.426 229.002 518.488 228.76C518.814 228.276 518.955 227.864 519.089 227.475C519.165 227.254 519.238 227.04 519.342 226.825C520.058 225.337 520.692 223.859 521.32 222.333C522.517 219.426 523.957 216.714 525.43 213.94C525.596 213.627 525.763 213.314 525.929 213C526.092 212.691 526.262 212.396 526.43 212.106C526.916 211.263 527.381 210.455 527.612 209.441C527.698 209.06 527.751 208.679 527.802 208.305C527.921 207.434 528.036 206.597 528.563 205.88C526.857 206.153 524.343 206.041 522.616 205.868C521.233 205.73 513.337 204.817 512 204.5C511.758 204.443 511.543 204.421 511.353 204.401C511.105 204.376 510.9 204.355 510.732 204.265C509.93 203.833 509.981 201.816 510.275 190.167C510.388 185.708 510.536 179.837 510.686 172.104C511.614 170.983 512.997 170.687 514.341 170.399C514.678 170.327 515.013 170.255 515.338 170.171C517.175 169.695 517.743 169.798 518.592 169.951C519.139 170.051 519.803 170.171 521 170.171C521.859 170.171 522.755 170.255 523.648 170.338C524.444 170.412 525.238 170.486 526 170.5C527.54 170.529 531.856 172.83 532.5 174L553.795 176C556.617 176.564 563.5 183 560.46 193.371C559.924 194.698 559.092 195.815 558.203 196.926C557.653 197.614 556.994 198.179 556.334 198.745C555.856 199.156 555.376 199.568 554.936 200.027C554.231 200.765 553.65 201.594 553.068 202.424C552.746 202.884 552.423 203.345 552.079 203.791C550 207.5 541.403 218.489 540 220C539.463 221.104 537.478 224.467 535.709 227.465L535.709 227.466L535.708 227.467C534.172 230.071 532.798 232.399 532.678 232.729C532.217 233.997 531.426 235.222 530.666 236.399C530.41 236.796 530.158 237.187 529.923 237.572C529.824 237.734 529.719 237.9 529.611 238.069L529.61 238.07C529.045 238.959 528.422 239.937 528.376 240.973C528.34 241.788 528.126 242.655 527.888 243.432C527.542 244.567 527.036 245.647 526.529 246.728C525.957 247.949 525.384 249.172 525.038 250.479C524.783 251.443 524.354 252.3 523.921 253.167L523.92 253.169C523.696 253.617 523.471 254.068 523.268 254.538C522.847 255.51 522.593 256.511 522.337 257.521C522.274 257.77 522.211 258.019 522.145 258.268C521.899 259.199 521.595 260.128 521.292 261.056L521.291 261.058C521.101 261.641 520.911 262.223 520.735 262.804C520.52 263.516 520.385 264.235 520.25 264.954C520.135 265.567 520.02 266.18 519.856 266.788C518.814 270.634 517.967 274.599 517.312 278.53C516.829 281.427 516.571 284.35 516.313 287.272C515.993 290.891 515.674 294.507 514.928 298.072C514.563 299.816 514.121 301.511 513.603 303.211C513.387 303.921 513.065 304.343 512.677 304.85C512.56 305.003 512.438 305.163 512.31 305.341C512.084 305.659 511.879 305.987 511.676 306.313C511.154 307.151 510.642 307.972 509.788 308.552C509.711 308.605 509.637 308.656 509.568 308.705C509.481 308.766 509.399 308.824 509.321 308.879C508.768 309.272 508.394 309.537 507.584 309.792C507.285 309.887 506.987 309.992 506.688 310.098C506.1 310.306 505.509 310.515 504.903 310.64C504.073 310.811 503.174 310.786 502.308 310.761L502.305 310.761C502.091 310.755 501.879 310.749 501.671 310.746C497.848 310.062 493.983 303.662 492.564 301.311C492.435 301.098 492.326 300.917 492.239 300.778C491.281 299.238 490.491 297.587 489.699 295.934C488.639 293.719 487.577 291.501 486.108 289.542C484.36 287.211 482.989 284.622 481.618 282.031C480.131 279.221 478.643 276.41 476.671 273.924C474.874 271.657 473.383 268.547 471.899 265.453C470.508 262.552 469.124 259.665 467.5 257.5C465.189 259.534 463.82 264.837 463.384 267.844C463.051 270.134 462.515 272.235 461.636 274.393C460.599 276.936 459.885 279.781 459.229 282.436C458.921 283.684 458.501 284.916 458.081 286.147C457.783 287.02 457.485 287.892 457.228 288.77C456.942 289.744 456.722 290.728 456.502 291.712C456.262 292.786 456.022 293.86 455.695 294.926C454.34 299.344 453.258 303.594 453.086 308.251C453.054 309.114 452.998 309.992 452.941 310.879C452.733 314.153 452.517 317.538 453.478 320.614C453.833 321.75 453.985 323.026 453.985 324.212C453.985 325.279 454.204 326.321 454.424 327.365C454.555 327.988 454.686 328.611 454.77 329.24C455.209 332.5 455.998 337.979 456.57 340.036C456.629 340.251 456.693 340.472 456.758 340.697C457.112 341.928 457.5 343.277 457.5 344.5C457.5 346.334 457.759 348.067 458.016 349.79C458.224 351.184 458.431 352.571 458.5 354C458.826 355.664 459.035 357.416 459.244 359.167C459.438 360.801 459.633 362.435 459.923 364C460.154 365.244 460.152 366.489 460.15 367.73C460.148 369.161 460.147 370.587 460.5 372C460.977 373.91 461.569 388.049 462.016 398.734C462.212 403.439 462.381 407.474 462.5 409.5C462.63 411.728 462.37 413.64 462.12 415.47C461.93 416.86 461.747 418.202 461.747 419.599V441.956C461.747 451.098 461.737 460.195 461.313 469.315C461.226 471.193 461.047 473.063 460.868 474.933C460.618 477.547 460.369 480.16 460.369 482.79C460.369 486.516 460.103 490.244 459.45 493.918C458.104 501.489 458.072 508.862 458.072 516.53C458.072 519.352 457.957 522.161 457.842 524.97C457.727 527.782 457.612 530.595 457.612 533.425L457.593 567.67C457.519 568.406 457.481 569.171 457.442 569.94C457.35 571.786 457.256 573.66 456.669 575.243C456.656 575.824 456.605 576.399 456.555 576.973C456.496 577.638 456.438 578.304 456.438 578.979C456.438 579.209 456.446 579.445 456.454 579.684C456.479 580.386 456.504 581.109 456.322 581.764C456.148 582.392 456.009 582.994 455.873 583.581C455.49 585.236 455.137 586.765 454.114 588.362C453.91 588.682 453.713 588.996 453.52 589.303C452.219 591.377 451.099 593.165 449 594.5C444.29 597.497 438.238 597.902 432.598 597.53C433.618 599.202 433.37 604.221 433.167 608.312C432.98 612.088 432.832 615.074 433.756 613.913C434.013 613.589 434.296 613.275 434.58 612.961L434.581 612.959C435.068 612.419 435.558 611.877 435.929 611.272C436.417 610.477 436.883 609.734 437.658 609.169C439.525 607.807 441.709 609.199 442.496 611.062C442.816 611.821 443.285 612.516 443.752 613.208C444.323 614.056 444.892 614.9 445.183 615.852C445.696 617.531 447.228 619.386 448.432 620.643C451.495 623.842 454.71 626.376 458.691 628.367C461.68 629.861 464.984 630.679 468.244 631.486C469.128 631.704 470.008 631.922 470.878 632.152C471.712 632.373 472.539 632.656 473.365 632.939L473.367 632.94C474.493 633.325 475.619 633.711 476.767 633.94C478.517 634.29 479.723 635.448 479.723 637.305C479.723 640.822 477.021 644.637 474.044 646.338C471.467 647.811 468.629 648.259 465.768 648.711L465.761 648.712C465.103 648.816 464.443 648.92 463.785 649.037C460.442 649.631 456.923 649.581 453.475 649.531C452.527 649.518 451.584 649.504 450.652 649.504C449.626 649.504 448.595 649.496 447.56 649.488C443.22 649.455 438.819 649.421 434.55 649.971C429.21 650.661 423.891 650.176 418.564 649.69C417.008 649.548 415.45 649.406 413.892 649.294C413.624 649.361 413.48 649.418 413.408 649.463C413.354 649.404 413.226 649.319 412.957 649.2C412.557 649.024 412.149 648.953 411.743 648.883C411.33 648.811 410.918 648.739 410.515 648.558L410.347 648.482C409.356 648.038 408.352 647.588 407.605 646.758C407.265 646.38 406.988 645.867 406.713 645.36C406.521 645.005 406.331 644.652 406.121 644.351C404.233 641.636 404.637 638.183 405.016 634.936C405.124 634.016 405.229 633.112 405.28 632.246C405.422 629.841 406.304 627.15 407.255 624.99C407.632 624.134 407.74 623.225 407.849 622.313C407.945 621.514 408.041 620.712 408.318 619.942C408.898 618.332 410.335 614.745 412 613.913C416.744 617.022 415.941 608.164 415.422 602.433C415.175 599.708 414.992 597.69 415.5 598C418 597 422.09 595.854 424 597C424.816 597 425.715 597.011 426.634 597.021C427.015 597.025 427.4 597.03 427.783 597.033C426.519 596.851 425.262 596.63 424.006 596.409C422.649 596.171 421.294 595.933 419.93 595.743C417.366 595.387 414.661 595.392 412.047 595.396H412.044C411.762 595.396 411.481 595.397 411.201 595.397C410.209 595.397 409.268 595.484 408.305 595.574L408.304 595.574C408.06 595.596 407.816 595.619 407.569 595.641C407.38 595.657 407.07 595.813 406.734 595.983C406.022 596.342 405.193 596.761 405.143 596.039C405.01 594.133 405.055 592.082 405.099 590.08C405.121 589.096 405.143 588.123 405.143 587.186C405.143 580.597 405.143 573.924 404.398 567.387C403.893 562.957 403.405 558.595 403.05 554.165C402.664 549.339 402.231 544.453 401.215 539.711C398.012 541.542 395.66 543.489 393.307 546.289C392.219 547.585 391.084 548.856 389.946 550.129C388.089 552.207 386.227 554.291 384.56 556.495C379.679 562.944 374.716 568.724 368.437 573.861C367.909 574.293 367.35 574.777 366.765 575.282C364.177 577.52 361.088 580.191 358.017 580.722C356.034 581.065 353.39 580.846 351.121 580.269C348.915 582.19 346.739 584.143 344.567 586.092L344.558 586.1C343.345 587.188 342.134 588.275 340.92 589.354C340.812 589.45 340.628 589.596 340.398 589.78C339.03 590.872 336.024 593.272 337.583 594.097C338.56 594.614 339.776 594.666 340.97 594.718C341.726 594.75 342.473 594.782 343.145 594.931C345.099 595.366 345.659 597.091 346.203 598.77C346.332 599.168 346.46 599.563 346.606 599.938C348.051 603.652 347.03 607.624 346.077 611.329C345.979 611.712 345.881 612.092 345.787 612.468C345.255 614.596 344.814 617.217 344.814 619.406C344.814 621.01 345.565 622.617 346.278 624.146C346.552 624.732 346.82 625.306 347.039 625.864C348.082 628.531 349.433 631.048 350.785 633.567C351.677 635.228 352.569 636.889 353.374 638.596C354.29 640.539 355.104 643.114 355.104 645.27C355.104 647.907 354.671 649.501 352.601 651.111C349.47 653.546 343.145 652.111 340.379 649.5C336.685 648.828 333.431 646.067 330.339 643.442C328.933 642.249 327.56 641.084 326.195 640.157C325.083 637.5 322.813 635.465 320.306 633.898C317.554 632.178 315.434 629.763 313.334 627.371C312.891 626.866 312.448 626.361 312 625.864C311.269 625.053 310.425 623.737 309.595 622.442C308.857 621.291 308.129 620.155 307.5 619.406C306.908 618.7 306.375 617.514 305.827 616.294C305.151 614.789 304.452 613.234 303.591 612.468C302.804 611.769 302.233 610.941 301.658 610.109C301.156 609.383 300.652 608.652 300 608C299.25 607.251 298.995 606.639 298.701 605.938C298.522 605.51 298.329 605.048 298 604.5C297.699 603.999 297.56 603.851 297.398 603.679C297.125 603.388 296.787 603.029 295.5 600.788C295.104 600.099 294.721 599.913 294.389 599.753C293.997 599.563 293.678 599.408 293.5 598.5C292.757 596.888 292.311 596.222 292.087 595.888C291.965 595.705 291.909 595.621 291.907 595.537C291.906 595.466 291.944 595.395 292.012 595.264C292.114 595.069 292.284 594.744 292.5 594.097C293.079 592.361 293.991 592.129 295.144 591.836C295.981 591.624 296.946 591.379 298 590.5C298.625 589.979 299.128 589.479 299.594 589.016C300.731 587.887 301.649 586.975 303.591 586.5C304.016 586.396 304.407 586.302 304.769 586.216L304.789 586.211L304.791 586.21C308.584 585.3 309 585.201 309 583C311.003 583 311.212 582.036 311.387 581.226C311.488 580.756 311.578 580.339 312 580.191C312.875 579.885 313.465 579.831 314.008 579.78C314.709 579.716 315.331 579.658 316.384 579.079C316.951 578.767 317.549 578.308 318.171 577.831C319.46 576.841 320.852 575.772 322.286 575.772C322.82 575.772 323.256 576.097 323.701 576.428C324.123 576.743 324.554 577.064 325.083 577.117C326.224 577.231 326.972 576.422 327.693 575.643C327.842 575.482 327.992 575.32 328.142 575.17C329.322 573.99 330.79 572.99 332.223 572.013L332.224 572.012C332.819 571.607 333.408 571.205 333.967 570.797C334.555 570.368 335.128 570.164 335.689 570.115C335.622 570.069 335.559 570.031 335.5 570ZM372.988 348.578C371.772 345.064 370.832 342.348 370.5 341.5C369.671 339.949 369.222 337.78 368.791 335.697C368.507 334.325 368.231 332.989 367.859 331.893C367.102 329.665 370.17 330.123 372.175 330.423C372.723 330.505 373.191 330.574 373.48 330.574C376.392 330.574 379.229 329.993 382.071 329.41C384.097 328.995 386.126 328.579 388.186 328.373C389.333 328.258 390.467 328.009 391.595 327.758C392.071 327.653 392.568 327.597 393.063 327.542C393.661 327.476 394.257 327.41 394.813 327.255C395.407 327.09 396.084 326.589 396.758 326.09C398.297 324.951 399.819 323.824 400.289 326.753C400.617 328.794 400.554 330.661 400.488 332.624C400.472 333.089 400.457 333.559 400.446 334.039C400.408 335.698 399.993 337.211 399.572 338.749C399.384 339.434 399.195 340.124 399.038 340.833C398.68 342.441 397.91 343.802 397.136 345.169C396.709 345.924 396.281 346.681 395.92 347.483C395.416 348.601 394.732 349.557 394.036 350.529C393.829 350.818 393.621 351.109 393.416 351.405C392.93 352.11 392.496 352.851 392.061 353.591C391.638 354.312 391.215 355.032 390.746 355.719C390.419 356.195 390.062 356.674 389.701 357.156C389.022 358.063 388.332 358.985 387.818 359.943C387.688 360.185 387.557 360.43 387.426 360.676C386.892 361.68 386.347 362.703 385.761 363.664C385.585 363.954 385.398 364.244 385.208 364.537C384.603 365.474 383.98 366.437 383.661 367.486C383.574 367.769 383.446 368.181 383.298 368.657C382.85 370.097 382.218 372.13 382 373C380.581 370.516 375.96 357.165 372.988 348.578Z" fill="white"/>
<path fill-rule="evenodd" clip-rule="evenodd" d="M336.339 657.998C307.058 657.998 277.976 657.997 248.894 658C247.388 658 245.849 657.965 245.1 656.578C244.578 655.612 246.216 653.928 247.48 654.002C248.517 654.063 249.554 654.158 250.591 654.158C323.827 654.165 517.063 654.163 590.299 654.185C590.947 654.185 591.849 654.322 592.181 654.699C592.672 655.256 593.177 656.553 592.94 656.716C592.055 657.324 590.871 657.943 589.797 657.947C569.879 658.016 429.959 657.998 410.04 657.998C385.54 657.998 361.039 657.998 336.339 657.998Z" fill="black"/>
<path fill-rule="evenodd" clip-rule="evenodd" d="M189.75 658.986C171.687 658.986 153.824 658.988 135.96 658.98C134.839 658.979 133.597 659.256 133.144 657.776C132.69 656.295 133.312 655.219 134.964 655.026C135.421 654.973 135.893 655.018 136.358 655.018C167.303 655.018 198.249 655.02 229.195 655.013C230.623 655.012 232.059 654.883 231.998 656.806C231.951 658.304 231.063 658.986 228.997 658.986C215.981 658.986 202.965 658.986 189.75 658.986Z" fill="black"/>
<path d="M420.091 142.471C418.797 143.155 417.502 143.838 416.208 144.521C415.661 144.81 414.964 144.262 414.899 143.647C414.834 143.032 415.197 142.454 415.607 141.991C416.769 140.679 418.45 139.84 420.198 139.7C420.595 139.668 421.032 139.684 421.336 139.941C421.763 140.302 421.729 141.006 421.415 141.469C421.1 141.932 420.586 142.21 420.091 142.471Z" fill="black"/>
<path d="M426.74 163.797C427.466 163.075 428.877 163.564 429.583 162.823C430.187 162.187 429.828 161.124 429.286 160.435C428.745 159.745 428.021 159.104 427.924 158.233C427.828 157.362 428.981 156.458 429.557 157.119C430.485 158.185 431.329 159.388 431.613 160.773C431.896 162.157 431.504 163.755 430.356 164.58C429.208 165.405 427.302 165.093 426.74 163.797Z" fill="black"/>
<path d="M438.727 150.972C438.454 150.41 438.419 149.736 438.634 149.148C438.77 148.774 439.005 148.436 439.307 148.177C440.287 147.335 441.976 147.536 442.731 148.585C443.486 149.633 443.14 151.297 442.031 151.959C440.921 152.621 439.291 152.134 438.727 150.972Z" fill="black"/>
<path d="M421.641 147.075C422.435 146.884 423.309 147.054 423.973 147.53C424.503 147.909 424.896 148.475 425.066 149.104C425.459 150.555 424.486 152.232 423.03 152.611C421.575 152.99 419.906 152.002 419.54 150.544C419.174 149.086 420.179 147.427 421.641 147.075Z" fill="black"/>
<path d="M540.158 184.285C540.178 183.571 540.204 182.836 540.5 182.187C540.797 181.537 541.438 180.99 542.151 181.031C542.864 181.072 543.48 181.901 543.147 182.532C542.009 184.688 541.839 187.331 542.692 189.615C543.028 190.514 541.506 191.139 540.783 190.508C540.059 189.877 540.03 188.782 540.058 187.823C540.091 186.644 540.125 185.464 540.158 184.285Z" fill="black"/>
<path d="M430.205 177.09C427.856 179.413 424.135 180.231 421.027 179.108C417.919 177.986 415.581 174.979 415.26 171.692C415.144 170.503 415.381 169.111 416.408 168.501C417.829 167.657 419.535 168.837 420.925 169.731C423.004 171.068 425.439 171.846 427.908 171.962C429.005 172.014 430.245 171.992 431.011 172.778C432.147 173.943 431.362 175.946 430.205 177.09ZM430.046 174.601C429.529 173.875 428.5 173.809 427.611 173.741C424.538 173.508 421.536 172.414 419.033 170.617C418.514 170.245 417.723 170.609 417.461 171.191C417.199 171.773 417.33 172.455 417.547 173.055C418.429 175.49 420.751 177.34 423.322 177.658C425.894 177.977 428.597 176.747 430.046 174.601Z" fill="black"/>
<path d="M467.643 258.937C462.543 275.846 457.408 292.939 456.311 310.565C455.203 328.366 458.247 346.122 460.2 363.85C467.516 430.266 459.532 497.297 458.769 564.11C458.674 572.396 458.606 581.047 454.792 588.405C450.979 595.764 442.102 601.239 434.343 598.318C434.143 602.585 433.944 606.852 433.744 611.12C435.214 609.088 437.615 607.758 440.118 607.589C446.418 621.186 460.238 630.998 475.159 632.466C480.109 632.953 481.311 640.5 477.966 644.18C474.62 647.86 469.175 648.549 464.215 648.939C448.312 650.188 432.354 650.746 416.402 650.61C409.818 650.554 404.708 644.135 403.765 637.622C402.822 631.11 404.98 624.592 407.107 618.365C408.383 614.629 413.986 610.759 415.017 614.57C414.529 609.057 414.041 603.545 413.552 598.033C410.723 597.768 407.894 597.504 405.065 597.24C403.912 578.753 402.759 560.266 401.606 541.78C387.109 551.39 378.804 568.749 363.586 577.173C354.88 581.992 343.683 584.182 338.772 592.833C345.206 593.138 348.564 600.899 348.385 607.335C348.207 613.77 346.071 620.35 347.932 626.514C350.343 634.5 359.111 642.287 354.768 649.411C350.506 656.401 339.672 652.428 333.282 647.308C315.428 633.002 300.657 614.873 290.255 594.502C300.308 586.231 311.591 579.457 323.618 574.47C327.342 576.418 332.612 573.369 332.778 569.172C325.045 565.045 322.118 554.972 323.665 546.348C325.212 537.724 330.257 530.194 335.183 522.947C347.283 505.143 359.384 487.34 371.485 469.536C380.193 456.724 389.23 440.656 382.554 426.679C326.643 498.794 270.733 570.909 214.823 643.024C210.774 648.247 200.891 644.921 199.888 638.391C198.884 631.86 205.654 625.802 212.238 626.392C198.666 616.267 185.093 606.143 171.52 596.018C168.889 594.055 166.056 591.777 165.5 588.542C164.915 585.142 167.05 581.93 169.091 579.148C187.436 554.141 206.807 529.885 227.138 506.462C233.06 499.639 239.256 492.733 247.281 488.578C255.306 484.422 265.656 483.543 273.071 488.707C284.078 496.373 295.084 504.038 306.091 511.704C327.836 483.46 349.582 455.216 371.328 426.973C363.279 414.83 371.505 398.581 369.76 384.12C367.853 368.326 354.056 355.664 353.044 339.788C352.55 332.032 346.106 325.923 339.262 322.233C332.417 318.544 324.743 316.39 318.359 311.953C303.944 301.935 299.234 281.871 303.108 264.756C306.982 247.641 317.862 232.989 329.553 219.897C341.243 206.806 354.12 194.562 363.377 179.652C371.873 165.969 377.02 150.511 384.224 136.107C391.427 121.703 401.386 107.752 415.956 100.876C430.525 93.9994 450.424 96.5147 459.362 109.913C466.569 120.717 465.024 135.123 461.154 147.518C457.283 159.913 451.337 171.896 450.475 184.852C449.613 197.808 455.794 212.592 468.3 216.112C487.422 221.494 495.667 243.468 501.146 262.553C510.113 244.035 519.081 225.517 528.048 207C521.752 206.389 515.455 205.779 509.158 205.169C509.24 194.582 509.782 184.102 509.957 173.537C509.99 171.517 511.53 169.812 513.543 169.649C535.222 167.895 528.325 176.402 550.394 173.981C553.457 174.46 556.927 177.339 559.293 179.342C566.53 185.47 559.683 196.864 553.461 204.019C532.696 227.897 519.599 258.335 516.54 289.823C516.055 294.82 515.77 300.006 513.461 304.465C511.152 308.924 506.123 312.451 501.25 311.23C496.907 310.142 494.248 305.89 492.042 301.997C483.909 287.644 475.776 273.291 467.643 258.937ZM349.692 576.784C352.071 577.922 354.656 578.955 357.272 578.624C360.553 578.208 363.159 575.768 365.513 573.447C372.42 566.639 379.285 559.789 386.109 552.898C406.602 532.205 427.581 509.579 433.664 481.106C435.287 473.514 435.782 465.732 436.273 457.984C437.365 440.747 438.456 423.42 436.761 406.231C435.898 397.479 434.454 388.015 438.854 380.399C438.984 395.795 439.114 411.19 439.243 426.586C439.386 443.495 439.52 460.521 436.535 477.166C433.55 493.811 427.226 510.237 415.885 522.786C409.857 529.456 401.878 536.656 403.384 545.517C406.051 561.213 406.876 577.221 405.837 593.108C405.75 594.442 407.463 595.037 408.792 595.184C420.25 596.45 431.846 596.458 443.306 595.209C447.282 594.776 452.224 593.225 452.578 589.244C458.682 520.547 461.223 451.535 460.19 382.576C460.006 370.354 459.692 357.997 456.536 346.188C456.216 344.991 455.298 343.495 454.149 343.96C436.891 350.951 416.596 350.012 400.058 341.458C395.181 349.552 390.579 357.81 386.261 366.216C383.83 370.949 381.449 376.498 383.519 381.4C387.44 390.684 388.125 401.297 385.432 411.008C383.749 417.077 380.963 424.159 384.837 429.126C388.747 434.14 388.988 441.256 387.072 447.317C385.157 453.378 381.378 458.646 377.716 463.842C358.488 491.119 340.861 519.522 324.955 548.857C322.408 553.556 326.029 559.186 329.853 562.922C335.649 568.584 342.381 573.288 349.692 576.784ZM401.805 215.624C400.829 214.81 399.793 213.961 398.539 213.747C397.379 213.549 396.206 213.928 395.089 214.302C391.419 215.532 387.748 216.762 384.077 217.991C380.9 219.055 377.662 220.151 374.984 222.165C371.809 224.553 369.673 228.039 367.669 231.469C364.815 236.354 362.072 241.303 359.441 246.311C358.942 247.259 358.435 248.265 358.477 249.336C358.519 250.43 359.129 251.412 359.74 252.32C364.956 260.082 371.702 266.813 379.478 272.013C379.764 272.205 380.068 272.4 380.412 272.426C380.88 272.461 381.307 272.178 381.676 271.889C386.639 268.007 388.407 260.559 385.718 254.862C386.771 254.151 387.867 255.716 388.182 256.947C395.027 283.66 399.475 310.986 401.457 338.49C401.617 340.724 404.219 341.799 406.388 342.362C414.323 344.421 422.385 346.28 430.582 346.456C438.778 346.633 447.197 345.024 454.1 340.603C454.708 340.214 455.384 339.592 455.167 338.903C450.863 325.285 450.812 310.603 453.034 296.494C455.256 282.386 459.678 268.729 464.214 255.186C464.534 254.232 465.281 253.052 466.226 253.4C467.712 257.717 470.833 261.451 474.82 263.679C480.893 258.663 488.216 255.17 495.938 253.607C493.037 247.144 490.135 240.681 487.234 234.218C485.461 230.27 483.589 226.186 480.293 223.381C476.923 220.513 472.475 219.329 468.189 218.227C459.872 216.088 451.555 213.949 443.238 211.81C441.546 211.375 439.55 211.003 438.217 212.131C436.766 213.359 436.962 215.599 437.168 217.488C437.913 224.289 437.116 231.254 434.855 237.712C434.703 238.146 434.514 238.613 434.111 238.833C433.501 239.165 432.765 238.769 432.189 238.382C421.676 231.328 411.53 223.728 401.805 215.624ZM347.445 322.507C340.268 295.249 347.707 266.107 359.616 240.557C362.798 233.73 366.37 226.949 371.583 221.511C376.796 216.072 383.891 212.061 391.427 211.997C401.128 211.915 407.593 201.352 408.441 191.693C409.288 182.035 406.566 172.326 407.425 162.668C407.881 157.536 409.337 152.553 410.355 147.502C411.178 143.414 411.716 139.269 411.963 135.107C412.013 134.255 412.025 133.317 411.489 132.654C410.658 131.627 409.084 131.834 407.763 131.787C406.442 131.74 404.799 130.72 405.297 129.496C420.291 132.174 436.363 128.093 448.259 118.587C449.413 121.954 442.239 123.82 443.295 127.219C446.64 137.987 448.963 149.288 447.828 160.506C446.694 171.724 441.74 182.918 432.747 189.725C431.833 190.417 430.825 191.138 430.48 192.23C430.214 193.072 430.396 193.982 430.58 194.845C431.928 201.18 434.538 208.79 440.933 209.84C446.203 210.705 451.474 211.57 456.745 212.435C452.406 208.579 449.377 203.276 448.259 197.582C447.339 192.893 447.691 188.038 448.507 183.33C450.378 172.536 454.629 162.321 457.747 151.819C460.866 141.316 462.849 130.051 460.082 119.45C457.315 108.85 448.894 99.7172 438 98.5C434.351 98.0923 430.525 98.0676 426.99 99.0603C409.404 103.999 396.809 119.532 388.41 135.744C380.011 151.956 374.543 169.693 364.647 185.039C356.226 198.096 344.896 208.963 334.286 220.315C323.675 231.667 313.501 243.944 308.182 258.54C302.862 273.137 303.136 290.569 312.341 303.087C320.444 314.106 334.048 319.723 347.445 322.507ZM257.909 488.47C248.344 491.112 239.474 496.227 232.399 503.182C228.913 506.609 225.871 510.455 222.84 514.289C205.457 536.279 188.073 558.268 170.689 580.258C169.193 582.151 167.622 584.25 167.644 586.662C167.675 590.01 170.68 592.465 173.405 594.412C175.589 595.972 177.773 597.533 179.956 599.093C180.896 599.764 182.325 600.39 183.061 599.5C212.176 564.267 241.291 529.034 270.406 493.802C271.141 492.912 272.319 491.935 273.299 492.544C274.461 493.267 273.677 495.055 272.805 496.109C243.783 531.186 214.761 566.264 185.739 601.341C184.885 602.373 186.06 603.824 187.133 604.627C190.204 606.926 193.276 609.226 196.347 611.525C196.858 611.907 197.449 612.311 198.079 612.205C198.641 612.111 199.051 611.638 199.41 611.196C228.898 574.902 258.386 538.609 287.874 502.316C281.782 497.938 275.69 493.56 269.598 489.182C266.317 486.824 261.805 487.394 257.909 488.47ZM202.12 615.882C207.848 620.243 213.575 624.603 219.303 628.963C219.718 629.279 220.186 629.612 220.706 629.572C221.32 629.526 221.763 628.988 222.13 628.495C250.21 590.728 278.289 552.961 306.369 515.194C301.563 511.795 296.758 508.397 291.953 504.999C291.582 504.737 291.158 504.462 290.711 504.539C290.304 504.61 290.008 504.952 289.748 505.272C260.443 541.302 231.139 577.333 201.835 613.363C201.51 613.764 201.164 614.23 201.234 614.741C201.301 615.231 201.726 615.582 202.12 615.882ZM366.884 299.132C368.286 294.722 370.347 290.55 372.54 286.475C374.679 282.503 376.952 278.604 379.354 274.786C370.953 268.047 362.378 261.111 356.796 251.903C352.655 263.697 348.763 275.698 347.447 288.128C344.486 316.113 354.758 343.755 366.828 369.18C369.5 374.808 372.324 380.6 372.556 386.826C372.778 392.755 370.622 398.495 369.868 404.379C368.904 411.897 370.296 419.698 373.8 426.419C374.382 427.537 375.099 428.696 376.261 429.186C377.423 429.676 379.09 429.08 379.214 427.826C379.699 422.922 381.653 418.3 382.868 413.525C386.088 400.867 384.034 387.428 380.339 374.901C376.644 362.373 371.342 350.353 367.894 337.755C364.446 325.157 362.924 311.579 366.884 299.132ZM433.829 186.184C436.724 184.186 438.553 180.998 440.03 177.807C443.55 170.197 445.618 161.918 446.09 153.548C446.19 151.765 446.212 149.929 445.6 148.251C444.989 146.573 443.617 145.067 441.854 144.773C440.85 144.605 440.973 142.917 441.888 142.473C442.804 142.03 443.887 142.415 444.828 142.802C444.538 138.059 443.482 133.364 441.715 128.952C441.275 127.853 440.286 126.551 439.201 127.027C431.963 130.207 424.112 131.985 416.209 132.236C414.776 132.282 414.544 134.29 414.639 135.72C415.427 147.607 406.898 159.116 409.464 170.749C412.396 184.04 411.28 198.917 403.12 209.813C402.59 210.521 401.999 211.373 402.27 212.215C402.43 212.71 402.856 213.065 403.261 213.39C412.954 221.158 422.806 228.729 432.808 236.095C434.945 230.402 435.051 224.18 435.132 218.101C435.182 214.314 435.191 210.347 433.431 206.994C432.322 204.881 430.557 203.122 429.737 200.881C429.058 199.023 429.086 196.989 428.678 195.053C428.269 193.118 427.216 191.095 425.332 190.487C422.405 189.542 419.624 188.143 417.12 186.355C416.27 185.748 415.375 184.952 415.357 183.907C415.338 182.863 416.888 182.016 417.452 182.895C420.805 188.124 428.715 189.712 433.829 186.184ZM497.42 282.875C495.902 281.217 496.914 278.602 497.811 276.54C500.546 270.25 501.36 262.527 497.553 256.82C497.228 256.333 496.83 255.836 496.265 255.681C495.809 255.557 495.325 255.678 494.87 255.806C488.655 257.545 482.74 260.35 477.463 264.063C476.683 264.612 475.823 265.549 476.29 266.38C482.625 277.661 488.493 289.204 493.876 300.968C494.93 303.27 495.999 305.631 497.767 307.442C499.535 309.253 502.182 310.43 504.624 309.761C508.216 308.778 509.701 304.597 510.64 300.995C515.104 283.891 519.567 266.786 524.03 249.682C525.782 242.967 527.549 236.211 530.459 229.91C533.37 223.61 537.517 217.725 543.224 213.772C547.642 210.712 550.728 205.796 551.561 200.488C545.513 199.155 538.993 200.08 533.555 203.042C532.264 203.745 530.98 204.615 530.301 205.918C529.681 207.107 529.643 208.5 529.505 209.834C528.44 220.093 520.98 228.319 515.542 237.086C508.697 248.122 504.823 260.701 501.195 273.169C500.222 276.513 499.241 279.907 497.42 282.875ZM397.866 322.447C395.592 304.439 393.305 286.366 388.603 268.834C383.156 277.198 377.684 285.607 373.654 294.736C369.624 303.866 367.065 313.831 367.752 323.786C367.854 325.262 368.118 326.902 369.297 327.796C370.02 328.345 370.96 328.502 371.861 328.616C380.087 329.659 388.584 328.477 396.213 325.229C396.822 324.97 397.472 324.655 397.76 324.059C397.998 323.567 397.935 322.989 397.866 322.447ZM337.434 604.062C334.212 602.094 333.333 596.631 329.563 596.421C325.727 596.206 323.184 592.165 322.631 588.365C322.077 584.565 322.818 580.658 322.2 576.868C322.159 576.619 322.097 576.344 321.888 576.201C321.568 575.981 321.141 576.203 320.82 576.421C314.572 580.685 308.323 584.948 302.075 589.212C309.491 591.93 313.26 599.922 316.882 606.938C320.408 613.769 324.473 620.322 329.025 626.517C329.844 627.631 331.041 628.867 332.37 628.487C336.792 627.223 341.638 627.497 345.89 629.252C345.711 625.895 342.592 622.967 339.229 622.998C338.336 623.007 338.329 621.457 339.134 621.069C339.938 620.681 340.882 621.055 341.714 621.379C342.547 621.702 343.575 621.948 344.264 621.381C344.215 620.402 344.166 619.424 344.117 618.446C341.607 618.324 339.154 617.263 337.347 615.518C338.594 613.062 343.562 617.598 344.724 615.102C343.202 612.954 340.671 611.554 338.042 611.408C337.507 610.343 339.234 609.49 340.366 609.861C341.499 610.231 342.601 611.107 343.745 610.775C345.707 610.206 345.004 607.001 343.215 606.016C341.426 605.031 339.176 605.127 337.434 604.062ZM451.044 625.113C450.733 623.604 448.605 622.848 447.41 623.823C446.719 624.386 446.393 625.33 445.643 625.813C444.894 626.296 443.509 625.587 443.988 624.835C445.429 624.351 446.197 622.624 445.924 621.129C445.65 619.634 444.545 618.401 443.258 617.592C441.213 619.144 438.547 619.853 436 619.522C433.614 619.212 431.716 621.332 429.684 622.621C426.155 624.861 421.199 624.558 417.969 621.906C415.366 619.769 413.916 616.39 411.077 614.579C408.897 620.98 407.473 627.638 406.844 634.371C406.773 635.135 407.074 636.242 407.821 636.065C420.407 633.095 433.487 636.713 446.021 639.895C448.064 640.414 450.787 640.637 451.732 638.754C453.374 635.481 456.333 632.892 459.796 631.697C459.738 630.339 457.719 630.049 456.552 630.748C455.386 631.447 454.526 632.675 453.22 633.055C452.364 632.78 452.644 631.431 453.332 630.852C454.02 630.272 454.988 629.884 455.246 629.022C455.649 627.67 454.02 626.661 452.69 626.189C452.071 628.054 450.029 629.332 448.079 629.075C449.068 627.754 450.056 626.434 451.044 625.113ZM368.54 330.601C368.893 334.902 370.324 339.031 371.743 343.107C375.09 352.722 378.438 362.337 381.785 371.952C383.778 363.915 388.84 357.058 392.998 349.896C397.156 342.734 400.561 334.419 398.759 326.337C389.333 330.494 378.749 331.987 368.54 330.601ZM348.609 651C349.711 651.159 351.229 650.946 351.346 649.84C341.242 645.369 333.722 636.611 327.308 627.618C321.717 619.779 316.683 611.542 312.258 602.99C310.284 599.177 308.279 595.123 304.713 592.729C301.147 590.335 295.482 590.468 293.311 594.173C292.945 594.797 293.354 595.573 293.754 596.175C302.392 609.193 311.075 622.269 321.604 633.812C328.942 641.858 337.828 649.448 348.609 651ZM527.398 203.036C527.576 203.028 527.76 203.017 527.919 202.939C528.37 202.716 528.409 202.1 528.385 201.598C527.95 192.392 527.515 183.187 527.08 173.981C527.044 173.213 526.134 173.406 525.402 173.17C524.67 172.934 523.954 173.028 523.188 173.098C519.982 173.392 516.775 173.687 513.568 173.981C512.637 174.066 512.53 174.436 512.497 175.371C512.199 183.891 511.9 192.412 511.601 200.933C511.581 201.508 511.569 202.115 511.85 202.616C512.421 203.633 513.833 203.704 514.999 203.647C519.132 203.443 523.265 203.24 527.398 203.036ZM473.959 643.216C468.822 641.115 463.025 642.595 457.484 642.925C442.21 643.836 427.328 635.738 412.115 637.38C410.313 637.574 408.357 638.003 407.245 639.433C405.536 641.632 406.896 645.091 409.266 646.556C411.637 648.02 414.59 648.049 417.377 648.034C430.15 647.963 442.922 647.893 455.695 647.822C462.124 647.787 469.185 647.519 473.959 643.216ZM335.823 571.052C335.655 570.955 335.478 570.855 335.285 570.85C334.95 570.84 334.679 571.107 334.452 571.354C332.008 574.012 329.564 576.671 327.121 579.329C326.566 579.933 326.005 580.545 325.623 581.271C325.176 582.122 324.998 583.089 324.894 584.045C324.621 586.547 324.842 589.194 326.116 591.364C327.391 593.535 329.891 595.102 332.383 594.742C335.488 594.293 337.438 591.305 339.604 589.038C342.901 585.588 347.498 583.3 349.856 579.152C345.179 576.452 340.501 573.752 335.823 571.052ZM430.981 618.449C431.463 617.828 431.863 617.128 432.047 616.363C432.352 615.098 432.053 613.779 431.851 612.494C431.232 608.565 431.529 604.557 431.753 600.585C431.812 599.55 431.492 598.114 430.456 598.179C426.126 598.452 421.766 598.239 417.483 597.543C416.88 597.445 416.327 597.996 416.19 598.592C416.054 599.188 416.217 599.806 416.367 600.399C417.558 605.118 417.907 610.047 417.391 614.886C417.306 615.681 417.199 616.489 417.358 617.272C417.623 618.57 418.596 619.626 419.707 620.348C423.216 622.63 428.414 621.755 430.981 618.449ZM550.394 197.964C551.413 198.146 552.622 198.342 553.346 197.603C550.312 196.023 548.064 193.013 547.41 189.657C546.756 186.3 547.71 182.667 549.929 180.065C550.132 179.827 550.353 179.577 550.392 179.268C550.43 178.959 550.171 178.598 549.867 178.666C545.585 179.629 541.189 180.088 536.801 180.033C536.148 180.025 535.447 180.019 534.907 180.386C533.94 181.043 534.008 182.465 534.183 183.621C534.919 188.466 534.655 192.312 535.391 197.157C535.417 197.331 535.445 197.508 535.524 197.665C535.899 198.41 537.001 198.2 537.788 197.921C541.488 196.609 546.53 197.276 550.394 197.964ZM353.651 645.789C353.211 641.384 351.644 637.095 349.14 633.443C348.819 632.975 348.478 632.512 348.04 632.151C347.508 631.71 346.858 631.441 346.208 631.205C342.549 629.877 338.568 629.445 334.709 629.955C333.932 630.058 332.953 630.437 332.997 631.22C333.014 631.525 333.197 631.791 333.376 632.038C338.021 638.458 344.126 643.815 351.096 647.589C351.682 647.906 352.395 648.214 352.984 647.903C353.679 647.536 353.729 646.572 353.651 645.789ZM207.734 643.796C211.612 644.833 216.077 642.093 216.906 638.167C217.735 634.241 214.759 629.932 210.792 629.314C209.219 629.069 207.568 629.348 206.163 630.096C203.654 631.433 202.056 634.314 202.253 637.149C202.465 640.205 204.773 643.004 207.734 643.796ZM478.799 637.642C478.714 636.98 478.576 636.303 478.204 635.749C477.136 634.16 474.82 634.278 472.907 634.365C469.688 634.513 466.442 634.064 463.384 633.047C461.573 632.444 459.648 633.472 458.089 634.574C456.127 635.96 454.219 637.628 453.368 639.874C455.372 640.791 457.693 640.477 459.884 640.239C463.465 639.849 467.074 639.712 470.675 639.828C472.411 639.884 474.185 640.008 475.78 640.692C476.164 640.857 476.548 641.056 476.965 641.074C477.706 641.104 478.369 640.525 478.648 639.837C478.926 639.15 478.893 638.378 478.799 637.642ZM557.14 196.007C558.542 195.621 559.27 194.091 559.649 192.688C560.587 189.221 560.439 185.34 558.602 182.253C557.601 180.573 555.754 179.067 553.853 179.533C552.635 179.831 551.719 180.894 551.276 182.066C550.832 183.238 550.787 184.518 550.773 185.771C550.751 187.707 550.797 189.68 551.405 191.519C552.014 193.357 553.268 195.07 555.063 195.8C555.719 196.067 556.457 196.195 557.14 196.007ZM345.561 599.354C345.57 598.919 345.574 598.464 345.383 598.072C345.008 597.305 344.053 597.058 343.214 596.896C341.451 596.556 339.687 596.216 337.923 595.875C336.642 595.628 334.865 595.677 334.57 596.947C334.412 597.628 334.823 598.302 335.253 598.853C337.167 601.306 339.852 603.15 342.83 604.054C343.683 604.313 344.805 604.404 345.275 603.647C345.482 603.314 345.495 602.901 345.502 602.51C345.522 601.458 345.542 600.406 345.561 599.354ZM441.525 616.713C441.797 616.582 442.075 616.435 442.255 616.193C442.677 615.628 442.401 614.826 442.074 614.201C441.283 612.686 440.264 611.291 439.063 610.075C438.889 609.899 438.684 609.715 438.437 609.719C438.137 609.723 437.92 609.996 437.754 610.246C436.5 612.135 435.509 614.198 434.818 616.357C434.603 617.028 434.49 617.918 435.085 618.296C437.31 618.221 439.519 617.678 441.525 616.713Z" fill="black"/>
<path d="M211.584 164.414C213.808 161.892 215.885 159.449 218.063 157.1C218.467 156.665 219.281 156.61 219.905 156.38C219.686 156.952 219.584 157.613 219.228 158.08C217.53 160.304 215.67 162.411 214.088 164.712C213.704 165.272 213.817 166.766 214.287 167.209C215.664 168.508 217.297 169.557 218.917 170.565C219.41 170.873 220.4 171.031 220.789 170.747C222.254 169.677 223.596 168.428 224.891 167.151C225.033 167.012 224.704 166.112 224.37 165.824C223.072 164.702 221.636 163.739 220.356 162.599C219.93 162.22 219.82 161.486 219.565 160.914C220.181 160.95 220.936 160.771 221.385 161.063C222.759 161.956 224.039 163 225.312 164.038C227.733 166.014 227.671 167.631 225.169 169.657C224.155 170.477 223.123 171.287 222.197 172.201C221.006 173.375 219.844 173.403 218.512 172.476C216.723 171.23 214.828 170.126 213.104 168.798C211.762 167.765 210.685 166.455 211.584 164.414Z" fill="#FFB61D"/>
<path d="M617.498 408.529C615.783 408.311 613.03 405.994 612.681 404.455C611.935 401.17 612.819 398.479 615.475 397.282C616.969 396.609 618.763 396.482 620.437 396.398C620.964 396.372 621.538 397.288 622.091 397.773C621.355 397.971 620.54 398.474 619.899 398.307C618.378 397.91 617.155 398.119 615.925 399.094C614.119 400.526 614.152 403.267 614.922 404.794C615.989 406.907 617.983 406.764 619.809 406.572C621.245 406.42 623.309 404.332 623.045 402.317C622.965 401.708 623.572 401.009 623.864 400.352C624.169 400.996 624.715 401.632 624.74 402.287C624.892 406.282 621.577 409.187 617.498 408.529Z" fill="#FFB61D"/>
<path d="M451.811 371.5C450.811 341 461.381 406.474 461.5 408.5C461.631 410.728 461.37 412.64 461.12 414.469L461.12 414.47L461.12 414.47C460.93 415.86 460.747 417.202 460.747 418.599V440.955C460.747 450.098 460.737 459.195 460.313 468.315C460.226 470.193 460.047 472.063 459.868 473.933L459.868 473.934C459.618 476.548 459.369 479.16 459.369 481.79C459.369 485.516 459.103 489.243 458.45 492.917C457.104 500.489 457.072 507.862 457.072 515.53C457.072 518.352 456.957 521.16 456.842 523.97L456.842 523.97C456.727 526.782 456.612 529.595 456.612 532.425L456.593 566.669C456.519 567.406 456.481 568.17 456.442 568.94C456.35 570.786 456.256 572.66 455.669 574.243C455.656 574.824 455.605 575.399 455.555 575.973L455.555 575.973L455.555 575.973C455.496 576.638 455.438 577.304 455.438 577.979C455.438 578.209 455.446 578.445 455.454 578.684C455.479 579.386 455.504 580.109 455.322 580.764C455.148 581.391 455.009 581.994 454.873 582.581C454.49 584.236 454.137 585.765 453.114 587.362C452.91 587.682 452.713 587.996 452.52 588.303C451.219 590.377 450.099 592.164 448 593.5C443.29 596.497 437.984 595.193 431.5 595.5C386.64 597.627 449.5 579.5 443 507.5C456.442 488 452.3 386.405 451.811 371.5Z" fill="#E7EAEE"/>
</svg>
