<svg width="750" height="750" viewBox="0 0 750 750" fill="none" xmlns="http://www.w3.org/2000/svg">
<rect width="750" height="750" fill="none"/>
<path fill-rule="evenodd" clip-rule="evenodd" d="M410.973 699.948C504.78 692.2 555.901 614.096 563.08 587.76C576.634 538.319 560.858 506.023 547.098 473.239C520.841 409.646 534.162 314.388 563.08 221.359C569.404 201.213 576.498 180.85 579.452 161.636C586.316 117.108 569.307 82.3196 540.487 65.4185C511.666 47.9404 472.254 46.7583 431.685 54.7318C381.963 64.1473 176.668 110 169.862 282.356C167.994 329.674 189.986 363.152 192.876 405.288C199.176 497.109 90.2727 726.438 410.973 699.948Z" />
<path fill-rule="evenodd" clip-rule="evenodd" d="M407.756 117.034C408.303 112.032 415.385 107.33 417.736 111.779C418.427 113.088 418.268 114.664 418.064 116.129C417.135 122.795 415.643 129.382 413.607 135.797C446.652 156.169 457.401 198.341 465.336 236.335C469.107 254.392 472.894 272.584 473.142 291.029C473.278 301.117 471.991 312.063 465.069 319.404C476.108 343.528 487.154 367.671 496.71 392.42C510.375 427.812 521.08 465.836 515.483 503.358C511.915 527.274 501.907 549.678 495.042 572.864C488.587 594.663 484.897 617.28 484.088 640C465.336 668.692 326.276 720.703 288.921 623.864C271.596 578.951 265.685 512.582 288.14 477.56C302.848 454.621 367.491 375.019 367.491 375.019C367.491 375.019 352.72 387.698 345.526 389.5C338.331 391.302 326.653 387.795 326.653 387.795C326.653 387.795 320.281 384.16 318.407 384.16C317.57 384.16 315.726 407.649 307.864 413.925C304.801 416.37 297.753 421.538 292.845 419.39C289.011 417.712 303.627 408.355 300.669 408.691C296.957 409.113 293.042 408.766 288.924 407.649C308.975 400.324 256.758 313.151 257.783 310.087C257.799 322.054 250.299 333.709 239.398 338.654C243.499 329.45 246.087 319.574 247.03 309.541C244.122 313.804 240.565 317.623 236.519 320.826C239.872 296.489 240.144 271.729 237.325 247.325C235.524 231.74 232.469 215.987 234.906 200.489C239.208 173.126 260.162 150.941 283.926 136.702C320.597 114.73 369.517 108.742 405.614 131.645C408.896 127.831 407.209 122.036 407.756 117.034Z" fill="white"/>
<path fill-rule="evenodd" clip-rule="evenodd" d="M368 323.646C373.443 323.646 377.855 318.88 377.855 313C377.855 307.12 373.443 302.354 368 302.354C362.557 302.354 358.145 307.12 358.145 313C358.145 318.88 362.557 323.646 368 323.646ZM299.975 345.817C304.639 345.817 308.421 341.436 308.421 336.032C308.421 330.627 304.639 326.247 299.975 326.247C295.311 326.247 291.529 330.627 291.529 336.032C291.529 341.436 295.311 345.817 299.975 345.817Z" fill="#FFB61D"/>
<path fill-rule="evenodd" clip-rule="evenodd" d="M406.601 116.989C407.144 112.019 414.181 107.347 416.516 111.768C417.203 113.068 417.045 114.635 416.842 116.091C415.92 122.715 414.437 129.26 412.415 135.635C445.245 155.879 455.925 197.787 463.808 235.543C467.555 253.486 471.318 271.564 471.564 289.893C471.699 299.918 470.42 310.795 463.543 318.091C474.51 342.064 485.485 366.055 494.979 390.649C508.556 425.819 519.192 463.604 513.63 500.892C511.252 516.84 505.991 532.112 500.727 547.397C498.147 554.888 495.565 562.383 493.322 569.961C486.909 591.624 483.242 614.098 482.439 636.676C466.029 613.542 465.789 580.132 481.865 556.765C469.598 579.187 468.726 607.479 479.589 630.614C476.635 603.583 485.747 577.755 494.927 551.736C501.584 532.865 508.278 513.893 510.428 494.289C513.678 464.674 506.385 434.903 496.843 406.68C488.163 381.005 477.592 356.018 467.031 331.059C464.812 325.813 462.388 320.304 457.78 316.955C454.051 314.245 452.011 309.834 450.263 305.568C445.72 294.483 442.093 283.058 438.467 271.632C434.929 260.487 431.392 249.342 427.003 238.512C418.116 216.579 405.008 195.292 384.863 182.873C369.064 173.135 350.094 169.614 331.535 169.478C305.814 169.291 278.584 176.185 261.079 195.032C248.359 208.727 242.038 227.516 240.952 246.175C240.433 255.093 241.02 264.083 241.607 273.053C242.503 286.77 243.397 300.443 240.326 313.753C250.309 302.719 252.84 292.664 255.476 282.192C256.094 279.738 256.717 277.261 257.444 274.744C254.045 294.712 249.757 314.251 243.13 333.389C249.599 326.335 254.564 317.909 257.599 308.832C257.615 320.725 250.163 332.306 239.333 337.22C243.407 328.073 245.979 318.259 246.915 308.29C244.026 312.526 240.492 316.321 236.472 319.504C239.804 295.32 240.074 270.715 237.273 246.464C236.943 243.61 236.571 240.751 236.199 237.888C234.551 225.216 232.895 212.485 234.87 199.921C239.144 172.73 259.963 150.684 283.573 136.535C320.007 114.701 368.609 108.75 404.473 131.509C406.722 128.895 406.623 125.345 406.523 121.763C406.478 120.151 406.432 118.532 406.601 116.989ZM285.171 140.411C275.222 146.302 265.663 153.057 257.861 161.591C240.536 180.54 233.159 208.117 238.711 233.185C244.554 212.267 256.19 192.087 274.656 180.655C281.134 176.645 288.284 173.805 295.602 171.687C324.338 163.37 356.194 166.394 382.852 179.97C391.252 184.247 399.196 189.572 405.73 196.367C418.231 209.368 424.796 226.807 431.042 243.727L456.89 313.742C457.657 315.819 460.671 316.229 462.533 315.029C464.394 313.83 465.327 311.635 466.023 309.533C472.339 290.464 467.633 270.058 463.059 250.222L463.059 250.222L463.058 250.22C462.378 247.272 461.701 244.336 461.063 241.419C460.008 236.587 459.057 231.718 458.106 226.848L458.106 226.847C455.099 211.446 452.088 196.028 445.738 181.738C436.573 161.117 420.486 143.645 400.689 132.814C380.893 121.983 357.504 117.856 335.196 121.257C317.435 123.966 300.63 131.257 285.171 140.411ZM414.931 114.325C415.166 112.679 413.111 111.396 411.529 111.903C409.946 112.41 408.996 114.082 408.728 115.722C408.543 116.854 408.61 118.002 408.676 119.151V119.151V119.151V119.152V119.152V119.152V119.153V119.153C408.706 119.669 408.736 120.184 408.743 120.699C408.791 124.168 407.806 127.559 406.83 130.888C406.474 132.105 407.879 133.048 409.049 133.538C409.523 133.737 410.12 133.919 410.507 133.58C410.7 133.41 410.783 133.15 410.857 132.904C412.671 126.823 414.034 120.607 414.931 114.325ZM356.758 211.215L325.191 238.814C324.25 237.759 325.369 236.167 326.425 235.228L351.686 212.773C361.485 204.061 371.787 194.542 374.889 181.802C375.159 180.692 376.247 179.248 377.066 180.046C377.431 180.402 377.374 180.994 377.281 181.495C376.367 186.397 374.499 191.119 371.81 195.319C367.862 201.486 362.272 206.395 356.758 211.215ZM275.311 257.783C267.364 264.536 260.746 273.313 258.426 283.481C256.504 291.909 257.626 300.738 259.501 309.177C261.484 318.096 264.3 326.83 267.9 335.228C270.807 342.007 274.234 348.601 277.656 355.188L277.656 355.188C284.436 368.233 291.2 381.249 293.875 395.609C294.303 397.905 294.612 400.332 293.823 402.53C293.034 404.728 290.812 406.58 288.511 406.182C289.623 408.131 292.712 408.035 294.355 406.506C295.997 404.977 296.51 402.603 296.745 400.372C297.788 390.446 294.961 380.469 290.823 371.387C288.296 365.84 285.282 360.539 282.268 355.236L282.268 355.236L282.268 355.235L282.268 355.235L282.268 355.235L282.267 355.235L282.267 355.235L282.267 355.235L282.267 355.234L282.267 355.234L282.267 355.234L282.267 355.234L282.267 355.234L282.267 355.233L282.266 355.233L282.266 355.233L282.266 355.233L282.266 355.233L282.266 355.233L282.266 355.232L282.266 355.232L282.266 355.232L282.266 355.232C280.346 351.855 278.426 348.477 276.631 345.035C271.814 335.797 267.898 326.089 264.958 316.094C261.198 303.31 259.137 289.136 264.558 276.963C268.714 267.632 276.771 260.638 285.129 254.768C294.485 248.198 304.538 242.621 315.064 238.162C309.965 246.371 305.535 254.997 301.834 263.924C301.476 264.787 301.147 265.849 301.717 266.589C302.486 267.587 304.063 267.076 305.174 266.481C336.698 249.601 368.447 232.573 396.121 209.927C395.634 232.816 387.372 254.734 379.217 276.126C376.823 282.408 372.605 297.06 373.786 296.575C374.968 296.09 375.549 294.782 376.014 293.593C378.048 288.389 380.023 283.163 381.998 277.937C390.709 254.885 399.567 230.821 397.214 206.291C368.126 225.803 338.031 243.814 307.088 260.228L318.9 237.134C319.54 235.883 320.076 234.111 318.943 233.278C318.04 232.612 316.775 233.128 315.785 233.657L301.739 241.154C292.538 246.065 283.258 251.029 275.311 257.783ZM347.785 381.876C352.859 379.68 357.698 376.828 361.71 373.023C365.57 369.362 368.577 364.913 371.551 360.502C381.337 345.989 391.237 331.25 396.799 314.654C399.574 306.377 401.221 297.767 402.619 289.15C405.917 268.829 407.871 248.125 405.698 227.653C405.213 243.998 401.119 260.226 393.794 274.845C391.747 278.929 389.455 282.884 387.164 286.838C384.655 291.167 382.146 295.496 379.96 299.993C375.776 308.6 372.763 318.102 373.648 327.63C370.871 319.964 372.241 311.336 375.28 303.77C377.409 298.47 380.305 293.538 383.201 288.605C384.44 286.496 385.679 284.386 386.858 282.247C392.621 271.793 396.982 260.567 399.788 248.965C401.105 243.52 402.08 237.998 403.054 232.481C404.251 225.701 405.426 218.575 403.21 212.056C402.836 210.957 404.522 210.103 405.52 210.696C406.519 211.289 406.858 212.549 407.094 213.686C411.926 236.959 410.044 261.11 406.432 284.603C404.579 296.647 402.258 308.694 397.948 320.092C392.536 334.402 384.12 347.354 375.596 360.059C371.97 365.464 368.274 370.893 363.569 375.39C358.38 380.351 352.02 384.077 345.156 386.179C340.476 387.612 335.476 388.293 330.668 387.381C320 385.359 312.372 376.163 306.022 367.356C298.737 357.252 291.87 346.847 285.444 336.177C275.668 319.944 266.76 302.626 264.4 283.824C264.281 282.88 265.356 285.817 266.632 289.305L266.632 289.306C267.436 291.503 268.32 293.919 269.037 295.722C279.533 322.137 294.228 346.795 311.612 369.284C316.946 376.185 323.308 383.352 331.919 384.743C337.298 385.612 342.785 384.041 347.785 381.876ZM346.355 263.69C348.63 263.327 350.723 265.008 352.14 266.825C356.384 272.266 357.438 280.022 354.802 286.398C354.224 287.796 353.422 289.192 352.114 289.953C350.239 291.044 347.734 290.504 346.054 289.13C344.375 287.757 343.388 285.713 342.697 283.656C341.231 279.291 340.881 274.557 341.689 270.024C342.18 267.264 343.586 264.133 346.355 263.69ZM311.484 446.761C303.259 456.105 295.019 465.466 288.583 476.095C277.421 494.531 272.142 516.47 273.695 537.966C274.169 544.522 275.34 551.247 278.919 556.761C270.782 523.922 279.685 487.34 302.001 461.911C325.456 435.186 347.636 407.342 368.44 378.504C367.588 377.049 365.393 378.385 364.38 379.734C362.19 382.649 360.006 385.568 357.822 388.488C344.609 406.149 331.39 423.818 316.966 440.497C315.154 442.591 313.322 444.673 311.489 446.755L311.488 446.757L311.484 446.761ZM467.631 558.864C460.903 573.812 454.209 588.688 453.181 604.894L461.126 578.754C461.212 588.404 461.305 598.116 463.113 607.595C464.922 617.074 468.562 626.408 474.977 633.617C469.262 621.622 464.695 608.917 463.339 595.699C461.984 582.481 464.018 568.664 470.758 557.214C481.694 538.636 485.975 516.744 486.377 495.189C486.779 473.635 483.495 452.202 480.22 430.894C479.858 428.537 479.463 426.094 478.128 424.118C477.07 425.335 477.147 427.138 477.294 428.744C477.978 436.203 478.905 443.698 479.834 451.204L479.834 451.204L479.834 451.204L479.834 451.205L479.834 451.205L479.834 451.205L479.834 451.205L479.834 451.206L479.834 451.206L479.834 451.206L479.834 451.206L479.834 451.207L479.834 451.207L479.834 451.207L479.834 451.208L479.834 451.208L479.834 451.208L479.834 451.208L479.834 451.209L479.834 451.209L479.834 451.209L479.834 451.21L479.835 451.21L479.835 451.21L479.835 451.21L479.835 451.211L479.835 451.211L479.835 451.211L479.835 451.211L479.835 451.212L479.835 451.212C483.029 477.036 486.238 502.972 479.614 527.876C476.78 538.531 472.198 548.714 467.631 558.864ZM444.417 659.967C436.031 639.027 435.437 615.905 434.954 593.354C434.918 591.637 434.918 589.79 435.9 588.382C436.083 588.12 436.317 587.866 436.627 587.787C437.544 587.554 438.022 588.839 438.072 589.784C438.343 594.965 438.472 600.183 438.601 605.404V605.404V605.405V605.405V605.406V605.406V605.406V605.407V605.407V605.407V605.408V605.408V605.408V605.409V605.409V605.41V605.41V605.41V605.411V605.411V605.411V605.412V605.412V605.412V605.413V605.413V605.414V605.414V605.414V605.415C439.033 622.941 439.465 640.515 445.296 656.924C445.717 658.11 445.674 660.031 444.417 659.967ZM279.358 576.177C276.887 580.227 274.454 585.046 276.051 589.512C277.324 581.76 282.289 575.224 287.053 568.952L287.443 568.439C301.4 550.054 314.412 529.835 317.633 506.979C317.754 506.118 317.817 505.116 317.195 504.509C316.434 503.765 315.064 504.139 314.406 504.974C313.759 505.795 313.606 506.886 313.461 507.923L313.453 507.978C311.672 520.669 306.352 532.617 299.95 543.718C296.309 550.033 292.306 556.127 288.303 562.222L288.303 562.222C285.269 566.841 282.235 571.461 279.358 576.177ZM401.082 564.149C400.823 595.585 397.47 626.995 391.086 657.778C393.129 655.423 393.985 652.29 394.725 649.261C402.274 618.34 403.853 586.307 404.922 554.495C404.973 552.959 404.946 551.222 403.829 550.167C402.302 550.214 401.653 552.112 401.486 553.631C401.135 556.812 401.112 560.018 401.089 563.22V563.22C401.086 563.53 401.084 563.839 401.082 564.149ZM269.33 487.983C269.372 489.507 269.388 491.233 268.294 492.294C265.736 474.389 270.906 455.512 282.231 441.409C290.857 430.666 302.424 423.036 314.015 415.389C324.17 408.69 334.343 401.979 342.575 393.152C343.235 392.444 344.531 393.316 344.522 394.284C344.513 395.252 343.757 396.03 343.046 396.687C332.987 405.976 321.482 413.528 310.033 421.043L309.226 421.572C303.597 425.268 297.953 428.992 292.919 433.466C277.641 447.046 268.77 467.549 269.33 487.983ZM279.652 642.774L279.636 642.737C275.12 632.289 274.486 620.458 276.258 609.214C278.03 597.971 282.099 587.218 286.71 576.812C287.439 575.166 288.116 573.05 286.883 571.739C285.621 573.116 284.801 574.83 284.023 576.527C278.83 587.845 274.612 599.765 273.382 612.156C272.152 624.547 274.083 637.503 280.481 648.186C281.248 646.466 280.4 644.505 279.652 642.774ZM286.527 284.421C287.969 283.948 289.6 284.426 290.797 285.359C291.994 286.292 292.814 287.625 293.464 288.996C295.408 293.099 296.014 297.867 294.905 302.269C294.314 304.615 292.948 307.097 290.592 307.643C288.916 308.032 287.122 307.291 285.903 306.077C284.684 304.863 283.961 303.237 283.447 301.595C282.239 297.732 282.058 293.554 282.927 289.601C283.4 287.449 284.432 285.106 286.527 284.421ZM420.139 304.699C416.512 321.697 409.499 337.965 399.63 352.272C398.858 353.391 398.046 354.849 398.747 356.014C411.273 339.882 419.832 320.693 423.465 300.596C421.536 300.395 420.544 302.802 420.139 304.699ZM308.705 584.183C307.08 590.576 305.447 597.022 305.138 603.611C304.572 615.686 308.498 627.574 313.866 638.404C317.197 645.124 321.616 652.011 328.64 654.641C325.026 652.322 323.265 647.862 323.052 643.573C322.86 639.694 323.738 635.862 324.608 632.066L324.609 632.06L324.612 632.049C324.702 631.654 324.793 631.259 324.882 630.865C330.413 606.389 331.058 581.109 331.679 556.023C331.763 552.666 336.285 551.73 339.642 551.783C366.575 552.211 393.548 550.105 420.088 545.503C417.246 565.073 418.454 585.223 423.613 604.314C423.948 605.553 424.363 606.881 425.401 607.634C426.44 608.387 428.275 608.089 428.545 606.835C430.806 596.32 434.425 586.097 439.282 576.501C444.887 584.621 448.549 594.073 449.876 603.849C451.059 612.568 450.407 621.419 449.753 630.193C452.447 617.487 454.689 603.862 449.792 591.832C448.878 589.586 447.73 587.445 446.583 585.305C445.28 582.875 443.978 580.446 443.018 577.866C441.539 573.885 441.006 569.232 442.564 565.393C443.006 564.593 443.452 563.795 443.902 563C443.348 563.748 442.906 564.551 442.564 565.393C436.204 576.898 430.662 588.856 425.997 601.147C422.632 582.545 419.314 563.046 425.077 545.042C425.175 544.737 425.275 544.43 425.376 544.121C426.32 541.234 427.304 538.226 426.503 535.333C420.028 511.967 419.271 487.039 424.316 463.323C424.514 462.394 423.146 461.789 422.325 462.266C421.504 462.742 421.183 463.748 420.943 464.666C415.168 486.805 418.009 510.267 422.738 532.652C423.266 535.149 423.765 537.952 422.374 540.091C420.888 542.374 417.863 542.972 415.165 543.355C387.674 547.253 359.976 549.689 332.227 550.649C332.933 531.349 335.958 512.135 341.215 493.551C344.881 480.592 349.771 467.689 358.258 457.233C366.746 446.776 379.338 438.996 392.805 438.94C406.966 438.882 420.059 447.287 429.224 458.083C431.386 456.421 429.344 453.038 427.27 451.266C419.397 444.54 410.529 438.414 400.356 436.481C386.115 433.776 371.184 439.936 360.755 450.005C350.327 460.073 343.877 473.604 339.472 487.414C330.588 515.266 329.318 544.573 328.044 573.939C327 598.03 325.954 622.161 320.701 645.562C316.806 639.071 314.08 631.938 311.943 624.676C310.16 618.62 308.766 612.391 308.716 606.078C308.648 597.484 311.054 589.112 313.455 580.76C316.159 571.352 318.855 561.971 317.999 552.329C316.522 553.599 315.968 555.61 315.488 557.498L308.705 584.183ZM330.11 210.154L318.564 218.016C314.633 220.692 310.7 223.371 306.914 226.249C300.921 230.805 295.318 235.847 289.722 240.883C289.226 240.952 288.849 240.354 288.937 239.86C289.024 239.367 289.405 238.985 289.768 238.639C301.211 227.731 313.833 218.06 327.343 209.849C328.301 209.267 330.022 209.036 330.11 210.154ZM338.569 261.886C348.289 256.735 359.869 255.192 370.599 257.618C370.287 255.88 368.256 255.129 366.536 254.731C361.492 253.567 356.316 252.687 351.156 253.092C345.996 253.497 340.807 255.289 337.073 258.873C336.584 259.342 336.106 259.868 335.931 260.523C335.755 261.177 335.983 261.985 336.599 262.268C337.23 262.557 337.955 262.211 338.569 261.886ZM344.493 338.295L344.539 338.243C345.616 337.018 346.932 335.522 348.428 336.063C349.589 336.483 349.988 338.038 349.555 339.193C349.121 340.349 348.11 341.177 347.114 341.905C339.049 347.807 329.048 351.013 319.056 350.902C318.596 350.896 318.09 350.865 317.762 350.544C317.434 350.222 317.513 349.517 317.968 349.456C325.453 348.459 332.74 345.999 339.298 342.255C341.151 341.198 342.971 340.018 344.384 338.419L344.493 338.295ZM422.577 384.604C420.33 395.445 416.991 406.059 412.625 416.232C412.18 417.269 411.891 418.787 412.918 419.253C418.236 408.322 422.24 396.752 424.815 384.873C424.98 384.111 425.002 383.079 424.269 382.814C423.387 382.496 422.767 383.686 422.577 384.604ZM271.889 291.842C271.309 290.117 272.476 288.324 273.674 286.955C277.953 282.066 283.501 278.298 289.622 276.123C290.619 275.768 291.68 275.452 292.722 275.635C293.764 275.818 294.764 276.656 294.781 277.714C294.805 279.242 293.023 280.053 291.552 280.467C285.178 282.26 278.372 284.231 274.112 289.299C273.908 289.542 273.71 289.791 273.513 290.04L273.513 290.04C273.008 290.677 272.504 291.314 271.889 291.842ZM296.792 187.482C297.689 186.948 298.663 186.353 299.014 185.369C297.971 184.765 296.669 185.4 295.649 186.042C289.44 189.95 283.636 194.502 278.361 199.602C277.939 200.01 277.505 200.446 277.33 201.007C277.156 201.568 277.339 202.287 277.88 202.518C283.468 196.684 289.849 191.611 296.792 187.482ZM294.687 416.538C301.397 413.019 303.711 404.602 304.39 397.056C305.239 387.618 304.596 378.048 302.492 368.809C302.37 368.272 302.248 367.685 302.487 367.189C302.727 366.693 303.505 366.45 303.831 366.895C303.924 367.021 303.963 367.178 304 367.331C306.402 377.237 307.15 387.542 306.204 397.691C305.782 402.215 304.998 406.793 302.911 410.829C300.825 414.865 297.263 418.328 292.845 419.39C292.042 418.363 293.532 417.144 294.687 416.538ZM281.717 635.659C283.278 640.263 285.727 644.67 289.403 647.852C290.286 647.104 289.427 645.721 288.663 644.853C285.337 641.075 283.988 635.975 283.115 631.018C282.387 626.881 281.918 622.699 281.71 618.504C281.654 617.36 279.798 617.191 279.095 618.096C278.392 619 278.528 620.277 278.699 621.41C279.425 626.217 280.157 631.054 281.717 635.659ZM321.087 292.748C322.069 292.261 322.827 293.729 322.94 294.82C324.064 305.627 323.397 316.62 320.974 327.212C320.738 328.244 322.44 328.493 323.344 327.942C323.436 327.886 323.531 327.827 323.626 327.767C324.473 327.237 325.452 326.624 326.216 327.191C327.213 327.931 326.326 329.508 325.345 330.271C323.734 331.523 321.523 332.491 319.699 331.577C318.319 330.885 317.599 329.276 317.52 327.735C317.447 326.293 317.835 324.876 318.218 323.48L318.297 323.192C320.99 313.31 321.938 302.955 321.087 292.748ZM386.856 386.663C386.286 387.539 385.768 388.83 386.569 389.5L402.891 367.393C403.129 367.071 403.38 366.69 403.283 366.301C403.16 365.808 402.509 365.613 402.032 365.79C401.555 365.966 401.22 366.388 400.91 366.791C395.974 373.233 391.285 379.863 386.856 386.663ZM398.883 387.343C399.79 385.594 400.72 383.803 400.867 381.846C399.775 381.379 398.773 382.645 398.263 383.718C395.553 389.415 393.193 395.279 391.202 401.266C390.742 402.649 390.328 404.265 391.129 405.483C391.886 404.989 392.185 404.045 392.445 403.179C394.043 397.839 396.139 392.649 398.698 387.698C398.744 387.609 398.791 387.52 398.837 387.431L398.87 387.366L398.883 387.343ZM425.958 444.895C425.905 445.302 425.839 445.738 425.557 446.037C425.274 446.335 424.697 446.379 424.5 446.019C424.817 440.368 425.371 434.73 426.158 429.126C426.332 427.889 426.767 426.379 427.996 426.157C428.296 426.89 428.198 427.718 428.096 428.503L425.958 444.895ZM294.257 658.943C294.615 659.313 295.31 659.646 295.544 659.188C295.164 657.511 294.038 656.117 292.945 654.789L286.219 646.616C285.996 646.345 285.744 646.056 285.399 645.992C284.795 645.878 284.285 646.563 284.33 647.176C284.375 647.789 284.782 648.307 285.173 648.78C288.069 652.283 291.1 655.674 294.257 658.943ZM306.532 411.125C309.178 407.959 310.28 403.819 311.309 399.824L314.423 387.733C314.513 387.382 314.629 386.996 314.942 386.814C315.404 386.543 316.027 386.922 316.208 387.426C316.39 387.929 316.265 388.486 316.136 389.006C314.751 394.621 313.203 400.197 311.497 405.724C310.524 408.874 309.281 412.288 306.418 413.925C305.834 413.89 305.497 413.175 305.617 412.602C305.727 412.08 306.084 411.656 306.431 411.245C306.465 411.205 306.499 411.165 306.532 411.125ZM323.59 173.59C317.991 176.444 312.598 179.702 307.466 183.331C306.619 183.93 305.688 184.717 305.74 185.753C306.518 185.973 307.298 185.47 307.956 185C314.681 180.191 321.925 176.108 329.52 172.845C329.913 172.676 329.838 172.033 329.48 171.8C329.121 171.568 328.652 171.629 328.236 171.723C326.604 172.093 325.081 172.831 323.59 173.59ZM266.103 259.523L272.024 250.594C272.591 249.74 273.189 248.855 274.075 248.338C274.45 248.118 275.001 248.007 275.264 248.353C275.529 248.701 275.276 249.192 275.024 249.55L266.242 262.045C265.743 261.964 265.449 261.394 265.493 260.891C265.537 260.388 265.824 259.944 266.103 259.523ZM443.511 497.228C441.594 503.448 439 509.433 436.411 515.404L430.053 530.069C439.716 517.558 444.726 502.08 448.053 486.626C449.339 480.649 450.401 474.622 451.463 468.597C453.147 459.044 454.83 449.494 457.406 440.148C458.132 437.514 458.928 434.899 459.725 432.284C461.074 427.851 462.424 423.419 463.43 418.898C465.196 410.965 465.888 402.836 466.464 394.729C467.189 384.528 467.738 374.314 468.111 364.094C468.561 351.74 468.703 339.047 464.493 327.423C464.117 326.385 463.384 325.158 462.292 325.32C460.856 325.534 460.939 327.625 461.369 329.013C465.044 340.871 464.761 353.546 464.346 365.954C464.108 373.057 463.838 380.16 463.536 387.261C463.069 398.214 462.518 409.229 460.087 419.918C459.058 424.444 457.698 428.882 456.337 433.322C455.161 437.163 453.983 441.005 453.02 444.904C451.114 452.624 450.055 460.527 448.998 468.425C447.695 478.151 446.394 487.87 443.511 497.228Z" fill="#00160A"/>
<path fill-rule="evenodd" clip-rule="evenodd" d="M610.034 154L655.432 171.695L657.897 164.842C662.1 162.07 665.165 164.998 668.418 166.506C668.896 166.728 669.091 168.068 669.004 168.844C668.783 169.801 668.446 170.728 668 171.604C666.581 175.318 667.204 176.737 670.755 177.534L671.612 177.712C675.251 178.477 675.625 179.229 674.298 183.086C671.976 189.835 669.466 196.519 667.143 203.267C666.19 206.037 665.531 208.905 664.707 211.719C664.446 212.612 664.084 213.476 663.896 214L598 191.941L610.034 154ZM611.938 157.943L609.545 165.571C609.14 166.857 608.732 168.147 608.321 169.436C606.326 175.691 604.248 181.922 602.382 188.216C602.14 189.031 602.682 190.744 603.32 191.029C605.59 191.922 607.916 192.671 610.282 193.269C614.331 194.488 618.417 195.596 622.423 196.941C626.806 198.412 631.104 200.129 635.458 201.687C643.942 204.725 652.44 207.726 661.19 210.833L661.939 208.736C663.059 205.583 663.987 202.907 665.008 200.266C667.115 194.823 669.44 189.459 671.395 183.964C672.083 182.031 671.75 180.191 668.987 179.419C664.816 178.253 660.748 176.686 656.702 175.119C645.118 170.632 633.578 166.033 621.999 161.534C618.571 160.203 615.071 159.056 611.938 157.943ZM650.194 178.26C654.174 182.152 654.812 187.966 652.556 193.745C650.716 198.457 646.486 197.703 643.003 197.969C640.055 198.195 637.009 197.158 634.006 196.68C626.027 193.235 622.453 185.827 626.004 178.519C627.02 176.429 629.561 174.634 631.821 173.666C637.339 171.303 644.958 173.14 650.194 178.26ZM628.73 180.285C627.893 181.562 627.012 183.459 627.367 184.741C628.569 189.084 630.934 192.694 635.815 194.371C639.538 194.49 643.272 194.812 646.978 194.617C648.247 194.551 650.223 193.409 650.517 192.376C651.204 190.079 651.345 187.656 650.931 185.296C649.908 180.336 645.932 177.93 641.54 176.255C636.844 174.562 631.589 176.215 628.73 180.285ZM641.668 178.171C645.631 179.641 648.291 185.433 646.885 188.452C646.393 189.51 645.454 190.298 644.321 190.601C641.514 190.898 638.678 190.76 635.914 190.191C633.968 189.691 632.331 188.387 631.418 186.607C630.505 184.828 630.404 182.746 631.14 180.888C631.69 179.506 633.754 178.139 635.318 177.871C637.636 177.474 640.124 178.063 641.668 178.171ZM638.026 180.653L637.671 180.712C635.833 181.032 633.971 181.582 633.818 183.841C633.647 186.357 635.628 187.23 637.695 187.745C638.666 188.045 639.683 188.174 640.699 188.125L641.38 188.043C642.519 187.894 643.861 187.638 644.077 187.066C644.401 185.735 644.192 184.331 643.494 183.15C642.914 182.114 641.563 181.505 640.659 180.792C639.788 180.658 638.906 180.611 638.026 180.653ZM665.008 169.776C664.086 167.683 660.278 166.506 660.278 166.506L658.855 171.861L663.341 173.454C663.341 173.454 665.617 171.157 665.008 169.776ZM618.166 162.719C620.138 163.893 622.219 164.877 624.38 165.655C626.499 166.504 627.493 168.551 626.35 171.13C625.968 171.992 624.419 172.343 623.871 172.658L622.204 172.071C619.725 171.206 617.749 170.54 615.812 169.776C614.58 169.382 613.603 168.441 613.168 167.229C612.734 166.018 612.892 164.675 613.595 163.596C614.734 161.552 616.228 161.463 618.166 162.719Z" fill="#FFB61D"/>
</svg>
