<svg width="750" height="750" viewBox="0 0 750 750" fill="none" xmlns="http://www.w3.org/2000/svg">
<rect width="750" height="750" fill="none"/>
<path fill-rule="evenodd" clip-rule="evenodd" d="M285.865 668.641C336.857 685.785 392.832 681.562 445.128 668.932C518.4 651.236 590.193 615.245 634.642 554.408C649.737 533.747 661.697 509.254 660.402 483.706C658.802 452.157 637.302 423.134 640.425 391.7C642.898 366.814 660.396 345.89 666.157 321.554C674.737 285.313 652.497 244.403 617.403 231.87C596.155 224.281 572.882 226.404 550.318 226.593C507.605 226.952 464.839 219.946 424.476 205.979C401.295 197.958 378.966 187.687 356.138 178.712C274.059 146.442 180.113 131.612 98.2852 164.512C64.0823 178.264 31.1528 202.769 21.1294 238.221C11.7091 271.54 24.6669 307.687 45.1716 335.596C65.6764 363.506 93.1802 385.331 117.97 409.52C142.76 433.71 165.755 461.933 173.204 495.747C177.624 515.811 176.301 536.749 180.075 556.945C189.949 609.793 234.872 651.497 285.865 668.641Z" />
<path d="M335.348 188.424C337.268 189.546 338.619 191.476 339.423 193.55C341.691 199.401 339.864 206.087 336.873 211.604C333.882 217.122 329.773 221.994 327.026 227.637C324.537 232.746 323.224 238.424 323.215 244.107C323.214 244.885 322.161 245.293 321.451 244.974C320.742 244.655 320.334 243.916 319.987 243.219C312.752 228.688 311.089 210.613 318.979 196.427C320.628 193.462 322.74 190.637 325.657 188.903C328.573 187.169 332.418 186.711 335.348 188.424Z" fill="white"/>
<path d="M269.196 233.376C271.629 234.163 273.664 235.861 275.423 237.717C284.034 246.798 287.045 259.675 289.722 271.9C289.889 272.664 289.253 273.887 288.756 273.282C283.989 267.471 277.126 263.868 271.141 259.32C265.157 254.772 259.63 248.384 259.653 240.868C259.66 238.571 260.282 236.141 261.977 234.592C263.864 232.866 266.763 232.589 269.196 233.376Z" fill="white"/>
<path fill-rule="evenodd" clip-rule="evenodd" d="M279.123 176.371C275.633 189.689 282.028 203.398 288.352 215.627C288.972 216.824 289.992 218.222 291.305 217.922C290.766 209.888 292.773 201.907 293.075 193.861C293.378 185.815 291.505 176.938 285.121 172.031C283.957 171.136 282.176 171.506 281.096 172.501C280.017 173.497 279.495 174.951 279.123 176.371L279.123 176.371Z" fill="white"/>
<path fill-rule="evenodd" clip-rule="evenodd" d="M285.857 562.625C288.79 566.318 288.872 571.588 287.628 576.138C286.049 581.917 282.462 587.084 277.726 590.742C276.544 591.655 301.353 608.195 280.602 609.133C259.851 610.072 271 594.63 269.42 595.134C266.474 596.075 263.088 596.703 261.293 599.223C259.498 601.742 261.726 606.495 264.561 605.258C266.436 604.441 268.152 607.344 267.16 609.133C266.169 610.923 263.922 611.53 261.9 611.839C257.333 612.536 252.436 612.526 248.369 610.337C244.301 608.148 241.416 603.27 242.736 598.843C243.426 596.531 241.151 594.202 238.763 593.858C236.375 593.513 234.025 594.517 231.792 595.43C204.607 606.555 173.227 607.039 145.712 596.758C118.196 586.478 94.8223 565.536 81.5923 539.311C78.3517 532.887 75.6441 526.081 71.0721 520.525C64.2248 512.205 53.304 507.409 42.5444 507.996C38.8888 508.196 36.9294 503.09 38.6062 499.835C40.2831 496.581 43.9371 494.945 47.3348 493.582C60.98 488.106 75.0429 483.121 89.6967 481.921C122.817 479.207 156.438 497.743 172.861 526.632C180.095 539.357 184.242 553.774 192.556 565.822C200.87 577.869 215.457 587.531 229.611 583.799C230.865 583.468 230.988 581.77 230.94 580.474C230.519 569.047 238.441 557.819 249.348 554.384C248.431 555.262 251.883 553.716 257.491 551.043C259.7 549.989 236.622 543.755 217.162 533.252C196.954 522.346 202.447 501.862 211.713 485.995C213.573 482.81 172.249 454.77 179.994 447.838C190.998 437.989 224.311 468.745 226.675 466.466C228.024 465.165 229.059 462.798 229.611 462.558C234.506 460.434 238.379 455.679 242.736 454.117C245.827 453.009 249.532 454.96 252.364 454.117C255.63 453.145 230.079 431.96 237.631 425.336C245.183 418.713 268.037 450.472 270.934 450.141C336.201 442.685 305.332 529.106 306.535 530.374C310.59 534.648 280.262 555.581 285.857 562.625Z" fill="white"/>
<path fill-rule="evenodd" clip-rule="evenodd" d="M265.249 517.494C269.115 517.221 271.074 513.866 269.625 510C268.175 506.134 263.866 503.221 260 503.494C256.134 503.766 254.175 507.121 255.625 510.987C257.074 514.853 261.383 517.766 265.249 517.494Z" fill="#FFB61D"/>
<path fill-rule="evenodd" clip-rule="evenodd" d="M310.533 490.499C313.376 490.304 314.817 487.914 313.751 485.16C312.685 482.405 309.516 480.33 306.672 480.524C303.829 480.718 302.388 483.108 303.454 485.863C304.52 488.617 307.69 490.693 310.533 490.499Z" fill="#FFB61D"/>
<ellipse cx="336.433" cy="521.129" rx="43.2674" ry="42.8613" fill="white"/>
<path d="M478.814 540.509C474.221 543.087 467.524 545.727 464.556 541.378C463.172 539.35 463.455 536.661 463.793 534.23C466.684 513.477 472.574 489.725 475.465 468.973C481.351 455.141 501.55 380.088 509.889 375C510.764 374.467 506.557 367.944 506.12 356.439C506.019 353.767 470.042 338.458 460.969 321.267C457.114 313.965 451.079 291.311 453.504 282.114C456.703 269.986 469.416 271.974 469.712 271.375C470.327 270.129 504.63 272.124 515.435 287.897C524.157 300.629 517.21 329.622 517.402 329.571C519.963 328.889 520.138 372.035 522.687 372.514C553.785 378.369 582.888 463.849 584.119 463.218C591.925 472.509 599.732 481.801 607.538 491.092C612.479 496.973 617.725 504.715 614.539 511.703C612.893 515.315 609.328 517.642 605.775 519.412C574.297 535.094 532.784 524.11 498.663 532.627C491.736 534.357 485.041 537.015 478.814 540.509Z" fill="white"/>
<ellipse cx="500.478" cy="313.018" rx="7.47792" ry="7.01767" fill="#FFB61D"/>
<path fill-rule="evenodd" clip-rule="evenodd" d="M691.614 438.369C688.443 442.865 684.573 447.085 679.56 449.351C674.547 451.617 668.205 451.562 663.944 448.083C660.522 458.319 647.086 463.738 637.519 458.74C636.401 467.118 629.644 474.445 621.384 476.237C613.125 478.028 603.939 474.159 599.45 466.998C594.488 459.081 577.977 463.534 576.03 454.396C574.985 459.631 570.146 463.862 564.818 464.198C559.491 464.534 554.158 460.945 552.463 455.883C546.668 458.595 539.483 455.73 535.316 450.874C531.15 446.018 529.329 439.629 527.737 433.432C515.468 385.675 510.032 336.259 510.278 286.952C509.053 292.939 500.714 295.06 495.4 292.042C490.086 289.024 487.416 282.879 485.856 276.97C484.595 272.193 478.408 270.545 473.577 271.584C468.746 272.623 464.394 275.41 459.513 276.182C450.059 277.677 440.53 270.651 437.556 261.554C434.582 252.457 437.366 242.148 443.135 234.511C448.904 226.874 457.312 221.614 466.091 217.801C477.417 212.882 489.669 210.106 502.009 209.663C505.009 209.556 508.629 209.222 509.964 206.533C516.575 209.593 524.083 209.803 531.301 210.788C548.191 213.092 564.432 219.995 577.812 230.558C596.298 245.152 608.89 266.087 627.011 281.132C656.917 305.962 700.43 313.686 723.562 344.924C730.304 354.029 734.86 364.742 736.742 375.915C738.508 386.401 737.659 398.003 731.104 406.376C724.549 414.749 711.069 418.072 702.958 411.195C701.219 420.935 697.317 430.284 691.614 438.369Z" fill="white"/>
<path fill-rule="evenodd" clip-rule="evenodd" d="M513.654 402.49C514.514 398.433 515.101 394.052 513.416 390.263C511.73 386.474 506.948 383.798 503.295 385.76C490.531 392.616 482.895 406.094 476.851 419.262C470.806 432.43 465.374 446.428 454.917 456.457C446.239 464.779 434.407 469.729 422.388 470.065C421.184 470.755 422.11 472.776 423.447 473.15C424.783 473.525 426.223 473.057 427.591 473.288C431.371 473.927 432.181 479.598 429.715 482.532C427.248 485.466 423.146 486.298 419.369 486.95C416.876 487.381 417.921 491.74 420.41 492.193C422.899 492.646 425.186 490.929 427.362 489.64C429.538 488.35 432.64 487.548 434.355 489.407C431.127 491.023 428.901 494.474 428.76 498.08C432.835 493.82 438.705 491.333 444.6 491.37C443.023 493.322 441.446 495.274 439.869 497.227C446.451 495.853 451.906 490.153 452.989 483.517C454.003 477.309 460.286 473.671 465.653 470.389C489.964 455.524 507.748 430.368 513.654 402.49Z" fill="white"/>
<path fill-rule="evenodd" clip-rule="evenodd" d="M374.597 0.674782C374.127 0.80558 373.383 0.716613 373.458 0.234506C373.739 0.0902908 374.053 -0.0580997 374.359 0.0229957C374.664 0.104091 374.863 0.54591 374.617 0.74461L374.597 0.674782Z" fill="#00160A"/>
<path fill-rule="evenodd" clip-rule="evenodd" d="M457.485 598.859C456.103 598.201 454.055 599.887 455.019 601.075C456.98 603.491 458.273 606.443 458.72 609.522C460.621 608.001 460.252 605.062 459.704 602.691C459.359 601.2 458.866 599.517 457.485 598.859ZM463.821 611.102L465.3 611.07C467.941 611.022 470.625 610.992 474.19 610.966L487.827 610.875C489.413 610.86 490.848 610.842 492.355 610.818C493.618 610.798 494.658 611.806 494.678 613.069C494.698 614.332 493.69 615.372 492.427 615.392L487.067 615.458L470.668 615.571C467.234 615.606 464.546 615.653 461.378 615.73C460.115 615.761 459.066 614.763 459.035 613.5C459.004 612.237 460.003 611.188 461.266 611.157L462.826 611.124C461.981 607.778 461.889 604.243 462.565 600.859C465.68 603.132 466.167 608.125 463.821 611.102ZM361.039 605.248C361.47 604.298 361.993 603.32 362.891 602.791C363.79 602.262 365.159 602.408 365.622 603.343C362.978 607.113 361.39 611.615 361.084 616.209C360.3 616.698 359.199 616.131 358.81 615.292C358.421 614.454 358.547 613.475 358.719 612.567C359.198 610.047 359.979 607.584 361.039 605.248ZM204.147 617.758C214.16 617.221 223.465 616.722 228.486 616.642C228.486 616.642 242.734 612.92 232.064 613.035L228.388 613.085C216.654 613.271 162.819 616.352 163.91 618.695C164.464 619.886 185.531 618.756 204.147 617.758L204.147 617.758L204.147 617.758ZM442.001 614.11C441.968 612.847 440.917 611.85 439.654 611.884C429.7 612.147 420.293 612.372 408.583 612.625L370.014 613.411C368.75 613.436 367.747 614.48 367.772 615.743C367.796 617.006 368.841 618.01 370.104 617.985C391.885 617.556 406.626 617.254 419.343 616.961L439.775 616.457C441.038 616.423 442.035 615.373 442.001 614.11ZM674.684 607.953C644.701 605.709 640.595 606.417 640.595 606.417C623.585 606.417 609.198 606.81 583.324 607.88L566.776 608.583C551.172 609.249 542.37 609.594 533.805 609.842L526.604 610.03C525.341 610.059 524.341 611.107 524.371 612.37C524.401 613.633 525.449 614.633 526.712 614.603C535.678 614.392 543.052 614.145 555.411 613.639L584.374 612.415C607.321 611.471 621.147 611.068 636.03 611.002L641.604 610.993C647.175 611.003 652.336 611.058 656.892 611.107C668.911 611.235 676.726 611.319 676.794 610.405C676.888 609.145 675.943 608.048 674.684 607.953ZM313.618 610.921L307.775 625.803C304.651 620.519 307.733 612.668 313.618 610.921ZM319.81 622.319C319.627 621.343 318.179 620.698 317.623 621.52L312.265 629.432C311.139 631.094 310.391 633.99 312.314 634.564L318.843 625.048C319.405 624.23 319.993 623.294 319.81 622.319ZM278.184 621.382C278.658 620.691 279.244 619.946 280.077 619.851C280.909 619.756 281.744 620.864 281.133 621.438L277.598 630.639C276.17 629.668 275.669 627.72 275.965 626.018C276.26 624.317 277.207 622.807 278.184 621.382ZM254.376 625.255C254.278 625.823 254.5 626.394 254.736 626.921C255.626 628.915 256.774 630.793 258.142 632.494C259.435 631.389 259.504 629.325 258.764 627.794C258.023 626.263 256.662 625.14 255.342 624.067C254.845 624.262 254.466 624.729 254.376 625.255ZM290.314 631.005C291.232 632.836 290.958 635.199 289.645 636.771C288.028 634.762 287.137 632.181 287.17 629.602C287.18 628.85 287.354 627.968 288.036 627.651C289.452 626.994 290.243 629.331 290.059 630.881L290.314 631.005ZM300.61 618.001C300.86 617.209 301.157 616.354 301.854 615.902C302.551 615.451 303.743 615.754 303.808 616.582C303.106 619.635 302.42 622.691 301.75 625.752C300.965 626.494 299.55 625.831 299.177 624.817C298.804 623.802 299.13 622.678 299.456 621.648L300.61 618.001Z" fill="#00160A"/>
<path fill-rule="evenodd" clip-rule="evenodd" d="M173.149 446.48L176.504 449.403L172.249 451.803C180.73 453.294 187.96 458.84 193.881 465.091C203.466 475.21 210.58 487.653 214.438 501.046C216.846 492.782 212.311 484.174 207.303 477.173C199.781 466.658 190.795 457.192 180.686 449.133C194.1 445.906 206.547 456.459 216.326 466.192C218.09 467.948 220.002 470.17 219.466 472.6C219.374 473.016 219.223 473.459 219.071 473.905C218.623 475.213 218.169 476.541 219.202 477.243C225.836 469.718 234.304 463.823 243.663 460.213C238.85 460.101 234.013 461.582 230.086 464.368C235.907 457.651 244.921 453.831 253.796 454.318C251.133 446.05 246.739 438.344 240.979 431.842C244.309 429.555 248.684 432.488 251.496 435.387C256.43 440.474 260.946 445.966 264.984 451.79C285.899 451.4 306.225 465.972 312.57 485.906C314.989 484.852 314.394 481.262 313.227 478.896C304.984 462.181 287.778 450.231 269.237 448.344C265.103 447.924 262.855 444.25 260.55 440.483C258.568 437.245 256.545 433.937 253.243 432.57C246.102 429.613 239.68 424.936 234.674 419.046C234.41 421.469 235.597 423.994 237.631 425.336L230.392 423.799C230.998 425.485 232.377 426.875 234.058 427.494L230.007 428.875C239.059 432.411 246.175 440.542 248.48 449.983L232.004 458.943C234.777 455.136 238.08 451.716 241.789 448.812C236.569 448.839 232.615 453.332 229.398 457.443C230.566 453.855 231.927 450.331 233.473 446.889C227.329 452.389 223.619 460.515 223.487 468.759C210.232 454.528 193.29 443.76 174.776 437.802C177.962 439.97 181.118 442.183 184.242 444.44C180.665 442.873 176.711 442.178 172.815 442.432L180.387 446.286L173.149 446.48ZM263.474 553.754L288.315 540.094C292.855 537.598 298.251 535.046 302.989 537.142C297.626 544.064 291.29 550.232 284.225 555.406C284.151 557.81 288.072 556.914 289.77 555.211L310.663 534.257C308.918 533.583 306.903 533.643 305.201 534.42L302.746 530.851C289.384 536.047 276.506 542.488 264.335 550.064C259.871 552.843 254.055 550.651 249.455 548.105C237.727 541.612 227.185 532.987 218.498 522.778C212.194 515.37 206.608 505.919 208.684 496.416L208.711 496.292C209.328 493.471 210.141 489.755 207.583 488.476C204.001 495.395 204.414 503.896 207.284 511.139C210.154 518.383 215.25 524.532 220.801 529.998C233.295 542.3 248.541 551.791 265.095 557.571C266.607 558.099 268.942 558.124 269.112 556.531C267.399 555.309 265.487 554.367 263.474 553.754ZM287.787 474.124C288.76 474.016 289.817 474.026 290.625 474.58C291.432 475.133 291.799 476.404 291.125 477.114C287.927 480.482 288.92 486.809 292.995 489.037C292.676 487.298 293.261 485.285 294.787 484.392C296.314 483.5 298.701 484.315 298.971 486.062C296.47 486.432 294.761 489.462 295.738 491.793C296.607 493.867 295.836 496.499 293.986 497.776C292.136 499.054 289.401 498.841 287.77 497.293C287.161 496.715 286.628 495.955 286.102 495.204C284.972 493.592 283.872 492.022 282.104 492.382C281.858 492.432 281.606 492.521 281.354 492.609C280.739 492.826 280.129 493.041 279.632 492.683C279.145 492.331 279.116 491.629 279.133 491.028C279.16 490.125 279.202 489.17 279.701 488.416C280.199 487.663 281.327 487.252 282.031 487.818C282.278 488.018 282.434 488.299 282.589 488.58C282.649 488.688 282.708 488.796 282.773 488.9C283.998 490.851 287.479 490.571 288.376 488.449C287.806 485.088 283.776 482.807 280.602 484.048C279.184 484.602 277.621 483.098 277.604 481.577C277.587 480.055 278.615 478.721 279.751 477.708C281.976 475.725 284.826 474.454 287.787 474.124ZM293.331 491.181C292.065 491.159 290.692 491.17 289.686 491.938C288.679 492.705 288.45 494.535 289.571 495.124C289.981 495.34 290.469 495.342 290.931 495.301C291.981 495.209 293.081 494.876 293.742 494.055C294.402 493.234 294.391 491.834 293.506 491.263L293.331 491.181ZM355.564 490.783C358.834 487.311 365.235 487.639 368.133 491.428C369.328 492.99 372.198 492.113 372.761 490.229C373.324 488.345 372.02 486.285 370.256 485.417C368.491 484.549 366.414 484.621 364.47 484.921C363.326 485.097 362.144 485.336 360.951 485.576C355.949 486.584 350.737 487.635 347.148 484.366C343.356 480.914 337.856 479.858 332.756 480.4C327.657 480.941 322.83 482.899 318.082 484.836L306.978 489.365C303.406 490.822 299.497 492.601 297.997 496.155C296.497 499.708 299.776 504.91 303.356 503.473C316.956 498.009 333.047 503.014 344.154 512.576C355.262 522.137 362.262 535.545 368.185 548.951C369.038 550.882 372.098 550.731 373.51 549.162C374.923 547.593 375.137 545.317 375.281 543.211L376.971 518.646C377.199 515.325 377.405 511.859 376.105 508.794C374.672 505.417 371.633 503.039 368.716 500.814L355.564 490.783ZM344.884 509.397C332.694 499.706 315.743 495.104 301.076 500.337C299.945 496.382 304.594 493.399 308.431 491.914L322.438 486.493C326.458 484.937 330.596 483.358 334.906 483.38C343.175 483.422 349.706 489.02 356.198 494.584C358.392 496.465 360.582 498.342 362.833 499.999C363.464 500.464 364.111 500.919 364.76 501.376L364.761 501.376L364.761 501.377L364.762 501.377L364.762 501.377C367.826 503.534 370.936 505.723 372.595 509.025C374.233 512.285 374.17 516.107 374.02 519.753C373.655 528.647 372.984 537.529 372.011 546.378C371.909 547.307 370.992 548.541 370.377 547.838C365.037 533.21 357.073 519.088 344.884 509.397ZM247.394 467.819C249.055 467.755 251.011 467.98 251.858 469.409C252.252 470.074 252.313 470.926 252.018 471.64C247.781 469.24 241.581 472.005 240.536 476.761C238.427 475.396 238.657 471.966 240.428 470.184C242.199 468.402 244.884 467.917 247.394 467.819ZM274.804 453.446C271.631 456.64 271.628 462.422 274.799 465.618C275.958 466.787 275.591 468.913 274.361 470.006C273.131 471.1 271.34 471.33 269.706 471.133C266.401 470.733 263.598 468.892 260.772 467.035C258.873 465.787 256.963 464.533 254.884 463.705C248.36 461.107 240.639 463.096 235.106 467.42C229.573 471.745 225.948 478.081 223.364 484.611C221.289 489.853 219.792 495.683 221.397 501.088C223.558 508.364 230.615 512.882 237.147 516.749C231.462 516.368 226.587 523.03 228.672 528.333C229.515 530.475 231.18 532.176 232.865 533.744C237.502 538.058 242.619 541.855 248.093 545.042C249.118 545.639 251.192 545.118 250.417 544.219L233.529 531.314C229.637 528.34 231.978 521.462 236.458 519.484C240.939 517.505 246.115 518.811 250.829 520.142L234.774 510.806C231.209 508.733 227.469 506.485 225.511 502.856C222.538 497.345 224.58 490.553 226.997 484.776C229.113 479.721 231.557 474.662 235.441 470.796C239.325 466.929 244.923 464.407 250.304 465.447C253.646 466.093 256.546 467.995 259.417 469.878L259.418 469.878L259.418 469.878L259.418 469.878L259.418 469.879L259.418 469.879L259.419 469.879L259.419 469.879L259.419 469.879L259.419 469.879L259.42 469.879L259.42 469.88L259.42 469.88L259.42 469.88L259.421 469.88L259.421 469.88L259.421 469.88C260.009 470.266 260.596 470.651 261.185 471.023C264.651 473.218 268.718 475.122 272.731 474.266C276.744 473.411 279.961 468.541 277.776 465.068C275.612 461.628 274.556 457.502 274.804 453.446ZM262.941 479.804C264.108 480.609 265.391 481.608 265.483 483.023C265.515 483.508 265.375 484.028 265.009 484.348C264.556 484.744 263.891 484.744 263.289 484.722C261.505 484.659 259.604 484.557 258.159 483.509C256.714 482.461 256.095 480.095 257.414 478.893C258.911 477.53 261.274 478.655 262.941 479.804ZM74.7219 519.017C67.1866 510.053 55.7552 504.487 44.0525 504.082C41.6881 504 43.1769 500.188 45.2143 498.986C64.6535 487.513 88.0522 482.468 110.316 486.189C132.58 489.909 153.439 502.651 165.886 521.482C170.538 528.52 173.982 536.244 177.424 543.965L177.424 543.965L177.424 543.966C178.553 546.499 179.682 549.032 180.854 551.541C185.597 561.693 191.263 571.743 199.842 578.952C208.421 586.161 220.458 590.098 231.102 586.594C231.889 586.335 232.709 586.004 233.194 585.333C233.805 584.489 233.721 583.364 233.643 582.311C233.637 582.227 233.631 582.143 233.625 582.06C232.858 571.106 241.417 561.979 249.348 554.384C238.441 557.819 230.519 569.047 230.94 580.474C230.988 581.77 230.865 583.468 229.611 583.799C215.457 587.531 200.87 577.869 192.556 565.822C187.765 558.88 184.358 551.151 180.947 543.412L180.947 543.412L180.947 543.412L180.946 543.411L180.946 543.411L180.946 543.411L180.946 543.411L180.946 543.41L180.946 543.41L180.946 543.41L180.945 543.41L180.945 543.409L180.945 543.409L180.945 543.409L180.945 543.408L180.945 543.408C178.437 537.718 175.926 532.023 172.861 526.632C156.438 497.743 122.817 479.207 89.6967 481.921C75.0429 483.121 60.98 488.106 47.3348 493.582C43.9371 494.945 40.2831 496.581 38.6062 499.835C36.9294 503.09 38.8888 508.196 42.5444 507.996C53.304 507.409 64.2248 512.205 71.0721 520.525C74.6142 524.829 77.0372 529.884 79.456 534.93L79.4562 534.93C80.1595 536.398 80.8624 537.864 81.5923 539.311C94.8223 565.536 118.196 586.478 145.712 596.758C173.227 607.039 204.607 606.555 231.792 595.43L231.991 595.349C234.164 594.458 236.446 593.523 238.763 593.858C241.151 594.202 243.426 596.531 242.736 598.843C241.416 603.27 244.301 608.148 248.369 610.337C252.436 612.526 257.333 612.536 261.9 611.839C263.922 611.53 266.169 610.923 267.16 609.133C268.152 607.344 266.436 604.441 264.561 605.258C261.726 606.495 259.498 601.742 261.293 599.223C262.805 597.101 265.444 596.321 267.999 595.565C268.478 595.424 268.955 595.283 269.42 595.134C278.13 592.352 285.218 584.958 287.628 576.138C288.872 571.588 288.79 566.318 285.857 562.625C280.262 555.581 267.72 559.297 263.683 567.336C259.646 575.375 261.716 585.083 264.804 593.531L257.776 594.238C258.941 598.15 258.444 602.529 256.431 606.081L261.952 608.18C255.912 612.031 246.524 607.733 245.492 600.645C245.381 599.884 245.346 599.096 245.312 598.31C245.232 596.49 245.152 594.677 244.128 593.221C241.795 589.903 236.722 590.941 232.867 592.2C217.025 597.373 200.411 600.176 183.748 600.489C175.168 600.65 166.497 600.141 158.24 597.804C149.959 595.46 142.305 591.341 134.787 587.152C119.193 578.464 103.274 568.798 93.6391 553.77C90.6283 549.074 88.3055 543.957 85.9872 538.849C82.81 531.849 79.6414 524.868 74.7219 519.017ZM271.553 562.894C276.085 560.292 282.91 561.746 284.91 566.574C286.092 569.425 285.462 572.699 284.431 575.608C282.245 581.775 278.301 587.308 273.185 591.387C271.474 592.751 268.306 593.567 267.639 591.483C266.047 586.506 264.437 581.409 264.595 576.186C264.753 570.962 267.021 565.496 271.553 562.894ZM293.979 561.347L296.911 562.467C295.964 563.805 294.954 565.198 293.478 565.911C292.002 566.625 289.922 566.375 289.125 564.942L293.878 561.682L293.979 561.347ZM305.777 558.157C304.355 558.123 302.856 558.067 301.647 557.316C299.42 555.931 299.096 552.878 299.009 550.257C296.535 551.306 295.79 554.78 297.055 557.15C298.32 559.521 301.008 560.835 303.666 561.235C305.735 561.546 307.832 561.398 309.926 561.249C310.521 561.207 311.116 561.165 311.71 561.133C315.98 560.907 320.326 561.219 324.659 561.53C332.867 562.12 341.025 562.706 348.514 559.614C354.131 557.295 358.739 553.113 363.224 549.012C363.986 548.315 364.805 547.504 364.846 546.471C364.887 545.439 363.559 544.451 362.81 545.162C356.995 550.688 350.772 556.438 342.941 558.177C339.437 558.954 335.807 558.873 332.219 558.787L305.777 558.157ZM293.428 462.992C294.797 462.52 295.803 464.766 294.856 465.861C293.908 466.957 292.171 466.9 290.812 466.397C290.059 466.119 289.313 465.704 288.885 465.024C288.235 463.989 288.578 462.458 289.608 461.8C290.638 461.142 292.171 461.475 292.837 462.5L293.428 462.992ZM328.664 522.924L327.16 520.558C319.296 527.135 313.666 536.337 311.388 546.332C311.036 547.879 310.897 549.813 312.185 550.739C313.747 549.66 314.251 547.643 314.715 545.786L314.776 545.541C316.965 536.826 321.883 528.818 328.664 522.924ZM278.268 458.816C277.105 457.98 277.502 455.803 278.885 455.431C280.268 455.059 281.704 456.742 281.118 458.049C280.59 459.228 279.097 459.549 277.816 459.719L278.268 458.816ZM280.756 595.194C279.988 593.584 277.462 592.805 276.419 594.252C277.894 594.713 277.772 596.373 277.644 598.114C277.524 599.735 277.4 601.427 278.555 602.285C278.808 602.473 279.1 602.595 279.393 602.717C279.693 602.842 279.994 602.967 280.251 603.164C280.758 603.552 280.954 604.477 280.38 604.756C277.337 606.515 272.853 604.645 271.962 601.245C271.897 600.998 271.846 600.742 271.796 600.485L271.796 600.485L271.795 600.485L271.795 600.485L271.795 600.485C271.641 599.707 271.487 598.924 270.936 598.379C270.205 597.654 268.504 598.18 268.835 599.156C269.105 602.155 269.64 605.598 272.216 607.157C274.216 608.368 276.757 607.983 279.056 607.557L288.678 605.777C287.924 602.311 284.164 599.799 280.674 600.43C281.106 598.7 281.525 596.803 280.756 595.194ZM319.011 551.088C321.429 542.761 326.386 535.189 333.053 529.645C333.49 529.281 333.964 528.913 334.527 528.836C335.245 528.738 335.999 529.201 336.236 529.885C331.025 534.894 326.749 540.871 323.689 547.42C322.761 549.407 321.064 551.862 319.011 551.088ZM298.104 529.964L303.13 505.12C301.428 504.99 300.355 506.877 299.786 508.486C297.064 516.171 295.716 524.34 295.824 532.492C297.059 532.836 297.85 531.221 298.104 529.964ZM330.105 551.052C328.509 549.879 329.529 547.355 330.745 545.791C334.598 540.835 339.335 536.569 344.664 533.252C345.83 533.68 345.125 535.446 344.264 536.341L330.105 551.052ZM347.401 546.64C346.713 544.862 344.028 545.775 342.53 546.957L336.855 551.433C337.016 552.155 337.419 552.821 337.983 553.299C341.58 551.847 344.833 549.547 347.401 546.64ZM331.933 492.9C330.744 492.288 329.079 493.36 329.143 494.696C329.208 496.031 330.969 496.938 332.093 496.214C333.218 495.491 333.122 493.512 331.933 492.9ZM336.7 492.415C338.109 491.713 339.002 490.091 338.84 488.525L339.007 488.478C337.974 487.765 336.367 488.121 335.732 489.204C335.098 490.286 335.573 491.863 336.7 492.415ZM365.911 512.284C365.528 512.897 365.107 513.487 364.651 514.049C364.372 514.393 364.03 514.753 363.587 514.779C363.052 514.811 362.631 514.35 362.297 513.93C361.133 512.467 359.938 510.942 359.494 509.126C359.05 507.309 359.58 505.112 361.208 504.194C361.327 505.382 362.508 505.713 363.764 506.065C364.638 506.31 365.547 506.565 366.16 507.125C367.543 508.389 366.903 510.695 365.911 512.284ZM324.118 489.639C324.962 488.435 327.131 488.625 327.752 489.958C328.373 491.291 327.123 493.074 325.659 492.946C324.194 492.817 323.274 490.843 324.118 489.639Z" fill="#00160A"/>
<path fill-rule="evenodd" clip-rule="evenodd" d="M516.585 482.416C519.716 482.07 522.655 484.511 523.764 487.459C524.872 490.407 524.505 493.704 523.753 496.762C522.887 500.283 521.53 503.684 519.733 506.835C518.891 508.312 517.703 509.89 516.005 509.994C513.678 510.136 512.245 507.525 511.597 505.286C510.533 501.611 509.958 497.794 509.894 493.969C509.853 491.519 510.037 489 511.075 486.781C512.112 484.563 514.151 482.685 516.585 482.416Z" fill="#FFB61D"/>
<path fill-rule="evenodd" clip-rule="evenodd" d="M357.902 173.748C356.595 176.192 355.052 179.324 356.8 181.475C359.969 178.532 363.116 175.562 366.105 172.437C370.098 168.263 373.861 163.727 376.108 158.406C378.354 153.084 378.938 146.841 376.587 141.565C375.324 138.731 372.198 135.994 369.414 137.364C367.654 138.229 366.951 140.334 366.48 142.238C365.707 145.362 365.093 148.545 364.478 151.727C363.007 159.343 361.537 166.953 357.902 173.748ZM373.296 157.299C371.057 162.569 367.246 166.988 363.496 171.314C362.931 171.964 362.219 172.676 361.364 172.573C364.413 166.007 366.509 158.999 367.566 151.836C367.635 151.366 367.701 150.892 367.767 150.417C368.226 147.114 368.693 143.753 370.452 140.951C370.838 140.336 371.478 139.686 372.174 139.892C372.578 140.012 372.843 140.391 373.059 140.753C375.983 145.675 375.534 152.03 373.296 157.299ZM296.259 192.258C296.082 185.597 293.849 179.005 289.943 173.607C288.236 171.249 285.769 168.93 282.87 169.199C279.544 169.507 277.525 173.009 276.592 176.217C274.247 184.271 275.152 193.012 277.817 200.966C280.481 208.92 284.822 216.2 289.408 223.224C290.177 224.402 291.765 225.691 292.756 224.693C293.131 224.314 293.21 223.741 293.268 223.212L295.678 201.309C296.009 198.301 296.34 195.282 296.259 192.258ZM288.353 216.627C282.028 204.398 275.633 190.689 279.123 177.371C279.495 175.951 280.017 174.497 281.096 173.501C282.176 172.506 283.957 172.136 285.122 173.031C291.505 177.938 293.378 186.815 293.075 194.861C292.954 198.091 292.558 201.311 292.162 204.527C291.572 209.323 290.982 214.113 291.305 218.922C289.992 219.222 288.972 217.824 288.353 216.627ZM339.423 194.55C338.618 192.476 337.268 190.547 335.347 189.424C332.418 187.711 328.573 188.169 325.656 189.903C322.74 191.637 320.628 194.462 318.979 197.427C311.089 211.613 312.752 229.689 319.987 244.219C320.334 244.916 320.742 245.655 321.451 245.974C322.161 246.293 323.214 245.885 323.215 245.107C323.224 239.424 324.537 233.746 327.026 228.637C328.531 225.546 330.444 222.687 332.358 219.826C333.939 217.463 335.52 215.1 336.873 212.604C339.864 207.087 341.691 200.402 339.423 194.55ZM321.192 199.542C323.269 195.241 327.188 190.728 331.875 191.648C335.164 192.293 337.427 195.618 337.766 198.952C338.104 202.287 336.893 205.587 335.377 208.577C333.89 211.507 332.097 214.266 330.305 217.024C328.587 219.668 326.87 222.311 325.421 225.106C323.17 229.447 321.586 234.132 320.741 238.948C315.124 226.599 315.294 211.759 321.192 199.542ZM261.977 235.592C263.864 233.866 266.763 233.589 269.196 234.376C271.629 235.163 273.664 236.861 275.423 238.717C284.034 247.798 287.045 260.675 289.722 272.9C289.889 273.664 289.253 274.887 288.756 274.282C285.41 270.202 281.03 267.211 276.647 264.217C274.786 262.946 272.925 261.675 271.141 260.32C265.157 255.772 259.63 249.384 259.653 241.868C259.66 239.571 260.282 237.141 261.977 235.592ZM263.865 238.048C262.681 239.208 262.495 241.05 262.665 242.699C263.343 249.256 268.321 254.523 273.533 258.56C277.068 261.297 280.84 263.727 284.794 265.814C283.531 256.32 279.194 247.26 272.591 240.323C270.273 237.889 266.265 235.695 263.865 238.048Z" fill="#FFB61D"/>
<path fill-rule="evenodd" clip-rule="evenodd" d="M551.77 489.458C554.034 489.928 555.246 492.389 555.838 494.624C557.729 501.751 556.607 509.626 552.801 515.942C552.586 516.299 552.349 516.665 551.989 516.875C550.749 517.598 549.427 516.059 548.869 514.736C546.546 509.231 545.477 503.202 545.765 497.234C545.856 495.366 546.099 493.436 547.077 491.842C548.055 490.248 549.939 489.078 551.77 489.458L551.77 489.458Z" fill="#FFB61D"/>
<path fill-rule="evenodd" clip-rule="evenodd" d="M581.005 485.253C583.368 490.348 584.046 496.208 582.909 501.708C582.533 503.526 581.7 505.574 579.905 506.049C577.368 506.719 575.428 503.845 574.418 501.424C572.354 496.48 570.438 491.019 571.923 485.872C572.609 483.492 574.59 481.043 577.041 481.398C578.945 481.674 580.196 483.507 581.005 485.253L581.005 485.253Z" fill="#FFB61D"/>
<path fill-rule="evenodd" clip-rule="evenodd" d="M520.181 435.99C521.085 442.522 520.207 449.293 517.666 455.378C517.002 456.969 515.908 458.735 514.185 458.807C511.963 458.899 510.798 456.198 510.534 453.989C509.861 448.352 510.974 442.514 513.675 437.52C514.381 436.214 515.284 434.887 516.67 434.353C518.056 433.819 519.977 434.519 520.181 435.99V435.99Z" fill="#FFB61D"/>
<path fill-rule="evenodd" clip-rule="evenodd" d="M492.176 508.199C493.683 514.338 490.752 521.3 485.306 524.512C484.213 525.156 482.72 524.592 481.957 523.577C481.195 522.563 481.003 521.237 480.933 519.97C480.676 515.284 481.794 510.531 484.113 506.45C484.803 505.236 485.718 503.992 487.073 503.654C489.536 503.041 491.571 505.733 492.176 508.199L492.176 508.199Z" fill="#FFB61D"/>
<path fill-rule="evenodd" clip-rule="evenodd" d="M486.5 479.446C484.83 475.308 484.771 470.544 486.338 466.366C486.847 465.009 487.624 463.613 488.96 463.051C491.72 461.889 494.433 464.978 495.264 467.855C496.384 471.729 496.107 475.992 494.495 479.689C493.766 481.361 492.475 483.102 490.652 483.16C488.671 483.223 487.241 481.283 486.5 479.446H486.5Z" fill="#FFB61D"/>
<path fill-rule="evenodd" clip-rule="evenodd" d="M543.136 471.847C543.679 473.179 544.193 474.583 544.078 476.017C543.962 477.451 543.039 478.92 541.629 479.208C539.676 479.606 538.057 477.721 537.093 475.977C535.788 473.615 534.77 471.094 534.069 468.488C533.65 466.934 533.355 465.233 533.986 463.753C534.618 462.273 536.524 461.249 537.902 462.081C538.53 462.46 538.92 463.125 539.274 463.767C540.718 466.382 542.008 469.081 543.136 471.847H543.136Z" fill="#FFB61D"/>
<path fill-rule="evenodd" clip-rule="evenodd" d="M691.614 438.369C688.443 442.865 684.573 447.085 679.56 449.351C674.547 451.617 668.205 451.562 663.945 448.083C660.522 458.319 647.086 463.738 637.519 458.74C636.401 467.118 629.644 474.445 621.384 476.237C613.125 478.028 603.939 474.159 599.45 466.998C597.114 463.271 592.22 462.285 587.49 461.333C582.171 460.262 577.061 459.233 576.03 454.396C574.985 459.631 570.146 463.862 564.819 464.198C559.491 464.534 554.158 460.945 552.464 455.883C546.668 458.595 539.483 455.73 535.316 450.874C531.15 446.018 529.329 439.629 527.737 433.432C515.468 385.675 510.032 336.259 510.278 286.952C509.053 292.939 500.714 295.06 495.4 292.042C490.086 289.024 487.417 282.879 485.856 276.97C484.595 272.193 478.408 270.545 473.577 271.584C471.328 272.068 469.183 272.931 467.039 273.792C464.579 274.782 462.121 275.77 459.513 276.182C450.059 277.677 440.53 270.651 437.556 261.554C434.582 252.457 437.367 242.148 443.135 234.511C448.904 226.874 457.312 221.614 466.091 217.801C477.417 212.882 489.669 210.106 502.009 209.663C505.01 209.556 508.63 209.222 509.964 206.533C515.155 208.936 520.899 209.581 526.621 210.224C528.187 210.4 529.75 210.576 531.301 210.788C548.192 213.092 564.432 219.995 577.812 230.558C587.372 238.105 595.356 247.349 603.344 256.597C610.801 265.23 618.262 273.868 627.011 281.132C639.422 291.436 654.177 298.795 668.845 306.11C689.523 316.422 710.03 326.649 723.562 344.924C730.304 354.029 734.86 364.742 736.742 375.915C738.508 386.401 737.659 398.003 731.104 406.376C724.549 414.749 711.069 418.072 702.959 411.195C701.219 420.935 697.317 430.284 691.614 438.369ZM503.794 229.098C508.098 224.811 511.026 219.164 512.049 213.176C502.424 210.983 492.385 213.204 482.861 215.798C472.227 218.694 461.447 222.208 452.874 229.133C444.3 236.058 438.279 247.113 440.152 257.974C440.903 262.333 444.037 267.166 448.433 266.678L446.222 269.461C446.606 270.333 447.566 270.915 448.516 270.852C452.585 270.288 456.206 267.241 457.457 263.328C457.635 262.772 457.772 262.195 457.909 261.618L457.909 261.618L457.909 261.618L457.909 261.618C458.243 260.21 458.577 258.803 459.5 257.718C460.801 256.189 463.958 256.229 464.261 258.214C464.456 259.5 463.39 260.666 462.393 261.755C461.267 262.986 460.23 264.12 461.206 265.22C465.579 262.323 469.848 259.268 474 256.062C476.582 254.068 479.401 250.864 477.88 247.978C476.83 245.985 478.252 243.155 480.478 242.809C482.704 242.463 484.919 244.726 484.524 246.944C486.916 245.308 489.364 243.618 491.013 241.235C492.662 238.852 493.364 235.588 491.997 233.032C490.918 231.013 492.107 228.144 494.299 227.481C496.49 226.818 499.07 228.546 499.291 230.825C500.903 229.795 500.278 227.301 499.286 225.666C498.294 224.03 497.087 222.002 498.083 220.369C499.544 217.977 503.212 219.723 505.272 221.623C505.784 219.603 505.453 217.383 504.373 215.6C504.323 213.729 507.224 212.966 508.549 214.289C509.874 215.611 509.71 217.868 508.827 219.52C508.248 220.603 507.428 221.522 506.607 222.443L506.607 222.443L506.607 222.443C506.176 222.925 505.746 223.408 505.349 223.915C504.196 225.39 503.299 227.292 503.794 229.098ZM662.683 422.471C667.521 422.735 668.457 429.533 667.419 434.266C666.382 438.998 665.527 445.288 669.859 447.458C672.435 448.749 675.555 447.667 678.057 446.238C689.844 439.509 696.082 426.068 699.585 412.956C699.994 411.426 700.209 409.435 698.864 408.599C684.677 399.778 674.653 384.547 672.164 368.028C675.603 368.691 676.854 372.835 677.813 376.204C681.353 388.644 690.023 399.539 701.35 405.784C702.875 380.854 694.283 355.451 677.938 336.566C683.253 337.581 686.947 342.346 689.747 346.976C700.589 364.905 705.752 386.213 704.319 407.116C708.215 412.745 716.929 413.37 722.732 409.738C728.534 406.106 731.733 399.37 733.072 392.657C736.604 374.948 728.93 356.432 716.861 342.999C704.792 329.567 688.769 320.405 672.731 312.105C670.573 310.988 668.406 309.881 666.237 308.772L666.234 308.77C652.29 301.644 638.288 294.487 626.175 284.614C617.049 277.175 609.205 268.36 601.358 259.544L601.358 259.544C593.812 251.065 586.265 242.585 577.575 235.324C562.225 222.501 543.178 213.715 523.229 212.262C519.887 212.019 516.024 212.2 513.924 214.812C511.825 217.424 514.306 222.615 517.381 221.283L505.372 230.37C508.233 230.867 510.052 234.474 508.751 237.07C507.45 239.666 503.47 240.366 501.361 238.371C503.788 237.806 505.881 235.97 506.756 233.638C500.253 235.61 494.562 240.136 491.176 246.028C493.865 245.608 496.704 247.593 497.232 250.262C495.276 250.709 493.141 250.98 490.996 251.252C484.553 252.07 478.017 252.899 475.929 258.553C478.77 258.62 481.472 260.576 482.423 263.253C476.315 261.754 469.586 263.006 464.426 266.603C467.376 268.012 470.78 268.092 474.15 268.172C478.225 268.268 482.249 268.363 485.358 270.805C488.151 272.998 489.325 276.419 490.504 279.86C491.038 281.414 491.572 282.973 492.258 284.423C494.462 289.085 501.05 292.855 504.45 288.979C505.009 288.342 505.411 287.552 505.809 286.771C506.45 285.513 507.08 284.277 508.334 283.736C511.913 282.194 514.099 287.745 514.082 291.643C513.882 339.346 519.471 387.071 530.688 433.437C531.946 438.639 533.36 444 536.709 448.176C540.057 452.351 545.886 455.023 550.883 453.105C545.395 445.399 543.976 434.958 547.207 426.067C547.144 434.137 549.008 442.215 552.599 449.442L550.622 427.443C555.439 430.893 555.258 437.435 555.079 443.93C554.895 450.56 554.714 457.141 559.851 460.334C564.905 463.475 572.689 459.085 572.574 453.136C572.518 450.213 570.959 447.525 569.426 444.881C567.57 441.68 565.751 438.543 566.673 435.129L574.842 447.282L572.747 426.266C576.709 431.315 578.34 438.122 577.098 444.419C576.148 449.24 578.167 454.523 582.09 457.482C586.014 460.44 591.649 460.927 596.023 458.687C590.95 449.803 588.383 439.505 588.692 429.279L599.393 458.387C604.854 451.702 606.688 442.224 604.116 433.985C610.75 441.708 608.491 455.259 599.712 460.412C601.731 466.807 607.539 471.843 614.156 472.936C620.773 474.028 627.892 471.127 631.86 465.72C634.424 462.227 635.529 457.009 632.712 453.716C622.582 441.876 618.016 425.466 620.574 410.095C623.148 424.293 625.943 439.025 634.417 450.704L629.36 430.616C633.79 432.914 634.7 438.12 635.622 443.387C636.495 448.378 637.377 453.425 641.273 456.105C647.941 460.693 656.8 454.088 660.787 447.045C651.432 427.532 643.155 407.502 636.005 387.078C643.564 394.646 646.917 404.985 650.281 415.356C653.41 425.005 656.548 434.683 663.093 442.181C665.017 435.785 664.871 428.783 662.683 422.471ZM466.095 270.421C461.913 268.92 456.979 269.736 453.504 272.505C457.729 273.727 462.489 272.939 466.095 270.421ZM496.294 230.575C495.257 229.897 493.618 230.726 493.549 231.964C493.481 233.202 495.018 234.207 496.124 233.647C497.231 233.087 497.332 231.254 496.294 230.575ZM480.796 248.881C481.935 248.549 482.62 247.139 482.178 246.038C481.616 245.574 480.683 246.015 480.43 246.699C480.177 247.382 480.41 248.147 480.722 248.806L480.796 248.881ZM512.237 223.479C513.026 223.233 513.429 222.173 513.004 221.465C512.07 221.102 511.761 222.738 512.214 223.631L512.237 223.479ZM489.855 346.5C480.139 343.391 471.885 335.986 467.744 326.663C466.933 324.839 464.668 323.971 462.561 323.163C460.063 322.206 457.786 321.333 458.417 319.052C460.022 313.257 458.369 307.252 456.747 301.362L456.747 301.362C456.42 300.171 456.093 298.986 455.795 297.808C454.023 290.8 453.672 282.308 459.032 277.458C456.958 285.367 457.278 293.886 459.939 301.617C460.108 302.11 460.286 302.612 460.466 303.12C462.338 308.419 464.472 314.461 460.86 318.51C461.348 320.814 464.64 321.463 466.634 320.209C468.627 318.956 469.595 316.609 470.443 314.412C468.465 327.463 478.36 341.163 491.371 343.389C499.228 344.733 506.266 350.173 509.547 357.437C512.827 364.702 512.254 373.579 508.067 380.362C513.093 382.537 516.246 387.844 517.103 393.253C517.96 398.662 516.849 404.188 515.352 409.456C507.553 436.895 488.689 461.018 463.939 475.203C459.541 477.724 457.165 482.503 454.81 487.24C452.237 492.417 449.688 497.545 444.55 499.62C441.428 500.88 436.637 499.506 436.854 496.146C434.724 497.851 432.315 499.624 429.59 499.488C426.865 499.352 424.336 496.109 425.909 493.88C422.352 495.416 417.458 496.622 415.229 493.453C412.991 490.272 415.959 485.885 419.362 484.004C420.352 483.458 421.407 482.987 422.461 482.517C425.03 481.37 427.594 480.226 429.202 477.986C425.926 477.663 422.324 477.181 420.142 474.716C417.96 472.252 418.893 467.235 422.18 467.062C433.256 466.48 444.077 461.867 452.166 454.279C461.428 445.592 466.7 433.78 471.923 422.078L471.923 422.078L471.923 422.078L471.924 422.078L471.924 422.078L471.924 422.078C473.072 419.504 474.219 416.936 475.404 414.408C481.982 400.383 491.357 386.064 506.106 381.326C507.304 375.78 508.509 370.126 507.97 364.478C507.432 358.83 504.86 353.083 500.029 350.107C497.803 348.735 495.267 348.035 492.731 347.335L492.731 347.335L492.73 347.335L492.729 347.335L492.728 347.334L492.728 347.334C491.764 347.068 490.801 346.803 489.855 346.5ZM465.653 470.389C489.965 455.524 507.748 430.368 513.654 402.49C514.514 398.433 515.101 394.052 513.416 390.263C511.731 386.474 506.948 383.798 503.295 385.76C490.531 392.616 482.895 406.094 476.851 419.262C476.087 420.926 475.332 422.604 474.577 424.285L474.577 424.285L474.576 424.286L474.576 424.286C469.352 435.906 464.052 447.696 454.917 456.457C446.239 464.78 434.407 469.729 422.388 470.065C421.184 470.755 422.11 472.776 423.447 473.15C424.177 473.355 424.937 473.308 425.701 473.261H425.701C426.335 473.223 426.97 473.184 427.591 473.288C431.371 473.927 432.181 479.598 429.715 482.532C427.249 485.466 423.146 486.298 419.369 486.951C416.876 487.381 417.922 491.74 420.41 492.193C422.562 492.585 424.564 491.354 426.473 490.18L426.475 490.179C426.773 489.996 427.069 489.814 427.362 489.64C429.538 488.35 432.64 487.548 434.355 489.407C431.127 491.023 428.901 494.474 428.76 498.08C432.835 493.82 438.705 491.333 444.6 491.37L439.869 497.227C446.451 495.853 451.906 490.153 452.989 483.517C453.968 477.519 459.867 473.92 465.104 470.724L465.156 470.693C465.322 470.591 465.488 470.49 465.653 470.389ZM481.814 537.509C477.221 540.087 470.525 542.727 467.556 538.377C466.172 536.35 466.455 533.661 466.794 531.229L475.465 468.973C477.241 486.825 475.635 505.007 470.759 522.272C469.269 527.547 467.57 533.575 470.532 538.187C483.77 530.772 498.51 526.053 513.593 524.403C524.452 523.215 535.519 523.583 546.55 523.95C564.31 524.54 581.979 525.128 598.541 519.213C602.564 517.776 606.613 515.849 609.241 512.482C611.87 509.115 612.642 503.977 610.004 500.617L584.598 468.258C583.398 466.73 582.39 464.104 584.119 463.218L607.538 491.092C612.479 496.972 617.725 504.715 614.539 511.703C612.893 515.315 609.328 517.642 605.775 519.412C587.886 528.324 567.723 527.655 547.386 526.98C531.94 526.467 516.392 525.951 501.663 529.627C494.736 531.357 488.041 534.015 481.814 537.509ZM512.508 603.912L511.272 606.709C512.722 609.737 516.808 610.142 520.162 609.997C527.253 609.692 534.319 608.819 541.271 607.389C547.119 606.186 553.768 603.79 555.546 598.09C556.591 594.741 555.607 591.191 554.658 587.767C554.541 587.345 554.424 586.924 554.312 586.506C552.012 577.938 551.561 568.878 552.997 560.123C553.581 556.567 554.472 553.043 555.362 549.525C557.044 542.876 558.721 536.246 558.308 529.448C549.46 548.538 547.128 570.577 551.785 591.096L551.838 591.329C552.338 593.524 552.864 595.837 552.131 597.956C550.94 601.401 546.999 602.934 543.474 603.86C536.861 605.599 528.815 606.318 524.139 601.328C523.815 600.983 523.509 600.605 523.36 600.155C522.717 598.209 525.112 596.778 526.934 595.838C533.888 592.249 537.763 584.337 538.556 576.552C539.35 568.767 537.549 560.975 535.732 553.364L535.722 553.321C533.908 545.723 532.057 537.97 532.733 530.188C532.848 528.865 530.661 528.486 529.819 529.513C528.977 530.54 529.143 532.033 529.355 533.344L535.843 573.527C536.629 578.394 534.66 583.397 531.56 587.231C528.461 591.065 524.319 593.903 520.144 596.526C518.013 597.865 515.723 599.203 513.207 599.251C510.69 599.299 507.96 597.546 507.856 595.031C515.09 593.048 519.942 585.873 521.408 578.517C522.873 571.162 521.589 563.569 520.304 556.179L516.682 535.349C516.161 532.357 514.483 528.501 511.503 529.087C515.369 541.898 517.754 555.156 518.594 568.512C518.932 573.883 518.939 579.598 516.179 584.217C513.651 588.446 509.199 591.088 504.878 593.454C502.953 594.509 500.94 595.611 499.71 597.43C498.479 599.248 498.344 602.016 500.022 603.431C501.694 604.841 503.981 604.277 506.277 603.71C508.537 603.153 510.807 602.593 512.508 603.912ZM523.732 604.647C525.115 605.115 526.482 605.578 526.774 606.907C523.259 607.361 519.684 607.349 516.172 606.874C514.568 606.657 514.009 604.384 514.842 602.996C515.674 601.607 517.29 600.93 518.798 600.341C519.657 601.749 520.586 603.223 522.049 603.985C522.559 604.251 523.147 604.449 523.732 604.647ZM503.186 598.55C504.379 597.73 506.162 597.926 507.147 598.987L507.432 598.742C507.879 599.376 507.848 600.306 507.358 600.909C505.525 600.59 503.558 601.159 502.178 602.406C501.539 601.107 501.993 599.371 503.186 598.55ZM478.42 295.785C474.875 293.461 471.398 294.565 468.57 298.662C468.099 299.343 468.27 300.278 468.952 300.748C469.633 301.219 470.568 301.048 471.038 300.366C473.016 297.502 474.735 296.956 476.775 298.294C477.468 298.748 478.397 298.554 478.852 297.861C479.306 297.169 479.112 296.239 478.42 295.785ZM465.676 285.397C464.408 284.829 465.265 282.857 466.405 282.062C468.61 280.525 471.308 279.906 473.931 279.319C477.026 278.626 480.74 278.101 482.952 280.374C477.731 282.15 472.468 283.802 467.168 285.327C466.679 285.468 466.141 285.605 465.676 285.397ZM489.672 315.99C490.257 315.218 490.783 314.674 491.442 314.259C492.895 313.344 494.691 313.412 496.033 314.633C500.956 319.11 499.388 325.648 494.113 330.627C489.215 335.25 482.59 337.29 478.308 334.127C475.03 331.705 475.517 328.388 478.571 326.434L478.657 326.381C479.498 325.869 482.195 324.513 482.161 324.533L482.447 324.376C483.285 323.911 483.896 323.494 484.338 323.078C485.019 322.437 485.681 321.682 486.357 320.792C486.874 320.111 488.039 318.381 488.795 317.257C489.141 316.743 489.401 316.357 489.475 316.256L489.672 315.99ZM480.091 331.714C486.107 336.158 501.333 323.508 494.015 316.852C493.152 316.068 492.189 317.532 490.786 319.664C489.662 321.372 488.256 323.509 486.394 325.262C485.202 326.385 483.568 327.2 482.147 327.909C479.675 329.142 477.845 330.055 480.091 331.714Z" fill="#00160A"/>
</svg>
