<svg width="750" height="750" viewBox="0 0 750 750" fill="none" xmlns="http://www.w3.org/2000/svg">
<rect width="750" height="750" fill="none"/>
<path fill-rule="evenodd" clip-rule="evenodd" d="M202.518 210.469C219.845 195.352 243.046 189.422 264.362 180.798C326.03 155.847 374.458 106.698 431.941 73.2139C460.388 56.6434 494.263 43.7023 525.769 53.2501C547.696 59.895 565.934 77.6588 573.154 99.4029C586.785 140.455 562.12 183.013 548.282 223.996C521.875 302.203 535.272 388.967 564.355 466.22C570.715 483.113 577.85 499.9 580.82 517.705C587.723 559.088 570.618 602.26 541.633 632.594C512.648 662.927 473.012 681.451 432.212 691.23C382.206 703.216 329.286 702.846 279.453 690.16C254.199 683.732 229.367 673.976 208.893 657.856C188.418 641.736 172.581 618.684 168.897 592.887C163.35 554.04 185.177 516.685 189.026 477.633C190.738 460.255 188.856 442.744 186.845 425.398C183.862 399.663 180.592 373.961 177.038 348.298C173.688 324.114 170.076 299.672 172.506 275.378C174.935 251.083 184.12 226.519 202.518 210.469Z" />
<path d="M426.371 525.161C426.682 529.188 426.889 533.363 425.469 537.144C422.986 543.75 416.248 547.584 409.999 550.864C373.304 570.126 336.2 589.086 296.739 601.748C294.983 598.893 285.791 583.135 292.375 577.501C306.612 565.319 380.5 515.931 380.5 515.931C380.5 515.931 372.004 499.463 376.773 494.633C385.932 485.359 412.821 483.869 418.692 485.065C422.619 485.864 426.132 522.064 426.371 525.161Z" fill="white"/>
<path fill-rule="evenodd" clip-rule="evenodd" d="M312.933 572.712C312.933 572.712 314.259 575.618 318.433 575.618C322.607 575.618 330.441 559.542 334.674 551.001C338.953 542.371 338.701 542.271 346.247 524.05C353.792 505.83 338.882 478.508 338.882 478.508C338.882 478.508 314.497 475.259 310.351 478.508C303.854 483.599 308.001 516.109 308.001 516.109L312.933 572.712Z" fill="white"/>
<path d="M429.852 308.453C417.231 303.911 400.619 301.994 388.835 295.588C389.317 295.521 386.315 286.981 389.08 278.227C392.164 268.463 508.477 325.505 515.043 331.938C515.734 332.615 531.896 351.299 525.677 352.559C521.898 353.325 519.484 350.738 505.739 343.185C491.993 335.632 494.274 348.653 491.993 348.956C490.019 349.217 489.245 345.923 489.273 346.396C472.614 329.544 452.148 316.476 429.852 308.453Z" fill="white"/>
<path fill-rule="evenodd" clip-rule="evenodd" d="M493.227 136.626C497.532 143.431 498.534 147.706 499.63 155.685C493.166 160.941 418.855 208.148 365.008 229.75L366.01 229.674C375.114 228.945 381.858 227.345 383.706 225.107C392.908 259.315 392.7 296.005 383.112 330.107C381.763 334.905 387.362 338.447 392.055 340.276L392.296 340.369C425.559 353.004 457.138 370.059 485.944 390.945C469.409 398.878 454.263 409.697 441.395 422.765L440.027 424.167C435.472 428.862 430.911 433.721 424.994 436.438C418.486 439.426 409.694 438.947 405.4 433.216L413.201 447.638C396.023 457.753 376.663 464.14 356.84 466.24L355.796 466.346C353.669 466.555 351.345 466.667 349.588 465.451C348.329 464.578 347.583 463.168 346.916 461.779L320.671 406.689C315.889 396.623 311.218 386.367 309.408 375.388C305.483 351.571 314.414 327.14 310.8 303.274C306.931 277.726 288.417 257.193 277.416 233.812C273.18 224.81 266.938 211.665 272.177 197.372C277.416 183.079 336.831 184.821 383.112 172.624C442.874 156.875 492.462 135.418 493.227 136.626Z" fill="white"/>
<ellipse cx="325.661" cy="143.034" rx="35.3604" ry="42.7238" fill="white"/>
<path d="M373.799 276.572C372.62 281.672 366.445 284.922 361.545 283.08C360.893 282.835 360.601 282.093 360.387 281.431C357.581 272.726 355.728 263.714 354.872 254.609C354.717 252.96 354.598 251.265 355.07 249.677C356.096 246.222 360.193 244.024 363.639 245.08C365.988 245.799 367.798 247.752 368.903 249.946C370.008 252.139 370.501 254.581 370.982 256.989C371.778 260.964 372.573 264.939 373.368 268.914C373.874 271.441 374.379 274.061 373.799 276.572Z" fill="white"/>
<path d="M350.64 495.796C349.868 495.332 343.839 481.107 346.537 479.477C357.846 472.646 446.188 439.829 456.536 433.758C466.884 427.686 454.354 420.504 455.019 415.825C456.071 408.424 478.854 402.959 478.904 399.204C493.738 408.86 507.829 417.895 517.997 432.383C521.786 437.781 525.657 448.373 521.979 453.848C519.8 457.089 514.222 458.715 510.498 459.892C480.615 469.338 344.77 505.212 350.64 495.796Z" fill="white"/>
<path d="M297.801 608.428C295.298 629.309 289.925 649.844 281.882 669.275C280.416 672.816 278.677 676.539 275.399 678.524C272.122 680.51 266.906 679.666 265.723 676.021C256.55 647.758 252.007 617.998 252.328 588.286C252.341 587.08 252.378 585.813 252.99 584.774C253.921 583.192 255.877 582.597 257.658 582.158C266.778 579.914 276.065 578.356 285.418 577.501C286.455 577.993 283.446 603.747 297.801 608.428Z" fill="white"/>
<circle cx="533" cy="176.5" r="49" fill="#FFB61D"/>
<path fill-rule="evenodd" clip-rule="evenodd" d="M501.504 133.439C502.911 139.651 505.142 145.87 510.371 144.917C517.165 143.678 503.29 141.226 595.149 132.712C596.199 132.615 594.356 130.575 593.44 130.053C588.612 127.298 583.521 124.962 578.287 123.09C569.795 120.054 500.699 129.883 501.504 133.439Z" fill="white"/>
<path fill-rule="evenodd" clip-rule="evenodd" d="M489.273 346.396C472.613 329.544 452.148 316.476 429.851 308.453C417.231 303.911 403.948 300.923 392.164 294.517C393.175 294.378 394.095 293.693 394.518 292.764C427.08 303.948 460.801 315.831 485.396 339.926C487.235 341.728 489.123 343.825 489.273 346.396Z" fill="#00160A"/>
<path fill-rule="evenodd" clip-rule="evenodd" d="M392.01 257.626C396.974 259.463 400.838 263.351 404.904 266.739C427.217 285.331 458.191 290.341 481.51 307.652C479.387 307.093 477.369 306.2 475.362 305.31C454.094 295.879 432.786 286.428 412.559 274.934C404.683 270.458 396.684 265.386 392.01 257.626L392.01 257.626Z" fill="#00160A"/>
<path fill-rule="evenodd" clip-rule="evenodd" d="M287.931 132.172C285.749 123.517 283.858 114.351 286.302 105.767C288.746 97.1826 296.955 89.584 305.782 90.905C311.762 91.7999 317.611 89.0924 323.108 86.5477L323.334 86.443C330.486 83.1331 338.054 80.0085 345.929 80.3063C353.804 80.6042 362.049 85.2684 364.046 92.8918C364.905 96.1707 364.556 99.6295 364.201 103L361.246 131.063C360.068 142.245 358.692 153.973 352.208 163.159C345.723 172.345 332.323 177.689 322.876 171.59C321.575 175.238 324.462 179.306 328.073 180.704C331.685 182.103 335.721 181.558 339.55 180.976C384.695 174.116 431.236 164.252 467.611 136.649C466.904 131.872 469.413 126.782 473.632 124.433C473.761 124.361 473.894 124.286 474.031 124.21C476.819 122.652 481.087 120.266 484 120.872C487.392 121.578 489.779 124.933 491.976 128.022C492.524 128.793 493.06 129.546 493.597 130.238C498.227 136.205 499.766 143.934 501.17 151.355C501.613 153.698 501.405 157.021 499.041 157.336C512.082 157.556 525.102 159.021 537.866 161.704L540.884 153.687C533.041 141.325 511.269 142.459 504.753 155.569C502.759 153.189 505.951 149.981 508.707 148.551C508.523 148.647 508.528 148.638 508.702 148.543C504.538 141.07 501.471 132.987 499.629 124.633C501.299 128.246 503.07 131.201 504.841 134.156C506.612 137.111 508.383 140.066 510.053 143.678C523.371 137.517 537.334 136.19 551.93 134.802L552.365 134.761C546.617 136.911 543.106 143.779 544.729 149.697C551.604 149.553 558.423 147.381 564.114 143.524C560.514 141.805 557.756 138.415 556.806 134.54C563.637 137.99 568.434 141.766 565.828 144.807C562.186 149.057 548.408 152.086 543.654 152.67L540.969 162.523C552.49 165.73 563.396 171.131 572.93 178.351C578.947 182.908 584.497 192.243 578.698 197.075L615.086 197.599C617.477 197.634 620.86 199.207 619.689 201.291L463.334 201.373C461.181 201.374 458.263 198.953 460.176 197.964C468.924 198.434 477.718 198.046 486.39 196.808C482.911 189.14 481.736 180.443 483.057 172.127C485.055 159.545 478.832 146.045 467.967 139.393C420.296 173.361 359.331 181.085 301.104 187.092C294.035 187.821 286.466 188.749 281.13 193.443C275.563 198.339 273.725 206.457 274.705 213.805C275.685 221.154 279.08 227.935 282.578 234.471C284.622 238.292 286.728 242.116 288.842 245.954C302.007 269.86 315.454 294.278 315.859 321.261C315.965 328.265 315.169 335.254 314.374 342.235C313.38 350.961 312.387 359.676 313.157 368.397C314.454 383.094 320.662 396.848 326.782 410.274L348.323 457.536C349.152 459.354 350.054 461.262 351.7 462.394C354.438 464.279 358.139 463.377 361.318 462.406L397.247 451.435C400.771 450.358 404.954 448.509 405.245 444.836C405.406 442.812 404.248 440.945 403.137 439.246L393.219 424.089L415.83 432.713C417.424 433.321 419.104 433.94 420.794 433.705C422.878 433.415 424.548 431.899 426.09 430.467C442.429 415.296 460.279 401.754 479.291 390.108C449.59 367.819 415.848 350.932 380.205 340.517C388.251 303.557 388.466 264.911 380.833 227.863L330.5 243.865C330.258 250.028 331.818 256.052 333.372 262.055L333.372 262.055L333.373 262.055L333.373 262.055C333.783 263.64 334.193 265.223 334.569 266.807C336.371 274.392 337.351 282.673 334.064 289.741C330.777 296.81 321.827 301.696 314.891 298.137C323.144 300.84 331.951 293.527 334.147 285.125C336.342 276.723 333.858 267.887 331.389 259.561L326.181 242.002C381.992 225.436 434.681 198.415 480.7 162.756C453.048 189.679 418.161 207.72 383.706 225.107C392.908 259.315 392.7 296.005 383.112 330.107C381.739 334.987 387.557 338.569 392.296 340.369C425.558 353.004 457.138 370.059 485.944 390.945C469.409 398.878 454.262 409.697 441.395 422.765C440.742 423.428 440.091 424.1 439.44 424.772C435.077 429.275 430.657 433.838 424.994 436.438C418.486 439.426 409.694 438.946 405.399 433.216L413.201 447.638C395.721 457.93 375.983 464.363 355.796 466.346C353.669 466.555 351.345 466.667 349.588 465.45C348.245 464.52 347.486 462.977 346.783 461.502L321.515 408.463C316.448 397.827 311.324 387.013 309.408 375.388C307.424 363.346 308.981 351.148 310.539 338.945C312.062 327.012 313.587 315.074 311.8 303.274C309.258 286.493 300.398 271.875 291.499 257.193C286.85 249.523 282.191 241.835 278.416 233.812C274.18 224.81 270.992 214.824 272.601 205.006C274.211 195.188 281.827 185.81 291.741 184.976C289.242 172.545 290.23 159.433 294.562 147.517C294.701 160.271 294.068 173.033 292.667 185.71L325.396 182.785L316.103 167.972C327.875 176.515 345.738 169.164 353.17 156.66C360.601 144.157 360.392 128.689 359.452 114.174C349.88 120.037 337.399 120.847 327.15 116.27C322.392 114.145 316.598 117.007 313.688 121.329C310.778 125.652 310.044 131.033 309.388 136.202C307.121 135.34 306.585 132.914 306.028 130.388C305.637 128.615 305.235 126.793 304.215 125.43C300.576 120.562 291.914 125.83 292.132 131.904C292.351 137.978 297.531 142.571 302.45 146.141C295.314 148.858 289.797 139.577 287.931 132.172ZM486.594 125.915C485.661 124.829 484.558 123.711 483.136 123.547C481.57 123.367 480.149 124.394 478.908 125.366L474.314 128.966C472.744 130.196 471.129 131.479 470.195 133.241C469.261 135.003 469.194 137.389 470.581 138.822C475.331 143.732 480.153 148.741 483.229 154.841C486.305 160.94 487.421 168.409 484.521 174.593C483.018 177.799 484.956 181.814 487.989 183.641C491.021 185.468 494.781 185.571 498.303 185.206C504.74 184.539 510.945 182.503 517.091 180.479L529.818 176.29C534.229 174.838 537.334 170.143 536.943 165.515C537.512 164.558 536.078 163.686 534.983 163.487C526.732 161.987 518.409 160.877 510.053 160.164C502.259 159.499 493.638 159.424 487.584 164.378C490.201 159.839 494.639 156.385 499.682 154.964C498.218 144.297 493.615 134.079 486.594 125.915ZM535.529 176.582C539.711 178.014 542.616 181.834 544.617 185.776C545.334 187.189 545.971 188.646 546.608 190.102L546.609 190.103C547.747 192.707 548.884 195.309 550.478 197.653C557.164 197.906 563.862 197.858 570.544 197.509C572.321 197.417 574.139 197.293 575.771 196.586C577.404 195.878 578.841 194.465 579.088 192.703C579.145 192.295 579.139 191.877 579.132 191.461C579.122 190.848 579.112 190.239 579.306 189.663C579.368 189.479 579.448 189.288 579.53 189.094C579.823 188.393 580.13 187.661 579.631 187.168C569.284 176.939 556.307 169.393 542.299 165.46C541.504 165.237 540.566 165.052 539.925 165.572C539.565 165.864 539.386 166.32 539.223 166.754L535.529 176.582ZM491.205 197.363L520.033 197.453C521.878 197.459 523.106 195.614 523.983 193.992L532.634 177.978C527.661 178.936 522.907 180.698 518.149 182.462C515.249 183.537 512.346 184.613 509.391 185.508C501.589 187.871 492.838 188.88 485.517 185.294C485.628 188.713 486.993 192.078 489.297 194.607C488.674 194.846 488.325 195.632 488.566 196.255C488.933 197.204 490.187 197.36 491.205 197.363ZM524.448 197.348C529.884 196.825 535.36 197 540.818 197.175L546.934 197.372C545.179 191.714 542.469 186.354 538.953 181.587C538.282 180.676 537.53 179.747 536.477 179.334C535.423 178.92 533.998 179.242 533.569 180.289C531.119 186.266 528.057 191.991 524.448 197.348ZM539.531 149.327C540.009 149.567 540.551 149.805 541.063 149.648C541.815 149.418 542.073 148.504 542.212 147.73L543.702 139.478C543.784 139.02 543.858 138.51 543.603 138.12C543.202 137.505 542.264 137.583 541.601 137.9C541.432 137.98 541.265 138.072 541.098 138.165C540.609 138.434 540.12 138.704 539.573 138.695C535.61 138.633 531.635 139.521 528.076 141.263C531.468 144.497 535.342 147.224 539.531 149.327ZM356.554 127.597L350.143 130.522C349.628 130.757 349.024 130.992 348.519 130.736C347.874 130.409 347.831 129.434 348.249 128.845C348.668 128.255 349.377 127.958 350.049 127.69L352.842 126.573C353.561 126.286 354.318 125.993 355.086 126.091C355.854 126.188 356.612 126.825 356.554 127.597ZM334.189 133.966C335.145 133.897 336.11 132.946 335.749 132.058L331.892 131.249C328.65 130.568 324.85 130.025 322.393 132.247C321.596 132.968 321.071 134.336 321.875 135.05C324.416 132.778 328.239 132.049 331.437 133.228C331.621 133.295 331.805 133.369 331.989 133.443L331.989 133.443C332.706 133.731 333.429 134.022 334.189 133.966ZM345.073 136.531L344.334 135.244C344.002 135.07 343.544 135.203 343.357 135.527C342.02 139.532 342.643 144.142 344.995 147.648C345.575 148.511 344.571 149.73 343.531 149.725C342.491 149.72 341.621 148.961 340.918 148.194C340.102 149.552 341.509 151.459 343.093 151.441C344.677 151.423 345.974 149.983 346.302 148.432C346.63 146.882 346.195 145.274 345.622 143.797C345.48 143.429 345.328 143.065 345.176 142.7L345.176 142.699C344.718 141.596 344.259 140.492 344.05 139.321C343.861 138.258 344.057 136.895 345.073 136.531ZM318.11 153.973C317.661 151.866 317.556 149.048 319.546 148.224C321.027 147.611 322.744 148.702 323.492 150.12C324.06 151.198 324.242 152.416 324.423 153.632C324.48 154.014 324.537 154.395 324.606 154.772C324.893 156.349 325.512 158.021 326.901 158.819C331.148 161.258 336.044 162.553 340.941 162.535C336.199 164.62 330.795 162.164 326.21 159.754L315.768 154.267C315.09 153.911 314.297 153.179 314.712 152.535C315.909 152.836 317.06 153.323 318.11 153.973ZM321.23 152.569C321.465 153.61 321.528 154.691 321.415 155.753C322.295 155.887 323.129 156.302 323.766 156.923C323.541 154.577 322.942 152.267 321.998 150.108C321.48 148.922 319.463 149.377 319 150.586C318.536 151.794 319.113 153.139 319.771 154.253C319.805 153.452 320.442 152.716 321.23 152.569ZM328.22 353.819C345.322 351.503 362.892 349.035 377.926 340.561C378.577 340.194 379.286 339.316 378.708 338.843C362.044 346.927 343.737 351.605 325.238 352.505C325.253 353.742 326.995 353.985 328.22 353.819ZM343.88 526.018C344.834 523.949 345.581 521.784 346.106 519.567L332.881 516.617C333.15 515.522 334.643 515.392 335.76 515.542C339.411 516.03 343.005 516.933 346.452 518.23L348.911 507.983C349.434 507.699 350.081 507.651 350.64 507.857C348.954 517.276 346.273 526.518 342.655 535.377C342.129 536.663 341.279 538.155 339.889 538.144C339.79 537.326 339.923 536.48 340.268 535.731C336.937 535.925 333.225 535.994 330.726 533.785C334.003 533.361 337.354 533.505 340.583 534.21C341.896 532.192 342.905 529.978 343.565 527.664C339.732 527.478 335.931 526.629 332.382 525.165C332.746 524.111 334.225 524.122 335.319 524.337L343.88 526.018ZM271.553 673.803C264.456 647.087 260.103 619.642 258.584 592.041C258.452 589.643 258.434 586.969 260.043 585.186C261.153 612.741 265.051 640.183 271.66 666.957C272.222 669.235 272.766 671.795 271.553 673.803ZM281.586 625.77C285.396 624.91 289.417 624.999 293.186 626.027L294.891 619.417C290.252 619.039 285.662 618.074 281.264 616.55C285.955 615.677 290.913 616.295 295.246 618.294C294.505 614.85 295.482 611.08 297.801 608.429C295.298 629.309 289.925 649.844 281.882 669.276C280.416 672.817 278.677 676.539 275.399 678.525C272.122 680.51 266.906 679.667 265.723 676.022C256.55 647.758 252.007 617.999 252.328 588.286C252.341 587.081 252.378 585.813 252.99 584.774C253.921 583.193 255.877 582.597 257.658 582.159C266.778 579.914 276.065 578.356 285.418 577.501C286.455 577.993 285.093 579.412 283.965 579.625L253.667 585.325C253.987 615.623 258.601 645.872 267.327 674.888C267.667 676.016 268.065 677.221 269.012 677.923C271.453 679.735 274.597 676.831 276.144 674.213C283.224 662.231 288.225 649.024 290.857 635.357C287.64 636.777 283.747 636.552 280.715 634.772C284.152 633.858 287.816 633.813 291.274 634.641L292.994 628.478L281.586 625.77ZM456.536 426.99C456.544 426.086 456.147 425.226 455.673 424.455C454.448 422.465 452.638 420.84 450.527 419.836C449.607 421.258 450.86 423.033 451.893 424.376C452.925 425.719 453.624 427.995 452.149 428.829L427.483 442.77C426.667 443.231 425.739 444.237 426.37 444.93C432.039 444.219 437.103 441.162 441.973 438.174L452.832 431.514C454.571 430.447 456.519 429.031 456.536 426.99ZM363.129 350.85C363.79 350.662 363.022 349.707 362.338 349.635C361.655 349.563 360.699 348.935 361.218 348.485L364.097 348.601C365.353 349.125 364.938 351.233 363.702 351.806C362.467 352.378 361.023 351.932 359.738 351.482C359.581 353.072 357.853 354.313 356.296 353.954C354.739 353.595 353.729 351.722 354.284 350.224C355.187 349.448 356.539 349.237 357.635 349.702C357.742 350.168 357.262 350.312 356.742 350.468C356.441 350.558 356.126 350.652 355.903 350.814C355 351.473 356.309 353.003 357.357 352.613C358.404 352.223 358.821 350.992 359.106 349.911C360.295 350.655 361.734 350.99 363.129 350.85ZM333.581 137.631C335.309 137.365 336.062 140.018 335.124 141.493C334.324 142.749 332.621 143.54 331.289 142.872C330.905 141.431 331.224 139.82 332.127 138.634C332.493 138.153 332.985 137.723 333.581 137.631ZM352.643 139.836C354.335 138.903 353.724 136.356 352.888 134.614C350.546 134.91 349.045 137.937 350.225 139.981C351.036 140.128 351.921 140.234 352.643 139.836ZM346.537 479.477L357.514 474.481C358.41 471.831 357.365 468.65 355.072 467.047C355.006 468.923 355.415 470.813 356.249 472.494C351.514 474.783 346.644 476.792 341.672 478.508C344.429 485.154 346.45 492.106 347.686 499.194C354.322 499.414 360.981 498.906 367.506 497.682L375.172 514.306L343.969 537.51C333.543 545.263 328.557 558.16 324.079 570.356C328.048 566.712 330.186 561.601 332.315 556.513C334.656 550.917 336.985 545.349 341.725 541.793L373.482 517.969C374.631 517.107 375.855 516.136 376.203 514.742C376.529 513.436 376.001 512.084 375.483 510.84L369.735 497.054C386.367 494.521 402.772 490.503 418.692 485.065L422.845 523.905C423.386 528.96 423.828 534.464 421.085 538.744C419.113 541.82 415.806 543.736 412.613 545.513C375.508 566.17 336.808 583.961 296.972 598.675L289.567 579.472C296.667 574.216 304.044 569.335 311.658 564.855C311.606 567.542 311.591 570.382 312.933 572.712C314.274 575.042 317.491 576.513 319.744 575.047C322.259 573.411 321.916 569.694 321.325 566.751C315.704 538.729 314.804 510.004 313.922 481.437C311.687 511.461 313.882 541.811 320.415 571.201C320.858 573.194 317.776 574.386 316.12 573.194C314.463 572.002 314.045 569.755 313.77 567.732C310.049 540.403 308.387 512.795 308.802 485.217C308.83 483.355 309.001 481.219 310.496 480.107C311.481 479.375 312.79 479.299 314.016 479.251L339.92 478.237C330.987 476.94 321.896 476.742 312.915 477.648C311.458 477.795 309.903 478.015 308.815 478.994C307.392 480.275 307.222 482.409 307.164 484.322C306.421 508.55 307.757 532.84 311.152 556.84C311.769 561.208 308.444 565.209 304.708 567.555C303.138 568.541 301.462 569.352 299.788 570.162C297.479 571.281 295.173 572.397 293.154 573.967C289.672 576.676 287.169 581.51 289.055 585.498L296.739 601.748C336.2 589.086 373.304 570.126 409.999 550.864C416.247 547.584 422.986 543.75 425.468 537.144C426.889 533.363 426.682 529.188 426.371 525.161C425.318 511.502 423.3 497.917 420.339 484.541C450.555 476.223 480.615 467.338 510.498 457.892C514.222 456.715 518.225 455.325 520.403 452.084C524.082 446.609 520.66 439.264 516.871 433.866C506.702 419.378 493.738 406.86 478.904 397.204C478.855 400.959 482.282 403.694 485.282 405.953C495.776 413.852 505.04 423.383 512.638 434.098C515.865 438.649 518.737 445.108 515.168 449.396C513.567 451.32 511.059 452.188 508.68 452.965C456.34 470.061 403.21 484.735 349.515 496.924L346.537 479.477ZM587.317 347.84C588.485 350.107 590.303 352.862 592.795 352.321C587.521 341.458 580.078 331.653 571.031 323.653L597.018 300.227L594.636 340.404C594.466 343.277 594.324 346.3 595.591 348.884C598.02 348.08 598.446 344.886 598.464 342.328C598.78 296.078 606.658 249.889 621.69 206.149C620.12 203.926 616.975 203.672 614.252 203.659C601.848 203.6 589.451 204.166 577.055 204.731C563.209 205.363 549.364 205.995 535.51 205.756C528.892 205.642 522.257 205.33 515.623 205.018C497.814 204.181 480.004 203.343 462.488 206.328C462.223 206.373 461.949 206.423 461.728 206.576C461.056 207.039 461.256 208.064 461.527 208.833C472.34 239.448 479.795 271.247 483.716 303.477C484.284 308.149 488.415 311.449 492.219 314.219L507.348 325.234C509.498 326.799 513.199 328.001 514.221 325.547C514.949 323.797 517.155 323.051 519.016 323.408C520.877 323.765 522.454 324.961 523.906 326.179C532.387 333.291 539.182 342.402 543.581 352.559L568.493 325.557C576.338 331.441 582.826 339.122 587.317 347.84ZM530.801 226.345C543.712 226.616 556.67 222.09 566.604 213.839C568.094 212.601 569.526 211.276 570.708 209.741C571.74 208.401 573.516 206.741 574.776 207.869C573.567 212.833 573.379 218.043 574.227 223.08C574.871 226.902 571.47 230.083 568.408 232.459L559.141 239.649C556.827 241.444 554.451 243.273 551.661 244.163C548.872 245.053 545.54 244.829 543.385 242.847L527.306 228.058C526.092 226.941 524.846 225.781 524.178 224.273C523.638 223.053 523.518 221.695 523.43 220.364C523.153 216.184 523.123 211.988 523.339 207.805C528.262 208.733 533.317 208.585 538.324 208.433L551.242 208.042C552.114 208.016 553.003 207.992 553.841 208.236C554.616 208.463 555.306 208.909 555.984 209.348L563.741 214.383C561.721 214.236 560.168 215.65 558.6 217.077L558.599 217.077C557.908 217.707 557.213 218.339 556.474 218.841C554.947 219.879 553.127 220.383 551.333 220.825C548.478 221.53 545.595 222.123 542.694 222.604C537.158 223.52 531.449 224.019 525.964 222.836C525.379 225.067 528.494 226.296 530.801 226.345ZM513.104 275.551C513.946 274.901 514.845 274.227 515.901 274.1C516.975 273.97 518.026 274.429 518.992 274.917C529.317 280.13 536.764 289.547 543.866 298.676C536.513 302.653 529.86 307.92 524.301 314.164L524.168 314.315C523.267 315.328 522.341 316.372 521.104 316.916C519.807 317.488 518.054 317.314 517.273 316.13C510.855 306.389 502.768 297.751 493.471 290.706L513.104 275.551ZM520.331 270.396C527.904 264.455 535.73 258.838 543.782 253.564C544.605 253.025 545.475 252.474 546.455 252.387C547.524 252.293 548.555 252.766 549.506 253.262C558.558 257.983 565.826 266.034 569.601 275.52C561.292 280.506 553.836 286.91 547.654 294.371C546.952 295.22 545.599 296.102 544.932 295.225C537.856 285.928 529.563 277.558 520.331 270.396ZM580.827 284.763C585.631 289.045 590.809 292.906 596.282 296.29C585.855 303.01 576.616 311.567 569.118 321.448C563.785 313.25 557.251 305.833 549.79 299.509C549.421 299.196 549.024 298.841 548.958 298.361C548.884 297.826 549.248 297.338 549.595 296.923C556.819 288.285 565.722 281.057 575.659 275.76C575.372 279.342 578.144 282.373 580.827 284.763ZM489.264 207.917C491.255 207.841 493.524 207.904 494.841 209.398C501.782 217.272 511.281 222.856 521.537 225.09C514.668 231.964 506.885 237.923 498.457 242.762C497.091 243.546 495.43 242.504 494.221 241.494C483.245 232.322 473.474 221.707 465.24 210.011C473.208 208.921 481.228 208.221 489.264 207.917ZM523.759 321.924C528.338 313.717 535.837 307.179 544.59 303.759C547.521 302.614 550.589 304.916 552.817 307.137C557.642 311.946 562.06 317.162 566.01 322.712C566.23 323.021 566.456 323.353 566.478 323.731C566.526 324.568 565.624 325.091 564.879 325.475C560.453 327.754 557.482 331.8 554.489 335.876L554.489 335.876C552.18 339.02 549.858 342.182 546.846 344.563C546.546 344.801 546.218 345.039 545.837 345.074C545.197 345.135 544.663 344.622 544.228 344.149L523.759 321.924ZM576.392 231.085C583.419 238.662 591.619 245.148 600.611 250.24C591.495 256.058 583.145 263.073 575.843 271.049C574.791 272.198 572.977 270.872 572.015 269.646C565.725 261.633 558.198 254.593 549.783 248.853C559.382 245.171 567.898 238.711 574.029 230.458C574.588 229.705 575.755 230.398 576.392 231.085ZM546.377 249.076C535.719 253.025 526.113 259.774 518.786 268.463C513.171 260.015 505.219 253.438 497.386 246.992C506.815 242.204 515.575 236.1 523.332 228.914C530.488 236.206 538.199 242.953 546.377 249.076ZM600.63 212.346C603.914 210.044 607.364 207.675 611.337 207.132C613.475 206.84 615.645 207.099 617.786 207.37C612.675 221.146 608.53 235.28 605.391 249.634C595.942 243.883 587.125 237.095 579.148 229.433C578.92 229.214 578.683 228.978 578.608 228.672C578.448 228.018 579.07 227.46 579.621 227.074L600.63 212.346ZM492.472 288.238C490.855 285.919 488.672 283.998 486.165 282.691L486.084 282.649L485.997 282.604C485.445 282.319 484.878 282.027 484.507 281.535C484.188 281.113 484.047 280.587 483.913 280.076C482.764 275.704 481.606 271.167 482.373 266.711C483.389 260.815 487.585 256.036 491.713 251.704C492.221 251.171 492.774 250.614 493.494 250.453C494.258 250.282 495.04 250.598 495.749 250.932C504.259 254.947 510.578 262.448 515.964 270.164C506.905 274.316 498.807 280.546 492.472 288.238ZM578.278 276.209C578.784 272.353 581.418 269.135 584.192 266.41C589.995 260.71 596.908 256.143 604.429 253.041L598.008 293.775C590.246 289.467 583.455 283.421 578.278 276.209ZM490.267 289.999C490.426 290.67 489.859 291.274 489.343 291.731L486.849 293.938C486.946 294.542 487.816 294.627 488.364 294.357C488.529 294.275 488.689 294.175 488.848 294.076C489.219 293.844 489.588 293.613 490.015 293.617C490.412 293.619 490.775 293.83 491.114 294.036C500.972 300.042 509.333 308.484 515.243 318.399C515.614 319.023 515.988 319.692 515.979 320.418C515.967 321.463 515.182 322.318 514.446 323.06C512.786 324.736 510.071 326.471 508.351 324.857C502.772 319.622 496.543 315.081 489.852 311.371C488.403 310.567 488.019 308.694 487.787 307.052L484.717 285.311C486.52 286.388 488.193 287.681 489.689 289.154C489.936 289.396 490.188 289.662 490.267 289.999ZM471.436 223.481C478.621 231.102 486.059 238.484 493.734 245.611C488.558 250.56 483.219 255.751 480.731 262.465L470.187 223.029C470.643 222.974 471.121 223.147 471.436 223.481ZM576.745 220.063C576.407 215.82 576.15 211.232 578.442 207.645L603.328 208.272L577.261 226.548L576.745 220.063ZM520.843 223.021L515.954 220.865L516.071 219.542C515.338 220.2 514.491 219.597 513.591 218.955C512.788 218.383 511.942 217.781 511.095 218.014C510.893 218.07 510.666 218.158 510.436 218.247C509.714 218.526 508.966 218.815 508.881 218.162C508.847 217.898 509.03 217.659 509.202 217.456L515.384 210.145C516.112 209.284 516.9 208.383 517.978 208.054C519.055 207.725 520.475 208.266 520.643 209.381C521.324 213.891 521.391 218.493 520.843 223.021ZM511.602 208.509C512.034 208.024 512.937 208.111 513.268 208.669C512.131 211.581 510.09 214.133 507.499 215.882C506.755 216.383 505.431 216.616 505.234 215.741C504.999 214.7 503.784 214.481 502.657 214.278L502.657 214.278C502.418 214.235 502.184 214.193 501.963 214.144C499.486 213.591 497.744 210.82 498.32 208.349C500.942 207.068 503.983 207.074 506.901 207.106C508.589 207.125 510.492 207.238 511.602 208.509ZM568.56 208.795C567.638 209.386 566.991 210.391 566.835 211.476C563.74 211.504 560.657 210.167 558.563 207.888C560.733 207.469 563.054 207.883 564.946 209.028C565.78 207.947 567.594 207.83 568.56 208.795ZM595.218 133.233C592.564 128.586 577.834 121.48 567.137 119.293C544.58 114.682 520.813 116.131 498.983 123.449C516.989 114.912 538.66 113.791 559.231 115.832C577.664 117.66 603.033 133.484 596.782 134.891C591.547 136.069 570.034 134.891 558.563 132.125C564.684 130.325 577.427 131.805 586.158 132.819C591.688 133.461 595.608 133.916 595.218 133.233Z" fill="#00160A"/>
<path fill-rule="evenodd" clip-rule="evenodd" d="M274.569 617.513C275.271 619.004 275.566 620.684 275.414 622.325C273.801 621.126 272.319 619.751 271.004 618.231C269.723 619.301 268.149 620.016 266.501 620.278C266.334 618.584 267.346 616.838 268.898 616.14C266.911 615.469 264.48 614.066 264.946 612.022C266.862 612.042 268.774 612.385 270.577 613.033C270.56 611.254 271.468 609.492 272.928 608.475C273.348 610.36 273.767 612.246 274.187 614.131C275.29 614.605 276.448 614.949 277.631 615.154C276.991 616.315 275.855 617.191 274.569 617.513L274.569 617.513Z" fill="#FFB61D"/>
<path fill-rule="evenodd" clip-rule="evenodd" d="M326.684 518.52C324.907 518.035 323.301 516.944 322.195 515.471C321.02 516.355 319.56 516.852 318.09 516.867C318.519 515.73 319.179 514.68 320.017 513.801C318.724 512.651 317.534 511.385 316.466 510.023C318.251 508.72 321.267 511.751 322.72 510.086C323.169 509.572 323.186 508.823 323.423 508.183C323.66 507.544 324.414 506.948 324.977 507.333C325.658 508.543 325.941 509.972 325.772 511.35C326.764 511.664 327.756 511.979 328.747 512.294C328.712 513.449 327.391 514.367 326.296 513.999C326.425 515.506 326.555 517.013 326.684 518.52H326.684Z" fill="#FFB61D"/>
<path fill-rule="evenodd" clip-rule="evenodd" d="M504.121 330.043C505.114 329.176 506.652 329.856 507.739 330.603C515.064 335.636 520.67 342.739 526.157 349.731C526.696 350.417 527.266 351.213 527.135 352.076C527.004 352.939 525.698 353.508 525.247 352.761C520.493 344.872 514.138 337.952 506.681 332.545C505.706 331.838 504.674 331.114 504.121 330.043L504.121 330.043Z" fill="#00160A"/>
<path fill-rule="evenodd" clip-rule="evenodd" d="M321.23 152.568C321.465 153.61 321.528 154.691 321.415 155.753C322.295 155.887 323.129 156.302 323.766 156.923C323.541 154.577 322.942 152.267 321.998 150.108C321.48 148.922 319.463 149.377 319 150.586C318.536 151.794 319.113 153.138 319.771 154.253C319.805 153.452 320.442 152.716 321.23 152.568Z" fill="#FFB61D"/>
<path fill-rule="evenodd" clip-rule="evenodd" d="M520.066 349.972C513.407 346.193 506.454 342.934 499.289 340.233C497.713 339.639 495.753 340.37 494.951 341.851C493.954 341.124 494.542 339.372 495.679 338.894C496.816 338.416 498.114 338.792 499.282 339.187C505.515 341.292 511.588 343.871 517.432 346.893C518.705 347.552 520.152 348.541 520.066 349.972H520.066Z" fill="#00160A"/>
<path fill-rule="evenodd" clip-rule="evenodd" d="M490.712 328.869C492.838 334.771 493.636 341.147 493.03 347.391C492.963 348.077 492.683 348.952 491.993 348.955C491.197 348.96 491.005 347.854 491.059 347.06C491.51 340.514 490.649 333.88 488.542 327.666C489.104 326.795 490.361 327.894 490.712 328.869H490.712Z" fill="#00160A"/>
<path fill-rule="evenodd" clip-rule="evenodd" d="M523.611 343.185C520.183 339.173 516.755 335.16 513.327 331.147C512.917 330.666 512.49 329.97 512.863 329.458C517.377 333.19 521.072 337.908 523.611 343.185Z" fill="#00160A"/>
<path fill-rule="evenodd" clip-rule="evenodd" d="M139.76 347.524C139.207 347.188 138.901 346.49 139.029 345.856C139.389 345.482 140.068 345.492 140.417 345.877C140.75 346.495 140.436 347.37 139.786 347.636L139.76 347.524Z" fill="#00160A"/>
<path fill-rule="evenodd" clip-rule="evenodd" d="M505.778 31.3259C505.372 31.3876 504.965 31.4493 504.558 31.511C504.335 31.1409 504.249 30.6904 504.319 30.2641C504.672 30.0349 505.114 29.949 505.526 30.0296C505.757 30.3777 505.839 30.8213 505.748 31.2289L505.778 31.3259Z" fill="#00160A"/>
<path fill-rule="evenodd" clip-rule="evenodd" d="M373.799 276.572C372.62 281.672 366.445 284.922 361.545 283.08C360.893 282.835 360.601 282.093 360.387 281.431C357.581 272.726 355.728 263.714 354.872 254.609C354.717 252.96 354.598 251.265 355.07 249.677C356.096 246.222 360.193 244.024 363.639 245.08C365.988 245.799 367.798 247.752 368.903 249.946C370.008 252.139 370.501 254.581 370.982 256.989C371.778 260.964 372.573 264.939 373.368 268.914C373.874 271.441 374.379 274.061 373.799 276.572ZM362.762 281.377C363.531 282.043 364.654 282.138 365.656 281.958C369.949 281.187 372.305 276.245 372.164 271.886C372.024 267.527 370.15 263.433 369.198 259.177C368.534 256.213 368.282 253.06 366.699 250.468C365.116 247.876 361.557 246.125 358.987 247.743C356.393 249.377 356.418 253.11 356.831 256.148C357.881 263.866 359.463 271.512 361.563 279.014C361.804 279.877 362.084 280.789 362.762 281.377Z" fill="#FFB61D"/>
<path fill-rule="evenodd" clip-rule="evenodd" d="M368.572 277.017C367.666 277.599 366.394 277.21 365.655 276.426C364.916 275.643 364.585 274.57 364.293 273.533C362.558 267.388 361.355 261.092 360.703 254.74C360.613 253.869 360.54 252.955 360.878 252.148C361.217 251.34 362.107 250.693 362.95 250.933C363.771 251.167 364.173 252.071 364.459 252.876C366.823 259.528 368.505 266.423 369.469 273.416C369.648 274.714 369.675 276.309 368.572 277.017ZM362.106 252.087C362.271 259.73 363.698 267.343 366.311 274.527C366.61 275.348 367.442 276.34 368.142 275.816C367.642 267.621 365.582 259.525 362.106 252.087Z" fill="#FFB61D"/>
<path fill-rule="evenodd" clip-rule="evenodd" d="M540.884 153.687L537.866 161.704C537.187 161.561 536.387 161.386 535.486 161.19C527.338 159.411 510.882 155.82 499.683 157.397C488.857 158.921 483.987 166.271 483.057 172.126C481.736 180.443 482.91 189.14 486.39 196.808C485.084 196.994 486.539 197.135 489.911 197.238C490.331 197.335 490.788 197.362 491.205 197.363L497.666 197.383C510.79 197.538 532.524 197.5 550.312 197.405C550.367 197.488 550.422 197.571 550.478 197.653C557.164 197.906 563.862 197.858 570.544 197.509C571.543 197.457 572.554 197.395 573.539 197.225C578.726 197.165 581.033 197.108 578.698 197.074C584.497 192.243 578.947 182.907 572.93 178.35C563.396 171.131 552.49 165.73 540.969 162.523L543.654 152.67C551.809 151.667 559.755 148.988 566.852 144.848C568.937 149.604 572.923 142.679 556.806 134.54C557.756 138.414 560.514 141.805 564.114 143.523C558.423 147.381 551.603 149.553 544.729 149.697C543.106 143.779 546.617 136.911 552.365 134.76C542.606 134.76 521.472 140.603 510.536 146.403C504.643 149.528 504.054 154.735 504.753 155.568C511.269 142.458 533.041 141.324 540.884 153.687ZM573.539 197.225C574.306 197.093 575.056 196.895 575.771 196.586C577.403 195.878 578.841 194.465 579.088 192.703C579.145 192.294 579.138 191.877 579.132 191.461C579.122 190.848 579.112 190.238 579.306 189.663C579.368 189.479 579.448 189.288 579.529 189.094C579.823 188.392 580.13 187.66 579.631 187.168C569.284 176.939 556.306 169.393 542.299 165.459C541.504 165.236 540.565 165.051 539.925 165.571C539.564 165.864 539.386 166.319 539.223 166.754L535.529 176.582C539.711 178.014 542.616 181.834 544.617 185.776C545.334 187.189 545.972 188.647 546.608 190.103L546.608 190.103C547.707 192.616 548.805 195.126 550.312 197.405C559.821 197.355 568.203 197.288 573.539 197.225ZM497.666 197.383L520.033 197.453C521.877 197.459 523.106 195.614 523.983 193.992L532.633 177.978C527.661 178.936 522.907 180.698 518.149 182.462C515.248 183.537 512.346 184.613 509.391 185.508C501.589 187.87 492.838 188.88 485.517 185.294C485.628 188.713 486.993 192.078 489.296 194.606C488.673 194.846 488.325 195.632 488.566 196.255C488.782 196.815 489.308 197.098 489.911 197.238C491.892 197.298 494.534 197.346 497.666 197.383ZM487.988 183.641C484.956 181.813 483.017 177.798 484.52 174.593C490.746 161.316 495.442 158.916 510.053 160.163C518.409 160.877 526.732 161.986 534.983 163.487C536.078 163.686 537.512 164.558 536.943 165.514C537.334 170.142 534.229 174.837 529.818 176.29L517.091 180.479C510.944 182.502 504.739 184.539 498.303 185.206C494.781 185.571 491.021 185.468 487.988 183.641ZM524.448 197.348C529.883 196.824 535.36 196.999 540.818 197.175L546.934 197.372C545.179 191.714 542.469 186.354 538.953 181.586C538.282 180.676 537.53 179.747 536.477 179.334C535.423 178.92 533.998 179.242 533.569 180.289C531.119 186.265 528.057 191.991 524.448 197.348ZM541.062 149.648C540.55 149.805 540.009 149.567 539.53 149.327C535.342 147.224 531.468 144.496 528.075 141.263C531.635 139.52 535.61 138.633 539.572 138.695C540.119 138.703 540.609 138.433 541.097 138.164C541.265 138.072 541.432 137.98 541.601 137.899C542.264 137.583 543.202 137.504 543.603 138.12C543.857 138.509 543.784 139.019 543.702 139.477L542.212 147.729C542.072 148.504 541.815 149.418 541.062 149.648Z" fill="white"/>
</svg>
