<svg width="750" height="750" viewBox="0 0 750 750" fill="none" xmlns="http://www.w3.org/2000/svg">
<rect width="750" height="750" fill="none"/>
<path d="M390.291 207.374C394.973 206.479 412.074 200.47 414.258 192.555C416.211 185.477 405.591 171.282 390.291 167.586C374.992 163.89 351.097 165 351.097 180.371C351.097 184.715 353.734 186.922 356 188.817C357.451 190.031 358.749 191.117 359.103 192.555C360.203 197.024 359.661 200.179 359.294 202.311C359.111 203.374 358.972 204.183 359.103 204.774C360.752 212.231 386.283 208.141 390.291 207.374Z" />
<path d="M158.428 447.827C172.312 462.915 172.213 481.01 172.116 498.847C172.005 519.048 171.897 538.917 192.104 553.709C230.153 581.561 294.499 573.969 305.358 538.258C324.095 476.635 382.766 445.565 442.202 414.09C488.203 389.73 534.662 365.127 563.419 325.928C616.329 253.805 549.563 184.381 484.115 184.063C455.44 183.924 442.5 190.783 428.729 198.083C418.993 203.244 408.842 208.625 392.422 211.908C370.542 216.282 340.663 211.659 307.813 206.577C267.249 200.301 222.157 193.324 182.004 201.721C123.26 214.007 35.7835 262.7 52.5618 341.066C62.7715 388.752 81.5037 398.099 105.713 410.179C121.288 417.951 139.13 426.855 158.428 447.827Z" />
<path d="M393.901 545.322C391.925 547.065 389.769 548.599 387.615 550.131C384.611 552.268 381.611 554.402 379.111 557.097C376.25 560.181 374.082 563.945 371.932 567.68C368.56 573.536 365.23 579.318 359.338 582.283C355.196 584.366 350.413 584.66 345.781 584.845C341.858 585.002 337.717 585.06 334.274 583.173C329.766 580.703 327.507 575.432 326.735 570.35C326.358 567.871 326.257 565.362 326.156 562.853C326.05 560.219 325.944 557.585 325.519 554.987C325.057 552.161 324.222 549.34 323.389 546.529C321.664 540.706 319.952 534.925 321.595 529.225C323.492 522.644 329.385 518.14 334.928 514.116C346.094 506.011 357.336 497.861 369.765 491.868C374.882 489.401 380.276 487.287 385.935 486.802C391.595 486.317 397.595 487.623 401.896 491.334C408.501 497.033 409.674 506.88 408.563 515.532C407.122 526.752 402.384 537.84 393.901 545.322Z" />
<path d="M554.888 338.847C552.226 341.501 547.806 340.577 544.198 339.527C527.748 334.74 510.941 331.178 493.964 328.88C493.446 328.055 494.078 326.9 494.974 326.518C495.869 326.135 496.892 326.296 497.851 326.465C517.015 329.846 536.047 333.978 554.888 338.847Z" fill="white"/>
<path d="M534.116 309.275C542.383 311.367 551.007 312.044 559.499 311.267C561.265 311.105 563.458 311.09 564.311 312.644C558.27 315.587 551.143 314.884 544.524 313.728C523.126 309.991 502.659 302.267 482.341 294.586C451.251 282.832 414.258 288.273 387.869 308.482C387.076 308.553 386.544 307.543 386.766 306.778C386.989 306.013 387.669 305.485 388.315 305.019C407.104 291.469 430.492 284.42 453.639 285.332C458.046 285.506 462.452 285.96 466.757 286.913C471.04 287.862 475.197 289.298 479.343 290.73C493.533 295.634 507.723 300.537 521.913 305.44C525.945 306.833 529.982 308.228 534.116 309.275Z" fill="white"/>
<path d="M232.459 204.549C234.41 206.488 238.03 205.148 239.317 202.718C240.604 200.287 240.268 197.354 239.898 194.629C241.243 196.642 242.626 198.696 244.561 200.152C246.496 201.607 249.124 202.376 251.384 201.509C254.655 200.254 255.913 195.971 254.859 192.631C253.805 189.29 251.069 186.771 248.25 184.69C247.529 184.158 247.732 182.934 248.422 182.362C249.112 181.79 250.073 181.7 250.969 181.674C261.713 181.365 272.425 187.178 278.022 196.354C278.833 197.683 277.453 199.439 275.922 199.723C274.391 200.008 272.857 199.394 271.333 199.074C269.809 198.754 267.958 198.851 267.048 200.115C265.943 201.65 266.912 203.737 267.28 205.593C267.648 207.448 266.272 210.083 264.571 209.255C261.453 207.738 257.267 209.01 255.52 212.004C253.773 214.999 254.725 219.268 257.579 221.236C258.701 222.01 258.094 223.999 256.812 224.463C255.53 224.926 254.099 224.292 253.046 223.426C251.994 222.56 251.137 221.454 249.988 220.721C247.786 219.317 244.637 219.639 242.763 221.458C240.89 223.277 240.477 226.416 241.816 228.658C242.803 230.312 240.144 231.988 238.307 231.407C236.471 230.826 235.034 229.226 233.136 228.896C230.41 228.421 227.88 230.896 227.263 233.593C226.646 236.29 227.419 239.089 228.187 241.747C228.57 243.073 227.006 244.308 225.636 244.137C224.266 243.965 223.192 242.91 222.291 241.864C216.535 235.176 213.369 226.313 213.584 217.492C213.611 216.396 213.721 215.216 214.437 214.387C215.153 213.557 216.686 213.384 217.258 214.319C219.387 217.803 223.232 220.472 227.308 220.228C231.384 219.985 235.184 216.133 234.527 212.103C233.993 208.831 231.029 206.552 229.565 203.577C229.907 202.367 231.567 203.663 232.459 204.549V204.549Z" fill="white"/>
<path d="M284.867 246.692C282.52 244.444 278.65 244.502 275.758 245.987C272.866 247.472 270.745 250.087 268.785 252.68C266.409 242.793 268.821 231.868 275.139 223.9C275.96 222.865 277.971 222.11 278.23 223.406C279.021 227.369 281.34 231.372 285.17 232.662C289 233.952 294.056 231.097 293.763 227.067C293.595 224.759 292.233 221.639 294.345 220.693C295.289 222.331 296.296 224.036 297.904 225.029C299.512 226.023 301.909 226.016 303.038 224.5C303.834 223.434 303.811 221.941 304.523 220.818C305.235 219.694 307.475 219.562 307.501 220.892C307.578 224.857 308.394 229.833 312.218 230.884C314.873 231.613 317.663 229.817 319.143 227.495C320.623 225.173 321.161 222.397 322.018 219.78C322.133 219.429 322.268 219.059 322.562 218.834C323.342 218.237 324.393 219.078 325.005 219.848C330.208 226.4 335.568 233.279 337.268 241.472C337.506 242.615 337.647 243.887 337.032 244.879C336.417 245.871 334.747 246.213 334.118 245.229C332.559 242.788 329.5 241.4 326.637 241.835C323.773 242.27 321.264 244.504 320.501 247.298C320.21 248.359 318.645 248.478 317.735 247.859C316.825 247.24 316.3 246.2 315.514 245.43C313.075 243.038 308.184 244.47 307.42 247.8C307.131 249.058 307.354 250.39 307.077 251.651C306.8 252.912 305.688 254.188 304.428 253.906C302.563 253.489 302.856 250.816 302.718 248.91C302.504 245.96 299.836 243.392 296.88 243.293C293.923 243.193 291.088 245.574 290.676 248.504C290.497 249.777 288.659 250.097 287.554 249.438C286.45 248.779 285.796 247.581 284.867 246.692L284.867 246.692Z" fill="white"/>
<path fill-rule="evenodd" clip-rule="evenodd" d="M106.679 348.129C106.351 345.235 106.512 342.06 108.334 339.785C110.156 337.51 114.115 336.845 115.921 339.133C119.792 344.035 127.315 345.612 132.836 342.679C133.145 335.788 133.454 328.898 133.763 322.007C133.809 320.97 133.838 319.861 133.293 318.976C132.823 318.214 132.004 317.749 131.22 317.315C125.341 314.065 119.462 310.816 113.584 307.566C111.664 306.505 109.161 305.476 107.441 306.835C105.087 308.694 101.296 306.726 100.359 303.88C99.4225 301.033 100.472 297.936 101.738 295.22C103.509 291.422 106.17 287.5 110.271 286.608C114.372 285.715 119.234 290.147 117.192 293.806C115.447 296.931 118.903 300.333 121.926 302.256C125.466 304.508 129.006 306.759 132.546 309.011C134.61 310.323 137.811 311.419 139.087 309.336C145.749 298.464 157.159 290.605 169.709 288.244C170.621 288.072 171.645 287.862 172.151 287.085C172.563 286.453 172.498 285.635 172.417 284.884C171.561 276.878 170.704 268.872 169.848 260.866C169.633 258.858 168.987 256.363 166.992 256.025C162.086 255.195 160.75 247.961 163.854 244.08C166.957 240.2 172.4 239.134 177.374 239.011C181.929 238.899 186.95 239.565 190.027 242.918C193.105 246.27 192.387 252.95 187.968 254.06C183.141 255.273 182.554 261.799 183.009 266.745C183.525 272.342 184.04 277.939 184.555 283.535C184.816 286.37 185.843 289.993 188.692 290.147C198.939 290.701 208.937 295.035 216.335 302.13C217.389 303.14 218.559 304.279 220.02 304.28C220.895 304.281 221.708 303.863 222.481 303.455C226.762 301.194 231.043 298.934 235.324 296.674C238.169 295.172 241.505 292.254 239.981 289.426C238 285.75 242.922 281.41 246.992 282.374C251.062 283.338 253.638 287.299 255.326 291.118C256.379 293.502 257.271 296.109 256.799 298.671C256.326 301.233 254.033 303.625 251.438 303.34C243.174 302.432 235.242 306.389 227.874 310.233C225.803 311.313 223.375 313.505 224.593 315.495C230.82 325.67 231.978 338.772 227.632 349.877C226.642 352.407 229.188 354.828 231.431 356.366C236.557 359.882 241.682 363.398 246.808 366.914C249.784 368.956 254.306 370.815 256.522 367.971C258.72 365.15 263.766 366.632 265.277 369.872C266.787 373.112 265.713 376.97 264.064 380.142C261.912 384.279 258.804 387.918 255.05 390.692C252.235 392.773 247.677 394.093 245.682 391.219C243.153 387.577 247.87 381.191 244.231 378.651C237.595 374.018 230.958 369.385 224.322 364.752C222.689 363.612 220.208 362.562 218.961 364.114C213.259 371.215 205.452 376.612 196.786 379.445C195.609 379.83 195.427 381.39 195.459 382.625C195.624 388.977 196.726 396.738 202.662 399.039C205.921 400.302 206.185 405.249 203.895 407.885C201.604 410.521 197.889 411.347 194.419 411.771C191.6 412.116 188.563 412.252 186.104 410.834C183.646 409.415 182.237 405.881 183.971 403.636C187.839 398.628 186.163 391.473 184.31 385.427C184.078 384.67 183.825 383.878 183.253 383.329C182.34 382.451 180.922 382.453 179.653 382.449C171.414 382.426 163.201 379.797 156.487 375.033C153.777 373.109 150.313 376.046 148.316 378.699C145.743 382.115 143.171 385.531 140.598 388.947C139.463 390.454 138.297 392.027 137.908 393.873C137.52 395.718 138.145 397.92 139.834 398.767C143.512 400.612 141.935 406.871 138.11 408.389C134.285 409.907 129.984 408.259 126.305 406.415C123.345 404.931 120.39 403.255 118.242 400.739C116.094 398.224 114.874 394.697 115.868 391.545C116.861 388.393 120.517 386.079 123.623 387.227C125.156 387.793 126.663 386.414 127.718 385.169C132.685 379.301 137.653 373.434 142.621 367.566C143.105 366.994 143.616 366.353 143.609 365.604C143.595 364.246 142.024 363.558 141.052 362.607C139.738 361.321 139.458 359.339 138.6 357.714C135.782 352.375 128.215 352.463 122.226 353.299C120.986 353.472 119.517 353.823 119.102 355.001C118.009 358.103 113.445 358.715 110.777 356.786C108.11 354.856 107.049 351.395 106.679 348.129Z" fill="white"/>
<path fill-rule="evenodd" clip-rule="evenodd" d="M424.162 433.42C422.164 434.527 422.206 437.366 422.515 439.63C423.624 447.751 424.733 455.871 425.842 463.992C426.157 466.295 426.499 468.676 427.729 470.649C428.959 472.622 431.336 474.08 433.587 473.5C437.055 472.607 440.64 475.871 440.891 479.443C441.143 483.015 438.778 486.376 435.741 488.273C432.704 490.169 429.084 490.861 425.54 491.377C420.729 492.078 415.372 492.392 411.466 489.496C407.561 486.599 407.08 479.291 411.615 477.539C413.839 476.68 413.905 473.603 413.581 471.241C412.193 461.153 410.806 451.065 409.419 440.976C409.131 438.886 408.1 436.18 406.007 436.447C396.862 437.614 387.404 436.226 378.979 432.481C376.871 431.544 374.563 433.15 372.816 434.658C369.594 437.439 366.32 440.28 364.09 443.905C361.859 447.53 360.798 452.129 362.336 456.097C363.387 458.809 360.657 461.802 357.763 462.084C354.869 462.366 352.134 460.806 349.753 459.138C347.178 457.333 344.626 455.176 343.584 452.209C342.543 449.242 343.632 445.329 346.589 444.259C355.803 440.926 363.61 433.875 367.861 425.047C358.832 417.203 351.596 407.307 346.859 396.324C337.582 396.987 328.305 397.649 319.028 398.311C315.293 398.578 310.586 399.675 309.979 403.371C309.137 408.497 301.507 409.822 297.501 406.514C293.495 403.206 292.483 397.514 292.351 392.321C292.233 387.691 292.809 382.578 296.18 379.401C299.55 376.223 306.428 376.959 307.449 381.477C307.887 383.414 310.441 383.799 312.426 383.767C322.27 383.606 332.114 383.445 341.958 383.284C343.162 383.265 344.466 383.21 345.396 382.446C346.244 381.75 346.582 380.625 346.877 379.569C348.478 373.83 350.079 368.091 351.68 362.352C352.021 361.127 352.365 359.838 352.071 358.601C351.701 357.04 350.405 355.898 349.179 354.864C345.461 351.729 340.863 348.384 336.184 349.709C330.314 351.371 323.885 344.905 325.582 339.044C327.278 333.184 336.167 331.152 340.242 335.693C344.691 340.652 349.599 345.199 354.882 349.257C355.284 349.566 355.721 349.885 356.227 349.917C356.952 349.963 357.565 349.418 358.084 348.909C364.581 342.549 371.079 336.188 377.576 329.827C378.283 329.135 379.017 328.4 379.304 327.453C379.6 326.477 379.378 325.429 379.153 324.435C378.357 320.902 377.561 317.368 376.764 313.835C376.022 310.543 374.552 306.562 371.196 306.205C366.753 305.732 365.707 298.867 368.892 295.733C372.077 292.6 377.15 292.517 381.547 293.308C383.564 293.672 385.663 294.235 387.109 295.687C388.554 297.139 389.028 299.736 387.606 301.212C385.375 303.529 385.881 307.252 386.539 310.401C387.665 315.786 388.79 321.171 389.915 326.556C390.138 327.621 390.696 328.955 391.78 328.868C407.511 327.602 423.597 331.154 437.332 338.926C439.308 340.044 441.623 338.261 443.187 336.615C448.43 331.099 453.672 325.582 458.914 320.066C461.435 317.413 464.141 313.715 462.49 310.449C460.638 306.787 464.284 302.236 468.358 301.745C472.431 301.255 476.311 303.514 479.566 306.013C484.058 309.463 488.342 314.16 488.423 319.824C488.505 325.488 481.948 330.971 477.149 327.961C473.965 325.964 470.012 328.766 467.323 331.392C462.194 336.4 457.065 341.408 451.936 346.416C450.471 347.846 448.895 349.975 449.959 351.724C456.182 361.95 459.715 373.796 460.11 385.76C460.155 387.127 461.829 387.725 463.176 387.968C470.978 389.378 478.781 390.788 486.583 392.198C488.143 392.48 490.214 392.498 490.788 391.02C492.498 386.616 499.918 388.126 501.748 392.481C503.578 396.835 501.758 401.78 499.948 406.143C498.579 409.442 496.948 413.025 493.711 414.534C490.473 416.042 485.545 413.579 486.315 410.092C486.948 407.224 483.282 405.495 480.408 404.894C472.617 403.265 464.825 401.635 457.033 400.006C449.58 413.984 438.017 425.739 424.162 433.42Z" fill="white"/>
<path fill-rule="evenodd" clip-rule="evenodd" d="M705.799 420.778C689.846 425.383 672.543 420.91 655.972 418.335C632.447 414.68 607.608 415.041 585.288 422.346C548.265 434.464 505.598 433.494 469.387 419.712C473.134 418.03 477.673 419.388 481.655 420.617C514.773 430.84 552.248 430.444 585.057 419.525C613.925 409.918 646.356 413.569 676.691 418.983C689.693 421.304 703.623 419.654 715.387 414.4C713.79 417.693 709.762 419.634 705.799 420.778Z" fill="#00160A"/>
<path fill-rule="evenodd" clip-rule="evenodd" d="M534.116 307.275C542.383 309.367 551.007 310.044 559.499 309.267C561.265 309.105 563.458 309.09 564.311 310.644C558.27 313.587 551.143 312.884 544.524 311.728C523.126 307.991 502.659 300.267 482.341 292.586C451.251 280.832 414.258 286.273 387.869 306.482C387.076 306.553 386.544 305.543 386.766 304.778C386.989 304.013 387.669 303.485 388.315 303.019C407.104 289.469 430.492 282.42 453.639 283.332C458.046 283.506 462.452 283.96 466.757 284.913C471.04 285.862 475.197 287.298 479.343 288.73C493.533 293.634 507.723 298.537 521.913 303.44C525.945 304.833 529.982 306.228 534.116 307.275Z" fill="#00160A"/>
<path fill-rule="evenodd" clip-rule="evenodd" d="M282.867 244.692C280.52 242.444 276.65 242.502 273.758 243.987C270.866 245.472 268.745 248.087 266.785 250.68C264.409 240.793 266.821 229.868 273.139 221.9C273.96 220.865 275.971 220.11 276.23 221.406C277.021 225.369 279.34 229.372 283.17 230.662C287 231.952 292.056 229.097 291.763 225.067C291.595 222.759 290.233 219.639 292.345 218.693C293.289 220.331 294.296 222.036 295.904 223.029C297.512 224.023 299.909 224.016 301.038 222.5C301.834 221.434 301.811 219.941 302.523 218.818C303.235 217.694 305.475 217.562 305.501 218.892C305.578 222.857 306.394 227.833 310.218 228.884C312.873 229.613 315.663 227.817 317.143 225.495C318.623 223.173 319.161 220.397 320.018 217.78C320.133 217.429 320.268 217.059 320.562 216.834C321.342 216.237 322.393 217.078 323.005 217.848C328.208 224.4 333.568 231.279 335.268 239.472C335.506 240.615 335.647 241.887 335.032 242.879C334.417 243.871 332.747 244.213 332.118 243.229C330.559 240.788 327.5 239.4 324.637 239.835C321.773 240.27 319.264 242.504 318.501 245.298C318.21 246.359 316.645 246.478 315.735 245.859C314.825 245.24 314.3 244.2 313.514 243.43C311.075 241.038 306.184 242.47 305.42 245.8C305.131 247.058 305.354 248.39 305.077 249.651C304.8 250.912 303.688 252.188 302.428 251.906C300.563 251.489 300.856 248.816 300.718 246.91C300.504 243.96 297.836 241.392 294.88 241.293C291.923 241.193 289.088 243.574 288.676 246.504C288.497 247.777 286.659 248.097 285.554 247.438C284.45 246.779 283.796 245.581 282.867 244.692L282.867 244.692Z" fill="#00160A"/>
<path fill-rule="evenodd" clip-rule="evenodd" d="M228.459 203.549C230.41 205.488 234.03 204.148 235.317 201.718C236.604 199.287 236.268 196.354 235.898 193.629C237.243 195.642 238.626 197.696 240.561 199.152C242.496 200.607 245.124 201.376 247.384 200.509C250.655 199.254 251.913 194.971 250.859 191.631C249.805 188.29 247.069 185.771 244.25 183.69C243.529 183.158 243.732 181.934 244.422 181.362C245.112 180.79 246.073 180.7 246.969 180.674C257.713 180.365 268.425 186.178 274.022 195.354C274.833 196.683 273.453 198.439 271.922 198.723C270.391 199.008 268.857 198.394 267.333 198.074C265.809 197.754 263.958 197.851 263.048 199.115C261.943 200.65 262.912 202.737 263.28 204.593C263.648 206.448 262.272 209.083 260.571 208.255C257.453 206.738 253.267 208.01 251.52 211.004C249.773 213.999 250.725 218.268 253.579 220.236C254.701 221.01 254.094 222.999 252.812 223.463C251.53 223.926 250.099 223.292 249.046 222.426C247.994 221.56 247.137 220.454 245.988 219.721C243.786 218.317 240.637 218.639 238.763 220.458C236.89 222.277 236.477 225.416 237.816 227.658C238.803 229.312 236.144 230.988 234.307 230.407C232.471 229.826 231.034 228.226 229.136 227.896C226.41 227.421 223.88 229.896 223.263 232.593C222.646 235.29 223.419 238.089 224.187 240.747C224.57 242.073 223.006 243.308 221.636 243.137C220.266 242.965 219.192 241.91 218.291 240.864C212.535 234.176 209.369 225.313 209.584 216.492C209.611 215.396 209.721 214.216 210.437 213.387C211.153 212.557 212.686 212.384 213.258 213.319C215.387 216.803 219.232 219.472 223.308 219.228C227.384 218.985 231.184 215.133 230.527 211.103C229.993 207.831 227.029 205.552 225.565 202.577C225.907 201.367 227.567 202.663 228.459 203.549V203.549Z" fill="#00160A"/>
<path fill-rule="evenodd" clip-rule="evenodd" d="M707.602 389.563C712.355 388.212 717.075 386.121 722.059 386.499C711.016 394.185 695.704 395.37 681.623 394.13C667.541 392.89 653.693 389.564 639.539 389.477C608.222 389.283 578.68 404.888 547.398 403.59C541.095 403.329 534.858 402.378 528.668 401.314C519.061 399.662 509.517 397.732 500.059 395.527C501.009 393.39 504.502 393.525 507.071 394.048C512.992 395.254 518.913 396.461 524.834 397.667C530.675 398.857 536.534 400.05 542.5 400.596C576.246 403.681 608.584 385.966 642.504 386.768C664.411 387.287 686.774 395.482 707.602 389.563V389.563Z" fill="#00160A"/>
<path fill-rule="evenodd" clip-rule="evenodd" d="M642.003 583.636C642.676 584.145 642.129 585.346 641.305 585.529C640.481 585.712 639.663 585.261 638.939 584.827C639.561 583.911 640.834 583.501 641.873 583.882L642.003 583.636Z" fill="#00160A"/>
<path fill-rule="evenodd" clip-rule="evenodd" d="M621.051 292.517C616.579 293.709 612.358 295.673 608.108 297.506C596.127 302.674 583.725 306.865 571.065 310.025C571.278 306.872 575.256 305.763 578.366 305.199C588.961 303.279 598.708 298.309 608.675 294.235C618.642 290.161 629.443 286.904 640.066 288.663C655.978 291.299 672.136 292.443 688.261 292.076C685.659 294.144 682.22 294.801 678.908 295.075C659.554 296.675 639.815 287.511 621.051 292.517Z" fill="#00160A"/>
<path fill-rule="evenodd" clip-rule="evenodd" d="M554.888 336.847C552.226 339.501 547.806 338.577 544.198 337.527C527.748 332.74 510.941 329.178 493.964 326.88C493.446 326.055 494.078 324.9 494.974 324.518C495.869 324.135 496.892 324.296 497.851 324.465C517.015 327.846 536.047 331.978 554.888 336.847Z" fill="#00160A"/>
<path fill-rule="evenodd" clip-rule="evenodd" d="M697.678 330.405C700.006 330.517 702.338 330.538 704.669 330.56C702.88 333.457 698.774 333.593 695.387 333.24C673.645 330.973 652.57 322.459 630.724 323.229C607.746 324.038 586.356 335.031 563.641 338.585C562.727 337.126 564.831 335.672 566.492 335.219C577.365 332.249 588.239 329.279 599.112 326.309C608.85 323.649 618.678 320.974 628.759 320.431C651.997 319.179 674.432 329.285 697.678 330.405Z" fill="#00160A"/>
<path fill-rule="evenodd" clip-rule="evenodd" d="M505.76 356.292L507.369 356.734C525.055 361.618 543.842 369.807 554.493 370.403C575.883 371.599 595.574 364.156 616.771 360.482C640.115 356.435 663.992 360.135 687.681 360.916L688.95 360.955C699.1 361.243 709.743 360.832 718.628 355.968L719.159 355.671C720.354 354.987 722.275 354.446 722.764 355.734C715.604 360.821 706.718 362.985 697.952 363.53C689.186 364.074 680.408 363.108 671.647 362.488C666.538 362.127 661.421 361.883 656.303 361.682L653.744 361.584C642.991 361.186 632.173 360.922 621.521 362.441C608.717 364.266 596.427 368.625 583.828 371.548C571.338 374.446 558.048 375.891 545.83 372.036C530.798 367.894 517.028 361.106 501.447 358.526C485.018 355.806 467.198 355.834 452.295 362.025C450.764 360.163 453.743 358.025 456.323 357.203C471.892 352.243 488.239 351.506 505.76 356.292Z" fill="#00160A"/>
<path fill-rule="evenodd" clip-rule="evenodd" d="M115.982 336.266C114.234 334.048 110.403 334.693 108.64 336.899C106.877 339.106 106.72 342.186 107.038 344.992C107.396 348.161 108.423 351.518 111.004 353.389C113.586 355.261 118.003 354.667 119.061 351.658C119.462 350.515 120.884 350.175 122.084 350.007C127.88 349.196 135.203 349.111 137.931 354.29C138.225 354.849 138.449 355.451 138.672 356.052C139.079 357.145 139.483 358.231 140.303 359.036C140.566 359.294 140.874 359.531 141.182 359.769C141.976 360.382 142.769 360.993 142.778 361.943C142.785 362.669 142.291 363.291 141.822 363.846L127.399 380.919C126.378 382.128 124.92 383.465 123.436 382.916C120.431 381.803 116.892 384.046 115.931 387.104C114.969 390.162 116.15 393.582 118.229 396.022C120.307 398.462 123.167 400.088 126.032 401.527C129.592 403.316 133.754 404.915 137.456 403.442C141.158 401.97 142.684 395.898 139.124 394.109C137.49 393.288 136.885 391.152 137.261 389.362C137.637 387.572 138.766 386.046 139.864 384.584L147.333 374.644C149.267 372.071 152.618 369.222 155.241 371.088C161.739 375.709 169.687 378.26 177.661 378.282L177.685 378.282C178.907 378.285 180.267 378.289 181.145 379.135C181.698 379.668 181.943 380.436 182.168 381.17C183.961 387.035 185.583 393.975 181.84 398.832C180.162 401.009 181.525 404.437 183.905 405.813C186.284 407.19 189.223 407.057 191.951 406.723C195.31 406.311 198.905 405.51 201.122 402.953C203.338 400.396 203.083 395.598 199.928 394.373C194.184 392.141 193.118 384.613 192.958 378.453C192.926 377.254 193.103 375.741 194.242 375.368C202.629 372.62 210.184 367.385 215.703 360.498C216.909 358.992 219.31 360.011 220.891 361.117L240.159 374.597C242.031 375.908 241.617 378.272 241.187 380.731C240.808 382.896 240.416 385.134 241.563 386.788C243.494 389.575 247.904 388.295 250.629 386.277C254.262 383.586 257.27 380.057 259.352 376.043C260.949 372.967 261.988 369.225 260.526 366.082C259.064 362.94 254.181 361.502 252.054 364.238C249.909 366.997 245.532 365.194 242.652 363.214L227.771 352.982C225.6 351.49 223.136 349.142 224.094 346.688C228.3 335.916 227.179 323.208 221.153 313.339C219.974 311.409 222.324 309.283 224.328 308.235C231.459 304.507 239.136 300.668 247.133 301.549C249.645 301.826 251.864 299.505 252.321 297.02C252.779 294.535 251.915 292.006 250.896 289.694C249.262 285.99 246.769 282.148 242.83 281.213C238.891 280.278 234.128 284.488 236.045 288.053C237.52 290.796 234.291 293.627 231.539 295.083L219.11 301.66C218.361 302.056 217.574 302.462 216.728 302.461C215.329 302.459 214.206 301.379 213.195 300.408L213.161 300.376C206.002 293.494 196.325 289.29 186.409 288.753C183.651 288.603 182.658 285.089 182.405 282.339L180.909 266.053C180.469 261.256 181.036 254.926 185.708 253.75C189.984 252.673 190.679 246.194 187.701 242.942C184.722 239.69 179.864 239.044 175.456 239.153C170.642 239.272 165.374 240.306 162.371 244.07C159.367 247.834 160.66 254.851 165.407 255.656C167.339 255.983 167.964 258.404 168.172 260.352L170.658 283.648C170.736 284.376 170.799 285.169 170.4 285.783C169.911 286.536 168.92 286.74 168.037 286.906C155.891 289.197 144.85 296.819 138.402 307.365C137.167 309.385 134.069 308.323 132.072 307.05L121.794 300.498C118.869 298.633 115.524 295.333 117.212 292.302C119.189 288.753 114.483 284.454 110.514 285.319C106.545 286.185 103.97 289.989 102.256 293.673C101.031 296.307 100.015 299.312 100.922 302.073C101.828 304.833 105.497 306.742 107.775 304.939C109.44 303.621 111.863 304.619 113.72 305.648L130.788 315.104C131.547 315.525 132.34 315.976 132.795 316.716C133.322 317.574 133.294 318.649 133.249 319.655L132.352 339.706C127.009 342.551 119.728 341.021 115.982 336.266ZM168.148 250.607C168.178 250.617 168.209 250.627 168.239 250.637C173.624 252.395 179.949 250.831 183.894 246.765L185.002 247.451C184.267 249.154 182.535 250.114 180.887 251.027C180.7 251.13 180.514 251.233 180.331 251.336C178.532 252.352 176.654 253.901 176.688 255.966C176.851 265.768 177.485 275.562 178.589 285.302C178.767 286.871 176.354 287.921 175.327 286.721C174.898 286.22 174.767 285.537 174.655 284.887C173.139 276.078 172.303 267.153 172.157 258.216C172.132 256.714 172.078 255.074 171.101 253.934C170.284 252.981 169.039 252.619 167.794 252.257C166.545 251.895 165.296 251.532 164.481 250.572C165.446 249.724 166.914 250.204 168.148 250.607ZM125.026 398.062C122.903 396.906 120.802 395.449 119.719 393.287C118.637 391.125 118.937 388.112 120.945 386.765C122.285 385.867 124.081 385.89 125.592 386.452C127.103 387.014 128.386 388.049 129.605 389.105C131.464 390.714 133.246 392.412 134.944 394.191C135.959 395.254 137.011 396.537 136.868 398C136.719 399.521 135.24 400.647 133.728 400.87C132.216 401.092 130.694 400.609 129.272 400.048C127.818 399.474 126.399 398.81 125.026 398.062ZM245.144 385.611C243.688 380.048 245.874 373.71 250.45 370.228C251.809 369.194 253.696 368.395 255.175 369.249C256.301 369.899 256.775 371.346 256.614 372.637C256.453 373.927 255.774 375.09 255.045 376.167C252.468 379.972 249.066 383.216 245.144 385.611ZM130.776 383.482C135.236 377.382 139.771 371.202 145.694 366.51C146.228 366.087 146.96 365.662 147.541 366.017C148.354 366.514 147.85 367.763 147.274 368.522L134.755 385.007C134.284 385.628 133.77 386.28 133.033 386.535C131.445 387.086 129.784 384.839 130.776 383.482ZM220.502 356.07C220.041 355.219 220.456 353.859 221.423 353.829C221.862 353.815 222.258 354.073 222.621 354.32L244.871 369.474C245.071 369.61 245.296 369.799 245.263 370.039C245.233 370.251 245.02 370.397 244.821 370.533C244.59 370.691 244.378 370.836 244.492 371.056C244.735 371.523 244.252 372.101 243.729 372.159C243.206 372.216 242.711 371.936 242.261 371.663C237.419 368.724 232.769 365.465 228.354 361.917C228.141 361.746 227.928 361.574 227.716 361.402C226.127 360.117 224.533 358.828 222.748 357.839C222.668 357.794 222.586 357.75 222.504 357.705C221.727 357.281 220.919 356.839 220.502 356.07ZM105.938 292.145C106.875 290.677 108.352 289.404 110.092 289.309C111.831 289.215 113.659 290.739 113.388 292.46C113.067 294.507 112.726 296.61 111.664 298.39C110.603 300.17 108.636 301.571 106.577 301.337C104.518 301.103 102.803 298.729 103.709 296.866C103.985 296.3 104.23 295.717 104.475 295.135C104.908 294.109 105.339 293.083 105.938 292.145ZM191.944 403.337C191.035 403.567 190.126 403.797 189.192 403.841C187.367 403.925 185.224 402.877 185.123 401.053C185.033 399.429 186.566 398.211 188.014 397.469C189.539 396.687 191.223 396.078 192.932 396.214C194.64 396.351 196.363 397.387 196.882 399.021C197.4 400.655 196.282 402.731 194.571 402.841C193.681 402.898 192.812 403.118 191.944 403.337ZM166.375 245.595C170.19 242.06 176.196 241.125 180.906 243.333C181.33 243.532 181.778 243.79 181.941 244.23C182.268 245.109 181.282 245.892 180.416 246.253C175.948 248.118 170.649 247.87 166.375 245.595ZM111.062 339.13C112.383 338.727 113.682 339.838 114.428 340.999C115.58 342.792 116.172 344.938 116.103 347.067C116.055 348.509 115.48 350.191 114.084 350.551C112.541 350.949 111.166 349.465 110.487 348.023C109.689 346.328 109.273 344.453 109.279 342.579C109.284 341.19 109.734 339.536 111.062 339.13ZM187.194 388.634L185.411 379.992C185.213 379.032 185.05 377.921 185.676 377.168C186.502 376.174 188.232 376.542 189.039 377.551C189.846 378.56 189.985 379.931 190.093 381.218L190.815 389.836C190.846 390.212 190.875 390.606 190.721 390.951C190.336 391.812 189.005 391.814 188.308 391.18C187.61 390.545 187.384 389.557 187.194 388.634ZM132.757 310.759C133.21 311.123 133.682 311.521 133.869 312.072C134.056 312.623 133.816 313.359 133.249 313.49C132.935 313.562 132.661 313.411 132.368 313.249C132.267 313.194 132.164 313.137 132.057 313.088C127.239 310.874 120.128 306.014 115.223 302.661C114.966 302.486 114.716 302.315 114.472 302.148C113.777 301.673 112.99 300.855 113.41 300.126C113.851 299.361 115.015 299.707 115.777 300.152C116.66 300.669 117.629 301.225 118.649 301.812C123.329 304.502 129.098 307.818 132.757 310.759ZM237.908 298.419L219.344 307.09C218.754 307.366 217.69 307.281 217.871 306.655C223.51 302.396 229.747 298.927 236.341 296.384C236.888 296.174 237.468 295.965 238.047 296.056C238.626 296.147 239.184 296.65 239.119 297.232C239.054 297.821 238.445 298.168 237.908 298.419ZM239.544 283.783C240.187 283.77 240.301 284.687 240.241 285.327C239.766 290.356 242.98 295.508 247.705 297.293C247.82 297.98 247.093 298.578 246.397 298.584C245.7 298.591 245.07 298.19 244.512 297.773C240.512 294.783 237.76 289.695 238.746 284.8C238.838 284.342 239.077 283.792 239.544 283.783ZM247.732 293.855C244.973 293.267 243.681 290.156 242.829 287.466C242.544 286.567 242.564 285.18 243.507 285.127C243.865 285.107 244.187 285.331 244.463 285.56C246.847 287.542 248.123 290.779 247.732 293.855ZM122.185 344.238L131.393 344.222C132.466 344.221 133.929 344.614 133.828 345.682C130.18 346.546 126.357 346.664 122.664 346.026C121.819 345.88 120.755 344.983 121.406 344.425C121.614 344.248 121.912 344.238 122.185 344.238ZM179.093 375.675C203.29 375.675 222.907 356.434 222.907 332.698C222.907 308.963 203.29 289.722 179.093 289.722C154.895 289.722 135.279 308.963 135.279 332.698C135.279 356.434 154.895 375.675 179.093 375.675Z" fill="#00160A"/>
<path fill-rule="evenodd" clip-rule="evenodd" d="M417.515 438.63C418.624 446.751 419.733 454.871 420.842 462.992C421.157 465.295 421.499 467.676 422.729 469.649C423.959 471.622 426.336 473.08 428.587 472.5C432.055 471.607 435.64 474.871 435.891 478.443C436.143 482.015 433.778 485.376 430.741 487.273C427.704 489.169 424.084 489.861 420.54 490.377C415.729 491.078 410.372 491.392 406.466 488.496C402.561 485.599 402.08 478.291 406.615 476.539C408.839 475.68 408.905 472.603 408.581 470.241C407.193 460.153 405.806 450.065 404.419 439.976C404.131 437.886 403.1 435.18 401.007 435.447C391.862 436.614 382.404 435.226 373.979 431.481C371.871 430.544 369.563 432.15 367.816 433.658C364.594 436.439 361.32 439.28 359.09 442.905C356.859 446.53 355.798 451.129 357.336 455.097C358.387 457.809 355.657 460.802 352.763 461.084C349.869 461.366 347.134 459.806 344.753 458.138C342.178 456.333 339.626 454.176 338.584 451.209C337.543 448.242 338.632 444.329 341.589 443.259C350.803 439.926 358.61 432.875 362.861 424.047C353.832 416.203 346.596 406.307 341.859 395.324C332.582 395.987 323.305 396.649 314.028 397.311C310.293 397.578 305.586 398.675 304.979 402.371C304.137 407.497 296.507 408.822 292.501 405.514C288.495 402.206 287.483 396.514 287.351 391.321C287.233 386.691 287.809 381.578 291.18 378.401C294.55 375.223 301.428 375.959 302.449 380.477C302.887 382.414 305.441 382.799 307.426 382.767C317.27 382.606 327.114 382.445 336.958 382.284C338.162 382.265 339.466 382.21 340.396 381.446C341.244 380.75 341.582 379.625 341.877 378.569C343.478 372.83 345.079 367.091 346.68 361.352C347.021 360.127 347.365 358.838 347.071 357.601C346.701 356.04 345.108 354.559 343.762 353.668C341.118 351.916 338.916 347.864 335.242 347.304C334.116 347.132 332.28 347.132 331.664 347.909C329.667 350.431 324.629 350.241 322.292 348.257C319.524 345.909 319.662 341.222 320.582 338.044C322.278 332.184 331.381 329.587 335.455 334.128C336.122 334.871 335.86 337.32 336.547 338.044C340.445 342.154 345.39 344.807 349.882 348.257C350.284 348.566 350.721 348.885 351.227 348.917C351.952 348.963 352.565 348.418 353.084 347.909C359.581 341.549 366.079 335.188 372.576 328.827C373.283 328.135 374.017 327.4 374.304 326.453C374.6 325.477 374.378 324.429 374.153 323.435C373.357 319.902 372.561 316.368 371.764 312.835C371.022 309.543 369.552 305.562 366.196 305.205C361.753 304.732 360.707 297.867 363.892 294.733C367.077 291.6 372.15 291.517 376.547 292.308C378.564 292.672 380.663 293.235 382.109 294.687C383.554 296.139 384.028 298.736 382.606 300.212C380.375 302.529 380.881 306.252 381.539 309.401C382.665 314.786 383.79 320.171 384.915 325.556C385.138 326.621 385.696 327.955 386.78 327.868C402.511 326.602 418.597 330.154 432.332 337.926C434.308 339.044 436.623 337.261 438.187 335.615C443.43 330.099 448.672 324.582 453.914 319.066C456.435 316.413 459.141 312.715 457.49 309.449C455.638 305.787 459.284 301.236 463.358 300.745C467.431 300.255 471.311 302.514 474.566 305.013C479.058 308.463 483.342 313.16 483.423 318.824C483.505 324.488 476.948 329.971 472.149 326.961C468.965 324.964 465.012 327.766 462.323 330.392C457.194 335.4 452.065 340.408 446.936 345.416C445.471 346.846 443.895 348.975 444.959 350.724C451.182 360.95 454.715 372.796 455.11 384.76C455.155 386.127 456.829 386.725 458.176 386.968C465.978 388.378 473.781 389.788 481.583 391.198C483.143 391.48 485.214 391.498 485.788 390.02C487.498 385.616 494.918 387.126 496.748 391.481C498.578 395.835 496.758 400.78 494.948 405.143C493.579 408.442 491.948 412.025 488.711 413.534C485.473 415.042 480.545 412.579 481.315 409.092C481.948 406.224 478.282 404.495 475.408 403.894C467.617 402.265 459.825 400.635 452.033 399.006C444.58 412.984 433.017 424.739 419.162 432.42C417.164 433.527 417.206 436.366 417.515 438.63ZM306.99 392.967C307.82 393.518 308.881 393.543 309.877 393.544C319.72 393.554 329.562 393.077 339.358 392.115C340.399 392.013 341.198 391.063 341.462 390.05C341.727 389.037 341.571 387.968 341.415 386.933C341.333 386.391 341.202 385.775 340.724 385.505C340.43 385.339 340.073 385.349 339.735 385.364C328.753 385.845 317.771 386.327 306.788 386.808C306.45 386.823 306.09 386.845 305.816 387.045C305.357 387.381 305.34 388.047 305.366 388.615C305.442 390.224 305.649 392.076 306.99 392.967ZM439.927 344.599C440.803 345.253 442.164 345.4 442.933 344.623C449.612 337.874 456.291 331.125 462.97 324.376C463.276 324.067 463.602 323.715 463.622 323.28C463.642 322.876 463.391 322.514 463.151 322.188C462.194 320.883 461.237 319.579 460.281 318.275C459.75 317.552 458.623 318.176 457.996 318.817C451.247 325.711 444.674 332.776 438.284 340.004C438.074 340.241 437.857 340.494 437.794 340.804C437.715 341.192 437.892 341.581 438.065 341.937C438.542 342.921 439.051 343.944 439.927 344.599ZM418.329 468.447C416.146 457.979 414.728 447.351 414.091 436.677C414.032 435.685 412.978 434.992 411.984 434.97C410.991 434.947 410.06 435.412 409.175 435.865C408.864 436.024 408.536 436.199 408.359 436.501C408.159 436.844 408.198 437.271 408.244 437.665C409.358 447.244 410.471 456.823 411.585 466.402C411.831 468.518 412.36 471.025 414.342 471.807C416.319 472.587 418.762 470.527 418.329 468.447ZM457.134 396.914C464.66 398.568 472.187 400.223 479.713 401.877C480.238 401.992 480.815 402.101 481.29 401.85C481.57 401.702 481.775 401.447 481.956 401.188C482.763 400.031 483.244 398.588 483.003 397.197C482.762 395.807 481.692 394.525 480.301 394.289C473.436 393.127 466.571 391.965 459.707 390.803C458.251 390.556 456.727 390.314 455.323 390.771C453.919 391.228 452.702 392.627 452.983 394.077C453.32 395.826 455.394 396.532 457.134 396.914ZM291.426 384.69C290.789 385.559 290.522 386.643 290.357 387.709C289.684 392.062 290.524 396.635 292.7 400.465C293.367 401.641 294.351 402.861 295.702 402.923C296.865 402.976 297.912 402.091 298.392 401.03C298.871 399.969 298.895 398.764 298.858 397.6C298.745 393.951 298.128 390.318 297.03 386.837C296.559 385.344 295.75 383.659 294.208 383.391C293.146 383.207 292.064 383.82 291.426 384.69ZM469.916 305.921C468.449 305.007 466.432 306.475 466.164 308.183C465.896 309.891 466.776 311.55 467.675 313.027C468.805 314.885 470.11 316.783 472.076 317.712C474.042 318.642 476.827 318.171 477.739 316.197C478.736 314.036 477.075 311.603 475.326 309.989C473.666 308.456 471.834 307.117 469.916 305.921ZM380.968 324.521C380.289 319.155 379.377 313.82 378.236 308.533C378.009 307.485 377.63 306.27 376.613 305.93C375.594 305.59 374.482 306.415 374.118 307.426C373.754 308.436 373.935 309.552 374.131 310.608C375.043 315.521 376.178 320.392 377.533 325.202C377.861 326.366 378.633 327.807 379.816 327.554C380.984 327.304 381.118 325.706 380.968 324.521ZM407.231 481.602C406.735 483.02 407.016 484.794 408.217 485.697C410.068 481.499 413.98 478.271 418.452 477.249C422.924 476.227 427.85 477.437 431.34 480.414C432.095 481.058 433.324 480.027 433.195 479.043C433.066 478.059 432.177 477.37 431.322 476.865C424.828 473.024 416.018 473.558 410.036 478.157C408.845 479.072 407.727 480.184 407.231 481.602ZM365.813 426.725C364.556 427.061 363.652 428.128 362.833 429.139C359.61 433.114 356.388 437.088 353.165 441.063C352.726 441.604 352.268 442.192 352.211 442.886C352.155 443.581 352.713 444.364 353.402 444.26C353.768 444.205 354.056 443.929 354.317 443.666C358.708 439.253 363.1 434.841 367.492 430.428C368.024 429.893 368.59 429.286 368.631 428.532C368.701 427.233 367.07 426.39 365.813 426.725ZM420.489 480.736C418.089 481.053 415.684 481.722 413.7 483.111C413.03 483.58 412.367 484.216 412.306 485.032C412.241 485.904 412.922 486.698 413.732 487.028C414.542 487.359 415.451 487.321 416.321 487.234C420.802 486.785 425.158 485.14 428.816 482.514C426.638 480.553 423.395 480.351 420.489 480.736ZM477.34 321.273C473.496 322.155 469.243 320.99 466.384 318.273C463.525 315.556 462.146 311.368 462.831 307.484C463.013 306.452 463.331 305.428 463.277 304.381C461.333 305.826 460.567 308.477 460.863 310.881C461.16 313.285 462.362 315.483 463.73 317.482C464.713 318.918 465.805 320.3 467.155 321.399C469.633 323.418 472.949 324.373 476.121 323.984C478.028 323.75 480.127 322.775 480.564 320.904C479.504 320.637 478.406 321.029 477.34 321.273ZM369.208 300.066C370.77 300.221 372.363 300.055 373.859 299.581C375.038 299.207 376.218 298.587 376.844 297.521C377.471 296.454 377.315 294.866 376.256 294.227C375.634 293.852 374.859 293.867 374.135 293.929C372.372 294.08 370.627 294.447 368.952 295.018C367.541 295.499 365.928 296.548 366.157 298.021C366.36 299.327 367.894 299.935 369.208 300.066ZM487.92 392.096C487.033 393.037 486.514 394.262 486.082 395.481C484.701 399.387 484.034 403.543 484.123 407.685C484.153 409.052 484.704 410.843 486.07 410.788C487.015 410.75 487.649 409.717 487.664 408.771C487.679 407.826 487.267 406.934 486.991 406.03C485.793 402.113 487.161 397.812 489.398 394.381C490.147 393.233 491.005 392.12 491.402 390.807C490.136 390.54 488.808 391.155 487.92 392.096ZM338.584 342.653C337.672 341.916 336.27 341.204 335.455 342.048C334.562 342.973 335.574 344.453 336.547 345.294C340.066 348.337 345.093 351.644 348.878 354.348C349.507 353.598 349.479 352.462 349.066 351.575C348.652 350.688 347.922 349.996 347.202 349.334C344.853 347.172 341.067 344.66 338.584 342.653ZM345.078 448.33C344.676 448.075 344.239 447.826 343.762 447.827C342.893 447.828 342.219 448.705 342.162 449.573C342.106 450.441 342.512 451.27 342.981 452.003C344.258 453.998 346.087 455.637 348.211 456.687C349.058 457.105 350.162 457.401 350.878 456.785C351.817 455.976 351.238 454.437 350.51 453.434C349.041 451.412 347.188 449.67 345.078 448.33ZM490.822 405.943C491.697 406.233 492.421 405.228 492.763 404.373C493.763 401.876 494.405 399.236 494.664 396.56C494.694 396.245 494.718 395.919 494.613 395.621C494.372 394.932 493.493 394.636 492.79 394.831C492.087 395.026 491.544 395.582 491.109 396.168C489.303 398.599 488.828 401.959 489.889 404.795C490.068 405.273 490.337 405.783 490.822 405.943ZM302.378 397.541C303.002 391.761 301.772 385.795 298.913 380.734C297.906 381.12 298.118 382.588 298.483 383.603C300.262 388.557 301.222 393.804 301.31 399.068C301.997 399.093 302.305 398.224 302.378 397.541ZM378.264 299.002C375.374 301.921 370.716 302.928 366.878 301.465C366.463 301.79 366.588 302.5 366.989 302.844C367.39 303.187 367.949 303.262 368.474 303.314C370.873 303.551 373.343 303.615 375.645 302.897C377.947 302.18 380.076 300.567 380.892 298.298C380.327 297.409 379.005 298.254 378.264 299.002ZM348.732 445.024C348.498 444.839 348.243 444.653 347.946 444.623C347.439 444.574 346.965 445.102 347.068 445.6C349.772 448.004 352.09 450.842 353.905 453.971C354.14 454.377 354.84 454.159 354.995 453.716C355.15 453.274 354.948 452.793 354.738 452.374C353.304 449.526 351.238 446.997 348.732 445.024ZM325.027 342.054C326.519 340.236 330.298 334.693 328.685 334.693C326.189 334.693 323.309 339.143 322.975 341.75C322.935 342.061 322.924 342.406 323.116 342.653C323.591 343.263 324.537 342.651 325.027 342.054ZM330.822 336.482C330.459 336.94 330.443 337.571 330.376 338.151C330.234 339.386 329.781 340.584 329.072 341.605C328.528 342.388 326.769 343.543 326.41 344.623C326.143 345.426 327.093 346.403 327.536 346.013C330.133 343.731 331.854 340.476 332.28 337.045C332.302 336.867 332.32 336.682 332.26 336.513C332.063 335.962 331.185 336.024 330.822 336.482Z" fill="#00160A"/>
<path fill-rule="evenodd" clip-rule="evenodd" d="M344.816 384.374C345.222 376.012 347.565 367.835 350.79 360.109C354.032 352.342 358.329 344.769 364.846 339.443C377.078 329.448 394.601 329.255 410.123 332.345L410.652 332.451C419.496 334.259 428.45 337.109 435.215 343.086C443.366 350.288 447.282 361.017 450.89 371.279C451.122 371.938 450.955 372.917 450.582 373.339C450.777 373.562 450.917 373.763 450.996 373.935C452.191 376.523 452.49 386.054 452.113 388.879C450.939 397.658 445.813 405.402 440.093 412.164C434.094 419.255 427.13 425.766 418.708 429.683C408.239 434.553 395.963 435.055 384.88 431.817C374.014 428.642 364.302 422.011 356.783 413.546L354.786 411.283C349.329 406.022 344.462 391.668 344.816 384.374Z" fill="white"/>
<path fill-rule="evenodd" clip-rule="evenodd" d="M207.484 301.979C208.002 301.789 208.577 302.055 208.767 302.573C208.958 303.091 208.692 303.666 208.173 303.857L207.747 304.008C206.305 304.506 204.57 304.938 200.716 305.814L197.218 306.613C196.423 306.8 195.797 306.953 195.151 307.118C192.015 307.923 190.873 309.098 190.925 310.842L190.938 311.095C191.02 312.269 191.452 313.394 192.779 316.014L193.911 318.213C194.483 319.328 194.861 320.115 195.214 320.944C196.589 324.182 196.901 326.776 195.811 329.141C193.891 333.307 191.257 334.247 185.004 334.398L184.201 334.415C179.972 334.501 178.004 334.93 176.306 336.535C175.517 337.282 175.028 338.001 174.766 338.744C174.406 339.768 174.418 340.542 174.781 342.687L174.883 343.279C175.567 347.145 175.484 349.512 173.966 352.795C173.247 354.349 172.06 355.045 169.359 356.001L168.312 356.374C165.761 357.306 164.525 358.203 163.916 359.923C163.068 362.314 163.67 366.208 166.142 372.114C166.356 372.623 166.116 373.209 165.606 373.422C165.097 373.636 164.511 373.396 164.298 372.886L163.974 372.101C159.639 361.389 161.105 357.057 167.178 354.665L168.196 354.291L168.692 354.116C170.885 353.339 171.743 352.836 172.15 351.956C173.415 349.222 173.526 347.276 172.98 344.01L172.802 342.977C172.385 340.506 172.372 339.521 172.88 338.079C173.253 337.022 173.921 336.038 174.932 335.082C177.047 333.082 179.318 332.542 183.752 332.425L185.308 332.39C190.579 332.235 192.533 331.474 193.995 328.304C194.798 326.561 194.55 324.496 193.373 321.726L193.188 321.302C192.841 320.522 192.434 319.703 191.804 318.492L190.957 316.845C189.396 313.764 188.976 312.564 188.926 310.901C188.843 308.102 190.693 306.197 194.654 305.181L195.649 304.932C195.922 304.865 196.207 304.797 196.516 304.724L201.977 303.473C204.896 302.796 206.27 302.425 207.484 301.979Z" fill="#E7EAEE"/>
<path fill-rule="evenodd" clip-rule="evenodd" d="M429.215 340C430.021 339.808 430.83 340.306 431.022 341.112C431.214 341.918 430.716 342.727 429.91 342.918C423.892 344.351 422.467 344.24 423.381 347.299L423.434 347.47C423.669 348.199 424 348.941 424.531 349.961L425.68 352.122C426.859 354.375 426.998 354.917 426.904 356.114C426.724 358.411 424.72 359.411 421.088 359.464L420.645 359.465L419.72 359.439C417.264 359.374 415.052 359.419 412.859 359.672C409.132 360.101 406.696 361.076 406.139 362.375C405.368 364.168 405.655 365.719 407.017 368.247L407.681 369.429L407.859 369.74C410.725 374.728 411.353 377.582 409.119 381.685C406.945 385.678 404.346 386.685 398.597 386.954L397.067 387.013C393.032 387.175 391.045 387.758 389.328 389.71C387.041 392.31 386.997 393.913 388.292 397.238L388.608 398.062C389.203 399.649 389.362 400.34 389.335 401.419C389.316 402.167 389.146 402.887 388.81 403.58C387.885 405.487 386.291 406.702 383.284 408.218L382.397 408.655C382.027 408.834 381.268 409.199 381.035 409.313L380.492 409.583C378.592 410.548 377.711 411.219 377.479 411.857C376.454 414.67 378.075 420.261 381.608 427.853C381.957 428.604 381.632 429.497 380.881 429.846C380.129 430.196 379.237 429.87 378.888 429.119C375.05 420.872 373.296 414.574 374.66 410.83C375.243 409.231 376.51 408.236 379.098 406.925L380.358 406.308C380.731 406.128 381.135 405.934 381.254 405.876C384.127 404.479 385.514 403.501 386.111 402.271C386.257 401.968 386.328 401.67 386.336 401.344C386.351 400.755 386.233 400.27 385.762 399.019L385.496 398.326C383.837 394.064 383.913 391.325 387.076 387.729C389.412 385.073 392.009 384.254 396.542 384.034L397.756 383.986C403.048 383.8 404.89 383.179 406.484 380.25C407.99 377.485 407.692 375.613 405.629 371.891L404.555 369.998C402.65 366.56 402.128 364.11 403.382 361.19C404.521 358.539 407.771 357.239 412.515 356.692C414.616 356.449 416.695 356.385 418.947 356.422L420.772 356.467C422.204 356.467 423.165 356.319 423.678 356.079C423.867 355.991 423.9 355.97 423.909 355.912L423.913 355.879C423.947 355.442 423.777 354.964 422.931 353.345L422.198 351.966C421.401 350.482 420.926 349.469 420.578 348.39C418.977 343.418 421.505 341.836 429.215 340Z" fill="#E7EAEE"/>
<path fill-rule="evenodd" clip-rule="evenodd" d="M381.673 341C388.088 341 390.718 345.701 387.548 351.5C384.378 357.299 378.226 362 373.808 362C369.389 362 366.759 357.299 367.932 351.5C369.106 345.701 375.257 341 381.673 341ZM381.673 344C376.645 344 371.754 347.737 370.873 352.095C370.034 356.238 371.58 359 373.808 359C376.971 359 382.223 354.987 384.916 350.061C387.012 346.226 385.767 344 381.673 344Z" fill="#FFB61D"/>
<path fill-rule="evenodd" clip-rule="evenodd" d="M410.655 405C417.07 405 423.247 409.029 423.753 414C423.49 418.971 417.553 423 411.19 423C404.828 423 399.854 418.971 399.822 414C399.505 409.029 404.24 405 410.655 405ZM410.655 408C405.967 408 402.752 410.61 402.808 413.621L402.822 413.981C402.842 417.171 406.39 420 411.19 420C416.027 420 420.257 417.152 420.72 414.196L420.736 414.071L420.714 413.947C420.107 410.977 415.767 408.114 410.945 408.003L410.655 408Z" fill="#FFB61D"/>
<path fill-rule="evenodd" clip-rule="evenodd" d="M156.821 309.44C155.618 302.716 160.175 297.877 167 298.632C173.825 299.388 178.382 304.227 177.179 309.44C175.975 314.654 171.418 319.493 167 320.248C162.582 321.004 158.024 316.165 156.821 309.44ZM166.78 300.62C161.28 300.011 157.823 303.682 158.79 309.088C159.823 314.861 163.542 318.81 166.663 318.277C170.237 317.666 174.199 313.459 175.23 308.99C176.131 305.086 172.524 301.256 166.78 300.62Z" fill="#FFB61D"/>
<path fill-rule="evenodd" clip-rule="evenodd" d="M145.603 325.964C150.021 324.84 153.916 329.426 154.301 336.208C154.687 342.989 151.418 348.147 147 347.728C142.582 347.308 138.687 342.722 138.301 337.484C137.916 332.246 141.185 327.089 145.603 325.964ZM152.305 336.321C151.981 330.63 149.03 327.156 146.096 327.902C142.669 328.774 139.978 333.021 140.296 337.337C140.614 341.656 143.806 345.416 147.189 345.737C150.112 346.014 152.63 342.042 152.305 336.321Z" fill="#FFB61D"/>
<path fill-rule="evenodd" clip-rule="evenodd" d="M184.324 351.336C190.438 351 193.739 355.036 191.697 360.352C189.655 365.668 184.418 370.249 180 370.586C175.582 370.922 172.28 366.885 172.626 361.569C172.972 356.254 178.21 351.672 184.324 351.336ZM189.83 359.635C191.33 355.731 189.156 353.073 184.434 353.333C179.281 353.616 174.899 357.45 174.622 361.699C174.349 365.889 176.752 368.827 179.848 368.591C183.428 368.319 188.047 364.278 189.83 359.635Z" fill="#FFB61D"/>
<path fill-rule="evenodd" clip-rule="evenodd" d="M210 322.231C215.263 321.207 219.187 324.966 218.765 330.628C218.343 336.289 214.418 341.709 210 342.733C205.582 343.757 201.658 339.998 201.235 334.337C200.813 328.675 204.737 323.256 210 322.231ZM216.771 330.479C217.097 326.097 214.313 323.43 210.382 324.194C206.136 325.021 202.881 329.516 203.23 334.188C203.569 338.732 206.459 341.501 209.548 340.785C213.042 339.975 216.409 335.325 216.771 330.479Z" fill="#FFB61D"/>
<path fill-rule="evenodd" clip-rule="evenodd" d="M429.848 368C436.263 368 442.44 372.029 442.946 377C442.683 381.971 436.746 386 430.383 386C424.021 386 419.047 381.971 419.015 377C418.698 372.029 423.433 368 429.848 368ZM429.848 371C425.16 371 421.945 373.61 422.001 376.621L422.015 376.981C422.035 380.171 425.583 383 430.383 383C435.22 383 439.45 380.152 439.913 377.196L439.929 377.071L439.907 376.947C439.3 373.977 434.96 371.114 430.138 371.003L429.848 371Z" fill="#FFB61D"/>
<path fill-rule="evenodd" clip-rule="evenodd" d="M360.607 379.196C365.697 376.05 370.598 378.734 371 385.622C370.791 392.774 366.08 399.317 361.032 400.187C355.984 401.057 352.037 397.876 352.012 393.124C351.761 388.495 355.517 382.341 360.607 379.196ZM367.996 385.662L367.988 385.54C367.647 381.156 365.294 379.826 362.184 381.748C358.087 384.279 354.964 389.263 355 392.722L355.012 393.108C355.027 395.995 357.295 397.787 360.523 397.231C364.041 396.624 367.698 391.446 367.989 385.846L367.996 385.662Z" fill="#FFB61D"/>
</svg>
