<svg width="750" height="750" viewBox="0 0 750 750" fill="none" xmlns="http://www.w3.org/2000/svg">
<rect width="750" height="750" fill="none"/>
<path fill-rule="evenodd" clip-rule="evenodd" d="M683.382 502.56C632.687 604.791 413.311 692.788 195.311 598.306C69.9204 543.962 22.4887 413.008 20.005 352.437C18.0519 304.804 53.5626 254.019 75.0003 232.199C120.569 185.818 363.763 128.049 419.311 131.016C497.73 128.815 546.652 196.874 608.377 200.119C652.265 202.427 783.687 300.285 683.382 502.56Z" />
<path fill-rule="evenodd" clip-rule="evenodd" d="M377.801 345.063C377.546 348.864 377.858 352.702 378.723 356.412C379.087 357.976 381.435 358.265 382.655 357.22C383.875 356.175 384.201 354.439 384.332 352.838C384.526 350.471 384.464 348.083 384.146 345.73C383.982 344.514 383.73 343.259 382.997 342.275C382.263 341.292 380.923 340.661 379.777 341.101C378.317 341.66 377.905 343.504 377.801 345.063Z" fill="white"/>
<path fill-rule="evenodd" clip-rule="evenodd" d="M193.183 251.794C206.581 245.159 222.581 243.97 236.812 248.553C240.388 241.682 245.655 235.7 252.017 231.284C253.245 230.432 255.002 229.662 256.106 230.669C255.661 237.729 255.216 244.81 255.633 251.871C255.958 257.368 256.805 262.833 256.882 268.339C257.106 284.252 250.867 299.665 242.381 313.128C262.755 326.831 278.115 347.824 285.01 371.39C282.126 372.878 206.68 375.5 165.869 372.237C164.924 372.878 164.04 371.331 163.932 370.194C162.84 358.696 162.227 346.989 164.612 335.689C166.998 324.388 172.699 313.404 182.117 306.72C173.376 287.689 176.776 264.343 166.112 246.319C165.479 245.249 164.946 243.58 166.055 243.016C166.466 242.807 166.957 242.872 167.412 242.949C174.847 244.211 181.932 247.48 187.715 252.32C189.207 253.569 191.44 252.657 193.183 251.794Z" fill="white"/>
<path fill-rule="evenodd" clip-rule="evenodd" d="M482.296 370.225C482.245 370.225 490.042 358.534 494.824 353.095C499.19 348.129 501.75 341.607 501.927 334.997C486.829 334.4 471.807 331.906 457.327 327.591C455.111 326.931 452.825 326.181 451.145 324.592C447.223 320.882 448.193 314.412 450.216 309.406C452.671 303.329 456.239 297.704 460.689 292.893C462.211 291.248 463.861 289.66 464.858 287.653C465.854 285.646 466.064 283.064 464.72 281.272C462.454 278.251 461.976 274.284 461.74 270.515C461.504 266.747 461.397 262.829 459.685 259.463C457.973 256.098 454.086 253.481 450.475 254.585C449.6 253.248 451.33 251.704 452.853 251.221C458.605 249.393 465.048 250.993 470.091 254.31C475.133 257.627 478.959 262.491 482.245 267.553C483.528 269.53 485.697 271.852 487.789 270.765C502.072 263.349 519.504 262.268 534.595 267.863C536.692 268.641 539.916 268.974 540.344 266.778C542.473 255.844 551.599 246.608 562.508 244.348C558.221 247.423 557.961 253.677 558.819 258.882C559.678 264.087 561.189 269.633 559.049 274.454C557.322 278.346 561.673 282.005 565.196 284.396C570.517 288.007 575.275 292.446 579.247 297.504C583.176 302.508 586.451 308.939 584.657 315.044C582.307 323.035 572.903 326.198 564.811 328.171C556.911 330.096 549.011 332.022 541.112 333.948C540.966 341.655 543.718 349.382 548.701 355.262C552.698 359.979 558.506 364.84 557.235 370.891C559.896 375.111 534.917 374.889 482.296 370.225Z" fill="white"/>
<path fill-rule="evenodd" clip-rule="evenodd" d="M501.255 474.441C503.977 476.126 506.995 478.142 510.107 477.392C517.312 475.654 525.027 476.09 531.991 478.63C534.922 479.699 537.579 476.666 539.416 474.145C544.748 466.825 551.721 460.707 559.672 456.372C565.155 465.372 559.601 477.825 564.368 487.224C571.746 501.77 569.786 520.557 559.565 533.267C570.292 543.747 577.585 557.686 580.08 572.473C578.804 572.849 513.47 580.953 477.595 571.23C477.198 560.808 480.956 550.284 487.865 542.471C477.608 530.391 472.604 513.999 474.366 498.251C474.549 496.612 474.785 494.864 474.055 493.385C470.228 485.636 467.591 477.3 466.267 468.759C466.188 468.249 466.123 467.69 466.392 467.249C466.75 466.664 467.532 466.537 468.215 466.481C479.698 465.545 491.458 468.379 501.255 474.441Z" fill="white"/>
<path fill-rule="evenodd" clip-rule="evenodd" d="M190.527 573.89C191.832 566.075 193.138 558.26 194.443 550.444C194.782 548.416 194.734 545.699 192.779 545.064C186.68 543.082 181.526 538.367 179.01 532.468C178.218 530.61 175.772 529.949 173.827 530.496C171.882 531.043 170.331 532.473 168.859 533.858C169.698 530.577 172.713 527.97 176.081 527.614C177.224 525.688 175.587 523.026 173.418 522.467C171.248 521.907 168.964 522.885 167.152 524.203C167.011 522.115 169.552 521.093 171.477 520.273C173.403 519.453 175.283 516.862 173.641 515.564C172.926 514.998 171.908 515.099 171.005 515.228C168.395 515.601 165.784 515.975 163.174 516.348C163.471 514.246 166.202 513.707 168.318 513.544C170.435 513.382 173.168 512.351 172.932 510.241C172.025 502.112 173.993 493.867 177.279 486.376C180.001 480.17 171.99 473.954 172.516 467.198C172.557 466.675 172.681 466.102 173.104 465.79C173.607 465.417 174.313 465.566 174.912 465.751C179.036 467.023 182.859 469.258 185.992 472.226C187.513 473.667 189.963 472.685 191.876 471.831C198.932 468.682 207.201 468.356 214.483 470.939C221.059 473.272 226.891 462.019 233.407 464.512C231.744 469.986 230.081 475.46 228.417 480.934C227.959 482.444 227.524 484.178 228.359 485.518C231.169 490.032 232.873 495.23 233.281 500.532C233.569 504.267 234.292 509.312 238.026 509.605C236.4 510.32 234.606 511.212 234.043 512.897C233.48 514.582 235.405 516.806 236.862 515.789C238.12 514.912 240.152 515.644 240.562 517.122C238.407 516.911 236.069 517.146 234.385 518.506C232.7 519.867 232.039 522.618 233.467 524.246C236.599 522.955 240.3 523.124 243.302 524.696C241.513 526.011 239.055 525.622 236.839 525.49C234.622 525.358 231.923 525.87 231.138 527.947C228.52 534.881 222.086 540.231 214.792 541.541C211.198 542.186 210.622 547.046 210.918 550.685C211.54 558.319 212.161 565.952 212.783 573.586C211.503 574.801 196.643 576.485 190.527 573.89Z" fill="white"/>
<path fill-rule="evenodd" clip-rule="evenodd" d="M91.086 541.105C90.8314 544.905 91.1431 548.743 92.0079 552.453C92.3726 554.018 94.7202 554.307 95.9403 553.262C97.1605 552.217 97.4857 550.48 97.6171 548.879C97.8114 546.512 97.7491 544.125 97.4316 541.771C97.2675 540.555 97.0155 539.301 96.282 538.317C95.5486 537.333 94.2078 536.703 93.062 537.142C91.6026 537.702 91.1905 539.545 91.086 541.105Z" fill="white"/>
<path fill-rule="evenodd" clip-rule="evenodd" d="M386.199 562.056C386.654 562.312 386.59 563.045 386.206 563.399C385.822 563.752 385.266 563.828 384.747 563.888C382.938 564.096 380.949 564.263 379.449 563.229C380.211 562.686 380.974 562.142 381.736 561.599C381.256 560.912 380.316 560.772 379.485 560.671C378.653 560.57 377.707 560.37 377.302 559.637C376.896 558.904 377.78 557.737 378.445 558.247C380.499 559.819 383.519 559.998 385.745 558.679C387.209 557.811 388.596 556.305 390.267 556.631C389.099 558.905 386.785 560.553 384.254 560.914C384.312 561.798 385.399 562.436 386.199 562.056Z" fill="#00160A"/>
<path fill-rule="evenodd" clip-rule="evenodd" d="M95.7348 560.871C93.9241 561.081 91.9317 561.249 90.4322 560.213C91.2001 559.668 91.968 559.122 92.7359 558.577C92.2069 557.908 91.2577 557.793 90.4127 557.678C89.5678 557.562 88.6064 557.301 88.2565 556.524C87.9065 555.746 88.9532 554.658 89.5503 555.267C91.0177 556.764 93.4554 556.859 95.4381 556.179C97.4208 555.499 99.1129 554.189 100.921 553.128C100.967 555.803 97.8344 557.212 95.2561 557.927C95.3161 558.799 96.3955 559.423 97.1813 559.04C97.6375 559.293 97.5751 560.027 97.1918 560.381C96.8086 560.735 96.2529 560.811 95.7348 560.871Z" fill="#00160A"/>
<path fill-rule="evenodd" clip-rule="evenodd" d="M91.7788 555.588C88.9463 554.533 88.3759 550.846 88.2595 547.825C88.1825 545.827 88.1055 543.829 88.0285 541.831C87.9854 540.712 87.9454 539.568 88.2758 538.498C88.827 536.714 90.4645 535.314 92.3134 535.047C94.1623 534.781 96.1286 535.661 97.1616 537.217C97.7521 538.107 98.0399 539.16 98.2656 540.203C98.7469 542.428 98.9872 544.705 98.9812 546.981C98.9754 549.187 98.7038 551.492 97.4794 553.328C96.2549 555.163 93.8461 556.359 91.7788 555.588H91.7788ZM94.3167 553.926C95.7826 553.464 96.3213 551.695 96.5291 550.172C96.8898 547.528 96.9202 544.84 96.6192 542.19C96.4677 540.855 96.2074 539.471 95.3865 538.407C94.5656 537.344 93.0293 536.723 91.8317 537.331C90.3464 538.086 90.1756 540.102 90.2034 541.767C90.2396 543.937 90.2758 546.108 90.3121 548.278C90.3346 549.628 90.3708 551.034 90.9962 552.231C91.6216 553.428 93.0289 554.332 94.3167 553.926Z" fill="#00160A"/>
<path fill-rule="evenodd" clip-rule="evenodd" d="M379.332 537.598C381.346 536.312 384.198 537.235 385.715 539.082C387.232 540.928 387.686 543.42 387.825 545.806C387.906 547.188 387.9 548.575 387.807 549.956C387.675 551.896 387.345 553.894 386.27 555.513C385.195 557.133 383.211 558.28 381.312 557.864C379.68 557.506 378.447 556.085 377.857 554.522C377.266 552.958 377.209 551.252 377.159 549.582C377.111 547.992 377.063 546.401 377.015 544.811C376.935 542.164 377.1 539.024 379.332 537.598ZM381.727 556.037C382.826 556.308 383.989 555.635 384.614 554.691C385.238 553.747 385.43 552.587 385.548 551.461C385.808 548.983 385.777 546.475 385.458 544.004C385.295 542.738 385.033 541.429 384.254 540.418C383.475 539.408 382.039 538.799 380.88 539.333C379.489 539.975 379.175 541.783 379.107 543.313C378.978 546.211 379.073 549.12 379.389 552.004C379.57 553.654 380.115 555.639 381.727 556.037Z" fill="#00160A"/>
<path fill-rule="evenodd" clip-rule="evenodd" d="M379.086 543.105C378.831 546.905 379.143 550.743 380.008 554.453C380.373 556.018 382.72 556.307 383.94 555.262C385.16 554.217 385.486 552.48 385.617 550.879C385.811 548.512 385.749 546.125 385.432 543.771C385.268 542.555 385.015 541.301 384.282 540.317C383.549 539.333 382.208 538.703 381.062 539.142C379.603 539.702 379.191 541.545 379.086 543.105Z" fill="white"/>
<path fill-rule="evenodd" clip-rule="evenodd" d="M375.057 360.144C375.264 359.462 376.144 359.213 376.839 359.376C377.533 359.539 378.124 359.983 378.779 360.264C381.225 361.312 384.028 359.948 386.108 358.288C386.806 357.73 387.928 357.169 388.455 357.89C387.202 360.019 384.969 361.544 382.53 361.937C382.604 362.811 383.673 363.435 384.471 363.069C384.921 363.326 384.854 364.053 384.472 364.403C384.09 364.754 383.539 364.829 383.024 364.889C381.228 365.098 379.261 365.268 377.754 364.27C378.558 363.637 379.362 363.005 380.167 362.373C378.301 362.121 376.51 361.34 375.057 360.144Z" fill="#00160A"/>
<path fill-rule="evenodd" clip-rule="evenodd" d="M468.215 466.481C479.698 465.545 491.458 468.379 501.255 474.441C503.977 476.126 506.995 478.142 510.107 477.392C517.312 475.654 525.027 476.09 531.991 478.63C534.922 479.699 537.579 476.666 539.416 474.145C544.748 466.825 551.721 460.707 559.672 456.372C565.155 465.372 559.601 477.825 564.368 487.224C571.746 501.77 569.786 520.557 559.565 533.267C570.292 543.747 577.585 557.686 580.08 572.473C578.804 572.849 577.967 571.185 577.659 569.891C574.907 558.335 569.441 547.435 561.827 538.318C560.044 536.183 557.129 533.971 554.777 535.456C536.089 547.256 512.398 550.82 491.064 545.04C487.544 544.086 485.046 548.36 483.916 551.828C481.809 558.295 479.702 564.762 477.595 571.23C477.198 560.808 480.956 550.284 487.865 542.471C477.608 530.391 472.604 513.999 474.366 498.251C474.549 496.612 474.785 494.864 474.055 493.385C470.228 485.636 467.591 477.3 466.267 468.759C466.188 468.249 466.123 467.69 466.392 467.249C466.75 466.664 467.532 466.537 468.215 466.481ZM514.791 487.186C510.735 490.911 507.389 495.407 504.989 500.364C503.57 495.611 504.339 490.253 507.036 486.091C503.388 487.455 500.011 489.538 497.155 492.186C497.158 488.227 499.17 484.322 502.392 482.021C500.997 482.062 499.602 482.103 498.207 482.143C499.66 480.341 501.707 479.026 503.95 478.454C493.676 471.127 480.796 467.536 468.213 468.492C470.432 481.607 475.729 494.191 483.558 504.945C480.213 503.577 477.48 500.783 476.186 497.409C474.751 510.928 478.192 524.913 485.736 536.222C487.141 538.328 488.711 540.372 490.749 541.873C494.131 544.363 498.463 545.126 502.645 545.508C519.37 547.035 536.526 543.48 551.268 535.434C554.101 533.888 556.877 532.156 559.123 529.838C562.095 526.771 564.002 522.805 565.229 518.714C568.449 507.981 567.083 495.952 561.539 486.214C560.537 489.201 559.536 492.189 558.535 495.176C558.113 496.436 556.237 497.752 555.879 496.472C560.852 484.689 561.918 471.296 558.873 458.874C547.517 466.411 538.002 476.7 531.373 488.609C531.094 485.835 531.807 482.972 533.354 480.652C526.184 486.144 519.971 492.879 515.074 500.468C514.185 496.105 514.088 491.582 514.791 487.186Z" fill="#00160A"/>
<path fill-rule="evenodd" clip-rule="evenodd" d="M84.5907 362.38C85.5586 362.55 86.6034 362.179 87.2476 361.437C85.2921 361.089 83.4206 360.278 81.8291 359.089C82.4631 358.004 84.0874 358.656 85.2582 359.114C88.0941 360.223 91.6349 359.084 93.2915 356.528C93.7371 355.841 94.9308 356.629 94.7998 357.437C94.6689 358.246 93.8717 358.746 93.1534 359.14C91.7808 359.892 90.4083 360.644 89.0357 361.396C90.1637 361.498 91.2497 362.013 92.0415 362.823C90.5454 364.042 88.438 364.066 86.5088 364.031C85.9849 364.022 85.4314 364.004 84.9881 363.725C84.5448 363.446 84.2846 362.806 84.5907 362.38Z" fill="#00160A"/>
<path fill-rule="evenodd" clip-rule="evenodd" d="M376.567 341.095C378.12 338.665 382.03 338.242 384.066 340.284C385.235 341.457 385.723 343.136 386.032 344.762C386.451 346.965 386.622 349.214 386.541 351.455C386.467 353.519 386.148 355.661 384.983 357.368C383.819 359.075 381.618 360.214 379.646 359.598C376.693 358.676 376.025 354.868 375.879 351.778C375.802 350.145 375.725 348.513 375.648 346.88C375.554 344.896 375.497 342.768 376.567 341.095ZM377.801 345.063C377.546 348.864 377.858 352.702 378.722 356.412C379.087 357.976 381.435 358.265 382.655 357.22C383.875 356.175 384.2 354.438 384.332 352.837C384.526 350.471 384.464 348.083 384.146 345.73C383.982 344.513 383.73 343.259 382.997 342.275C382.263 341.291 380.922 340.661 379.777 341.101C378.317 341.66 377.905 343.504 377.801 345.063Z" fill="#00160A"/>
<path fill-rule="evenodd" clip-rule="evenodd" d="M85.086 343.105C84.8314 346.905 85.1431 350.744 86.0079 354.453C86.3726 356.018 88.7202 356.307 89.9403 355.262C91.1605 354.217 91.4857 352.48 91.6171 350.879C91.8114 348.512 91.7491 346.125 91.4316 343.771C91.2675 342.555 91.0155 341.301 90.282 340.317C89.5486 339.333 88.2078 338.703 87.062 339.142C85.6026 339.702 85.1905 341.545 85.086 343.105Z" fill="white"/>
<path fill-rule="evenodd" clip-rule="evenodd" d="M85.6681 358.269C83.5275 357.2 82.9409 354.461 82.7063 352.079C82.4776 349.757 82.3466 347.426 82.3138 345.093C82.2919 343.534 82.3305 341.905 83.0626 340.528C83.8586 339.031 85.4745 338.005 87.1676 337.921C88.8608 337.837 90.5704 338.698 91.5107 340.109C92.1278 341.034 92.4131 342.138 92.6298 343.23C93.0763 345.477 93.2757 347.774 93.2233 350.065C93.1724 352.291 92.8425 354.621 91.5268 356.418C90.2112 358.214 87.6603 359.264 85.6681 358.269ZM85.0967 354.281C85.2523 355.021 85.4678 355.796 86.0177 356.316C87.0971 357.335 89.0045 356.827 89.9162 355.655C90.8278 354.483 90.9948 352.909 91.0549 351.425C91.1436 349.235 91.0745 347.038 90.8484 344.858C90.7201 343.621 90.525 342.344 89.8458 341.302C89.1666 340.26 87.8758 339.519 86.6764 339.848C84.7789 340.367 84.4129 342.858 84.4199 344.825C84.4313 347.991 84.4454 351.183 85.0967 354.281Z" fill="#00160A"/>
<path fill-rule="evenodd" clip-rule="evenodd" d="M482.296 370.225C482.776 362.999 490.042 358.534 494.824 353.095C499.19 348.129 501.75 341.607 501.927 334.997C486.829 334.4 471.807 331.906 457.327 327.591C455.111 326.931 452.825 326.181 451.145 324.592C447.223 320.882 448.193 314.412 450.216 309.406C452.671 303.329 456.239 297.704 460.689 292.893C462.211 291.248 463.861 289.66 464.858 287.653C465.854 285.646 466.064 283.064 464.72 281.272C462.454 278.251 461.976 274.284 461.74 270.515C461.504 266.747 461.397 262.829 459.685 259.463C457.973 256.098 454.086 253.481 450.475 254.585C449.6 253.248 451.33 251.704 452.853 251.221C458.605 249.393 465.048 250.993 470.091 254.31C475.133 257.627 478.959 262.491 482.245 267.553C483.528 269.53 485.697 271.852 487.789 270.765C502.072 263.349 519.504 262.268 534.595 267.863C536.692 268.641 539.916 268.974 540.344 266.778C542.473 255.844 551.599 246.608 562.508 244.348C558.221 247.423 557.961 253.677 558.819 258.882C559.678 264.087 561.189 269.633 559.049 274.454C557.322 278.346 561.673 282.005 565.196 284.396C570.517 288.007 575.275 292.446 579.247 297.504C583.176 302.508 586.451 308.939 584.657 315.044C582.307 323.035 572.903 326.198 564.811 328.171C556.911 330.096 549.011 332.022 541.112 333.948C540.966 341.655 543.718 349.382 548.701 355.262C552.698 359.979 558.506 364.84 557.235 370.891C554.532 364.457 549.461 359.372 545.388 353.706C541.314 348.039 538.103 340.948 539.946 334.217C536.34 332.928 532.555 335.505 529.828 338.194C527.101 340.883 524.224 344.053 520.401 344.268C514.102 344.622 510.17 336.936 504.013 335.561C503.871 339.683 502.792 343.769 500.883 347.425C498.851 351.312 495.934 354.652 493.044 357.951C489.461 362.043 485.879 366.134 482.296 370.225ZM488.164 272.469C484.335 274.331 490.266 281.608 486.838 284.135C485.075 274.569 480.078 265.629 472.853 259.117C468.16 254.887 461.934 251.554 455.727 252.729C459.356 254.155 461.565 257.927 462.515 261.709C463.466 265.491 463.432 269.448 464.094 273.291C465.258 280.056 468.642 286.419 473.599 291.167C471.341 291.138 469.153 289.75 468.164 287.721C461.215 293.969 455.63 301.727 451.911 310.301C450.444 313.683 449.299 317.716 451.114 320.925C452.646 323.631 455.816 324.889 458.775 325.847C469.42 329.295 480.494 331.417 491.66 332.151C498.332 332.589 505.535 332.701 510.868 336.734C512.806 338.199 514.397 340.127 516.509 341.327C518.621 342.528 521.6 342.773 523.244 340.985C529.663 334.005 539.423 331.299 548.749 329.582C558.075 327.865 567.813 326.716 575.944 321.836C578.995 320.005 581.888 317.469 582.875 314.05C584.216 309.4 581.712 304.548 578.882 300.623C573.175 292.707 565.749 286.037 557.269 281.209C556.899 282.677 555.991 284.004 554.757 284.88C554.358 283.218 555.085 281.522 555.666 279.915C559.264 269.98 557.624 259.011 555.941 248.58C544.904 254.948 539.169 269.274 542.763 281.5C540.658 281.891 539.663 278.941 539.868 276.81C540.072 274.68 540.243 271.896 538.269 271.069C522.386 264.412 503.65 264.935 488.164 272.469Z" fill="#00160A"/>
<path fill-rule="evenodd" clip-rule="evenodd" d="M195.718 499.53C196.826 501.403 196.949 503.824 196.035 505.799C195.55 506.846 193.91 506.81 193.087 506.001C192.263 505.192 192.047 503.965 191.888 502.822C191.743 501.788 191.618 500.696 192.012 499.729C192.407 498.762 193.51 498.001 194.493 498.356C195.036 498.552 195.424 499.033 195.718 499.53Z" fill="#00160A"/>
<path fill-rule="evenodd" clip-rule="evenodd" d="M212.783 573.586C209.271 564.672 208.098 554.848 209.414 545.358C206.105 548.983 199.999 549.602 196.03 546.713C196.98 556.049 195.034 565.659 190.527 573.89C191.832 566.075 193.138 558.26 194.443 550.444C194.782 548.416 194.734 545.699 192.779 545.064C186.68 543.082 181.526 538.367 179.01 532.468C178.218 530.61 175.772 529.949 173.827 530.496C171.882 531.043 170.331 532.473 168.859 533.858C169.698 530.577 172.713 527.97 176.081 527.614C177.224 525.688 175.587 523.026 173.418 522.467C171.248 521.907 168.964 522.885 167.152 524.203C167.011 522.115 169.552 521.093 171.477 520.273C173.403 519.453 175.283 516.862 173.641 515.564C172.926 514.998 171.908 515.099 171.005 515.228C168.395 515.601 165.784 515.975 163.174 516.348C163.471 514.246 166.202 513.707 168.318 513.544C170.435 513.382 173.168 512.351 172.932 510.241C172.025 502.112 173.993 493.867 177.279 486.376C180.001 480.17 171.99 473.954 172.516 467.198C172.557 466.675 172.681 466.102 173.104 465.79C173.607 465.417 174.313 465.566 174.912 465.751C179.036 467.023 182.859 469.258 185.992 472.226C187.513 473.667 189.963 472.685 191.876 471.831C198.932 468.682 207.201 468.356 214.483 470.939C221.059 473.272 226.891 462.019 233.407 464.512C231.744 469.986 230.081 475.46 228.417 480.934C227.959 482.444 227.524 484.178 228.359 485.518C231.169 490.032 232.873 495.23 233.281 500.532C233.569 504.267 234.292 509.312 238.026 509.605C236.4 510.32 234.606 511.212 234.043 512.897C233.48 514.582 235.405 516.806 236.862 515.789C238.12 514.912 240.152 515.644 240.562 517.122C238.407 516.911 236.069 517.146 234.385 518.506C232.7 519.867 232.039 522.618 233.467 524.246C236.599 522.955 240.3 523.124 243.302 524.696C241.513 526.011 239.055 525.622 236.839 525.49C234.622 525.358 231.923 525.87 231.138 527.947C228.52 534.881 222.086 540.231 214.792 541.541C211.198 542.186 210.622 547.046 210.918 550.685C211.54 558.319 212.161 565.952 212.783 573.586ZM215.683 518.72C214.532 519.771 212.548 520.866 211.696 519.562C216.619 514.279 223.371 510.732 230.515 509.675C231.972 509.459 232.295 507.513 232.191 506.043C231.678 498.812 229.603 491.695 226.149 485.321C225.631 486.661 223.991 487.448 222.622 487.013C226.706 480.877 229.393 473.817 230.422 466.519C223.885 469.229 218.077 473.675 213.754 479.278C213.152 477.128 214.114 474.637 216.005 473.45C207.382 470.286 197.473 470.814 189.235 474.877C189.449 476.214 189.664 477.551 189.878 478.888C185.837 473.993 180.571 470.118 174.696 467.716C176.606 474.848 179.39 481.746 182.967 488.205C181.414 488.541 179.727 487.195 179.709 485.606C176.464 492.667 174.68 500.396 174.502 508.166C174.45 510.399 175.35 513.421 177.572 513.19C183.638 512.562 189.934 514.672 194.397 518.827C190.255 517.631 186.113 516.434 181.97 515.238C180.188 514.723 178.143 514.241 176.581 515.241C175.018 516.242 175.204 519.345 177.059 519.381C181.917 517.965 187.408 518.916 191.506 521.885C186.709 520.817 181.692 520.749 176.867 521.686C175.663 524.59 179.751 526.863 182.894 526.848C186.038 526.833 189.974 526.494 191.5 529.242C187.646 529.042 183.792 528.841 179.938 528.64C180.996 535.508 186.899 541.34 193.778 542.315C195.091 542.501 195.952 543.723 196.929 544.62C200.816 548.184 208.279 545.763 209.333 540.596C218.285 540.321 226.811 534.367 230.151 526.057C225.61 526.702 221.07 527.347 216.529 527.991C217.591 525.941 220.117 525.155 222.413 524.916C224.71 524.676 227.137 524.756 229.174 523.668C231.21 522.579 232.533 519.708 231.075 517.917C225.401 519.911 219.728 521.905 214.054 523.9C215.942 521.086 218.918 519.024 222.216 518.244C224.515 517.7 226.958 517.754 229.158 516.893C231.358 516.032 233.323 513.766 232.701 511.488C226.431 511.888 220.323 514.484 215.683 518.72Z" fill="#00160A"/>
<path fill-rule="evenodd" clip-rule="evenodd" d="M209.997 495.199C209.235 495.16 208.314 495.012 208.033 494.303C209.888 492.202 213.906 492.871 214.981 495.459C213.32 495.372 211.658 495.286 209.997 495.199Z" fill="#00160A"/>
<path fill-rule="evenodd" clip-rule="evenodd" d="M207.15 534.586C207.745 535.303 207.621 536.43 207.062 537.175C206.503 537.92 205.609 538.34 204.711 538.587C203.403 538.946 201.854 538.941 200.859 538.019C199.419 536.686 200.112 533.974 201.883 533.128C203.654 532.282 205.897 533.076 207.15 534.586ZM201.986 534.997C201.536 535.835 202.491 536.866 203.442 536.868C204.393 536.871 205.213 536.238 205.95 535.636C204.981 534.579 203.256 534.315 202.016 535.035L201.986 534.997Z" fill="#00160A"/>
<path fill-rule="evenodd" clip-rule="evenodd" d="M212.127 505.881C210.957 506.47 209.479 505.525 209.037 504.292C208.595 503.058 208.892 501.695 209.232 500.43C209.426 499.709 209.686 498.921 210.336 498.552C211.207 498.057 212.372 498.623 212.879 499.488C213.385 500.352 213.41 501.406 213.421 502.408C213.435 503.714 213.293 505.293 212.127 505.881Z" fill="#00160A"/>
<path fill-rule="evenodd" clip-rule="evenodd" d="M191.084 534.643C194.6 535.096 198.306 533.394 200.253 530.432C202.201 527.47 202.294 523.393 200.485 520.345C199.528 518.732 198.072 516.723 199.231 515.248C199.819 514.5 200.864 514.308 201.815 514.257C202.855 514.201 203.959 514.266 204.827 514.84C205.696 515.414 206.201 516.643 205.673 517.54C203.588 521.082 203.907 525.888 206.442 529.123C208.978 532.359 213.568 533.817 217.506 532.638C218.226 532.423 219.407 532.496 219.265 533.234C219.23 533.413 219.106 533.56 218.979 533.691C216.754 535.989 212.898 535.615 210.033 534.193C207.369 532.871 205.084 530.798 203.511 528.275C202.103 530.676 200.65 533.13 198.495 534.89C196.34 536.651 193.3 537.601 190.718 536.564C190.01 536.28 189.276 535.427 189.787 534.861C190.093 534.522 190.63 534.585 191.084 534.643Z" fill="#00160A"/>
<path fill-rule="evenodd" clip-rule="evenodd" d="M197.313 494.34C197.489 494.895 196.716 495.231 196.138 495.293C195.041 495.411 193.945 495.53 192.848 495.648C192.002 495.739 190.786 495.491 190.879 494.645C192.386 493.057 195.044 492.725 196.895 493.895C197.071 494.006 197.25 494.142 197.313 494.34Z" fill="#00160A"/>
<path fill-rule="evenodd" clip-rule="evenodd" d="M493.132 555.807C492.913 553.724 492.962 551.276 494.613 549.988C496.064 548.856 498.123 549.124 499.934 549.448C502.81 549.962 505.685 550.476 508.561 550.991C510.808 551.392 513.213 551.778 515.302 550.858C516.969 550.124 518.879 550.91 520.701 550.926C522.187 550.939 523.622 550.43 525.021 549.928C529.314 548.387 533.606 546.847 537.899 545.306C538.688 545.023 539.565 544.74 540.341 545.056C541.521 545.537 541.785 547.059 541.876 548.33C541.98 549.778 542.084 551.225 542.188 552.673C542.315 554.441 542.43 556.287 541.737 557.919C541.043 559.55 539.268 560.87 537.552 560.427C533.12 559.284 528.611 558.438 524.067 557.896C523.152 557.787 521.96 557.852 521.66 558.723C520.969 560.72 518.113 560.4 516.029 560.048C511.251 559.241 506.159 560.5 502.307 563.44C501.275 564.227 500.311 565.14 499.121 565.657C497.931 566.173 496.408 566.201 495.464 565.311C494.819 564.703 494.564 563.799 494.358 562.938C493.794 560.591 493.384 558.208 493.132 555.807ZM514.693 554.144C508.893 553.043 503.065 552.092 497.216 551.291C496.293 551.165 495.434 551.927 495.13 552.807C494.826 553.688 494.944 554.652 495.078 555.574C495.372 557.597 495.728 559.612 496.145 561.613C496.276 562.24 496.428 562.895 496.853 563.374C497.279 563.852 498.071 564.068 498.567 563.664C501.737 561.088 505.491 559.234 509.464 558.283C510.658 557.997 511.899 557.781 512.955 557.154C514.012 556.527 514.86 555.361 514.693 554.144ZM531.201 549.662C528.114 550.513 524.835 551.482 522.759 553.92C522.128 554.661 521.998 556.238 522.971 556.201C527.822 556.018 532.707 556.775 537.275 558.418C538.246 558.767 539.342 558.071 539.8 557.147C540.259 556.223 540.244 555.145 540.219 554.113C540.172 552.17 540.125 550.226 540.078 548.282C540.07 547.971 540.026 547.598 539.746 547.46C539.56 547.368 539.337 547.421 539.136 547.477C536.491 548.205 533.846 548.934 531.201 549.662ZM516.116 556.875C516.251 557.332 516.446 557.793 516.807 558.103C517.692 558.865 519.182 558.319 519.775 557.313C520.368 556.307 520.309 555.056 520.173 553.896C520.011 552.505 517.934 552.051 516.881 552.974C515.828 553.898 515.72 555.532 516.116 556.875Z" fill="#00160A"/>
<path fill-rule="evenodd" clip-rule="evenodd" d="M550.673 519.574C548.105 519.26 545.453 519.662 543.092 520.723C542.483 520.997 541.89 520.097 542.154 519.483C542.418 518.87 543.108 518.577 543.738 518.355C547.382 517.074 552.009 516.44 554.608 519.298C553.496 520.058 552.011 519.737 550.673 519.574Z" fill="#00160A"/>
<path fill-rule="evenodd" clip-rule="evenodd" d="M522.637 533.191C522.698 535.174 520.818 536.787 518.865 537.141C516.913 537.495 514.925 536.912 513.026 536.336C511.373 535.834 510.858 533.512 511.73 532.02C512.602 530.529 514.368 529.791 516.073 529.512C517.478 529.282 518.97 529.306 520.26 529.906C521.551 530.505 522.594 531.768 522.637 533.191ZM513.48 533.667C513.573 534.261 514.269 534.519 514.853 534.662C515.987 534.94 517.157 535.221 518.313 535.049C519.468 534.878 520.62 534.142 520.921 533.013C519.205 531.239 516.14 530.995 514.165 532.476C513.78 532.765 513.405 533.191 513.48 533.667Z" fill="#00160A"/>
<path fill-rule="evenodd" clip-rule="evenodd" d="M492.921 523.071C489.494 523.079 486.066 523.086 482.639 523.094C481.917 523.095 480.898 522.716 481.141 522.036C484.721 520.48 488.875 520.291 492.581 521.516C493.263 521.741 494.005 522.661 493.37 522.997C493.235 523.069 493.075 523.071 492.921 523.071Z" fill="#00160A"/>
<path fill-rule="evenodd" clip-rule="evenodd" d="M530.844 510.027C531.039 508.802 531.375 507.385 532.508 506.881C533.599 506.395 534.925 507.088 535.552 508.103C536.18 509.119 536.286 510.362 536.375 511.553C534.829 511.694 533.284 511.835 531.738 511.976C530.91 512.052 530.713 510.847 530.844 510.027Z" fill="#00160A"/>
<path fill-rule="evenodd" clip-rule="evenodd" d="M544.264 524.663C543.766 524.56 543.252 524.45 542.837 524.156C542.538 523.944 542.304 523.642 542.174 523.3C545.667 521.827 550.115 523.162 552.221 526.313C549.569 525.763 546.916 525.213 544.264 524.663Z" fill="#00160A"/>
<path fill-rule="evenodd" clip-rule="evenodd" d="M537.075 503.375C537.963 501.955 540.177 502.621 541.516 503.627C542.837 504.618 544.018 505.794 545.017 507.109C544.973 507.882 543.772 507.707 543.122 507.286C541.106 505.983 539.091 504.679 537.075 503.375Z" fill="#00160A"/>
<path fill-rule="evenodd" clip-rule="evenodd" d="M488.616 526.816C490.03 526.333 491.443 525.85 492.856 525.367C493.422 525.174 494.027 524.978 494.608 525.121C495.189 525.264 495.691 525.895 495.468 526.45C492.691 527.488 489.88 528.43 487.039 529.275C486.588 528.886 486.68 528.118 487.071 527.669C487.462 527.22 488.053 527.009 488.616 526.816Z" fill="#00160A"/>
<path fill-rule="evenodd" clip-rule="evenodd" d="M500.34 509C500.879 509.365 501.157 510 501.408 510.601C501.741 511.4 502.081 512.262 501.9 513.109C501.72 513.956 500.77 514.686 499.991 514.306C499.11 513.876 498.152 515.454 497.283 514.998C496.871 514.782 496.792 514.238 496.762 513.775C496.681 512.528 496.616 511.206 497.207 510.106C497.798 509.006 499.305 508.301 500.34 509Z" fill="#00160A"/>
<path fill-rule="evenodd" clip-rule="evenodd" d="M489.558 508.443C490.86 505.242 494.594 503.237 497.982 503.921C498.442 504.015 499.011 504.359 498.848 504.8C498.762 505.033 498.503 505.144 498.269 505.23C495.366 506.301 492.462 507.372 489.558 508.443Z" fill="#00160A"/>
<path fill-rule="evenodd" clip-rule="evenodd" d="M506.854 524.624C506.125 524.716 505.195 524.646 504.921 523.964C505.41 523.573 505.997 523.158 506.607 523.3C507.217 523.442 507.438 524.507 506.825 524.636L506.854 524.624Z" fill="#00160A"/>
<path fill-rule="evenodd" clip-rule="evenodd" d="M521.467 523.577C522.235 523.449 522.64 522.37 522.145 521.769C521.65 521.168 520.513 521.357 520.24 522.086C519.967 522.815 520.7 523.705 521.467 523.577Z" fill="#00160A"/>
<path fill-rule="evenodd" clip-rule="evenodd" d="M504.407 528.785C503.332 528.629 501.949 527.929 502.279 526.893C503.465 526.21 504.935 526.795 506.288 526.991C507.642 527.187 509.469 526.446 509.246 525.096C509.473 525.665 509.699 526.233 509.925 526.802C511.303 526.435 512.589 525.728 513.639 524.763C514.232 524.217 514.761 523.279 514.235 522.669C513.015 521.257 514.339 518.61 516.201 518.74C518.063 518.87 519.007 521.674 517.604 522.904C517.24 523.223 517.606 523.808 517.983 524.111C520.616 526.225 524.288 526.977 527.54 526.067C528.995 525.66 530.852 525.062 531.777 526.257C527.137 529.607 520.088 529.024 516.061 524.959C513.796 528.655 508.698 529.406 504.407 528.785Z" fill="#00160A"/>
<path fill-rule="evenodd" clip-rule="evenodd" d="M526.268 522.427C526.715 522.628 526.785 523.353 526.385 523.636C525.984 523.919 525.324 523.612 525.283 523.124C525.452 522.761 525.844 522.513 526.245 522.517L526.268 522.427Z" fill="#00160A"/>
<path fill-rule="evenodd" clip-rule="evenodd" d="M509.42 522.937C509.888 523.656 511.262 522.762 510.794 522.043C510.325 521.324 508.952 522.218 509.42 522.937Z" fill="#00160A"/>
<path fill-rule="evenodd" clip-rule="evenodd" d="M470.426 308.929C468.624 309.129 466.682 309.568 465.087 308.707C466.974 306.932 469.79 306.587 472.378 306.715C476.762 306.931 481.088 308.263 484.835 310.55C484.048 312 481.875 311.287 480.383 310.585C477.301 309.133 473.813 308.553 470.426 308.929Z" fill="#00160A"/>
<path fill-rule="evenodd" clip-rule="evenodd" d="M533.762 293.863C533.475 292.78 533.46 291.894 534.448 291.365C535.887 290.596 540.429 290.667 540.92 291.787C541.411 292.907 539.543 298.057 536.923 298.057C535.875 298.057 534.049 294.947 533.762 293.863Z" fill="#00160A"/>
<path fill-rule="evenodd" clip-rule="evenodd" d="M562.58 306.623C556.941 306.974 551.357 308.206 546.094 310.26C545.372 310.541 544.262 310.651 544.098 309.894C545.017 308.35 546.862 307.658 548.587 307.153C552.448 306.025 556.423 305.285 560.432 304.95C561.011 304.901 561.63 304.869 562.137 305.154C562.643 305.44 562.942 306.167 562.58 306.623Z" fill="#00160A"/>
<path fill-rule="evenodd" clip-rule="evenodd" d="M563.717 312.949C559.257 313.347 554.798 313.746 550.338 314.145C549.524 314.218 548.306 313.674 548.775 313.005C553.362 311.571 558.179 310.873 562.984 310.945C564.172 310.963 565.552 311.134 566.176 312.145C565.545 312.759 564.594 312.87 563.717 312.949Z" fill="#00160A"/>
<path fill-rule="evenodd" clip-rule="evenodd" d="M498.139 298.43C497.194 299.541 495.277 299.223 494.265 298.172C493.252 297.122 492.907 295.615 492.602 294.188C492.444 293.444 492.304 292.598 492.747 291.98C493.212 291.331 499.683 291.284 499.99 291.841C500.298 292.397 500.108 292.867 499.99 293.299C499.777 294.084 498.824 297.625 498.139 298.43Z" fill="#00160A"/>
<path fill-rule="evenodd" clip-rule="evenodd" d="M464.359 316.07C469.983 313.754 476.259 313.048 482.258 314.057C482.9 314.165 483.606 314.335 483.971 314.874C484.336 315.413 483.984 316.377 483.339 316.285C476.371 315.295 468.807 315.367 462.877 319.158C462.254 318.803 462.211 317.858 462.609 317.262C463.007 316.666 463.696 316.343 464.359 316.07Z" fill="#00160A"/>
<path fill-rule="evenodd" clip-rule="evenodd" d="M505.65 321.611C505.361 320.778 505.982 319.758 506.855 319.633C507.203 319.86 507.432 320.261 507.451 320.676C507.179 321.319 506.464 321.743 505.769 321.674L505.65 321.611Z" fill="#00160A"/>
<path fill-rule="evenodd" clip-rule="evenodd" d="M496.552 285.515C497.526 285.53 498.863 286.182 498.436 287.058C494.201 287.306 490.019 288.427 486.227 290.33C485.667 290.274 485.402 289.532 485.618 289.013C485.834 288.494 486.347 288.171 486.841 287.902C489.803 286.294 493.182 285.463 496.552 285.515Z" fill="#00160A"/>
<path fill-rule="evenodd" clip-rule="evenodd" d="M520.189 320.9C520.806 320.235 522.048 320.345 522.54 321.107C522.059 322.026 520.443 321.935 520.068 320.968L520.189 320.9Z" fill="#00160A"/>
<path fill-rule="evenodd" clip-rule="evenodd" d="M524.48 320.457C524.909 319.833 526.129 320.373 525.955 321.111C525.774 321.483 525.371 321.735 524.957 321.735C524.482 321.552 524.247 320.915 524.491 320.468L524.48 320.457Z" fill="#00160A"/>
<path fill-rule="evenodd" clip-rule="evenodd" d="M509.91 317.062C509.48 317.686 508.261 317.146 508.435 316.408C508.616 316.037 509.019 315.784 509.432 315.785C509.908 315.967 510.142 316.604 509.898 317.051L509.91 317.062Z" fill="#00160A"/>
<path fill-rule="evenodd" clip-rule="evenodd" d="M502.712 318.768C502.675 319.492 503.576 320.077 504.222 319.747C504.868 319.417 504.923 318.344 504.315 317.95C503.706 317.555 502.749 318.044 502.712 318.768Z" fill="#00160A"/>
<path fill-rule="evenodd" clip-rule="evenodd" d="M521.081 318.316C521.697 318.777 522.745 318.329 522.836 317.565C522.928 316.8 522.015 316.117 521.308 316.42C520.6 316.723 520.465 317.855 521.081 318.316Z" fill="#00160A"/>
<path fill-rule="evenodd" clip-rule="evenodd" d="M532.516 287.683C536.137 285.061 541.151 286.264 545.425 287.573C546.095 287.778 546.933 288.392 546.546 288.976C546.316 289.324 545.81 289.312 545.396 289.261C541.103 288.735 536.809 288.209 532.516 287.683Z" fill="#00160A"/>
<path fill-rule="evenodd" clip-rule="evenodd" d="M516.316 318.318C517.62 322.368 522.304 324.995 526.44 323.994C528.258 323.554 530.336 322.565 531.828 323.695C529.212 325.885 525.531 326.736 522.219 325.918C518.907 325.099 516.047 322.63 514.753 319.474C512.189 323.048 508.123 325.507 503.766 326.117C503.115 326.209 502.377 326.235 501.885 325.8C501.392 325.365 501.522 324.327 502.177 324.281C505.773 324.031 509.262 322.451 511.822 319.914C513.213 318.537 514.355 316.323 513.244 314.713C512.208 313.212 511.375 311.572 510.774 309.85C510.552 309.212 510.379 308.446 510.789 307.909C511.092 307.511 511.62 307.375 512.107 307.263C513.586 306.924 515.117 306.583 516.609 306.866C518.1 307.148 519.552 308.227 519.773 309.729C520.239 312.901 515.334 315.265 516.316 318.318Z" fill="#00160A"/>
<path fill-rule="evenodd" clip-rule="evenodd" d="M221.147 307.38C221.468 306.445 223.209 306.769 223.173 307.756C222.809 308.684 221.082 308.343 221.099 307.346L221.147 307.38Z" fill="#00160A"/>
<path fill-rule="evenodd" clip-rule="evenodd" d="M205.44 311.678C205.242 310.681 203.338 311.059 203.536 312.056C203.734 313.053 205.638 312.674 205.44 311.678Z" fill="#00160A"/>
<path fill-rule="evenodd" clip-rule="evenodd" d="M208.139 313.366C208.595 312.804 209.399 312.551 210.095 312.751C210.323 313.034 210.395 313.436 210.279 313.78C209.763 313.991 209.247 314.201 208.731 314.411C208.513 314.081 208.294 313.751 208.075 313.422L208.139 313.366Z" fill="#00160A"/>
<path fill-rule="evenodd" clip-rule="evenodd" d="M208.37 311.002C208.024 310.761 207.791 310.363 207.75 309.943C208.126 309.161 209.459 309.152 209.846 309.929C209.49 310.441 208.963 310.832 208.37 311.023L208.37 311.002Z" fill="#00160A"/>
<path fill-rule="evenodd" clip-rule="evenodd" d="M196.238 313.577C195.722 314.25 194.558 313.377 194.697 312.541C194.836 311.704 195.619 311.16 196.281 310.632C197.695 309.504 198.834 308.032 200.373 307.082C201.912 306.133 204.116 305.859 205.399 307.133C201.788 308.288 198.545 310.569 196.238 313.577Z" fill="#00160A"/>
<path fill-rule="evenodd" clip-rule="evenodd" d="M191.823 304.436C193.917 302.478 196.519 301.068 199.303 300.385C199.897 300.239 200.547 300.131 201.103 300.386C201.659 300.642 202.011 301.407 201.638 301.892C198.095 302.521 194.762 304.276 192.238 306.84C191.779 307.307 190.909 306.744 190.886 306.09C190.862 305.436 191.346 304.883 191.823 304.436Z" fill="#00160A"/>
<path fill-rule="evenodd" clip-rule="evenodd" d="M218.323 308.016C218.26 307.536 219.082 307.798 219.328 308.216C218.994 308.715 218.659 309.214 218.324 309.713C217.629 309.488 217.597 308.297 218.279 308.036L218.323 308.016Z" fill="#00160A"/>
<path fill-rule="evenodd" clip-rule="evenodd" d="M239.026 305.405C235.997 304.472 232.969 303.54 229.94 302.607C229.232 302.389 228.456 302.118 228.097 301.47C232.277 300.524 236.875 301.644 240.152 304.407C240.29 304.523 240.433 304.653 240.478 304.828C240.638 305.447 239.637 305.593 239.026 305.405Z" fill="#00160A"/>
<path fill-rule="evenodd" clip-rule="evenodd" d="M218.966 310.851C219.303 310.447 220.019 310.457 220.344 310.872C220.668 311.286 220.507 311.984 220.034 312.215C219.33 312.145 218.725 311.511 218.689 310.804L218.966 310.851Z" fill="#00160A"/>
<path fill-rule="evenodd" clip-rule="evenodd" d="M236.887 311.972C233.746 310.869 230.604 309.766 227.463 308.664C227.206 308.574 226.934 308.473 226.77 308.256C226.408 307.781 226.827 307.041 227.397 306.863C227.967 306.685 228.579 306.884 229.142 307.082C230.835 307.675 232.527 308.269 234.22 308.862C235.669 309.37 237.454 310.545 236.887 311.972Z" fill="#00160A"/>
<path fill-rule="evenodd" clip-rule="evenodd" d="M648.267 175.573C659.672 180.191 667.43 191.31 671.029 203.076C674.628 214.843 674.663 227.361 674.668 239.665C674.705 330.829 674.741 421.994 674.778 513.158C674.778 526.495 674.675 540.356 668.89 552.373C663.585 563.389 653.545 572.025 641.859 575.622C633.379 578.233 624.349 578.252 615.476 578.252C447.464 578.223 279.451 578.194 111.439 578.164C103.068 578.163 94.1182 577.99 87.2279 573.237C76.1942 565.627 75.1031 550.032 75.0989 536.628C75.066 432.467 75.033 328.307 75 224.146C75 216.404 75.0273 208.473 77.7025 201.208C82.32 188.668 94.3149 180 107.066 176.004C119.818 172.008 133.426 171.987 146.789 172C177.026 172.035 207.264 172.068 237.502 172.101C366.577 172.241 495.652 172.382 624.727 172.523C632.692 172.532 640.885 172.583 648.267 175.573ZM367.169 576.064C367.097 509.783 367.026 443.502 366.954 377.222C271.622 377.26 176.289 377.299 80.9566 377.338C80.1361 377.338 79.2177 377.378 78.6519 377.973C78.1207 378.531 78.089 379.383 78.0884 380.153C78.0457 435.772 78.003 491.391 77.9601 547.01C77.9601 549.907 77.9601 552.831 78.5717 555.663C80.6002 565.032 89.1421 571.881 98.2975 574.722C107.453 577.564 117.256 577.133 126.835 576.775C163.926 575.39 201.055 575.513 238.172 575.636C281.171 575.778 324.17 575.921 367.169 576.064ZM369.617 377.512C369.673 443.617 369.728 509.722 369.784 575.828C453.345 575.75 536.906 575.672 620.466 575.594C626.75 575.588 633.102 575.574 639.213 574.113C653.593 570.674 665.485 558.887 669.72 544.721C672.221 536.353 672.222 527.471 672.202 518.737C672.094 471.545 671.987 424.354 671.879 377.163C571.125 377.279 470.371 377.396 369.617 377.512ZM369.587 175.483C369.674 241.761 369.761 308.039 369.848 374.317C469.683 374.323 569.518 374.33 669.353 374.337C670.185 374.337 671.14 374.28 671.647 373.621C672.011 373.149 672.026 372.504 672.027 371.908C672.041 323.598 672.056 275.287 672.07 226.977C672.07 219.845 672.063 212.623 670.274 205.719C665.387 186.854 645.972 172.885 626.531 174.247C612.116 175.256 597.651 175.27 583.2 175.284C511.996 175.35 440.791 175.417 369.587 175.483ZM367.164 374.061C367.085 307.791 367.005 241.521 366.926 175.251C284.612 175.222 202.298 175.192 119.984 175.163C100.571 175.156 82.2579 190.436 78.7873 209.536C77.8824 214.516 77.8879 219.611 77.8947 224.673C77.9783 274.481 78.0604 324.29 78.1425 374.098C174.482 374.498 270.824 374.486 367.164 374.061Z" fill="#00160A"/>
<path fill-rule="evenodd" clip-rule="evenodd" d="M215.998 308.022C215.413 309.554 216.157 311.329 217.334 312.471C219.051 314.136 221.695 314.775 223.982 314.076C225.628 313.573 227.623 312.517 228.841 313.732C225.211 317.388 218.32 316.873 215.275 312.718C214.323 315.199 212.145 317.175 209.583 317.88C207.022 318.585 204.139 318.003 202.052 316.359C203.586 315.088 205.86 316.08 207.853 316.091C209.96 316.103 212.02 314.814 212.93 312.914C213.841 311.013 213.554 308.6 212.224 306.965C210.868 305.299 209.818 303.384 209.142 301.344C208.986 300.871 208.849 300.357 209 299.883C209.31 298.912 210.557 298.682 211.574 298.631C213.66 298.526 215.749 298.47 217.837 298.461C218.841 298.457 220.057 298.593 220.479 299.503C220.756 300.103 220.556 300.808 220.312 301.423C219.677 303.024 218.764 304.514 217.626 305.807C217.017 306.499 216.327 307.161 215.998 308.022Z" fill="#00160A"/>
<path fill-rule="evenodd" clip-rule="evenodd" d="M233.856 267.242C230.769 266.667 227.516 267.013 224.619 268.224C224.216 268.392 223.752 268.576 223.363 268.377C222.889 268.135 222.84 267.425 223.135 266.981C223.43 266.538 223.947 266.303 224.445 266.113C229.569 264.148 235.547 264.55 240.362 267.182C238.528 268.46 236.053 267.65 233.856 267.242Z" fill="#00160A"/>
<path fill-rule="evenodd" clip-rule="evenodd" d="M232.343 282.845C232.083 283.355 231.77 283.879 231.259 284.139C230.503 284.524 229.52 284.164 229.004 283.49C228.488 282.816 228.363 281.914 228.426 281.067C228.554 279.338 230.051 277.397 231.683 277.983C233.433 278.611 233.189 281.19 232.343 282.845Z" fill="#00160A"/>
<path fill-rule="evenodd" clip-rule="evenodd" d="M202.377 279.889C202.561 281.359 201.911 283.005 200.567 283.628C199.223 284.251 197.311 283.407 197.167 281.933C197.117 281.42 197.267 280.91 197.424 280.419C197.881 278.987 198.821 277.303 200.319 277.431C201.472 277.53 202.234 278.741 202.377 279.889Z" fill="#00160A"/>
<path fill-rule="evenodd" clip-rule="evenodd" d="M189.285 269.355C189.046 268.587 189.976 268 190.744 267.76C195.27 266.345 200.163 266.121 204.799 267.115C205.481 267.262 206.232 267.488 206.572 268.097C206.912 268.705 206.391 269.702 205.729 269.484C201.175 267.988 196.118 268.071 191.616 269.718C190.784 270.023 189.549 270.201 189.285 269.355Z" fill="#00160A"/>
<path fill-rule="evenodd" clip-rule="evenodd" d="M256.106 230.669C255.661 237.729 255.216 244.81 255.633 251.871C255.958 257.368 256.805 262.833 256.882 268.339C257.106 284.252 250.867 299.665 242.381 313.128C262.755 326.831 278.115 347.824 285.01 371.39C282.072 369.558 280.809 366.006 279.576 362.771C272.766 344.908 260.782 329.052 245.455 317.626C243.257 315.988 239.521 314.749 238.305 317.206C235.559 322.758 231.5 327.655 226.554 331.384C224.76 332.736 222.752 334.073 221.35 335.771C221.362 335.91 221.368 336.05 221.368 336.191C221.368 339.063 219.04 341.391 216.168 341.391C214.216 341.391 212.515 340.316 211.625 338.725C198.68 333.033 188.146 321.984 183.191 308.725C173.726 315.289 168.268 326.46 166.176 337.787C164.083 349.114 164.973 360.754 165.869 372.237C164.924 372.878 164.04 371.331 163.932 370.194C162.84 358.696 162.227 346.989 164.612 335.689C166.998 324.388 172.699 313.404 182.117 306.72C173.376 287.689 176.776 264.343 166.112 246.319C165.479 245.249 164.946 243.58 166.055 243.016C166.466 242.807 166.957 242.872 167.412 242.949C174.847 244.211 181.932 247.48 187.715 252.32C189.207 253.569 191.44 252.657 193.183 251.794C206.581 245.159 222.581 243.97 236.812 248.553C240.388 241.682 245.655 235.7 252.017 231.284C253.245 230.432 255.002 229.662 256.106 230.669ZM210.146 323.528C214.732 323.93 219.404 324.327 223.898 323.329C234.177 321.047 241.551 311.953 246.261 302.535C251.653 291.752 254.675 279.79 255.049 267.738C251.724 270.412 248.4 273.087 245.075 275.761C243.106 277.344 240.955 279.294 240.993 281.821C241.047 285.413 238.821 288.94 235.554 290.437C232.288 291.935 228.163 291.319 225.476 288.933C222.444 286.241 220.722 281.366 216.682 281.011C211.918 280.592 209.649 286.701 205.815 289.56C200.931 293.204 193.047 290.468 190.608 284.883C190.144 283.821 190.31 281.935 189.248 281.288C185.859 279.225 182.117 279.15 177.702 279.297C178.489 288.918 180.818 298.411 184.573 307.304C186.237 311.244 188.265 315.178 191.531 317.94C196.562 322.194 203.583 322.952 210.146 323.528ZM237.749 250.734C236.267 253.562 233.78 257.102 230.799 255.96C232.714 254.319 234.368 252.375 235.682 250.222C220.845 245.992 204.409 247.679 190.74 254.833C191.916 256.257 193.363 257.457 194.98 258.349C193.269 259.979 190.629 257.981 189.01 256.26C183.5 250.401 175.967 246.482 168.007 245.331C171.274 250.573 174.293 260.957 177.067 276.482C181.561 277.499 184.582 278.023 186.129 278.056C187.91 278.094 190.079 277.909 190.858 276.307C192.914 272.075 198.064 269.606 202.652 270.654C207.239 271.701 210.807 276.161 210.823 280.866C213.798 278.917 217.779 278.608 221.02 280.074C221.358 276.069 224.391 272.431 228.27 271.38C232.148 270.328 236.604 271.935 238.919 275.22C239.925 276.649 242.153 275.599 243.489 274.471C246.256 272.134 249.024 269.796 251.791 267.459C253.35 266.142 255.066 264.433 254.739 262.418C253.12 252.44 252.918 242.233 254.14 232.199C247.291 236.938 241.614 243.357 237.749 250.734ZM230.676 322.575C224.015 327.099 215.224 326.311 207.231 325.343C202.865 324.814 198.347 324.234 194.593 321.942C193.821 321.471 192.81 320.932 192.097 321.488C196.573 327.073 202.367 331.593 208.873 334.574C209.84 335.017 211.266 335.278 211.724 334.319C212.778 332.111 215.976 331.294 217.96 332.724C219.574 333.888 221.805 332.77 223.399 331.581C226.981 328.91 230.249 325.82 233.117 322.394C232.698 321.563 231.446 322.052 230.676 322.575ZM192.906 285.085C194.914 288.474 199.494 290.072 203.174 288.665C206.854 287.259 209.203 283.015 208.439 279.15C207.675 275.286 203.888 272.253 199.95 272.353C196.012 272.452 192.383 275.672 191.816 279.57C191.54 281.46 191.932 283.442 192.906 285.085ZM223.495 279.225C223.022 282.025 224.119 284.976 226.105 287.005C227.564 288.495 229.575 289.548 231.659 289.471C235.385 289.333 238.095 285.77 239.245 282.223C239.544 281.298 239.78 280.315 239.598 279.36C239.361 278.12 238.461 277.118 237.52 276.276C235.16 274.163 231.976 272.562 228.888 273.272C226.122 273.908 223.968 276.426 223.495 279.225Z" fill="#00160A"/>
</svg>
