<svg width="750" height="750" viewBox="0 0 750 750" fill="none" xmlns="http://www.w3.org/2000/svg">
<rect width="750" height="750" fill="none"/>
<ellipse cx="342" cy="399.414" rx="269" ry="282.586"/>
<path fill-rule="evenodd" clip-rule="evenodd" d="M392.804 229.598C406.027 251.31 419.566 272.532 435.589 292.269L437.298 294.367L445.132 303.909C461.213 323.558 476.914 344.073 480.775 368.809C479.832 383.539 483.083 403.099 479.026 421.776C476.221 434.691 471.538 447.166 466.084 457.259L464.806 461.343C463.67 464.958 462.54 468.511 461.464 471.833L459.61 477.519L458.6 480.651C452.461 499.816 447.076 519.444 447.54 539.498C447.889 554.565 451.605 569.544 458.339 583.026C461.698 589.753 465.881 596.203 471.603 601.081C486.215 613.537 508.773 613.241 525.746 604.265C542.72 595.288 554.845 579.185 563.868 562.236C565.318 559.511 569.038 558.68 571.985 559.597C574.933 560.515 577.262 562.747 579.399 564.974C600.734 587.211 614.562 616.528 618.15 647.135C618.736 652.132 619.042 657.303 617.521 662.1C616.001 666.896 612.297 671.284 607.371 672.306C603.436 673.122 599.42 671.742 595.422 671.329C581.088 669.85 568.362 679.71 556.981 688.753C496.368 736.909 416.214 709.847 385.319 656.516C361.944 616.164 362.63 553.919 362.63 532.031C362.63 510.143 403.225 410.289 417.286 397.133L418.756 395.268L421.647 391.616C427.744 383.881 433.65 375.935 436.676 366.634C440.717 354.209 439.133 340.504 434.776 328.187C430.419 315.87 424.205 303.351 417.286 292.269L390.966 252.661C389.469 250.296 387.803 247.929 385.319 246.687C382.61 245.333 376.202 252.661 377.498 245.534C378.795 238.407 384.205 230.206 392.804 229.598Z" fill="white"/>
<path fill-rule="evenodd" clip-rule="evenodd" d="M557.575 496.38C552.352 480.433 545.327 465.076 536.677 450.696C524.748 430.863 506.376 411.238 483.234 411.587C475.778 432.283 476.314 407.557 473.085 407.63C469.504 407.711 466.282 404.184 466.686 400.625C467.09 397.066 471.021 394.35 474.493 395.232C470.389 394.929 465.82 394.4 463.177 391.246C460.534 388.092 462.418 381.727 466.497 382.264C463.745 382.486 462.528 378.307 464.213 376.121C465.899 373.934 468.912 373.379 471.644 372.981C478.453 371.989 485.261 370.998 492.07 370.006C488.475 366.294 485.327 362.148 482.718 357.687C495.107 353.764 508.451 360.961 517.489 370.3C526.526 379.639 533.085 391.254 542.768 399.922C564.507 419.384 582.847 442.632 596.713 468.305C602.714 479.415 607.891 490.996 611.689 503.038C621.797 535.085 621.785 570.242 611.655 602.282C384.634 665.748 473.247 519.942 458.392 489.558C456.843 486.389 468.051 538.608 492.07 565.425C501.969 576.478 515.617 579.962 528.964 578.609C583.365 573.096 558.118 498.039 557.575 496.38Z" fill="white"/>
<path fill-rule="evenodd" clip-rule="evenodd" d="M183.888 621.719C300.199 690.579 353.242 666.073 363.677 665.748C403.839 664.494 474.037 576.249 480.752 568.658C482.428 566.764 483.308 563.922 483.003 561.412C482.844 560.111 480.382 560.471 479.626 559.402C477.183 555.947 475.38 552.063 473.659 548.197C457.739 512.439 459.707 467.274 445.655 430.741C437.444 409.392 406.755 332.972 375.516 321.359C368.102 318.603 357.948 314.927 350.226 313.215C350.117 313.191 351.87 297.432 351.87 297.432H343.842C343.842 297.432 333.973 312.691 333.643 311.569C330.944 302.395 330.944 281.502 329.927 261.775C329.295 249.527 294.62 234.571 294.62 234.571C293.728 234.219 280.148 276.002 265.329 303.83C262.916 308.362 248.468 303.83 248.468 303.83C248.468 303.83 245.331 304.44 243.362 306.375C241.394 308.31 236.981 315.691 236.981 315.691C236.981 315.691 245.389 326.381 245.301 326.533C242.282 331.755 155.171 414.93 164.595 556.208C164.595 556.208 165.593 567.736 167.533 574.323C168.984 579.25 130 585.158 130 585.158C130 585.158 145.865 609.124 158.881 615.67C171.897 622.216 179.514 612.75 180.374 615.67C181.164 618.353 183.888 621.719 183.888 621.719Z" fill="white"/>
<path fill-rule="evenodd" clip-rule="evenodd" d="M317.429 328.325C308.598 317.174 306.39 307.098 306.831 291.922C306.983 286.688 308.419 281.504 310.197 276.58C314.295 265.234 318.976 254.069 324.393 243.291C326.028 240.039 328.921 242.455 329.548 244.172C330.41 246.534 331.092 249.043 331.083 251.558C331.049 261.456 329.089 271.313 329.419 281.206C329.685 289.153 334.869 305.287 333.004 314.778C330.916 325.407 327.398 324.797 318.84 329.238L317.429 328.325Z" fill="#E7EAEE"/>
<path fill-rule="evenodd" clip-rule="evenodd" d="M184.645 616.175C198.191 614.955 213.86 612.971 224.796 603.718C228.62 600.483 230.37 594.641 234.971 592.663C236.851 591.854 275.154 631.67 332.645 637.621C374.969 642.002 397.001 619.855 397.425 623.248C397.936 627.342 404.164 646.945 403.103 650.932C402.57 652.934 400.605 654.578 398.653 655.272C379.826 661.96 362.703 669.548 343.41 674.739C337.983 676.199 332.315 676.639 326.71 677.049C321.769 677.411 316.744 677.799 311.846 677.049C298.172 674.956 284.54 672.304 271.224 668.555C260.526 665.543 250.225 661.212 240.014 656.825C231.093 652.994 222.045 649.211 213.899 643.93C206.595 639.196 200.346 632.977 194.012 627.008C191.969 625.082 190.582 622.563 188.868 620.341L184.645 616.175Z" fill="white"/>
<ellipse cx="326.707" cy="172.26" rx="68.3369" ry="93.2596" fill="white"/>
<circle cx="366.5" cy="215.5" r="5.5" fill="#FFB61D"/>
<path fill-rule="evenodd" clip-rule="evenodd" d="M399.923 38C372.638 61.0028 337.832 72.669 303.937 83.837C319.304 72.8236 335.67 60.4338 340.792 42.2351C323.737 56.1443 306.138 69.3871 288.049 81.9232C287.692 82.171 287.333 82.4189 286.975 82.6669C278.614 88.4536 270.092 94.3519 264.153 102.582C257.958 111.164 255.089 123.015 259.871 132.458C262.411 137.473 261.244 143.355 260.13 148.965C259.992 149.665 259.853 150.36 259.724 151.05C254.382 179.388 265.49 210.234 287.672 228.661C292.18 232.406 290.922 239.525 289.129 245.105C282.971 264.275 275.274 282.952 266.137 300.896C264.356 304.393 259.491 308.159 257.357 304.866C254.357 300.237 247.334 299.538 242.601 302.371C237.868 305.204 235.212 310.616 234.136 316.026C253.459 335.319 277.013 350.352 302.648 359.754C306.835 361.29 311.707 362.627 315.562 360.386C287.71 354.627 264.084 336.868 241.49 319.594C236.59 315.849 240.478 307.071 246.485 305.677C252.493 304.282 258.508 307.592 263.646 311.004C282.448 323.489 299.15 339.13 312.842 357.074C302.238 336.656 284.496 320.651 264.887 308.618C279.774 286.346 289.97 260.954 294.62 234.571C302.633 248.406 316.696 258.59 332.339 261.888C326.148 277.563 324.691 295.072 328.204 311.554C329.095 315.733 326.666 319.76 324.436 323.46C324.315 323.659 324.196 323.858 324.077 324.056C319.465 331.738 316.102 340.168 314.158 348.915C313.942 349.887 313.748 350.93 314.111 351.858C315.351 355.028 320.169 353.067 322.544 350.628C335.484 337.337 345.723 321.427 352.459 304.143C353.685 300.998 354.186 296.373 351.01 295.23C349.614 294.727 348.069 295.227 346.712 295.826C339.999 298.79 334.477 304.361 331.573 311.101C329.673 296.924 330.018 282.449 332.591 268.38C333.238 264.841 334.801 260.58 338.377 260.183C351.737 258.7 361.346 246.86 368.247 235.324C385.162 207.052 395.151 171.682 382.828 141.127L406.465 153.656C402.956 147.551 400.196 141.696 397.437 135.841C394.677 129.985 391.918 124.13 388.409 118.025C402.066 114.668 414.27 109.087 426.42 101.707C438.571 94.3268 447.411 82.3455 453.547 69.5216C427.917 88.4854 395.383 97.8954 363.587 95.5412C369.27 90.2834 374.397 83.5675 374.671 75.8305C369.093 83.6764 360.152 89.0438 350.604 90.2786C348.783 88.6261 351.496 85.976 353.754 85.0039C374.441 76.0991 391.39 58.8436 399.923 38ZM283.508 175.054L283.55 175.286C285.396 185.394 287.797 195.399 290.741 205.243C292.246 198.792 292.771 192.182 293.297 185.568C293.665 180.923 294.035 176.276 294.743 171.679C296.462 160.535 300.694 149.009 309.836 142.41C314.302 139.186 319.608 137.38 324.826 135.618C327.998 134.548 331.322 133.462 334.63 133.972C336.924 134.325 339.025 135.422 341.078 136.503L363.73 148.427C361.758 143.395 358.9 138.711 355.326 134.657C361.722 135.151 368.074 136.211 374.284 137.821C375.648 138.174 377.066 138.588 378.078 139.569C378.919 140.384 379.385 141.501 379.804 142.594C386.079 158.966 386.669 177.251 382.793 194.351C378.918 211.451 370.718 227.399 360.157 241.396C356.697 245.981 352.901 250.445 348.061 253.54C339.678 258.901 328.443 259.461 319.568 254.962C312.379 251.317 307.259 245.015 302.11 238.677C298.049 233.678 293.97 228.656 288.843 224.898C276.226 215.651 267.908 201.283 264.195 186.088C260.481 170.893 261.103 154.894 263.953 139.514C269.109 145.65 273.543 152.391 277.136 159.555C272.121 156.59 265.427 161.84 264.935 167.645C264.444 173.449 268.019 178.779 271.844 183.173C273.423 184.987 275.144 186.788 277.36 187.721C279.576 188.655 282.416 188.506 284.072 186.762C277.428 185.371 271.585 180.602 268.89 174.373C267.101 170.236 267.29 164.343 271.371 162.429C274.483 160.97 278.334 162.783 280.33 165.582C282.279 168.318 282.904 171.743 283.508 175.054ZM361.344 132.535C356.993 132.057 352.311 131.542 349.432 128.325C342.661 120.758 334.112 114.793 324.675 111.047C323.314 110.507 321.094 110.551 321.119 112.015C335.688 118.119 348.331 128.734 356.865 142.027C340.188 131.552 320.377 122.183 301.421 127.524C305.251 129.239 309.668 129.143 314.024 129.048C319.437 128.931 324.757 128.815 328.742 132.179C318.919 133.841 309.38 138.345 302.804 145.831C291.646 158.534 290.76 176.982 290.442 193.886C290.301 193.255 290.102 192.351 289.858 191.235C287.914 182.363 283.048 160.148 280.33 156.004C279.248 154.356 278.187 152.759 277.156 151.207C269.178 139.198 262.997 129.893 263.142 120.564C263.294 110.841 270.594 100.914 283.55 92.0023C293.652 85.0543 302.819 77.2806 311.991 69.503C319.73 62.9406 327.472 56.3755 335.781 50.3013C329.078 61.4383 318.638 69.7319 308.424 77.7728L287.432 94.2997C299.743 89.5328 312.108 85.5049 324.474 81.4769C336.84 77.449 349.205 73.421 361.516 68.6541C372.436 64.4255 383.508 56.9986 391.617 48.5493C384.144 63.9215 368.482 73.3008 353.657 81.8086C349.616 84.1277 345.063 86.531 340.528 85.4653C329.57 82.8905 317.593 84.9912 308.166 91.1417C316.675 88.9458 325.407 87.121 334.182 87.5974C342.957 88.0739 351.873 91.0745 358.026 97.3494L343.002 95.863C341.798 95.7439 340.162 95.9398 339.996 97.1384C339.821 98.4027 341.5 98.994 342.772 99.1001C376.672 101.927 411.283 96.1103 442.314 82.1702C423.17 101.879 395.907 110.984 369.758 119.415C370.41 121.068 372.754 121.234 374.399 120.564C374.983 120.326 375.544 120.019 376.104 119.712C377.12 119.156 378.131 118.602 379.269 118.469C382.502 118.092 385.001 121.136 386.754 123.878C391.708 131.632 396.167 139.702 400.097 148.022C389.216 139.579 375.987 134.196 362.303 132.641C361.986 132.605 361.666 132.57 361.344 132.535ZM347.329 309.727C343.536 317.004 339.385 324.094 334.896 330.964C329.705 338.907 323.995 346.628 316.793 352.805C315.94 351.777 316.162 350.259 316.467 348.958C320.24 332.916 329.581 318.826 338.935 305.259C340.028 303.674 341.135 302.077 342.546 300.767C344.175 299.255 346.189 298.161 348.344 297.618C349.285 297.381 350.38 297.278 351.138 297.884C352.41 298.901 351.787 300.922 351.058 302.379C349.828 304.835 348.599 307.291 347.329 309.727ZM368.203 87.1641L365.948 89.961C364.704 91.5039 363.371 93.1133 361.516 93.811C359.661 94.5087 357.151 93.8753 356.503 92.0023C360.614 90.1506 364.574 87.9609 368.327 85.4627C368.949 85.7049 368.622 86.6445 368.203 87.1641ZM267.676 149.695C267.208 149.572 266.697 149.42 266.43 149.016C266.162 148.612 266.379 147.903 266.863 147.919C267.576 148.125 268.029 148.975 267.8 149.682L267.676 149.695ZM264.233 151.971C263.747 151.323 264.423 150.157 264.797 149.943C265.082 149.779 265.68 150.75 265.551 151.215C265.398 151.765 264.793 152.249 264.233 151.971ZM382.632 158.089C380.216 160.088 376.725 159.88 373.605 159.566L366.365 158.836C365.185 158.717 363.666 158.245 363.677 157.06C363.684 156.199 364.577 155.618 365.411 155.404C367.395 154.894 369.376 155.52 371.376 156.151C373.019 156.67 374.674 157.193 376.355 157.094C376.878 157.063 377.396 156.971 377.914 156.879C378.519 156.772 379.124 156.664 379.738 156.655C380.876 156.636 382.139 157.063 382.632 158.089ZM333.328 157.368C332.589 156.271 331.16 155.901 329.848 155.733C325.038 155.114 320.18 156.063 315.424 157.008L307.238 158.634L300.199 160.032C302.029 162.054 304.882 162.884 307.609 162.912C309.889 162.936 312.134 162.471 314.372 162.007C314.811 161.915 315.251 161.824 315.69 161.737C321.094 160.663 326.617 160.149 332.123 160.346C333.444 160.393 334.066 158.466 333.328 157.368ZM414.202 363.525C409.107 355.187 403.954 346.774 397.168 339.742C392.477 334.88 387.062 330.746 381.301 327.214C372.684 321.931 363.256 317.971 353.45 315.517C352.446 315.266 351.37 314.99 350.692 314.209C350.013 313.429 350.045 311.967 351 311.569C386.422 319.714 416.385 348.251 426.247 383.234L414.202 363.525ZM252.093 479.765C252.396 478.354 253.849 476.555 254.829 477.615C250.944 502.551 244.245 527.048 234.9 550.491C232.721 549.531 233.16 546.348 233.95 544.102C241.346 523.068 247.409 501.565 252.093 479.765ZM598.438 628.583C603.663 640.297 607.326 652.923 607.17 665.748C611.331 662.817 610.663 656.537 609.332 651.624C603.438 629.872 593.37 609.259 579.839 591.237C578.748 591.998 579.313 593.696 579.983 594.845C581.056 596.687 582.138 598.525 583.22 600.363L583.22 600.364L583.221 600.365L583.221 600.366C588.649 609.587 594.082 618.818 598.438 628.583ZM300.811 352.184C300.17 351.474 300.845 350.187 301.794 350.068C302.743 349.949 303.628 350.697 303.99 351.582C304.352 352.467 304.313 353.458 304.267 354.413C302.811 354.786 301.154 353.699 300.915 352.215L300.811 352.184ZM218.354 363.228C197.844 392.839 180.617 424.975 170.037 459.407C159.458 493.838 155.679 530.672 161.86 566.158C162.307 568.726 164.511 572.073 166.638 570.567C166.638 511.683 169.132 484.536 183.888 444.683C198.645 404.831 216.71 369.223 242.665 335.573C244.294 333.46 246.026 330.779 244.986 328.322C235.58 339.541 226.69 351.193 218.354 363.228ZM239.005 586.648C223.369 597.474 206.454 606.45 188.725 613.332C179.755 616.813 169.988 619.794 160.633 617.548C148.785 614.704 140.486 604.265 133.76 594.105C131.951 591.372 130.127 588.433 130.005 585.158C129.883 581.882 132.165 578.286 135.442 578.192C157.285 577.571 179.032 573.648 199.716 566.598C201.198 566.093 202.683 565.571 204.173 565.047L204.178 565.045L204.181 565.044C214.149 561.539 224.305 557.968 234.722 559.056C241.496 559.764 248.979 563.641 249.869 570.394C250.767 577.209 244.657 582.736 239.005 586.648ZM135.679 586.634C140.667 592.733 145.088 599.295 148.866 606.208C152.352 612.587 160.074 615.727 167.342 615.669C174.611 615.612 181.571 612.898 188.257 610.046C204.408 603.158 220.113 595.225 235.242 586.313C238.261 584.535 241.316 582.667 243.559 579.976C245.802 577.285 247.127 573.583 246.143 570.221C244.456 564.454 237.295 562.446 231.287 562.447C220.242 562.45 209.611 565.95 199.065 569.423L199.064 569.423L199.063 569.424L199.062 569.424L199.061 569.425L199.06 569.425L199.059 569.425L199.058 569.426L199.057 569.426L199.056 569.426C197.141 570.057 195.228 570.687 193.317 571.294C181.027 575.201 168.465 578.249 155.752 580.409C155.32 580.482 154.888 580.555 154.455 580.628L154.454 580.628C147.888 581.731 141.133 582.866 135.679 586.634ZM432.365 288.382L392.235 236.445L388.343 242.954C400.313 260.182 412.294 277.426 423.049 295.438C434.331 314.333 444.546 335.625 441.694 357.447C439.15 376.914 426.841 392.992 414.713 408.834C411.916 412.487 409.129 416.128 406.473 419.795C362.896 479.962 351.099 561.865 375.924 631.885C369.65 621.906 366.052 610.468 363.564 598.945C348.338 528.426 373.931 453.512 418.436 396.731C419.273 395.663 420.119 394.596 420.967 393.527L420.974 393.517C427.69 385.047 434.499 376.459 437.826 366.231C441.867 353.807 440.283 340.102 435.926 327.785C431.569 315.467 424.595 304.274 417.676 293.192L392.52 252.903C390.916 250.333 389.179 247.64 386.469 246.285C383.76 244.931 379.805 245.592 378.662 248.397C376.807 239.707 383.94 230.225 392.804 229.598C406.027 251.31 420.716 272.13 436.739 291.867C438.663 294.237 440.615 296.609 442.574 298.991L442.574 298.992C459.881 320.028 477.767 341.77 481.925 368.407C478.543 359.624 474.573 351.066 470.051 342.811C459.439 323.435 445.872 305.863 432.365 288.382ZM388.287 233.342C385.616 235.596 383.194 238.144 381.08 240.928C380.735 241.382 380.383 241.885 380.376 242.456C380.367 243.142 380.944 243.786 381.627 243.852C382.362 243.923 383.014 243.415 383.564 242.923C386.293 240.484 388.706 237.692 390.724 234.639C391.017 234.196 391.314 233.664 391.142 233.161C390.775 232.091 389.152 232.613 388.287 233.342ZM353.14 223.781C357.342 222.865 361.942 224.002 365.234 226.769C365.576 224.744 364.015 222.786 362.129 221.973C360.243 221.16 358.111 221.221 356.059 221.297L337.687 221.972C334.437 222.092 331 222.17 328.156 220.592L327.98 220.494C326.751 219.809 325.226 218.958 324.219 219.886C325.982 222.735 329.286 224.562 332.636 224.54L344.141 224.465C347.155 224.445 350.195 224.423 353.14 223.781ZM264.812 156.227C265.624 155.199 266.646 158.03 266.052 158.663C265.815 158.914 264.7 158.784 264.489 158.152C264.277 157.52 264.812 156.227 264.812 156.227ZM271.372 196.345C272.065 197.021 272.079 198.269 271.4 198.96C269.57 197.304 271.372 196.345 271.372 196.345ZM278.402 195.993C279.384 195.63 279.946 194.405 279.581 193.424L279.462 193.534C278.822 193.28 278.01 193.617 277.738 194.249C277.465 194.881 277.778 195.702 278.402 195.993ZM343.922 209.246C344.206 207.679 346.583 207.803 347.881 208.726C348.121 208.897 348.362 209.084 348.605 209.272C349.678 210.102 350.796 210.967 352.059 210.671C352.977 210.457 353.639 209.661 354.119 208.85C356.585 204.691 355.947 199.692 355.317 194.76V194.76V194.76V194.76V194.76V194.759V194.759V194.759L355.317 194.759C355.137 193.35 354.958 191.946 354.852 190.569C354.374 184.342 355.51 178.115 356.662 171.976C356.855 170.946 357.068 169.871 357.718 169.049C358.368 168.227 359.6 167.762 360.496 168.306C357.845 175.619 356.78 183.503 357.395 191.257C357.486 192.396 357.612 193.534 357.738 194.672L357.738 194.673C358.016 197.178 358.294 199.682 358.19 202.196C358.038 205.852 356.962 209.648 354.323 212.182C353.718 212.764 353.008 213.284 352.184 213.442C350.772 213.711 349.408 212.881 348.21 212.087L343.922 209.246ZM262.439 163.816C262.094 164.28 262.309 165.637 262.647 165.629C262.985 165.621 264.078 164.296 264.019 163.78C263.959 163.263 262.784 163.351 262.439 163.816ZM271.061 153.676C270.198 154.028 270.049 155.423 270.819 155.948L270.824 156.046C271.915 155.913 272.103 154.022 271.061 153.676ZM372.27 179.337C375.585 179.042 378.871 177.391 380.649 174.579C380.777 174.377 380.9 174.158 380.903 173.919C380.91 173.35 380.21 172.996 379.654 173.116C379.154 173.223 378.753 173.572 378.364 173.911C378.32 173.95 378.277 173.988 378.233 174.025C374.932 176.867 369.956 177.589 365.983 175.803C365.879 175.756 365.774 175.708 365.669 175.659C364.89 175.298 364.075 174.92 363.253 175.112C362.321 175.33 361.782 176.802 362.64 177.226C365.625 178.698 368.956 179.632 372.27 179.337ZM271.103 187.738C271.646 188.124 271.921 188.965 271.487 189.469C270.888 190.164 269.766 189.618 269.047 189.049C268.402 188.539 267.688 187.86 267.826 187.05C267.965 186.24 270.56 187.353 271.103 187.738ZM258.487 606.875C252.274 601.52 246.053 596.157 239.347 591.481C265.846 626.479 310.594 646.81 354.385 643.749C363.34 643.123 372.454 641.507 380.192 636.957C392.038 629.992 399.045 617.247 405.486 605.108L400.406 626.691L426.745 609.201L413.678 628.807L428.907 617.169C430.419 616.013 433.412 615.454 433.498 617.356L418.691 631.397C424.31 629.222 430.22 627.008 436.196 627.77C417.607 648.324 393.236 663.592 366.631 671.351C340.026 679.109 311.269 679.336 284.545 671.998C277.773 670.138 271.138 667.807 264.597 665.251C237.656 654.724 212.226 640.336 189.328 622.663C187.716 621.419 185.248 620.203 183.888 621.719C204.545 642.8 230.759 657.771 258.155 668.752C265.762 671.801 273.493 674.566 281.403 676.708C334.299 691.038 394.349 674.845 432.869 635.865C434.981 633.728 437.161 631.22 437.169 628.216C437.178 625.212 433.565 622.331 431.157 624.126C433.122 622.472 435.204 620.63 435.739 618.119C436.275 615.608 434.257 612.485 431.742 613C431.003 613.151 430.303 613.58 429.619 613.999C428.554 614.651 427.529 615.279 426.459 614.8C428.728 612.397 430.804 608.039 427.953 606.369C426.044 605.25 423.699 606.692 421.976 608.079C416.57 612.431 411.224 616.858 405.941 621.359C405.401 618.726 406.465 616.087 407.478 613.573L407.568 613.349C407.612 613.24 407.655 613.132 407.698 613.024C408.769 610.347 409.654 607.252 408.385 604.663C407.117 602.073 402.716 601.229 401.508 603.848C395.961 615.872 388.883 628.06 377.304 634.484C368.1 639.59 357.17 640.406 346.644 640.433C326.021 640.485 304.844 637.761 286.723 627.916C276.374 622.293 267.438 614.591 258.487 606.875ZM321.221 343.859C321.095 342.905 321.17 341.86 321.766 341.106C322.363 340.352 323.611 340.076 324.299 340.747C325.089 341.518 324.695 342.837 324.251 343.847C323.865 344.724 323.35 345.712 322.411 345.906C321.472 346.101 320.555 344.642 321.401 344.192L321.221 343.859ZM321.581 179.353C326.114 179.243 330.176 176.685 333.976 174.211C334.619 173.793 334.232 172.669 333.504 172.427C332.776 172.186 331.993 172.524 331.318 172.888C330.697 173.223 330.09 173.587 329.483 173.951L329.482 173.952C328.177 174.735 326.873 175.518 325.436 176.005C321.43 177.365 317.3 176.243 313.115 175.107C310.308 174.344 307.475 173.575 304.638 173.543C303.692 173.532 302.379 174.306 302.961 175.052C303.138 175.28 303.44 175.365 303.72 175.436L314.96 178.297C317.133 178.85 319.339 179.407 321.581 179.353ZM459.647 489.874C466.697 500.321 470.205 512.562 473.699 524.753C474.615 527.948 475.53 531.14 476.507 534.295C481.213 549.489 488.31 565.126 501.836 573.495C515.662 582.049 534.899 580.7 547.395 570.298C557.564 561.834 562.851 548.525 563.782 535.327C564.714 522.13 561.693 508.953 557.575 496.38C552.352 480.433 545.327 465.076 536.677 450.696C524.748 430.863 506.376 411.238 483.234 411.587C475.778 432.283 468.625 453.088 461.78 473.993C454.856 495.136 448.175 516.854 448.69 539.096C449.04 554.163 452.756 569.142 459.489 582.624C462.849 589.351 467.031 595.801 472.753 600.679C487.365 613.135 509.923 612.839 526.897 603.863C543.87 594.886 555.996 578.783 565.018 561.834C566.468 559.109 570.188 558.278 573.135 559.195C576.083 560.113 578.412 562.344 580.549 564.572C601.884 586.809 615.712 616.126 619.3 646.733C619.886 651.73 620.192 656.901 618.671 661.697C617.151 666.494 613.448 670.882 608.521 671.904C605.792 672.47 603.024 671.979 600.251 671.488L600.249 671.488C599.024 671.271 597.797 671.054 596.572 670.927C584.183 669.649 573.334 677.453 562.977 684.904C561.351 686.074 559.737 687.235 558.131 688.351C513.255 719.531 448.925 719.451 404.127 688.159C398.163 683.994 392.323 679.066 389.503 672.36C412.794 694.124 443.972 707.261 475.815 708.727C507.659 710.193 539.912 699.978 565.105 680.446C565.831 679.883 566.561 679.31 567.296 678.732C574.704 672.91 582.61 666.697 591.85 667.312C594.006 667.456 596.193 667.974 598.366 668.489C602.59 669.489 606.761 670.477 610.558 668.679C617.033 665.612 617.72 656.757 616.938 649.635C613.438 617.797 598.922 587.276 576.434 564.469C573.906 561.904 569.015 559.711 567.377 562.918C559.271 578.798 549.014 594.11 534.453 604.399C519.892 614.688 500.365 619.224 483.818 612.584C467.629 606.087 456.876 590.194 451.382 573.637C443.195 548.962 444.71 521.931 450.811 496.659C456.065 474.899 464.569 454.114 473.056 433.373L473.056 433.372C474.425 430.025 475.794 426.68 477.149 423.332C478.36 420.338 479.584 417.184 479.218 413.974C478.852 410.765 476.314 407.557 473.085 407.63C469.504 407.711 466.281 404.184 466.685 400.625C467.021 397.67 469.787 395.297 472.703 395.08C473.304 395.14 473.903 395.188 474.492 395.232C473.903 395.082 473.299 395.036 472.703 395.08C469.116 394.723 465.44 393.947 463.177 391.246C460.675 388.261 462.229 382.397 465.863 382.236C466.064 382.272 466.275 382.282 466.497 382.264C466.279 382.236 466.068 382.227 465.863 382.236C463.568 381.826 462.663 378.131 464.213 376.121C465.899 373.934 468.912 373.379 471.644 372.981L492.07 370.006C488.474 366.294 485.327 362.148 482.717 357.687C495.107 353.764 508.45 360.961 517.488 370.3C521.462 374.406 524.956 378.952 528.448 383.494C532.897 389.283 537.342 395.065 542.767 399.922C564.507 419.384 582.847 442.632 596.713 468.305C602.714 479.415 607.89 490.996 611.689 503.038C621.797 535.085 621.785 570.242 611.655 602.282C608.015 597.716 609.584 591.102 610.975 585.432C619.099 552.3 614.52 516.742 601.327 485.283C588.133 453.824 566.682 426.28 541.659 403.095C536.454 398.273 532.158 392.615 527.858 386.951C524.722 382.821 521.583 378.687 518.087 374.872C509.799 365.824 498.2 358.282 486.033 359.874C488.886 361.702 491.93 363.768 493.012 366.978C494.094 370.188 491.803 374.59 488.444 374.146C480.346 373.076 471.909 374.761 464.844 378.86L485.613 382.022C477.719 382.818 469.941 384.768 462.605 387.791L485.734 396.437C479.745 396.271 473.718 397.834 468.565 400.89C473.179 407.065 481.074 408.232 489.033 409.408C492.48 409.918 495.939 410.43 499.148 411.35C507.775 413.825 515.062 419.646 521.301 426.097C536.602 441.92 546.805 461.953 555.161 482.316C561.147 496.903 566.363 512.128 566.799 527.889C567.236 543.65 562.306 560.179 550.664 570.812C535.243 584.896 509.093 585.084 493.471 571.222C482.681 561.647 477.478 547.411 472.974 533.707C468.205 519.198 463.761 504.582 459.647 489.874Z" fill="#00160A"/>
<path fill-rule="evenodd" clip-rule="evenodd" d="M613.705 231.29C609.759 231.18 608.147 230.611 604.543 232.436C587.848 240.89 599.66 255.427 614.551 245.567C622.884 240.05 616.92 225.637 616.241 219.024C615.568 212.465 614.769 208.682 619.344 209.745C631.054 212.465 628.183 223.155 628.652 227.865C628.86 229.955 631.663 232.682 633.59 229.869C638.353 222.914 636.76 211.629 631.054 205.603C628.381 202.781 624.515 201.343 621.747 198.616C619.056 195.966 617.671 192.104 614.829 189.621C610.776 186.082 609.787 194.42 609.759 195.048C609.232 206.873 608.81 217.715 612.717 228.578L613.705 231.29Z" fill="#FFB61D"/>
<circle cx="314" cy="215" r="7" fill="#FFB61D"/>
<path fill-rule="evenodd" clip-rule="evenodd" d="M630.332 266.982C631.578 262.455 634.73 268.102 634.932 269.552C635.16 271.189 631.071 281.936 635.536 278.939C643.996 273.26 636.249 266.694 634.015 260.627C633.19 258.387 633.975 255.817 633.399 253.503C633.298 253.098 632.539 253.002 632.168 253.203C624.447 257.385 628.919 269.952 625.443 273.937C624.155 275.414 622.449 272.519 619.769 272.276C616.463 271.977 612.764 273.017 613.491 277.268C614.81 284.974 621.547 288.607 626.506 278.331C630.046 270.997 629.04 271.679 630.332 266.982Z" fill="#FFB61D"/>
<path fill-rule="evenodd" clip-rule="evenodd" d="M359.128 609.893C333.675 565.672 348.621 419.957 363.756 456.977C365.435 461.082 363.105 480.064 360.263 497.548C357.048 517.323 353.961 548.973 356.466 568.83C357.804 579.44 368.035 625.368 359.128 609.893Z" fill="#E7EAEE"/>
</svg>
