<svg width="750" height="750" viewBox="0 0 750 750" fill="none" xmlns="http://www.w3.org/2000/svg">
<rect width="750" height="750" fill="none"/>
<path fill-rule="evenodd" clip-rule="evenodd" d="M67.1752 593.05C-12.0938 508.433 169.917 437.977 139.111 318.795C108.306 199.613 40.7419 64.9494 327.5 124.611C467.416 153.721 558.916 149.885 634.929 197.128C716.76 247.988 575.273 347.16 686.628 490.677C810.595 650.448 146.444 677.666 67.1752 593.05Z"/>
<path d="M188.125 541.211C185.995 534.515 158.895 544.96 149.348 546.345C146.797 546.715 158.515 253.127 168.062 185.11C168.703 180.542 171.971 174.454 176.112 176.518C181.97 179.437 188.836 179.252 195.382 179.019C313.768 174.795 432.349 175.989 550.625 182.598C554.623 182.821 558.956 183.183 561.934 185.849C564.776 188.393 565.669 192.401 566.386 196.14C580.037 267.379 581.829 490.417 576.527 562.75C572.504 562.719 545.418 557.761 545.418 557.761C545.418 557.761 195.382 530.416 188.125 541.211Z" fill="white"/>
<path fill-rule="evenodd" clip-rule="evenodd" d="M347.939 409.651C343.003 463.044 337.573 516.391 331.651 569.683C331.492 571.111 330.923 572.936 329.481 572.954C248.284 573.967 167.064 573.151 85.9044 570.507C85.0444 570.479 84.1058 570.42 83.4685 569.844C82.6412 569.097 82.6666 567.817 82.7555 566.707C87.1889 511.407 91.6222 456.107 96.0555 400.806C97.0144 399.652 98.7158 399.529 100.22 399.496C180.207 397.75 260.255 396.005 340.196 399.216C342.077 399.291 344.079 399.41 345.6 400.513C348.277 402.453 348.243 406.368 347.939 409.651Z" fill="white"/>
<path fill-rule="evenodd" clip-rule="evenodd" d="M520.522 235.388C521.788 236.359 522.277 238.008 522.687 239.547C536.24 290.373 542.615 343.094 541.567 395.674C541.445 401.786 541.553 408.722 546.074 412.856C549.21 354.943 542.816 296.529 527.225 240.65C525.765 235.419 529.773 230.382 533.491 226.412L559.597 198.532C571.864 246.985 575.415 297.012 575.376 347.11C573.152 351.068 570.97 355.051 569.228 359.188C565.178 368.811 563.535 379.283 562.776 389.698C559.913 429.021 569.241 468.348 582.87 505.34C583.576 507.256 584.364 509.266 585.969 510.526C587.536 511.757 589.616 512.061 591.594 512.297C610.943 514.605 630.583 514.458 649.896 511.862C651.588 511.634 653.385 511.34 654.659 510.201C655.804 509.177 656.327 507.644 656.787 506.177C666.402 475.479 667.938 442.916 669.265 410.772C670.063 391.432 670.372 370.514 659.224 354.699C657.283 351.945 655.037 349.423 652.793 346.903C650.172 343.96 647.553 341.019 645.422 337.713C641.034 330.906 638.902 322.667 639.435 314.583C639.909 307.392 631.451 303.21 624.358 301.98C624.009 301.92 623.66 301.862 623.309 301.806C623.436 299.527 623.563 297.934 623.69 297.896C629.717 296.069 635.512 293.483 640.89 290.212C643.833 288.423 647.032 285.12 645.444 282.069C644.147 279.579 640.628 279.453 637.877 280.041C633.448 280.988 629.229 282.899 625.601 285.603C627.54 276.948 631.723 268.802 637.633 262.173C635.217 265.945 638.537 271.659 643.018 271.927C647.499 272.196 651.412 267.632 650.991 263.177C652.788 266.822 657.779 268.482 661.412 266.642C665.045 264.802 666.643 259.805 664.75 256.208C667.64 259.027 673.027 258.621 675.416 255.37C677.806 252.119 676.527 246.831 672.891 245.068C675.318 245.304 677.859 245.525 680.114 244.599C682.369 243.674 684.186 241.201 683.505 238.867C683.085 237.431 681.859 236.388 680.624 235.539C676.743 232.871 672.148 231.244 667.448 230.876C668.852 229.536 670.523 228.534 672.196 227.532C673.632 226.671 675.069 225.809 676.341 224.732C679.094 222.399 680.957 218.182 678.888 215.23C677.397 213.104 674.372 212.524 671.852 213.168C669.332 213.813 667.193 215.43 665.129 217.011L667.998 207.057C668.67 204.723 669.259 201.947 667.699 200.083C665.508 197.468 661.046 199.018 658.877 201.651C658.011 202.703 657.308 203.888 656.607 205.07C655.553 206.848 654.504 208.618 652.912 209.91C652.82 207.093 652.696 204.156 651.333 201.686C649.971 199.216 646.962 197.402 644.298 198.346C642.351 199.036 641.126 200.939 640.25 202.804C637.505 208.645 636.755 215.395 638.148 221.693C634.677 218.952 630.03 217.443 625.728 218.488C621.426 219.533 617.778 223.507 617.889 227.92C618 232.333 622.57 236.317 626.851 235.186C623.782 236.1 620.602 237.074 618.229 239.219C615.857 241.364 614.553 245.041 616.102 247.835C618.13 251.491 623.357 251.547 627.45 250.65C632.636 249.513 637.656 247.626 642.304 245.067L634.753 258.061C629.106 267.778 621.779 283.207 619.69 301.33C613.334 300.677 606.859 301.021 600.954 303.359C593.594 306.272 587.298 312.767 586.32 320.629C585.611 326.333 583.56 331.617 581.008 336.756C580.028 290.252 575.141 243.828 566.386 198.139C565.67 194.4 564.776 190.392 561.935 187.848C558.956 185.182 554.623 184.82 550.625 184.597C432.349 177.988 313.768 176.794 195.382 181.017C188.836 181.251 181.97 181.436 176.112 178.517C171.971 176.453 168.703 182.541 168.062 187.109C158.515 255.126 152.268 323.602 149.348 392.218C149.25 394.521 150.568 397.859 152.657 396.868C156.077 326.157 163.088 255.618 173.652 185.612L193.599 213.733C195.022 215.74 196.511 217.963 196.346 220.415L186.59 365.796C185.994 374.677 185.426 383.805 188.125 392.29C194.35 337.368 198.433 282.205 200.362 226.968C200.498 223.064 205.597 221.737 209.514 221.547C311.906 216.576 414.411 225.424 516.54 234.264C517.935 234.385 519.414 234.537 520.522 235.388ZM619.457 303.609C611.825 302.792 603.841 305.349 596.864 308.889C594.261 310.209 591.36 312.308 591.604 315.22C591.854 318.209 595.221 319.779 598.126 320.516C608.725 323.206 620.066 322.903 630.507 319.651C633.116 318.838 636.06 317.391 636.475 314.686C636.951 311.585 633.826 309.242 631.076 307.736C629.081 306.645 627.061 305.58 624.916 304.828C624.342 304.626 623.764 304.449 623.182 304.294C623.124 305.497 623.067 306.783 623.009 308.069C622.781 313.141 622.552 318.22 622.324 318.285C621.38 318.551 620.432 318.799 619.479 319.028C618.974 313.74 619.012 308.58 619.457 303.609ZM569.167 366.754C570.652 361.908 572.889 357.352 575.356 352.889C575.249 370.36 574.73 387.832 574.016 405.242C573.851 409.246 574.959 414.702 578.982 414.734C580.734 390.823 581.443 366.837 581.114 342.865C584.69 336.578 587.937 330.187 589.366 323.137C604.538 327.984 621.457 327.12 636.058 320.753C637.5 328.096 640.405 335.148 644.551 341.374C646.637 344.505 649.033 347.433 651.426 350.356L651.427 350.357C655.215 354.986 658.996 359.605 661.518 365.001C665.276 373.041 665.927 382.146 666.242 391.016C667.553 427.996 664.03 465.145 655.788 501.217C655.066 504.379 653.655 508.161 650.443 508.594C631.523 511.144 612.306 511.477 593.309 509.584C591.362 509.39 589.277 509.112 587.824 507.8C586.49 506.595 585.96 504.758 585.49 503.022C575.107 464.673 564.635 425.575 566.375 385.881C566.658 379.426 567.275 372.931 569.167 366.754ZM405.827 182.996L557.266 190.369C547.823 202.399 537.951 214.094 527.673 225.424C523.824 229.669 517.241 229.626 511.511 229.249C493.991 228.094 476.464 226.831 458.932 225.567C374.156 219.458 289.263 213.34 204.581 219.384C202.611 219.524 201.184 217.616 200.163 215.931L180.676 183.775C241.497 186.19 302.432 185.728 363.209 182.392C377.401 181.613 391.629 182.304 405.827 182.996ZM357.682 245.623C360.195 244.564 362.807 243.477 365.535 243.573C367.757 243.651 369.866 244.511 371.923 245.353C408.14 260.176 445.092 273.215 482.601 284.405C488.269 286.096 489.831 293.214 490.415 299.08L501.928 414.642C504.401 414.374 504.844 411.003 504.605 408.536L493.066 289.529C494.939 289.247 496.76 290.038 498.517 290.801C498.63 290.85 498.742 290.899 498.855 290.947L499.002 291.011L499.125 291.063C501.069 291.891 503.371 292.533 505.229 291.528C507.086 290.522 507.4 287.177 505.372 286.581C460.168 273.306 415.425 258.477 371.248 242.128C369.38 241.436 367.462 240.733 365.469 240.743C363.587 240.753 361.774 241.399 360.004 242.037L221.73 291.913C221.11 294.511 225.233 295.473 227.676 294.374C228.048 294.206 228.429 294.022 228.816 293.834C230.97 292.792 233.3 291.665 235.181 292.934C232.106 323.446 229.526 354.007 227.44 384.602C227.243 387.492 228.126 391.536 231.025 391.318L238.321 295.488C238.529 292.757 239.18 289.432 241.797 288.59C281.033 275.972 319.711 261.632 357.682 245.623ZM443.343 534.204C445.332 534.17 447.833 533.763 448.354 531.85C447.509 530.243 445.329 530.027 443.509 530.017L361.571 529.529C354.175 529.485 346.642 529.46 339.576 531.639C340.063 533.293 342.219 533.649 343.948 533.696C377.071 534.588 410.213 534.758 443.343 534.204ZM357.843 546.87C351.353 546.792 344.768 546.701 338.537 544.888C372.939 543.711 407.377 543.595 441.786 544.542C444.712 544.622 447.858 544.786 450.161 546.586C449.693 547.771 448.111 547.947 446.832 547.931L357.843 546.87ZM441.635 499.158C410.676 500.35 379.634 499.377 348.812 496.248C346.712 496.035 343.859 496.35 343.548 498.43C376.993 502.427 410.749 503.835 444.412 502.638C444.867 500.975 443.364 499.092 441.635 499.158ZM417.407 381.454C418.833 382.699 419.117 384.767 419.307 386.646L426.197 454.659C432.482 454.444 438.803 455.328 444.786 457.259L426.754 460.438C430.997 466.919 434.286 474.018 436.484 481.438C409.768 481.205 383.059 480.195 356.402 478.409C354.849 478.305 353.096 478.094 352.166 476.851C351.026 475.329 351.757 473.182 352.524 471.444L357.647 459.828C358.463 457.979 355.567 456.692 353.576 457.072C353.384 457.109 353.188 457.149 352.988 457.189C351.113 457.567 348.953 458.003 347.885 456.519C346.229 454.217 350.006 451.667 352.832 451.978C353.376 452.037 353.939 452.126 354.509 452.216C356.903 452.593 359.406 452.987 360.972 451.314C361.938 427.995 364.109 404.725 367.474 381.628C367.608 380.709 367.794 379.7 368.524 379.123C369.185 378.6 370.102 378.586 370.946 378.597C384.877 378.777 398.804 379.282 412.711 380.11C414.369 380.208 416.159 380.363 417.407 381.454ZM412.345 383.59C399.636 382.442 386.897 381.611 374.146 381.098C373.05 381.054 371.848 381.046 370.996 381.732C370.08 382.469 369.875 383.755 369.736 384.92C367.173 406.521 365.55 428.233 364.873 449.974C364.848 450.782 364.868 451.702 365.472 452.244C365.933 452.659 366.603 452.723 367.224 452.766C384.491 453.97 401.791 454.701 419.098 454.958C419.886 454.969 420.767 454.945 421.325 454.39C421.931 453.787 421.904 452.818 421.835 451.967L416.597 387.394C416.53 386.569 416.447 385.699 415.968 385.023C415.194 383.929 413.684 383.711 412.345 383.59ZM424.996 463.468C424.555 462.684 424.07 461.876 423.3 461.41C422.545 460.953 421.624 460.891 420.743 460.84L367.688 457.781C366.051 457.686 364.276 457.628 362.93 458.56C361.842 459.312 361.246 460.572 360.698 461.773L355.976 472.115C355.698 472.725 355.425 473.46 355.778 474.03C356.129 474.595 356.903 474.685 357.57 474.714L431.396 477.998C429.742 472.963 427.595 468.089 424.996 463.468ZM336.027 294.105C336.967 297.556 338.918 300.686 341.372 303.296C349.366 311.796 363.057 314.313 373.599 309.277C384.141 304.24 390.737 292.079 389.255 280.525C387.773 268.971 378.367 258.875 366.926 256.476C360.306 255.087 353.235 257.409 348.027 261.711C342.818 266.012 339.332 272.105 337.202 278.502C335.529 283.525 334.637 288.998 336.027 294.105ZM383.281 282.179C377.652 282.671 371.989 282.784 366.344 282.519C365.871 282.497 365.366 282.461 364.991 282.173C364.423 281.736 364.375 280.916 364.376 280.201L364.396 265.552C364.397 264.602 364.43 263.563 365.051 262.842C366.275 261.421 368.605 262.291 370.139 263.374C376.521 267.88 381.254 274.653 383.281 282.179ZM345.559 283.537C345.135 283.571 344.685 283.601 344.306 283.409C343.317 282.909 343.536 281.452 343.946 280.426C347.159 272.387 353.194 265.499 360.755 261.242L360.807 280.853C360.808 281.283 360.79 281.762 360.485 282.066C360.212 282.338 359.793 282.384 359.409 282.415L345.559 283.537ZM343.774 292.923C342.789 291.349 342.23 288.817 343.912 288.023C344.469 287.76 345.115 287.803 345.729 287.851L358.183 288.833C359.373 288.927 360.74 289.123 361.369 290.134C361.703 290.669 361.749 291.327 361.786 291.956L362.406 302.426C362.442 303.04 362.449 303.736 362.009 304.167C361.515 304.653 360.708 304.563 360.031 304.412C353.374 302.926 347.381 298.691 343.774 292.923ZM365.142 302.547L364.737 291.959C364.708 291.203 364.722 290.34 365.288 289.837C365.797 289.385 366.557 289.401 367.237 289.442L382.165 290.361C378.906 295.655 374.275 300.104 368.846 303.156C367.528 303.897 365.2 304.053 365.142 302.547ZM276.463 270.711C273.832 269.056 273.963 265.258 274.407 262.189L276.197 249.814C276.508 247.66 277.77 244.829 279.876 245.406C281.679 245.901 281.785 248.38 281.507 250.222L279.268 265.039C278.941 267.206 278.405 269.681 276.463 270.711ZM218.988 458.509C219.267 457.29 219.785 456.008 220.881 455.399C222.56 454.467 224.781 455.677 225.616 457.401C226.45 459.126 226.288 461.142 226.107 463.048C225.964 464.557 225.797 466.136 224.95 467.395C224.104 468.654 222.344 469.443 221.014 468.709C220.155 468.234 219.693 467.276 219.381 466.349C218.536 463.837 218.398 461.092 218.988 458.509ZM255.275 227.374C252.212 228.937 252.005 233.146 252.218 236.568C252.344 238.583 252.704 240.967 254.526 241.852C255.229 242.194 256.035 242.237 256.817 242.271C265.062 242.63 273.317 242.745 281.569 242.614C282.718 242.596 283.937 242.553 284.898 241.924C286.446 240.91 286.75 238.813 286.907 236.974C287.072 235.039 287.23 233.04 286.617 231.196C286.004 229.353 284.41 227.688 282.462 227.616L259.727 226.781C258.214 226.725 256.623 226.686 255.275 227.374ZM257.308 239.191C256.684 238.83 256.513 238.026 256.403 237.316C256.049 235.023 256.002 232.093 258.085 231.057C258.909 230.647 259.874 230.671 260.795 230.704L275.447 231.228C277.411 231.298 279.481 231.4 281.137 232.454C282.792 233.509 283.779 235.871 282.674 237.49C281.679 238.948 279.626 239.116 277.857 239.14L258.585 239.404C258.148 239.41 257.686 239.41 257.308 239.191ZM154.689 452.938C157.909 458.282 155.501 465.08 153.261 470.9C149.284 481.237 146.071 493.043 150.713 503.102C151.765 505.383 153.097 508.356 151.277 510.091C145.294 504.484 143.87 495.406 145.083 487.313C145.906 481.823 147.748 476.573 149.592 471.319L149.592 471.318L149.592 471.318L149.592 471.318L149.593 471.317L149.593 471.317L149.593 471.317L149.593 471.316L149.593 471.316L149.593 471.316L149.593 471.315L149.593 471.315L149.593 471.314L149.594 471.314L149.594 471.314L149.594 471.313C150.468 468.824 151.342 466.333 152.108 463.815C152.795 461.555 153.399 459.147 152.819 456.857C152.069 453.897 149.464 451.733 146.685 450.447C141.604 448.097 134.995 448.297 130.985 452.194C126.975 456.091 127.247 463.917 132.209 466.507C134.368 467.635 137.289 467.542 138.997 465.81C140.706 464.078 140.466 460.672 138.274 459.609C141.205 458.898 144.173 461.367 145.002 464.257C145.832 467.146 145.058 470.24 144.061 473.077C143.211 475.499 142.193 477.88 141.177 480.259C138.962 485.443 136.75 490.618 136.276 496.191C135.66 503.422 138.04 510.485 140.371 517.404C140.611 518.117 140.851 518.829 141.086 519.539C141.645 521.222 142.1 523.312 140.848 524.571C133.88 516.981 131.965 505.83 133.402 495.644C134.839 485.459 139.224 475.954 143.558 466.618C142.389 466.717 141.376 467.337 140.361 467.959C139.938 468.219 139.514 468.478 139.079 468.7C133.83 471.376 126.729 467.689 125.136 462.033C123.544 456.378 126.933 450.035 132.175 447.346C137.417 444.657 143.967 445.286 149.164 448.06C151.36 449.232 153.407 450.81 154.689 452.938ZM264.082 245.337C263.664 244.169 262.585 243.141 261.341 243.19C259.17 243.274 258.426 246.077 258.296 248.238L257.004 269.613C256.924 270.947 256.887 272.425 257.746 273.452C258.604 274.48 260.693 274.394 260.94 273.08C262.436 265.118 263.554 257.087 264.288 249.02C264.401 247.785 264.499 246.505 264.082 245.337ZM176.138 528.285C172.872 528.718 170.73 532.404 171.233 535.648C171.736 538.892 174.282 541.525 177.209 543.033C177.974 543.427 177.629 544.735 176.82 545.033C176.012 545.33 175.119 544.946 174.384 544.498C171.199 542.557 168.93 539.188 168.333 535.516C167.957 533.21 168.291 530.649 169.861 528.912C171.43 527.175 174.44 526.674 176.138 528.285ZM258.736 478.587L258.736 478.588C257.737 481.768 256.737 484.949 255.999 488.195C252.482 503.662 255.05 519.856 258.975 535.225C259.995 539.219 255.534 543.149 251.451 542.486C247.368 541.824 244.458 537.766 244.058 533.664C244.014 533.213 243.993 532.754 243.972 532.295V532.295L243.972 532.294C243.913 530.987 243.854 529.677 243.26 528.529C242.459 526.977 240.091 526.08 238.96 527.413C241.453 532.02 243.299 539.024 238.626 541.415C234.152 543.703 229.388 538.418 228.241 533.54C227.525 530.492 225.2 526.221 222.622 528.01C223.605 529.728 224.363 531.585 225.118 533.436C226.371 536.505 227.618 539.56 229.877 541.947C233.5 545.772 241.507 545.97 242.785 540.868C245.538 543.126 248.716 545.061 252.252 545.524C255.788 545.987 259.72 544.697 261.617 541.688C263.983 537.933 262.592 533.113 261.352 528.816L261.23 528.395C257.416 515.138 257.002 500.924 260.038 487.468C260.692 484.569 261.503 481.701 262.314 478.835L262.314 478.835L262.315 478.835L262.315 478.835L262.315 478.834L262.315 478.834L262.315 478.834L262.315 478.833L262.315 478.833L262.315 478.833L262.315 478.833L262.315 478.832L262.315 478.832L262.316 478.832L262.316 478.832L262.316 478.831L262.316 478.831C263.717 473.879 265.118 468.932 265.704 463.83C266.801 454.278 264.921 444.407 260.388 435.919C259.15 433.6 255.46 434.023 253.58 435.864C252.379 437.041 251.626 438.55 250.87 440.065C250.443 440.922 250.014 441.78 249.504 442.581C248.09 444.798 245.374 446.708 242.944 445.69C238.889 443.991 234.431 444.316 229.974 444.64H229.974H229.973H229.973H229.973H229.973H229.972H229.972H229.972H229.971H229.971H229.971H229.971H229.97H229.97H229.97H229.969C228.281 444.764 226.593 444.887 224.926 444.9C218.86 444.946 211.636 442.324 210.577 436.373C210.119 433.802 206.439 432.982 204.229 434.385C202.018 435.788 201.023 438.457 200.325 440.974C197.078 452.693 197.214 465.323 200.712 476.97C201.826 480.68 196.823 482.968 193.039 483.855C166.813 490.002 145.022 512.01 139.211 538.218C138.834 539.918 139.671 542.611 141.237 541.839C146.609 514.295 170.263 491.237 198.022 486.486C201.515 485.888 203.723 482.181 203.993 478.66C204.206 475.891 203.536 473.166 202.869 470.452C202.688 469.714 202.507 468.977 202.344 468.24C200.072 457.976 201.331 446.97 205.861 437.478C210.328 439.761 213.503 444.384 214.018 449.36C223.819 447.33 234.058 447.427 243.819 449.642C247.271 450.426 249.249 447.215 251.31 443.869C253.2 440.799 255.161 437.617 258.393 437.301C262.493 446.452 263.748 456.844 261.942 466.703C261.202 470.742 259.969 474.664 258.736 478.587ZM245.96 484.055L240.692 481.567C239.248 480.885 237.758 480.168 236.729 478.951C242.068 478.693 247.481 480.505 251.581 483.922C250.441 485.624 247.816 484.932 245.96 484.055ZM210.936 544.522C210.652 540.515 210.165 536.523 209.477 532.564C209.202 530.985 208.833 529.294 207.643 528.215C206.452 527.137 204.172 527.167 203.538 528.641C206.377 529.926 207.305 533.483 207.408 536.589C207.427 537.158 207.431 537.735 207.436 538.313C207.456 540.892 207.477 543.511 208.77 545.698C209.024 546.129 209.404 546.575 209.906 546.571C210.771 546.565 210.997 545.382 210.936 544.522ZM226.571 473.103C223.446 475.132 219.735 476.254 216.005 476.295C214.801 476.308 213.394 476.091 212.812 475.041C216.931 472.697 221.96 471.988 226.571 473.103ZM239.633 460.245C239.193 462.165 239.408 464.228 240.234 466.017C240.842 467.335 242.323 468.641 243.599 467.941C244.153 467.637 244.466 467.035 244.71 466.453C245.534 464.492 245.939 462.358 245.893 460.233C245.867 459.051 245.628 457.738 244.673 457.035C242.767 455.631 240.161 457.942 239.633 460.245ZM466.895 312.37C468.202 313.534 468.388 315.471 468.486 317.214L470.677 356.332C470.825 358.985 470.136 362.613 467.469 362.667L409.022 363.857C408.099 363.876 407.096 363.869 406.367 363.305C405.483 362.62 405.32 361.374 405.227 360.262L401.902 320.517C401.695 318.05 402.142 314.715 404.606 314.398C423.766 311.935 443.107 310.867 462.422 311.204C463.998 311.232 465.72 311.323 466.895 312.37ZM438.403 321.087C438.541 320.121 438.636 319.008 437.966 318.296C437.328 317.617 436.27 317.602 435.336 317.634L409.212 318.542C408.665 318.561 408.063 318.602 407.668 318.981C407.171 319.457 407.215 320.247 407.295 320.93L408.78 333.631C409.035 335.811 410.259 338.707 412.387 338.134C419.582 336.195 427.118 335.516 434.546 336.137C435.861 336.246 436.479 334.576 436.664 333.275L438.403 321.087ZM435.576 354.533L436.219 343.567C436.264 342.788 436.277 341.911 435.737 341.345C435.261 340.846 434.507 340.755 433.818 340.702C426.34 340.129 418.786 340.567 411.425 342C410.974 342.088 410.5 342.192 410.16 342.5C409.591 343.016 409.601 343.895 409.653 344.66L410.428 355.951C410.508 357.116 410.704 358.475 411.728 359.044C412.389 359.411 413.2 359.323 413.95 359.223L433.883 356.588C434.26 356.538 434.656 356.48 434.959 356.25C435.461 355.869 435.539 355.16 435.576 354.533ZM441.474 319.812L440.654 333.113C440.617 333.703 440.602 334.36 440.988 334.809C441.468 335.366 442.325 335.343 443.059 335.274L462 333.484C462.509 333.436 463.057 333.371 463.433 333.025C463.874 332.619 463.938 331.958 463.973 331.36L464.721 318.603C464.75 318.11 464.76 317.56 464.432 317.189C464.053 316.762 463.397 316.76 462.826 316.791L443.615 317.833C442.981 317.867 442.271 317.937 441.863 318.423C441.548 318.799 441.504 319.324 441.474 319.812ZM463.684 354.52C464.739 353.503 464.727 351.843 464.641 350.383L464.15 342.073C464.068 340.674 463.503 338.821 462.1 338.925L443.042 340.345C442.328 340.398 441.524 340.498 441.093 341.068C440.768 341.497 440.752 342.077 440.75 342.614L440.697 353.587C440.694 354.248 440.718 354.979 441.174 355.458C441.614 355.921 442.315 355.997 442.953 356.038C448.859 356.422 454.801 356.267 460.679 355.577C461.754 355.451 462.906 355.27 463.684 354.52ZM233.887 470.252C232.256 469.432 230.062 469.971 229 471.451C227.785 473.145 228.301 475.812 230.061 476.935C231.821 478.057 234.468 477.408 235.504 475.599C236.539 473.79 235.753 471.19 233.887 470.252ZM254.202 473.549C255.174 474.361 253.579 475.686 252.322 475.859C247.615 476.507 242.756 476.038 238.261 474.503C239.936 472.74 242.704 472.738 245.138 472.861L253.163 473.268C253.528 473.286 253.922 473.316 254.202 473.549ZM222.935 477.335L215.454 481.456C214.472 481.997 213.332 483.074 213.938 484.014C214.502 484.889 215.854 484.461 216.758 483.941L226.09 478.581C226.286 477.838 225.785 476.985 225.039 476.792C224.32 476.606 223.586 476.977 222.935 477.335ZM304.812 413.539C305.533 412.684 306.316 411.787 307.389 411.466C308.463 411.145 309.876 411.707 310.012 412.815C307.067 417.007 303.411 420.702 299.247 423.695C299.638 419.795 302.281 416.539 304.812 413.539ZM309.544 421.836L315.752 415.098C316.435 414.357 317.157 413.287 316.612 412.439C315.84 411.239 314 412.295 313.065 413.375L305.769 421.801C305.49 422.64 306.518 423.439 307.396 423.308C308.273 423.178 308.944 422.487 309.544 421.836ZM255.837 314.746C256.976 313.572 258.732 313.294 260.359 313.092C280.057 310.654 300.006 310.224 319.792 311.811C321.022 311.91 322.465 312.154 323.01 313.257C323.287 313.82 323.252 314.479 323.21 315.104L320.03 362.85C319.909 364.661 319.585 366.796 317.957 367.611C317.174 368.004 316.255 367.983 315.378 367.953L258.961 366.051C257.859 366.014 256.648 365.933 255.856 365.169C255.083 364.425 254.945 363.259 254.858 362.191C253.706 348.01 253.541 333.75 254.365 319.546C254.464 317.838 254.643 315.976 255.837 314.746ZM286.926 315.853C278.5 315.731 270.07 315.877 261.654 316.292C260.341 316.357 258.837 316.53 258.095 317.612C257.598 318.337 257.594 319.279 257.608 320.157L258.173 355.329C258.215 357.959 259.008 361.423 261.644 361.562L287.214 362.91C287.676 362.935 288.178 362.948 288.552 362.678C289.051 362.319 289.121 361.618 289.146 361.004L289.881 342.77C289.909 342.066 289.891 341.252 289.34 340.81C288.966 340.51 288.451 340.475 287.971 340.456C278.787 340.087 269.563 340.687 260.504 342.242C259.468 342.42 258.891 340.85 259.497 339.994C260.104 339.138 261.252 338.896 262.29 338.731C270.818 337.374 279.453 336.679 288.089 336.654C289.543 336.65 289.997 334.709 289.994 333.26L289.975 321.301C289.971 318.982 289.253 315.887 286.926 315.853ZM314.202 340.415L297.472 340.378C296.349 340.375 295.07 340.442 294.353 341.303C293.846 341.913 293.77 342.762 293.716 343.552L292.632 359.466C292.533 360.921 292.59 362.689 293.855 363.423C294.412 363.746 295.086 363.778 295.731 363.802L312.178 364.418C312.688 364.437 313.24 364.444 313.656 364.149C314.198 363.765 314.308 363.023 314.372 362.364L316.313 342.434C316.358 341.98 316.394 341.49 316.156 341.101C315.779 340.486 314.926 340.416 314.202 340.415ZM315.935 335.591C316.892 334.979 317.174 333.736 317.364 332.619C318.085 328.383 318.663 324.123 319.096 319.849C319.172 319.101 319.203 318.239 318.656 317.722C318.24 317.331 317.62 317.271 317.049 317.232L296.874 315.849C296.146 315.8 295.305 315.793 294.824 316.339C294.438 316.777 294.426 317.417 294.435 317.999L294.673 334.31C294.678 334.704 294.692 335.125 294.918 335.448C295.285 335.973 296.031 336.025 296.674 336.025L313.648 336.028C314.435 336.028 315.272 336.014 315.935 335.591ZM371.948 464.901C370.13 464.947 368.11 465.088 366.86 466.404C367.444 467.567 369.005 467.748 370.311 467.777L416.791 468.794C417.765 468.815 418.099 467.316 417.449 466.593C416.799 465.87 415.723 465.758 414.751 465.697C400.504 464.807 386.218 464.542 371.948 464.901ZM347.939 409.651C343.003 463.043 337.573 516.391 331.651 569.683C331.492 571.111 330.923 572.936 329.481 572.954C248.284 573.967 167.064 573.151 85.9044 570.507C85.0444 570.479 84.1058 570.42 83.4685 569.844C82.6412 569.097 82.6666 567.817 82.7555 566.707L96.0555 400.806C97.0144 399.652 98.7158 399.529 100.22 399.496C180.207 397.75 260.255 396.005 340.196 399.216C342.077 399.291 344.079 399.41 345.6 400.513C348.277 402.453 348.243 406.368 347.939 409.651ZM307.675 430.477C247.741 424.343 187.326 422.874 127.163 426.088C126.391 426.129 125.551 426.198 124.981 426.72C124.377 427.272 124.26 428.163 124.179 428.976L112.995 542.272C112.915 543.083 112.858 543.981 113.356 544.627C113.951 545.4 115.067 545.483 116.044 545.5L290.701 548.505C291.78 548.524 292.988 548.493 293.749 547.73C294.381 547.097 294.515 546.137 294.616 545.249L307.675 430.477ZM311.79 430.077C310.995 431.56 310.791 433.277 310.601 434.948L298.372 542.397C298.211 543.813 298.061 545.307 298.64 546.611C299.288 548.071 300.719 549.004 302.076 549.854L327.339 565.677C333.966 512.798 340.598 459.873 343.671 406.671L316.287 425.76C314.564 426.96 312.78 428.229 311.79 430.077ZM315.323 422.222L337.799 405.455C292.282 401.57 246.586 402.23 200.873 402.89C168.408 403.359 135.934 403.829 103.51 402.67L117.143 417.521C119.304 419.875 121.924 422.425 125.12 422.225C185.485 418.445 246.166 419.696 306.322 425.96C309.636 426.305 312.655 424.212 315.323 422.222ZM300.531 553.304C297.692 552.378 294.655 552.307 291.669 552.245L116.542 548.618C113.588 548.557 110.538 548.512 107.804 549.627C105.545 550.548 103.674 552.192 101.85 553.806L86.1649 567.688C125.344 565.962 164.569 566.985 203.793 568.008H203.794C244.02 569.057 284.244 570.107 324.416 568.19L307.653 557.137C305.395 555.649 303.103 554.143 300.531 553.304ZM116.763 438.257C117.742 425.83 110.989 413.119 100.124 406.937C95.1696 458.824 90.6802 510.755 86.6566 562.722L103.648 549.376C105.886 547.618 108.31 545.529 108.533 542.699L116.763 438.257ZM384.577 408.38C382.82 406.405 380.077 405.348 377.443 405.63C374.458 405.95 371.726 408.007 370.602 410.78C369.478 413.553 370.01 416.924 371.935 419.219C374.761 422.589 380.435 423.054 383.776 420.19C387.117 417.325 387.501 411.666 384.577 408.38ZM375.82 409.504C376.912 408.89 378.232 408.689 379.457 408.953C382.582 409.623 384.44 413.635 382.926 416.439C381.411 419.243 377.027 419.908 374.743 417.679C372.46 415.451 373.037 411.07 375.82 409.504ZM646.186 228.934C642.59 225.808 640.664 221.03 640.486 216.277C640.309 211.524 641.764 206.809 644.054 202.637C644.669 201.517 646.393 201.473 647.416 202.241C648.439 203.01 648.915 204.29 649.278 205.515C651.506 213.027 651.387 221.213 648.942 228.658C648.855 228.921 648.76 229.194 648.566 229.393C647.942 230.033 646.861 229.521 646.186 228.934ZM640.028 234.199C635.415 234.376 630.774 233.823 626.332 232.568C623.868 231.872 621.137 230.617 620.509 228.142C619.966 226 621.367 223.709 623.322 222.669C625.277 221.629 627.629 221.621 629.812 222.001C634.974 222.898 639.736 225.899 642.764 230.161C643.204 230.78 643.626 231.498 643.518 232.248C643.313 233.683 641.481 234.143 640.028 234.199ZM640.731 238.482L641.098 243.765L628.194 247.636C625.717 248.379 622.967 249.107 620.626 248.009C618.285 246.912 617.322 243.081 619.584 241.83C625.553 238.53 632.448 236.916 639.267 237.224C639.734 237.245 640.267 237.31 640.532 237.694C640.688 237.92 640.712 238.209 640.731 238.482ZM666.723 254.416C661.071 251.779 657.209 246.49 653.599 241.415C653.433 241.181 653.259 240.92 653.289 240.635C653.362 239.957 654.342 239.933 655.003 240.107C661.44 241.811 668.267 243.746 672.687 248.713C673.627 249.769 674.476 251.102 674.261 252.497C674.032 253.985 672.591 255.074 671.098 255.301C669.605 255.528 668.091 255.054 666.723 254.416ZM662.234 261.411C662.112 262.822 661.228 264.254 659.854 264.61C659.015 264.828 658.118 264.625 657.319 264.29C653.227 262.571 651.366 257.864 650.44 253.535C649.672 249.947 649.253 246.286 649.19 242.618C654.505 246.252 658.758 251.41 661.307 257.312C661.868 258.612 662.356 260.001 662.234 261.411ZM663.154 202.172C664.261 201.89 665.679 202.78 665.443 203.896C663.51 213.052 660.537 223.078 652.477 227.874C653.071 219.512 655.918 211.32 660.639 204.382C661.281 203.439 662.046 202.455 663.154 202.172ZM678.624 241.788C677.249 241.771 675.877 241.657 674.51 241.505C667.749 240.754 661.091 239.091 654.773 236.576C662.577 231.758 673.598 232.933 680.204 239.287C680.538 239.609 680.883 239.988 680.899 240.451C680.933 241.437 679.614 241.799 678.624 241.788ZM639.57 263.881C639.533 258.274 641.852 252.688 645.852 248.745C645.729 248.287 646.757 248.563 646.421 248.897C648.2 253.896 648.587 259.379 647.529 264.578C647.048 266.942 645.636 269.726 643.218 269.62C640.705 269.51 639.586 266.388 639.57 263.881ZM641.09 286.729L622.845 296.22C622.373 294.257 622.662 292.123 623.639 290.356C625.717 286.599 630.265 285.089 634.399 283.897C636.701 283.234 639.051 282.564 641.445 282.66C641.982 282.682 642.559 282.76 642.951 283.127C644.116 284.217 642.507 285.991 641.09 286.729ZM671.314 217.295C672.621 216.695 674.452 216.284 675.266 217.467C676.056 218.615 675.097 220.138 674.113 221.125C669.832 225.417 664.346 228.281 658.87 230.897C657.365 231.616 654.973 231.954 654.557 230.343C659.031 224.781 664.817 220.275 671.314 217.295ZM647.914 239.83C646.334 240.345 644.227 239.6 643.932 237.969C643.745 236.932 644.325 235.907 645.023 235.115C646.456 233.486 648.492 232.397 650.646 232.107C651.172 232.036 651.737 232.017 652.204 232.271C653.706 233.087 652.769 235.369 651.686 236.69C650.634 237.972 649.494 239.316 647.914 239.83Z" fill="#00160A"/>
<path fill-rule="evenodd" clip-rule="evenodd" d="M636.058 320.753C621.457 327.12 604.538 327.984 589.366 323.137C586.171 338.903 573.878 351.374 569.167 366.754C567.275 372.931 566.658 379.426 566.375 385.881C564.635 425.575 575.107 464.673 585.49 503.022C585.96 504.758 586.49 506.595 587.824 507.8C589.277 509.112 591.361 509.39 593.309 509.584C612.305 511.477 631.523 511.144 650.443 508.593C653.654 508.16 655.065 504.379 655.788 501.217C664.029 465.145 667.553 427.996 666.241 391.016C665.927 382.145 665.276 373.041 661.518 365.001C657.402 356.197 649.938 349.461 644.551 341.374C640.404 335.147 637.5 328.096 636.058 320.753Z" fill="white"/>
<path fill-rule="evenodd" clip-rule="evenodd" d="M609.28 318.609C610.249 320.205 610.43 323.206 608.567 323.021C602.439 311.353 595.052 300.34 586.576 290.234C586.779 291.776 586.983 293.319 587.186 294.861C587.599 297.991 588.008 301.21 587.234 304.272C586.461 307.334 584.221 310.244 581.11 310.851C577.999 311.458 574.393 308.863 574.774 305.728C574.785 309.159 571.185 312.065 567.786 311.504C564.388 310.943 561.934 307.226 562.596 303.859C562.898 302.321 560.781 301.323 559.276 301.781C557.77 302.238 556.632 303.473 555.205 304.133C550.803 306.169 545.598 301.566 545.348 296.739C545.098 291.913 549.143 282.556 552.426 278.997C547.819 278.255 544.111 273.823 544.208 269.177C544.306 264.53 548.197 260.257 552.831 259.707C549.307 255.156 545.706 248.764 549.136 244.142C551.641 240.766 556.928 240.541 560.594 242.614C564.26 244.686 566.621 248.434 568.572 252.155C568.521 249.123 568.482 246.015 569.488 243.152C570.494 240.289 572.778 237.674 575.778 237.148C578.778 236.621 582.222 238.911 582.157 241.943C582.107 244.292 580.838 247.776 583.163 248.177C584.419 245.004 588.808 243.806 591.831 245.412C594.853 247.019 596.349 250.742 595.939 254.129C595.53 257.516 593.496 260.54 590.955 262.828C594.694 263.067 599.249 263.892 600.45 267.426C601.617 270.859 598.555 274.36 595.244 275.864C591.933 277.368 588.126 277.818 585.139 279.888C589.862 282.871 594.695 290.031 598.803 297.414C604.087 306.913 608.172 316.783 609.28 318.609Z" fill="white"/>
<path fill-rule="evenodd" clip-rule="evenodd" d="M584.129 279.887C588.679 283.485 592.804 287.614 596.394 292.162C597.367 288.451 598.509 284.471 601.528 282.089C604.547 279.707 610.033 280.212 611.187 283.871C611.613 285.22 611.374 286.681 611.057 288.059C609.731 293.817 607.078 299.269 603.361 303.873C605.331 307.118 607.301 310.363 609.271 313.608C610.239 315.204 610.421 318.206 608.557 318.02C602.429 306.352 595.043 295.34 586.566 285.234C586.77 286.776 586.973 288.318 587.176 289.86C587.589 292.99 587.998 296.21 587.225 299.272C586.452 302.333 584.211 305.243 581.1 305.85C577.989 306.458 574.383 303.862 574.764 300.728C574.776 304.158 571.175 307.064 567.777 306.503C564.378 305.942 561.924 302.225 562.586 298.859C562.889 297.32 560.772 296.323 559.266 296.78C557.76 297.238 556.622 298.472 555.195 299.133C550.794 301.169 545.588 296.565 545.338 291.739C545.088 286.912 548.133 282.555 551.417 278.997C546.809 278.254 543.101 273.823 543.199 269.176C543.296 264.529 547.187 260.256 551.822 259.706C548.297 255.155 544.696 248.764 548.126 244.142C550.631 240.766 555.919 240.54 559.585 242.613C563.251 244.686 565.611 248.434 567.562 252.155C567.511 249.122 567.472 246.015 568.478 243.152C569.484 240.289 571.768 237.673 574.768 237.147C577.768 236.621 581.212 238.91 581.147 241.943C581.097 244.292 579.828 247.776 582.153 248.177C583.41 245.003 587.799 243.805 590.821 245.412C593.843 247.018 595.34 250.741 594.93 254.128C594.52 257.515 592.486 260.539 589.946 262.828C593.684 263.066 598.239 263.892 599.44 267.425C600.607 270.858 597.546 274.359 594.234 275.863C590.923 277.367 587.116 277.817 584.129 279.887ZM551.585 245.069C548.883 247.118 549.275 251.398 550.992 254.317C554 259.433 559.724 262.226 565.158 264.647C566.332 265.169 568.099 265.471 568.563 264.277C568.777 263.725 568.555 263.11 568.334 262.56C566.728 258.555 565.116 254.538 563.032 250.757C561.862 248.634 560.48 246.524 558.433 245.216C556.386 243.908 553.52 243.602 551.585 245.069ZM546.266 268.191C545.564 271.95 549.248 275.382 553.053 275.899C556.858 276.416 560.608 274.88 564.139 273.376C565.071 272.979 566.08 272.511 566.514 271.599C567.396 269.746 565.36 267.893 563.596 266.834C560.657 265.07 557.567 263.257 554.141 263.052C550.715 262.847 546.894 264.831 546.266 268.191ZM591.588 252.324C591.743 251.567 591.846 250.755 591.549 250.041C591.032 248.796 589.483 248.298 588.133 248.388C584.029 248.663 581.273 252.652 579.63 256.407C578.172 259.743 577.075 263.236 576.365 266.806C583.741 265.649 590.091 259.609 591.588 252.324ZM577.851 280.542C575.573 280.904 575.324 284.048 575.666 286.319C576.006 288.574 576.346 290.829 576.687 293.084C577.237 296.731 578.215 300.965 581.601 302.458C585.127 296.604 585.088 288.797 581.503 282.978C580.689 281.657 579.389 280.299 577.851 280.542M567.426 301.998C567.69 302.335 568.002 302.674 568.42 302.77C569.453 303.009 570.123 301.725 570.359 300.694C571.959 293.714 571.899 286.478 571.832 279.318C571.781 278.788 570.939 279.092 570.615 279.517C568.143 282.768 566.007 286.377 565.161 290.367C564.316 294.357 564.903 298.786 567.426 301.998ZM580.954 268.352C580.427 268.625 579.89 268.911 579.493 269.351C578.179 270.81 579.098 273.348 580.825 274.288C582.552 275.229 584.676 274.986 586.584 274.505C589.403 273.796 592.105 272.624 594.547 271.052C595.488 270.446 596.506 269.481 596.199 268.408C596.066 267.943 595.7 267.582 595.319 267.283C591.319 264.151 585.47 266.019 580.954 268.352M572.404 264.365C575.527 257.53 577.1 249.997 576.973 242.488C576.966 242.047 576.945 241.581 576.701 241.213C575.848 239.926 573.868 241.228 573.095 242.564C569.299 249.124 569.031 257.58 572.404 264.365M566.82 279.989C567.59 279.673 567.266 278.368 566.479 278.096C565.692 277.825 564.845 278.212 564.104 278.591C559.529 280.934 554.757 283.556 552.158 287.977C551.277 289.476 550.775 291.604 552.053 292.785C553.218 293.861 555.145 293.416 556.448 292.509C560.973 289.356 561.712 282.081 566.82 279.989ZM606.629 283.575C605.937 282.856 604.742 283.529 604.031 284.229C601.693 286.527 599.624 289.278 598.988 292.488C598.351 295.697 599.468 299.412 602.292 301.084C605.594 296.376 607.28 290.565 607.01 284.828C606.989 284.382 606.939 283.897 606.629 283.575ZM569.643 270.513C570.622 273.471 572.658 276.071 575.3 277.738C576.136 278.266 576.948 276.979 577.006 275.995C577.187 272.917 575.955 269.784 573.723 267.647C572.839 266.801 571.526 266.078 570.434 266.634C569.145 267.29 569.19 269.144 569.643 270.513H569.643Z" fill="#FFB61D"/>
<path fill-rule="evenodd" clip-rule="evenodd" d="M457.362 415.893C453.094 416.007 448.768 416.152 444.685 417.394C454.546 466.17 455.556 516.228 460.702 565.719C460.801 566.665 460.932 567.683 461.586 568.376C462.328 569.163 463.514 569.298 464.595 569.382C534.61 574.873 605.014 575.435 675.109 571.064C675.997 571.008 676.96 570.921 677.614 570.32C678.403 569.594 678.46 568.392 678.453 567.322C678.335 548.565 675.656 529.929 672.983 511.362C668.838 482.572 664.693 453.782 660.547 424.991C660.39 423.896 660.165 422.684 659.275 422.022C658.612 421.528 657.733 421.465 656.906 421.419C590.447 417.774 523.898 414.127 457.362 415.893Z" fill="white"/>
<circle cx="623.5" cy="502" r="2" fill="#FFB61D"/>
<circle cx="609" cy="502" r="2" fill="#FFB61D"/>
<circle cx="571" cy="522.5" r="1.5" fill="#FFB61D"/>
<circle cx="558.5" cy="522.5" r="1.5" fill="#FFB61D"/>
<circle cx="520" cy="502" r="3" fill="#FFB61D"/>
<circle cx="498" cy="503" r="3" fill="#FFB61D"/>
<path fill-rule="evenodd" clip-rule="evenodd" d="M677.925 576.026C606.251 580.289 534.257 579.219 462.742 572.828C460.78 572.653 458.626 572.383 457.296 570.935C456.071 569.601 455.899 567.643 455.787 565.839C452.689 516.108 447.942 466.48 441.557 417.061C441.15 413.913 445.297 412.418 448.467 412.101C492.112 407.741 535.961 409.832 579.845 411.925C607.902 413.263 635.974 414.602 664.015 414.256C665.858 414.233 666.506 416.655 666.594 418.488C667.702 441.647 671.549 464.575 675.393 487.49C679.875 514.206 684.354 540.905 684.489 567.934C684.502 570.53 684.261 573.549 682.108 575.01C680.906 575.826 679.376 575.94 677.925 576.026ZM457.362 415.893C453.094 416.007 448.768 416.152 444.685 417.394C451.406 450.642 454.015 484.485 456.625 518.338C457.844 534.15 459.064 549.963 460.702 565.719C460.8 566.665 460.932 567.683 461.586 568.376C462.328 569.163 463.514 569.298 464.595 569.382C534.61 574.873 605.014 575.435 675.109 571.064C675.997 571.008 676.96 570.921 677.613 570.32C678.403 569.594 678.459 568.392 678.453 567.322C678.335 548.565 675.656 529.929 672.983 511.362L660.547 424.991C660.39 423.896 660.165 422.684 659.275 422.022C658.612 421.528 657.732 421.465 656.906 421.419C590.447 417.774 523.898 414.127 457.362 415.893ZM501.663 486.414C503.388 486.334 504.135 488.531 504.343 490.238C504.699 493.172 504.482 497.048 501.64 497.896C499.177 495.608 498.243 491.825 499.361 488.66C499.74 487.587 500.523 486.466 501.663 486.414ZM610.133 497.46C607.083 497.198 609.34 486.807 611.054 488.056C612.769 489.304 613.183 497.721 610.133 497.46ZM624.071 496.055C620.392 496.055 621.646 486.496 624.071 486.496C625.366 486.496 626.422 496.055 624.071 496.055ZM515.761 496.176C516.403 494.897 516.803 493.498 516.934 492.075C517.037 490.96 516.954 489.765 516.317 488.844C515.68 487.922 514.348 487.412 513.381 487.982C512.779 488.336 512.443 489.009 512.23 489.673C511.544 491.811 511.844 494.241 513.029 496.15C513.414 496.771 514.071 497.402 514.777 497.205C515.249 497.073 515.542 496.612 515.761 496.176ZM566.401 516.401C566.659 514.388 567.45 511.664 569.306 512.498C570.062 512.838 570.444 513.683 570.637 514.485C571.044 516.18 570.711 518.284 569.178 519.124C567.644 519.963 566.143 518.414 566.401 516.401ZM505.071 503.297C503.482 504.74 501.102 506.428 499.482 505.021C499.73 503.71 500.47 502.496 501.524 501.674C500.147 500.529 497.772 501.224 497.015 502.844C496.259 504.464 497.039 506.546 498.548 507.512C500.056 508.478 502.087 508.41 503.688 507.605C504.102 507.396 504.534 507.143 504.972 506.886C506.662 505.894 508.452 504.844 509.77 506.055C512.756 508.798 518.196 508.073 520.353 504.645C520.953 503.693 521.306 502.454 520.792 501.453C520.279 500.452 518.622 500.117 518.035 501.077C517.886 501.32 517.825 501.601 517.765 501.882C517.744 501.975 517.724 502.068 517.701 502.16C517.317 503.673 515.906 504.869 514.346 505.006C512.785 505.143 511.187 504.211 510.542 502.789C509.658 500.837 506.659 501.855 505.071 503.297ZM560.721 512.82C561.031 515.027 560.494 517.341 559.243 519.189C559.01 519.533 558.701 519.892 558.284 519.919C557.846 519.948 557.479 519.598 557.219 519.245C555.751 517.258 555.807 514.29 557.349 512.359C558.067 511.46 559.538 510.823 560.299 511.686C560.57 511.994 560.664 512.415 560.721 512.82ZM476.665 548.142C476.789 553.252 482.917 555.741 487.969 556.636C502.119 559.144 516.573 559.234 530.945 559.318C574.075 559.568 617.253 559.816 660.284 556.891C661.796 556.788 663.492 556.589 664.433 555.405C665.313 554.298 665.206 552.732 665.053 551.327C660.764 511.938 655.074 472.7 647.996 433.711C647.575 431.388 644.587 430.739 642.22 430.609C584.695 427.447 527.046 427.519 469.434 427.592C467.808 427.594 466.088 427.622 464.704 428.473C461.563 430.405 462.032 435.016 462.858 438.6C471.138 474.528 475.771 511.289 476.665 548.142ZM603.409 514.057C597.442 518.483 592.924 524.817 590.689 531.886C583.878 528.742 580.793 519.45 584.38 512.881C588.949 504.513 590.552 493.057 583.892 486.222C579.599 481.816 572.781 480.534 566.743 481.767C554.786 484.21 545.736 496.51 546.997 508.605C547.199 510.544 547.629 512.448 548.059 514.353C548.505 516.327 548.951 518.301 549.143 520.313C549.519 524.265 548.679 528.682 545.575 531.17C541.026 523.333 533.64 517.17 525.096 514.085C530.727 500.581 536.279 484.762 529.171 471.967C526.735 467.582 522.999 464.046 519.003 461C513.757 457.002 507.51 453.612 500.922 454.067C489.812 454.835 482.13 466.627 481.907 477.72C481.684 488.813 486.893 499.208 491.975 509.08L479.74 524.278C477.716 493.128 473.23 462.136 466.338 431.685C523.578 431.895 580.816 432.815 638.033 434.444C639.3 434.481 640.693 434.567 641.606 435.443C642.393 436.199 642.614 437.351 642.796 438.424L660.315 541.817C652.613 528.991 642.751 517.457 631.267 507.841C628.416 517.037 625.9 526.335 623.724 535.712L615.035 522.144C621.949 518.018 626.52 510.967 630.459 503.962C635.073 495.754 639.254 486.939 639.598 477.538C639.942 468.137 635.584 458.012 627.024 454.042C631.933 450.748 632.111 442.638 627.698 438.709C623.284 434.78 615.752 435.481 611.686 439.765C607.619 444.05 607.134 451.061 610.013 456.213C600.767 460.19 594.249 469.796 593.992 479.826C593.754 489.102 598.355 497.748 602.999 505.792C604.518 508.422 605.851 512.245 603.409 514.057ZM579.741 522.132L595.005 553.515C596.315 550.824 595.024 547.968 593.726 545.094C593.194 543.917 592.661 542.738 592.305 541.565C589.69 532.958 596.85 524.728 603.406 518.546C604.444 517.567 605.726 516.512 607.128 516.793C608.266 517.021 609.031 518.056 609.682 519.013C614.41 525.959 619.217 533.074 621.403 541.18C621.414 541.222 621.425 541.263 621.436 541.305C621.749 542.468 622.083 543.713 623.032 544.447C624.014 545.208 625.86 544.856 625.973 543.622C626.974 532.672 629.373 521.85 633.095 511.498L657.918 543.215C659.654 545.432 661.489 548.21 660.5 550.843C659.332 553.955 655.216 554.489 651.881 554.513L543.815 555.266C525.691 555.393 507.502 555.516 489.52 553.25C487.638 553.013 485.65 552.703 484.196 551.489C482.893 550.401 482.221 548.747 481.729 547.125C479.356 539.309 480.147 530.588 483.887 523.322C485.636 519.922 488.247 516.666 491.915 515.55C495.583 514.434 500.308 516.374 501.007 520.131C502.025 525.602 506.72 530.443 512.294 530.798C517.868 531.154 523.459 526.219 523.023 520.671C522.849 518.462 526.386 518.487 528.283 519.643C538.52 525.878 543.79 539.218 540.565 550.731C540.032 552.633 543.338 553.54 544.655 552.064C545.888 550.682 545.798 548.647 545.715 546.774C545.709 546.647 545.704 546.52 545.698 546.394C545.404 539.208 547.732 531.944 552.154 526.258C553.729 527.315 554.909 528.893 556.077 530.455C557.64 532.543 559.18 534.602 561.611 535.339C565.388 536.485 569.24 533.735 571.725 530.679C572.327 529.939 572.902 529.164 573.478 528.387C575.28 525.956 577.09 523.515 579.741 522.132ZM501.029 470.41C497.681 477.267 492.832 483.391 486.918 488.232C485.803 483.193 485.528 477.97 486.109 472.843C486.555 468.91 487.598 464.849 490.295 461.943C493.776 458.192 499.479 457.106 504.502 458.13C509.526 459.155 513.985 461.992 518.034 465.127C521.441 467.765 524.72 470.736 526.757 474.527C531.347 483.068 528.704 493.512 525.964 502.807C524.282 508.511 522.04 514.882 516.595 517.314C511.875 519.422 506.253 517.731 501.926 514.909C494.754 510.231 489.712 502.435 488.401 493.996C488.186 492.612 488.183 490.938 489.325 490.124C494.742 486.262 499.211 481.092 502.24 475.183C507.355 482.195 516.135 486.389 524.825 485.972C526.689 485.882 529.169 484.562 528.359 482.887C517.903 483.976 507.029 479.011 501.029 470.41ZM611.306 514.245C607.48 508.609 604.182 502.618 601.468 496.374C600.792 494.819 600.309 492.661 601.723 491.718C608.574 487.148 613.764 480.16 616.149 472.297L621.125 478.494C622.734 480.499 624.379 482.536 626.52 483.964C628.662 485.391 631.419 486.137 633.856 485.305C634.76 484.996 634.999 486.525 634.666 487.417C630.882 497.567 625.435 507.099 618.606 515.522C618.006 516.26 617.348 517.025 616.442 517.321C614.397 517.99 612.512 516.022 611.306 514.245ZM619.183 457.379C621.62 457.132 624.16 457.233 626.399 458.223C628.37 459.093 629.997 460.605 631.333 462.291C635.334 467.339 636.909 474.213 635.504 480.49C635.388 481.008 635.237 481.551 634.852 481.919C634.237 482.507 633.258 482.449 632.424 482.273C627.578 481.25 623.607 477.582 621.204 473.267C621.084 473.053 620.967 472.836 620.849 472.617C620.143 471.308 619.421 469.97 618.187 469.165C616.748 468.225 614.343 468.541 613.876 470.191C611.65 478.055 606.52 485.068 599.689 489.589C598.166 487.992 597.465 485.778 597.155 483.597C596.257 477.296 598.354 470.687 602.524 465.865C606.694 461.043 612.827 458.023 619.183 457.379ZM572.094 485.602C577.827 486.324 583.097 490.799 584.006 496.483C584.427 499.111 583.958 501.79 583.491 504.409C583.272 505.636 583.001 506.959 582.066 507.786C580.919 508.802 579.178 508.716 577.675 508.406C573.395 507.523 569.412 505.269 566.459 502.059C566.28 501.865 566.104 501.666 565.928 501.468C565.145 500.586 564.357 499.697 563.32 499.152C562.049 498.484 560.244 498.532 559.415 499.701C557.088 502.984 553.998 505.726 550.457 507.651C550.877 501.91 552.823 496.158 556.66 491.855C560.498 487.551 566.362 484.88 572.094 485.602ZM560.825 503.671C561.557 502.28 563.62 503.55 564.651 504.738C568.71 509.416 574.966 512.117 581.168 511.869C577.951 518.304 573.534 524.141 568.209 528.994C566.933 530.157 565.405 531.333 563.681 531.19C562.176 531.065 560.954 529.961 559.928 528.857C556.745 525.433 554.205 521.417 552.48 517.078C551.798 515.363 551.438 513 553.013 512.03C556.302 510.004 559.031 507.084 560.825 503.671ZM619.53 454.212C615.804 454.846 611.659 451.731 611.92 447.974C612.103 445.346 614.168 443.198 616.457 441.879C618.121 440.921 620.034 440.261 621.946 440.46C623.857 440.66 625.738 441.865 626.331 443.686C626.6 444.512 626.596 445.405 626.488 446.267C626.02 450.004 623.257 453.578 619.53 454.212ZM506.011 520.258C510.707 522.169 516.332 521.631 520.577 518.864C520.836 520.005 520.191 521.136 519.572 522.131C517.588 525.319 514.468 528.978 510.859 527.904C508.965 527.339 507.818 525.672 506.659 523.987C505.636 522.499 504.603 520.997 503.036 520.228C503.725 519.418 505.024 519.856 506.011 520.258Z" fill="#00160A"/>
</svg>
