<svg width="750" height="750" viewBox="0 0 750 750" fill="none" xmlns="http://www.w3.org/2000/svg">
<rect width="750" height="750" fill="none"/>
<path d="M515.544 157.768C509.591 141.875 503.381 125.294 461.334 136.509C438.757 142.532 419.831 163.809 404.36 195.408C392.72 220.537 382.885 253.033 375.039 291.995C359.008 371.61 352.254 474.596 355.411 574.726L348.415 574.947L348.323 571.927C346.187 499.623 349.185 425.969 357.094 360.668C323.445 325.695 285.092 298.13 257.144 288.975C190.914 274.371 173.417 312.953 173.851 347.37C173.93 353.663 176.13 358.897 178.345 364.17C180.636 369.623 182.944 375.116 182.944 381.865C182.944 386.341 172.935 395.586 159.924 407.605C134.344 431.232 97.1624 465.577 101.625 495.466C105.749 523.087 131.903 544.06 155.976 555.336C158.333 556.44 160.9 558.491 163.989 560.958C166.185 562.714 168.646 564.68 171.482 566.666L171.7 566.817C173.928 568.352 177.605 570.517 182.732 573.312L184.313 574.17C256.838 613.294 341.009 586.936 367.238 577.207L368.77 576.633L554.767 574.562L554.743 574.417C554.692 574.114 554.609 573.664 554.502 573.082C552.753 563.607 544.542 519.099 562.027 501.163C616.632 445.15 676.509 284.851 595.099 217.679C577.108 202.835 559.256 193.811 545.546 186.88C537.219 182.671 530.42 179.234 526.045 175.734C520.658 171.425 518.125 164.661 515.544 157.768Z"/>
<path fill-rule="evenodd" clip-rule="evenodd" d="M186.151 337.183C182.052 336.471 189.296 344.599 189.296 344.599C189.296 344.599 190.25 337.896 186.151 337.183Z" fill="white"/>
<path fill-rule="evenodd" clip-rule="evenodd" d="M247.46 575.187C247.46 575.187 203.432 556.766 203.432 531.119C203.432 523.595 208.138 524.317 217.551 533.286C218.575 534.262 220.042 535.759 221.951 537.779C223.121 539.016 196.697 506.93 210.011 500.928C222.99 495.077 226.009 525.451 226.687 525.032C227.442 524.566 227.221 515.376 230.225 511.313C231.843 509.124 236.602 508.656 240.203 511.313C259.119 525.27 247.46 575.187 247.46 575.187Z" fill="white"/>
<path fill-rule="evenodd" clip-rule="evenodd" d="M228.535 387.042C228.535 387.042 210.221 386.102 207.725 380.279C205.228 374.455 218.809 377.765 218.809 377.765L228.535 387.042Z" fill="white"/>
<path fill-rule="evenodd" clip-rule="evenodd" d="M197.562 359.435C193.462 357.141 195.794 351.67 197.562 351.443C202.797 350.769 206.927 362.369 207.504 363.53C208.503 365.542 199.642 360.599 197.562 359.435Z" fill="white"/>
<path fill-rule="evenodd" clip-rule="evenodd" d="M239.724 394.598C239.724 394.598 229.696 369.033 238.979 371.048C248.262 373.062 245.591 402.782 245.591 402.782L239.724 394.598Z" fill="white"/>
<path fill-rule="evenodd" clip-rule="evenodd" d="M232.992 375.977C233.123 380.123 234.894 386.484 238.296 395.158C238.343 395.276 238.404 395.388 238.478 395.492L244.346 403.675C245.174 404.83 246.991 404.335 247.119 402.919L247.225 401.695C248.874 381.879 246.493 371.109 239.304 369.549C235.122 368.642 232.839 371.143 232.992 375.977ZM238.809 372.583C243.275 373.728 245.352 382.015 244.444 397.569L244.387 398.472L241.08 393.859L240.502 392.358C237.645 384.85 236.166 379.331 236.056 375.88L236.048 375.398C236.041 372.783 236.759 372.135 238.654 372.546L238.809 372.583Z" fill="#00160A"/>
<path fill-rule="evenodd" clip-rule="evenodd" d="M204.313 499.378C197.853 502.29 198.301 509.636 203.231 519.642L203.61 520.399C204.512 522.172 205.541 524.004 206.68 525.883L207.072 526.524L207.023 526.492C205.179 525.265 203.588 524.547 202.22 524.337C198.585 523.779 196.732 526.457 196.732 531.119C196.732 549.068 211.889 564.239 241.804 576.755C242.774 577.161 243.876 576.597 244.115 575.573C252.027 541.699 249.537 519.776 236.212 509.945C232.124 506.928 226.213 507.116 223.858 510.302L223.653 510.59C222.652 512.062 221.954 513.999 221.436 516.408L221.413 516.515L221.346 516.25C220.978 514.808 220.589 513.448 220.148 512.085C218.688 507.568 216.942 504.02 214.751 501.646C211.868 498.521 208.284 497.588 204.313 499.378ZM218.945 520.918L219.692 524.437L219.778 524.803C219.833 525.024 219.883 525.202 219.934 525.353C220.002 525.556 220.073 525.724 220.186 525.903C220.327 526.124 220.501 526.319 220.778 526.486C221.317 526.812 222.01 526.831 222.581 526.478C223.316 526.024 223.496 525.634 223.697 524.348L223.791 523.706C223.857 523.231 224.1 521.213 224.142 520.893C224.305 519.618 224.468 518.565 224.669 517.563C225.139 515.21 225.773 513.431 226.592 512.323C227.712 510.807 231.492 510.687 234.193 512.68L234.547 512.947C245.785 521.603 248.218 541.209 241.465 571.891L241.256 572.828L240.564 572.528C213.488 560.719 200.132 546.878 200.132 531.119C200.132 528.256 200.632 527.533 201.704 527.698C203.601 527.989 206.915 530.264 211.378 534.517L211.949 535.07C212.629 535.739 213.465 536.59 214.454 537.622L215.772 539.005C215.795 539.027 215.829 539.057 215.896 539.118L215.918 539.17C215.97 539.255 216.137 539.286 217.252 539.493L217.64 539.356C218.1 539.182 218.173 539.067 218.564 538.453L218.653 538.08C218.707 537.835 218.699 537.777 218.67 537.565L218.596 537.264C218.58 537.205 218.567 537.174 218.547 537.131L218.53 537.095C218.484 536.996 218.458 536.945 218.415 536.88L217.952 536.257L216.774 534.698C216.572 534.427 216.368 534.151 216.142 533.845C214.204 531.214 212.325 528.498 210.559 525.693C208.904 523.066 207.46 520.533 206.281 518.14C202.121 509.697 201.789 504.245 205.71 502.478C210.428 500.351 214.051 504.277 216.913 513.131C217.691 515.537 218.307 517.961 218.945 520.918Z" fill="#00160A"/>
<path fill-rule="evenodd" clip-rule="evenodd" d="M209.585 364.468L210.982 365.739C228.298 381.546 240.354 394.158 246.781 402.91C257.998 418.186 267.038 434.031 274.656 450.809C277.363 456.771 279.814 462.675 282.229 468.943L282.887 470.662C283.64 472.642 284.368 474.597 285.161 476.764L288.542 486.09C297.684 511.123 294.658 512.343 285.954 487.994L282.535 478.552C281.819 476.59 281.163 474.818 280.504 473.068L280.008 471.757C277.399 464.9 274.775 458.524 271.85 452.082C264.316 435.489 255.381 419.828 244.297 404.734L243.789 404.05C237.205 395.282 224.981 382.608 207.514 366.748C206.884 366.177 206.837 365.202 207.409 364.572C207.981 363.943 208.955 363.896 209.585 364.468ZM169.054 329.552L190.618 347.959C192.64 349.693 194.216 351.052 194.968 351.715C195.606 352.277 195.667 353.251 195.105 353.889C194.542 354.527 193.569 354.588 192.93 354.026L187.318 349.188C179.866 342.804 168.1 332.791 167.05 331.893C166.404 331.339 166.329 330.367 166.882 329.721C167.435 329.074 168.408 328.999 169.054 329.552Z" fill="#00160A"/>
<path fill-rule="evenodd" clip-rule="evenodd" d="M208.908 375.243C206.077 375.885 205.124 378.102 206.316 380.883C208.304 385.521 215.676 387.917 228.457 388.573C229.877 388.646 230.623 386.914 229.594 385.933L219.868 376.655C219.673 376.47 219.433 376.339 219.172 376.275C214.429 375.119 211.053 374.757 208.908 375.243ZM218.048 379.158L224.39 385.206L224.009 385.17L223.051 385.069C214.887 384.155 210.243 382.261 209.134 379.674L209.018 379.397C208.679 378.546 208.802 378.412 209.587 378.234C211.034 377.905 213.742 378.164 217.602 379.054L218.048 379.158Z" fill="#00160A"/>
<path fill-rule="evenodd" clip-rule="evenodd" d="M199.906 584.188C196.045 586.411 197.618 588.726 205.944 592.421C214.929 596.461 231.65 604.261 260.371 606.458C304.855 609.861 345.359 603.44 396.49 603.44C467.278 603.44 498.35 618.994 523.126 615.407C589.542 605.791 604.588 587.129 584.774 582.314C563.021 577.027 493.88 577.673 470.605 576.153L463.402 575.691L457.215 575.536C390.222 573.89 282.837 575.536 261.865 575.536C219.081 575.536 199.906 584.188 199.906 584.188Z" fill="white"/>
<path fill-rule="evenodd" clip-rule="evenodd" d="M396.49 603.44C467.278 603.44 498.351 619.531 523.126 615.944C589.542 606.328 604.588 587.129 584.775 582.314C563.021 577.027 484 575.31 464.542 575.731C464.542 575.731 553.995 592.26 549.208 597.734C534.956 614.034 499.466 594.338 435.01 594.912C421.731 595.03 396.49 603.44 396.49 603.44Z" fill="#E7EAEE"/>
<path fill-rule="evenodd" clip-rule="evenodd" d="M266.111 576.234C264.388 576.244 263.004 576.248 261.865 576.248L259.912 576.253C232.098 576.383 211.811 579.307 198.965 585.103L198.764 585.206C195.764 586.934 194.614 589.478 196.5 592.091C197.719 593.781 200.271 595.376 204.58 597.317L208.242 598.953C212.812 600.978 215.522 602.074 219.591 603.505L220.033 603.66C231.77 607.761 244.796 610.56 260.196 611.739C271.139 612.576 282.29 612.863 294.515 612.693L298.794 612.618C306.832 612.453 313.679 612.171 326.188 611.499L347.81 610.302C368.414 609.187 380.984 608.741 395.824 608.728L396.49 608.728C423.05 608.728 444.746 610.749 468.811 614.689L470.899 615.037C474.525 615.667 494.469 619.181 499.975 619.972L500.166 619.999C509.774 621.351 516.884 621.622 523.454 620.671L525.29 620.4C555.122 615.943 576.679 609.303 587.566 601.956C598.443 594.616 597.458 586.207 585.675 583.181L585.315 583.091C575.529 580.713 556.954 579.392 528.093 578.527L522.173 578.359C520.448 578.313 518.665 578.267 516.79 578.221L491.664 577.64C481.988 577.401 476.055 577.195 471.564 576.921L463.549 576.408L457.272 576.249L450.892 576.104C432.391 575.719 410.294 575.534 385 575.518L377.48 575.518C359.854 575.529 341.611 575.615 321.243 575.768L266.111 576.234ZM390.882 580.1C416.128 580.143 438.017 580.364 456.118 580.797L463.345 580.977L471.561 581.504C476.083 581.774 482.003 581.977 491.531 582.213L515.733 582.771C518.586 582.841 521.223 582.909 523.752 582.979L529.679 583.152C557.193 584.007 575.077 585.311 584.234 587.536L584.783 587.675C592.378 589.668 592.627 593.022 585.007 598.164C574.587 605.195 531.814 624.033 501.587 617.611L500.197 617.414C493.808 616.464 472.396 611.662 471.135 611.452L468.032 610.944C444.854 607.212 423.698 605.256 398.197 605.172L394.488 605.172C379.239 605.212 366.104 605.722 343.787 606.957L328.3 607.82C313.321 608.636 306.179 608.928 296.86 609.097L296.11 609.11C248.848 610.944 220.033 599.935 220.033 599.935C216.261 598.588 206.502 595.198 206.502 595.198L205.776 594.866C183.008 587.136 232.717 580.954 259.953 580.827L268.443 580.794L317.765 580.369C340.726 580.191 360.941 580.094 380.496 580.092L390.882 580.1Z" fill="#00160A"/>
<path fill-rule="evenodd" clip-rule="evenodd" d="M495.913 543.221C495.913 543.221 495.793 550.001 497.881 553.139C499.968 556.277 505.789 565.006 511.203 567.302C512.871 568.01 519.238 568.1 523.064 570.335C530.749 574.826 532.46 582.914 523.064 584.628C504.409 588.03 497.881 578.197 497.881 578.197C497.881 578.197 490.195 567.302 482.493 560.078C474.791 552.853 468.654 550.678 468.654 550.678" fill="white"/>
<path d="M560.293 245.085C557.697 244.89 556.17 246.864 556.17 249.253C556.17 257.525 569.684 268.837 578.491 268.837C581.072 268.837 583.184 266.991 582.434 264.169C582.151 263.105 581.501 262.161 580.434 260.998L580.199 260.745C579 259.472 577.761 258.335 574.981 255.943L570.723 252.294C569.679 251.39 568.017 249.948 567.515 249.519L566.911 249.005C565.747 248.024 564.847 247.309 564.044 246.741C562.623 245.737 561.523 245.177 560.293 245.085Z" fill="white"/>
<path fill-rule="evenodd" clip-rule="evenodd" d="M473.962 407.267C473.962 407.267 468.845 392.663 455.695 388.709C451.516 387.452 469.795 415.038 453.662 425.328C448.626 428.54 439.672 430.207 428.654 431.775C379.54 438.767 364.732 420.44 334.414 411.49C322.257 407.902 263.125 392.027 254.184 472.892C248.588 523.507 290.974 539.194 328.96 547.236C405.056 563.348 521.659 556.998 558.025 503.895C601.373 440.596 534.749 385.472 525.362 379.645C523.088 378.234 529.607 396.324 530.331 405.473C531.055 414.623 525.362 417.95 525.362 417.95C525.362 417.95 523.118 408.263 503.278 406.601C483.439 404.939 473.962 407.267 473.962 407.267Z" fill="white"/>
<path fill-rule="evenodd" clip-rule="evenodd" d="M182.065 339.878C182.76 341.518 184.378 343.689 187.007 346.64C188.743 348.588 191.965 347.615 192.332 345.031C193.172 339.129 191.415 334.986 186.676 334.162C182.967 333.518 180.572 336.358 182.065 339.878ZM189.296 344.599L188.826 344.067C184.401 339.019 183.51 336.724 186.151 337.183C188.884 337.658 189.932 340.13 189.296 344.599Z" fill="#00160A"/>
<path fill-rule="evenodd" clip-rule="evenodd" d="M197.366 349.922C195.642 350.144 194.237 352.167 193.85 354.402C193.405 356.973 194.361 359.401 196.813 360.773L198.504 361.71C200.134 362.604 201.599 363.371 203.024 364.056L203.685 364.368C204.746 364.858 205.605 365.202 206.258 365.381C206.927 365.565 207.434 365.617 207.975 365.42C209.132 364.997 209.335 363.904 208.935 362.974L208.809 362.692C208.649 362.317 208.254 361.376 208.027 360.851L207.978 360.737C207.359 359.322 206.728 358.017 206.033 356.772C203.46 352.162 200.693 349.494 197.366 349.922ZM203.672 358.846C204.088 359.628 204.486 360.445 204.876 361.309L205.005 361.599L204.627 361.423L204.352 361.292C202.527 360.415 200.598 359.377 198.311 358.097C197.075 357.406 196.636 356.289 196.872 354.926C196.974 354.332 197.207 353.759 197.499 353.339C197.588 353.211 197.676 353.107 197.755 353.031L197.841 352.956L197.758 352.963C199.353 352.758 201.363 354.696 203.356 358.266L203.672 358.846Z" fill="#00160A"/>
<path fill-rule="evenodd" clip-rule="evenodd" d="M223.587 376.364C223.314 375.177 208.041 347.343 218.766 348.217C229.49 349.092 226.937 380.638 226.563 380.638C226.124 380.638 223.783 377.217 223.587 376.364Z" fill="white"/>
<path fill-rule="evenodd" clip-rule="evenodd" d="M213.419 352.363C213.419 355.026 214.308 358.552 215.901 362.835C216.38 364.121 216.916 365.457 217.505 366.844L217.865 367.681C219.28 370.943 222.117 376.815 222.093 376.708C222.245 377.371 222.882 378.477 223.723 379.693L224.031 380.136C225.059 381.595 225.57 382.123 226.437 382.168L226.803 382.178C227.843 382.232 227.842 382.59 228.082 381.077L228.169 380.523C228.205 380.297 228.242 380.001 228.279 379.648L228.301 379.43C228.398 378.447 228.484 377.163 228.542 375.76C228.694 372.133 228.651 368.251 228.354 364.63L228.273 363.711C227.315 353.558 224.529 347.149 218.89 346.689C215.287 346.395 213.418 348.65 213.419 352.363ZM218.641 349.745C222.234 350.038 224.543 355.67 225.298 364.881C225.584 368.366 225.626 372.124 225.479 375.631L225.428 376.674L225.373 376.581C225.225 376.327 225.123 376.134 225.091 376.05L225.081 376.021C225.015 375.734 221.939 369.367 220.678 366.461C219.966 364.82 219.329 363.254 218.775 361.766C217.299 357.799 216.486 354.57 216.485 352.363C216.485 350.353 217 349.662 218.479 349.735L218.641 349.745Z" fill="#00160A"/>
<path fill-rule="evenodd" clip-rule="evenodd" d="M265.735 432.91C265.735 432.91 269.094 428.243 270.982 425.925C272.87 423.607 274.895 421.667 274.895 421.667C274.895 421.667 229.287 417.128 213.489 405.369C192.859 390.014 174.354 364.546 155.714 359.159C133.43 352.72 125.183 367.656 118.756 368.874C99.1757 372.584 63.3151 383.141 79.7128 415.028C84.7752 424.872 101.175 429.45 112.728 423.962C125.624 417.836 141.505 402.83 158.208 402.83C177.523 402.83 180.886 418.653 205.405 427.042C220.453 432.191 265.735 432.91 265.735 432.91Z" fill="white"/>
<path fill-rule="evenodd" clip-rule="evenodd" d="M320.041 545.745C320.041 545.745 331.175 557.899 335.789 565.718C340.402 573.538 338.786 577.778 345.191 581.392C354.813 586.822 364.731 585.452 369.144 582.565C373.557 579.678 369.417 572.288 360.166 572.288C357.891 572.288 355.214 567.063 353.919 563.607C352.623 560.15 353.216 551.643 353.216 551.643L320.041 545.745Z" fill="white"/>
<path fill-rule="evenodd" clip-rule="evenodd" d="M527.427 382.705C527.427 382.705 599.974 471.686 497.953 523.916C426.602 560.445 309.376 540.723 309.376 540.723C309.376 540.723 436.99 575.03 520.398 533.669C573.618 507.277 584.145 462.417 558.755 416.742C552.111 404.79 527.427 382.705 527.427 382.705Z" fill="#E7EAEE"/>
<path fill-rule="evenodd" clip-rule="evenodd" d="M523.166 378.268C524.08 377.057 525.505 377.042 526.568 377.702C529.993 379.828 536.189 384.973 542.149 391.009C550.421 399.386 557.807 408.879 563.47 419.11C578.976 447.124 577.591 476.452 557.912 505.188C540.517 530.588 506.486 545.918 458.717 552.785C416.935 558.791 368.566 557.96 328.486 549.474L326.476 549.042C303.539 544.035 286.629 537.674 273.835 527.843C257.055 514.948 249.228 496.905 251.911 472.64C255.972 435.911 270.493 415.498 292.383 408.347C300.52 405.688 309.236 405.035 318.231 405.922C324.399 406.531 329.578 407.678 335.061 409.297L336.036 409.588C341.993 411.395 347.062 413.389 354.881 416.853L360.661 419.442C372.638 424.811 379.569 427.357 388.541 429.166C399.831 431.443 412.262 431.711 427.345 429.649L429.582 429.331C441.893 427.536 448.501 425.907 452.432 423.4C457.033 420.465 458.675 415.708 458.017 409.122C457.718 406.126 456.974 402.965 455.8 399.281L455.476 398.287C454.969 396.782 453.488 392.552 453.215 391.633C452.878 390.495 452.723 389.702 452.778 388.964C452.917 387.114 454.539 385.972 456.353 386.518C465.946 389.403 472.835 397.781 477.066 411.363C477.442 412.57 476.769 413.852 475.563 414.228C474.357 414.603 473.074 413.93 472.699 412.724C469.478 402.385 464.774 395.659 458.615 392.374L458.21 392.165L459.876 397.021L459.922 397.161C464.15 415.192 461.009 429.331 432.569 433.7C431.004 433.94 399.555 436.646 386.498 433.415C366.716 428.52 338.642 410.252 321.812 409.588C304.981 408.924 301.281 410.252 293.803 412.695C273.739 419.25 257.052 440.48 253.684 475.543C251.906 494.058 261.907 512.818 278.306 524.375C320.041 553.785 416.824 555.186 458.066 549.257C504.692 542.554 539.618 526.725 556.137 502.603C574.763 475.405 574.186 447.917 559.468 421.326C554.022 411.488 546.89 402.321 538.894 394.223C535.252 390.535 531.528 387.201 528.505 384.77L527.996 384.364L528.438 386.107L529.854 391.55L530.372 393.589C530.452 393.911 530.53 394.225 530.605 394.535L530.875 395.654C531.832 399.675 532.414 402.796 532.611 405.293C533.158 412.195 531.159 417.211 526.516 419.925C525.425 420.562 524.024 420.195 523.387 419.104C522.749 418.013 523.117 416.612 524.208 415.975C527.155 414.253 528.47 410.951 528.051 405.654C527.875 403.439 527.327 400.506 526.418 396.686L526.162 395.622C526.05 395.167 525.935 394.701 525.812 394.215L523.819 386.512C523.522 385.346 523.299 384.429 523.121 383.63L523.068 383.394C522.764 382.007 522.605 381.013 522.596 380.265C522.587 379.5 522.696 378.89 523.166 378.268Z" fill="#00160A"/>
<path fill-rule="evenodd" clip-rule="evenodd" d="M473.779 404.746L475.414 404.471C486.204 402.691 494.912 402.048 501.567 402.552C508.588 403.083 516.031 404.981 523.895 408.236C524.933 408.665 525.426 409.855 524.996 410.892C524.567 411.93 523.378 412.423 522.34 411.993C514.856 408.896 507.829 407.104 501.26 406.606C494.658 406.106 485.717 406.818 474.469 408.754C473.363 408.944 472.311 408.202 472.121 407.095C471.93 405.988 472.673 404.937 473.779 404.746Z" fill="#00160A"/>
<path fill-rule="evenodd" clip-rule="evenodd" d="M486.784 395.624C491.654 394.623 496.102 395.141 500.071 397.19C503.87 399.153 507.161 401.621 509.938 404.593C510.519 405.215 510.486 406.19 509.864 406.771C509.243 407.352 508.268 407.318 507.687 406.697C505.154 403.986 502.147 401.73 498.657 399.928C495.336 398.213 491.605 397.779 487.404 398.641C486.571 398.813 485.756 398.276 485.585 397.442C485.414 396.609 485.951 395.795 486.784 395.624Z" fill="#00160A"/>
<path fill-rule="evenodd" clip-rule="evenodd" d="M496.631 387.556C497.068 386.826 498.014 386.588 498.744 387.025C502.65 389.361 505.884 391.975 508.439 394.87C511.019 397.793 513.137 401.53 514.804 406.07C515.097 406.869 514.687 407.754 513.888 408.047C513.089 408.34 512.204 407.93 511.911 407.132C510.37 402.932 508.44 399.527 506.129 396.909C503.794 394.263 500.807 391.849 497.163 389.669C496.432 389.232 496.195 388.287 496.631 387.556Z" fill="#00160A"/>
<path fill-rule="evenodd" clip-rule="evenodd" d="M451.997 424.162C452.641 423.242 453.909 423.019 454.828 423.663C455.748 424.307 436.118 452.263 436.118 457.687C436.118 463.569 439.007 467.505 446.704 473.714L449.965 476.307L450.914 477.068C455.684 480.922 458.463 483.626 460.825 487.06C464.126 491.858 465.68 497.216 465.284 503.57C464.796 511.407 462.431 516.823 457.746 523.073L457.321 523.632C456.795 524.312 454.476 527.274 453.841 528.142C451.574 531.237 450.507 533.568 450.313 536.304C449.458 548.361 455.131 562.921 467.452 579.928C468.11 580.838 467.907 582.109 466.998 582.768C466.089 583.426 464.817 583.223 464.159 582.314C451.329 564.604 445.322 549.189 446.257 536.016C446.505 532.523 447.778 529.627 450.256 526.158L450.56 525.739C451.289 524.743 453.949 521.349 454.173 521.055C458.637 515.2 465.089 506.633 459.923 490.331C457.321 482.123 432.622 476.307 431.81 458.836C431.619 454.72 438.481 443.455 451.997 424.162Z" fill="#00160A"/>
<path d="M459.472 508.689L456.635 508.72C439.838 508.935 429.621 509.781 426.465 511.135L426.35 511.186C421.709 513.314 418.059 516.2 415.268 519.659C413.101 522.345 411.57 525.224 410.569 528.099C410.271 528.955 410.039 529.756 409.867 530.485L409.75 531.002L414.608 537.228C414.657 537.29 414.701 537.354 414.741 537.42L414.789 537.487L414.942 537.711C415.991 539.233 417.183 540.721 418.716 542.456L419.422 543.242C420.681 544.616 424.688 548.935 426.049 550.49C428.962 553.816 431.415 557.015 433.764 560.689C437.345 566.289 440.504 572.756 443.34 580.587L443.544 581.159L443.747 581.747C443.995 582.472 444.237 583.217 444.501 584.057L445.698 587.983C447.465 593.771 448.7 596.429 450.658 598.039L450.987 598.302C453.553 600.301 455.944 600.794 462.593 601.005L464.536 601.059C473.374 601.301 477.984 594.282 472.927 589.182C471.341 587.583 466.11 586.343 457.555 585.824C456.434 585.756 457.486 582.868 457.555 581.747C457.623 580.626 458.586 579.773 459.707 579.841C460.698 579.901 461.65 579.97 462.563 580.048C451.232 563.626 445.701 549.631 446.58 537.228C446.828 533.734 446.453 532.367 448.932 528.898L449.405 528.249C450.308 527.044 452.64 524.069 452.849 523.795C454.757 521.292 456.086 519.241 457.153 517.003L457.362 516.553L457.433 516.391L457.551 516.13C458.112 514.846 458.706 512.634 459.311 509.534L459.472 508.689Z" fill="white"/>
<path fill-rule="evenodd" clip-rule="evenodd" d="M411.72 528.643C413.322 533.317 416.117 536.169 420.008 540.584L420.555 541.198C421.527 542.267 425.933 547.01 427.374 548.656C430.287 551.982 432.74 555.181 435.089 558.855C438.67 564.455 441.829 570.922 444.664 578.753C444.801 579.13 444.936 579.516 445.072 579.913L445.443 581.025C445.526 581.279 445.61 581.54 445.695 581.81L446.18 583.371C446.428 584.183 446.93 585.845 447.023 586.149L447.29 587.015C448.919 592.207 450.126 594.678 451.983 596.205L452.312 596.468C454.769 598.382 457.065 598.915 463.092 599.142L465.861 599.225C474.699 599.467 479.309 592.449 474.251 587.349C472.665 585.749 467.435 584.509 458.879 583.99C457.758 583.922 456.905 582.958 456.973 581.837C457.041 580.716 458.005 579.863 459.126 579.931L460.193 580C469.127 580.619 474.681 582.007 477.139 584.485C485.055 592.469 478.006 603.4 466.111 603.297L464.68 603.261C456.188 603.032 453.143 602.424 449.4 599.346C446.73 597.15 445.28 594.199 443.416 588.251L442.209 584.291L441.822 583.047C441.656 582.526 441.499 582.043 441.342 581.575L441.224 581.228C441.096 580.853 440.969 580.491 440.841 580.138C438.106 572.585 435.08 566.388 431.663 561.046C429.604 557.825 427.459 554.987 424.95 552.067L424.315 551.335C422.847 549.659 418.065 544.516 417.4 543.772C413.064 538.925 410.473 535.01 408.624 529.85L408.436 529.312C404.84 518.821 400.223 515.241 394.192 517.477C393.139 517.868 381.355 523.52 392.768 515.932C404.18 508.343 411.72 528.643 411.72 528.643Z" fill="#00160A"/>
<path fill-rule="evenodd" clip-rule="evenodd" d="M482.672 456.41C480.456 456.41 477.277 450.047 477.277 446.937C477.277 443.828 485.232 444.88 485.232 444.88C485.232 444.88 493.587 446 492.435 449.127C491.284 452.255 483.903 456.41 482.672 456.41Z" fill="#FFB61D"/>
<ellipse cx="469.575" cy="433.517" rx="4.38775" ry="8.1971" fill="#00160A"/>
<ellipse cx="511.538" cy="435.371" rx="4.80869" ry="8.0687" fill="#00160A"/>
<path fill-rule="evenodd" clip-rule="evenodd" d="M508.4 448.917C512.063 447.344 516.116 447.046 520.517 448.007C524.821 448.947 537.786 457.062 537.333 457.781C536.88 458.501 523.751 451.867 519.86 451.017C516.065 450.189 512.665 450.438 509.616 451.748C508.834 452.084 507.928 451.722 507.592 450.941C507.256 450.159 507.618 449.253 508.4 448.917Z" fill="#00160A"/>
<path fill-rule="evenodd" clip-rule="evenodd" d="M510.733 454.242C514.578 454.445 515.58 453.568 520.847 456.987C526.114 460.406 530.05 468.458 529.329 468.911C528.609 469.363 524.406 462.182 519.582 458.566C514.758 454.95 509.069 456.548 509.114 455.699C509.156 454.896 509.805 454.27 510.593 454.241L510.733 454.242Z" fill="#00160A"/>
<path fill-rule="evenodd" clip-rule="evenodd" d="M484.032 459.748C482.963 466.387 483.232 470.614 483.632 475.329C484.032 480.045 487.802 486.835 488.18 489.673C488.558 492.511 481.049 480.808 480.595 475.846C480.14 470.885 476.922 457.399 482.544 458.026C482.544 458.026 484.151 459.01 484.032 459.748Z" fill="#00160A"/>
<path fill-rule="evenodd" clip-rule="evenodd" d="M456.051 449.729C459.465 449.729 460.849 449.813 464.173 450.468C465.008 450.632 465.552 451.442 465.388 452.276C465.223 453.111 464.413 453.655 463.579 453.491C462.395 453.258 460.126 452.268 456.363 452.308C451.22 452.362 446.744 455.216 446.52 454.744C446.155 453.975 452.637 449.729 456.051 449.729Z" fill="#00160A"/>
<path fill-rule="evenodd" clip-rule="evenodd" d="M461.635 443.115C462.463 443.31 462.976 444.14 462.781 444.968C462.586 445.796 461.756 446.309 460.928 446.113C453.531 444.369 447.597 444.416 443.411 444.252C439.294 444.091 430.059 444.736 429.788 443.93C429.518 443.123 454.063 441.329 461.635 443.115Z" fill="#00160A"/>
<path fill-rule="evenodd" clip-rule="evenodd" d="M495.949 541.188C497.072 541.207 497.966 542.134 497.946 543.256C497.873 547.402 498.453 550.329 499.574 552.013C504.273 559.079 508.259 563.845 511.997 565.431C512.099 565.474 512.342 565.536 512.72 565.609L513.281 565.71C513.701 565.78 515.476 566.048 515.786 566.097C516.955 566.282 517.918 566.459 518.858 566.672C520.934 567.143 522.66 567.745 524.09 568.58C528.386 571.09 531.221 574.76 531.497 578.368C531.816 582.538 528.785 585.651 523.429 586.628C510.276 589.027 501.069 586.676 496.219 579.369C491.171 572.213 486.13 566.277 481.102 561.561C476.155 556.92 471.762 553.937 467.974 552.594C466.916 552.219 466.362 551.057 466.738 549.998C467.113 548.94 468.275 548.386 469.333 548.761C473.728 550.319 478.562 553.603 483.884 558.595C489.126 563.512 494.343 569.655 499.575 577.072C503.396 582.829 510.979 584.765 522.699 582.628C526.175 581.994 527.585 580.545 527.442 578.678C527.281 576.575 525.281 573.986 522.038 572.091C521.025 571.499 519.665 571.025 517.959 570.638C517.225 570.471 516.458 570.327 515.549 570.178L512.611 569.721L512.043 569.621C511.339 569.488 510.838 569.356 510.409 569.174C507.614 567.988 504.742 565.437 501.734 561.841C499.752 559.47 498.23 557.335 496.188 554.265C494.525 551.765 493.794 548.08 493.88 543.185C493.9 542.062 494.826 541.168 495.949 541.188Z" fill="#00160A"/>
<path fill-rule="evenodd" clip-rule="evenodd" d="M512.371 578.698C512.572 578.025 513.28 577.643 513.953 577.844C516.046 578.469 517.528 579.16 518.432 579.982C519.289 580.761 520.135 581.956 521.003 583.579C521.334 584.198 521.101 584.968 520.482 585.299C519.863 585.63 519.093 585.396 518.762 584.778C518.019 583.389 517.329 582.414 516.723 581.863C516.163 581.354 514.985 580.805 513.225 580.279C512.553 580.078 512.171 579.37 512.371 578.698Z" fill="#00160A"/>
<path fill-rule="evenodd" clip-rule="evenodd" d="M519.001 576.008C519.223 575.343 519.942 574.982 520.608 575.204C522.401 575.8 523.734 576.481 524.619 577.285C525.497 578.083 526.34 579.372 527.193 581.168C527.494 581.802 527.224 582.56 526.59 582.861C525.956 583.162 525.198 582.892 524.897 582.258C524.173 580.735 523.496 579.698 522.91 579.166C522.331 578.64 521.292 578.11 519.806 577.615C519.14 577.394 518.78 576.674 519.001 576.008Z" fill="#00160A"/>
<path fill-rule="evenodd" clip-rule="evenodd" d="M464.6 593.52C464.821 592.854 465.541 592.494 466.206 592.716C467.999 593.312 469.332 593.993 470.217 594.797C471.095 595.595 471.938 596.884 472.791 598.68C473.092 599.314 472.822 600.072 472.188 600.373C471.554 600.674 470.796 600.404 470.495 599.77C469.771 598.247 469.094 597.21 468.508 596.678C467.93 596.152 466.891 595.622 465.404 595.127C464.738 594.906 464.378 594.186 464.6 593.52Z" fill="#00160A"/>
<path fill-rule="evenodd" clip-rule="evenodd" d="M468.296 589.207C468.518 588.541 469.237 588.181 469.903 588.403C471.696 588.999 473.029 589.679 473.914 590.484C474.792 591.281 475.634 592.57 476.487 594.367C476.788 595.001 476.518 595.759 475.884 596.06C475.25 596.361 474.493 596.091 474.192 595.457C473.468 593.933 472.791 592.897 472.205 592.365C471.626 591.839 470.587 591.309 469.101 590.814C468.435 590.592 468.075 589.873 468.296 589.207Z" fill="#00160A"/>
<path fill-rule="evenodd" clip-rule="evenodd" d="M318.668 544.246C319.496 543.488 333.53 559.584 336.54 564.685C337.51 566.329 338.276 567.912 338.957 569.605C339.166 570.127 339.362 570.643 339.573 571.226L340.371 573.48C341.555 576.771 343.522 578.116 346.19 579.622C354.017 584.038 363.26 583.985 368.03 580.864C370.676 579.133 367.103 574.321 360.166 574.321C356.924 574.321 354.135 569.975 352.015 564.32C351.022 561.672 350.773 557.443 351.187 551.502C351.266 550.382 352.237 549.537 353.357 549.615C354.477 549.693 355.322 550.664 355.244 551.785C354.867 557.186 355.088 560.933 355.822 562.893L356.036 563.446C357.464 567.027 359.565 570.255 360.166 570.255C365.054 570.255 369.188 572.138 371.411 575.132C373.763 578.299 373.453 582.176 370.257 584.266C364.178 588.244 353.307 588.307 344.192 583.163C340.669 581.175 339.125 579.115 337.68 575.226L336.904 573.041C336.645 572.311 336.423 571.717 336.184 571.122C335.576 569.611 334.899 568.211 334.038 566.752C331.047 561.683 325.877 555.126 318.542 547.119C317.783 546.291 317.84 545.005 318.668 544.246Z" fill="#00160A"/>
<path fill-rule="evenodd" clip-rule="evenodd" d="M356.318 578.698C356.519 578.025 357.227 577.643 357.899 577.844C359.993 578.469 361.474 579.16 362.378 579.982C363.235 580.761 364.082 581.956 364.95 583.579C365.281 584.198 365.048 584.968 364.429 585.299C363.81 585.63 363.04 585.396 362.709 584.778C361.966 583.389 361.276 582.414 360.669 581.863C360.109 581.354 358.932 580.805 357.172 580.279C356.5 580.078 356.117 579.37 356.318 578.698Z" fill="#00160A"/>
<path fill-rule="evenodd" clip-rule="evenodd" d="M361.1 576.625C361.321 575.959 362.041 575.599 362.706 575.82C364.499 576.417 365.832 577.097 366.717 577.901C367.595 578.699 368.438 579.988 369.291 581.785C369.592 582.419 369.322 583.177 368.688 583.478C368.054 583.779 367.296 583.509 366.995 582.875C366.271 581.351 365.594 580.315 365.008 579.782C364.43 579.257 363.391 578.726 361.904 578.232C361.238 578.01 360.878 577.291 361.1 576.625Z" fill="#00160A"/>
<path fill-rule="evenodd" clip-rule="evenodd" d="M126.717 361.57L126.287 361.866C124.927 362.817 122.307 364.728 121.73 365.134L121.671 365.175C120.176 366.205 119.166 366.727 118.377 366.876C104.437 369.517 92.3974 372.473 84.1561 378.713C72.6325 387.438 66.4077 402.695 74.3035 418.049C79.922 428.974 101.163 431.707 113.6 425.798C115.728 424.787 117.995 423.522 120.73 421.849L121.867 421.147C122.26 420.902 122.664 420.648 123.095 420.376L126.073 418.475L129.329 416.39L130.52 415.637C142.491 408.116 150.097 404.863 158.208 404.863C164.912 404.863 169.631 406.704 175.558 411.052L176.005 411.383C177.034 412.152 183.713 417.48 185.969 419.122C191.812 423.377 197.582 426.515 204.746 428.966L205.376 429.175C215.86 432.568 235.914 434.47 265.702 434.943C266.368 434.954 266.996 434.638 267.385 434.098L268.546 432.495C270.214 430.206 271.553 428.443 272.558 427.209C273.765 425.727 275.013 424.37 276.301 423.135C277.555 421.934 276.823 419.816 275.096 419.644L273.304 419.462C244.228 416.437 224.656 411.147 214.703 403.738L213.977 403.194C208.669 399.18 203.599 394.65 195.872 387.236L185.885 377.643C181.937 373.881 180.549 372.658 177.783 370.308L177.35 369.941C170.883 364.457 165.272 360.697 159.83 358.454C158.635 357.962 157.452 357.545 156.279 357.206C144.159 353.704 135.459 355.65 126.717 361.57ZM155.15 361.113C156.178 361.41 157.22 361.777 158.28 362.214C163.103 364.201 168.208 367.582 174.125 372.541L176.441 374.509C178.99 376.701 180.755 378.341 186.629 383.986L193.595 390.687C201.485 398.24 206.652 402.815 212.275 407L212.605 407.243C222.819 414.663 241.373 419.878 268.364 423.009L270.572 423.258L270.541 423.293C270.286 423.585 270.033 423.883 269.782 424.184L269.227 424.861L268.803 425.393C267.997 426.412 267.039 427.677 265.927 429.189L264.706 430.859L262.235 430.814C234.216 430.245 215.44 428.327 206.063 425.118C199.57 422.897 194.313 420.089 189 416.295L188.362 415.835C186.197 414.259 179.544 408.952 178.438 408.126C171.651 403.056 166.062 400.797 158.208 400.797C149.103 400.797 140.963 404.274 128.378 412.18L126.444 413.407L122.296 416.066C121.065 416.851 120.092 417.465 119.147 418.049L118.096 418.691C115.703 420.141 113.705 421.247 111.855 422.125C101.312 427.134 86.0832 422.97 81.5209 414.098C74.5426 400.528 76.998 390.555 86.9699 383.005C94.5877 377.238 105.761 373.405 119.134 370.871C120.534 370.606 121.883 369.936 123.643 368.752L123.978 368.524C124.499 368.164 127.664 365.853 128.871 365.023L128.997 364.937C136.805 359.649 144.292 357.975 155.15 361.113Z" fill="#00160A"/>
<path fill-rule="evenodd" clip-rule="evenodd" d="M642.085 416.371L641.893 416.837L641.507 417.799C636.506 430.486 632.092 449.925 628.237 476.161L628.013 477.702L628 477.627C626.507 468.829 624.622 461.993 622.328 457.096C618.342 448.589 612.664 445.378 605.953 448.43C584.176 458.337 585.476 498.621 608.538 569.413C608.844 570.355 609.722 570.992 610.713 570.992H635.749C636.421 570.992 637.059 570.697 637.494 570.184C668.758 533.309 682.758 508.518 679.336 494.898L679.225 494.466C676.11 482.748 668.321 480.238 657.215 486.534L656.82 486.76L657.373 485.486C676.642 440.849 680.178 413.364 667.158 402.652C657.599 394.788 648.877 399.991 642.085 416.371ZM664.624 404.419C676.086 413.849 672.012 444.729 650.27 492.59C649.276 494.779 674.899 477.627 674.899 496.012L674.981 496.362C677.448 507.679 664.716 530.525 636.644 564.091L634.687 566.417L610.713 568.126C610.713 568.126 578.391 461.405 607.848 452.594C616.324 450.059 622.578 462.369 625.68 495.667C625.934 498.394 629.894 498.452 630.228 495.734L630.499 493.54C634.955 457.927 640.242 432.758 646.311 418.123L646.658 417.298C652.326 404.027 658.22 399.15 664.624 404.419Z" fill="#00160A"/>
<path d="M664.251 406.185C675.713 415.615 671.069 444.49 649.327 492.351C648.332 494.539 650.954 496.584 652.834 495.086L653.598 494.484C665.951 484.869 672.284 485.604 674.899 496.012L674.981 496.362C677.448 507.679 664.716 530.525 636.644 564.091L634.687 566.417H612.375L611.574 563.924C590.54 497.997 589.71 460.846 607.848 452.594C616.215 448.788 622.578 462.369 625.68 495.667C625.934 498.394 629.894 498.452 630.228 495.734L630.499 493.54C634.955 457.927 640.242 432.758 646.311 418.123L646.658 417.298C652.326 404.027 657.847 400.916 664.251 406.185Z" fill="white"/>
<circle cx="604.647" cy="481.759" r="8.13278" fill="#E7EAEE"/>
<circle cx="655.477" cy="428.896" r="8.13278" fill="#E7EAEE"/>
<circle cx="659.543" cy="507.174" r="8.13278" fill="#E7EAEE"/>
<path fill-rule="evenodd" clip-rule="evenodd" d="M228.485 576.642C214.13 576.869 164.762 580.527 163.909 578.695C162.818 576.352 216.653 573.271 228.388 573.085L232.064 573.035C242.734 572.92 228.485 576.642 228.485 576.642ZM439.654 571.883C440.917 571.85 441.968 572.847 442.001 574.11C442.034 575.372 441.038 576.423 439.775 576.457L419.342 576.961C406.625 577.253 391.885 577.556 370.103 577.985C368.84 578.01 367.796 577.006 367.771 575.743C367.747 574.48 368.75 573.436 370.013 573.411L408.583 572.625C420.293 572.372 429.7 572.146 439.654 571.883ZM492.355 570.818C493.618 570.798 494.658 571.805 494.678 573.069C494.698 574.332 493.69 575.372 492.427 575.392L487.067 575.457L470.668 575.571C467.234 575.606 464.546 575.653 461.377 575.73C460.115 575.761 459.066 574.763 459.035 573.5C459.004 572.237 460.003 571.188 461.265 571.157L465.299 571.07C467.94 571.022 470.624 570.992 474.19 570.966L487.827 570.875C489.412 570.86 490.848 570.841 492.355 570.818ZM640.594 566.417C640.594 566.417 644.701 565.709 674.684 567.953C675.943 568.048 676.888 569.145 676.794 570.405C676.699 571.665 661.873 571.028 641.604 570.993L636.03 571.002C621.147 571.068 607.321 571.471 584.374 572.415L555.411 573.639C543.052 574.145 535.678 574.391 526.712 574.603C525.449 574.633 524.401 573.633 524.371 572.37C524.341 571.107 525.341 570.059 526.604 570.03L533.804 569.841C542.369 569.594 551.171 569.249 566.776 568.583L583.324 567.88C609.197 566.81 623.585 566.417 640.594 566.417Z" fill="#00160A"/>
<path d="M571.287 237.158L571.811 236.194C575.913 228.766 579.486 225.077 583.652 226.281C583.99 226.378 584.321 226.511 584.645 226.679C587.199 228.003 587.812 230.464 587.095 233.823L587.049 234.03L587.169 233.857C588.379 232.139 589.533 230.811 590.729 229.826L590.986 229.621C593.646 227.55 596.467 227.358 599.023 229.515C603.102 232.959 602.64 238.736 599.309 242.291L599.124 242.483C598.661 242.951 598.382 243.964 598.071 246.348L597.802 248.437C597.479 250.847 597.262 251.904 596.754 253.537C595.794 256.621 594.219 259.193 591.768 261.294C588.687 263.935 583.486 263.566 576.161 260.556C575.374 260.233 574.999 259.333 575.322 258.546C575.645 257.759 565.048 248.413 564.727 248.822L564.624 248.942C564.034 249.555 563.059 249.575 562.446 248.985L560.957 247.551C560.06 246.686 560.507 245.17 561.729 244.93C563.968 244.491 565.705 244.006 566.926 243.489C567.951 243.054 568.51 242.638 568.644 242.369C568.644 242.369 570.869 237.937 571.287 237.158Z" fill="white"/>
<path fill-rule="evenodd" clip-rule="evenodd" d="M560.293 245.085C557.697 244.89 556.17 246.864 556.17 249.253C556.17 257.525 569.684 268.837 578.49 268.837C581.071 268.837 583.183 266.991 582.434 264.169C582.151 263.105 581.5 262.161 580.434 260.998L580.199 260.745C579 259.472 577.76 258.335 574.981 255.943L570.723 252.294C569.678 251.39 568.017 249.948 567.515 249.519L566.91 249.005C565.747 248.024 564.847 247.309 564.043 246.741C562.623 245.737 561.522 245.177 560.293 245.085ZM559.251 249.253C559.251 246.019 563.884 250.49 569.461 255.275L573.166 258.445C577.701 262.355 583.237 266.423 580.434 266.721C571.552 267.667 559.251 255.889 559.251 249.253Z" fill="#00160A"/>
<path fill-rule="evenodd" clip-rule="evenodd" d="M561.005 223.407C561.641 222.843 564.821 220.623 563.179 223.538C561.537 226.454 552.042 230.152 561.537 244.896C561.898 245.456 561.458 246.582 560.666 246.893C559.874 247.204 558.98 246.814 558.669 246.022C556.269 239.908 555.158 235.482 555.371 232.604C555.596 229.555 557.51 226.505 561.005 223.407Z" fill="#00160A"/>
<path fill-rule="evenodd" clip-rule="evenodd" d="M549.142 228.54C549.309 227.706 550.955 225.642 550.955 227.333C550.955 229.024 548.536 233.313 551.941 238.146C555.345 242.979 561.203 246.256 560.702 246.944C560.201 247.632 559.237 247.783 558.55 247.282C553.621 243.691 550.628 240.882 549.5 238.681C548.324 236.383 548.243 233.021 549.142 228.54Z" fill="#00160A"/>
<path fill-rule="evenodd" clip-rule="evenodd" d="M571.287 237.158L571.811 236.194C575.913 228.766 579.486 225.077 583.652 226.281C583.99 226.378 584.321 226.511 584.645 226.679C587.199 228.003 587.812 230.464 587.095 233.823L587.049 234.03L587.169 233.857C588.379 232.139 589.533 230.811 590.729 229.826L590.986 229.621C593.646 227.55 596.467 227.358 599.023 229.515C603.102 232.959 602.64 238.736 599.309 242.291L599.124 242.483C598.661 242.951 598.382 243.964 598.071 246.348L597.802 248.437C597.479 250.847 597.262 251.904 596.754 253.537C595.794 256.621 594.219 259.193 591.768 261.294C588.687 263.935 583.486 263.566 576.161 260.556C575.374 260.233 574.999 259.333 575.322 258.546C575.645 257.759 586.736 264.203 590.986 259.193C595.236 254.183 595.695 243.82 596.92 240.679L597.217 240.131C599.567 237.755 599.646 234.073 597.035 231.869C595.688 230.732 594.467 230.815 592.878 232.052C591.431 233.178 589.923 235.113 588.183 237.928L587.674 238.767C586.818 240.211 585.103 243.204 584.876 243.585L584.563 244.103C583.508 245.827 582.163 246.907 581.963 246.953C581.764 247 581.48 246.839 581.41 245.381C581.387 244.901 581.509 244.419 581.764 243.762L581.866 243.508C582.175 242.756 583.877 239.22 583.994 238.966C584.51 237.853 584.925 236.882 585.269 235.967C586.654 232.277 584.593 230.122 583.228 229.415C583.081 229.339 582.938 229.281 582.797 229.241C580.681 228.629 577.737 231.77 574.3 238.063L573.555 239.456C573.005 240.506 572.466 241.586 571.406 243.732C570.636 245.293 568.58 246.412 565.152 247.314L564.964 247.361L564.981 247.406C565.131 247.88 565.048 248.413 564.727 248.822L564.624 248.942C564.034 249.555 563.059 249.575 562.446 248.985L560.957 247.551C560.06 246.686 560.507 245.17 561.729 244.93C563.968 244.491 565.705 244.006 566.926 243.489C567.951 243.054 568.51 242.638 568.644 242.369L570.084 239.472C570.526 238.596 570.869 237.937 571.287 237.158Z" fill="#00160A"/>
<ellipse cx="591.5" cy="241.869" rx="3.5" ry="2.86947" fill="#FFB61D"/>
<ellipse cx="581.5" cy="233.869" rx="3.5" ry="2.86947" fill="#FFB61D"/>
<path fill-rule="evenodd" clip-rule="evenodd" d="M559.984 253.996C559.495 253.562 558.885 252.781 558.347 251.935L557.654 252.243L556.835 252.594C556.67 252.67 556.564 252.728 556.531 252.776C556.437 252.952 556.219 253.019 556.041 252.926C555.868 252.833 555.798 252.615 555.893 252.439C555.958 252.272 556.418 251.749 557.273 251.238C557.427 251.145 557.598 251.059 557.782 250.974C557.467 250.385 557.219 249.815 557.103 249.359C556.927 248.685 557.068 248.208 557.299 248.04C557.525 247.874 558.094 247.843 558.959 248.562C559.118 248.683 559.143 248.909 559.022 249.067C558.902 249.224 558.676 249.253 558.517 249.132C558.352 249.01 558.186 248.941 558.052 248.892L558.117 249.149C558.143 249.242 558.175 249.338 558.219 249.431C558.374 249.771 558.571 250.158 558.792 250.556C559.469 250.3 560.239 250.068 561.07 249.957C561.476 249.902 561.889 249.891 562.318 249.895C562.564 249.879 562.779 250.066 562.795 250.313C562.811 250.56 562.623 250.774 562.377 250.79C561.376 250.887 560.452 251.139 559.635 251.424L559.368 251.52C559.809 252.21 560.282 252.838 560.688 253.192C560.908 253.386 560.93 253.724 560.738 253.946C560.54 254.169 560.204 254.191 559.984 253.996Z" fill="#FFB61D"/>
<path fill-rule="evenodd" clip-rule="evenodd" d="M324.826 529.117C322.297 541.032 310.092 544.412 310.224 554.004C310.292 558.966 311.662 563.082 312.787 566.247C315.074 572.683 321.034 579.312 323.794 585.449C326.153 590.694 337.989 587.146 338.934 595.298C339.449 599.738 331.076 602.296 328.797 602.469C325.527 602.717 321.381 601.594 316.36 599.099C310.253 596.133 305.351 593.794 301.802 589.519C301.111 588.686 300.676 586.332 299.91 582.631C299.073 578.581 296.212 568.285 288.737 551.662C287.67 549.288 283.584 539.572 279.039 529.634C275.289 521.433 290.788 505.004 297.66 505.579C314.542 506.99 326.612 520.7 324.826 529.117Z" fill="white"/>
<path fill-rule="evenodd" clip-rule="evenodd" d="M312.99 599.275C308.788 596.773 305.331 593.89 302.621 590.625C301.929 589.791 301.42 586.72 300.655 583.019C300.254 581.079 285.664 546.076 280.851 532.902C279.953 530.443 282.133 532.164 282.645 532.902C285.437 536.925 302.621 563.465 310.831 588.053" fill="#E7EAEE"/>
<path fill-rule="evenodd" clip-rule="evenodd" d="M316.265 598.229L316.89 598.537C321.612 600.884 325.424 601.916 328.269 601.701C331.326 601.469 336.315 598.713 336.535 596.367C336.889 592.6 335.869 591.531 330.83 589.628C329.368 589.076 325.416 589.196 319.326 590.118C318.216 590.286 317.179 589.523 317.011 588.412C316.843 587.302 317.607 586.266 318.717 586.098L319.719 585.95C325.949 585.058 330.031 584.979 332.267 585.824L332.93 586.08C338.978 588.472 341.129 590.945 340.584 596.747C340.121 601.664 333.373 605.392 328.577 605.756C324.999 606.027 320.688 604.899 315.607 602.438L315.097 602.187C308.741 599.1 303.682 595.305 299.938 590.794C299.444 590.2 299.129 589.409 298.805 588.195L298.73 587.907C298.61 587.435 298.491 586.912 298.351 586.257L297.545 582.302L297.421 581.725C296.094 575.786 292.254 564.826 286.434 551.806L285.547 549.847C285 548.655 277.196 536.007 276.613 533.043C274.435 521.962 283.341 516.472 283.341 516.472C283.341 516.472 278.722 526.218 280.024 531.01C281.036 534.735 289.577 547.552 292.615 557.379C295.759 567.548 299.05 578.399 303.857 587.27C307.486 593.968 310.084 597.002 316.265 598.229Z" fill="#00160A"/>
<path fill-rule="evenodd" clip-rule="evenodd" d="M326.126 595.951C326.327 595.278 327.035 594.896 327.707 595.097C329.801 595.722 331.282 596.413 332.186 597.235C333.043 598.014 333.89 599.209 334.758 600.832C335.089 601.451 334.855 602.221 334.236 602.552C333.617 602.883 332.847 602.649 332.517 602.031C331.774 600.642 331.084 599.667 330.477 599.116C329.917 598.607 328.74 598.058 326.98 597.532C326.307 597.331 325.925 596.623 326.126 595.951Z" fill="#00160A"/>
<path fill-rule="evenodd" clip-rule="evenodd" d="M329.675 592.029C329.896 591.363 330.616 591.003 331.282 591.225C333.075 591.821 334.407 592.501 335.292 593.306C336.17 594.103 337.013 595.392 337.866 597.189C338.167 597.823 337.897 598.581 337.263 598.882C336.629 599.183 335.871 598.913 335.57 598.279C334.847 596.755 334.169 595.719 333.583 595.187C333.005 594.661 331.966 594.131 330.479 593.636C329.813 593.414 329.453 592.695 329.675 592.029Z" fill="#00160A"/>
<path fill-rule="evenodd" clip-rule="evenodd" d="M316.951 510.131C321.422 511.929 330.214 521.898 328.854 527.496C327.448 533.285 325.385 535.598 322.103 539.436L321.759 539.832C320.758 540.971 316.624 545.171 316.46 545.348L316.068 545.78C312.384 549.937 310.878 554.534 313.875 563.007C316.071 569.213 319.682 576.267 324.666 582.995C325.324 583.882 326.96 586.489 326.072 587.146C325.185 587.804 323.084 585.679 322.427 584.791C317.218 577.761 313.441 570.946 311.104 564.341C307.574 554.362 308.426 550.25 313.298 544.878L313.608 544.543C314.13 544 317.712 540.357 318.66 539.299L318.755 539.191C321.816 535.709 323.834 532.021 325.129 526.691C326.024 523.007 322.262 516.465 314.312 511.157C309.035 507.633 312.481 508.332 316.951 510.131Z" fill="#00160A"/>
</svg>
