<svg width="750" height="750" viewBox="0 0 750 750" fill="none" xmlns="http://www.w3.org/2000/svg">
<rect width="750" height="750" fill="none"/>
<path fill-rule="evenodd" clip-rule="evenodd" d="M210.084 582.979C210.084 582.979 49.7158 552.937 38.8459 513.289C27.9761 473.642 156.781 454.542 156.781 454.542C156.781 454.542 218.546 444.097 228.004 435.635C237.462 427.173 425.742 430.437 516.712 362.959C607.682 295.48 637.729 261.262 682.7 299.591C727.67 337.92 716.783 451.564 667.202 517.272C617.621 582.979 420.38 593.93 420.38 593.93L210.084 582.979Z" />
<path fill-rule="evenodd" clip-rule="evenodd" d="M500.868 541.75C500.868 541.75 496.625 544.684 494.613 539.147C492.601 533.61 491.337 529.702 491.337 529.702C491.337 529.702 487.009 525.358 484.749 525.358C482.488 525.358 475.083 520.239 475.843 516.215C476.603 512.192 485.358 512.649 487.847 512.649C490.336 512.649 488.449 506.529 488.449 504.671C488.449 502.814 491.372 487.035 498.321 489.396C505.269 491.757 509.038 495.908 506.271 503.106C513.515 502.758 520.11 499.42 520.956 513.595C520.377 518.803 520.513 520.003 523.692 523.863C526.87 527.722 528.164 533.531 525.521 535.507C522.877 537.483 518.579 538.241 517.144 539.147C515.709 540.053 514.946 542.026 514.946 545.282C514.946 548.538 509.956 542.866 509.956 542.866L505.269 537.866L500.868 541.75Z" fill="white"/>
<path d="M441.764 361.043C446.585 412.558 450.603 464.148 453.813 515.788C454.193 521.889 454.424 528.511 450.933 533.535C448.591 536.906 444.883 539.054 441.183 540.842C427.645 547.387 412.724 550.545 397.847 552.781C357.29 558.876 315.763 558.509 275.321 551.697C267.318 550.349 259.199 548.693 252.143 544.692C245.087 540.692 239.159 533.939 238.102 525.912C229.298 459.073 224.37 391.726 223.351 324.32C223.277 319.436 223.105 314.187 220.172 310.276C216.995 306.04 211.318 304.404 207.729 300.509C201.538 293.789 203.867 282.314 210.362 275.886C216.858 269.459 226.179 266.908 235.133 265.03C261.291 259.547 288.216 257.71 314.879 259.592C315.666 261.738 312.431 262.941 310.141 262.944C285.091 262.973 260.044 265.019 235.323 269.054C226.265 270.533 216.388 272.792 210.901 280.132C235.863 288.339 262.626 288.807 288.908 289.008C335.888 289.367 383.203 289.086 429.33 280.187C433.436 279.395 437.889 278.32 440.435 275.01C442.982 271.7 441.782 265.571 437.627 265.088C402.082 260.952 366.17 259.957 330.449 262.118C327.69 262.285 323.628 260.629 324.978 258.224C357.744 256.671 390.618 257.392 423.285 260.379C432.056 261.181 441.295 262.329 448.314 267.639C455.762 273.273 459.474 283.41 457.419 292.507C455.364 301.604 447.653 309.174 438.502 311.078" fill="white"/>
<path fill-rule="evenodd" clip-rule="evenodd" d="M317.927 257.182C319.108 224.72 323.922 191.976 318.472 159.954C317.873 156.437 317.143 152.911 315.733 149.634C313.351 144.098 309.011 139.43 303.665 136.655C302.023 135.803 300.197 135.043 299.196 133.487C298.194 131.932 298.7 129.297 300.524 129C308.003 130.197 314.102 136.043 317.476 142.83C320.849 149.617 321.911 157.293 322.687 164.833C325.409 191.295 325.186 218.06 322.021 244.472C320.944 253.46 319.565 262.826 322.562 271.366C321.658 271.15 320.754 270.933 319.85 270.717C317.715 266.63 317.759 261.79 317.927 257.182H317.927Z" fill="#E7EAEE"/>
<path d="M232.979 582.624C231.083 584.714 228.13 585.825 225.302 585.514C223.878 585.357 223.111 587.433 223.927 588.593C224.742 589.752 226.332 590.074 227.763 590.117C229.195 590.161 230.699 590.036 231.989 590.649C227.15 592.832 222.311 595.015 217.472 597.198C203.543 607.458 224.629 603.401 228.109 602.605C224.229 606.458 221.55 610.626 224.531 610.751C221.857 611.931 228.508 608.983 226.656 611.22C224.805 613.457 224.208 616.986 226.126 619.169C229.337 619.131 232.206 616.165 232.087 613.004C238.231 614.182 244.537 614.536 250.777 614.054C254.402 613.774 257.162 609.789 256.261 606.321C255.361 602.852 251.19 600.655 247.707 601.683C252.185 599.679 256.428 597.167 260.326 594.212C259.268 592.625 258.21 591.039 257.152 589.452C255.539 587.033 253.882 584.567 251.553 582.803C249.224 581.038 246.056 580.075 243.292 581.057C240.527 582.039 238.637 585.391 239.903 588.002C239.041 589.065 237.16 589.074 236.286 588.02C235.413 586.966 235.8 585.153 237.031 584.535C238.131 583.982 238.263 582.377 237.619 581.339C236.974 580.302 235.819 579.699 234.719 579.146C231.776 577.664 227.997 576.243 225.41 578.27C226.464 578.892 227.701 579.21 228.929 579.176C227.262 580.156 225.595 581.137 223.928 582.117C223.34 582.659 224.53 583.326 225.332 583.259C227.881 583.048 230.43 582.836 232.979 582.624Z" fill="white"/>
<path fill-rule="evenodd" clip-rule="evenodd" d="M225.332 583.259C227.881 583.047 230.43 582.836 232.979 582.624C231.083 584.714 228.13 585.825 225.302 585.513C223.878 585.356 223.111 587.433 223.927 588.592C224.742 589.752 226.331 590.074 227.763 590.117C229.195 590.161 230.699 590.036 231.989 590.649C227.15 592.832 222.311 595.015 217.472 597.197C221.018 597.62 224.639 597.428 228.119 596.632C224.239 600.484 216.199 598.348 213.403 603.024C218.978 603.682 224.711 602.998 229.966 601.05C229.936 602.913 227.725 603.921 225.85 604.172C223.974 604.422 221.808 604.492 220.633 605.952C219.87 606.9 218.363 606.609 217.197 606.228C215.263 605.596 213.26 604.925 211.786 603.539C210.312 602.153 209.531 599.834 210.537 598.089C212.746 594.26 220.572 596.525 221.892 592.317C222.222 591.264 221.958 590.13 221.697 589.058C221.089 586.564 220.505 583.997 220.852 581.455C221.198 578.913 222.669 576.364 225.093 575.426C229.167 573.85 233.336 577.249 237.606 578.193C240.821 578.904 244.23 578.189 247.442 578.912C252.066 579.951 255.458 583.721 258.521 587.287C259.909 588.904 261.347 590.617 261.762 592.695C262.178 594.772 261.158 597.291 259.07 597.799C257.172 598.261 256.42 600.631 256.791 602.521C257.161 604.411 258.278 606.081 258.794 607.937C259.311 609.794 258.981 612.166 257.24 613.041C253.569 614.888 249.721 616.778 245.599 616.78C242.837 616.782 240.138 615.928 237.379 615.842C234.619 615.757 231.506 616.723 230.343 619.189C229.174 621.669 225.039 621.11 223.51 618.828C221.98 616.545 222.268 613.567 222.613 610.854C222.715 610.057 222.84 609.206 223.385 608.609C223.831 608.12 224.489 607.882 225.127 607.686C227.975 606.81 230.977 606.423 233.958 606.548C231.284 607.728 228.508 608.982 226.656 611.219C224.804 613.456 224.208 616.986 226.126 619.169C229.337 619.131 232.206 616.164 232.087 613.004C238.23 614.182 244.537 614.536 250.777 614.053C254.401 613.773 257.161 609.789 256.261 606.32C255.361 602.851 251.19 600.655 247.707 601.683C252.185 599.679 256.428 597.167 260.326 594.212C259.268 592.625 258.21 591.039 257.152 589.452C255.539 587.033 253.882 584.567 251.552 582.802C249.223 581.038 246.056 580.075 243.291 581.057C240.527 582.039 238.636 585.39 239.903 588.001C239.041 589.064 237.159 589.074 236.286 588.02C235.413 586.965 235.8 585.153 237.031 584.534C238.131 583.982 238.263 582.377 237.618 581.339C236.974 580.302 235.819 579.699 234.719 579.146C231.776 577.664 227.997 576.242 225.41 578.269C226.464 578.891 227.701 579.21 228.929 579.175C227.262 580.156 225.595 581.136 223.928 582.117C223.339 582.658 224.529 583.326 225.332 583.259V583.259Z" fill="#FFB61D"/>
<path fill-rule="evenodd" clip-rule="evenodd" d="M309.719 251.111C309.464 250.124 309.836 248.938 310.745 248.468C311.04 249.083 311.336 249.698 311.632 250.314C311.014 250.694 310.396 251.075 309.779 251.455L309.719 251.111Z" fill="#E7EAEE"/>
<path d="M235.754 595.922C236.147 597.865 235.918 599.914 235.104 601.739C237.375 601.975 239.679 601.941 241.942 601.637C240.372 604.027 236.348 604.696 234.192 602.746C232.036 600.797 232.885 596.731 235.754 595.922L235.754 595.922Z" fill="white"/>
<path fill-rule="evenodd" clip-rule="evenodd" d="M312.408 204.688C311.534 215.786 311.171 226.918 311.319 238.044C311.348 240.222 311.423 242.495 312.553 244.411C312.886 244.975 312.032 245.626 311.359 245.454C310.686 245.281 310.281 244.665 309.979 244.087C305.885 236.25 308.472 227.025 308.288 218.335C308.169 212.68 306.857 206.852 308.774 201.477C309.161 200.391 311.057 200.472 311.808 201.384C312.559 202.295 312.498 203.548 312.408 204.688L312.408 204.688Z" fill="#E7EAEE"/>
<path d="M180.648 482.094C181.39 483.382 181.401 485.111 180.674 486.409C179.883 483.204 175.709 481.642 173.219 483.62C172.304 484.346 171.315 485.499 170.261 485.038C170.75 484.845 170.823 483.987 170.374 483.703C172.462 480.139 177.691 479.32 180.648 482.094H180.648Z" fill="black"/>
<path fill-rule="evenodd" clip-rule="evenodd" d="M188.823 478.873C188.922 478.432 189.02 477.992 189.105 477.558C189.604 475.021 189.308 471.796 186.97 470.702C185.35 469.945 183.594 470.573 181.84 471.201C181.183 471.436 180.527 471.671 179.878 471.833C176.229 472.745 172.085 471.032 170.137 467.808C168.662 465.365 164.577 466.641 163.222 469.154C162.366 470.74 162.139 472.538 161.911 474.345C161.777 475.4 161.643 476.458 161.384 477.479C160.68 480.246 158.169 483.095 155.437 482.283C153.261 481.636 150.724 482.498 149.388 484.337C148.052 486.175 148.012 488.861 149.293 490.738C150.849 493.019 153.661 493.718 156.428 494.406C157.218 494.602 158.005 494.798 158.757 495.029C160.053 495.427 161.38 496.028 162.122 497.164C162.865 498.301 162.735 500.088 161.552 500.75C159.613 501.833 159.772 505.029 161.528 506.39C163.285 507.75 165.884 507.496 167.802 506.377C169.72 505.257 171.112 503.438 172.453 501.664C174.516 498.936 178.864 498.328 181.593 500.386C181.579 498.005 182.931 495.664 184.998 494.49C187.065 493.316 189.763 493.357 191.793 494.594C193.571 493.874 193.454 491.191 192.352 489.618C191.904 488.978 191.353 488.413 190.803 487.849C190.001 487.025 189.202 486.205 188.734 485.165C187.856 483.211 188.346 481.013 188.823 478.873ZM182.13 492.703C182.474 493.887 182.285 495.215 181.625 496.255L181.816 496.449C180.675 497.048 179.217 496.986 178.132 496.291L179.283 493.325C180.148 492.855 181.148 492.637 182.13 492.703Z" fill="white"/>
<path fill-rule="evenodd" clip-rule="evenodd" d="M498.927 357.134C497.762 355.756 496.596 354.376 495.377 353.052C491.614 348.967 487.002 345.242 481.513 344.413C480.934 344.325 480.348 344.27 479.763 344.216C478.583 344.106 477.405 343.996 476.286 343.617C474.791 343.111 473.492 342.153 472.289 341.13C470.66 339.744 469.09 338.182 467.516 336.615C462.887 332.007 458.228 327.37 451.943 327.126C445.324 326.869 439.109 332.813 439.065 339.444C439.027 345.007 442.627 349.85 446.059 354.226L505.743 430.327L542.748 477.511C547.526 483.603 553.805 490.347 561.469 489.285C568.357 488.33 572.984 480.239 571.021 473.561C570.266 470.995 568.78 468.755 567.291 466.51C565.993 464.553 564.692 462.592 563.872 460.408C562.566 456.929 562.578 453.193 562.589 449.44C562.598 446.568 562.607 443.686 562.026 440.901C560.737 434.734 556.676 429.554 552.545 424.8C550.309 422.227 547.939 418.417 550.077 415.763C552.62 412.603 551.351 407.939 549.744 404.213C544.588 392.254 537.102 381.307 527.831 372.168C523.861 368.255 518.085 364.446 513.118 366.973C511.025 368.038 508.522 366.73 506.698 365.25C503.783 362.883 501.356 360.01 498.927 357.134ZM542.642 406.669C543.038 408.692 542.66 410.979 541.189 412.422C540.827 412.777 540.376 413.084 539.87 413.105C539.007 413.139 538.353 412.366 537.843 411.667L514.719 379.938C513.829 378.718 514.45 376.82 515.745 376.045C517.041 375.27 518.736 375.453 520.08 376.139C521.425 376.825 522.491 377.944 523.51 379.058C529.725 385.844 535.291 393.225 540.109 401.067C541.188 402.823 542.247 404.646 542.642 406.669Z" fill="white"/>
<path fill-rule="evenodd" clip-rule="evenodd" d="M449.976 524.311C450.795 521.591 450.6 518.684 450.397 515.852L438.598 351.187C440.988 353.771 441.436 357.542 441.763 361.043C446.585 412.558 450.602 464.148 453.813 515.788C454.193 521.889 454.424 528.511 450.933 533.535C448.591 536.906 444.883 539.054 441.183 540.842C427.645 547.387 412.724 550.545 397.847 552.781C357.29 558.876 315.763 558.509 275.321 551.697C267.318 550.349 259.199 548.693 252.143 544.692C245.087 540.692 239.159 533.939 238.102 525.912C229.298 459.073 224.37 391.726 223.351 324.32C223.277 319.436 223.105 314.187 220.172 310.276C218.46 307.994 216.023 306.467 213.578 304.934C211.484 303.622 209.384 302.306 207.729 300.509C201.538 293.789 203.867 282.314 210.362 275.886C216.858 269.459 226.179 266.908 235.132 265.03C261.291 259.547 288.216 257.71 314.879 259.592C315.666 261.738 312.431 262.941 310.141 262.944C285.091 262.973 260.044 265.019 235.323 269.054C226.265 270.533 216.388 272.792 210.901 280.132C235.863 288.339 262.626 288.807 288.908 289.008C335.888 289.367 383.203 289.086 429.33 280.187C433.436 279.395 437.888 278.32 440.435 275.01C442.981 271.7 441.782 265.571 437.627 265.088C402.082 260.952 366.17 259.957 330.449 262.118C327.69 262.285 323.628 260.629 324.978 258.224C357.744 256.671 390.618 257.392 423.284 260.379C432.056 261.181 441.295 262.329 448.313 267.639C455.762 273.273 459.474 283.41 457.419 292.507C455.364 301.604 447.653 309.174 438.502 311.078L438.118 333.465C435.623 330.898 435.958 327.02 436.279 323.317C436.344 322.561 436.409 321.814 436.449 321.086C436.685 316.787 434.134 311.183 429.909 312.061C363.052 325.959 293.391 326.287 226.406 313.022C226.478 377.001 232.531 440.806 238.579 504.5C239.3 512.096 240.056 519.832 243.045 526.856C246.033 533.88 251.665 540.208 259.08 542.086C294.321 551.009 330.898 554.659 367.213 552.879C392.028 551.662 417.355 547.707 438.975 535.498C443.65 532.858 448.431 529.442 449.976 524.311ZM208.531 282.871C206.328 290.662 210.87 299.118 217.44 303.871C224.01 308.624 232.211 310.439 240.192 311.909C304.408 323.736 370.812 320.369 434.897 307.855C439.781 306.901 444.902 305.774 448.611 302.465C452.722 298.797 454.363 292.952 454.032 287.46C453.701 281.967 451.631 276.735 449.315 271.741C446 279.84 436.039 282.533 427.393 284C370.039 293.734 311.514 295.319 253.412 292.34C246.806 292.001 240.189 291.602 233.661 290.538C224.99 289.126 216.511 286.539 208.531 282.871ZM244.219 500.219C242.957 499.117 241.504 497.849 239.913 498.268C239.3 502.378 244.137 504.928 248.099 506.073C253.341 507.588 258.834 508.976 264.194 507.969C266.129 507.605 268.054 506.902 269.519 505.578C272.808 502.606 272.914 497.538 272.764 493.088C271.416 453.17 269.211 413.282 266.15 373.46C265.66 367.095 264.765 359.972 259.789 356.024C257.742 354.399 255.222 353.524 252.755 352.678L235.568 346.785C233.247 345.989 230.217 345.388 228.732 347.356C227.81 348.579 227.956 350.28 228.144 351.806C233.658 396.684 236.733 441.868 237.351 487.085C237.436 493.323 242.879 498.336 248.724 500.376C255.075 502.592 261.986 502.229 268.695 501.839C261.459 506.747 250.995 506.115 244.392 500.37L244.219 500.219ZM268.308 496.511C263.771 499.655 257.737 499.243 252.32 498.258C249.111 497.674 245.687 496.788 243.608 494.255C241.464 491.642 241.301 487.966 241.226 484.575C240.219 439.221 236.953 393.919 231.444 348.895L249.134 355C253.333 356.449 257.813 358.104 260.367 361.765C262.58 364.937 262.918 369.02 263.184 372.889L266.604 422.637C268.294 447.23 269.985 471.917 268.308 496.511ZM343.601 510.707C338.209 509.261 332.667 508.369 327.092 508.048L326.808 508.032C322.735 507.799 318.14 507.536 315.626 504.368C314.436 502.868 313.944 500.95 313.502 499.089C304.735 462.208 303.901 423.977 303.108 386.083L302.726 367.834C302.7 366.569 302.651 365.23 301.957 364.172C301.263 363.113 299.675 362.533 298.689 363.329L300.283 425.906C300.395 430.285 300.506 434.664 300.762 439.036C301.941 459.144 306.165 478.936 310.377 498.636C311.448 503.647 313.622 509.72 318.731 510.309L344.348 513.264C344.56 513.288 344.779 513.312 344.983 513.25C346.24 512.864 344.871 511.048 343.601 510.707ZM436.396 480.633C436.65 487.762 436.712 495.528 432.387 501.202C438.785 497.039 439.247 488.017 439.022 480.39L437.048 413.584C436.531 396.111 435.982 378.421 431.154 361.62C430.274 358.559 429.174 355.407 426.864 353.215C424.554 351.022 420.69 350.148 418.158 352.081C413.105 355.94 406.39 356.072 399.915 356.199C398.911 356.219 397.913 356.239 396.929 356.272C389.587 356.52 381.05 358.655 378.26 365.446C376.544 369.624 377.575 374.343 378.542 378.769L378.608 379.071C383.897 403.322 384.615 428.182 385.333 453.056V453.056C385.66 464.405 385.988 475.757 386.75 487.055C387.203 493.768 387.914 500.782 391.614 506.403C392.346 507.516 393.221 508.586 394.4 509.207C395.518 509.795 396.812 509.931 398.071 510.033C404.869 510.586 411.878 510.449 418.273 508.078C424.668 505.708 430.401 500.801 432.385 494.279C433.596 490.299 433.36 486.046 433.128 481.89L433.121 481.758C431.868 459.219 431.563 436.627 432.207 414.063C432.231 413.214 432.256 412.365 432.282 411.513C432.785 394.561 433.305 377.031 426.25 361.679C425.307 359.626 424.159 357.546 422.267 356.31C422.169 356.246 422.067 356.181 421.964 356.116C421.227 355.651 420.427 355.145 420.365 354.306C421.857 353.23 424.061 353.747 425.412 354.994C426.764 356.241 427.454 358.032 428.048 359.772C430.37 366.574 431.903 373.646 432.606 380.799C432.986 384.662 433.124 388.544 433.261 392.423L436.396 480.633ZM382.125 362.707C384.777 359.641 389.284 359.178 393.332 358.931L414.744 357.625C416.891 357.494 419.23 357.414 420.979 358.666C422.177 359.524 422.904 360.881 423.521 362.217C428.481 372.944 429.015 385.119 429.259 396.933C429.941 429.873 429.012 462.847 426.475 495.696C426.202 499.237 423.41 502.185 420.185 503.676C416.96 505.168 413.332 505.474 409.79 505.758L399.899 506.55C398.677 506.648 397.385 506.734 396.286 506.19C394.676 505.393 393.967 503.516 393.449 501.797C388.103 484.032 388.081 465.408 388.059 446.74C388.048 436.97 388.036 427.188 387.262 417.51C386.148 403.604 383.449 389.881 380.756 376.193L380.712 375.966C379.822 371.441 379.108 366.195 382.125 362.707ZM479.193 520.893C481.046 522.733 483.424 524.053 485.98 524.66C488.167 525.179 489.573 527.778 488.792 529.859C488.853 530.158 488.379 530.319 488.129 530.138C487.914 529.983 487.829 529.718 487.747 529.462L487.746 529.458C487.733 529.418 487.72 529.378 487.707 529.339C487.087 527.507 485.069 526.59 483.271 525.824C480.724 524.74 478.123 523.483 476.428 521.318C474.733 519.153 474.245 515.831 476.039 513.745C477.213 512.378 479.063 511.815 480.807 511.316C483.133 510.651 485.573 509.981 487.942 510.471L488.482 511.534C489.604 512.218 491.179 512.073 492.154 511.196C493.237 510.22 494.889 510.294 496.35 510.427L504.239 511.145C504.624 511.18 505.03 511.222 505.344 511.444C506.278 512.105 505.531 513.703 504.427 514.019C503.633 514.246 502.808 514.09 501.982 513.935L501.981 513.935C501.66 513.874 501.339 513.814 501.02 513.776C500.624 513.728 500.209 513.719 499.84 513.87C498.737 514.321 498.667 515.85 499.011 516.979C499.07 517.173 499.136 517.37 499.203 517.568C499.522 518.519 499.852 519.499 499.484 520.404C498.46 520.861 497.266 519.929 496.958 518.863C496.724 518.053 496.822 517.204 496.919 516.358C496.927 516.292 496.934 516.227 496.941 516.162C496.948 516.105 496.954 516.048 496.96 515.991C496.968 515.918 496.976 515.846 496.982 515.773C496.989 515.701 496.995 515.63 497.001 515.558C497.085 514.453 496.906 513.189 496 512.533C492.335 514.258 488.198 514.994 484.153 514.639C483.833 514.611 483.513 514.576 483.192 514.541L483.191 514.541C482.167 514.43 481.142 514.319 480.12 514.425C478.779 514.564 477.4 515.154 476.718 516.301C477.243 516.633 477.633 517.168 477.785 517.764L490.692 520.255C489.734 521.296 488.109 521.308 486.685 521.241L479.193 520.893ZM362.951 486.824C360.34 455.572 359.511 424.172 360.469 392.826L360.491 392.117C360.703 385.249 360.919 378.277 359.12 371.65C357.26 364.795 352.847 358.231 346.203 355.641C342.344 354.137 338.092 354.078 333.948 354.04C323.158 353.939 312.273 353.848 301.702 355.999C298.199 356.712 294.369 357.955 292.686 361.093C291.52 363.266 291.663 365.874 291.836 368.331L301.246 502.008C301.427 504.574 301.659 507.289 303.168 509.378C304.735 511.549 307.385 512.633 309.934 513.474C320.749 517.039 332.383 518.12 343.674 516.607C342.646 515.151 340.657 514.815 338.882 514.601L316.824 511.935C314.602 511.667 312.312 511.376 310.371 510.268C305.673 507.584 304.722 501.366 304.282 495.993C300.762 452.921 297.24 409.837 295.386 366.662C295.286 364.323 295.4 361.55 297.363 360.26C298.357 359.607 299.607 359.512 300.795 359.437L333.227 357.39C336.89 357.159 340.675 356.945 344.123 358.194C348.898 359.925 352.317 364.262 354.265 368.931C357.239 376.057 357.301 384.01 357.201 391.725C357.13 397.279 356.999 402.838 356.868 408.399L356.868 408.401C356.367 429.66 355.866 450.94 358.693 471.985C358.829 473.004 358.972 474.03 359.116 475.063L359.117 475.068C360.799 487.151 362.594 500.048 356.064 510.163L356.013 510.242L355.954 510.333C355.465 511.085 354.956 511.869 354.932 512.756C354.906 513.711 355.765 514.746 356.69 514.492C357.053 514.393 357.341 514.124 357.604 513.855C364.254 507.054 363.741 496.281 362.951 486.824ZM312.683 276.373C316.909 276.537 321.398 277.556 324.309 280.725C324.875 281.341 325.38 282.035 325.884 282.728L325.884 282.728C326.934 284.171 327.978 285.605 329.552 286.306C327.141 285.44 324.509 285.243 322.002 285.739C321.132 285.911 320.276 286.165 319.422 286.419C318.072 286.819 316.724 287.219 315.327 287.295L318.117 284.846C319.115 283.971 320.244 283.045 321.553 283.089C321.768 280.865 320.048 278.75 317.958 278.167C315.868 277.584 313.583 278.322 311.864 279.68C310.145 281.039 308.917 282.952 307.898 284.923C307.492 285.708 306.939 286.624 306.078 286.614C305.365 286.253 305.393 285.17 305.74 284.432C305.84 284.219 305.958 284.012 306.076 283.804L306.077 283.804C306.368 283.292 306.659 282.781 306.677 282.198C306.725 280.711 305.086 279.864 303.719 279.393C302.355 278.924 300.704 278.504 299.605 279.46C298.806 280.156 298.621 281.33 298.489 282.4L298.039 286.034C295.695 286.857 293.109 286.931 290.725 286.244C293.547 284.486 296.65 282.317 297.173 278.958C302.111 277.052 307.415 276.168 312.683 276.373ZM189.105 477.558C189.604 475.021 189.308 471.796 186.97 470.703C185.35 469.945 183.594 470.574 181.84 471.201C181.183 471.436 180.527 471.671 179.878 471.834C176.229 472.745 172.085 471.032 170.137 467.808C168.662 465.365 164.577 466.642 163.222 469.154C162.366 470.74 162.139 472.538 161.911 474.345C161.777 475.4 161.643 476.459 161.384 477.479C160.68 480.247 158.169 483.095 155.437 482.283C153.261 481.636 150.724 482.498 149.388 484.337C148.052 486.175 148.012 488.861 149.293 490.739C150.849 493.019 153.661 493.718 156.428 494.406C157.218 494.602 158.005 494.798 158.757 495.029C160.053 495.427 161.38 496.028 162.122 497.164C162.865 498.301 162.735 500.088 161.552 500.75C159.613 501.833 159.772 505.029 161.528 506.39C163.285 507.75 165.884 507.496 167.802 506.377C169.72 505.257 171.112 503.438 172.453 501.664C174.516 498.936 178.864 498.328 181.593 500.387C181.579 498.005 182.931 495.664 184.998 494.49C187.065 493.316 189.763 493.358 191.793 494.594C193.571 493.874 193.454 491.191 192.352 489.618C191.904 488.978 191.353 488.413 190.803 487.849C190.001 487.025 189.202 486.205 188.734 485.165C187.856 483.211 188.346 481.013 188.823 478.874L188.824 478.873C188.922 478.432 189.02 477.992 189.105 477.558ZM182.918 473.177C184.342 472.85 186.04 473.015 186.954 474.157C188.142 475.642 187.359 477.447 186.542 479.333C185.876 480.872 185.186 482.464 185.524 483.98C185.792 485.179 186.679 486.128 187.53 487.012L191.563 491.2C189.855 492.788 187.495 492.138 185.073 491.472C182.895 490.873 180.667 490.26 178.819 491.247C177.466 491.971 176.689 493.386 175.94 494.749C175.851 494.91 175.763 495.071 175.675 495.229C173.343 499.399 169.927 502.953 165.857 505.445C165.339 505.762 164.765 506.073 164.16 506.014C162.684 505.871 162.311 503.834 162.683 502.394C163.12 500.697 164.011 499.124 164.895 497.564C166.171 495.312 167.431 493.088 167.285 490.562C165.733 493.136 162.358 494.117 159.387 493.696C156.417 493.276 153.742 491.726 151.153 490.207C149.365 489.158 150.005 486.141 151.788 485.084C153.57 484.026 155.807 484.312 157.858 484.609C159.908 484.905 162.166 485.137 163.9 484.001C163.045 480.193 163.239 476.154 164.453 472.445C164.891 471.107 165.53 469.727 166.734 469.002C167.938 468.276 169.822 468.572 170.323 469.888C171.563 473.152 175.336 475.225 178.749 474.516C179.49 474.362 180.2 474.096 180.911 473.83L180.911 473.83L180.911 473.83C181.571 473.582 182.232 473.335 182.918 473.177ZM182.13 492.703C182.474 493.887 182.285 495.215 181.625 496.255L181.816 496.449C180.675 497.048 179.217 496.986 178.132 496.292L179.283 493.325C180.148 492.855 181.148 492.637 182.13 492.703ZM496.194 544.049C492.512 538.122 490.111 531.428 489.196 524.54C491.724 525.184 493.03 527.957 493.447 530.494C493.564 531.204 493.641 531.927 493.717 532.649C493.915 534.51 494.113 536.37 494.992 538.007C496.214 540.279 499.512 541.756 501.467 540.053C501.953 539.63 502.32 539.05 502.681 538.48C503.27 537.55 503.842 536.645 504.889 536.488C506.187 536.293 507.244 537.447 508.029 538.483L512.846 544.842C514.108 544.466 514.19 543.127 514.278 541.708C514.332 540.835 514.388 539.931 514.722 539.203C515.492 537.523 517.393 537.252 519.373 536.969C520.762 536.771 522.191 536.567 523.297 535.866C525.283 534.608 525.815 531.837 525.077 529.629C524.338 527.42 522.612 525.678 520.824 524.158C518.234 521.956 518.689 518.378 519.15 514.758C519.592 511.288 520.038 507.779 517.809 505.408C514.698 502.097 509.161 503.86 505.044 505.839L503.292 503.834C506.651 502.608 507.26 497.703 505.071 494.912C502.881 492.121 499.009 491.165 495.426 491.149C494.907 491.146 494.344 491.175 493.944 491.501C492.701 492.515 494.455 494.295 495.954 494.884L503.277 497.758C501.585 498.905 499.35 498.226 497.182 497.567C494.829 496.851 492.554 496.159 491.132 497.849C489.535 499.747 491.219 502.704 493.385 503.941C494.222 504.419 495.132 504.779 496.039 505.138L496.039 505.138C497.479 505.707 498.912 506.274 500.035 507.306C498.577 508.037 496.92 507.503 495.307 506.983C494.897 506.852 494.491 506.721 494.091 506.611C492.114 506.072 489.252 506.745 489.277 508.763C487.246 506.52 487.782 503.076 488.443 500.144C489.185 496.858 489.987 493.452 492.099 490.804C494.212 488.157 498.039 486.513 501.146 487.92C503.795 489.12 505.035 491.953 506.217 494.653L506.219 494.657C506.4 495.072 506.581 495.484 506.765 495.886C508.145 498.907 510.895 502.106 514.189 501.423C517.178 500.804 520.169 503.029 521.419 505.772C522.668 508.516 522.597 511.641 522.503 514.646C522.408 517.657 523.775 520.417 525.138 523.169C525.597 524.095 526.054 525.019 526.456 525.951C528.052 529.657 528.474 534.638 525.223 537.08C524.122 537.908 522.78 538.289 521.436 538.672L521.435 538.672C520.816 538.848 520.197 539.025 519.599 539.245C517.704 539.943 515.79 541.501 515.949 543.486C515.97 543.747 516.027 544.006 516.084 544.265C516.18 544.702 516.276 545.138 516.195 545.573C515.967 546.804 514.381 547.388 513.16 547.039C511.94 546.69 511.026 545.717 510.178 544.786L504.795 538.875C503.293 542.052 499.753 544.181 496.194 544.049ZM495.377 353.052C491.614 348.966 487.002 345.242 481.513 344.412C480.934 344.325 480.349 344.27 479.763 344.216C478.583 344.105 477.405 343.995 476.287 343.617C474.791 343.111 473.493 342.153 472.29 341.13C470.66 339.744 469.09 338.181 467.516 336.615C462.887 332.007 458.228 327.37 451.943 327.126C445.324 326.869 439.11 332.813 439.065 339.444C439.028 345.007 442.627 349.85 446.059 354.225L505.743 430.327L542.748 477.511C547.526 483.603 553.806 490.347 561.47 489.285C568.358 488.33 572.984 480.238 571.021 473.561C570.267 470.995 568.781 468.755 567.292 466.51C565.993 464.553 564.692 462.592 563.872 460.408C562.566 456.929 562.578 453.193 562.59 449.44C562.599 446.567 562.608 443.685 562.026 440.901C560.737 434.733 556.676 429.554 552.545 424.8C550.31 422.227 547.94 418.417 550.077 415.762C552.62 412.603 551.351 407.938 549.745 404.213C544.589 392.254 537.103 381.307 527.831 372.168C523.861 368.255 518.085 364.446 513.119 366.973C511.025 368.038 508.522 366.73 506.698 365.249C503.784 362.883 501.356 360.01 498.927 357.134C497.762 355.755 496.597 354.376 495.377 353.052ZM445.005 333.027C447.46 330.625 451.17 329.586 454.514 330.366C458.336 331.257 461.295 334.219 463.879 337.176C470.696 344.977 476.447 353.631 482.185 362.266C482.826 363.231 483.466 364.194 484.108 365.157C508.243 401.35 534.64 436.031 563.093 468.93C565.877 472.149 568.878 476.119 567.79 480.235C566.559 484.895 560.421 486.702 555.897 485.052C551.373 483.402 548.157 479.442 545.176 475.656L446.748 350.665C444.792 348.182 442.779 345.579 442.132 342.484C441.429 339.12 442.55 335.43 445.005 333.027ZM524.792 405.996C522.81 403.435 520.688 400.914 517.995 399.116C516.696 398.248 515.23 397.499 513.765 396.752C510.016 394.838 506.276 392.928 505.359 389.032C505.069 387.795 505.134 386.521 505.2 385.244C505.251 384.248 505.303 383.25 505.185 382.265C504.991 380.648 504.348 379.121 503.648 377.65C498.333 366.497 489.203 357.209 478.149 351.71C476.316 350.799 477.453 347.62 479.46 347.225C481.468 346.83 483.382 348.133 484.981 349.411C500.787 362.055 512.339 378.761 523.927 395.519C530.998 405.745 538.082 415.989 546.154 425.342C546.93 426.241 547.718 427.135 548.506 428.031C552.898 433.018 557.323 438.044 559.959 444.11C556.496 444.729 553.496 447.451 552.542 450.84C546.772 445.402 543.286 438.152 539.819 430.943C538.93 429.094 538.042 427.248 537.118 425.436C533.625 418.591 529.492 412.073 524.792 405.996ZM541.189 412.422C540.827 412.776 540.377 413.084 539.871 413.104C539.007 413.139 538.353 412.366 537.844 411.667L514.719 379.938C513.83 378.718 514.45 376.819 515.746 376.045C517.041 375.27 518.736 375.453 520.081 376.139C521.425 376.825 522.491 377.944 523.511 379.058C529.725 385.844 535.291 393.225 540.109 401.067C541.188 402.823 542.247 404.646 542.642 406.669C543.038 408.692 542.66 410.979 541.189 412.422ZM544.575 409.313C544.99 407.683 544.287 405.996 543.559 404.479C538.325 393.572 530.979 383.684 522.048 375.529C520.603 374.209 518.721 372.844 516.863 373.455C516.177 373.681 515.619 374.147 515.058 374.615C514.732 374.888 514.404 375.161 514.05 375.388C513.087 376.006 511.558 376.132 511.011 375.127C510.588 374.35 511.03 373.376 511.62 372.716C513.652 370.443 517.23 370.131 520.09 371.187C522.95 372.243 525.247 374.4 527.405 376.555C535.179 384.318 542.428 393.062 545.825 403.514C547.341 408.18 547.821 413.906 544.413 417.433C544.13 417.726 543.814 418.004 543.429 418.139C542.212 418.565 540.941 417.266 540.911 415.975C540.882 414.685 541.678 413.532 542.505 412.542C542.593 412.436 542.682 412.33 542.772 412.224C543.522 411.338 544.29 410.43 544.575 409.313ZM494.391 366.135C497.538 370.716 500.274 375.581 502.554 380.65C502.868 381.347 503.156 382.216 502.69 382.821C502.352 383.26 501.65 383.358 501.204 383.028C494.644 375.053 488.732 366.543 483.546 357.611C484.011 357.779 484.693 357.531 484.65 357.038C488.823 358.74 491.837 362.418 494.391 366.135ZM517.382 404.805C516.804 403.967 516.314 402.629 517.187 402.107C521.032 403.847 523.663 407.438 526.06 410.915C529.555 415.984 532.933 421.134 536.19 426.36C536.97 427.612 537.643 429.488 536.445 430.348C534.403 429.423 533.029 427.491 531.756 425.644L517.382 404.805ZM555.599 452.324C555.292 452.191 555.077 451.903 554.933 451.601C554.061 449.775 555.965 447.334 557.946 447.739C558.031 449.517 557.536 451.318 556.554 452.801C556.454 452.566 556.195 452.498 555.933 452.429C555.818 452.399 555.702 452.369 555.599 452.324ZM560.082 456.605C559.477 457.263 558.301 457.262 557.697 456.602C557.059 454.929 557.83 452.841 559.402 451.986L560.082 456.605Z" fill="#00160A"/>
</svg>
