<svg width="750" height="750" viewBox="0 0 750 750" fill="none" xmlns="http://www.w3.org/2000/svg">
<rect width="750" height="750" fill="none"/>
<path fill-rule="evenodd" clip-rule="evenodd" d="M419.387 662.305C451.719 662.556 484.041 661.09 516.218 657.913L516.3 658.912C509.678 659.541 503.053 660.126 496.431 660.813C475.987 662.954 455.459 663.425 434.936 663.956C419.792 664.283 404.664 662.783 389.879 659.487C372.218 655.649 354.2 654.394 336.273 652.442C301.844 648.695 267.695 643.279 234.278 633.94C231.647 633.204 228.604 632.773 226.481 631.541C221.215 628.484 215.139 627.198 210.221 623.32C207.604 621.258 203.842 620.892 201.13 618.371C193.771 611.542 184.645 607.462 176.034 602.534C162.754 594.934 149.231 587.172 139.589 575.081C122.276 553.371 106.955 530.204 98.3462 503.503C89.4369 475.871 88.3358 447.96 96.6702 419.681C100.257 407.504 102.995 395.179 109.826 384.268C113.468 378.695 117.476 373.372 121.825 368.333C126.914 362.198 131.091 355.385 137.191 349.987C145.632 342.516 154.086 335.158 163.227 328.506C172.828 321.525 176.233 310.893 178.416 299.622C181.114 285.696 182.273 271.496 186.257 257.792C197.399 219.472 219.455 189.367 252.294 166.587C268.87 155.087 286.435 145.365 303.612 134.952C319.738 125.175 336.654 116.654 352.683 106.778C388.902 84.4698 427.834 84.1981 467.764 90.6432C485.49 93.5053 502.288 99.7668 518.91 106.54C537.065 113.936 555.516 120.562 572.132 131.308C602.011 150.637 625.493 175.428 639.435 208.655C646.15 224.655 652.844 240.667 656.119 257.78C659.518 274.519 659.913 291.729 657.285 308.606C653.905 329.245 647.748 349.263 644.213 369.854C643.56 373.794 643.255 377.784 643.303 381.777C643.357 392.326 641.947 402.887 643.019 413.409C644.317 426.139 646.33 438.797 647.597 451.527C649.409 470.984 649.172 490.578 646.891 509.986C644.844 528.269 641.274 546.349 636.217 564.037C633.291 574.62 629.084 584.806 623.69 594.368C621.124 598.842 619.992 604.915 614.122 607.079C604.206 623.595 587.14 630.989 571.639 640.358C564.844 644.464 557.312 647.035 550.182 650.4C544.374 653.139 538.324 652.979 532.45 654.184C516.426 657.484 500.057 658.364 483.763 659.637C462.365 661.314 440.906 661.838 419.387 662.305Z" />
<path fill-rule="evenodd" clip-rule="evenodd" d="M374.597 0.674782C374.127 0.80558 373.383 0.716613 373.458 0.234506C373.739 0.0902908 374.053 -0.0580997 374.359 0.0229957C374.664 0.104091 374.863 0.54591 374.617 0.74461L374.597 0.674782Z" fill="#00160A"/>
<path fill-rule="evenodd" clip-rule="evenodd" d="M376.99 274.942L378.156 275.429C384.476 278.033 389.257 279.495 392.5 279.813C395.939 280.15 400.962 279.527 407.567 277.942L407.44 279.582C406.359 293.934 406.402 304.768 407.567 312.083C408.776 319.674 411.641 326.276 416.16 331.888C411.082 337.568 403.434 343.296 412.869 369.826C419.273 387.834 408.396 451.581 407.44 505.15C406.988 530.501 412.282 553.798 416.16 568.473C425.426 603.531 440.434 633.464 457 647.111C465.273 653.926 479.407 660.633 475.114 662.258C443.423 674.258 321.501 660.133 321 653.942C320.54 648.257 353.356 648.992 358 623.2C366.983 573.309 351.34 483.572 351.783 472.548C353.091 439.989 362.823 400.491 375 370.942C375.453 369.842 378.767 369.644 383.222 369.826L383.531 368.575C386.38 356.825 386.869 348.779 385 344.437C382.835 339.407 375.455 334.591 362.862 329.987C367.37 327.267 370.715 321.653 372.898 313.147L373.125 312.236C375.176 303.742 376.465 291.311 376.99 274.942Z" fill="white"/>
<path fill-rule="evenodd" clip-rule="evenodd" d="M381.457 453.872C382.797 437.482 382.72 431.176 385 414.89C385.661 410.169 384.674 371.345 376.474 377.551C373.402 379.875 374.626 385.059 373.158 388.621C360.982 418.169 353.092 439.989 351.783 472.549C351.111 489.272 349.987 506.074 351.337 522.756C353.73 552.321 377.331 504.308 381.457 453.872Z" fill="white"/>
<path fill-rule="evenodd" clip-rule="evenodd" d="M402.765 521.502C399.509 482.47 407.447 443.504 411.578 404.556C412.906 392.036 413.82 379.198 410.678 367.008C408.999 360.493 406.166 354.16 406.031 347.432C405.897 340.704 409.572 333.176 416.16 331.888C403.277 316.363 400.216 293.304 408.601 274.942C409.168 285.549 409.734 296.155 410.301 306.761C410.603 312.407 411.047 318.449 414.535 322.892C418.022 327.336 425.744 328.802 429.092 324.252C432.64 319.431 440.356 319.852 445.239 323.307C450.122 326.762 453.021 332.288 456.295 337.3C462.006 346.042 469.307 353.696 477.52 360.131C508.165 384.143 525.899 422.66 528.367 461.571C529.786 483.948 505.833 535.222 505.718 569.743C505.633 595.251 527.706 608.114 535.266 611.541C540.904 614.097 547.036 615.529 552.459 618.518C557.881 621.507 562.734 626.642 562.989 632.84C563.248 639.109 558.836 644.562 554.186 648.763C535.837 665.336 509.399 672.442 485.241 667.294C476.256 665.379 467.537 661.827 460.225 656.256C450.39 648.764 443.556 638.046 437.493 627.258C419.181 594.671 405.873 558.773 402.765 521.502Z" fill="white"/>
<path fill-rule="evenodd" clip-rule="evenodd" d="M348.074 169.452C351.676 151.314 359.555 134.337 367.367 117.56C371.212 109.303 379.443 103.221 388.504 101.943C385.678 103.946 382.637 106.265 381.936 109.644C381.235 113.024 384.726 117.098 387.821 115.535C401.041 108.861 418.598 112.173 428.44 123.198C431.764 126.922 434.21 131.322 436.628 135.682C444.747 150.323 453.13 166.182 451.292 182.801C450.745 187.748 449.711 193.799 453.708 196.794C455.64 198.242 455.049 201.225 454.222 203.486C445.778 226.574 432.72 247.983 416.033 266.101C410.539 272.065 403.732 278.065 395.599 277.941C390.426 277.861 385.672 275.275 381.16 272.757C372.112 267.707 362.961 262.582 355.439 255.475C347.918 248.368 342.077 238.953 341.396 228.658C340.883 220.891 343.255 212.762 340.491 205.48C339.113 201.852 336.54 198.731 335.421 195.016C334.303 191.3 335.374 186.374 339.082 185.171C345.15 183.204 346.838 175.677 348.074 169.452Z" fill="white"/>
<circle cx="425" cy="228" r="7" fill="#FFB61D"/>
<path fill-rule="evenodd" clip-rule="evenodd" d="M291.98 660.339C294.163 658.348 296.224 656.467 295.282 653.943C289.406 654.445 284.319 659.641 284.014 665.452C283.71 671.263 288.228 676.948 294.02 678.045C338.229 686.415 383.723 688.148 428.454 683.167C439.23 681.967 451.368 679.51 457 670.367C455.288 668.085 451.787 669.641 449.289 671.217L448.4 671.789C439.592 677.336 428.847 678.877 418.361 679.73L416.399 679.883C377.095 682.822 337.427 680.985 298.575 674.427C293.407 673.555 286.749 670.477 288.041 665.465C288.556 663.463 290.304 661.868 291.98 660.339ZM410.352 307.68L408.601 274.943C400.216 293.304 403.277 316.364 416.16 331.888C409.572 333.177 405.897 340.704 406.031 347.432C406.125 352.139 407.541 356.653 408.958 361.172C409.566 363.111 410.174 365.051 410.678 367.008C413.82 379.198 412.906 392.036 411.578 404.556L411.399 406.225C410.385 415.544 409.166 424.863 407.946 434.185C404.142 463.267 400.335 492.366 402.765 521.502C405.873 558.773 419.181 594.671 437.493 627.258C443.556 638.046 450.39 648.764 460.225 656.256C467.537 661.827 476.256 665.379 485.241 667.294C509.399 672.442 535.837 665.336 554.186 648.763C558.836 644.562 563.248 639.109 562.989 632.84C562.734 626.642 557.881 621.507 552.459 618.518C549.303 616.779 545.907 615.566 542.507 614.353C540.066 613.482 537.623 612.61 535.266 611.541C517.475 603.477 505.944 583.332 507.976 563.866C497.945 574.361 503.424 592.7 514.254 602.364C521.237 608.595 529.741 612.566 538.269 616.547C542.968 618.741 547.674 620.939 552.137 623.519C554.719 625.012 557.459 626.976 557.96 629.922C558.387 632.43 557.033 634.878 555.565 636.954C545.129 651.705 527.077 659.257 509.286 662.258C497.621 664.225 485.151 664.446 474.491 659.307C465.258 654.856 458.295 646.845 452.225 638.537L451.438 637.452C421.047 595.236 405.089 542.778 406.809 490.747C407.367 473.861 409.721 457.05 412.072 440.259C415.433 416.26 418.788 392.302 416.884 368.228L449.074 344.571C451.398 342.921 455.057 341.587 456.465 344.018C461.077 351.981 468.121 358.023 475.156 364.059C477.596 366.152 480.035 368.244 482.372 370.416C508.435 394.64 522.362 430.398 523.574 466.006C524.786 501.615 514.027 536.971 496.735 568.099C492.278 576.123 480.928 576.03 471.839 574.87L471.6 574.839C470.878 574.742 470.143 574.602 469.571 574.162C468.329 573.207 468.405 571.384 468.687 569.799L468.761 569.408C474.34 541.586 479.687 513.362 478.056 485.031C476.425 456.7 467.091 427.831 447.008 407.829C453.48 420.803 459.132 434.188 463.918 447.877C467.654 458.561 470.875 469.493 472.232 480.731C474.53 499.776 471.419 518.764 468.3 537.805C466.413 549.32 464.524 560.854 463.825 572.432L463.811 572.683C463.721 574.364 463.763 576.19 464.873 577.433C465.844 578.52 467.378 578.86 468.807 579.141L469.168 579.212C479.807 581.271 493.153 582.079 498.747 572.843C518.933 539.515 530.835 500.483 528.367 461.571C525.899 422.66 508.165 384.143 477.52 360.131L476.753 359.524C468.852 353.217 461.828 345.769 456.295 337.3C455.722 336.422 455.16 335.529 454.597 334.634C451.945 330.416 449.267 326.157 445.239 323.307C440.356 319.852 432.64 319.431 429.092 324.252L428.93 324.464C425.5 328.755 417.967 327.266 414.535 322.893C411.235 318.689 410.66 313.055 410.352 307.68ZM363.541 330.684C376.147 315.056 380.606 293.239 375.137 273.943L370.227 305.537C369.31 311.313 368.127 317.285 364.365 321.73C360.382 326.436 352.46 328.401 348.028 324.112L347.812 323.91C342.938 319.524 335.19 323.281 329.8 327.378L329.324 327.745C312.263 341.116 295.506 355.209 282.292 372.367C267.573 391.482 257.712 413.791 248.792 436.206L247.147 440.366C241.53 454.675 236.292 469.429 236.01 484.766C235.717 500.716 241.733 517.646 254.99 526.589C262.001 531.318 261.639 541.539 260.502 549.898L256.03 582.775C254.326 595.434 252.902 608.662 257.622 620.493C263.72 635.777 279.238 645.734 295.301 649.518C310.723 653.151 326.803 651.986 342.612 650.609L368.004 648.379C369.827 648.213 371.723 647.962 373.162 646.851C374.586 645.751 375.312 643.994 375.888 642.292C382.258 623.453 377.289 603.272 371.61 583.881L368.41 573.068C362.561 553.047 357.875 532.549 357.112 511.718C356.028 482.121 362.868 452.9 370.017 424.115L387.656 353.305C389.143 347.337 385.619 341.027 380.655 337.375C376.022 333.967 370.346 332.382 364.741 330.982L363.541 330.684ZM321.35 340.703C324.503 338.105 329.145 335.573 332.34 338.119C345.344 348.475 360.733 355.838 376.974 359.474C379.277 359.99 379.512 363.051 379.128 365.444L379.059 365.836C375.968 381.77 371.687 397.563 367.411 413.339C358.719 445.405 350.047 477.4 351.43 510.356C352.454 534.736 358.982 558.465 365.912 581.919L368.681 591.25C372.777 605.127 376.564 620.041 371.702 633.61C370.539 636.858 368.753 640.09 365.774 641.846C363.443 643.22 360.656 643.534 357.964 643.819L342.461 645.455C327.282 647.046 311.805 648.427 296.982 644.909C281.553 641.247 266.697 631.195 261.728 616.186C258.122 605.299 260.083 593.568 261.989 582.168C262.113 581.427 262.236 580.688 262.358 579.951L262.574 578.634C264.771 565.074 266.01 551.36 266.279 537.628C283.779 557.34 298.804 579.233 310.893 602.633C311.764 604.318 314.321 603.539 315.938 602.541L317.181 601.772C323.819 597.656 330.485 593.297 335.127 587.057C340.06 580.426 342.244 571.081 338.299 563.823L314.257 519.585C305.603 503.64 296.814 486.422 298.826 468.436C300.11 456.946 305.709 446.478 311.463 436.393L326.242 410.618L324.795 412.18C310.337 427.862 296.322 445.59 294.122 466.684C292.478 482.454 297.731 498.095 304.329 512.562L304.971 513.959C312.082 529.281 320.586 543.907 329.231 558.432L332.477 563.875C336.01 569.793 334.448 577.665 330.495 583.313C326.796 588.596 321.371 592.359 315.954 595.912L314.834 596.644L304.318 578.702C295.108 563.01 285.582 547.228 272.298 534.8C269.929 532.583 267.438 530.469 264.947 528.355C258.704 523.057 252.464 517.762 248.165 510.87C236.934 492.866 241.978 469.548 249.277 449.528L249.727 448.307C264.896 407.47 287.667 368.444 321.35 340.703ZM490.666 588.478L461.747 582.221C460.099 581.878 458.2 581.659 457 582.766C457.268 584.516 459.168 585.461 460.941 586.082L461.347 586.22C470.733 589.312 480.418 592.445 490.324 591.875C491.499 591.807 493.013 591.348 493 590.218C492.988 589.194 491.708 588.703 490.666 588.478ZM410 374.983L409.53 370.943C403.764 371.916 397.882 372.23 392.042 371.874L391.867 371.863C390.151 371.758 388.343 371.647 386.835 372.44C385.274 373.259 384.357 375.479 385.535 376.773C386.31 377.625 387.608 377.733 388.772 377.782L389.314 377.805C396.376 378.096 403.777 378.225 410 374.983ZM334.824 332.697C333.836 329.749 337.411 326.963 340.514 327.277C343.149 327.543 345.379 329.139 347.56 330.7C347.639 330.756 347.717 330.812 347.796 330.868L348.718 331.519C355.99 336.553 364.677 338.969 373.324 341.036L376.286 341.735C380.812 342.794 381.644 348.668 381.425 353.385L381.396 353.905C381.369 354.336 381.331 354.796 381.063 355.136C380.522 355.821 379.449 355.62 378.616 355.35L377.753 355.071C363.369 350.392 348.918 344.968 337.159 335.498C336.198 334.724 335.216 333.865 334.824 332.697ZM387.955 102.334L388.504 101.943C379.443 103.221 371.212 109.303 367.367 117.56C359.555 134.337 351.676 151.314 348.074 169.452C346.838 175.677 345.15 183.204 339.082 185.171L338.854 185.251C335.33 186.579 334.326 191.377 335.421 195.016C336.033 197.048 337.081 198.903 338.129 200.76C338.998 202.298 339.867 203.837 340.491 205.48C342.259 210.138 341.926 215.143 341.59 220.178C341.401 223.014 341.211 225.86 341.396 228.658C342.077 238.953 347.918 248.368 355.439 255.475C362.233 261.894 370.356 266.697 378.532 271.287L381.16 272.757C385.672 275.275 390.426 277.861 395.599 277.941C403.732 278.065 410.539 272.065 416.033 266.101L416.837 265.221C433.14 247.292 445.914 226.201 454.222 203.486C455.049 201.225 455.64 198.242 453.708 196.794C450.338 194.268 450.544 189.571 451.02 185.195L451.292 182.801C453.081 166.62 445.181 151.158 437.269 136.84L436.225 134.955C433.936 130.835 431.58 126.715 428.44 123.198C418.598 112.173 401.041 108.861 387.821 115.535C384.726 117.098 381.235 113.024 381.936 109.644C382.592 106.483 385.296 104.25 387.955 102.334ZM347.495 203.457C348.608 196.786 349.727 190.084 349.482 183.412C353.48 194.646 366.955 201.569 378.483 198.314C379.706 197.968 380.903 197.525 382.098 197.083C384.029 196.368 385.958 195.655 387.99 195.355C391.279 194.87 395.134 195.82 396.709 198.733L396.869 199.021C401.453 207.002 413.347 207.612 421.863 203.862C426.261 201.925 430.219 199.179 434.177 196.433C437.973 193.798 441.771 191.163 445.96 189.24C446.655 191.693 446.008 194.231 445.417 196.553C444.9 198.582 444.425 200.445 444.925 201.943C445.24 201.51 445.538 201.087 445.822 200.684C447.648 198.096 448.92 196.293 450.599 197.561C452.539 199.028 452.4 203.064 450.599 205.139C449.96 205.874 449.207 206.527 448.457 207.176C447.092 208.358 445.738 209.532 445.099 211.183C436.888 232.409 424.068 251.86 407.77 267.817C405.773 269.773 403.645 271.727 401.007 272.671C395.392 274.681 389.339 271.645 384.156 268.703L381.668 267.28C366.696 258.651 351.123 248.22 346.764 231.756C344.316 222.508 345.9 213.014 347.495 203.457ZM394.585 204.614L395.159 204.221C394.572 201.194 389.718 201.423 387.368 203.503C383.333 207.073 382.81 213.821 386.416 217.796C390.023 221.771 397.222 222.052 400.998 218.226C401.079 216.549 398.88 215.654 397.151 215.82C396.607 215.872 396.061 215.979 395.516 216.085C394.327 216.316 393.144 216.547 392.005 216.213C389.438 215.462 388.578 212.104 389.621 209.716C390.573 207.535 392.574 205.999 394.585 204.614ZM343.119 187.777L344.003 187.775C345.288 187.791 347.053 187.964 346.764 189.24C345.835 193.351 345.411 198.144 345.186 201.429L344.996 204.439C344.447 204.651 342.876 202.494 341.971 201.251C341.786 200.997 341.629 200.782 341.514 200.632L341.396 200.485C341.157 199.965 340.834 199.349 340.48 198.674C338.244 194.412 334.763 187.777 343.119 187.777ZM357.545 151.844C358.254 149.484 359.059 146.977 360.984 145.428C362.91 143.878 366.324 143.94 367.405 146.156C369.937 151.35 375.736 154.102 381.325 155.664C397.832 160.277 416.258 157.602 430.749 148.489C433.57 146.715 437.51 147.902 439.793 150.322C441.886 152.54 442.895 155.52 443.653 158.486L443.854 159.294C445.548 166.268 446.602 173.397 446.999 180.561C447.062 181.699 447.086 182.924 446.454 183.875C446.073 184.449 445.492 184.857 444.925 185.252L444.042 185.863C441.531 187.592 438.934 189.254 436 190.055C432.721 190.951 428.882 190.576 426.413 188.251L426.123 187.984C419.867 182.357 409.749 181.478 402.628 185.996C401.712 186.577 400.827 187.242 399.942 187.907C397.673 189.61 395.407 191.312 392.638 191.597C388.505 192.023 385.161 189.242 381.833 186.474C380.658 185.496 379.484 184.52 378.278 183.687C371.61 179.083 362.195 178.806 355.265 183.01C350.294 179.437 351.523 171.883 353.279 166.04L357.545 151.844ZM431.186 176.761L409.636 174.995C408.405 174.901 407.105 174.869 406.074 175.482C404.969 176.14 404.548 177.857 405.627 178.55C406.045 178.819 406.576 178.872 407.082 178.917L428.939 180.855C431.95 181.1 435.563 180.975 437 178.534C435.514 177.174 433.261 176.931 431.186 176.761ZM381.92 177.461C382.248 176.199 381.516 174.907 380.651 173.915C375.613 168.138 364.85 168.772 360.561 175.098C359.726 176.329 359.725 178.678 361.234 178.582C365.365 173.347 374.666 173.288 378.866 178.469C379.694 179.49 381.592 178.723 381.92 177.461ZM441 173.656C441.351 173.298 441.238 171.841 440.256 171.282C439.529 170.868 437.473 170.668 437.129 171.377C436.355 172.933 439.924 174.754 441 173.656ZM440.891 168.39C441.26 167.485 439.514 164.947 438.509 164.942C437.625 164.939 436.525 167.524 437.113 168.375C437.716 169.247 440.561 169.201 440.891 168.39ZM434.78 166.926C435.986 166.747 436.948 164.096 436 163.397C435.058 162.703 432.319 163.431 432.019 164.299C431.709 165.195 433.486 167.118 434.78 166.926ZM361.488 163.804C362.739 165.545 365.895 165.228 366.776 163.274C367.656 161.319 365.804 158.741 363.673 158.955C361.542 159.169 360.238 162.063 361.488 163.804ZM436.035 159.337C437.417 159.926 439.483 159.781 439.603 158.346C439.491 156.426 437.379 156.124 436 156.359C434.897 156.547 434.917 158.861 436.035 159.337ZM432.654 159.29C433.653 158.735 433.391 155.71 432.276 155.329C431.069 154.915 427.821 155.733 428.009 157.7C428.197 159.668 431.519 159.921 432.654 159.29ZM365.576 158.216C366.78 159.534 369.363 158.965 369.902 157.263C370.441 155.56 368.658 153.607 366.914 153.991C365.17 154.375 364.372 156.897 365.576 158.216ZM361.993 154.29C362.956 153.474 363.093 152.009 362.532 151.241C361.399 149.691 360.451 149.698 359.677 150.461C358.713 151.412 358.668 153.014 359.055 154.67C359.2 155.29 361.013 155.121 361.993 154.29ZM416.429 230.726C413.425 234.664 408.938 237.486 404.04 238.518C403.91 238.545 403.78 238.571 403.65 238.598C402.638 238.803 401.599 239.013 400.818 239.662C399.937 240.395 399.641 241.935 400.57 242.609C401.088 242.985 401.792 242.969 402.434 242.911C410.786 242.161 418.538 236.744 422 229.241C421.759 228.054 420.102 227.646 418.988 228.162C418.009 228.615 417.346 229.502 416.698 230.367C416.608 230.487 416.519 230.607 416.429 230.726Z" fill="#00160A"/>
<path fill-rule="evenodd" clip-rule="evenodd" d="M440.057 456.315C442.234 454.936 444.809 457.647 445.423 460.173C446.038 462.7 446.121 465.74 448.231 467.222C450.389 468.739 453.289 467.669 455.868 467.168C458.447 466.668 462.009 467.642 462 470.304C461.998 470.962 461.754 471.592 461.502 472.198C459.269 477.569 456.103 482.538 452.192 486.81C453.018 490.255 454.283 493.592 455.945 496.712C457.057 498.799 454.565 501.305 452.227 501.196C449.89 501.086 447.946 499.446 446.051 498.054C444.157 496.662 441.789 495.399 439.57 496.15C437.655 496.799 436.515 498.721 435.262 500.325C434.008 501.93 432.048 503.44 430.134 502.786C427.82 501.996 427.497 498.824 427.849 496.374C428.31 493.163 429.206 490.017 430.501 487.05C431.417 484.954 429.915 482.522 428.046 481.231C426.176 479.941 423.914 479.289 422.145 477.861C420.376 476.432 419.244 473.689 420.598 471.852C421.255 470.96 422.334 470.508 423.378 470.161C426.859 469.003 430.569 468.56 434.219 468.867C435.615 465.496 437.01 462.124 438.406 458.753C438.789 457.828 439.218 456.846 440.057 456.315V456.315Z" fill="#FFB61D"/>
<path fill-rule="evenodd" clip-rule="evenodd" d="M337.159 335.498C336.199 334.724 335.216 333.864 334.824 332.697C333.837 329.749 337.411 326.963 340.514 327.277C343.15 327.543 345.379 329.139 347.56 330.7C347.947 330.977 348.332 331.252 348.718 331.519C356.821 337.129 366.681 339.487 376.286 341.735C380.98 342.833 381.701 349.109 381.396 353.904C381.369 354.336 381.331 354.796 381.063 355.136C380.522 355.821 379.449 355.62 378.616 355.35C363.948 350.607 349.153 345.157 337.159 335.498ZM335.127 587.056C340.06 580.426 342.244 571.081 338.299 563.823L314.577 520.175C305.822 504.065 296.79 486.644 298.826 468.436C300.194 456.196 306.457 445.117 312.589 434.424L326.242 410.618C311.285 426.684 296.396 444.887 294.122 466.684C292.425 482.963 298.078 499.104 304.972 513.959C312.971 531.196 322.734 547.553 332.478 563.875C336.01 569.793 334.448 577.665 330.495 583.313C326.541 588.961 320.615 592.871 314.834 596.644L305.422 580.584C295.864 564.278 286.113 547.725 272.298 534.8C269.929 532.583 267.438 530.469 264.947 528.355C258.704 523.057 252.464 517.762 248.166 510.87C236.705 492.498 242.191 468.594 249.727 448.307C264.896 407.47 287.667 368.444 321.35 340.703C324.503 338.105 329.145 335.573 332.341 338.119C345.344 348.475 360.733 355.838 376.974 359.474C379.405 360.019 379.532 363.399 379.059 365.836C375.968 381.77 371.688 397.563 367.411 413.339C358.719 445.405 350.047 477.4 351.43 510.356C352.549 536.999 360.241 562.864 367.848 588.443C368.005 588.971 368.162 589.5 368.319 590.028C372.547 604.248 376.707 619.642 371.703 633.61C370.539 636.858 368.753 640.09 365.774 641.846C363.443 643.22 360.656 643.534 357.964 643.819L344.318 645.26C328.546 646.926 312.41 648.571 296.982 644.909C281.553 641.247 266.697 631.195 261.728 616.186C258.122 605.299 260.083 593.568 261.989 582.168C262.187 580.986 262.384 579.807 262.574 578.634C264.771 565.074 266.01 551.36 266.279 537.628C283.779 557.34 298.804 579.232 310.893 602.633C311.764 604.318 314.321 603.539 315.938 602.541C322.979 598.193 330.195 593.687 335.127 587.056Z" fill="white"/>
<path fill-rule="evenodd" clip-rule="evenodd" d="M449.411 338.435C449.525 337.31 448.876 336.266 448.253 335.324C446.425 332.558 444.509 329.705 441.692 327.963C438.875 326.221 434.884 325.918 432.453 328.17C427.776 332.502 422.335 336.003 416.459 338.463C412.595 340.08 410.648 344.653 410.808 348.848C410.968 353.043 412.796 356.969 414.591 360.762C414.903 361.422 415.318 362.164 416.036 362.288C416.637 362.392 417.204 362.012 417.697 361.652C428.268 353.913 438.84 346.174 449.411 338.435Z" fill="white"/>
<path fill-rule="evenodd" clip-rule="evenodd" d="M199.226 187.233C199.664 186.686 199.857 185.983 199.759 185.29C199.665 184.589 199.291 183.957 198.722 183.537C198.722 183.537 191.543 178.556 191.118 178.741C190.694 178.927 197.195 185.615 197.195 185.615C184.994 200.745 163.026 203.585 147.372 192.056C131.717 180.527 127.935 158.723 138.794 142.605L186.34 178.534C186.916 178.959 187.728 178.836 188.153 178.26C188.578 177.684 140.342 140.525 140.342 140.525C139.779 140.1 139.067 139.922 138.37 140.032C137.673 140.143 137.051 140.532 136.647 141.111C124.721 158.368 128.721 181.973 145.667 194.348C162.502 206.861 186.25 203.706 199.226 187.233ZM149.595 191.36C162.948 201.256 181.544 199.966 193.393 188.321C193.907 187.819 193.915 186.997 193.412 186.484C192.908 185.972 192.083 185.963 191.569 186.465C180.61 197.171 163.477 198.366 151.13 189.286C138.782 180.206 134.868 163.534 141.891 149.934C142.124 149.52 142.111 149.012 141.858 148.609C141.605 148.207 141.152 147.974 140.676 148.002C140.201 148.031 139.779 148.316 139.576 148.746C131.913 163.47 136.168 181.565 149.595 191.36ZM151.798 182.415C151.715 181.289 151.997 180.168 152.589 179.264C153.304 178.251 154.188 177.41 155.188 176.79C157.08 175.603 158.206 175.971 158.816 176.488C160.806 178.162 159.258 182.682 158.334 184.117C157.601 185.281 156.429 185.98 155.175 186C154.453 186.005 153.748 185.744 153.165 185.255C152.372 184.579 151.874 183.544 151.798 182.415ZM157.377 178.718C156.25 179.089 155.248 179.844 154.504 180.881C154.26 181.249 154.143 181.707 154.173 182.167C154.193 182.519 154.342 182.843 154.584 183.061C155.229 183.474 156.044 183.226 156.425 182.5C157.069 181.379 157.401 180.06 157.377 178.718ZM165.301 189.977C166.401 190.094 167.501 189.752 168.31 189.041C169.125 188.341 169.639 187.384 169.754 186.351C169.947 184.722 169.239 180.307 166.493 180.015C165.63 179.922 164.374 180.228 163.125 182.166C162.458 183.188 162.014 184.325 161.816 185.51C161.684 186.542 161.959 187.583 162.59 188.436C163.214 189.295 164.203 189.858 165.301 189.977ZM166.189 182.554C166.868 183.611 167.189 184.837 167.109 186.07C167.068 186.493 166.861 186.888 166.53 187.177C166.284 187.406 165.943 187.52 165.598 187.487C165.258 187.439 164.955 187.257 164.765 186.986C164.511 186.634 164.404 186.207 164.463 185.786C164.678 184.569 165.28 183.442 166.189 182.554ZM175.487 178.197C177.919 177.121 180.725 180.728 181.389 182.283V182.279C182.339 184.293 181.517 186.712 179.55 187.694C179.1 187.896 178.613 188 178.122 188C177.571 187.997 177.029 187.872 176.53 187.633C175.579 187.177 174.824 186.38 174.41 185.393C173.748 183.84 173.056 179.273 175.487 178.197ZM177.59 185.285C177.884 185.432 178.225 185.446 178.529 185.323C179.207 184.911 179.441 184.023 179.057 183.319C178.498 182.177 177.613 181.235 176.519 180.618C176.217 181.857 176.291 183.162 176.732 184.357C176.897 184.763 177.202 185.094 177.59 185.285ZM146.262 156.032C145.23 155.901 144.189 156.176 143.336 156.806C142.476 157.43 141.914 158.419 141.793 159.517C141.644 161.811 143.27 163.802 145.43 163.969C145.62 163.991 145.811 164.001 146.003 164C147.911 164 151.506 163.177 151.771 160.706C152.049 157.958 147.892 156.226 146.262 156.032ZM145.704 161.324C144.924 161.312 144.296 160.642 144.286 159.814C144.333 159.473 144.516 159.17 144.788 158.981C145.076 158.77 145.418 158.659 145.768 158.664C145.841 158.664 145.914 158.664 145.989 158.677C147.209 158.892 148.338 159.496 149.228 160.408C148.167 161.086 146.937 161.405 145.701 161.324H145.704ZM144.092 173.781C143.661 172.811 143.683 171.704 144.152 170.751C144.61 169.797 145.407 169.041 146.394 168.625C147.944 167.958 152.51 167.279 153.587 169.705C154.663 172.13 151.059 174.96 149.504 175.626C148.937 175.871 148.324 175.999 147.704 176C147.259 176 146.816 175.932 146.392 175.798C145.363 175.488 144.523 174.751 144.092 173.781ZM149.849 170.554C149.024 170.54 148.204 170.677 147.431 170.959H147.435C147.028 171.123 146.696 171.429 146.504 171.818C146.345 172.11 146.331 172.458 146.465 172.761C146.6 173.064 146.868 173.29 147.194 173.374C147.615 173.499 148.067 173.469 148.467 173.29C149.609 172.73 150.551 171.842 151.169 170.744C150.746 170.595 150.297 170.53 149.849 170.554Z" fill="#FFB61D"/>
<path fill-rule="evenodd" clip-rule="evenodd" d="M615.774 565.233C615.336 564.686 615.143 563.983 615.241 563.29C615.335 562.589 615.709 561.957 616.278 561.537C616.278 561.537 623.457 556.556 623.882 556.741C624.306 556.927 617.805 563.615 617.805 563.615C630.006 578.745 651.974 581.585 667.628 570.056C683.283 558.527 687.065 536.723 676.206 520.605L628.66 556.534C628.084 556.959 627.272 556.836 626.847 556.26C626.422 555.684 674.658 518.525 674.658 518.525C675.221 518.1 675.933 517.922 676.63 518.032C677.327 518.143 677.949 518.532 678.353 519.111C690.279 536.368 686.279 559.973 669.333 572.348C652.498 584.861 628.75 581.706 615.774 565.233ZM665.405 569.36C652.052 579.256 633.456 577.966 621.607 566.321C621.093 565.819 621.085 564.997 621.588 564.484C622.092 563.972 622.917 563.963 623.431 564.465C634.39 575.171 651.523 576.366 663.87 567.286C676.218 558.206 680.132 541.534 673.109 527.934C672.876 527.52 672.889 527.012 673.142 526.609C673.395 526.207 673.848 525.974 674.324 526.002C674.799 526.031 675.221 526.316 675.424 526.746C683.087 541.47 678.832 559.565 665.405 569.36ZM663.202 560.415C663.285 559.289 663.003 558.168 662.411 557.264C661.696 556.251 660.812 555.41 659.812 554.79C657.92 553.603 656.794 553.971 656.184 554.488C654.194 556.162 655.742 560.682 656.666 562.117C657.399 563.281 658.571 563.98 659.825 564C660.547 564.005 661.252 563.744 661.835 563.255C662.628 562.579 663.126 561.544 663.202 560.415ZM657.623 556.718C658.75 557.089 659.752 557.844 660.496 558.881C660.74 559.249 660.857 559.707 660.827 560.167C660.807 560.519 660.658 560.843 660.416 561.061C659.771 561.474 658.956 561.226 658.575 560.5C657.931 559.379 657.599 558.06 657.623 556.718ZM649.699 567.977C648.599 568.094 647.499 567.752 646.69 567.041C645.875 566.341 645.361 565.384 645.246 564.351C645.053 562.722 645.761 558.307 648.507 558.015C649.37 557.922 650.626 558.228 651.875 560.166C652.542 561.188 652.986 562.325 653.184 563.51C653.316 564.542 653.041 565.583 652.41 566.436C651.786 567.295 650.797 567.858 649.699 567.977ZM648.811 560.554C648.132 561.611 647.811 562.837 647.891 564.07C647.932 564.493 648.139 564.888 648.47 565.177C648.716 565.406 649.057 565.52 649.402 565.487C649.742 565.439 650.045 565.257 650.235 564.986C650.489 564.634 650.596 564.207 650.537 563.786C650.322 562.569 649.72 561.442 648.811 560.554ZM639.513 556.197C637.081 555.121 634.275 558.728 633.611 560.283V560.279C632.661 562.293 633.483 564.712 635.45 565.694C635.9 565.896 636.387 566 636.878 566C637.429 565.997 637.971 565.872 638.47 565.633C639.421 565.177 640.176 564.38 640.59 563.393C641.252 561.84 641.944 557.273 639.513 556.197ZM637.41 563.285C637.116 563.432 636.775 563.446 636.471 563.323C635.793 562.911 635.559 562.023 635.943 561.319C636.502 560.177 637.387 559.235 638.481 558.618C638.783 559.857 638.709 561.162 638.268 562.357C638.103 562.763 637.798 563.094 637.41 563.285ZM668.738 534.032C669.77 533.901 670.811 534.176 671.664 534.806C672.524 535.43 673.086 536.419 673.207 537.517C673.356 539.811 671.73 541.802 669.57 541.969C669.38 541.991 669.189 542.001 668.997 542C667.089 542 663.494 541.177 663.229 538.706C662.951 535.958 667.108 534.226 668.738 534.032ZM669.296 539.324C670.076 539.312 670.704 538.642 670.714 537.814C670.667 537.473 670.484 537.17 670.212 536.981C669.924 536.77 669.582 536.659 669.232 536.664C669.159 536.664 669.086 536.664 669.011 536.677C667.791 536.892 666.662 537.496 665.772 538.408C666.833 539.086 668.063 539.405 669.299 539.324H669.296ZM670.908 551.781C671.339 550.811 671.317 549.704 670.848 548.751C670.39 547.797 669.593 547.041 668.606 546.625C667.056 545.958 662.49 545.279 661.413 547.705C660.337 550.13 663.941 552.96 665.496 553.626C666.063 553.871 666.676 553.999 667.296 554C667.741 554 668.184 553.932 668.608 553.798C669.637 553.488 670.477 552.751 670.908 551.781ZM665.151 548.554C665.976 548.54 666.796 548.677 667.569 548.959H667.565C667.972 549.123 668.304 549.429 668.496 549.818C668.655 550.11 668.669 550.458 668.535 550.761C668.4 551.064 668.132 551.29 667.806 551.374C667.385 551.499 666.933 551.469 666.533 551.29C665.391 550.73 664.449 549.842 663.831 548.744C664.254 548.595 664.703 548.53 665.151 548.554Z" fill="#FFB61D"/>
<circle cx="365" cy="233" r="7" fill="#FFB61D"/>
<path fill-rule="evenodd" clip-rule="evenodd" d="M347.762 583.199C348.651 585.417 345.733 595.713 338.119 603.092C330.504 610.472 320.619 612.223 319.809 610.201C318.999 608.179 330.077 604.204 337.069 597C344.061 589.796 346.873 580.982 347.762 583.199Z" fill="#00160A"/>
</svg>
