<svg width="750" height="750" viewBox="0 0 750 750" fill="none" xmlns="http://www.w3.org/2000/svg">
<rect width="750" height="750" fill="none"/>
<path fill-rule="evenodd" clip-rule="evenodd" d="M339.454 288.197C337.846 285.949 333.799 283.815 330.256 283.99C326.713 284.166 323.376 285.63 320.196 287.188C322.625 288.958 325.356 290.32 328.238 291.198C329.15 291.476 331.214 292.294 335.667 290.455" fill="#E7EAEE"/>
<path fill-rule="evenodd" clip-rule="evenodd" d="M91.3558 532.571C3.05176e-05 408.62 244.724 375.284 390.092 280.128C469.306 228.276 505.536 171.553 574 173.094C713.966 176.243 719.693 440.633 689.971 488.128C577.896 667.22 129.168 583.874 91.3558 532.571Z" />
<path fill-rule="evenodd" clip-rule="evenodd" d="M381 364.69C411.529 364.69 442.591 367.576 469.991 381.268C473.22 382.882 476.947 385.881 475.782 389.336C475.345 390.633 474.276 391.594 473.214 392.443C460.799 402.361 444.297 404.881 428.588 406.662C422.484 407.355 416.373 407.988 410.251 408.501C361.68 412.568 312.495 408.998 264.991 397.955C262.195 397.305 258.937 396.198 258.16 393.398C257.216 389.993 260.631 387.084 263.655 385.321C287.055 371.68 313.796 363.985 340.775 363.128C335.974 363.876 404.64 364.867 381 364.69Z" fill="white"/>
<path fill-rule="evenodd" clip-rule="evenodd" d="M556.156 267.777C549.855 280.462 544.588 293.904 543.136 308.013C543.074 308.621 543.025 309.27 543.307 309.811C543.878 310.905 545.385 310.96 546.61 310.879C574.982 309.01 604.306 314.593 628.377 329.838C636.604 335.049 644.162 341.329 652.694 346.014C653.071 346.221 653.499 346.431 653.911 346.31C654.326 346.189 654.576 345.775 654.785 345.395C659.97 335.968 664.563 326.211 668.528 316.201C669.933 312.653 671.272 309.019 671.621 305.214C672.497 295.637 666.196 285.864 657.154 282.777C633.979 274.865 610.805 266.954 587.63 259.042C583.394 257.596 579.101 256.138 574.64 255.815C570.179 255.492 565.456 256.426 562.016 259.306C559.368 261.522 557.696 264.676 556.156 267.777Z" fill="white"/>
<path d="M470.96 568.95C470.914 571.34 476.645 573.114 478.396 571.482C480.147 569.85 480.355 567.198 480.447 564.809C481.696 532.621 481.945 501.411 481.282 469.205L565.862 491.091L562.083 576.6C561.967 579.023 565.722 579.925 567.552 578.328C569.382 576.73 569.682 574.048 569.851 571.629C571.593 546.72 571.901 521.698 573.273 496.807C574 483.619 590.968 483.619 607.458 467.357C615.669 459.26 622.675 448.088 622.675 448.088C623.979 478.33 626.495 508.649 624.226 538.835C624.054 541.129 627.61 542.06 629.366 540.568C631.051 539.135 631.4 536.732 631.576 534.512L631.597 534.235C633.933 502.637 636.633 435.017 640 390.724C641.275 373.953 644.886 357.886 647 348.353C647.933 344.146 645.012 344.218 639.167 341.593C636.774 340.518 631.425 348.399 629 370.765L628.878 371.943C628.003 380.841 627.238 397.635 626.585 422.326C625.527 427.984 619.152 429.292 607.458 426.249L607 426.129C595.015 422.932 576.631 417.096 551.848 408.621L551.677 406.284C548.976 368.748 549.896 342.515 554.436 327.587L554.578 327.129C561.714 304.404 549.8 313.799 548.446 315.614C539.382 327.768 537.43 343.3 537.488 357.303L537.661 399.4C537.66 403.796 537.45 408.384 535.042 412.028C532.975 415.156 529.592 417.108 526.282 418.904L485.372 441.028C481.601 443.081 477.848 445.257 474.88 448.339C471.615 451.729 469.393 456.453 470.148 461.093C470.651 464.186 471.915 466.595 473.94 468.318L473.2 489.97C472.072 523.693 471.326 550.02 470.96 568.95Z" fill="white"/>
<path d="M271.04 570.95C271.086 573.34 267.355 574.114 265.604 572.482C263.853 570.85 263.645 568.198 263.553 565.809C262.304 533.621 261.055 501.41 261.718 469.205C233.471 477.659 205.225 486.112 176.978 494.565C178.291 521.91 179.604 549.255 180.917 576.6C181.033 579.023 177.278 579.925 175.448 578.327C173.618 576.73 173.318 574.048 173.149 571.629C171.407 546.72 170.266 521.77 169.727 496.807C169.66 493.697 167.198 491.231 164.907 489.122C150.046 475.444 135.185 461.766 120.325 448.088C119.021 478.33 119.505 508.649 121.774 538.834C121.946 541.129 118.39 542.06 116.634 540.568C114.879 539.076 114.573 536.53 114.403 534.235C110.748 484.8 113.227 435.065 109.538 385.632C108.652 373.75 107.368 361.719 103 350.629C110.821 348.812 202.182 330.012 194.442 318.128C204.873 327.5 205.57 343.3 205.512 357.303C205.455 371.043 205.398 384.784 205.341 398.524C205.322 403.18 205.389 408.141 207.958 412.028C210.108 415.281 213.681 417.262 217.115 419.119C230.242 426.218 243.37 433.316 256.498 440.415C260.64 442.655 264.855 444.949 268.12 448.339C271.385 451.729 273.607 456.453 272.852 461.093C272.098 465.733 267.688 469.846 263.017 469.221C267.966 470.274 267.488 469.158 269.06 468.317C269.72 502.528 270.38 536.739 271.04 570.95Z" fill="white"/>
<path d="M109.08 359.371C107.72 355.259 106.36 351.146 105 347.034C106.894 347.506 174.367 323.672 186.777 320.069C187.99 319.716 188.677 319.557 188.725 319.633C196.871 332.516 197.06 348.696 196.992 363.935C196.929 378.087 196.866 392.239 196.803 406.391C196.79 409.509 196.161 413.464 193.136 414.225C175.235 418.729 157.589 424.241 140.308 430.726C135.211 432.639 129.883 434.671 124.482 433.996C121.642 433.64 118.955 432.549 116.306 431.468C114.587 430.767 112.576 429.655 112.581 427.8C112.621 412.634 112.661 397.468 112.701 382.302C112.712 378.282 112.721 374.239 112.066 370.273C111.452 366.551 110.264 362.953 109.08 359.371Z" fill="white"/>
<path fill-rule="evenodd" clip-rule="evenodd" d="M374.597 0.674782C374.127 0.80558 373.383 0.716613 373.458 0.234506C373.739 0.0902908 374.053 -0.0580997 374.359 0.0229957C374.664 0.104091 374.863 0.54591 374.617 0.74461L374.597 0.674782Z" fill="#00160A"/>
<path fill-rule="evenodd" clip-rule="evenodd" d="M76.0057 317.083L85.1413 340.735C86.0203 343.011 86.9986 345.418 88.9911 346.836C92.3194 349.204 96.9194 347.874 100.724 346.376C108.463 343.329 116.055 339.925 123.646 336.522C131.893 332.825 140.14 329.127 148.577 325.887C164.779 319.664 181.968 315.111 199.315 315.895C202.085 316.02 204.362 313.408 204.853 310.692C205.344 307.975 204.513 305.213 203.69 302.577L197.487 282.701C195.374 275.929 193.154 268.96 188.569 263.534C183.984 258.108 176.378 254.565 169.625 256.817L87.8943 284.064C78.2726 287.272 71.7401 297.847 73.2053 307.843C73.6728 311.034 74.8434 314.074 76.0057 317.083ZM183.878 261.466C190.547 267.253 193.709 275.978 196.465 284.348C198.826 291.518 201.085 298.731 202.802 306.081C203.182 307.703 203.534 309.402 203.132 311.019C202.73 312.635 201.34 314.134 199.668 314.099C183.217 313.753 166.917 317.574 151.405 323.037C140.045 327.038 129.03 331.916 118.015 336.795L118.014 336.795L118.013 336.796L118.013 336.796L118.012 336.796L118.011 336.797L118.01 336.797L118.009 336.797L118.009 336.798L118.008 336.798L118.007 336.798L118.006 336.799L118.005 336.799L118.005 336.799L118.004 336.8L118.003 336.8L118.002 336.8L118.001 336.801L118.001 336.801L118 336.801L117.999 336.802C113.979 338.582 109.959 340.363 105.922 342.101C102.666 343.502 99.358 344.888 95.8543 345.436C93.0264 345.878 89.3741 345.226 88.6182 342.477C87.301 337.687 85.3406 333.116 83.3789 328.542L83.3788 328.542C82.088 325.532 80.7965 322.521 79.6874 319.445C76.8926 311.694 75.287 303.071 77.9475 295.274C78.7718 292.858 80.0391 290.52 82.0136 288.893C83.7638 287.452 85.9485 286.659 88.087 285.896C114.48 276.481 141.057 267.576 167.798 259.188C170.72 258.271 173.773 257.349 176.801 257.822C179.46 258.238 181.849 259.706 183.878 261.466ZM105 347.034L109.08 359.372C110.264 362.953 111.452 366.552 112.066 370.273C112.721 374.24 112.712 378.282 112.701 382.303L112.581 427.8C112.576 429.656 114.587 430.767 116.306 431.468C118.955 432.549 121.642 433.64 124.482 433.996C129.819 434.664 135.084 432.687 140.125 430.795L140.125 430.795L140.308 430.727C157.589 424.241 175.235 418.729 193.136 414.225C196.161 413.464 196.79 409.509 196.803 406.392L196.992 363.935C197.06 348.696 196.871 332.516 188.725 319.634C188.185 318.78 187.271 317.831 186.337 318.217C190.86 326.1 193.688 334.948 194.577 343.992C194.986 348.152 194.989 352.34 194.992 356.521L195.025 406.464C195.027 408.981 194.539 412.175 192.101 412.809C176.623 416.836 161.102 420.877 146.209 426.705C145.622 426.934 145.033 427.167 144.442 427.401C137.033 430.328 129.302 433.383 121.535 431.952C117.878 431.278 113.88 428.797 113.952 425.082L114.511 396.581C114.808 381.386 115.011 365.669 109.108 351.663C108.276 349.689 107.079 347.553 105 347.034ZM200 420.232C180.657 423.473 161.668 428.703 143.451 435.806C140.465 436.97 137.501 438.184 134.537 439.398L130.313 441.128C129.354 440.186 130.791 438.762 132.031 438.209C152.542 429.068 174.339 422.66 196.623 419.219C197.891 419.023 199.568 419.056 200 420.232ZM172.059 286C171.842 287.039 172.243 288.139 172.912 288.951C173.641 289.835 174.883 290.446 175.904 289.952C177.329 289.263 177.226 287.066 176.383 285.7C175.898 284.912 175.16 284.189 174.254 284.132C173.22 284.067 172.277 284.961 172.059 286ZM175.1 288.46C174.363 288.79 173.405 288.066 173.494 287.246C173.584 286.427 174.675 285.938 175.322 286.427C175.969 286.917 175.836 288.13 175.1 288.46ZM129.913 302.095C128.828 300.855 128.599 298.589 129.836 297.532C130.075 297.328 130.359 297.178 130.661 297.139C131.346 297.05 131.979 297.528 132.491 298.033C133.627 299.152 134.56 301.097 133.603 302.401C132.729 303.592 130.878 303.199 129.913 302.095ZM131.891 299.36C131.631 299.09 131.317 298.8 130.961 298.855C130.28 298.961 130.295 300.069 130.626 300.728C130.999 301.47 131.911 302.158 132.478 301.58C133.06 300.988 132.469 299.958 131.891 299.36ZM109.644 306.485C109.027 306.997 108.951 307.877 109.022 308.652C109.105 309.559 109.345 310.487 109.95 311.192C110.555 311.898 111.592 312.324 112.501 312.039C113.377 311.763 113.94 310.885 113.995 310.01C114.049 309.135 113.672 308.279 113.147 307.559C112.356 306.475 110.69 305.617 109.644 306.485ZM110.835 307.876C111.371 307.514 112.329 308.119 111.987 308.653L112.264 309.205C112.956 309.286 112.825 310.45 112.146 310.601C111.468 310.752 110.822 310.197 110.549 309.588C110.291 309.012 110.298 308.238 110.835 307.876ZM148.567 275.192C149.268 275.318 149.98 275.557 150.476 276.066C150.972 276.576 151.184 277.411 150.81 278.015C150.486 278.536 149.844 278.753 149.247 278.898C148.372 279.11 147.44 279.249 146.581 278.98C145.721 278.711 144.967 277.929 145.001 277.032C145.058 275.516 147.069 274.921 148.567 275.192ZM147.991 276.722C147.373 276.377 146.475 276.767 146.308 277.453C147.345 278.076 148.747 278.034 149.745 277.35C149.535 276.709 148.671 276.384 148.089 276.728L147.991 276.722ZM268.04 568.95L266.06 466.317C264.488 467.158 264.325 469.303 264.363 471.082L266.501 570.644C263.615 570.842 262.496 567.002 262.375 564.119C261.014 531.837 260.228 499.531 260.017 467.221C264.688 467.846 269.098 463.733 269.852 459.093C270.607 454.453 268.385 449.729 265.12 446.339C261.855 442.949 257.64 440.655 253.498 438.415L214.115 417.119C210.681 415.262 207.108 413.281 204.958 410.028C202.389 406.141 202.322 401.18 202.341 396.524L202.512 355.303C202.57 341.3 201.873 325.5 191.442 316.128C199.182 328.012 201.186 342.725 201.241 356.896C201.262 362.238 201.035 367.582 200.807 372.925L200.807 372.927L200.807 372.928C200.432 381.759 200.056 390.586 200.801 399.383C201.154 403.549 201.82 407.862 204.184 411.314C206.087 414.093 208.93 416.075 211.782 417.871C218.548 422.133 225.747 425.723 232.935 429.309C244.208 434.931 255.455 440.541 264.966 448.704C267.368 450.766 269.156 455.452 266.097 456.28C235.597 464.537 205.474 474.178 175.851 485.162C173.559 486.012 171.196 484.246 169.389 482.602L121.829 439.346C120.114 437.785 117.131 438.812 115.888 440.768C114.645 442.725 114.644 445.191 114.683 447.507L116.222 538.707C113.004 535.608 112.555 530.701 112.339 526.244C111.322 505.274 111.084 484.268 110.847 463.266C110.503 432.904 110.16 402.549 107.463 372.318C106.714 363.929 105.544 354.981 100 348.629C104.368 359.719 105.652 371.75 106.538 383.632C108.387 408.415 108.686 433.274 108.986 458.134V458.134C109.283 482.859 109.58 507.585 111.403 532.235C111.573 534.53 111.879 537.076 113.634 538.568C115.39 540.06 118.946 539.129 118.774 536.834C116.505 506.649 116.021 476.33 117.325 446.088L161.907 487.122C164.198 489.231 166.66 491.697 166.727 494.807C167.266 519.77 168.407 544.72 170.149 569.629C170.318 572.048 170.618 574.73 172.448 576.327C174.278 577.925 178.033 577.023 177.917 574.6L173.978 492.565L258.718 467.205C258.055 499.41 259.304 531.621 260.553 563.809C260.645 566.198 260.853 568.85 262.604 570.482C264.355 572.114 268.086 571.34 268.04 568.95ZM166.614 489.821L118.334 443.984C117.51 443.202 116.618 442.039 117.189 441.057C117.95 439.744 119.961 440.666 121.086 441.685L172.348 488.143C203.637 476.964 235.313 466.863 267.3 457.864C268.174 459.062 267.686 460.848 266.622 461.882C265.559 462.916 264.081 463.382 262.66 463.815L175.448 490.409C174.35 490.744 173.155 491.152 172.563 492.133C172.098 492.905 172.116 493.863 172.149 494.763C172.514 504.483 173.133 514.196 173.752 523.908C174.879 541.594 176.006 559.275 175.596 576.982C170.333 567.752 170.007 556.627 169.815 546.01L168.941 497.875C168.889 495.002 168.7 491.802 166.614 489.821ZM106.231 294.829C105.884 295.049 105.465 295.126 105.056 295.128C103.821 295.136 102.553 294.399 102.13 293.219C101.707 292.039 102.35 290.514 103.544 290.195C104.462 289.949 105.444 290.415 106.113 291.1C107.105 292.115 107.426 294.074 106.231 294.829ZM104.532 291.665C103.752 291.474 103.247 292.733 103.781 293.343C104.316 293.952 105.301 293.891 106.007 293.502L104.555 291.694L104.532 291.665ZM187.529 275.179L185.641 273.73C185.265 273.442 184.86 273.142 184.401 273.129C183.629 273.106 183.011 273.964 183 274.805C182.989 275.647 183.442 276.421 183.995 277.007C184.772 277.831 185.923 278.402 186.94 277.992C187.956 277.582 188.415 275.859 187.529 275.179ZM184.19 275.211C184.384 274.741 185.102 274.702 185.338 275.147L185.439 275.239C186.204 275.324 186.813 276.198 186.684 277.024C185.677 276.811 184.758 276.142 184.19 275.211ZM154.387 309.278C154.087 308.706 153.889 308.027 154.068 307.402C154.434 306.118 156.152 305.835 157.303 306.417C158.78 307.163 159.633 309.464 158.427 310.627C157.227 311.783 155.172 310.775 154.387 309.278ZM156.153 309.319L157.283 309.842C157.817 309.373 157.753 308.354 157.165 307.962C156.577 307.57 155.67 307.94 155.49 308.646L156.152 309.318L156.153 309.319ZM157.837 294.921C158.302 293.86 157.72 292.624 156.764 291.85C156.204 291.397 155.458 291.049 154.702 291.144C153.6 291.284 152.9 292.359 153.012 293.32C153.123 294.281 153.843 295.11 154.658 295.768C155.615 296.542 157.372 295.982 157.837 294.921ZM155.637 292.629C156.055 292.838 156.283 293.241 156.46 293.63L156.406 293.799C157.043 293.986 156.512 294.956 155.846 294.872C155.18 294.788 154.797 294.183 154.543 293.642C154.434 293.411 154.329 293.154 154.42 292.917C154.572 292.521 155.22 292.42 155.637 292.629ZM176.508 307.544C175.981 306.702 175.757 305.504 176.365 304.725C177.306 303.518 179.207 304.332 180.201 305.49C180.586 305.939 180.941 306.463 180.994 307.065C181.088 308.145 180.084 309.099 179.055 309.128C178.026 309.156 177.075 308.449 176.508 307.544ZM178.972 306.34L177.986 305.629C177.583 306.016 177.505 306.724 177.813 307.198C178.122 307.672 178.777 307.851 179.265 307.594C179.604 307.24 179.414 306.519 178.951 306.399L178.972 306.34ZM167.27 268.673C167.002 269.038 166.977 269.506 167.013 269.944C167.101 270.99 167.541 272.071 168.474 272.692C169.407 273.314 170.89 273.298 171.602 272.47C172.517 271.406 171.715 269.811 170.599 268.918C169.651 268.158 167.973 267.719 167.27 268.673ZM168.842 269.792C169.308 269.467 170.172 269.891 169.983 270.396L170.29 270.477C170.547 270.961 170.539 271.554 170.268 272.031C169.71 271.863 169.133 271.651 168.773 271.229C168.414 270.808 168.376 270.117 168.842 269.792ZM86.2416 295.907C86.9205 294.853 88.6069 294.974 89.6858 295.648C90.7259 296.297 91.4885 297.788 90.6263 298.647C90.1884 299.083 89.494 299.165 88.8672 299.116C88.0221 299.05 87.159 298.773 86.5818 298.172C86.0046 297.571 85.7933 296.603 86.2416 295.907ZM88.5182 296.487L87.446 297.002C87.8635 297.688 88.789 298.04 89.5772 297.812C89.6877 297.239 89.1824 296.63 88.58 296.611L88.5182 296.487ZM123.914 284.689C124.837 285.333 126.116 285.22 127.094 284.669C127.464 284.461 127.823 284.169 127.95 283.756C128.19 282.978 127.522 282.225 126.852 281.79C125.802 281.107 124.271 280.766 123.423 281.701C122.662 282.54 122.99 284.045 123.914 284.689ZM124.304 283.065C124.253 282.601 124.895 282.195 125.197 282.543L125.255 282.432C125.795 282.423 126.325 282.761 126.556 283.262C126.172 283.511 125.767 283.768 125.314 283.795C124.861 283.821 124.356 283.529 124.304 283.065ZM115.841 323.463C116.77 322.809 118.238 323.153 118.781 324.152C119.323 325.151 118.813 326.571 117.759 326.995C116.848 327.361 115.696 326.946 115.227 326.084C114.759 325.221 115.038 324.028 115.841 323.463ZM117.626 325.832C117.846 325.083 117.135 324.225 116.358 324.302C116.15 325.068 116.795 325.942 117.588 325.968L117.626 325.832ZM99.5169 330.384C99.0699 330.762 98.9703 331.472 99.0069 332.099C99.1081 333.83 100.596 335.694 101.997 334.967C102.803 334.549 103.166 333.385 102.928 332.424C102.691 331.463 101.964 330.726 101.144 330.345C100.619 330.1 99.971 330 99.5169 330.384ZM101.226 331.96C101.704 332.097 101.925 332.861 101.61 333.288L101.941 333.72C101.296 333.831 100.45 333.639 100.324 332.919C100.229 332.375 100.748 331.823 101.226 331.96ZM96.5223 318.456C96.3208 318.68 96.0683 318.859 95.7892 318.975C95.2922 319.181 94.7119 319.18 94.2157 318.972C93.1665 318.532 92.676 317.116 93.231 316.129C93.786 315.142 95.2577 314.813 96.1852 315.469C97.1126 316.125 97.2806 317.613 96.5223 318.456ZM95.4784 318.215C96.1304 317.733 95.6903 316.469 94.8778 316.489C94.5155 316.707 94.2419 317.066 94.1289 317.472C94.5016 317.817 94.9664 318.063 95.4627 318.178L95.4784 318.215ZM195.959 302.33C195.701 301.434 195.274 300.387 194.237 300.164C193.123 299.925 192.065 300.92 192.003 301.908C191.941 302.905 192.737 303.951 193.879 304.111C195.02 304.271 196.239 303.298 195.959 302.33ZM194.334 302.027C194.667 302.41 194.208 303.064 193.66 302.988L193.724 302.799C193.367 302.72 193.183 302.3 193.391 302.037C193.598 301.774 194.119 301.769 194.334 302.027ZM188.036 287.591C187.77 286.311 189.028 284.965 190.32 285.145C191.796 285.35 192.551 287.483 191.533 288.573C190.516 289.662 188.339 289.051 188.036 287.591ZM189.823 288.175C190.388 288.307 191.017 287.785 190.957 287.207C190.898 286.629 190.127 286.253 189.654 286.589C189.18 286.925 189.317 287.815 189.878 287.964L189.823 288.175ZM139.919 313.547C139.789 313.094 139.506 312.692 139.131 312.425C137.878 311.533 135.851 312.791 136.009 314.363C136.166 315.936 138.398 316.731 139.448 315.589C139.935 315.059 140.122 314.249 139.919 313.547ZM137.405 314.58C137.278 314.1 137.777 313.574 138.24 313.7C138.703 313.826 138.891 314.538 138.554 314.893C138.218 315.248 137.532 315.061 137.405 314.58Z" fill="#00160A"/>
<path fill-rule="evenodd" clip-rule="evenodd" d="M579.322 265.387C579.535 265.546 579.675 265.765 579.78 265.99C580.255 267.005 579.964 268.335 578.878 268.909C577.793 269.483 576.044 268.87 576.001 267.776C575.987 267.426 576.131 267.087 576.294 266.767C576.561 266.241 576.906 265.718 577.459 265.395C578.011 265.073 578.818 265.011 579.322 265.387ZM578.599 267.026C578.932 266.934 578.827 266.403 578.477 266.41C577.579 266.645 577.16 267.721 577.713 268.372C578.157 268.013 578.469 267.536 578.596 267.024L578.599 267.026ZM620.066 283.028C620.891 283.33 621.816 282.903 622.498 282.376C623.246 281.798 623.898 281.026 623.991 280.124C624.084 279.222 623.432 278.221 622.466 278.135C621.788 278.074 621.158 278.448 620.632 278.852C619.928 279.392 619.272 280.058 619.059 280.886C618.846 281.713 619.216 282.718 620.066 283.028ZM623.122 279.905L621.253 281.643L621.216 281.705L620.491 281.224C620.722 280.686 620.974 280.121 621.471 279.774C621.968 279.427 622.789 279.417 623.122 279.905ZM640.437 292.748C639.704 292.018 640.007 290.72 640.516 289.803C640.885 289.14 641.371 288.498 642.055 288.232C642.738 287.965 643.643 288.22 643.913 288.933C644.081 289.378 643.976 289.88 643.853 290.341C643.629 291.181 643.325 292.045 642.699 292.617C642.073 293.188 641.038 293.348 640.437 292.748ZM642.927 290.204C643 290.055 643.064 289.89 643.037 289.725C643.01 289.554 642.875 289.408 642.714 289.374C641.685 289.679 640.982 290.893 641.195 291.997C641.935 291.617 642.553 290.977 642.927 290.204ZM633.613 309.84C634.705 310.684 636.256 309.525 636.923 308.33C637.372 307.524 637.71 306.659 637.923 305.765C638.054 305.213 638.068 304.5 637.56 304.228C637.314 304.097 637.014 304.117 636.738 304.166C634.891 304.493 633.339 306.041 633.042 307.852C632.925 308.565 633.033 309.392 633.613 309.84ZM636.656 305.89C636.746 306.165 636.55 306.444 636.365 306.67L634.495 308.954C634.173 307.607 634.993 306.091 636.312 305.591C636.47 305.621 636.607 305.74 636.656 305.89ZM474.391 448.451C473.383 450.854 474.36 454.254 476.908 454.832C502.779 460.698 528.323 468.002 553.381 476.699C561.683 479.58 570.927 482.601 578.993 479.115C582.127 477.761 584.778 475.521 587.379 473.313L614.503 450.291C605.41 462.473 594.161 473.05 581.432 481.386C578.387 483.381 575.162 485.285 571.572 485.906C567.104 486.679 562.564 485.392 558.213 484.118L482.05 461.817C479.006 460.926 475.196 458.006 477.138 455.506C474.624 456.432 474.808 460.001 475.465 462.592L557.86 486.598C561.764 487.735 565.813 488.885 569.841 488.324C573.842 487.768 577.404 485.581 580.79 483.383C595.2 474.03 609.314 463.05 617.295 447.865C617.528 447.422 617.76 446.971 617.994 446.516C620.083 442.459 622.306 438.14 626.512 436.587C627.237 470.658 626.695 504.756 624.888 538.787C624.767 541.069 628.347 541.882 630.029 540.328C631.71 538.775 631.898 536.233 631.974 533.949L636.363 402.156C636.98 383.631 637.755 364.453 646 347.84C636.304 362.957 635.444 381.88 634.877 399.815L630.699 531.902C630.596 535.176 630.039 539.146 627.007 540.407L628.61 435.079C623.488 434.617 619.828 439.623 616.79 443.777L616.733 443.855C607.915 455.911 595.532 464.812 583.366 473.501C578.239 477.163 571.969 481.008 566.041 478.862C536.483 468.164 506.342 459.065 475.797 451.619C479.71 445.856 485.553 441.708 491.43 437.953C501.969 431.219 513.047 425.323 524.523 420.339C524.791 420.223 525.059 420.107 525.327 419.991C530.646 417.689 536.184 415.292 539.699 410.728C544.427 404.588 544.317 396.15 544.119 388.411C543.846 377.78 543.809 367.143 544.008 356.51C544.278 342.008 545.126 326.973 551.883 314.128C544.067 320.997 543.3 332.669 543.1 343.056L542.118 393.978C541.995 400.336 541.535 407.467 536.784 411.709C534.997 413.305 532.772 414.306 530.584 415.291L530.432 415.359C512.891 423.257 495.969 432.519 479.869 443.034C477.684 444.461 475.398 446.047 474.391 448.451ZM566.919 576.044C565.715 577.088 563.186 576.524 563.271 574.972C564.816 546.779 566.528 518.594 568.408 490.42C567.574 489.884 566.823 491.214 566.763 492.173L562.233 564.876C561.996 568.676 561.762 572.522 562.495 576.264C562.917 578.422 566.409 578.7 568.016 577.132C569.623 575.563 569.826 573.159 569.936 570.965L573.996 490.368C574.048 489.343 573.562 487.875 572.533 488.166L568.359 571.722C568.281 573.274 568.123 575 566.919 576.044ZM484 466.175L480.804 562.959C480.735 565.055 477.509 565.782 475.827 564.472C474.145 563.163 473.717 560.876 473.492 558.79C472.442 549.07 473.276 539.283 474.106 529.527L474.106 529.526C474.235 528.018 474.363 526.51 474.484 525.004C476.044 505.632 476.439 486.17 475.667 466.753C475.644 466.188 476.542 465.986 476.975 466.362C477.408 466.739 477.473 467.364 477.507 467.929C478.622 486.731 477.313 505.543 476.005 524.356C475.498 531.636 474.992 538.916 474.626 546.196C474.376 551.157 474.201 556.208 475.496 561.012C475.752 561.959 476.126 562.972 476.986 563.478C477.846 563.984 479.272 563.555 479.305 562.577L482.436 468.252C482.47 467.248 483.021 465.857 484 466.175ZM651.85 313.171C652.058 313.123 652.283 313.098 652.477 313.193C652.793 313.347 652.928 313.763 652.974 314.142C653.183 315.855 652.094 317.644 650.583 318.072C649.939 318.254 649.04 318.001 649.005 317.266C648.914 315.392 650.192 313.552 651.85 313.171ZM651.658 315.601C651.957 315.31 652.088 314.821 651.98 314.396C650.976 314.643 650.179 315.693 650.13 316.832C650.77 316.718 651.35 316.254 651.65 315.617L651.658 315.601ZM591.69 305.39C591.505 305.059 591.246 304.771 590.936 304.554C589.87 303.804 588.226 304.076 587.456 305.13C586.685 306.184 586.919 307.841 587.952 308.638C588.984 309.435 590.638 309.237 591.455 308.218C592.082 307.436 592.179 306.266 591.69 305.39ZM589.891 307.702C589.142 307.817 588.44 306.936 588.716 306.226C588.992 305.517 590.103 305.347 590.576 305.942C591.05 306.537 590.641 307.587 589.891 307.702ZM646.487 327.263C646.737 327.387 646.958 327.621 646.994 327.912C647.02 328.119 646.952 328.324 646.885 328.52L646.524 329.573C646.281 330.285 646.022 331.022 645.514 331.551C645.006 332.08 644.171 332.335 643.572 331.927C642.537 331.224 643.076 329.495 643.853 328.482C644.508 327.629 645.55 326.796 646.487 327.263ZM645.181 329.967C645.558 329.613 645.704 329.004 645.53 328.5C644.498 328.808 643.881 330.181 644.303 331.231L645.213 330.009L645.181 329.967ZM610.684 309.838C610.601 309.649 610.498 309.463 610.341 309.331C609.836 308.907 609.067 309.22 608.544 309.621C607.87 310.137 607.274 310.818 607.068 311.647C606.861 312.477 607.131 313.465 607.855 313.907C609.113 314.675 610.764 313.315 610.966 311.842C611.059 311.165 610.96 310.462 610.684 309.838ZM608.583 312.893C608.094 312.694 608.024 311.883 608.471 311.601L608.462 311.603L609.594 310.493C610.026 311.378 609.513 312.595 608.583 312.893ZM569.422 303.541C569.167 303.799 568.844 303.986 568.497 304.077C567.068 304.449 565.58 302.743 566.109 301.34C566.638 299.937 568.863 299.686 569.679 300.938C570.192 301.725 570.078 302.874 569.422 303.541ZM568.266 301.392C567.797 301.305 567.303 301.722 567.298 302.208C567.293 302.694 567.779 303.12 568.249 303.043C568.753 302.594 568.827 301.729 568.407 301.197L568.266 301.392ZM659.26 298.988C660.313 298.44 660.779 297.015 660.984 295.702C661.167 294.532 659.728 293.769 658.807 294.301C657.886 294.832 657.441 296.037 657.069 297.145C656.652 298.389 658.207 299.536 659.26 298.988ZM659.489 295.407C659.899 295.527 659.998 296.291 659.637 296.544L659.638 296.533C659.605 297.186 659.004 297.719 658.449 297.586C658.473 296.725 658.872 295.89 659.489 295.407ZM614.582 300.128C613.519 300.124 612.791 298.701 613.054 297.55C613.316 296.399 614.27 295.589 615.272 295.193C615.99 294.909 616.794 295.606 616.957 296.437C617.12 297.268 616.8 298.129 616.364 298.827C615.942 299.504 615.32 300.131 614.582 300.128ZM615.754 297.63L615.874 296.73C614.898 296.545 613.921 297.678 614.123 298.761C614.324 298.918 614.585 298.977 614.825 298.917C615.015 298.419 615.317 297.975 615.695 297.636L615.754 297.63ZM591.697 293.128C592.809 293.15 593.583 292.198 593.87 291.307C594.09 290.619 594.089 289.762 593.4 289.339C592.631 288.867 591.5 289.254 590.856 289.842C590.284 290.363 589.904 291.07 590.021 291.769C590.138 292.467 590.847 293.111 591.697 293.128ZM592.16 290.33C592.598 290.196 593.028 290.77 592.688 291.035L592.658 290.989C592.491 291.393 592.162 291.751 591.736 291.993C591.302 291.471 591.509 290.662 592.16 290.33ZM632.961 321.148C632.997 320.965 633.027 320.769 632.959 320.594C632.855 320.327 632.552 320.191 632.268 320.149C631.037 319.967 629.967 321.027 629.391 322.126C628.883 323.098 628.745 324.584 629.751 325.027C630.715 325.452 631.704 324.46 632.165 323.515C632.531 322.765 632.8 321.967 632.961 321.148ZM630.648 322.763C630.461 322.44 630.647 321.967 631.003 321.855L630.966 321.885C631.23 321.86 631.422 322.201 631.317 322.444C631.212 322.688 630.911 322.8 630.648 322.763ZM600.814 275.864C600.218 276.417 599.555 276.927 598.791 277.12C598.552 277.181 598.372 276.893 598.285 276.645C597.806 275.279 597.879 273.538 598.906 272.589C599.932 271.639 601.942 272.233 601.999 273.693C602.032 274.563 601.425 275.297 600.814 275.864ZM600.562 273.421C599.645 273.353 599 274.588 599.272 275.539C600.089 275.285 600.687 274.374 600.64 273.456L600.562 273.421ZM573.996 282.602C573.954 281.894 573.465 281.172 572.8 281.13C572.26 281.096 571.776 281.503 571.465 281.975C570.979 282.712 570.806 283.761 571.279 284.507C571.751 285.254 572.974 285.378 573.403 284.602C573.741 283.99 574.038 283.311 573.996 282.602ZM572.146 284.273L572.064 283.319L572.078 283.308C572.207 282.895 572.474 282.532 572.82 282.301C573.154 283 572.824 283.967 572.146 284.273ZM552.769 296.754C553.229 297.519 552.929 298.556 552.5 299.343C552.353 299.612 552.182 299.882 551.928 300.025C551.39 300.328 550.722 299.921 550.379 299.374C549.874 298.568 549.85 297.377 550.452 296.657C551.054 295.936 552.278 295.938 552.769 296.754ZM551.098 297.957C551.097 298.235 551.402 298.455 551.634 298.343C551.866 298.23 551.924 297.834 551.736 297.647C551.542 297.501 551.227 297.705 551.25 297.963L551.098 297.957ZM557.435 283.127C558.414 283.168 559.247 282.048 558.932 281.115C558.857 280.891 558.728 280.684 558.559 280.518C557.86 279.828 556.495 280.096 556.106 280.999C555.717 281.903 556.456 283.087 557.435 283.127ZM557.662 281.08C558.101 281.089 557.812 281.909 557.382 281.823L557.387 281.84C557.218 281.578 557.365 281.172 557.662 281.08Z" fill="#00160A"/>
<path fill-rule="evenodd" clip-rule="evenodd" d="M652.587 279.421C657.922 281.244 663.477 283.203 667.378 287.298C672.266 292.428 673.672 300.153 672.72 307.2C671.768 314.246 668.755 320.817 665.778 327.265C662.413 334.553 659.049 341.841 655.684 349.128C644.593 343.755 635.053 335.642 624.445 329.355C601.3 315.638 573.653 311.066 546.829 312.33C544.573 312.436 541.64 312.115 541.084 309.91C540.919 309.253 541.028 308.562 541.143 307.895C543.733 292.828 548.773 278.192 556.003 264.746C557.074 262.753 558.21 260.763 559.77 259.129C563.37 255.356 568.869 253.922 574.059 254.152C579.25 254.382 584.252 256.078 589.173 257.759C610.311 264.98 631.449 272.2 652.587 279.421ZM556.156 267.777C549.855 280.462 544.588 293.904 543.136 308.013C543.073 308.621 543.025 309.27 543.307 309.811C543.878 310.906 545.385 310.96 546.61 310.88C574.982 309.01 604.306 314.594 628.377 329.838C636.604 335.049 644.162 341.329 652.694 346.015C653.071 346.221 653.499 346.431 653.911 346.311C654.326 346.189 654.576 345.776 654.785 345.395C659.97 335.968 664.563 326.211 668.527 316.201C669.933 312.653 671.272 309.019 671.621 305.215C672.497 295.637 666.196 285.864 657.154 282.777C633.979 274.866 610.805 266.954 587.63 259.043C583.394 257.596 579.101 256.138 574.64 255.816C570.179 255.493 565.456 256.426 562.016 259.306C559.368 261.522 557.696 264.676 556.156 267.777Z" fill="#00160A"/>
<path fill-rule="evenodd" clip-rule="evenodd" d="M367.845 327.237C366.482 328.002 364.71 326.818 364.193 325.354C363.79 324.212 363.882 322.987 363.974 321.768C364 321.422 364.026 321.077 364.041 320.734C364.18 317.494 363.279 314.346 362.38 311.204C362.1 310.225 361.82 309.247 361.572 308.267C357.447 291.976 362.639 273.69 374.731 261.919C376.28 264.864 380.412 265.64 383.557 264.492C386.702 263.343 389.078 260.791 391.311 258.314C393.544 255.837 395.882 253.262 399 252.043C396.667 251.645 394.238 251.805 391.979 252.505C391.631 249.338 388.284 246.824 385.113 247.347C382.947 247.704 381.229 245.678 379.881 243.96C378.533 242.243 376.377 240.453 374.393 241.383C376.944 242.911 376.74 246.667 375.665 249.422C375.469 249.924 375.254 250.43 375.038 250.939C374.068 253.218 373.075 255.552 373.679 257.891C374.253 260.118 372.435 262.172 370.877 263.874C362.131 273.425 357.429 286.501 358.109 299.379C355.536 295.918 352.268 292.968 348.552 290.751C347.859 290.338 347.145 289.944 346.429 289.549C343.892 288.151 341.338 286.744 339.685 284.425C337.736 281.69 334.128 280.507 330.75 280.608C327.372 280.71 324.136 281.902 320.972 283.079C320.094 283.405 319.07 283.915 319.003 284.842C318.954 285.533 319.484 286.12 320.005 286.582C324.996 290.998 332.781 291.994 338.741 288.979C340.91 287.881 343.536 288.937 345.612 290.198C357.67 297.524 364.426 312.543 361.864 326.325C359.853 327.077 357.69 326.977 355.517 326.876C354.321 326.821 353.122 326.766 351.943 326.852C348.62 327.095 344.816 329.504 345.399 332.754C346.749 340.289 348.099 348.033 346.605 355.541C346.172 357.719 345.505 359.84 344.838 361.961C344.357 363.489 343.877 365.018 343.483 366.569C342.496 370.457 342.061 374.483 342.194 378.491C342.23 379.565 342.319 380.682 342.858 381.615C343.654 382.991 345.25 383.683 346.768 384.188C351.666 385.815 356.903 386.433 362.05 385.989C365.941 385.653 370.326 384.276 371.803 380.694C372.736 378.432 372.244 375.871 371.773 373.473C369.532 362.076 368.107 350.007 372.036 339.068C372.171 338.691 372.313 338.312 372.456 337.932C373.295 335.695 374.153 333.41 373.788 331.081C373.361 328.358 370.265 325.878 367.845 327.237ZM357.035 361.747L353.891 368.426C353.522 369.21 353.298 370.4 354.11 370.716C356.3 367.662 357.857 364.164 358.656 360.502C358.95 359.154 360.17 358.153 361.494 357.729C362.818 357.305 364.245 357.36 365.633 357.449C366.412 357.499 367.272 357.596 367.795 358.17C368.211 358.626 368.31 359.274 368.392 359.883L370.572 376.136C370.763 377.564 370.946 379.069 370.399 380.404C369.474 382.66 366.829 383.658 364.417 384.127C358.49 385.28 352.231 384.708 346.617 382.501C345.825 382.189 345.014 381.823 344.478 381.166C343.763 380.29 343.676 379.08 343.662 377.954C343.567 370.664 345.24 363.357 348.501 356.822L356.109 359.581C356.573 359.749 357.087 359.965 357.265 360.421C357.432 360.852 357.232 361.328 357.035 361.747ZM357.652 357.876C357.15 358.448 356.194 358.705 355.612 358.212C353.631 356.534 350.882 355.785 348.313 356.223C349.234 350.784 348.551 345.287 347.867 339.781C347.541 337.155 347.215 334.527 347.062 331.903C347.044 331.596 347.035 331.264 347.213 331.013C347.504 330.601 348.115 330.62 348.618 330.683L360.606 332.173C361.017 332.224 361.441 332.28 361.793 332.495C362.785 333.103 362.683 334.541 362.458 335.675L358.467 355.779C358.319 356.523 358.154 357.304 357.652 357.876ZM360.478 353.133C362.285 346.206 363.515 339.133 364.152 332.006C367.089 332.489 370.196 331.87 372.716 330.301C372.213 332.656 371.584 334.998 370.955 337.339C369.461 342.905 367.967 348.465 368.171 354.184L368.173 354.237C368.19 354.721 368.209 355.223 368.009 355.664C367.802 356.12 367.274 356.479 366.796 356.318C364.563 355.567 361.97 355.966 360.072 357.352C359.735 355.979 360.109 354.545 360.466 353.176L360.478 353.133ZM376.133 260.77C374.865 258.911 374.603 256.469 375.235 254.315C375.53 253.308 376.009 252.321 376.484 251.34C377.437 249.375 378.377 247.435 377.807 245.411C377.643 244.827 377.449 244.019 378.005 243.768C380.213 245.671 381.664 248.412 381.99 251.292C382.085 252.134 382.071 253.043 381.604 253.752C381.146 254.447 380.366 254.801 379.588 255.155C379.315 255.279 379.042 255.403 378.783 255.542C377.788 256.075 376.872 257.26 377.427 258.237C382.215 254.746 388.35 253.118 394.259 253.77C392.676 254.767 391.22 255.963 389.938 257.32C389.492 257.79 389.054 258.289 388.613 258.79C386.707 260.955 384.749 263.18 381.959 263.524C379.712 263.801 377.401 262.628 376.133 260.77ZM330.256 281.99C333.799 281.815 337.846 283.949 339.454 286.197L335.667 288.455C331.436 290.202 329.362 289.55 328.383 289.243C328.332 289.227 328.284 289.212 328.239 289.198C325.356 288.32 322.625 286.958 320.196 285.188C323.376 283.631 326.713 282.166 330.256 281.99ZM389.965 251.907C389.786 252.148 389.466 252.232 389.172 252.3L384.316 253.422C384.082 253.476 383.833 253.529 383.606 253.451C383.007 253.244 383.052 252.386 383.286 251.802C383.521 251.218 383.809 250.49 383.382 250.025C382.864 249.462 383.828 248.711 384.595 248.653C386.409 248.516 388.269 249.2 389.555 250.475C389.941 250.859 390.287 251.469 389.965 251.907ZM362.38 329.338C362.791 329.808 362.553 330.768 361.926 330.734C358.081 330.529 354.256 329.946 350.526 328.997C353.825 328.226 357.27 328.481 360.649 328.74C361.275 328.788 361.969 328.868 362.38 329.338ZM371.019 328.924C371.189 329.308 370.953 329.814 370.547 329.935C368.548 330.53 366.476 330.888 364.391 330.998C363.855 330.648 364.013 329.758 364.525 329.376C365.037 328.993 365.727 328.971 366.369 328.966L371.019 328.924ZM380.898 365.995C409.95 366.211 440.51 366.826 465.621 381.641C468.031 383.063 468.062 386.848 466.38 389.103C464.698 391.358 461.926 392.437 459.28 393.329C450.932 396.145 442.331 398.19 433.619 399.431C425.382 400.604 417.062 401.058 408.752 401.433C360.263 403.621 311.06 403.08 264.083 390.705C263.89 388.983 265.422 387.614 266.826 386.625C288.24 371.549 315.007 367.143 340.775 363.128C313.796 363.985 287.055 371.68 263.655 385.321C260.631 387.084 257.216 389.993 258.16 393.398C258.937 396.198 262.195 397.305 264.991 397.955C312.495 408.998 361.68 412.568 410.251 408.501C416.373 407.988 422.484 407.355 428.588 406.662C444.297 404.881 460.799 402.361 473.214 392.443C474.276 391.594 475.345 390.633 475.782 389.336C476.947 385.881 473.22 382.882 469.991 381.268C442.591 367.576 411.214 362.196 380.898 365.995ZM473.088 385.203C474.64 387.171 474.642 390.593 472.462 391.8C465.35 395.739 458.127 399.667 450.288 401.752C446.139 402.856 441.873 403.427 437.618 403.972C429.354 405.03 421.078 406 412.781 406.747C362.513 411.276 311.534 407.577 262.414 395.837C260.123 395.289 259.135 392.206 260.089 390.024C260.839 388.31 262.401 387.139 264.141 386.421C262.933 387.431 262.609 389.762 263.628 391.19C264.98 393.087 267.464 393.674 269.73 394.115C296.569 399.34 323.731 403.248 351.053 403.87C359.812 404.07 368.573 403.931 377.333 403.793C403.168 403.384 429.267 402.943 454.35 396.655C459.422 395.384 464.739 393.685 468.122 389.648C468.765 388.88 469.34 388.001 469.486 387.004C469.793 384.903 468.171 383.069 466.674 381.583C469.036 382.362 471.537 383.236 473.088 385.203ZM265.594 385.932C265.025 385.901 264.536 386.09 264.141 386.421C264.616 386.225 265.105 386.062 265.594 385.932ZM267.168 385.108C266.774 385.199 266.306 384.727 266.55 384.4L266.751 384.612C266.931 384.129 267.627 383.946 268.016 384.28C267.81 384.633 267.562 385.018 267.168 385.108ZM431.611 566.34C433.716 572.995 438.868 579.239 445.704 580.109C448.176 580.424 450.034 576.791 448.357 574.922C446.68 573.053 442.94 574.588 443.017 577.115C438.72 575.407 435.709 571.284 434.19 566.863C432.67 562.442 432.433 557.69 432.21 553.014L431.307 534.032C431.003 527.659 430.439 520.657 425.997 516.139C425.031 515.158 423.918 514.338 422.806 513.52C421.382 512.472 419.962 511.427 418.861 510.047C416.283 506.817 415.908 502.369 415.778 498.216C415.066 475.353 418.558 452.363 426.024 430.778C426.513 429.365 427.019 427.954 427.526 426.543L427.526 426.542L427.526 426.542L427.526 426.542L427.526 426.542C429.571 420.847 431.62 415.143 432.534 409.168C431.384 408.872 430.583 410.283 430.218 411.429L422.857 434.549C420.936 440.582 419.013 446.622 417.584 452.793C414.225 467.296 413.641 482.29 413.07 497.176C412.932 500.772 412.833 504.553 414.459 507.75C415.635 510.063 417.57 511.793 419.514 513.531L419.514 513.532C420.924 514.793 422.339 516.058 423.474 517.555C425.981 520.859 426.966 525.073 427.684 529.179C428.63 534.591 429.225 540.068 429.461 545.56C429.519 546.894 429.556 548.235 429.593 549.577C429.751 555.255 429.909 560.957 431.611 566.34ZM444.648 576.358C444.856 575.559 446.065 575.274 446.58 575.914L446.719 575.797C447.228 576.442 446.882 577.578 446.095 577.792C445.308 578.007 444.44 577.158 444.648 576.358ZM287.031 585.872C286.695 583.727 289.188 582.323 291.281 581.9L291.535 581.849C293.575 581.439 295.947 580.963 296.702 579.025C299.74 571.229 299.901 562.618 300.061 554.059C300.25 543.91 300.438 533.834 305.421 525.28C307.811 521.177 311.168 517.739 314.774 514.693C315.049 514.46 315.328 514.227 315.608 513.993C318.53 511.55 321.588 508.993 322.615 505.335C323.188 503.293 323.049 501.123 322.905 499.004L320.123 458.017C319.768 452.785 319.413 447.548 318.707 442.352C317.262 431.707 314.361 421.319 311.011 411.128C313.649 412.643 314.84 415.814 315.717 418.765C320.777 435.791 321.956 453.722 323.104 471.472L324.902 499.271C325.231 504.355 324.953 510.608 320.507 512.948C313.451 516.662 307.838 523.133 305.092 530.722C302.457 538.001 302.455 545.871 302.452 553.685C302.452 555.455 302.451 557.223 302.42 558.979C302.251 568.493 300.823 578.716 294.413 585.64C293.357 586.781 292.094 587.852 290.573 588.091C289.051 588.329 287.272 587.42 287.031 585.872ZM288.434 585.817C288.361 586.269 288.812 586.669 289.26 586.701C289.709 586.733 290.134 586.507 290.52 586.272C291.756 585.522 292.896 584.608 293.903 583.562C293.119 582.962 292.002 582.981 291.101 583.375C290.2 583.769 289.474 584.481 288.803 585.209C288.64 585.386 288.473 585.578 288.434 585.817ZM377.011 519.128C376.847 532.337 378.559 545.487 380.268 558.582C380.744 562.228 381.236 565.936 382.73 569.288C383.406 570.804 384.732 572.443 386.331 572.076C386.831 571.961 387.269 571.655 387.641 571.297C389.096 569.898 389.545 567.314 388.18 565.826C386.814 564.337 383.731 565.118 383.64 567.15C380.966 552.773 379.256 538.211 378.526 523.599C378.445 521.973 378.273 520.134 377.011 519.128ZM387.115 566.841C387.185 567.119 387.035 567.4 386.89 567.647L385.71 569.655L384.927 569.504C384.839 568.699 385.013 567.868 385.415 567.169C385.789 566.518 386.932 566.111 387.115 566.841ZM377.249 495.282C376.844 490.887 377.01 486.46 377.208 482.05C378.233 459.178 380.115 436.346 382.847 413.62C382.913 413.074 383.041 412.438 383.531 412.21C384.546 411.736 385.109 413.439 384.982 414.572C381.939 441.79 379.936 469.135 379.207 496.521C379.191 497.121 378.298 497.316 377.849 496.927C377.4 496.538 377.304 495.88 377.249 495.282Z" fill="#00160A"/>
<path d="M389.171 518.717C383.093 518.305 377.015 517.894 370.936 517.482C362.555 516.914 354.147 516.343 345.904 514.74C340.148 513.62 334.492 512 329.024 509.903C328.429 509.674 327.809 509.421 327.409 508.929C326.647 507.988 327.027 506.506 327.911 505.676C328.796 504.846 330.029 504.51 331.214 504.224C356.265 498.186 382.566 502.073 407.938 506.615C409.859 506.959 411.837 507.329 413.47 508.386C415.103 509.443 416.319 511.375 415.925 513.265C415.463 515.484 413.106 516.749 410.927 517.449C403.972 519.681 396.466 519.211 389.171 518.717" fill="white"/>
<path fill-rule="evenodd" clip-rule="evenodd" d="M389.171 518.717C383.093 518.305 377.015 517.894 370.936 517.482C362.555 516.914 354.147 516.343 345.904 514.74C340.148 513.62 334.492 512 329.024 509.903C328.429 509.674 327.809 509.421 327.409 508.929C326.647 507.988 327.027 506.506 327.911 505.676C328.796 504.846 330.029 504.51 331.214 504.224C356.265 498.186 382.566 502.073 407.938 506.615C409.859 506.959 411.837 507.329 413.47 508.386C415.103 509.443 416.319 511.375 415.925 513.265C415.463 515.484 413.106 516.749 410.927 517.449C403.972 519.681 396.466 519.211 389.171 518.717M328.458 508.185C348.172 514.922 369.369 515.776 390.212 516.568C395.328 516.762 400.448 516.956 405.567 516.828C407.588 516.777 409.784 516.608 411.286 515.271C412.789 513.933 412.876 511.011 411.003 510.258C400.12 505.888 388.162 505.079 376.439 504.344C362.486 503.469 348.376 502.632 334.604 505.017C332.248 505.425 329.627 506.122 328.458 508.185Z" fill="#00160A"/>
<path fill-rule="evenodd" clip-rule="evenodd" d="M628.647 425.138C629.849 418.497 630.489 411.752 630.558 405.002C630.664 394.639 629.429 384.273 630.013 373.926C630.598 363.578 633.231 352.914 640 345.113C639.38 349.407 638.042 353.595 636.061 357.448C632.162 365.028 632.029 373.935 631.982 382.474C631.91 395.611 631.838 408.748 631.765 421.885C631.743 425.892 628.999 429.558 625.465 431.392C621.932 433.227 617.75 433.442 613.826 432.801C610.708 432.292 607.697 431.277 604.702 430.266C586.952 424.273 569.203 418.281 551.454 412.288C550.027 411.807 548.344 411.01 548.241 409.496C546.679 386.553 546.591 363.507 547.979 340.552C548.576 330.674 549.897 319.836 557.116 313.128C554.926 317.779 552.724 322.46 551.378 327.426C549.608 333.957 549.364 340.795 549.131 347.56C548.425 368.035 547.723 388.606 550.122 408.95C550.236 409.915 550.575 411.115 551.53 411.242C559.434 412.29 567.006 415.03 574.506 417.752C584.901 421.525 595.296 425.298 605.691 429.071C608.219 429.989 610.783 430.914 613.46 431.144C617.292 431.472 621.085 430.358 624.772 429.256C625.868 428.928 627.036 428.553 627.746 427.649C628.3 426.944 628.487 426.023 628.647 425.138Z" fill="#00160A"/>
<path fill-rule="evenodd" clip-rule="evenodd" d="M612 436.128C596.248 435.116 581.66 428.113 566.583 423.544C561.281 421.937 555.891 420.627 550.504 419.317C547.003 418.465 543.501 417.614 540 416.762C546.847 415.009 554.03 417.221 560.744 419.41C577.829 424.983 594.915 430.556 612 436.128Z" fill="#00160A"/>
<path fill-rule="evenodd" clip-rule="evenodd" d="M333.834 284.611C334.353 284.628 334.817 284.699 335.558 284.878L339.847 286C340.077 286.059 340.291 286.114 340.478 286.161C340.746 286.228 340.908 286.5 340.841 286.768C340.773 287.036 340.502 287.198 340.234 287.131L338.69 286.733L335.774 285.963L335.556 285.907C334.736 285.701 334.291 285.626 333.802 285.611L333.678 285.612C332.77 285.645 328.493 286.067 325.734 286.247C325.458 286.265 325.22 286.056 325.202 285.781C325.184 285.505 325.393 285.267 325.668 285.249L326.712 285.175C329.458 284.968 333.06 284.618 333.773 284.611L333.834 284.611Z" fill="#00160A"/>
<path fill-rule="evenodd" clip-rule="evenodd" d="M333.251 282.835C333.456 282.651 333.772 282.668 333.957 282.874L335.573 284.675C335.757 284.88 335.74 285.196 335.534 285.381C335.329 285.565 335.013 285.548 334.828 285.342L333.213 283.541C333.028 283.336 333.045 283.02 333.251 282.835Z" fill="#00160A"/>
<path fill-rule="evenodd" clip-rule="evenodd" d="M335.449 284.661C335.672 284.823 335.722 285.135 335.56 285.359L334.056 287.434C333.894 287.658 333.581 287.708 333.358 287.545C333.134 287.383 333.084 287.071 333.246 286.847L334.75 284.772C334.912 284.548 335.225 284.499 335.449 284.661Z" fill="#00160A"/>
<path fill-rule="evenodd" clip-rule="evenodd" d="M327.532 283.542C327.661 283.298 327.964 283.204 328.208 283.333L330.788 284.696C331.032 284.825 331.125 285.128 330.996 285.372C330.867 285.616 330.564 285.71 330.32 285.581L327.741 284.218C327.496 284.089 327.403 283.786 327.532 283.542Z" fill="#00160A"/>
<path fill-rule="evenodd" clip-rule="evenodd" d="M330.776 284.877C330.953 285.089 330.926 285.404 330.714 285.581L328.055 287.811C327.844 287.988 327.528 287.961 327.351 287.749C327.174 287.537 327.201 287.222 327.413 287.045L330.071 284.815C330.283 284.638 330.598 284.665 330.776 284.877Z" fill="#00160A"/>
<path fill-rule="evenodd" clip-rule="evenodd" d="M354.11 370.716C353.298 370.4 353.522 369.21 353.891 368.426C354.939 366.199 355.987 363.973 357.035 361.746C357.232 361.328 357.432 360.851 357.265 360.421C357.087 359.965 356.573 359.749 356.109 359.581C353.573 358.661 351.037 357.741 348.501 356.822C345.24 363.357 343.567 370.664 343.662 377.954C343.676 379.08 343.763 380.29 344.478 381.166C345.014 381.823 345.825 382.189 346.617 382.501C352.231 384.708 358.49 385.28 364.417 384.127C366.829 383.658 369.474 382.66 370.399 380.404C370.946 379.069 370.763 377.564 370.572 376.136C369.845 370.718 369.119 365.301 368.392 359.883C368.31 359.274 368.211 358.625 367.795 358.17C367.272 357.596 366.412 357.499 365.633 357.449C364.245 357.36 362.818 357.305 361.494 357.729C360.17 358.153 358.95 359.154 358.656 360.502C357.857 364.164 356.3 367.662 354.11 370.716Z" fill="#E7EAEE"/>
<path fill-rule="evenodd" clip-rule="evenodd" d="M348.313 356.222C350.882 355.784 353.631 356.534 355.612 358.212C356.194 358.704 357.15 358.448 357.652 357.876C358.154 357.303 358.319 356.522 358.467 355.779C359.797 349.077 361.128 342.376 362.458 335.675C362.683 334.541 362.785 333.103 361.793 332.495C361.441 332.279 361.017 332.224 360.606 332.173C356.61 331.676 352.614 331.179 348.618 330.683C348.115 330.62 347.505 330.601 347.213 331.013C347.035 331.264 347.044 331.596 347.062 331.902C347.536 340.032 349.673 348.191 348.313 356.222Z" fill="white"/>
<path fill-rule="evenodd" clip-rule="evenodd" d="M372.716 330.301C370.196 331.87 367.088 332.489 364.152 332.006C363.515 339.132 362.285 346.206 360.477 353.133C360.117 354.515 359.731 355.964 360.072 357.352C361.97 355.966 364.563 355.567 366.795 356.318C367.274 356.479 367.801 356.12 368.009 355.663C368.216 355.207 368.189 354.684 368.171 354.184C367.881 346.06 371.017 338.254 372.716 330.301Z" fill="white"/>
<path fill-rule="evenodd" clip-rule="evenodd" d="M350.526 328.997C354.256 329.946 358.081 330.529 361.926 330.734C362.553 330.768 362.791 329.808 362.38 329.338C361.969 328.868 361.275 328.788 360.649 328.74C357.27 328.481 353.825 328.226 350.526 328.997Z" fill="white"/>
<path fill-rule="evenodd" clip-rule="evenodd" d="M364.391 330.997C366.476 330.888 368.548 330.53 370.547 329.935C370.953 329.814 371.189 329.308 371.019 328.924C369.469 328.938 367.919 328.951 366.369 328.965C365.727 328.971 365.037 328.992 364.525 329.375C364.013 329.758 363.855 330.648 364.391 330.997" fill="white"/>
<path fill-rule="evenodd" clip-rule="evenodd" d="M375.235 254.315C374.603 256.469 374.865 258.911 376.133 260.769C377.401 262.628 379.712 263.801 381.959 263.524C385.395 263.101 387.57 259.823 389.938 257.32C391.22 255.963 392.676 254.767 394.259 253.77C388.35 253.118 382.215 254.746 377.427 258.237C376.872 257.26 377.788 256.075 378.783 255.541C379.778 255.008 380.985 254.691 381.604 253.752C382.071 253.043 382.085 252.134 381.99 251.292C381.664 248.412 380.212 245.67 378.005 243.768C377.449 244.019 377.643 244.827 377.807 245.411C378.662 248.445 376.122 251.29 375.235 254.315Z" fill="#FFB61D"/>
<path fill-rule="evenodd" clip-rule="evenodd" d="M389.172 252.3C389.467 252.233 389.786 252.148 389.965 251.907C390.287 251.469 389.941 250.859 389.555 250.475C388.269 249.2 386.409 248.516 384.595 248.653C383.829 248.711 382.864 249.462 383.382 250.025C383.809 250.49 383.521 251.218 383.287 251.802C383.052 252.386 383.007 253.244 383.606 253.451C383.833 253.529 384.082 253.476 384.316 253.422C385.935 253.048 387.553 252.674 389.172 252.3Z" fill="#FFB61D"/>
</svg>
