<svg width="750" height="750" viewBox="0 0 750 750" fill="none" xmlns="http://www.w3.org/2000/svg">
<rect width="750" height="750" fill="none"/>
<path fill-rule="evenodd" clip-rule="evenodd" d="M637.764 563.088C752.613 460.616 604.334 402.145 631.662 315.549C658.99 228.953 728.161 98.7229 470.07 121.667C211.978 144.611 -2.29138 405.282 89.7193 527.964C181.73 650.645 522.915 665.561 637.764 563.088Z" />
<path fill-rule="evenodd" clip-rule="evenodd" d="M424.699 353.009C432.155 356.629 439.61 360.25 447.066 363.87C458.811 369.573 470.759 375.414 480.229 384.383C489.699 393.352 496.474 406.11 495.054 419.051C493.385 434.263 481.321 445.983 469.992 456.315C455.225 469.785 440.458 483.254 425.69 496.723C419.219 502.626 412.132 511.031 415.617 519.053C424.669 539.887 432.868 563.586 424.637 584.756C422.313 590.733 417.502 596.903 411.076 596.609C406.294 596.39 402.502 592.645 399.426 588.99C387.201 574.463 378.129 557.315 373.011 539.055C366.457 515.674 367.257 488.273 383.207 469.923C395.601 455.663 416.957 446.074 418.276 427.257C394.13 406.826 359.2 399.864 329.024 409.467C298.848 419.07 274.435 444.916 266.644 475.509C262.401 492.17 271.899 509.321 283.581 521.968C295.264 534.616 309.595 545.101 318.584 559.772C336.662 589.277 328.77 627.059 320.311 660.585C317.375 672.219 299.661 674.16 290.843 665.993C282.024 657.826 280.506 644.485 281.44 632.525C282.375 620.565 285.177 608.476 282.827 596.711C276.76 566.346 241.087 552.484 223.606 526.888C210.358 507.489 208.533 482.108 213.438 459.158C218.344 436.209 229.313 415.066 240.166 394.242C219.97 363.436 211.492 325.198 216.782 288.782C219.451 270.407 195.178 256.269 197.706 237.875C199.723 223.194 217.009 216.565 231.62 213.803C259.43 208.546 287.868 206.603 316.137 208.028C322.458 208.346 325.239 199.197 322.074 193.737C318.908 188.276 312.727 185.465 307.608 181.757C297.295 174.287 290.815 162.51 287.242 150.315C282.657 134.665 282.648 116.895 291.164 102.973C293.292 99.4943 296.951 94.3377 302.518 99.3347C304.189 90.6127 321.922 82.2296 333.26 86.912C340.055 89.7184 347.296 83.9631 351.615 78.0296C355.933 72.096 360.111 64.9311 367.287 63.3211C380.137 60.4381 388.367 77.5716 386.887 90.6127C385.407 103.654 379.651 117.431 385.302 129.286C387.451 133.793 391.173 137.696 391.886 142.635C392.505 146.92 391.396 145.249 388.983 155.114C386.571 164.978 380.759 168.147 378.363 173.604C374.675 182.004 375.229 189.382 367.523 196.817C366.226 198.068 368.867 200.935 367.934 203.059C386.913 203.33 401.331 219.1 416.021 231.077C434.289 245.972 456.637 256.392 480.155 258.413C503.673 260.434 528.283 253.559 545.842 237.84C552.716 231.687 569.113 239.726 570.31 230.596C570.54 228.23 569.91 227.212 567.663 226.63C566.499 226.329 563.748 226.955 562.894 225.86C560.391 222.651 574.972 217.118 574.356 221.525C574.198 222.654 573.535 223.488 573.619 224.219C573.864 226.345 575.078 227.001 576.952 227.376C580.904 227.622 586.565 224.922 588.928 221.525C590.511 219.25 589.894 218.646 588.652 218.546C586.622 218.381 582.923 219.562 584.438 216.979C586.302 213.803 591.105 210.791 595.674 213.556C596.661 214.153 596.314 215.312 595.808 216.45C594.88 218.539 593.416 220.558 598.662 218.916C606.769 216.379 607.233 216.854 609.328 217.474C611.422 218.094 614.498 221.775 616.466 225.214C620.517 232.289 624.672 239.71 625.051 247.847C625.43 255.984 620.719 264.982 612.708 266.609C612.637 268.977 613.799 271.208 615.562 272.777C617.483 274.487 622.422 273.445 621.592 274.973C618.896 279.937 612.331 281.21 607.163 279.473C605.744 278.996 609.018 276.553 609.328 274.86C609.824 272.149 609.26 269.23 607.602 267.015C602.928 268.986 598.253 270.957 593.578 272.929C594.936 274.657 594.317 276.709 595.674 278.437C596.955 280.069 600.243 279.656 600.794 281.972C601.393 284.491 596.539 285.548 594.031 285.783C591.282 286.041 587.005 286.323 585.724 284.491C584.269 282.408 588.829 281.741 589.04 279.562C589.27 277.183 588.397 274.641 586.302 273.49C582.287 271.285 576.527 275.345 577.276 279.851C579.164 291.204 574.443 303.411 565.398 310.566C556.353 317.721 543.35 319.534 532.681 315.128C523.034 311.144 512.349 316.269 502.367 319.323C479.737 326.249 453.914 321.832 434.897 307.783C433.799 323.488 430.781 340.499 420.706 352.079C422.34 353.009 421.5 353.009 424.699 353.009Z" fill="white"/>
<ellipse cx="324.038" cy="177.5" rx="5.5" ry="5.4819" fill="#FFB61D"/>
<circle cx="363.5" cy="166.5" r="5.5" fill="#FFB61D"/>
<path fill-rule="evenodd" clip-rule="evenodd" d="M395.621 411.487C393.145 410.377 390.665 409.266 388.17 408.184C369.904 400.26 347.995 394.561 330.761 404.518C328.129 387.765 346.155 374.97 362.743 371.18C367.293 370.14 371.987 369.403 376.682 368.666C389.105 366.715 401.531 364.763 411.283 357.211C425.762 345.998 429.623 326.011 430.897 307.783C449.914 321.832 475.737 326.249 498.367 319.323C500.095 318.795 501.843 318.204 503.603 317.609C512.016 314.768 520.704 311.833 528.681 315.128C539.35 319.534 552.353 317.721 561.398 310.566C570.443 303.411 575.164 291.204 573.276 279.851C572.527 275.345 578.287 271.285 582.302 273.49C584.397 274.641 585.27 277.183 585.04 279.562C584.946 280.537 583.98 281.21 583.072 281.842C581.952 282.622 580.92 283.34 581.724 284.491C583.005 286.323 587.282 286.041 590.031 285.783C592.539 285.548 597.393 284.491 596.794 281.972C596.478 280.645 595.264 280.214 594.043 279.781C593.134 279.458 592.221 279.134 591.674 278.437C590.996 277.573 590.811 276.628 590.626 275.683C590.442 274.738 590.257 273.793 589.578 272.929L603.602 267.015C605.26 269.23 605.824 272.149 605.328 274.86C605.194 275.588 604.513 276.455 603.893 277.244C603.07 278.291 602.354 279.201 603.163 279.473C608.331 281.21 614.896 279.937 617.592 274.973C618.014 274.196 616.944 274.084 615.538 273.936C614.179 273.793 612.506 273.617 611.562 272.777C609.799 271.208 608.637 268.977 608.708 266.609C616.719 264.982 621.43 255.984 621.051 247.847C620.672 239.71 616.517 232.289 612.466 225.214C610.498 221.775 607.422 218.094 605.328 217.474C605.198 217.436 605.074 217.398 604.954 217.361C603.146 216.807 602.265 216.537 594.662 218.916C589.953 220.39 590.65 218.914 591.514 217.086C591.612 216.877 591.713 216.664 591.808 216.45C592.314 215.312 592.661 214.153 591.674 213.556C587.105 210.791 582.302 213.803 580.438 216.979C579.325 218.876 581.024 218.743 582.81 218.604C583.456 218.553 584.113 218.502 584.652 218.546C585.894 218.646 586.511 219.25 584.928 221.525C582.565 224.922 576.904 227.622 572.952 227.376C571.078 227.001 569.864 226.345 569.619 224.219C569.574 223.83 569.741 223.412 569.93 222.937C570.097 222.518 570.282 222.054 570.356 221.525C570.972 217.118 556.391 222.651 558.894 225.86C559.451 226.574 560.813 226.557 562.016 226.541C562.66 226.533 563.258 226.526 563.663 226.63C565.91 227.212 566.54 228.23 566.31 230.596C565.657 235.581 560.471 235.447 554.778 235.3C550.045 235.178 544.962 235.047 541.842 237.84C524.283 253.559 499.673 260.434 476.155 258.413C452.637 256.392 430.289 245.972 412.021 231.077C409.499 229.021 406.986 226.853 404.456 224.672C392.247 214.143 379.656 203.284 363.934 203.059C364.396 202.008 363.983 200.775 363.604 199.647C363.218 198.494 362.868 197.449 363.523 196.817C367.582 192.901 369.655 185.274 371.451 178.668C373.064 172.731 374.454 167.62 376.858 166.771C381.669 165.072 383.08 160.83 384.708 155.938C384.799 155.665 384.891 155.39 384.983 155.114C385.539 153.458 386.034 152.12 386.456 150.981C387.748 147.496 388.352 145.864 387.886 142.635C387.421 139.415 385.677 136.635 383.923 133.841C382.988 132.349 382.05 130.854 381.302 129.286C377.191 120.661 379.117 111.02 381.042 101.384C381.763 97.7747 382.483 94.1663 382.887 90.6127C384.367 77.5716 376.137 60.4381 363.287 63.3211C357.025 64.726 353.047 70.3602 349.265 75.7154C348.713 76.4974 348.165 77.2735 347.615 78.0296C343.296 83.9631 336.055 89.7184 329.26 86.912C317.922 82.2296 300.189 90.6127 298.518 99.3347C292.951 94.3377 289.292 99.4943 287.164 102.973C278.648 116.895 278.657 134.665 283.242 150.315C286.815 162.51 293.295 174.287 303.608 181.757C304.919 182.707 306.3 183.598 307.682 184.489C311.695 187.079 315.719 189.675 318.074 193.737C321.239 199.197 318.458 208.346 312.137 208.028C283.868 206.603 255.43 208.546 227.62 213.803C213.009 216.565 195.723 223.194 193.706 237.875C192.445 247.052 197.855 255.17 203.262 263.283C208.692 271.431 214.119 279.575 212.782 288.782C207.492 325.198 215.97 363.436 236.166 394.242C225.313 415.066 214.344 436.209 209.438 459.158C204.533 482.108 206.358 507.489 219.606 526.888C226.51 536.997 236.252 545.276 245.886 553.463C260.647 566.007 275.156 578.338 278.827 596.711C280.552 605.347 279.501 614.159 278.45 622.966C278.069 626.156 277.689 629.345 277.44 632.525C276.506 644.485 278.024 657.826 286.843 665.993C291.878 670.656 299.813 672.024 306.242 670.173C306.187 671.157 306.13 672.072 306.076 672.933C305.784 677.624 305.592 680.701 306.417 684.348C306.632 685.298 306.982 686.38 307.895 686.726C309.713 687.414 310.926 684.64 310.803 682.756C310.337 675.622 309.445 671.596 308.587 669.323C312.328 667.659 315.262 664.74 316.311 660.585C324.77 627.059 332.662 589.277 314.584 559.772C308.612 550.025 300.282 542.125 291.937 534.212C287.721 530.214 283.502 526.213 279.581 521.968C267.899 509.321 258.401 492.17 262.644 475.509C270.435 444.916 294.848 419.07 325.024 409.467C355.2 399.864 390.13 406.826 414.276 427.257C413.377 440.074 403.183 448.61 392.856 457.256C388.022 461.304 383.159 465.376 379.207 469.923C363.257 488.273 362.457 515.674 369.011 539.055C374.129 557.315 383.201 574.463 395.426 588.99C398.502 592.645 402.294 596.39 407.076 596.609C413.502 596.903 418.313 590.733 420.637 584.756C428.868 563.586 420.669 539.887 411.617 519.053C408.132 511.031 415.219 502.626 421.69 496.723L465.992 456.315C477.321 445.983 489.385 434.263 491.054 419.051C492.474 406.11 485.699 393.352 476.229 384.383C466.759 375.414 454.811 369.573 443.066 363.87L420.699 353.009C428.072 362.451 439.2 367.752 450.157 372.971C452.274 373.979 454.384 374.984 456.46 376.015C469.28 382.386 482.441 391.683 485.376 405.654C488.983 422.817 475.88 438.571 463.732 451.26C448.35 467.327 432.833 483.51 414.559 496.22C408.342 500.544 401.447 504.568 393.869 504.839C386.291 505.11 378.048 500.377 376.858 492.915C375.784 486.179 380.441 480.005 384.821 474.763L417.21 435.995C422.132 430.103 428.617 428.57 436.331 426.746C439.045 426.104 441.911 425.427 444.914 424.51C426.74 425.434 411.265 418.499 395.621 411.487ZM264.538 307.295C265.845 319.029 269.473 330.779 276.83 340.033C284.187 349.288 295.65 355.73 307.488 355.219C311.452 355.047 312.722 349.171 310.368 345.988C308.327 343.228 304.951 341.971 301.678 340.753C301.177 340.567 300.679 340.381 300.189 340.191C296.49 338.761 292.546 336.367 291.878 332.47C302.315 340.561 317.897 341.312 329.069 334.262C332.958 345.382 345.857 352.059 357.531 350.223C369.205 348.387 378.963 339.09 382.835 327.964C382.909 327.751 382.982 327.536 383.055 327.321C383.643 325.589 384.248 323.809 385.585 322.583C386.83 321.44 388.528 320.955 390.16 320.505L422.08 311.71C422.872 311.492 423.771 311.286 424.474 311.711C425.223 312.164 425.43 313.139 425.54 314.006C427.748 331.454 417.918 349.781 402.132 357.647C393.667 361.865 383.994 363.243 374.404 364.61C361.892 366.392 349.521 368.155 340.16 376.178C335.066 380.544 331.531 386.279 327.99 392.026C326.298 394.771 324.605 397.519 322.739 400.121C311.298 416.08 290.284 426.887 271.622 420.651C260.91 417.072 252.584 408.602 245.741 399.645C225.14 372.682 214.265 338.496 215.518 304.631C215.745 298.487 216.378 292.266 218.608 286.533C232.751 302.909 249.104 317.389 267.088 329.458C266.46 326.208 264.2 323.54 261.95 321.104C255.513 314.135 248.409 307.607 241.313 301.087C224.81 285.925 208.35 270.802 200.424 250.241C198.681 245.721 197.393 240.787 198.466 236.065C200.901 225.355 213.533 220.897 224.336 218.722C250.281 213.501 276.76 210.914 303.229 211.016C304.634 227.352 318.276 241.963 334.59 244.114C350.904 246.265 368.096 235.386 372.677 219.638C372.813 219.17 372.94 218.697 373.068 218.222C373.637 216.106 374.212 213.968 375.573 212.274C377.239 210.2 380.627 209.18 382.571 210.998C396.983 224.47 412.107 237.422 429.341 247.057C446.576 256.692 466.157 262.906 485.9 262.035C452.176 274.294 417.706 284.513 382.741 292.616C380.067 293.236 376.756 293.642 375.037 291.51C368.947 283.951 359.016 279.637 349.313 280.336C339.61 281.035 330.405 286.727 325.47 295.081C323.683 298.105 319.225 297.725 315.833 296.779C308.778 294.812 301.517 291.786 297.348 285.783C296.644 284.77 296.034 283.679 295.425 282.591C294.234 280.461 293.047 278.338 291.167 276.817C288.508 274.665 285.026 274.141 281.577 273.621C280.618 273.477 279.662 273.333 278.727 273.154C268.08 271.123 258.651 263.578 254.361 253.659C264.398 246.962 277.952 250.14 289.034 254.93C290.779 255.684 292.529 256.476 294.285 257.272C303.68 261.527 313.266 265.868 323.401 264.94C332.018 264.152 339.538 259.684 347.091 255.197C353.769 251.229 360.471 247.247 367.978 245.78C387.238 242.016 406.143 256.306 415.16 273.676C415.229 273.809 415.298 273.943 415.367 274.077C416.843 276.928 418.438 280.013 421.396 281.21C418.378 264.303 405.633 249.473 389.331 243.901C373.03 238.328 353.832 242.238 341.033 253.738C333.091 260.874 321.023 261.378 310.658 258.756C304.82 257.278 299.256 254.965 293.688 252.651C289.371 250.856 285.051 249.06 280.599 247.652C270.406 244.429 258.634 243.475 249.561 249.116C246.837 243.136 243.194 237.572 238.796 232.681C243.154 257.602 265.966 278.092 291.295 279.836L277.24 285.157C273.956 286.4 270.552 287.721 268.142 290.268C264.015 294.629 263.874 301.338 264.538 307.295ZM257.604 481.611C256.238 488.47 255.489 495.902 258.568 502.185C260.227 505.572 262.877 508.354 265.483 511.09L265.662 511.277C281.336 527.739 296.059 545.099 309.734 563.245C303.662 569.056 296.903 574.154 289.641 578.4C287.618 579.582 285.434 580.731 283.089 580.689C279.594 580.626 276.754 577.994 274.296 575.518C257.124 558.232 240.396 540.508 224.133 522.37C218.962 516.603 213.704 510.564 211.354 503.194C208.367 493.826 210.482 483.69 212.614 474.093C218.495 447.628 224.681 420.44 240.014 398.049C248.628 413.461 264.581 424.585 282.064 427.37C269.941 443.301 261.509 462.001 257.604 481.611ZM366.842 186.556C364.277 191.9 359.95 196.621 354.339 198.578C346.859 201.188 338.631 198.577 331.307 195.558C327.502 193.989 323.656 192.249 320.709 189.382C318.207 186.95 316.493 183.84 314.905 180.737C309.961 171.073 305.876 160.973 302.712 150.594C300.096 142.012 298.748 131.151 305.712 125.467C313.666 131.55 324.365 133.076 334.325 131.922C343.181 130.896 351.664 127.963 360.102 125.046C361.155 124.682 362.207 124.318 363.259 123.958C364.461 123.547 365.883 123.168 366.92 123.899C367.714 124.458 367.994 125.484 368.21 126.428C371.414 140.472 372.347 155.027 370.963 169.363C370.394 175.259 369.407 181.213 366.842 186.556ZM398.802 587.754C384.542 568.813 374.99 546.38 371.229 523.001C369.614 512.963 369.092 502.443 372.449 492.843C375.655 505.416 390.841 513.446 403.089 509.043C406.286 515.604 409.192 522.306 411.796 529.122C418.638 547.031 423.296 567.411 415.718 585.023C413.896 589.257 410.298 593.765 405.725 593.089C402.76 592.65 400.6 590.142 398.802 587.754ZM303.86 98.6838C307.465 92.2502 315.397 88.9816 322.766 89.6C324.485 89.7443 326.198 89.9619 327.877 90.1752C333.195 90.8509 338.169 91.4828 341.925 89.6C347.644 86.7334 350.033 82.7484 352.466 78.6923C354.09 75.9846 355.732 73.2453 358.397 70.7857C360.083 69.2297 361.962 67.7365 364.207 67.2446C368.796 66.2387 373.203 69.7213 375.817 73.6125C381.428 81.9641 382.168 93.3311 377.688 102.335C372.754 112.251 362.583 118.456 352.407 122.894C345.081 126.089 337.328 128.68 329.333 128.845C321.337 129.01 313.017 126.487 307.504 120.715C301.991 114.942 299.962 105.641 303.86 98.6838ZM281.316 620.522C280.973 617.989 280.703 615.159 282.246 613.117C288.568 613.684 295.094 611.401 299.672 607.02C298.28 604.156 293.969 604.35 291.246 606.012C290.2 606.651 289.24 607.434 288.283 608.216C286.747 609.47 285.217 610.719 283.354 611.349C281.553 609.573 281.876 606.439 283.374 604.402C284.872 602.366 287.226 601.165 289.492 600.036L303.762 592.924C301.02 590.22 296.45 590.185 292.951 591.803C289.452 593.42 286.775 596.356 284.198 599.216C281.338 594.239 283.379 587.096 288.442 584.365L306.929 574.396C308.365 573.622 309.888 572.826 311.52 572.874C315.055 572.979 317.187 576.792 318.154 580.18C320.951 589.984 320.098 600.404 319.222 610.558C317.933 625.49 316.624 640.537 312.421 654.927C310.972 659.887 308.686 665.289 303.874 667.212C298.654 669.298 292.514 666.132 289.393 661.471C286.271 656.81 285.441 651.04 284.69 645.487L281.316 620.522ZM527.776 281.972C529.777 281.728 531.511 279.424 530.535 277.666L523.663 265.28C522.757 263.648 521.831 261.947 521.71 260.086C521.59 258.226 522.523 256.157 524.303 255.582C526.851 254.758 529.194 257.213 530.669 259.441C533.777 264.136 536.487 269.091 538.76 274.238C541.458 270.656 538.511 265.71 535.818 262.124C533.126 258.539 530.769 253.041 534.137 250.075C537.463 247.146 542.749 250.148 545.298 253.77C546.636 255.673 547.736 257.783 548.832 259.886C550.956 263.959 553.064 268.003 556.859 270.446C558.498 269.448 557.682 266.946 556.688 265.308L543.953 244.303C542.815 242.425 544.697 239.878 546.876 239.561C549.055 239.244 551.158 240.405 552.979 241.64C561.736 247.581 568.71 256.674 570.356 267.102C572.001 277.53 567.533 289.115 558.35 294.379C555.573 295.971 552.479 296.963 549.334 297.572C530.19 301.281 509.238 289.069 503.1 270.625C502.161 267.802 501.934 263.946 504.6 262.609C506.632 261.59 509.087 262.801 510.78 264.316C513.225 266.505 514.972 269.306 516.72 272.108C518.404 274.807 520.089 277.508 522.399 279.665C523.871 281.039 525.774 282.216 527.776 281.972ZM328.066 302.696C330.418 302.768 332.855 302.843 334.81 304.105C336.967 305.496 337.907 309.018 335.864 310.571C335.091 311.158 334.088 311.329 333.128 311.483C324.206 312.908 314.027 314.017 307.09 308.246C305.531 308.955 305.076 311.093 305.712 312.679C306.349 314.265 307.765 315.394 309.183 316.354C315.477 320.619 323.013 323.041 330.622 323.246C325.639 327.546 318.345 329.01 312.079 326.966C309.62 326.163 306.16 325.248 305.072 327.588C309.897 332.184 317.262 332.537 323.937 332.623C312.013 338.285 296.368 334.598 288.253 324.213C287.676 323.473 286.373 323.851 285.914 324.669C285.455 325.487 285.58 326.493 285.718 327.42C286.42 332.138 287.384 337.326 291.143 340.28C293.132 341.844 295.601 342.525 298.071 343.207C299.056 343.478 300.042 343.75 300.998 344.079C304.349 345.229 307.813 347.754 307.845 351.286C297.049 352.213 286.48 346.117 279.945 337.505C273.409 328.894 270.406 318.097 269.022 307.389C268.664 304.621 268.412 301.755 269.219 299.082C270.826 293.761 276.102 290.544 280.964 287.822C284.491 285.847 289.355 284.028 292.152 286.939C301.267 296.426 314.171 302.194 327.343 302.672C327.583 302.681 327.824 302.688 328.066 302.696ZM351.222 321.824L489.385 283.714C495.401 282.054 502.522 280.603 507.337 284.563C452.635 301.407 397.231 315.992 341.317 328.267C338.273 328.935 333.934 328.801 333.403 325.741C335.241 325.809 335.233 323.756 335.226 321.585C335.218 319.448 335.21 317.196 336.962 316.741L497.968 274.84C498.942 274.587 500.177 274.418 500.774 275.224C501.745 276.536 499.758 278.001 498.182 278.437L344.625 320.974C346.018 322.882 348.939 322.453 351.222 321.824ZM506.998 310.842C497.03 317.497 484.376 319.244 472.46 317.836C460.545 316.429 449.186 312.108 438.145 307.429L504.248 288.967C506.565 288.32 509.426 287.811 511.061 289.571C524.474 304.011 548.881 306.588 565.034 295.269C563.15 304.255 554.993 311.566 545.826 312.483C540.604 313.006 535.461 311.656 530.345 310.312C528.988 309.956 527.633 309.6 526.279 309.279C519.818 307.751 512.514 307.159 506.998 310.842ZM324.325 200.258C325.269 198.911 327.3 198.169 328.609 199.168C336.28 205.026 346.944 206.756 356.083 203.624C359 202.625 362.319 204.694 363.523 207.524C364.727 210.354 364.241 213.632 363.183 216.519C359.962 225.31 351.291 231.85 341.925 232.554C332.559 233.258 323.002 228.087 318.494 219.877C317.103 217.342 316.638 213.369 319.323 212.277C322 211.187 322.767 207.829 323.056 204.961L323.065 204.874C323.227 203.266 323.397 201.58 324.325 200.258ZM579.77 270.631C578.691 270.922 577.549 271.208 576.47 270.92C575.39 270.632 574.437 269.55 574.709 268.47C584.371 266.941 593.697 263.344 601.873 257.992C605.058 255.907 608.438 252.274 606.831 248.832C605.765 246.55 602.905 245.672 600.38 245.774C596.725 245.923 593.318 247.557 590.031 249.159L572.302 257.8C571.478 256.827 571.82 255.263 572.692 254.332C573.532 253.435 574.724 252.975 575.875 252.531L576.003 252.481C584.052 249.368 591.55 244.85 598.054 239.192C599.958 237.536 598.969 234.122 596.794 232.837C594.619 231.552 591.886 231.805 589.4 232.268C582.19 233.61 575.251 236.382 569.107 240.374C566.083 242.34 561.789 244.516 559.315 241.895C565.992 235.152 575.145 231.553 584.012 228.137L601.171 221.525C602.364 221.066 603.654 220.599 604.893 220.915C606.579 221.345 607.567 223.043 608.331 224.602C612.665 233.445 615.855 242.843 617.799 252.491C618.081 253.891 618.315 255.438 617.592 256.67C616.936 257.788 615.657 258.36 614.457 258.854C603.161 263.51 591.568 267.446 579.77 270.631ZM498.619 271.221C497.977 271.902 497.019 272.168 496.111 272.405L338.539 313.513C340.985 307.626 348.176 305.612 354.424 304.253C397.899 294.798 440.488 281.76 483.031 268.736C485.45 267.995 487.869 267.255 490.288 266.515C492.387 265.873 494.673 265.234 496.73 266.001C498.786 266.768 500.123 269.627 498.619 271.221ZM285.355 114.443C286.32 111.295 287.898 106.944 290.368 104.756C291.627 103.641 293.332 102.451 294.848 103.185C295.801 103.646 296.268 104.712 296.658 105.693C297.243 107.16 298.077 109.127 298.911 111.093C299.745 113.06 300.579 115.027 301.163 116.494C301.983 118.552 302.775 121.75 301.273 122.789C294.848 127.233 296.31 143.456 299.187 150.921C299.874 152.703 300.463 156.356 299.871 159.018C299.279 161.681 296.31 164.076 293.882 162.817C292.489 162.095 290.279 158.269 289.479 156.883C289.406 156.756 289.345 156.65 289.297 156.568C277.461 136.389 284.022 118.16 285.203 114.879C285.276 114.675 285.329 114.529 285.355 114.443ZM337.279 332.944C347.801 331.001 358.215 328.476 368.456 325.384C368.615 325.336 368.774 325.288 368.933 325.24C372.121 324.274 375.356 323.295 378.682 323.311C378.265 328.558 375.34 333.418 371.328 336.841C367.316 340.263 362.292 342.348 357.146 343.534C353.244 344.433 349.13 344.837 345.252 343.839C341.375 342.84 337.758 340.258 336.284 336.548C335.756 335.218 335.868 333.204 337.279 332.944ZM350.324 301.645C343.613 302.593 336.52 302.107 330.479 299.045C329.202 298.398 329.863 296.452 330.765 295.343C335.403 289.641 342.428 285.931 349.767 285.307C357.106 284.684 364.66 287.155 370.2 291.992C371.116 292.792 372.046 294.057 371.428 295.102C371.103 295.652 370.451 295.906 369.848 296.122C363.469 298.403 357.035 300.698 350.324 301.645ZM329.648 239.619C323.682 237.755 319.012 233.023 315.601 227.801C313.533 224.636 311.841 221.254 310.148 217.871C309.048 215.672 307.948 213.474 306.744 211.333C308.955 210.967 311.107 212.469 312.333 214.338C313.209 215.673 313.739 217.183 314.27 218.695C314.483 219.3 314.696 219.906 314.93 220.5C319.342 231.661 332.481 238.354 344.314 236.142C356.147 233.93 365.742 223.545 367.794 211.725C368.009 210.483 368.401 208.946 369.641 208.7C370.982 209.815 371.042 211.832 370.805 213.556C369.088 226.071 357.702 235.487 345.539 239.043C340.377 240.552 334.781 241.223 329.648 239.619ZM566.183 247.112C573.638 241.314 582.426 237.227 591.674 235.256C592.785 235.019 594.451 235.263 594.351 236.39C594.319 236.746 594.087 237.049 593.858 237.324C589.264 242.846 582.539 246.077 576.031 249.143C574.208 250.002 572.286 250.881 570.273 250.757C568.26 250.633 566.18 249.122 566.183 247.112ZM598.447 249.891C599.405 249.586 600.454 249.3 601.395 249.652C602.337 250.004 602.959 251.293 602.297 252.046C596.589 258.539 588.048 261.743 579.716 264.102C577.537 264.719 574.334 264.703 573.962 262.477C581.345 256.964 589.659 252.69 598.447 249.891ZM374.295 154.768C374.777 151.797 375.353 148.247 375.353 145.951C375.353 142.797 375.833 138.939 378.785 137.816C381.614 136.739 384.811 139.322 385.356 142.291C385.901 145.26 382.536 157.246 380.864 159.764C380.101 160.914 379.212 162.061 377.956 162.639C376.699 163.218 374.988 163.03 374.219 161.884C373.818 161.287 373.728 160.542 373.66 159.827C373.591 159.111 373.914 157.121 374.295 154.768ZM374.363 117.431C374.51 117.642 374.574 117.898 374.633 118.149C375.859 123.334 376.334 128.695 376.04 134.014C374.634 134.644 373.47 132.774 373.056 131.294L371.289 124.963C370.594 122.471 370.033 119.421 371.89 117.614C372.564 116.958 373.825 116.66 374.363 117.431ZM299.967 173.848C298.14 172.59 296.658 171.57 296.658 168.458C296.658 164.776 300.652 161.187 301.522 161.884C304.686 164.418 310.373 176.983 310.658 181.018C308.277 180.049 306.522 178.728 303.318 176.315C302.62 175.79 301.854 175.214 300.998 174.577C300.647 174.317 300.301 174.079 299.967 173.848ZM320.733 317.399L327.186 316.039C327.991 315.87 328.969 315.753 329.508 316.373C330.545 317.568 328.502 319.077 326.917 319.106C324.748 319.146 322.572 318.546 320.733 317.399ZM516.627 258.318C517.795 258.45 518.781 259.935 518.013 260.821L517.942 260.901C516.934 261.669 515.774 262.479 514.518 262.299C513.262 262.118 512.378 260.285 513.417 259.561C514.38 258.889 515.46 258.186 516.627 258.318ZM525.912 277.543L524.445 277.329L524.302 277.315L521.195 272.552C523.92 271.673 526.956 274.886 525.912 277.543ZM519.087 268.947C517.893 269.004 516.935 267.521 517.481 266.462C518.028 265.403 519.797 265.318 520.444 266.319C521.091 267.321 520.281 268.889 519.087 268.947ZM356.197 113.604L344.979 118.897C336.408 122.94 325.643 121.893 318.019 116.273C316.943 116.025 316.01 117.306 316.192 118.392C316.374 119.477 317.259 120.298 318.147 120.954C324.293 125.493 332.697 126.062 340.111 124.18C347.525 122.299 354.174 118.249 360.615 114.136C360.149 112.507 357.734 112.879 356.197 113.604ZM345.65 138.159C344.729 138.98 343.133 137.865 343.148 136.633C343.163 135.4 344.165 134.41 345.2 133.734C349.536 130.899 355.754 131.339 359.645 134.756C358.786 136.163 356.779 135.837 355.088 135.562C354.956 135.54 354.825 135.519 354.697 135.499C351.487 134.996 348.072 136 345.65 138.159ZM324.875 142.815C326.346 142.48 327.904 141.358 327.764 139.86C327.646 138.598 326.371 137.76 325.145 137.42C322.255 136.619 318.936 137.66 317.028 139.967C315.12 142.274 314.729 145.72 316.071 148.393C316.718 147.817 317.244 147.109 317.768 146.403C318.545 145.357 319.316 144.319 320.463 143.738C321.33 143.298 322.302 143.181 323.278 143.063C323.815 142.998 324.352 142.934 324.875 142.815ZM354.169 159.434C355.949 159.409 357.15 157.576 357.597 155.859C358.517 152.328 357.581 148.371 355.175 145.621C354.086 144.376 352.23 143.34 350.844 144.246C350.416 144.526 350.108 144.957 349.859 145.404C348.121 148.534 348.992 152.448 350.343 155.763C351.053 157.504 352.282 159.461 354.169 159.434ZM331.663 159.441L331.133 153.935C330.931 151.84 330.481 149.376 328.565 148.49C325.946 147.279 323.181 150.18 322.495 152.973C321.758 155.973 322.184 159.241 323.664 161.955C325.007 164.416 328.35 166.478 330.486 164.656C331.901 163.448 331.841 161.289 331.663 159.441ZM327.24 572.145C341.997 571.707 356.755 571.276 371.512 570.85C373.133 570.803 374.874 570.789 376.219 571.692C377.467 572.529 378.15 574.128 377.889 575.604L334.567 576.417C332.957 576.447 331.292 576.467 329.811 575.837C328.331 575.208 327.081 573.741 327.24 572.145ZM342.399 177.261C340.818 176.811 341.563 174.472 342.307 173.01C344.71 168.286 343.356 162.493 340.95 157.771L340.89 157.655C340.356 156.609 339.786 155.491 339.975 154.339C340.172 153.145 341.683 152.151 342.628 152.913C342.912 153.142 343.084 153.477 343.248 153.803C345.055 157.389 346.827 161.075 347.415 165.044C348.004 169.013 347.246 173.37 344.514 176.318C343.961 176.915 343.182 177.484 342.399 177.261ZM344.759 192.305C352.166 191.122 358.107 183.935 357.853 176.464C357.838 176.02 357.798 175.557 357.569 175.176C356.926 174.106 355.177 174.356 354.351 175.293C353.672 176.063 353.414 177.085 353.159 178.093L353.159 178.093C353.104 178.31 353.05 178.526 352.991 178.739C352.001 182.335 349.537 185.504 346.29 187.359C346.132 187.449 345.971 187.538 345.808 187.627C344.86 188.149 343.885 188.686 343.387 189.625C342.805 190.724 343.527 192.501 344.759 192.305ZM389.987 642.212C390.303 651.085 391.292 679.239 390.136 684.348C389.922 685.298 389.572 686.38 388.659 686.726C386.84 687.414 385.773 684.694 385.751 682.756C385.568 667.049 385.385 648.592 385.202 630.135V630.134C385.019 611.677 384.836 593.22 384.653 577.513C387.668 577.513 388.659 588.111 388.659 594.956C388.659 617.955 389.987 642.212 389.987 642.212ZM286.244 447.136C285.803 446.88 285.289 446.623 284.762 446.359C282.662 445.309 280.352 444.153 281.568 442.525C313.716 443.912 345.938 443.591 378.052 441.562C387.147 440.987 397.406 439.661 402.813 432.351C403.029 432.058 403.238 431.756 403.447 431.453C404.166 430.411 404.888 429.364 405.946 428.688C407.31 427.816 409.494 427.927 410.176 429.392C409.213 437.228 401.842 443.761 393.918 443.8C390.451 443.817 389.276 448.326 388.837 451.753C388.397 455.179 386.025 459.569 382.771 458.377C383.592 455.567 384.124 452.674 384.355 449.756C384.433 448.778 384.412 447.643 383.653 447.018C383.063 446.533 382.225 446.531 381.46 446.553L296.61 448.965C296.072 448.98 295.479 449.017 295.095 449.393C294.626 449.851 294.669 450.602 294.746 451.252L300.768 502.411C300.9 503.536 301.359 504.974 302.497 504.98L350.597 505.244C353.154 505.258 356.793 507.205 355.231 509.222C354.592 510.048 353.392 510.124 352.346 510.128L303.393 510.326C301.326 510.334 300.742 513.134 300.818 515.192L301.597 536.243C295.717 532.068 295.313 523.687 295.272 516.493C295.152 495.529 293.272 474.574 289.657 453.921C289.205 451.343 288.513 448.453 286.244 447.136Z" fill="#00160A"/>
<path fill-rule="evenodd" clip-rule="evenodd" d="M395.16 546.515C397.174 541.964 401.866 538.712 406.85 538.413C408.145 538.336 409.616 538.526 410.407 539.551C411.198 540.576 410.519 542.523 409.232 542.355C406.143 541.951 403.06 543.522 400.892 545.751C398.725 547.981 397.311 550.813 395.931 553.596C393.948 551.978 394.126 548.852 395.16 546.515Z" fill="#00160A"/>
<path fill-rule="evenodd" clip-rule="evenodd" d="M615.264 110.974C617.797 111.213 620.143 109.75 622.243 108.318C628.08 104.335 634.367 98.906 633.983 91.8649C633.862 89.6288 633.053 87.525 632.244 85.4187C631.898 84.5173 631.551 83.6155 631.258 82.7027C629.729 77.9356 629.672 72.9092 629.615 67.8699C629.569 63.7366 629.522 59.5945 628.662 55.5796C628.354 54.1398 627.737 52.5042 626.319 52.0947C625.519 51.864 624.668 52.0984 623.87 52.332L598.371 59.7918C593.571 61.1961 592.543 67.4095 592.405 72.3949L592.031 85.9598C590.515 86.1492 589.077 85.557 587.638 84.9647C587.089 84.7386 586.54 84.5126 585.987 84.33C580.538 82.5321 573.95 85.5551 571.775 90.8505C569.601 96.1459 572.172 102.908 577.321 105.435C582.47 107.962 589.413 105.87 592.296 100.923C594.254 97.5638 594.37 93.4849 594.435 89.6L594.555 82.3055C594.6 79.5793 597.668 78.0675 600.261 77.2008C608.247 74.5313 616.307 72.0812 624.429 69.8541C625.231 69.634 626.229 69.4689 626.777 70.0932C627.074 70.4306 627.138 70.9058 627.19 71.3512L628.301 80.9015C628.466 82.3179 628.306 84.2225 626.908 84.5228C620.157 85.9729 614.155 90.5699 611.01 96.7003C609.67 99.3119 608.824 102.311 609.418 105.185C610.011 108.058 612.335 110.699 615.264 110.974ZM625.578 56.3434C625.863 56.6318 625.945 57.0567 626.014 57.4552L626.788 61.9383C626.992 63.1225 627.186 64.3945 626.67 65.4814C625.856 67.1984 623.694 67.715 621.818 68.0839C617.484 68.9361 613.206 70.067 609.02 71.4672C605.521 72.6375 602.089 73.9945 598.659 75.3509C598.369 75.4655 598.079 75.5801 597.789 75.6946C596.975 76.0161 595.853 76.2479 595.387 75.5118C595.27 75.3275 595.221 75.1096 595.181 74.8955C594.362 70.5483 596.376 65.8064 600.084 63.3516C602.126 61.9996 604.54 61.3363 606.907 60.6936L623.551 56.1754C624.239 55.9887 625.078 55.8385 625.578 56.3434ZM591.998 92.0932C591.928 96.295 590.912 101.099 587.175 103.133C584.209 104.746 580.337 103.971 577.647 101.944C574.486 99.5646 572.751 94.8258 575.061 91.6372C576.023 90.3091 577.526 89.4482 579.081 88.885C582.655 87.5913 586.738 87.7213 590.219 89.2397C590.774 89.4821 591.342 89.7815 591.663 90.289C591.996 90.8154 592.008 91.473 591.998 92.0932ZM146.501 101.482C146.933 102.808 148.814 102.757 150.176 102.438L162.561 99.5421C162.216 96.3267 161.589 93.1413 160.691 90.0338C160.426 89.118 160.107 88.1601 159.386 87.5333C158.271 86.5626 156.601 86.6969 155.132 86.8874L136.11 89.3548C134.803 89.5242 133.06 90.3704 133.558 91.5856C137.912 102.232 141.347 113.253 143.812 124.485C144.283 126.633 144.204 129.65 142.048 130.122C135.804 131.486 130.461 136.37 128.559 142.45C127.974 144.321 127.708 146.399 128.465 148.207C128.875 149.187 129.564 150.03 130.335 150.762C134.039 154.278 139.945 155.255 144.59 153.122C149.235 150.988 152.325 145.878 152.047 140.789C151.942 138.867 151.405 136.997 150.872 135.147L138.712 92.9693L154.812 91.7104C156.43 91.8008 157.113 94.0904 156.258 95.4614C155.404 96.8325 153.707 97.4028 152.119 97.7211C151.89 97.7669 151.659 97.8103 151.428 97.8537C150.052 98.112 148.652 98.3747 147.536 99.1947C146.814 99.7255 146.224 100.631 146.501 101.482Z" fill="#FFB61D"/>
<path fill-rule="evenodd" clip-rule="evenodd" d="M392.508 532.874C392.025 533.499 390.934 533.321 390.468 532.681C390.003 532.042 390.044 531.157 390.298 530.409C390.752 529.069 391.78 528.004 392.858 527.083C395.566 524.769 398.789 523.059 402.227 522.111C403.582 521.737 405.163 521.521 406.285 522.365C407.407 523.21 407.226 525.465 405.826 525.59C400.636 526.053 395.687 528.76 392.508 532.874Z" fill="#00160A"/>
</svg>
