<svg width="750" height="750" viewBox="0 0 750 750" fill="none" xmlns="http://www.w3.org/2000/svg">
<rect width="750" height="750" fill="none"/>
<path fill-rule="evenodd" clip-rule="evenodd" d="M119.966 522.555C176.672 561.874 241.081 526.892 289.348 512.584C327.686 501.22 455.925 557.316 519.636 557.316C583.347 557.316 735.264 506.678 628.525 343.637C481.358 118.841 384.039 191.464 289.348 269.454C194.657 347.445 194.657 302.89 136.011 347.445C77.3646 392 63.2605 483.235 119.966 522.555Z" />
<path fill-rule="evenodd" clip-rule="evenodd" d="M80.6048 429.65C84.5235 426.959 89.7497 426.783 94.3159 428.103C98.8822 429.424 102.934 432.072 106.86 434.752C121.865 444.991 136.194 456.221 149.724 468.343C152.351 470.697 154.976 473.116 156.938 476.048C160.794 481.808 161.51 490.146 156.991 495.402C153.772 499.146 148.497 500.672 143.576 500.264C138.655 499.856 134.029 497.744 129.788 495.213C118.266 488.338 108.975 478.327 98.1919 470.342C91.1555 465.132 83.2643 460.569 78.4638 453.247C73.6632 445.925 73.3867 434.605 80.6048 429.65" fill="white"/>
<path d="M499.482 302.426C497.67 301.53 496.998 299.313 496.672 297.318C495.213 288.401 497.028 278.985 501.696 271.249C504.145 267.192 507.899 263.314 512.634 263.103C515.96 262.955 519.172 264.727 521.356 267.241C523.539 269.754 524.81 272.937 525.661 276.155C527.563 283.341 529.071 297.084 526.095 302.112C523.119 307.139 500.498 304.64 499.482 302.426Z" fill="white"/>
<path d="M480.618 359.253C476.922 347.577 475.607 335.152 476.777 322.96C476.887 321.816 477.082 320.552 477.976 319.829C478.869 319.106 543.96 314.332 546.43 315.4C548.009 327.058 548.561 338.854 548.076 350.609C547.905 354.751 546.411 360.123 542.267 360.224C524.559 360.659 506.852 361.093 489.144 361.528C488.143 361.552 481.945 363.442 480.618 359.253Z" fill="white"/>
<path fill-rule="evenodd" clip-rule="evenodd" d="M460.631 440.95C460.072 423.855 458.415 385.948 464.78 382.415C483.248 372.162 479.403 360.318 487.665 359.839C500.333 359.105 534.716 352.239 538.679 364.294C542.643 376.348 538.464 378.755 546.089 382.415C558.686 388.463 562.725 383.616 569.564 399.518C571.518 404.061 571.348 409.273 571.606 414.211C572.207 425.683 571.374 437.208 572.137 448.671C572.894 460.044 574.8 518.428 569.564 536.035C567.06 544.454 530.691 539.506 520.905 538.634C502.69 537.01 482.574 540.262 464.78 536.035C464.78 536.035 461.696 473.523 460.631 440.95Z" fill="white"/>
<path d="M415.577 311.153C418.677 310.494 420.885 314.026 422.025 316.982C431.511 341.59 437.778 367.3 445.884 392.396C460.283 436.977 480.512 479.719 491.372 525.292C491.865 527.36 492.239 529.827 490.769 531.363C489.627 532.556 487.8 532.696 486.149 532.76C446.808 534.288 407.451 535.378 368.086 536.03C367.163 536.046 366.177 536.043 365.406 535.536C364.592 535 364.206 534.025 363.867 533.112C342.766 476.219 325.04 418.074 310.812 359.086C310.465 357.648 302.479 319.622 302.919 318.657C303.533 317.314 305.215 316.911 306.675 316.693C342.688 311.308 379.961 318.731 415.577 311.153Z" fill="white"/>
<path d="M303.666 335.349C304.96 336.381 305.196 338.221 305.334 339.87C306.388 352.453 307.443 365.036 308.497 377.62C308.579 378.592 308.638 379.653 308.08 380.454C307.319 381.546 305.781 381.674 304.45 381.698C265.703 382.386 226.957 383.074 188.21 383.762C186.322 383.796 184.253 383.768 182.808 382.552C181.426 381.387 181.012 379.457 180.76 377.668C180.261 374.131 180.067 370.552 180.182 366.982C180.228 365.531 179.872 357.802 177.885 357.056C174.427 355.757 172.282 352.126 171.707 348.477C171.132 344.828 171.852 341.114 172.57 337.49C173.009 335.272 173.528 332.904 175.171 331.35C176.88 329.733 179.395 329.385 181.736 329.147C191.756 328.128 201.836 327.687 211.907 327.827C224.068 327.997 236.2 329.012 248.32 330.026C265.635 331.475 282.95 332.924 300.264 334.373C301.458 334.473 302.73 334.602 303.666 335.349Z" fill="white"/>
<path d="M301.258 388.307C304.28 433.512 303.775 478.952 299.747 524.078C299.585 525.901 299.37 527.841 298.214 529.259C296.477 531.389 293.34 531.557 290.592 531.547C259.728 531.446 228.865 531.023 198.009 530.279C196.728 530.248 195.238 530.106 194.541 529.031C194.16 528.444 194.116 527.708 194.084 527.009C192.043 482.52 190.003 437.944 192.364 393.471C192.494 391.004 193.823 387.633 196.185 388.359C197.843 388.868 275.903 387.633 301.258 388.307Z" fill="white"/>
<path fill-rule="evenodd" clip-rule="evenodd" d="M522.741 298.224C521.158 297.591 520.923 295.484 520.955 293.779C520.97 293.014 520.987 292.246 521.005 291.477C521.177 283.979 521.351 276.357 518.853 269.321C518.152 267.344 517.057 265.259 515.084 264.544C511.879 263.382 508.767 266.458 507.042 269.399C503.315 275.753 501.32 283.11 501.327 290.476L501.327 290.6C501.33 292.963 501.333 295.685 499.482 297.133C497.669 296.238 496.998 294.02 496.671 292.025C495.212 283.108 497.027 273.693 501.695 265.957C504.144 261.899 507.899 258.022 512.633 257.811C515.959 257.662 519.171 259.435 521.355 261.948C523.539 264.461 524.809 267.644 525.661 270.863C527.562 278.048 527.549 285.603 527.012 293.017C526.916 294.331 526.788 295.699 526.094 296.819C525.401 297.939 523.964 298.713 522.741 298.224ZM461.371 403.706L462.546 423.287C459.901 414.92 457.231 406.416 457.022 397.643C456.812 388.87 459.392 379.635 465.827 373.668C467.438 372.174 469.248 370.919 471.057 369.664L471.058 369.664C472.866 368.41 474.673 367.156 476.284 365.664C479.506 362.677 481.944 358.149 480.618 353.961C476.921 342.284 475.606 329.859 476.776 317.667C476.886 316.523 477.081 315.259 477.975 314.536C478.869 313.813 480.618 314.286 480.551 315.434C479.911 326.392 480.893 337.444 483.458 348.117C483.667 348.988 483.926 349.921 484.627 350.479C485.301 351.016 486.225 351.079 487.086 351.117C503.579 351.854 520.107 351.83 536.598 351.045C539.482 350.908 543.275 349.837 543.211 346.95L542.521 315.582C542.462 312.892 543.959 309.039 546.429 310.107C548.009 321.765 548.56 333.562 548.076 345.316C547.905 349.458 546.41 354.83 542.266 354.932L489.144 356.235C488.143 356.259 486.841 356.544 486.741 357.54C486.171 363.239 481.711 367.734 477.135 371.179C476.286 371.818 475.418 372.445 474.548 373.073L474.548 373.073C470.732 375.829 466.883 378.608 464.432 382.576C460.628 388.733 460.937 396.482 461.371 403.706ZM509.622 415.544C509.726 413.344 509.884 411.005 511.176 409.221C513.231 406.382 517.251 406.029 520.754 405.934L554.375 405.021C556.088 404.975 557.958 404.978 559.299 406.046C561.069 407.456 561.161 410.065 561.102 412.328C561.033 414.935 560.945 417.627 559.843 419.991C558.741 422.354 556.341 424.319 553.745 424.07C542.409 422.985 531.037 422.279 519.654 421.953C517.474 421.891 514.468 422.662 514.686 424.832C516.68 444.743 516.5 464.872 514.15 484.745C513.841 487.356 517.358 488.457 519.985 488.586L544.509 489.791C546.444 489.886 548.939 490.483 549.114 492.412C549.324 494.735 546.063 495.47 543.735 495.324L516.834 493.631C514.586 493.489 512.134 493.261 510.516 491.695C508.723 489.959 508.561 487.186 508.522 484.691C508.162 461.638 508.529 438.574 509.622 415.544ZM571.092 523.965C572.256 484.882 572.162 445.76 570.813 406.682C570.62 401.071 570.386 395.379 568.676 390.031C566.967 384.684 563.571 379.632 558.528 377.164C556.876 376.355 555.006 375.761 553.143 375.17L553.143 375.17L553.143 375.17C548.772 373.781 544.445 372.407 543.092 368.307C542.737 367.232 542.66 366.087 542.583 364.945C542.49 363.555 542.397 362.171 541.804 360.928C540.724 358.663 536.449 358.168 536.297 360.673C535.702 370.418 543.403 379.965 553.053 381.446C558.122 382.224 562.066 386.557 563.868 391.358C565.671 396.16 565.721 401.415 565.742 406.543C565.909 446.416 565.679 486.29 565.053 526.159C565.035 527.279 564.966 528.525 564.162 529.306C563.4 530.046 562.23 530.119 561.168 530.138C551.617 530.302 542.064 529.526 532.52 528.752C519.564 527.7 506.624 526.65 493.722 527.952C491.466 528.179 488.477 530.357 490.117 531.923C490.634 532.416 491.412 532.482 492.124 532.521L559.709 536.238C562.105 536.369 564.656 536.467 566.737 535.271C570.405 533.164 570.967 528.194 571.092 523.965ZM507.592 303.086C498.083 302.4 488.193 302.504 479.474 306.357C478.086 306.971 476.528 308.61 477.568 309.715C487.719 304.656 499.726 305.569 510.962 307.115C511.86 307.239 512.762 307.366 513.665 307.493C524.051 308.955 534.684 310.451 544.715 307.578C546.25 307.138 548.092 306.05 547.746 304.49C547.388 302.877 545.161 302.736 543.529 302.996C542.921 303.093 542.313 303.193 541.705 303.293L541.705 303.293L541.704 303.293L541.703 303.293L541.703 303.293L541.702 303.294C539.847 303.599 537.992 303.905 536.124 304.115C528.789 304.94 521.407 304.281 514.035 303.624C511.886 303.432 509.738 303.24 507.592 303.086ZM526.409 449.09C524.504 449.062 522.476 448.997 520.904 447.922C521.459 446.934 522.782 446.76 523.913 446.7L544.861 445.577C545.912 445.521 547.199 445.591 547.683 446.526C548.119 447.367 547.55 448.447 546.719 448.902C545.889 449.358 544.893 449.355 543.946 449.342L526.409 449.09ZM550.094 431.471L523.938 432.767C522.498 432.838 520.649 433.27 520.491 434.702L551.257 435.806C552.505 435.85 554.038 435.733 554.572 434.603C555.045 433.604 554.336 432.367 553.348 431.87C552.36 431.373 551.199 431.417 550.094 431.471ZM204.938 478.585C218.508 475.696 232.511 474.853 246.328 476.094L246.538 476.113C251.041 476.518 256.003 476.965 259.595 474.243C264.604 470.449 264.108 462.938 263.422 456.692C261.848 442.378 261.889 427.888 263.543 413.583C263.796 411.398 262.195 409.338 260.229 408.352C258.263 407.367 255.996 407.225 253.8 407.109C237.977 406.278 222.131 405.874 206.286 405.898C205.26 405.9 204.924 404.322 205.606 403.556C206.288 402.79 207.419 402.662 208.442 402.59C224.103 401.488 239.846 401.559 255.497 402.803C259.933 403.156 265.061 404.04 267.199 407.944C268.297 409.949 268.33 412.345 268.337 414.631L268.487 463.801C268.498 467.368 268.466 471.11 266.752 474.239C262.899 481.274 253.121 481.674 245.116 481.161L204.938 478.585ZM306.676 311.4C323.264 308.92 340.119 309.157 356.957 309.394C376.674 309.671 396.367 309.948 415.578 305.861C418.677 305.201 420.886 308.733 422.026 311.69C428.069 327.365 432.805 343.488 437.543 359.615C440.243 368.804 442.942 377.994 445.884 387.103C451.423 404.252 457.824 421.128 464.223 437.997L464.223 437.998L464.223 437.998L464.223 437.998L464.223 437.999L464.223 437.999L464.224 437.999C474.46 464.986 484.69 491.957 491.372 519.999C491.865 522.067 492.24 524.534 490.77 526.07C489.627 527.263 487.8 527.403 486.15 527.467C446.809 528.995 407.451 530.086 368.086 530.738C367.163 530.753 366.177 530.751 365.407 530.243C364.593 529.707 364.206 528.733 363.868 527.819C342.767 470.926 325.041 412.782 310.813 353.793C310.466 352.355 310.368 350.398 311.745 349.855C313.382 349.208 314.632 351.383 315.061 353.09C329.388 410.056 346.645 466.285 366.741 521.48C367.122 522.525 367.548 523.63 368.443 524.29C369.437 525.022 370.769 525.033 372.003 525.014L483.269 523.306C484.121 523.293 485.13 523.192 485.549 522.45C485.836 521.94 485.727 521.308 485.607 520.734C480.162 494.614 470.926 469.516 461.7 444.441L461.698 444.438C459.331 438.003 456.963 431.57 454.661 425.122C441.718 388.872 430.767 351.948 419.824 315.045C418.912 311.969 414.766 311.6 411.566 311.822C376.725 314.238 341.728 314.4 306.866 312.308C309.706 322.583 312.235 332.945 314.448 343.373C312.035 344.442 310.045 341.238 309.328 338.698L303.05 316.473C302.762 315.453 302.48 314.329 302.92 313.364C303.533 312.021 305.216 311.618 306.676 311.4ZM341.521 330.885C337.04 333.503 334.067 339.051 335.528 344.031C336.326 346.755 338.297 349.004 340.551 350.728C345.639 354.622 352.455 356.163 358.723 354.836C364.991 353.509 370.599 349.339 373.674 343.718C374.524 342.163 373.645 340.234 372.583 338.814C370.037 335.412 366.414 332.921 362.516 331.231C360.622 330.41 358.652 329.765 356.64 329.306C351.58 328.154 346.002 328.267 341.521 330.885ZM368.507 343.276C363.121 350.892 351.496 353.182 343.625 348.177C341.705 346.957 339.951 345.278 339.271 343.107C338.198 339.68 340.188 335.829 343.21 333.889C346.233 331.949 350.025 331.605 353.603 331.915C359.17 332.399 364.675 334.402 368.917 338.039C370.38 339.294 369.62 341.702 368.507 343.276ZM359.468 406.652C363.823 406.628 368.324 406.349 372.212 404.388C376.099 402.427 379.237 398.387 378.886 394.046C378.64 391.017 376.748 388.302 374.338 386.449C370.138 383.22 364.219 382.38 359.285 384.312C356.718 385.318 354.359 387.112 353.197 389.612C352.035 392.113 352.297 395.356 354.241 397.312C355.908 398.991 358.355 399.448 360.719 399.889C361.066 399.954 361.411 400.018 361.752 400.086C362.453 400.226 363.191 400.41 363.693 400.919C364.195 401.429 364.321 402.371 363.766 402.823C359.24 406.511 351.719 404.903 348.431 400.079C345.142 395.254 345.966 388.31 349.658 383.787C353.35 379.265 359.402 377.066 365.239 377.201C371.233 377.341 377.317 379.942 380.869 384.773C384.421 389.604 384.956 396.717 381.463 401.589C379.157 404.805 375.425 406.777 371.573 407.68C367.721 408.583 363.714 408.519 359.761 408.355L359.468 406.652ZM452.946 442.196C452.446 441.616 451.692 441.333 450.962 441.1C445.677 439.414 439.918 439.24 434.541 440.606C431.329 441.422 428.18 442.83 425.874 445.21C423.568 447.589 422.225 451.057 422.952 454.289C423.774 457.939 426.975 460.595 430.346 462.218C435.347 464.624 441.196 465.35 446.562 463.929C451.927 462.509 456.734 458.884 459.306 453.965C459.837 452.95 460.283 451.832 460.182 450.69C460.081 449.549 459.284 448.4 458.149 448.239C456.592 448.016 455.453 449.55 454.504 450.827L454.425 450.932C449.504 457.546 439.351 459.535 432.298 455.268C431.005 454.486 429.726 453.37 429.544 451.87C429.301 449.868 431.08 448.228 432.803 447.18C438.786 443.541 446.273 442.468 453.038 444.281C453.58 443.74 453.445 442.776 452.946 442.196ZM408.674 489.028C412.332 489.796 416.301 491.545 417.491 495.088C418.48 498.033 417.12 501.379 414.851 503.5C412.582 505.622 409.561 506.732 406.569 507.568C403.807 508.339 400.992 508.921 398.15 509.309L398.436 510.843C403.627 511.159 408.9 509.988 413.47 507.505C417.131 505.515 420.537 502.344 421.164 498.225C421.758 494.317 419.623 490.34 416.483 487.938C413.342 485.536 409.351 484.505 405.416 484.12C396.819 483.281 387.343 485.747 382.124 492.63C380.966 494.157 380.026 495.925 379.872 497.835C379.611 501.076 381.715 504.158 384.457 505.906C387.199 507.655 390.49 508.297 393.713 508.726C394.807 508.872 396.021 508.968 396.914 508.319C397.806 507.671 397.887 505.979 396.835 505.646L389.61 503.356C387.957 502.832 386.168 502.208 385.242 500.741C383.647 498.215 385.564 494.888 387.879 493C393.534 488.387 401.532 487.528 408.674 489.028ZM399.026 445.884C399.492 444.992 399.892 444.016 399.815 443.013C399.668 441.069 397.836 439.718 396.08 438.87C388.431 435.176 378.775 436.06 371.925 441.082C370.824 441.89 369.759 442.839 369.226 444.096C368.693 445.353 368.83 446.98 369.867 447.869C370.48 448.395 371.321 448.619 372.144 448.837C373.241 449.129 374.305 449.411 374.755 450.389C375.444 451.885 373.854 453.52 372.252 453.902C369.048 454.668 365.588 452.492 364.362 449.435C363.136 446.378 363.896 442.764 365.772 440.056C367.647 437.348 370.504 435.452 373.518 434.124C380.272 431.148 388.146 430.805 395.133 433.182C397.702 434.056 400.211 435.328 402.023 437.348C403.836 439.368 404.854 442.237 404.164 444.862C403.731 446.508 402.686 447.922 401.565 449.201C395.37 456.268 384.955 460.455 376.302 456.788C377.034 455.296 379.16 455.466 380.812 455.642C388.087 456.417 395.641 452.369 399.026 445.884ZM389.016 349.927C390.462 351.72 392.626 352.788 394.82 353.486C404.5 356.566 415.96 352.747 421.856 344.476C423.917 341.585 425.312 337.632 423.554 334.547C422.01 331.837 418.626 330.828 415.532 330.43C410.538 329.788 405.421 330.115 400.55 331.39C396.353 332.487 392.171 334.416 389.542 337.866C386.912 341.316 386.293 346.55 389.016 349.927ZM400.65 334.23C403.567 333.34 406.581 332.77 409.622 332.533C413.311 332.247 417.9 333.055 419.075 336.564C419.95 339.179 418.378 341.988 416.484 343.993C411.615 349.148 404.098 351.658 397.108 350.464C395.412 350.174 393.681 349.642 392.44 348.45C390.046 346.149 390.327 342.006 392.298 339.333C394.269 336.661 397.475 335.199 400.65 334.23ZM437.054 501.297C441.703 505.069 447.963 506.288 453.949 506.226C457.693 506.188 461.529 505.667 464.816 503.874C468.103 502.082 470.765 498.833 471.08 495.102C471.411 491.194 469.154 487.446 466.185 484.883C463.921 482.929 460.548 481.496 458.018 483.091C457.126 483.653 455.995 483.523 454.937 483.401L454.75 483.38C448.352 482.658 441.692 484.657 436.748 488.782C435.19 490.083 433.736 491.701 433.368 493.698C432.832 496.606 434.758 499.434 437.054 501.297ZM462.705 486.867C465.255 488.154 467.328 490.693 467.371 493.549C467.417 496.591 465.157 499.306 462.416 500.627C459.676 501.947 456.534 502.121 453.492 502.081C449.394 502.026 445.221 501.606 441.464 499.968C439.041 498.911 436.58 496.878 436.715 494.237C436.817 492.241 438.393 490.637 440.043 489.509C444.192 486.67 449.323 485.577 454.347 485.433C457.202 485.351 460.155 485.58 462.705 486.867ZM438.424 390.87C439.413 391.003 440.009 392.03 440.315 392.98C442.246 398.986 438.107 405.811 432.262 408.184C426.417 410.557 419.57 409.159 414.135 405.955C411.698 404.518 409.383 402.632 408.241 400.043C405.844 394.609 409.743 388.004 415.152 385.549C420.561 383.095 426.845 383.779 432.653 385.022C435.038 385.532 437.905 386.688 438.064 389.121C434.122 387.512 429.901 386.588 425.648 386.402C421.587 386.225 417.248 386.823 414.123 389.422C410.998 392.021 409.707 397.095 412.259 400.259C413.291 401.539 414.783 402.355 416.275 403.048C420.124 404.835 424.473 406.03 428.606 405.067C432.739 404.104 436.456 400.45 436.33 396.208C436.319 395.83 436.279 395.451 436.239 395.073C436.161 394.345 436.084 393.618 436.214 392.902C436.411 391.814 437.327 390.723 438.424 390.87ZM294.233 524.972C293.855 508.195 294.673 491.392 296.679 474.731C298.088 463.022 297.728 451.112 297.368 439.233C296.845 421.953 296.324 404.74 301.258 388.307C304.28 433.512 303.775 478.952 299.747 524.079C299.585 525.901 299.37 527.841 298.214 529.259C296.477 531.389 293.34 531.557 290.592 531.548C259.728 531.446 228.865 531.023 198.009 530.279C196.728 530.248 195.238 530.107 194.541 529.031C194.16 528.445 194.116 527.708 194.084 527.009C192.043 482.52 190.003 437.944 192.363 393.471C192.494 391.004 193.823 387.633 196.185 388.359C197.843 388.868 198.153 391.045 198.155 392.779L198.369 521.525C198.373 523.379 200.823 524.006 202.676 524.061C233.185 524.958 263.712 525.262 294.233 524.972ZM305.334 339.87C305.196 338.221 304.96 336.381 303.666 335.349C302.73 334.602 301.458 334.473 300.264 334.373L248.32 330.026C236.2 329.012 224.068 327.997 211.907 327.827C201.836 327.687 191.756 328.128 181.736 329.147C179.395 329.385 176.88 329.733 175.171 331.35C173.528 332.904 173.009 335.272 172.57 337.49C171.852 341.114 171.132 344.828 171.707 348.477C172.282 352.126 174.427 355.757 177.885 357.056C179.872 357.802 182.061 357.717 184.182 357.621L278.277 353.384C279.479 353.33 281.139 352.65 280.722 351.521C247.434 351.494 214.145 352.624 180.935 354.906C177.032 355.175 175.381 350.015 175.386 346.102C175.389 342.837 175.654 339.471 177.117 336.552C178.58 333.633 181.484 331.239 184.749 331.23C223.688 331.124 262.632 333.249 301.328 337.592C302.187 337.688 302.46 338.786 302.521 339.647L305.187 377.179C305.213 377.543 305.229 377.941 305.014 378.235C304.73 378.621 304.179 378.662 303.7 378.667L188.39 380.049C187.455 380.06 186.444 380.047 185.7 379.481C184.77 378.774 184.588 377.469 184.513 376.303C184.336 373.546 184.346 370.778 184.543 368.023C184.685 366.025 184.061 363.141 182.084 363.463C180.651 363.696 180.228 365.531 180.182 366.982C180.067 370.552 180.261 374.131 180.76 377.668C181.012 379.457 181.426 381.387 182.808 382.552C184.253 383.768 186.322 383.796 188.21 383.762L304.45 381.698C305.781 381.674 307.319 381.546 308.08 380.454C308.638 379.653 308.579 378.592 308.497 377.62L305.334 339.87ZM252.275 420.881C253.146 420.791 253.506 422.159 252.922 422.812C252.338 423.465 251.362 423.546 250.486 423.581L220.354 424.793C219.127 424.842 217.836 424.878 216.746 424.313C215.656 423.747 214.891 422.357 215.441 421.259C216.113 419.918 218.01 419.962 219.495 420.18C230.337 421.766 241.375 422.003 252.275 420.881ZM218.916 436.444C217.19 435.995 214.649 435.943 214.377 437.706C214.132 439.294 216.167 440.147 217.757 440.371C228.207 441.843 238.978 440.99 249.066 437.891C249.797 437.667 249.644 436.455 248.967 436.099C248.291 435.744 247.469 435.959 246.733 436.166C237.702 438.706 227.996 438.803 218.916 436.444Z" fill="#00160A"/>
<path fill-rule="evenodd" clip-rule="evenodd" d="M80.6048 429.65C84.5235 426.959 89.7497 426.783 94.3159 428.103C98.8822 429.424 102.934 432.072 106.86 434.752C121.865 444.991 136.194 456.221 149.724 468.343C152.351 470.697 154.976 473.116 156.938 476.048C160.794 481.808 161.51 490.146 156.991 495.402C153.772 499.146 148.497 500.672 143.576 500.264C138.655 499.856 134.029 497.744 129.788 495.213C118.266 488.338 108.975 478.327 98.1919 470.342C91.1555 465.132 83.2643 460.569 78.4638 453.247C73.6632 445.925 73.3867 434.605 80.6048 429.65M100.032 435.64C95.1476 433.304 89.0643 431.511 84.5823 434.549C80.381 437.397 79.5623 443.56 81.4365 448.277C83.3107 452.994 87.2311 456.558 91.1445 459.791C95.2267 463.162 99.4439 466.371 103.783 469.406C104.536 469.933 105.85 470.295 106.138 469.423C108.769 461.453 114.455 454.534 121.764 450.409C115.318 444.43 107.964 439.433 100.032 435.64ZM132.76 484.847C127.37 481.444 121.981 478.041 116.592 474.639C115.507 473.954 113.705 473.478 113.259 474.681C119.873 479.369 126.705 483.749 133.727 487.801C134.317 487.547 134.449 486.71 134.161 486.136C133.873 485.561 133.303 485.19 132.76 484.847Z" fill="#00160A"/>
<path fill-rule="evenodd" clip-rule="evenodd" d="M610.5 235C611.052 235 611.5 235.448 611.5 236V245.5H621C621.552 245.5 622 245.948 622 246.5V251.5C622 252.052 621.552 252.5 621 252.5H611.5V262C611.5 262.552 611.052 263 610.5 263H605.5C604.948 263 604.5 262.552 604.5 262V252.5H595C594.448 252.5 594 252.052 594 251.5V246.5C594 245.948 594.448 245.5 595 245.5H604.5V236C604.5 235.448 604.948 235 605.5 235H610.5Z" fill="#FFB61D"/>
<path fill-rule="evenodd" clip-rule="evenodd" d="M649.5 197C650.052 197 650.5 197.448 650.5 198V207.5H660C660.552 207.5 661 207.948 661 208.5V213.5C661 214.052 660.552 214.5 660 214.5H650.5V224C650.5 224.552 650.052 225 649.5 225H644.5C643.948 225 643.5 224.552 643.5 224V214.5H634C633.448 214.5 633 214.052 633 213.5V208.5C633 207.948 633.448 207.5 634 207.5H643.5V198C643.5 197.448 643.948 197 644.5 197H649.5Z" fill="#FFB61D"/>
<path fill-rule="evenodd" clip-rule="evenodd" d="M695.5 260C696.052 260 696.5 260.448 696.5 261V270.5H706C706.552 270.5 707 270.948 707 271.5V276.5C707 277.052 706.552 277.5 706 277.5H696.5V287C696.5 287.552 696.052 288 695.5 288H690.5C689.948 288 689.5 287.552 689.5 287V277.5H680C679.448 277.5 679 277.052 679 276.5V271.5C679 270.948 679.448 270.5 680 270.5H689.5V261C689.5 260.448 689.948 260 690.5 260H695.5Z" fill="#FFB61D"/>
<path fill-rule="evenodd" clip-rule="evenodd" d="M112.599 150C113.9 150 114.954 150.076 115.742 150.232L115.934 150.278L117.371 150.755C118.142 151.018 118.679 151.702 118.757 152.496L118.767 152.696L118.767 162.582L119.306 162.239C120.078 161.733 120.949 161.109 122.046 160.29L124.914 158.131C125.603 157.621 126.114 157.26 126.697 156.869C127.155 156.559 127.719 156.446 128.26 156.555C128.73 156.648 129.15 156.901 129.452 157.267L129.574 157.431L130.221 158.404L136.263 168.66C136.542 169.131 136.62 169.693 136.481 170.213C136.343 170.744 135.996 171.197 135.519 171.471C134.662 171.965 133.732 172.575 132.597 173.376L131.201 174.382L128.778 176.151C128.314 176.486 127.9 176.781 127.519 177.047L127.034 177.38L127.621 177.678C130.356 179.096 133.001 180.775 135.182 182.551L135.765 183.038L136.324 183.528C137.046 184.18 137.21 185.245 136.718 186.079L135.618 187.93C135.186 188.65 134.697 189.456 134.18 190.3L133.193 191.896C131.92 193.937 130.82 195.617 129.979 196.778C129.453 197.501 128.521 197.798 127.683 197.532L127.491 197.46L126.44 197.01C126.335 196.963 126.279 196.935 126.22 196.901L126.159 196.864C125.608 196.522 125.024 196.174 124.359 195.79L122.147 194.54L120.474 193.598C120.103 193.387 119.764 193.191 119.447 193.007L118.774 192.61L118.766 195.696C118.75 198.364 118.712 200.693 118.645 202.352L118.613 203.052C118.563 204.074 117.764 204.892 116.759 204.99L116.537 205L110.468 204.819L107.186 204.738L104.96 204.7L104.236 204.822C103.754 204.902 103.264 204.808 102.851 204.567L102.679 204.454L102.518 204.324C102.051 203.907 101.801 203.302 101.838 202.683C102.002 199.863 102.007 197.511 101.896 194.408L101.818 192.512L92.553 197.664C91.7093 198.138 90.6709 197.955 90.0335 197.278L89.9033 197.125L89.7867 196.957C87.5529 193.37 85.6619 189.686 83.4706 184.657C83.0963 183.799 83.3561 182.806 84.0827 182.235L84.2454 182.119L86.5636 180.639L87.207 180.314C88.5733 179.615 90.5783 178.504 92.833 177.217L93.3767 176.904L91.7266 176.144L89.9461 175.339C89.7543 175.25 89.554 175.152 89.2939 175.021L87.729 174.228C86.8787 173.806 86.3427 173.57 85.8624 173.415L85.5789 173.331C85.4651 173.301 85.3549 173.261 85.2479 173.211L85.09 173.13L84.0347 172.528C83.4471 172.192 83.0624 171.591 83.0074 170.924C82.9502 170.254 83.2264 169.598 83.7481 169.171C84.6151 168.459 85.2064 167.526 86.2716 165.281L87.0554 163.609C88.4396 160.703 89.3429 159.304 90.9381 157.923C91.5696 157.374 92.4633 157.266 93.2057 157.628L93.388 157.728L101.739 162.912L101.74 162.654C101.737 162.048 101.713 161.347 101.672 160.485L101.575 158.569C101.436 155.569 101.487 154.044 101.884 152.255C102.07 151.413 102.769 150.775 103.632 150.663L104.805 150.523C105.371 150.459 106.029 150.39 106.76 150.322C108.916 150.12 110.919 150 112.599 150ZM112.462 154C110.625 154 108.359 154.163 106.144 154.395L105.609 154.453L105.6 154.552L105.567 155.049C105.524 155.906 105.544 156.923 105.611 158.364L105.722 160.573C105.731 160.769 105.738 160.948 105.745 161.139C105.829 163.465 105.742 165.187 105.371 166.817C105.224 167.465 104.775 168.004 104.168 168.258C103.623 168.489 103.009 168.469 102.483 168.213L102.29 168.106L92.6468 162.042L92.5391 162.187C91.997 162.935 91.4805 163.884 90.847 165.231L90.0228 167.016C89.4899 168.156 89.0632 169.002 88.6427 169.7L88.4506 170.005L88.6013 170.072C88.8916 170.204 89.1877 170.347 89.5195 170.513L91.4437 171.498L91.9436 171.736L94.2296 172.783L95.3629 173.321L95.7163 173.492C97.0927 174.163 98.1095 174.71 98.7448 175.146C99.3235 175.544 99.6592 176.21 99.6369 176.914C99.6146 177.618 99.2369 178.263 98.6315 178.623L97.0168 179.576C96.4483 179.91 95.8508 180.259 95.229 180.619L92.9169 181.945C91.3806 182.817 90.0892 183.529 89.1072 184.037L88.6274 184.281L88 184.688L88.2583 185.267C89.4851 187.996 90.6341 190.301 91.8449 192.457L92.2903 193.238L102.679 187.388C103.239 187.072 103.907 187.041 104.489 187.292L104.702 187.399C105.324 187.759 105.712 188.421 105.728 189.144L105.755 190.131L105.926 194.288C106.007 196.54 106.03 198.393 105.982 200.334L105.968 200.777L107.49 200.808C109.008 200.842 110.827 200.891 112.778 200.95L114.419 201L114.455 199.246C114.467 198.49 114.477 197.671 114.484 196.799L114.499 194.094C114.505 191.962 114.5 190.022 114.493 188.914C114.489 188.141 114.914 187.43 115.604 187.07C116.291 186.715 117.117 186.778 117.744 187.235C118.838 188.036 120.024 188.797 121.531 189.685L122.611 190.312L125.879 192.176L126.354 192.453L127.379 193.067L127.49 192.902C128.666 191.112 130.111 188.754 131.551 186.329L132 185.569L131.944 185.524C129.371 183.479 125.879 181.403 122.524 179.941L122.047 179.738L122.003 179.733C121.277 179.598 120.673 179.076 120.434 178.362L120.382 178.18C120.165 177.256 120.603 176.3 121.447 175.868C122.483 175.339 123.615 174.624 125.011 173.639L125.487 173.301C125.881 173.018 126.283 172.724 126.783 172.354L129.299 170.494C130.073 169.929 130.69 169.491 131.26 169.106L131.419 168.999L127.024 161.441L125.804 162.372L124.604 163.291C121.324 165.783 119.595 166.893 117.293 167.82C116.662 168.07 115.948 167.992 115.386 167.606C114.889 167.264 114.57 166.722 114.505 166.128L114.493 165.903L114.492 154.106L114.34 154.086C113.94 154.039 113.435 154.011 112.834 154.002L112.462 154Z" fill="#FFB61D"/>
</svg>
