<svg width="750" height="750" viewBox="0 0 750 750" fill="none" xmlns="http://www.w3.org/2000/svg">
<rect width="750" height="750" fill="none"/>
<path fill-rule="evenodd" clip-rule="evenodd" d="M69.5123 259.267C99.8456 309.722 190.356 371.036 208.185 372.391C264.582 376.675 344.871 386.153 416.58 388.697L418.751 388.772C444.086 389.623 478.475 389.708 521.919 389.025C530.49 381.348 538.487 375.887 545.912 372.642L546.497 372.391C550.471 370.709 560.715 360.006 586.517 349.018C593.616 345.994 614.607 352.751 629.283 347.371L629.999 347.103C641.855 342.576 661.404 330.827 688.647 311.857C688.482 311.415 688.313 310.973 688.14 310.532C688.783 311.609 689.417 312.691 690.043 313.777C690.667 314.861 738.972 430.208 650.395 519.542C589.995 580.458 429.434 637.85 289.966 605.042C-64.765 528.389 54.6809 234.597 69.5123 259.267Z"/>
<path fill-rule="evenodd" clip-rule="evenodd" d="M665.126 436.926C667.107 433.298 668.703 429.554 672.181 427.183C672.599 426.898 673.436 426.539 673.598 426.7C674.045 427.143 674.485 427.842 674.49 428.443C674.535 434.054 670.884 438.242 668.694 442.981C667.538 445.481 665.889 447.755 664.44 450.117C664.151 450.588 663.793 451.031 663.403 451.424C663.04 451.792 662.28 452.399 662.23 452.351C661.62 451.757 660.847 451.132 660.644 450.373C660.44 449.614 660.733 448.666 660.975 447.851C661.841 444.936 662.735 442.028 663.715 439.151C663.977 438.382 664.582 437.729 665.126 436.926Z" fill="white"/>
<path fill-rule="evenodd" clip-rule="evenodd" d="M664.545 427.815C664.264 429.646 664.259 431.425 663.854 433.106C663.246 435.627 662.493 438.132 661.553 440.548C660.461 443.358 659.181 446.104 657.828 448.801C656.936 450.577 655.828 452.255 654.697 453.895C654.299 454.472 653.541 454.798 652.953 455.248C651.701 456.206 651.388 454.68 651.395 454.338C651.46 451.24 651.299 448.146 652.233 445.072C652.914 442.826 652.858 440.366 653.25 438.021C653.515 436.441 654.021 434.904 654.362 433.335C654.874 430.983 655.307 428.613 655.824 426.262C656.704 422.256 657.634 418.29 661.6 415.975C662.394 415.512 662.762 415.515 663.562 416.035C665.364 417.208 666.124 418.562 665.649 420.755C665.155 423.042 664.965 425.394 664.545 427.815Z" fill="white"/>
<path fill-rule="evenodd" clip-rule="evenodd" d="M573.974 501.836C570.524 495.866 567.066 489.834 561.476 485.597C559.166 483.846 556.313 482.556 553.506 481.791C550.931 481.09 548.173 481.295 545.359 481.799C541.916 482.414 538.594 483.163 535.424 484.57C530.912 486.573 527.101 489.593 523.971 493.349C519.409 498.822 515.684 504.59 518.485 512.318C519.538 515.219 523.241 517.518 526.356 517.016C528.236 516.712 530.21 516.945 532.14 517.011C533.773 517.066 535.41 517.387 537.031 517.31C539.836 517.177 542.626 516.705 545.43 516.601C548.934 516.471 552.446 516.569 555.955 516.569C557.204 516.569 558.484 516.746 559.695 516.53C561.809 516.154 564.006 515.818 565.947 514.963C570.734 512.852 575.949 508.606 573.974 501.836Z" fill="white"/>
<path fill-rule="evenodd" clip-rule="evenodd" d="M272.15 512.278C272.15 512.278 280.404 513.038 290.918 508.889C301.433 504.74 304.054 497.203 304.054 497.203C304.054 497.203 301.796 486.39 299.663 483.853C297.42 481.185 293.211 481.044 290.918 482.127C288.772 483.141 284.365 484.034 281.397 488.703C279.835 491.161 280.753 495.813 278.196 503.029C277.243 505.72 272.15 512.278 272.15 512.278Z" fill="white"/>
<path fill-rule="evenodd" clip-rule="evenodd" d="M158.588 505.485C158.588 505.485 182.895 514.016 196.111 516.652C209.326 519.288 233.633 520.455 233.633 520.455C233.633 520.455 253.3 489.963 260.556 470.338C267.812 450.712 273.227 413.361 273.227 413.361C273.227 413.361 253.09 420.016 245.958 430.278C238.827 440.54 244.76 459.539 233.633 470.338C220.478 483.104 200.194 470.046 182.453 478.355C164.711 486.664 158.588 505.485 158.588 505.485Z" fill="white"/>
<path fill-rule="evenodd" clip-rule="evenodd" d="M243.305 585.725C269.892 588.081 366.113 554.811 387.382 531.887C394.038 524.713 400.124 510.446 393.876 503.444C375 482.29 292.994 454.521 309.233 417.033C314.657 404.511 348.276 395.598 348.276 395.598C348.276 395.598 354.179 392.66 354.989 391.244C355.798 389.828 352.443 388.304 352.443 388.304L387.382 388.887C387.382 388.887 386.928 397.569 382.367 401.043C369.756 410.647 354.989 410.647 352.443 424.49C348.889 443.824 384.282 470.963 403.234 481.366C451.322 507.762 465.916 532.636 633.964 515.644C611.667 529.592 552.958 564.845 465.493 583.074C322.625 612.849 221.509 583.793 243.305 585.725Z" fill="white"/>
<path fill-rule="evenodd" clip-rule="evenodd" d="M481.238 260.192C496.996 274.505 541.744 342.562 549.879 359.59C550.309 360.489 552.051 366.873 552.051 366.873C552.051 366.873 534.456 370.38 524.531 374.579C514.606 378.778 496.989 389.481 496.989 389.481C496.989 389.481 446.282 389.976 413.146 388.863C350.146 386.746 274.428 385.566 229.55 374.579C219.802 372.193 193.123 353.912 185.453 342.44C177.282 330.217 191.448 313.322 207.506 297.496C252.334 253.317 359.242 149.387 481.238 260.192Z" fill="#FFB61D"/>
<path d="M573.617 274.275C571.18 275.62 567.009 274.274 564.72 275.468C560.095 277.88 555.479 273.225 550.643 274.956C547.555 276.06 544.525 277.116 541.312 277.468C539.059 277.715 536.862 279.175 534.626 279.241C531.525 279.333 528.975 280.928 526.546 282.982C524.283 284.895 522.244 287.25 520.029 289.268C519.233 289.993 518.244 290.55 517.29 290.746C515.873 291.037 512.407 290.923 510.964 291.011C508.432 291.166 505.901 291.472 503.37 291.475C500.836 291.479 465.368 301.596 461.302 304.252C461.007 304.445 460.68 304.555 460.368 304.704C460.536 304.407 460.672 304.066 460.876 303.819C462.823 301.46 464.557 299.929 466.792 298.189C469.749 295.887 473.035 294.203 476.303 292.708C478.878 291.531 481.633 290.995 484.321 290.261C486.71 289.608 489.104 288.931 491.522 288.522C494.416 288.031 497.334 287.642 500.249 287.53C502.645 287.437 505.073 288.149 507.449 287.901C510.939 287.537 516.43 286.839 519.849 285.858C521.123 285.493 522.531 284.245 523.286 282.855C524.786 280.096 526.876 278.366 529.064 277.207C531.059 276.149 533.426 276.292 535.625 275.87C537.672 275.478 539.717 275.064 541.756 274.614C543.502 274.228 545.293 273.993 546.968 273.301C549.191 272.382 551.302 271.015 553.499 269.977C554.657 269.431 555.96 269.372 557.085 268.749C560.024 267.124 604.667 256.156 609.157 258.044C613.647 259.931 606.755 264.984 604.667 264.776C602.546 264.565 600.381 264.972 598.242 265.212C595.823 265.483 593.379 265.655 591.005 266.266C588.697 266.861 586.439 267.859 584.207 268.859C581.931 269.878 579.708 271.101 577.471 272.264C576.242 272.903 575.03 273.603 573.617 274.275Z" fill="white"/>
<path d="M457.69 301.74C456.688 298.235 459.569 296.621 461.334 294.164C465.25 288.71 470.777 285.237 476.786 282.498C479.392 281.31 482.025 280.13 484.747 279.263C488.018 278.221 491.396 277.518 494.727 276.664C495.192 276.545 495.647 276.33 496.118 276.293C497.382 276.192 498.599 275.149 498.79 275.025C499.537 274.54 500.348 273.796 500.604 272.981C501.208 271.059 501.407 269.014 501.95 267.069C502.939 263.524 505.692 261.519 508.767 260.029C512.543 258.199 516.418 256.566 520.301 254.969C525.186 252.961 530.131 251.097 535.034 249.13C539.605 247.296 544.067 245.136 548.748 243.662C551.037 242.941 553.714 243.449 556.216 243.419C556.308 243.417 556.402 243.603 556.496 243.701C556.331 243.833 556.187 244.024 555.999 244.087C550.989 245.778 545.944 247.374 540.97 249.165C537.538 250.401 534.219 251.946 530.817 253.268C529.395 253.821 527.834 254.027 526.432 254.618C523.495 255.854 520.64 257.283 517.716 258.552C515.566 259.486 513.303 260.174 511.193 261.185C508.335 262.555 505.335 263.937 504.396 267.367C504.046 268.644 504.54 270.197 504.055 271.382C503.38 273.034 502.405 274.743 501.1 275.92C498.413 278.344 494.979 279.38 491.482 280.173C489.352 280.656 487.292 281.476 485.15 281.863C480.832 282.644 476.866 284.338 473.062 286.387C467.809 289.217 462.669 292.285 459.813 297.541C459.039 298.967 458.715 300.636 458.166 302.186C458.107 302.353 457.918 302.473 457.789 302.615C457.788 302.355 457.788 302.096 457.69 301.74Z" fill="white"/>
<path d="M454.425 299.802C454.206 298.807 453.959 297.906 453.988 297.013C454.047 295.171 454.08 293.3 454.428 291.499C455.749 284.675 460.628 280.392 465.512 276.061C469.618 272.419 473.854 268.854 476.356 263.753C477.331 261.765 477.2 259.813 477.147 257.672C477.021 252.588 474.233 249.03 470.751 246.095C467.18 243.084 463.125 240.628 459.186 238.076C454.263 234.887 450.075 231.082 447.403 225.738C445.803 222.538 446.598 216.184 449.241 213.739C449.88 213.147 450.894 212.683 451.744 212.668C452.719 212.652 453.193 213.527 452.963 214.568C452.915 214.784 452.808 215.107 452.653 215.16C450.556 215.87 448.515 221.24 449.949 223.275C450.986 224.746 451.36 226.759 452.563 228.024C454.938 230.52 457.627 232.732 460.288 234.939C464.74 238.632 469.4 242.084 473.728 245.914C476.967 248.779 479.288 252.524 480.21 256.733C480.676 258.859 480.259 261.367 479.245 263.546C477.182 267.975 473.965 271.394 470.272 274.553C465.903 278.291 461.07 281.711 458.289 286.93C457.041 289.273 456.197 291.957 455.792 294.582C455.477 296.626 456.14 298.817 456.326 300.947C456.352 301.247 456.134 301.569 456.03 301.881C455.786 301.695 455.478 301.553 455.311 301.313C455.004 300.872 454.781 300.374 454.425 299.802Z" fill="white"/>
<path fill-rule="evenodd" clip-rule="evenodd" d="M410.391 335.664V388.413L468.43 390.304H485.238V337.827H490.366L468.084 322.495C468.084 322.495 468.084 316.527 467.604 312.017C466.462 309.671 463.018 309.275 460.788 308.851C458.557 308.428 455.249 307.907 455.249 309.671C455.249 311.435 455.249 316.527 455.249 316.527L440.141 314.204L410.391 335.664Z" fill="white"/>
<path fill-rule="evenodd" clip-rule="evenodd" d="M458.286 389.974L468.43 390.304L465.43 332.767L459.184 328.182L458.286 389.974Z" fill="#E7EAEE"/>
<path fill-rule="evenodd" clip-rule="evenodd" d="M419.146 425.391C419.579 424.402 420.565 423.25 420.33 422.459C419.847 420.832 419.046 418.992 417.787 417.956C412.253 413.402 406.365 409.467 399.104 407.992C395.261 407.211 391.782 407.668 388.416 409.5C385.916 410.86 385.707 412.938 387.862 414.653C389.024 415.577 390.189 416.5 391.377 417.39C396.43 421.176 402.032 423.848 408.151 425.361C410.464 425.933 412.851 426.336 415.225 426.484C416.444 426.561 417.709 425.908 419.146 425.391Z" fill="white"/>
<path fill-rule="evenodd" clip-rule="evenodd" d="M436.223 316.779C430.99 316.646 399.98 340.117 399.288 339.721C398.596 339.325 428.826 316.491 433.212 313.443C435.488 311.862 437.848 311.946 440.237 313.633C443.566 315.983 464.181 329.082 466.957 330.388C470.148 331.89 489.156 336.274 488.168 337.484C487.606 337.804 484.799 338.055 483.946 337.941C483.701 337.909 483.21 338.129 483.183 338.293C482.327 343.384 483.762 384.556 483.961 386.629C483.998 387.013 484.39 387.47 484.744 387.7C486.187 388.637 487.779 388.532 489.43 388.596L489.705 388.608C492.612 388.759 495.242 388.15 497.699 386.876C500.905 385.214 503.97 383.278 507.078 381.429C510.347 379.484 513.577 377.472 516.857 375.547C521.395 372.884 526.344 371.124 531.259 369.353C534.237 368.28 537.402 367.691 540.514 367.028C543.208 366.454 545.946 366.081 548.664 365.621L548.728 365.615L551.393 365.681C551.006 364.873 550.653 364.045 550.224 363.259C548.731 360.526 547.141 357.843 545.722 355.073C544.05 351.809 542.642 348.407 540.899 345.184C536.983 337.943 532.964 330.756 528.923 323.584C525.082 316.767 521.163 309.994 517.268 303.208C516.756 302.316 516.167 301.469 515.646 300.582C515.514 300.356 515.508 300.055 515.444 299.789C515.673 299.961 515.961 300.091 516.121 300.313C518.054 302.997 520.069 305.63 521.868 308.403C526.949 316.236 532.036 324.07 536.927 332.023C539.502 336.211 541.682 340.642 544.023 344.973C545.644 347.97 547.272 350.963 548.823 353.995C549.617 355.547 550.247 357.183 550.952 358.78L552.097 361.396C552.671 362.703 553.255 364.005 553.884 365.286C554.019 365.56 554.897 365.741 555.272 365.585C559.49 363.83 563.846 362.309 567.833 360.121C574.18 356.637 580.187 352.536 586.517 349.018C589.428 347.399 592.687 346.217 595.933 345.452C598.16 344.926 600.458 344.534 603.042 345.137C607.232 346.115 611.051 347.939 615.094 349.184C617.836 350.028 620.679 350.125 623.643 349.898C629.33 349.461 633.668 346.134 638.482 343.826C641.67 342.297 644.75 340.54 647.866 338.863C654.798 335.133 661.715 331.374 668.655 327.658C672.839 325.418 677.055 323.237 681.257 321.03C681.682 320.807 682.088 320.531 682.537 320.378L682.992 320.222C683.398 320.089 683.827 319.98 683.973 320.124L684.128 320.281C684.856 321.047 685.24 321.863 683.768 322.601C680.498 324.237 677.276 325.97 674.048 327.689C669.855 329.922 665.683 332.192 661.488 334.422C657.456 336.566 653.4 338.664 649.368 340.808C645.12 343.067 640.895 345.367 636.649 347.629C633.951 349.066 631.368 350.999 628.486 351.727C625.865 352.39 623.219 353.656 620.178 352.707L619.862 352.601C616.121 351.253 612.058 350.824 608.253 349.622C605.224 348.666 602.152 348.012 599.072 348.256C595.518 348.538 591.902 349.109 588.517 350.191C583.07 351.93 578.465 355.307 573.933 358.748L572.6 359.758C568.741 362.666 564.787 365.443 560.016 366.788C558.785 367.135 557.567 367.532 556.368 367.974C556.277 368.008 542.88 368.407 528.44 373.412C514.731 378.164 499.938 387.533 499.976 387.629C500.98 390.147 565.82 385.635 567.362 385.772C569.266 385.941 571.175 386.052 573.083 386.162C573.792 386.203 574.507 386.134 575.215 386.176C577.059 386.285 578.9 386.441 580.744 386.55C581.452 386.592 582.167 386.523 582.875 386.563C584.784 386.673 586.69 386.828 588.598 386.938C589.306 386.979 590.021 386.909 590.73 386.951C592.573 387.06 594.415 387.214 596.258 387.326C596.902 387.365 597.552 387.301 598.196 387.338C600.106 387.448 602.013 387.594 603.922 387.706C604.565 387.743 605.214 387.688 605.857 387.725C607.829 387.84 609.8 387.989 611.773 388.102C612.417 388.139 613.067 388.076 613.711 388.114C615.62 388.225 617.527 388.373 619.436 388.485C620.079 388.522 620.728 388.464 621.371 388.501C623.344 388.615 625.315 388.764 627.288 388.877C627.932 388.914 628.58 388.883 629.226 388.883C630.864 388.883 632.503 388.843 634.138 388.901C634.929 388.929 635.708 389.197 636.5 389.26C638.534 389.422 640.571 389.537 642.609 389.654C643.188 389.687 643.773 389.63 644.353 389.664C646.325 389.779 648.296 389.926 650.269 390.041C650.704 390.067 651.14 390.057 651.577 390.05L652.013 390.046C653.586 390.046 655.165 389.964 656.732 390.064C659.881 390.264 663.022 390.603 666.172 390.81C668.98 390.995 671.795 391.072 674.607 391.212C676.967 391.329 679.326 391.478 681.686 391.595L685.06 391.767C686.747 391.852 688.434 391.929 690.122 391.973C693.281 392.057 696.442 392.045 699.601 392.099C699.786 392.102 700.114 392.304 700.126 392.436C700.213 393.382 700.235 394.335 700.278 395.285C699.776 395.219 699.276 395.118 698.772 395.093C695.938 394.951 693.1 394.886 690.271 394.681C687.894 394.509 685.534 394.076 683.156 393.953C680.663 393.823 678.157 393.946 675.658 393.906C675.128 393.898 674.608 393.603 674.073 393.547L670.612 393.17C669.073 393.007 667.534 392.862 665.991 392.789C663.239 392.66 660.474 392.804 657.718 392.738C656.683 392.713 655.659 392.389 654.622 392.287C653.8 392.206 652.964 392.285 652.137 392.238C651.237 392.187 650.341 392.066 649.442 391.986C646.49 391.725 643.542 391.359 640.584 391.239C637.378 391.109 634.162 391.256 630.953 391.187C629.661 391.159 628.376 390.873 627.086 390.716C626.222 390.611 625.356 390.506 624.488 390.438C622.647 390.295 620.804 390.164 618.96 390.053C618.316 390.014 617.667 390.076 617.022 390.041C614.92 389.926 612.821 389.738 610.718 389.68C609.66 389.65 608.595 389.93 607.536 389.911C605.801 389.88 604.07 389.694 602.334 389.622C601.203 389.575 600.065 389.666 598.936 389.602C596.941 389.49 594.953 389.275 592.958 389.167C591.745 389.102 590.525 389.182 589.309 389.152C588.395 389.129 587.483 388.976 586.571 388.992C585.999 389.003 585.43 389.219 584.859 389.344C585.182 389.618 585.5 389.897 585.828 390.165C589.352 393.045 592.848 395.96 596.41 398.792C600.432 401.991 604.538 405.085 608.564 408.279C612.078 411.066 615.527 413.936 619.015 416.757C620.171 417.691 621.356 418.589 622.53 419.501C623.246 420.057 623.149 420.353 622.386 420.651L622.272 420.693C619.689 421.627 617.18 422.8 614.551 423.564C612.216 424.243 609.753 424.474 607.356 424.95C605.233 425.371 603.136 425.941 601.001 426.286C599.65 426.505 598.25 426.405 596.876 426.502C595.612 426.591 594.345 426.702 593.094 426.892C591.199 427.18 589.326 427.631 587.424 427.848C585.802 428.034 584.152 427.956 582.518 428.054C581.125 428.137 579.73 428.25 578.349 428.444C576.325 428.73 574.324 429.191 572.295 429.406C570.542 429.593 568.759 429.477 566.999 429.612C565.124 429.757 563.264 430.087 561.389 430.248C558.898 430.463 556.397 430.575 553.904 430.77C553.241 430.822 552.593 431.096 551.93 431.132C548.969 431.293 546.003 431.383 543.042 431.545C542.057 431.599 541.084 431.845 540.099 431.911C537.677 432.072 535.253 432.243 532.827 432.297C525.557 432.459 518.286 432.62 511.015 432.672C507.967 432.693 504.911 432.253 501.872 432.365C499.22 432.462 496.642 432.379 494.005 431.997C491.556 431.642 489.008 432.044 486.518 431.883C484.484 431.752 482.475 431.252 480.448 430.97C478.033 430.635 475.608 430.38 473.196 430.03C472.89 429.985 472.356 429.468 472.401 429.353L472.802 428.331C474.082 425.102 475.492 421.951 477.778 419.225C480.593 415.866 483.937 413.216 487.701 411.062L488.216 410.772C489.598 410.005 490.963 409.192 492.402 408.547L494.561 407.571C496.244 406.816 497.942 406.092 499.694 405.56C502.513 404.705 505.455 404.26 508.338 403.612C509.97 403.246 511.578 402.757 513.221 402.455C515.659 402.006 518.126 401.711 520.567 401.278C522.401 400.953 524.227 400.565 526.034 400.115C528.43 399.519 530.823 398.898 533.184 398.176C538.117 396.666 542.952 394.918 547.146 391.78C547.366 391.615 547.625 391.502 547.866 391.365C547.553 391.184 547.259 390.941 546.922 390.84C546.626 390.752 546.281 390.822 545.958 390.822L541.952 390.826C541.284 390.826 540.616 390.824 539.949 390.82L507.557 390.621C496.76 390.556 485.962 390.497 475.165 390.455C470.76 390.438 466.354 390.807 461.949 390.794C455.928 390.776 449.907 390.578 443.887 390.429C439.739 390.326 435.594 390.114 431.446 390.072C429.368 390.052 427.287 390.43 425.21 390.409C420.545 390.361 415.881 390.192 411.218 390.041C408.169 389.942 405.122 389.7 402.073 389.687C399.672 389.676 397.27 390.007 394.867 390.018C392.918 390.028 390.967 389.705 389.019 389.726C388.613 389.73 387.775 390.791 387.882 391.03C389.177 393.912 387.594 396.219 386.201 398.3C383.45 402.408 379.507 405.012 374.719 406.445C371.96 407.27 369.281 408.375 366.593 409.433L365.584 409.827C360.411 411.827 356.273 414.942 354.751 420.579C353.982 423.43 353.517 426.262 353.95 429.35C354.906 436.163 358.252 441.598 362.68 446.523L363.006 446.882C365.423 449.526 367.777 452.257 370.432 454.645C375.851 459.518 381.318 464.357 387.022 468.888C392.597 473.317 398.359 477.544 404.287 481.488C409.397 484.887 414.821 487.824 420.172 490.848C423.614 492.793 427.129 494.623 430.698 496.323C433.695 497.751 436.832 498.882 439.879 500.21C442.572 501.384 445.176 502.777 447.909 503.842C451.687 505.314 455.527 506.64 459.384 507.896C462.867 509.029 466.385 510.071 469.93 510.992C472.964 511.78 476.066 512.298 479.121 513.009C483.064 513.928 486.976 514.982 490.928 515.861C493.926 516.528 496.958 517.056 499.989 517.565C502.723 518.024 505.472 518.408 508.222 518.763C510.609 519.071 513.003 519.337 515.401 519.535C517.713 519.726 520.038 519.758 522.35 519.95C524.726 520.147 527.088 520.502 529.465 520.69C530.59 520.78 531.734 520.606 532.869 520.612C535.397 520.625 537.926 520.638 540.452 520.726C542.017 520.78 543.575 521.064 545.139 521.082C549.532 521.133 553.927 521.1 558.321 521.1C560.476 521.1 562.636 521.2 564.783 521.073C567.139 520.933 569.534 520.156 571.817 520.433C574.601 520.771 577.203 520.363 579.883 519.967C581.106 519.786 582.388 520.034 583.627 519.918C587.199 519.583 590.757 519.081 594.332 518.797C597.437 518.551 600.564 518.577 603.673 518.36C605.278 518.248 606.859 517.818 608.462 517.624C610.06 517.43 611.679 517.404 613.277 517.208C614.963 517.002 616.65 516.756 618.308 516.397C621.601 515.685 624.902 514.983 628.148 514.087C630.523 513.432 632.813 512.468 635.147 511.659C635.292 511.608 635.574 511.644 635.636 511.74C635.716 511.866 635.716 512.166 635.621 512.264C634.221 513.696 632.879 515.205 631.342 516.476C630.882 516.857 630.159 516.967 629.461 517.04L628.847 517.102C626.85 517.321 624.826 517.33 622.847 517.642C620.839 517.959 618.89 518.648 616.882 518.968C614.846 519.293 612.769 519.353 610.712 519.554C609.707 519.652 608.703 519.785 607.705 519.941C605.299 520.315 602.904 520.778 600.49 521.082C597.826 521.418 595.143 521.598 592.472 521.882C590.915 522.047 589.369 522.337 587.81 522.473C585.197 522.702 582.575 522.837 579.96 523.049C579.232 523.108 578.52 523.347 577.792 523.417L574.906 523.701C572.982 523.888 571.057 524.064 569.129 524.179C567.175 524.296 565.207 524.159 563.248 524.21C559.488 524.309 555.729 524.567 551.97 524.561C547.672 524.554 543.371 524.391 539.077 524.182C535.796 524.022 532.528 523.615 529.248 523.449C526.884 523.33 524.503 523.525 522.139 523.395C520.212 523.289 518.305 522.869 516.381 522.662C514.651 522.477 512.91 522.409 511.176 522.256C510.106 522.162 509.032 522.055 507.976 521.862C506.706 521.629 505.457 521.285 504.194 521.014C503.042 520.767 501.889 520.526 500.728 520.33C498.607 519.973 496.485 519.617 494.355 519.325C492.627 519.088 490.871 519.034 489.156 518.735C487.719 518.483 486.324 517.99 484.909 517.611L478.195 515.808C477.076 515.51 475.956 515.213 474.835 514.92C471.72 514.106 468.556 513.457 465.485 512.504C460.952 511.098 456.484 509.487 451.987 507.964C448.472 506.773 444.919 505.682 441.451 504.366L439.939 503.789C437.42 502.818 434.91 501.788 432.561 500.492L424.569 496.098C417.91 492.431 411.278 488.716 404.835 484.701C398.029 480.46 391.704 475.437 385.241 470.659C378.1 465.379 371.861 459.083 365.754 452.685L364.818 451.697C360.468 447.067 356.409 442.169 353.695 436.343L353.409 435.715C352.433 433.517 351.121 431.203 351.065 428.916C350.939 423.794 351.891 418.863 355.723 414.852C358.76 411.673 362.441 409.58 366.218 407.605L368.689 406.325C373.115 404.028 377.582 401.795 381.889 399.289C383.418 398.4 384.756 396.947 385.771 395.47C386.883 393.853 385.921 391.683 383.963 391.251C380.599 390.509 377.197 389.836 373.775 389.478C369.055 388.983 364.302 388.791 359.56 388.525C359.149 388.502 358.504 388.776 358.322 389.107C355.798 393.69 351.842 396.536 347.023 398.146C343.289 399.394 339.404 400.181 335.629 401.315C332.806 402.164 330.101 403.427 327.255 404.17C323.442 405.165 320.115 407.114 317.173 409.504L316.331 410.198C312.711 413.234 309.475 416.693 308.57 421.732C307.896 425.487 308.085 429.043 309.208 432.792C310.836 438.23 314.19 442.346 317.877 446.334C319.719 448.325 321.677 450.21 323.626 452.099C329.649 457.934 336.162 463.153 342.978 468.052C351.012 473.826 359.495 478.759 368.277 483.284L370.345 484.341C375.409 486.918 380.502 489.49 384.943 493.162C388.507 496.108 391.743 499.343 393.876 503.444L394.577 504.798C395.688 506.974 396.736 509.288 396.799 511.548L396.834 512.854C396.88 514.907 396.845 517.058 396.212 519.225C394.003 526.784 389.085 532.318 383.585 537.413C377.947 542.634 371.648 547.031 364.905 550.761C362.157 552.281 359.524 554.026 356.707 555.396C354.01 556.707 351.129 557.632 348.353 558.784C345.173 560.104 342.078 561.658 338.838 562.804C334.245 564.429 329.549 565.761 324.905 567.245C321.938 568.192 319.011 569.275 316.02 570.139C312.352 571.198 308.626 572.056 304.944 573.068C302.533 573.731 300.178 574.596 297.758 575.22C294.726 576.001 291.646 576.592 288.602 577.331C285.672 578.041 282.778 578.909 279.838 579.574C276.119 580.415 272.373 581.141 268.632 581.878C265.297 582.534 261.954 583.152 258.61 583.76C255.638 584.3 252.659 584.801 249.685 585.325C248.884 585.466 248.082 585.753 247.29 585.722C246.952 585.709 246.668 585.019 246.307 584.695C245.796 584.238 245.236 583.836 244.698 583.409C245.442 583.319 246.197 583.278 246.929 583.127C249.367 582.624 251.788 582.038 254.232 581.565C257.096 581.01 259.989 580.597 262.847 580.016C264.916 579.595 266.937 578.94 269.003 578.499C271.707 577.921 274.45 577.515 277.148 576.911C279.121 576.47 281.038 575.785 283 575.289C284.435 574.926 285.921 574.766 287.351 574.389C289.734 573.761 292.075 572.974 294.461 572.361C296.848 571.749 299.285 571.331 301.67 570.712C304.17 570.062 306.619 569.219 309.116 568.56C311.98 567.804 314.892 567.225 317.748 566.439C319.433 565.975 321.025 565.185 322.7 564.673C325.575 563.794 328.522 563.137 331.366 562.171C335.496 560.767 339.566 559.187 343.65 557.652L346.428 556.609C348.279 555.91 350.126 555.199 351.948 554.432C360.857 550.688 369.306 546.127 376.814 539.98L378.596 538.519C380.968 536.565 383.317 534.575 385.489 532.415C388.627 529.294 391.347 525.75 392.877 521.543C393.774 519.077 394.561 516.429 394.628 513.844C394.691 511.425 393.996 509.004 393.054 506.572C391.695 503.066 389.68 500.209 386.89 498.054C383.102 495.128 378.996 492.584 374.887 490.108C365.695 484.568 356.209 479.489 347.244 473.61C341.215 469.657 335.707 464.891 330.114 460.292L329.064 459.432C325.394 456.437 321.778 453.333 318.462 449.959C313.881 445.297 309.539 440.443 307.04 434.165C305.802 431.057 305.398 428.05 305.535 424.78C305.838 417.548 309.948 412.666 315.075 408.211C319.953 403.973 325.712 401.608 331.747 399.759C335.469 398.619 339.262 397.718 342.998 396.624C346.222 395.68 349.45 394.722 352.589 393.54C353.563 393.173 354.649 392.192 354.988 391.244C355.695 389.266 354.588 388.311 352.443 388.304C350.674 388.299 348.91 387.88 347.137 387.732C344.953 387.551 342.754 387.537 340.576 387.31C338.604 387.105 336.66 386.619 334.687 386.427C332.683 386.232 330.658 386.257 328.643 386.158C328.29 386.14 327.947 385.932 327.592 385.904C325.228 385.72 322.855 385.616 320.497 385.377C318.39 385.164 316.304 384.746 314.197 384.54C312.263 384.352 310.313 384.329 308.37 384.229C308.122 384.216 307.875 384.177 307.627 384.153C305.158 383.92 302.685 383.733 300.224 383.441C298.128 383.192 296.054 382.738 293.956 382.529C292.078 382.341 290.18 382.368 288.291 382.286C287.988 382.273 287.69 382.165 287.386 382.139C284.907 381.926 282.425 381.758 279.95 381.505C277.962 381.302 275.988 380.949 273.999 380.755C272.011 380.561 270.011 380.501 268.019 380.34C267.548 380.301 267.097 380.012 266.627 379.979C264.312 379.819 261.985 379.788 259.679 379.553C257.646 379.346 255.644 378.839 253.612 378.634C251.733 378.444 249.83 378.498 247.94 378.399C247.535 378.377 247.147 378.068 246.742 378.041C244.362 377.882 241.978 377.784 239.598 377.63C238.881 377.583 238.174 377.39 237.457 377.345C237.308 377.336 237.137 377.683 236.976 377.865L237.318 377.978C237.375 377.996 237.433 378.012 237.491 378.025C239.487 378.462 241.501 378.833 243.477 379.347C245.824 379.957 248.177 380.582 250.462 381.387C258.533 384.233 266.141 387.965 271.605 394.795C273.672 397.378 275.005 400.588 276.444 403.62C277.198 405.21 277.761 407.014 277.874 408.756C278.05 411.477 277.779 414.227 277.681 416.964C277.618 418.714 277.619 420.474 277.419 422.209C277.225 423.888 276.831 425.545 276.488 427.204L275.545 431.778C275.072 434.064 274.588 436.347 274.063 438.622C273.651 440.41 272.934 442.127 272.478 443.907C272.012 445.728 271.752 447.6 271.302 449.425C270.783 451.533 270.128 453.607 269.58 455.709C268.978 458.014 268.485 460.348 267.847 462.643L267.47 463.987C267.088 465.331 266.679 466.67 266.166 467.961L265.901 468.603C265.534 469.454 265.674 469.49 266.265 469.53L266.456 469.542C269.978 469.794 273.526 469.9 277.01 470.421C279.599 470.809 282.106 471.745 284.644 472.453C286.672 473.018 288.694 473.605 290.717 474.186C290.889 474.235 291.053 474.31 291.221 474.373C291.058 474.439 290.895 474.562 290.731 474.563C289.136 474.578 287.525 474.71 285.948 474.541C283.361 474.263 280.768 473.907 278.228 473.35C276.409 472.952 274.697 472.087 272.891 471.6C272.029 471.367 271.046 471.422 270.143 471.538L268.865 471.701C267.373 471.894 265.88 472.112 264.444 472.517C262.083 473.183 260.935 475.163 259.888 477.133L259.541 477.787C256.552 483.403 253.677 489.08 250.72 494.713C247.399 501.041 244.036 507.347 240.696 513.665L240.427 514.19C239.238 516.57 238.311 519.15 235.762 520.513C235.224 520.8 234.456 520.657 233.794 520.712C233.855 520.214 233.773 519.634 234.001 519.23C236.433 514.933 238.92 510.667 241.379 506.386C243.627 502.472 245.955 498.599 248.076 494.617C251.314 488.537 254.545 482.445 257.511 476.231C259.791 471.455 261.708 466.502 263.697 461.591L264.947 458.512C266.403 454.918 267.838 451.314 269.076 447.645C270.504 443.412 271.552 439.049 272.701 434.726C273.385 432.154 274.163 429.576 274.503 426.949L274.732 425.185C275.224 421.357 275.672 417.501 275.601 413.67C275.539 410.328 274.871 406.837 273.686 403.71C271.13 396.971 266.4 391.849 260.241 388.124C256.185 385.672 251.947 383.63 247.241 382.627C244.609 382.066 242.091 380.98 239.461 380.406C237.246 379.923 234.948 379.654 232.682 379.622C229.485 379.576 226.284 379.872 223.083 379.953C220.714 380.014 218.338 379.875 215.973 379.999C214.562 380.073 213.169 380.482 211.767 380.741C209.664 381.129 207.533 381.405 205.464 381.927C201.165 383.013 196.797 383.949 192.639 385.449C181.948 389.304 171.92 394.55 162.6 401.05C156.288 405.453 150.394 410.415 145.189 416.112C139.592 422.237 134.782 428.936 131.513 436.61C130.242 439.593 129.232 442.701 128.3 445.81C127.639 448.015 127.028 450.302 126.898 452.581C126.735 455.441 127.107 458.329 127.206 461.207C127.257 462.671 127.114 464.148 127.244 465.602C127.367 466.973 127.629 468.353 128.015 469.674C128.564 471.547 129.262 473.378 129.933 475.214C133.626 485.33 139.949 493.2 149.727 497.998C151.94 499.084 154.336 499.881 156.73 500.491C158.344 500.902 159.804 500.436 160.768 498.65C164.565 491.613 169.548 485.554 176.309 481.166C179.742 478.938 183.356 476.987 186.92 474.969C189.891 473.287 193.135 472.418 196.487 471.831C198.545 471.471 200.536 470.584 202.596 470.416C204.925 470.227 207.298 470.579 209.653 470.693L210.234 470.695C213.822 470.823 217.418 471.165 220.994 471.02C224.251 470.887 227.395 470.271 230.55 468.939C235.102 467.017 237.405 463.758 238.566 459.353L239.293 456.484C239.72 454.785 240.123 453.082 240.381 451.358C240.662 449.486 240.279 447.518 240.532 445.639C240.885 443.012 241.392 440.381 242.138 437.841C242.702 435.92 243.649 434.114 244.435 432.254L244.69 431.632C246.3 427.572 249.074 424.291 252.103 421.324C255.685 417.815 259.771 414.9 264.646 413.296C266.556 412.668 268.405 411.857 270.305 411.199C270.592 411.099 271.011 411.379 271.368 411.483L270.948 411.76C270.878 411.806 270.807 411.85 270.734 411.892L269.45 412.641C262.819 416.516 256.296 420.551 251.186 426.443L250.675 427.035C248.724 429.31 246.886 431.679 246.141 434.75C245.633 436.845 244.475 438.805 244.126 440.912C243.664 443.702 243.724 446.577 243.522 449.413C243.479 450.012 243.232 450.593 243.155 451.193C242.857 453.51 242.927 455.937 242.243 458.13C240.782 462.814 238.341 466.993 233.894 469.494C231.491 470.845 228.964 472.179 226.322 472.847C223.961 473.445 221.409 473.364 218.921 473.383L218.389 473.388C213.586 473.46 208.781 473.37 203.977 473.418C197.726 473.48 191.567 474.389 185.9 477.044C179.29 480.141 173.401 484.299 168.773 490.136C165.763 493.932 163.038 497.846 161.588 502.485C160.981 504.43 159.362 504.044 158.367 503.866L157.343 503.677C154.947 503.222 152.52 502.641 150.381 501.574C146.95 499.862 143.591 497.828 140.616 495.419C135.44 491.229 131.172 486.122 128.592 479.925C126.92 475.91 125.531 471.7 124.688 467.444C124.103 464.494 124.593 461.347 124.49 458.283L124.461 457.672C124.275 454.678 124.773 451.822 125.488 448.971L125.624 448.436C126.568 444.795 127.147 441.012 128.517 437.54C129.779 434.342 131.687 431.392 133.443 428.396L133.817 427.753C137.421 421.495 142.022 415.996 147.201 411.016C153.903 404.571 161.352 399.064 169.351 394.319L172.612 392.378C174.789 391.089 176.981 389.825 179.236 388.691C181.789 387.406 184.486 386.4 187.161 385.365L188.052 385.019C190.371 384.111 192.712 383.243 195.085 382.492C198.37 381.454 201.683 380.5 205.006 379.592C207.34 378.955 209.69 378.327 212.071 377.929C214.967 377.445 217.909 377.248 220.82 376.851C223.2 376.526 225.564 376.091 227.933 375.695C228.095 375.668 228.243 375.561 228.397 375.491C228.228 375.431 228.054 375.311 227.89 375.322C226.262 375.436 224.633 375.708 223.01 375.67C220.302 375.605 217.598 375.354 214.894 375.163C214.343 375.125 213.798 374.94 213.25 374.936C210.255 374.913 207.26 374.969 204.266 374.908C202.508 374.872 200.756 374.591 198.998 374.554C196.069 374.492 193.137 374.582 190.208 374.52C188.45 374.483 186.698 374.204 184.94 374.166C182.649 374.116 180.356 374.135 178.063 374.145L176.344 374.149C173.478 374.149 170.608 374.249 167.749 374.119C165.329 374.009 162.926 373.527 160.506 373.412C158.954 373.338 157.381 373.764 155.823 373.733C153.042 373.678 150.267 373.406 147.487 373.306C145.84 373.246 144.184 373.419 142.538 373.35C139.767 373.235 137.001 373.017 134.234 372.826C133.682 372.788 133.136 372.612 132.586 372.609C129.204 372.588 125.82 372.641 122.439 372.581C120.681 372.55 118.928 372.264 117.171 372.228C114.177 372.166 111.182 372.211 108.187 372.211L102.068 372.211C101.048 372.212 100.029 372.215 99.0088 372.22C98.721 372.221 98.4338 372.347 98.1463 372.416L98.6814 372.685C98.77 372.731 98.8579 372.779 98.9443 372.828C105.14 376.397 110.762 380.703 115.585 385.995C118.813 389.538 121.763 393.299 123.529 397.821C124.356 399.938 125.175 402.085 125.681 404.291C125.988 405.627 125.558 407.114 125.697 408.51C125.88 410.355 125.54 412.079 124.878 413.749C122.838 418.899 119.374 422.808 114.67 425.75C111.489 427.739 108.157 429.299 104.495 429.97C101.636 430.495 98.7129 430.772 95.8064 430.912C93.213 431.036 90.5874 430.977 88.0057 430.711C85.8 430.484 83.646 429.794 81.4518 429.407C79.1041 428.993 76.7277 428.742 74.3802 428.327C72.8766 428.061 71.4146 427.564 69.9131 427.282C66.7595 426.689 63.5826 426.217 60.4344 425.598C58.8889 425.294 57.3911 424.754 55.8617 424.359L55.0859 424.158C54.5668 424.026 54.0441 423.905 53.5191 423.842L53.1249 423.805C51.8464 423.726 51.0875 422.631 51.6293 421.411C51.6551 421.353 52.0055 421.408 52.1923 421.457C53.784 421.877 55.3692 422.322 56.9633 422.733L60.8521 423.736C62.1492 424.067 63.4479 424.391 64.7506 424.698C67.9777 425.459 71.2095 426.206 74.4587 426.864C76.412 427.259 78.3828 427.579 80.3569 427.864L83.0897 428.247C84.8975 428.499 86.7109 428.731 88.5256 428.777C91.0097 428.838 93.5011 428.523 95.9915 428.444C97.9079 428.383 99.8341 428.526 101.744 428.399C103.028 428.313 104.348 428.071 105.551 427.625C108.434 426.558 111.301 425.425 114.093 424.142C117.492 422.58 119.992 419.819 122.348 417.054C123.174 416.084 123.196 414.295 123.225 412.873C123.233 412.517 121.887 411.978 121.099 411.786C117.662 410.945 114.176 410.293 110.756 409.392C108.038 408.676 105.404 407.652 102.707 406.851C100.712 406.258 98.6631 405.852 96.6635 405.274C93.6593 404.407 91.8734 401.873 92.1069 398.951C92.1102 398.909 91.9749 398.85 91.9826 398.816C92.4346 396.853 91.5246 396.388 89.1343 396.854C87.0107 397.267 84.7999 397.223 82.6313 397.422C81.5043 397.525 80.3719 397.651 79.2657 397.881C76.5941 398.437 73.956 399.409 71.2679 399.559C68.3802 399.721 65.4528 399.042 63.1154 397.069C60.7011 395.031 58.3713 392.892 56.0259 390.773C54.2785 389.195 52.5621 387.582 50.8397 385.976C50.5715 385.726 50.3449 385.431 50.099 385.157C50.5781 385.148 51.2145 384.934 51.511 385.162C53.5219 386.708 55.6907 388.141 57.3694 390.006L58.6103 391.386C60.6885 393.672 62.8675 395.816 65.9033 396.67C68.3128 397.348 70.9634 397.426 73.4925 397.346C75.886 397.27 78.282 396.73 80.6389 396.219C82.1248 395.896 83.6073 395.45 85.0173 394.871L85.5425 394.648C88.235 393.464 91.2981 393.67 93.3976 395.691L94.1143 396.417C94.8093 397.135 95.4969 397.983 95.2815 399.172L95.2399 399.363C95.1614 399.67 95.1979 400.035 95.0438 400.29L94.6559 400.942C94.0063 402.073 94.1429 402.24 95.5843 402.693L96.0564 402.839C99.041 403.753 102.009 404.732 105.024 405.534C108.322 406.41 111.683 407.046 114.982 407.919C117.313 408.536 119.59 409.362 121.884 410.119C122.829 410.431 124.02 409.326 124.097 407.897C124.172 406.499 124.372 405.032 124.051 403.708C123.596 401.827 122.98 399.884 121.971 398.253C117.682 391.318 112.713 384.878 106.631 379.419C102.861 376.035 91.5062 369.767 82.601 367.896C73.6957 366.025 59.6926 367.081 56.9633 368.669C54.2339 370.258 50.1355 372.087 48.3149 372.57C48.1577 372.612 47.7962 372.416 47.7502 372.264C47.231 370.546 48.4981 369.74 49.648 369.145C52.3616 367.741 55.142 366.453 57.9511 365.249C61.6537 363.661 65.6845 363.456 69.5991 363.014C71.7257 362.774 73.9862 363.601 76.171 364.025C78.3281 364.445 80.4939 364.867 82.601 365.478C83.7372 365.807 84.7623 366.526 85.8309 367.081C90.0755 369.288 94.1658 369.191 98.2511 366.543C99.5426 365.706 101.22 365.491 102.619 364.788C108.739 361.713 114.826 358.573 120.914 355.437C126.845 352.382 132.763 349.301 138.688 346.234C139.441 345.844 140.22 345.498 140.943 345.06C141.063 344.988 141.07 344.394 140.935 344.288C138.115 342.071 135.299 339.848 132.42 337.711C126.644 333.426 120.745 329.302 115.066 324.894C111.967 322.488 109.046 319.797 106.34 316.954C100.38 310.694 94.7227 304.145 88.7245 297.923C83.4681 292.47 77.9673 287.248 72.4191 282.091C71.8125 281.527 69.7244 281.586 69.1007 282.177C66.0961 285.022 63.356 288.147 60.5283 291.179C60.2317 291.497 60 291.877 59.6926 292.183C59.5142 292.361 59.2448 292.447 59.0163 292.574C59.0024 292.321 58.9345 292.058 58.983 291.817C59.3551 289.972 59.3916 287.941 60.2387 286.341C61.08 284.753 67.2512 278.319 70.3719 278.319C73.4925 278.319 101.291 307.395 101.291 307.395C105.51 311.986 109.766 316.543 114.21 320.906C121.077 327.647 128.42 333.894 136.405 339.325C140.149 341.87 144.333 343.088 148.819 342.676C150.96 342.48 153.007 341.389 155.152 341.04C157.211 340.705 159.342 340.82 161.44 340.712C164.097 340.576 166.594 341.305 169.141 341.925C172.215 342.673 175.136 343.734 178 345.054C185.243 348.395 191.437 353.345 197.966 357.797C203.171 361.347 208.469 364.795 213.947 367.896C216.992 369.62 220.426 370.763 223.806 371.755C226.686 372.601 229.74 372.846 232.714 373.381C233.627 373.545 234.52 373.825 235.433 373.988L238.521 374.541C240.065 374.814 241.612 375.076 243.164 375.298C246.292 375.746 249.434 376.1 252.573 376.472C255.966 376.875 259.363 377.257 262.759 377.637C265.151 377.905 267.545 378.153 269.937 378.415C272.266 378.67 274.588 379.01 276.923 379.17C279.968 379.379 283.027 379.385 286.071 379.601C287.869 379.729 289.644 380.168 291.442 380.334C293.687 380.541 295.946 380.594 298.197 380.755C298.667 380.788 299.119 381.084 299.589 381.114C302.098 381.274 304.621 381.285 307.118 381.546C309.388 381.784 311.619 382.429 313.891 382.617C316.243 382.812 318.623 382.652 320.99 382.697C321.456 382.706 321.913 383.028 322.382 383.053C325.344 383.211 328.309 383.311 331.27 383.469C331.739 383.494 332.191 383.779 332.663 383.832C335.16 384.113 337.656 384.465 340.163 384.589C342.785 384.719 345.42 384.595 348.048 384.636C348.643 384.645 349.228 384.936 349.828 384.996C352.649 385.277 355.468 385.636 358.297 385.751C361.503 385.881 364.718 385.755 367.928 385.799C368.781 385.811 369.626 386.09 370.482 386.16L374.566 386.498C376.608 386.663 378.651 386.816 380.697 386.923C382.845 387.036 385.006 386.9 387.159 386.954C390.812 387.047 394.463 387.233 398.116 387.322C400.463 387.379 402.816 387.394 405.158 387.276C405.585 387.254 406.308 386.506 406.32 386.078C406.357 384.714 407.266 341.239 407.176 339.933C407.159 339.694 407.385 339.439 407.498 339.192C407.643 339.408 407.896 339.615 407.916 339.842C408.075 341.704 408.967 383.542 408.972 386.923C408.972 387.06 409.693 387.327 410.067 387.309C411.696 387.233 461.115 387.541 463.43 387.384C464.35 387.322 465.055 387.053 464.949 385.836C464.751 383.569 464.922 332.767 464.922 332.767C464.922 332.767 443.087 316.954 436.223 316.779ZM562.966 388.962C560.56 389.272 558.259 390.517 555.859 390.72C552.765 390.982 550.274 392.572 547.603 393.719C543.358 395.543 539.311 397.824 535.082 399.689C533.23 400.506 531.128 400.746 529.155 401.303C528.276 401.551 526.083 402.066 525.968 402.085L523.361 402.517C522.058 402.737 520.757 402.968 519.466 403.242C516.246 403.926 513.039 404.672 509.838 405.439C507.193 406.073 504.57 406.8 501.925 407.432L500.336 407.798C495.551 408.854 491.088 410.702 487.001 413.34C482.331 416.354 478.235 419.996 475.767 425.149C474.848 427.067 475.336 428.182 477.249 428.434C477.819 428.508 478.384 428.61 478.953 428.69C480.196 428.865 481.435 429.089 482.683 429.195C484.738 429.369 486.799 429.458 488.857 429.597C490.613 429.716 492.367 429.913 494.125 429.967C496.212 430.032 498.304 429.943 500.393 429.991C504.863 430.093 509.331 430.305 513.801 430.344C516.137 430.364 518.474 430.037 520.813 430C524.646 429.937 528.482 430.033 532.315 429.968C534.39 429.933 536.465 429.857 538.539 429.77L542.688 429.59C545.048 429.488 547.41 429.385 549.765 429.194C552.204 428.996 554.637 428.703 557.069 428.422C557.605 428.36 558.121 428.09 558.655 428.058C561.358 427.898 564.064 427.801 566.767 427.642C567.236 427.614 567.692 427.299 568.158 427.286C570.008 427.236 571.874 427.4 573.705 427.207C575.592 427.008 577.429 426.339 579.315 426.141C581.959 425.862 584.633 425.886 587.284 425.67C589.043 425.527 590.786 425.186 592.537 424.944C593.782 424.772 595.042 424.677 596.274 424.437C597.574 424.184 598.833 423.702 600.138 423.492C603.104 423.015 606.086 422.637 609.063 422.23C611.091 421.953 613.136 421.769 615.148 421.405C616.517 421.157 617.846 420.685 619.177 420.26C619.278 420.227 619.367 419.635 619.255 419.535C617.945 418.366 616.619 417.215 615.254 416.112C609.981 411.851 604.682 407.622 599.413 403.356C595.149 399.904 591.059 396.215 586.619 393.01C583.299 390.613 580.439 391.054 578.776 393.573L578.324 394.251C576.657 396.717 574.864 398.979 572.2 400.471C571.953 400.609 571.8 400.916 571.603 401.144C571.917 401.322 572.254 401.683 572.541 401.647C573.811 401.486 575.059 401.102 576.329 401.025C576.975 400.986 577.666 401.392 578.29 401.693C578.365 401.729 578.266 402.461 578.056 402.708C573.928 407.563 568.498 410.353 562.56 412.245C560.101 413.029 557.531 413.455 555.039 414.145C553.098 414.683 551.227 415.486 549.275 415.975C547.068 416.527 544.811 416.883 542.568 417.279C541.052 417.547 539.515 417.696 538 417.973C536.047 418.332 534.113 418.799 532.159 419.153C530.931 419.376 529.685 419.526 528.44 419.62C526.306 419.781 524.168 419.942 522.03 419.974C519.218 420.016 516.404 419.943 513.591 419.892C513.163 419.884 512.738 419.721 512.311 419.629C512.888 419.462 513.455 419.225 514.043 419.142C514.995 419.007 515.963 418.995 516.92 418.892C518.283 418.746 519.64 418.537 521.005 418.407C522.501 418.264 524.014 418.267 525.497 418.052C527.76 417.723 529.996 417.208 532.258 416.87C534.24 416.574 536.256 416.496 538.231 416.168C539.903 415.891 541.525 415.328 543.192 415.01C545.218 414.622 547.294 414.475 549.299 414.01C551.605 413.475 553.883 412.783 556.125 412.018C558.763 411.118 561.348 410.061 563.96 409.082C566.841 408.001 569.738 406.96 572.601 405.836C573.215 405.595 573.716 405.068 574.27 404.674C573.463 404.321 572.671 403.929 571.841 403.645C571.629 403.572 571.307 403.878 571.021 403.95C569.866 404.24 568.717 404.651 567.545 404.737C566.506 404.813 565.318 404.587 565.384 403.115C565.411 402.53 565.669 401.577 566.049 401.444C571.315 399.602 574.986 395.88 578.051 391.44C578.247 391.155 578.04 390.163 577.842 390.104C576.607 389.738 575.331 389.425 574.05 389.324C572.397 389.193 570.725 389.324 569.065 389.259C567.027 389.179 564.953 388.706 562.966 388.962ZM466.957 332.767L467.052 334.203C467.249 337.415 468.064 381.388 468.3 384.036C468.345 384.539 469.161 385.484 469.614 385.548C471.161 385.768 481.214 388.102 481.214 384.036C481.085 378.021 481.365 337.013 481.16 336.957C479.235 336.439 467.406 332.861 466.957 332.767ZM153.937 343.445C149.681 344.664 145.459 346.101 141.391 347.84C136.723 349.836 132.204 352.194 127.682 354.516C122.402 357.228 117.194 360.079 111.945 362.852C110.41 363.663 108.859 364.451 107.284 365.181C104.72 366.371 102.128 367.501 99.5539 368.669C99.3172 368.777 99.1241 368.98 98.9107 369.139C99.1526 369.258 99.385 369.453 99.6378 369.485L101.854 369.767C103.332 369.953 104.811 370.128 106.295 370.242C107.127 370.307 107.988 369.92 108.831 369.94C111.261 369.996 113.689 370.144 116.116 370.277C116.989 370.325 117.859 370.439 118.731 370.51C120.982 370.693 123.232 370.928 125.487 371.032C128.257 371.16 131.033 371.177 134 371.435C136.467 371.306 138.938 371.016 141.399 371.088C144.527 371.179 147.643 371.657 150.771 371.787C152.518 371.859 154.286 371.405 156.035 371.466C160.97 371.637 165.898 372.089 170.833 372.169C175.105 372.239 179.382 371.869 183.658 371.84C192.444 371.782 201.231 371.8 210.017 371.841C212.032 371.85 214.045 372.095 216.06 372.193C216.294 372.204 216.54 371.97 216.781 371.85C216.623 371.712 216.481 371.547 216.305 371.439C210.787 368.074 205.261 364.722 199.745 361.352C195.057 358.488 190.458 355.465 185.699 352.73L184.106 351.83C179.037 349.013 174.601 344.953 168.702 343.718C166.396 343.235 164.084 342.478 161.766 342.443C159.155 342.403 156.445 342.727 153.937 343.445Z" fill="#00160A"/>
<path fill-rule="evenodd" clip-rule="evenodd" d="M195.941 319.576C198.916 315.437 201.631 311.266 204.711 307.384C209.643 301.167 214.775 295.107 219.907 289.052C222.408 286.101 225.054 283.269 227.713 280.458C231.418 276.542 235.008 272.489 238.986 268.866C245.397 263.026 252.053 257.451 258.663 251.831C266.141 245.472 274.359 240.141 282.775 235.151C287.351 232.438 292.199 230.168 297.003 227.863C300.454 226.208 304.021 224.789 307.564 223.332C311.044 221.901 314.52 220.441 318.072 219.207C320.871 218.234 323.762 217.5 326.649 216.813C329.706 216.085 332.8 215.506 335.889 214.924C338.359 214.459 340.841 214.042 343.33 213.69C345.707 213.353 348.096 213.075 350.488 212.868C352.777 212.669 355.077 212.476 357.371 212.493C361.002 212.519 364.631 212.831 368.26 212.817C370.895 212.807 373.481 212.803 376.13 213.1C378.769 213.396 381.426 213.707 384.076 213.931C386.744 214.156 389.33 214.559 391.94 215.126C394.319 215.643 396.85 215.48 399.218 216.032C402.601 216.821 405.886 218.027 409.232 218.986C412.705 219.981 416.243 220.765 419.672 221.888C422.045 222.666 424.256 223.928 426.587 224.855C429.067 225.842 431.683 226.517 434.094 227.64C437.018 229.003 439.797 230.677 442.624 232.243C450.029 236.344 457.191 240.819 463.837 246.082C465.937 247.745 468 249.456 470.072 251.154C470.37 251.399 470.724 251.652 470.876 251.982C471.142 252.562 471.272 253.205 471.459 253.821C470.964 253.543 470.408 253.338 469.984 252.977C463.573 247.526 456.495 243.023 449.357 238.629C446.047 236.591 442.53 234.886 439.075 233.092C437.24 232.139 435.374 231.226 433.458 230.456C429.275 228.772 425.056 227.177 420.841 225.574C417.77 224.406 414.711 223.191 411.592 222.167C408.13 221.03 404.63 219.988 401.1 219.086C398.02 218.299 394.891 217.665 391.752 217.154C389.767 216.831 387.711 216.968 385.714 216.697C384.085 216.475 382.515 215.775 380.886 215.613C378.923 215.418 376.924 215.596 374.942 215.549C374.347 215.535 373.758 215.203 373.164 215.197C369.782 215.161 366.399 215.218 363.017 215.162C361.518 215.137 360.02 214.795 358.526 214.825C356.786 214.86 355.055 215.189 353.315 215.308C351.37 215.442 349.414 215.435 347.471 215.584C346.036 215.693 344.603 215.902 343.186 216.159C341.139 216.529 339.113 217.023 337.064 217.387C335.516 217.663 333.93 217.735 332.391 218.047C330.499 218.432 328.626 218.926 326.768 219.456C324.481 220.109 322.223 220.866 319.942 221.546C317.964 222.135 315.91 222.52 313.999 223.272C307.85 225.692 301.666 228.051 295.655 230.784C286.92 234.755 278.642 239.605 270.754 245.065C265.797 248.497 261.009 252.177 256.212 255.834C246.602 263.16 238.119 271.724 229.771 280.401C225.506 284.834 221.606 289.628 217.688 294.38C213.703 299.214 209.809 304.13 206.039 309.134C202.276 314.128 198.623 319.211 195.097 324.374C191.985 328.929 189.118 333.652 186.126 338.289C185.99 338.5 185.681 338.599 185.453 338.749C185.492 338.529 185.48 338.281 185.579 338.092C187.58 334.266 189.539 330.419 191.622 326.639C192.932 324.263 194.43 321.991 195.941 319.576Z" fill="#00160A"/>
<path fill-rule="evenodd" clip-rule="evenodd" d="M569.617 270.625C567.18 271.659 564.975 272.789 562.685 273.707C558.061 275.561 553.479 277.505 548.643 278.835C545.555 279.685 542.525 280.496 539.312 280.767C537.059 280.957 534.862 282.079 532.626 282.13C529.525 282.2 526.975 283.426 524.546 285.005C522.283 286.476 520.244 288.286 518.029 289.838C517.233 290.395 516.244 290.823 515.29 290.974C513.873 291.198 512.407 291.11 510.964 291.178C508.432 291.297 505.901 291.532 503.37 291.535C500.836 291.537 498.303 291.313 495.769 291.192C495.384 291.174 494.993 291.138 494.613 291.182C492.477 291.426 490.312 291.543 488.217 291.988C485.592 292.545 483.017 293.35 480.435 294.097C478.111 294.769 475.701 295.275 473.515 296.265C469.374 298.141 465.368 300.314 461.302 302.356C461.007 302.505 460.68 302.59 460.368 302.704C460.536 302.476 460.672 302.214 460.876 302.024C462.823 300.21 464.557 298.033 466.792 296.696C469.749 294.926 473.035 293.631 476.303 292.482C478.878 291.577 481.633 291.166 484.321 290.601C486.71 290.099 489.104 289.579 491.522 289.264C494.416 288.887 497.334 288.588 500.249 288.502C502.645 288.43 505.073 288.978 507.449 288.787C510.939 288.508 514.43 287.97 517.849 287.217C519.123 286.936 520.531 285.976 521.286 284.908C522.786 282.787 524.876 281.457 527.064 280.566C529.059 279.753 531.426 279.863 533.625 279.539C535.672 279.237 537.717 278.919 539.756 278.572C541.502 278.276 543.293 278.095 544.968 277.563C547.191 276.857 549.302 275.806 551.499 275.008C552.657 274.588 553.96 274.543 555.085 274.064C558.024 272.815 560.88 271.373 563.807 270.098C566.227 269.044 568.694 268.097 571.155 267.14C575.034 265.632 578.876 264.001 582.83 262.723C585.194 261.959 587.747 261.793 590.206 261.311C591.949 260.97 593.663 260.331 595.414 260.224C597.414 260.1 599.446 260.37 601.456 260.559C603.03 260.708 604.592 260.988 606.157 261.222C606.958 261.342 606.882 261.745 606.303 262.026C604.533 262.883 602.755 263.483 600.667 263.323C598.546 263.16 596.381 263.473 594.242 263.657C591.823 263.866 589.379 263.998 587.005 264.468C584.697 264.925 582.439 265.692 580.207 266.461C577.931 267.245 575.708 268.185 573.471 269.079C572.242 269.57 571.03 270.108 569.617 270.625Z" fill="#00160A"/>
<path fill-rule="evenodd" clip-rule="evenodd" d="M570.877 494.249C571.841 495.989 573.184 497.563 573.432 499.295C573.648 500.806 574.284 502.669 572.786 504.236C571.254 505.839 570.026 507.729 568.638 509.471C566.034 512.739 562.484 513.914 558.456 514.137C555.308 514.312 552.17 514.677 549.023 514.884C546.217 515.069 543.404 515.159 540.594 515.282C537.526 515.417 534.458 515.619 531.389 515.644C529.377 515.66 527.357 515.243 525.352 515.319C521.323 515.472 517.709 514.383 515.156 511.306C512.812 508.481 511.866 505.288 512.731 501.247C514.322 493.811 518.688 488.42 524.039 483.585C525.686 482.096 527.683 480.933 529.659 479.884C532.195 478.538 534.772 476.872 537.511 476.407C541.267 475.769 544.951 474.825 549.062 475.549C555.634 476.705 560.422 480.015 564.316 485.02C566.604 487.961 568.634 491.102 570.877 494.249ZM570.974 497.836C567.523 491.866 564.066 485.834 558.476 481.597C556.166 479.846 553.312 478.556 550.505 477.791C547.931 477.09 545.173 477.295 542.358 477.799C538.915 478.414 535.594 479.163 532.423 480.57C527.911 482.573 524.101 485.593 520.971 489.349C516.409 494.822 512.684 500.59 515.485 508.318C516.537 511.22 520.24 513.518 523.355 513.016C525.235 512.712 527.21 512.945 529.139 513.011C530.772 513.067 532.409 513.387 534.031 513.31C536.835 513.177 539.625 512.705 542.429 512.601C545.933 512.471 549.446 512.57 552.954 512.57C554.203 512.57 555.484 512.746 556.694 512.53C558.809 512.154 561.006 511.818 562.946 510.963C567.733 508.852 572.948 504.606 570.974 497.836Z" fill="#00160A"/>
<path fill-rule="evenodd" clip-rule="evenodd" d="M273.487 506.075C275.364 503.81 277.354 501.779 278.871 499.441C280.792 496.478 280.958 493.113 280.541 489.594C280.176 486.515 281.335 483.743 283.439 481.352C285.792 478.675 288.899 477.254 292.047 475.921C294.878 474.721 297.728 475.65 300.341 476.662C301.538 477.126 302.525 478.607 303.2 479.848C305.043 483.234 305.983 486.98 307.253 490.599C308.253 493.447 307.43 495.716 306.114 497.69C304.836 499.606 302.789 501.13 300.819 502.433C298.382 504.046 295.777 505.514 293.059 506.567C290.148 507.694 287.026 508.283 283.988 509.072C282.795 509.381 281.587 509.669 280.369 509.832C279.459 509.953 278.519 509.82 277.595 509.862C274.686 509.993 271.78 510.201 268.871 510.288C266.578 510.355 264.282 510.288 261.987 510.279C259.539 510.268 257.09 510.2 254.644 510.259C252.178 510.318 249.715 510.506 247.251 510.627C246.736 510.652 246.216 510.601 245.703 510.642C245.383 510.667 245.071 510.799 244.756 510.883C245.016 510.541 245.207 510.012 245.547 509.886C247.61 509.122 249.712 508.478 251.964 508.691C252.028 508.697 252.093 508.697 252.158 508.692C254.865 508.474 257.571 508.238 260.281 508.046C261.485 507.961 262.696 507.953 263.904 507.934C265.219 507.913 266.534 507.899 267.849 507.924C268.799 507.943 269.841 508.304 270.673 508.019C271.673 507.677 272.492 506.811 273.487 506.075ZM283.277 486.592C283.254 487.991 283.268 489.392 283.201 490.789C283.104 492.775 283.392 494.926 282.725 496.71C281.341 500.406 279.083 503.663 276.228 506.459C275.799 506.878 275.52 507.452 275.172 507.954C275.857 508.071 276.543 508.291 277.225 508.278C278.036 508.262 278.858 508.107 279.648 507.905C282.061 507.29 284.54 506.83 286.849 505.935C291.475 504.142 296.055 502.207 300.556 500.119C302.958 499.005 304.674 497.032 304.755 494.211C304.803 492.54 304.52 490.857 304.259 489.175C303.809 486.274 302.481 483.878 301.311 481.342C300.462 479.503 298.803 478.349 297.06 478.179C295.011 477.98 292.777 478.373 290.798 479.034C287.216 480.229 284.632 482.668 283.277 486.592Z" fill="#00160A"/>
<path fill-rule="evenodd" clip-rule="evenodd" d="M456.69 301.741C455.687 298.235 457.569 295.621 459.333 293.164C463.249 287.71 468.777 284.237 474.785 281.498C477.391 280.31 480.025 279.131 482.747 278.263C486.017 277.221 489.396 276.518 492.726 275.664C493.192 275.545 493.647 275.33 494.117 275.293C495.382 275.192 494.829 274.708 494.351 274.27C491.45 271.614 488.541 268.966 485.631 266.32C484.319 265.127 482.979 263.964 481.693 262.744C481.3 262.372 480.944 261.897 480.751 261.398C480.567 260.925 480.618 260.36 480.565 259.836C481.052 260.019 481.655 260.078 482.008 260.406C486.397 264.48 490.745 268.597 495.115 272.69C495.659 273.201 496.598 274.149 496.79 274.025C497.537 273.54 498.348 272.796 498.604 271.982C499.207 270.06 499.407 268.014 499.95 266.069C500.939 262.525 503.692 260.519 506.767 259.029C510.542 257.199 514.418 255.566 518.3 253.97C523.186 251.961 528.131 250.098 533.034 248.13C537.604 246.297 542.066 244.136 546.747 242.662C549.036 241.941 551.714 242.449 554.216 242.419C554.308 242.418 554.402 242.603 554.495 242.701C554.331 242.833 554.186 243.024 553.999 243.087C548.988 244.779 543.943 246.374 538.969 248.165C535.538 249.401 532.219 250.946 528.817 252.269C527.395 252.821 525.834 253.027 524.431 253.618C521.495 254.854 518.639 256.283 515.716 257.552C513.565 258.486 511.303 259.174 509.193 260.185C506.334 261.555 503.335 262.937 502.395 266.367C502.046 267.644 502.539 269.197 502.055 270.382C501.38 272.034 500.404 273.744 499.1 274.921C496.413 277.344 492.978 278.38 489.481 279.173C487.352 279.656 485.292 280.476 483.15 280.863C478.832 281.644 474.866 283.338 471.061 285.387C465.809 288.217 461.668 292.285 458.813 297.541C458.038 298.967 457.715 300.636 457.165 302.187C457.106 302.353 456.917 302.473 456.789 302.615C456.788 302.356 456.787 302.097 456.69 301.741Z" fill="#00160A"/>
<path fill-rule="evenodd" clip-rule="evenodd" d="M407.545 430.758C404.604 430.629 401.856 430.386 399.11 430.402C396.29 430.419 393.546 430.159 390.75 429.712C388.454 429.345 386.202 429.214 384.081 428.095C382.992 427.521 382.599 426.978 382.669 425.681C382.774 423.744 382.342 421.784 382.368 419.836C382.432 414.896 383.648 410.325 387.462 406.879C389.251 405.262 391.58 404.697 393.824 403.842C397.344 402.502 400.395 404.035 403.448 404.6C406.498 405.165 409.28 407.275 412.127 408.806C414.363 410.009 416.759 411.089 418.639 412.733C420.301 414.185 421.535 416.238 422.606 418.217C423.427 419.734 424.086 421.545 424.1 423.231C424.112 424.676 423.353 426.301 422.495 427.541C421.028 429.66 418.711 430.206 416.207 429.986C415.951 429.963 415.688 429.961 415.432 429.986C412.867 430.239 410.303 430.5 407.545 430.758ZM420.146 423.391C420.579 422.403 421.564 421.25 421.33 420.459C420.846 418.832 420.046 416.992 418.786 415.956C413.253 411.402 407.365 407.467 400.103 405.992C396.26 405.211 392.782 405.668 389.415 407.501C386.916 408.861 386.707 410.939 388.862 412.653C390.024 413.577 391.188 414.5 392.377 415.39C397.43 419.176 403.031 421.848 409.151 423.361C411.464 423.933 413.851 424.336 416.225 424.484C417.444 424.561 418.708 423.908 420.146 423.391ZM418.983 427.656C419.523 427.162 420.062 426.668 420.602 426.173C419.894 426.189 419.186 426.185 418.481 426.232C418.255 426.248 418.03 426.496 417.82 426.477C415.232 426.241 412.625 426.109 410.07 425.677C407.922 425.313 405.732 424.828 403.747 423.968C401.125 422.832 398.639 421.351 396.175 419.883C392.894 417.928 389.518 416.061 387.343 412.716C387.088 412.323 386.61 412.075 386.235 411.759C385.971 412.191 385.574 412.591 385.468 413.058C385.024 414.996 384.623 416.946 384.297 418.906C384.083 420.195 383.905 421.51 383.919 422.812C383.944 425.056 385.533 427.165 387.146 427.263C389.612 427.413 392.164 427.174 394.526 427.74C397.94 428.559 401.34 428.393 404.754 428.405C407.154 428.414 409.554 428.151 411.956 428.051C414.233 427.956 416.511 427.915 418.983 427.656Z" fill="#00160A"/>
<path fill-rule="evenodd" clip-rule="evenodd" d="M452.425 299.802C452.206 298.807 451.959 297.906 451.988 297.013C452.047 295.171 452.08 293.3 452.428 291.499C453.749 284.675 458.628 280.392 463.512 276.061C467.618 272.419 471.854 268.854 474.356 263.753C475.331 261.765 475.2 259.813 475.147 257.672C475.021 252.588 472.233 249.03 468.751 246.095C465.18 243.084 461.125 240.628 457.186 238.076C452.263 234.887 448.075 231.082 445.403 225.738C443.803 222.538 444.598 216.184 447.241 213.739C447.88 213.147 448.894 212.683 449.744 212.668C450.719 212.652 451.193 213.527 450.963 214.568C450.915 214.784 450.808 215.107 450.653 215.16C448.556 215.87 446.515 221.24 447.949 223.275C448.986 224.746 449.36 226.759 450.563 228.024C452.938 230.52 455.627 232.732 458.288 234.939C462.74 238.632 467.4 242.084 471.728 245.914C474.967 248.779 477.288 252.524 478.21 256.733C478.676 258.859 478.259 261.367 477.245 263.546C475.182 267.975 471.965 271.394 468.272 274.553C463.903 278.291 459.07 281.711 456.289 286.93C455.041 289.273 454.197 291.957 453.792 294.582C453.477 296.626 454.14 298.817 454.326 300.947C454.352 301.247 454.134 301.569 454.03 301.881C453.786 301.695 453.478 301.553 453.311 301.313C453.004 300.872 452.781 300.374 452.425 299.802Z" fill="#00160A"/>
<path fill-rule="evenodd" clip-rule="evenodd" d="M663.545 425.815C663.264 427.646 663.259 429.425 662.853 431.106C662.246 433.627 661.492 436.132 660.553 438.548C659.46 441.358 658.181 444.104 656.828 446.801C655.936 448.577 654.828 450.255 653.696 451.895C653.298 452.472 652.54 452.798 651.953 453.248C650.701 454.206 650.388 452.68 650.395 452.338C650.459 449.24 650.299 446.146 651.232 443.072C651.914 440.826 651.857 438.366 652.25 436.021C652.515 434.441 653.021 432.904 653.362 431.335C653.873 428.983 654.306 426.613 654.823 424.262C655.704 420.256 656.634 416.29 660.6 413.975C661.394 413.512 661.762 413.515 662.561 414.035C664.364 415.208 665.124 416.562 664.649 418.755C664.154 421.042 663.965 423.394 663.545 425.815ZM662.672 422.422C662.762 420.652 662.916 418.881 662.901 417.112C662.896 416.618 662.498 415.95 662.079 415.695C661.761 415.502 660.925 415.667 660.661 415.97C659.824 416.933 658.962 417.952 658.442 419.099C656.846 422.62 655.932 426.299 655.578 430.2C655.289 433.391 654.266 436.514 653.569 439.668C653.369 440.575 653.139 441.477 652.986 442.393C652.577 444.832 652.197 447.276 651.821 449.721C651.744 450.219 651.737 450.728 651.697 451.233C652.254 450.883 653.09 450.663 653.322 450.163C655.084 446.36 656.832 442.543 658.371 438.647C659.46 435.89 660.308 433.026 661.081 430.16C661.45 428.795 661.292 427.295 661.567 425.894C661.775 424.834 662.293 423.835 662.672 422.422Z" fill="#00160A"/>
<path fill-rule="evenodd" clip-rule="evenodd" d="M192.742 514.508C191.34 514.25 190.141 513.941 188.924 513.744C187.035 513.44 185.109 513.322 183.242 512.923C180.98 512.44 178.745 511.803 176.53 511.128C174.526 510.518 172.564 509.772 170.592 509.064C170.521 509.039 170.467 508.682 170.52 508.646C170.958 508.341 171.4 507.887 171.883 507.828C175.87 507.344 179.237 509.645 182.964 510.383C186.066 510.997 189.101 511.967 192.211 512.523C194.312 512.898 196.495 512.794 198.636 512.972C199.628 513.055 200.608 513.292 201.592 513.473C204.153 513.943 206.7 514.522 209.279 514.865C211.403 515.147 213.58 515.04 215.704 515.321C217.329 515.536 218.919 516.054 220.507 516.499C223.591 517.363 226.664 518.269 229.74 519.165C229.932 519.22 230.108 519.33 230.292 519.415C230.116 519.459 229.937 519.555 229.766 519.541C227.917 519.384 226.063 519.267 224.224 519.027C222.056 518.744 219.905 518.333 217.741 518.014C216.59 517.844 215.429 517.744 214.272 517.623C211.731 517.357 209.175 517.184 206.651 516.808C204.45 516.48 202.298 515.82 200.097 515.5C197.868 515.175 195.604 515.094 193.358 514.881C193.207 514.867 193.076 514.637 192.742 514.508Z" fill="#00160A"/>
<path fill-rule="evenodd" clip-rule="evenodd" d="M436.639 326.264C439.932 325.095 447.003 330.487 444.706 336.015C442.053 342.399 433.826 341.183 431.643 338.423C427.544 333.242 430.375 328.488 436.639 326.264ZM432.813 331.22C428.687 335.168 435.605 339.781 438.675 338.75C446.813 336.014 441.664 322.751 432.813 331.22Z" fill="#00160A"/>
<path fill-rule="evenodd" clip-rule="evenodd" d="M664.126 434.926C666.107 431.298 667.703 427.554 671.181 425.183C671.599 424.898 672.436 424.54 672.598 424.7C673.045 425.143 673.485 425.842 673.49 426.443C673.535 432.054 669.884 436.242 667.694 440.981C666.538 443.481 664.889 445.755 663.44 448.117C663.151 448.589 662.793 449.031 662.403 449.425C662.04 449.792 661.28 450.399 661.23 450.351C660.62 449.757 659.847 449.132 659.644 448.373C659.44 447.614 659.733 446.666 659.975 445.851C660.841 442.936 661.735 440.028 662.715 437.151C662.977 436.382 663.582 435.729 664.126 434.926ZM662.091 442.778C661.832 444.199 661.566 445.619 661.318 447.042C661.257 447.394 661.253 447.756 661.222 448.113C661.576 447.806 662.055 447.566 662.266 447.18C664.995 442.184 667.742 437.195 670.351 432.136C671.068 430.747 671.37 429.137 671.793 427.609C671.85 427.404 671.545 426.929 671.323 426.862C671.075 426.787 670.564 426.948 670.451 427.158C667.706 432.288 664.999 437.438 662.091 442.778Z" fill="#00160A"/>
<path fill-rule="evenodd" clip-rule="evenodd" d="M451.321 308.451C451.321 302.615 463.954 307.298 465.025 308.989C465.292 309.412 465.842 325.49 464.903 323.228C463.899 320.699 464.593 310.5 463.495 309.799C459.944 308.044 455.648 307.137 453.958 307.735C451.041 308.418 454.147 320.776 452.307 318.683C452.2 318.318 452.103 317.949 451.984 317.588C451.85 317.181 451.321 311.28 451.321 308.451Z" fill="#00160A"/>
<path fill-rule="evenodd" clip-rule="evenodd" d="M506.029 286.522C505.167 286.371 504.246 286.446 503.873 286.03C502.092 284.042 500.455 281.925 498.778 279.845C498.511 279.514 498.304 279.135 498.069 278.778C498.867 278.663 499.963 278.165 500.403 278.508C501.576 279.422 502.577 280.62 503.44 281.849C504.479 283.329 505.305 284.958 506.029 286.522Z" fill="#00160A"/>
<path fill-rule="evenodd" clip-rule="evenodd" d="M458.726 309.561C458.77 309.065 459.997 310.169 460.029 310.566C460.205 312.789 461.063 322.594 460.265 321.561C459.814 320.606 459.4 317.955 459.201 316.908C459.003 315.86 458.726 312.838 458.726 309.561Z" fill="#00160A"/>
<path fill-rule="evenodd" clip-rule="evenodd" d="M477.863 355.58C477.836 357.829 477.914 360.078 477.863 362.327C477.832 363.656 474.265 364.184 472.697 363.391C471.124 362.596 471.615 356.498 471.527 355.58C471.251 352.697 471.139 349.79 470.698 346.934C470.407 345.053 470.216 342.789 471.111 342.499C474.365 341.447 477.257 345.5 477.114 345.642C477.488 348.558 477.866 355.26 477.863 355.58ZM473.072 349.141C473.201 349.668 473.366 358.854 473.592 362.13C473.63 362.674 475.73 362.674 476.185 361.722C476.622 359.096 475.711 349.713 475.73 346.582C475.733 346.08 475.1 345.364 474.582 345.108C472.873 344.265 472.567 344.502 472.697 346.396C472.751 347.186 472.942 347.967 473.072 349.141Z" fill="#00160A"/>
<path fill-rule="evenodd" clip-rule="evenodd" d="M363.626 402.374C364.141 402.175 364.72 402.432 364.919 402.947C365.118 403.462 364.862 404.041 364.347 404.24C341.447 413.086 341.447 430.403 364.74 457.102C385.568 480.976 424.515 503.062 481.572 523.307C482.093 523.491 482.365 524.063 482.18 524.584C481.996 525.104 481.424 525.376 480.904 525.192C423.552 504.842 384.332 482.602 363.233 458.417C339.152 430.814 339.152 411.829 363.626 402.374Z" fill="#E7EAEE"/>
<path d="M402.289 519.215C402.469 518.693 403.039 518.417 403.56 518.597C404.082 518.778 404.359 519.347 404.179 519.869C399.734 532.721 391.618 543.431 379.852 551.98C368.126 560.501 348.752 568.213 321.707 575.151C321.172 575.288 320.627 574.965 320.49 574.43C320.352 573.895 320.675 573.351 321.21 573.213L323.09 572.726C348.93 565.973 367.466 558.508 378.676 550.362C390.117 542.049 397.98 531.673 402.289 519.215Z" fill="#09EEE3"/>
<path fill-rule="evenodd" clip-rule="evenodd" d="M403.4 530.162C403.526 529.624 404.063 529.29 404.601 529.415C405.139 529.541 405.473 530.079 405.348 530.616C401.337 547.806 392.801 560.107 379.755 567.447C366.866 574.699 352.975 579.631 338.086 582.243C337.542 582.338 337.024 581.975 336.928 581.431C336.833 580.887 337.196 580.368 337.74 580.273C352.407 577.7 366.083 572.844 378.774 565.704C391.307 558.653 399.511 546.829 403.4 530.162Z" fill="#E7EAEE"/>
<path fill-rule="evenodd" clip-rule="evenodd" d="M465.985 529.155C466.114 528.618 466.654 528.287 467.191 528.417C486.944 533.173 504.43 535.828 519.647 536.385L520.788 536.423C535.988 536.882 557.944 535.668 586.643 532.779C587.192 532.724 587.683 533.124 587.738 533.674C587.793 534.223 587.393 534.714 586.843 534.769L582.523 535.196C555.138 537.855 534.159 538.918 519.574 538.384C504.213 537.822 486.598 535.147 466.723 530.361C466.186 530.232 465.856 529.692 465.985 529.155Z" fill="#E7EAEE"/>
<path fill-rule="evenodd" clip-rule="evenodd" d="M319.841 411.551C320.292 411.233 320.916 411.342 321.234 411.794C321.551 412.246 321.442 412.87 320.99 413.187C315.433 417.093 312.517 421.042 312.148 425.006C311.774 429.019 314.017 434.551 318.941 441.533C319.259 441.985 319.151 442.609 318.7 442.927C318.249 443.245 317.625 443.137 317.307 442.686C312.133 435.35 309.729 429.418 310.156 424.821C310.589 420.176 313.848 415.762 319.841 411.551Z" fill="#00160A"/>
<path fill-rule="evenodd" clip-rule="evenodd" d="M321.994 416.14C322.313 415.915 322.755 415.992 322.979 416.312C323.204 416.632 323.127 417.073 322.807 417.298C318.875 420.061 316.812 422.855 316.551 425.659C316.287 428.498 317.874 432.412 321.357 437.352C321.582 437.671 321.506 438.113 321.187 438.338C320.867 438.563 320.426 438.487 320.201 438.168C316.541 432.977 314.84 428.781 315.142 425.528C315.448 422.242 317.754 419.119 321.994 416.14Z" fill="#00160A"/>
</svg>
