<svg width="750" height="750" viewBox="0 0 750 750" fill="none" xmlns="http://www.w3.org/2000/svg">
<rect width="750" height="750" fill="none"/>
<path fill-rule="evenodd" clip-rule="evenodd" d="M330.299 134.659C314.429 146.759 301.139 161.789 291.109 178.899C274.676 175.619 256.968 174.921 239.039 177.489C243.539 157.939 252.759 139.539 266.079 124.169C269.179 120.609 273.769 118.699 278.479 119.039C296.809 120.339 314.509 125.769 330.299 134.659ZM374.999 226.789C390.876 209.245 409.452 196.41 429.209 188.029C417.449 170.399 401.189 155.909 381.709 146.169C377.489 144.059 372.509 144.059 368.289 146.169C348.809 155.909 332.549 170.399 320.789 188.029C340.547 196.41 359.122 209.246 374.999 226.789ZM470.649 374.999C484.349 368.169 496.919 359.149 507.879 348.189C540.949 315.109 552.529 266.179 537.719 221.759C536.229 217.289 532.709 213.769 528.239 212.279C483.859 197.489 434.919 209.019 401.809 242.119C390.849 253.079 381.819 265.649 374.999 279.359C368.179 265.649 359.149 253.079 348.189 242.119C315.109 209.049 266.179 197.469 221.759 212.279C217.279 213.769 213.769 217.289 212.279 221.759C197.489 266.139 209.019 315.079 242.119 348.189C253.069 359.139 265.649 368.169 279.349 374.999C265.649 381.829 253.079 390.849 242.119 401.809C209.049 434.889 197.469 483.819 212.279 528.239C213.769 532.709 217.289 536.229 221.759 537.719C266.139 552.509 315.079 540.979 348.189 507.879C359.149 496.919 368.179 484.349 374.999 470.639C381.819 484.349 390.849 496.919 401.809 507.879C435.069 541.139 484.059 552.449 528.239 537.719C532.719 536.229 536.229 532.709 537.719 528.239C552.509 483.859 540.979 434.919 507.879 401.809C496.929 390.859 484.349 381.829 470.649 374.999ZM598.419 381.709C589.439 399.669 576.429 414.879 560.639 426.369C552.154 407.447 539.738 389.958 523.209 374.999C539.066 360.649 551.788 343.372 560.629 323.619C576.419 335.109 589.439 350.329 598.419 368.289C600.529 372.509 600.529 377.489 598.419 381.709ZM189.369 426.379C198.21 406.626 210.932 389.349 226.789 374.999C210.261 360.041 197.844 342.549 189.359 323.629C173.569 335.119 160.559 350.329 151.579 368.289C149.469 372.509 149.469 377.489 151.579 381.709C160.559 399.669 173.579 414.889 189.369 426.379ZM429.409 562.049C417.719 579.069 401.799 593.069 382.809 602.569C378.692 604.618 373.747 604.733 369.399 602.569C350.139 592.939 334.029 578.669 322.299 561.309C342.176 552.63 360.026 539.753 374.999 523.209C390.901 540.78 409.537 553.641 429.409 562.049ZM625.829 489.789C610.199 503.339 591.429 512.639 571.509 517.049C575.239 496.889 574.899 476.149 570.439 455.989C586.059 446.049 599.799 433.309 610.949 418.339C622.439 435.859 629.449 456.209 630.959 477.389C631.299 482.099 629.389 486.689 625.829 489.789ZM483.919 625.829C497.249 610.459 506.459 592.049 510.959 572.499C493.863 574.972 476.137 574.493 459.209 571.149C448.969 588.229 435.459 603.179 419.369 615.159C435.239 624.159 453.069 629.649 471.519 630.959C471.879 630.989 472.229 630.999 472.589 630.999C476.919 630.999 481.059 629.129 483.919 625.829ZM278.479 630.959C297.429 629.609 315.709 623.859 331.889 614.439C316.089 602.499 302.829 587.669 292.759 570.769C275.329 574.426 256.948 575.099 239.039 572.509C243.539 592.059 252.759 610.459 266.079 625.829C268.939 629.129 273.079 630.999 277.409 630.999C277.769 630.999 278.119 630.989 278.479 630.959ZM510.959 177.489C493.031 174.921 475.323 175.619 458.889 178.899C448.859 161.789 435.569 146.759 419.699 134.659C435.489 125.769 453.189 120.339 471.519 119.039C476.229 118.699 480.819 120.609 483.919 124.169C497.239 139.539 506.459 157.939 510.959 177.489ZM124.169 491.659C139.899 505.299 158.799 514.629 178.869 518.999C174.739 498.229 174.959 476.789 179.569 455.989C164.249 446.249 150.739 433.819 139.709 419.219C127.829 436.959 120.569 457.679 119.039 479.259C118.699 483.969 120.609 488.559 124.169 491.659ZM630.959 272.609C629.449 293.789 622.439 314.139 610.949 331.659C599.799 316.679 586.059 303.949 570.429 294.009C574.889 273.859 575.239 253.109 571.509 232.949C591.429 237.359 610.199 246.659 625.829 260.209C629.389 263.309 631.299 267.899 630.959 272.609ZM139.049 331.659C150.199 316.689 163.939 303.949 179.559 294.009C175.099 273.849 174.769 253.099 178.489 232.949C158.569 237.359 139.799 246.659 124.169 260.209C120.609 263.309 118.699 267.899 119.039 272.609C120.549 293.789 127.559 314.139 139.049 331.659ZM329.999 374.999C329.999 350.189 350.189 329.999 374.999 329.999C399.809 329.999 419.999 350.189 419.999 374.999C419.999 399.809 399.809 419.999 374.999 419.999C350.189 419.999 329.999 399.809 329.999 374.999ZM359.999 374.999C359.999 383.279 366.719 389.999 374.999 389.999C383.279 389.999 389.999 383.279 389.999 374.999C389.999 366.719 383.279 359.999 374.999 359.999C366.719 359.999 359.999 366.719 359.999 374.999Z"/>
<path d="M258.303 601.676C240.494 601.818 226.495 602.61 214.642 604.281C186.145 608.298 169.202 617.733 161.696 635.529C157.865 644.613 159.71 652.465 166.745 658.58C172.786 663.83 182.613 667.8 195.989 670.706L196.735 670.867C219.618 675.724 252.107 677.481 293.308 676.863L295.841 676.823C315.196 676.49 335.041 675.695 358.929 674.41L382.711 673.062C391.067 672.58 399.675 672.085 402.74 671.922L406.885 671.708C415.688 671.27 421.363 671.107 424.865 671.216L428.792 671.365C485.569 673.444 529.878 670.604 558.383 663.912C571.387 660.859 580.69 657.073 585.892 652.765C591.527 648.099 592.499 642.484 588.322 637.524C575.291 622.053 553.903 613.312 519.347 608.652L517.562 608.416C488.852 604.691 453.143 603.547 385.283 603.501L375.519 603.492C362.314 603.454 349.673 603.273 332.892 602.914L291.613 601.975C279.259 601.717 272.31 601.637 264.566 601.649L258.303 601.676Z" fill="white"/>
<ellipse cx="375.314" cy="652.24" rx="213.077" ry="22.2411" fill="#E7EAEE"/>
<path fill-rule="evenodd" clip-rule="evenodd" d="M419.019 494.324C422.887 495.006 425.536 491.227 431.525 478.626L431.967 477.712L432.403 476.841C439.541 462.803 447.797 458.328 457.169 463.417L460.931 452.316L459.667 451.736L458.452 451.187C438.995 442.494 428.486 441.966 426.926 449.602L426.772 450.437L426.642 451.109C425.499 456.932 422.707 468.144 420.687 477.69L420.347 479.318C418.661 487.499 417.674 494.087 419.019 494.324Z" fill="white"/>
<path fill-rule="evenodd" clip-rule="evenodd" d="M377.583 381.743C377.583 381.743 406.028 385.513 420.415 384.86C434.802 384.207 455.841 378.191 455.841 378.191L455.341 396.358C455.341 396.358 522.457 395.002 512.322 449.983C505.647 486.195 454.568 471.304 454.568 471.304L464.337 449.983C464.337 449.983 494.975 452.199 483.818 442.877C481.748 441.148 468.518 438.762 451.107 439.228C436.152 439.628 423.162 435.148 421.81 431.125C416.742 416.044 424.101 408.111 424.101 408.111C424.101 408.111 416.983 411.576 418.334 419.999C419.684 428.422 409.736 600.884 409.736 600.884C409.736 600.884 400.738 602.479 396.212 602.479C391.686 602.479 385.457 600.884 385.457 600.884L377.583 381.743Z" fill="white"/>
<path fill-rule="evenodd" clip-rule="evenodd" d="M377.583 381.743C377.583 381.743 392.587 602.307 390.498 601.961C388.923 601.7 385.457 600.884 385.457 600.884L377.583 381.743Z" fill="#E7EAEE"/>
<path fill-rule="evenodd" clip-rule="evenodd" d="M389.939 604.282C390.925 612.96 389.081 616.439 389.325 616.439C393.345 616.439 395.747 616.359 402.196 615.857C402.196 615.857 401.835 612.119 401.835 610.36C401.835 608.261 402.196 604.282 402.196 604.282H389.939Z" fill="white"/>
<path d="M380 181.046C380 181.046 365 186.679 365 176.076C365 165.473 376.572 170.758 376.572 170.758" fill="white"/>
<path d="M446 182.152C449.148 182.853 459 188.996 459 174.122C459 167.023 447.75 172.15 447.75 172.15" fill="white"/>
<path d="M410.203 120.116C397.811 121.318 371.84 133.102 376.568 166.77C380.234 192.868 399.755 221 411.75 221C423.527 221 443.355 197.318 446.234 174.002C452.114 126.385 422.596 118.914 410.203 120.116Z" fill="white"/>
<path fill-rule="evenodd" clip-rule="evenodd" d="M410.662 144.208C411.321 142.68 413.45 142.578 414.252 144.037C418.341 151.477 422.921 156.661 427.962 159.629C433.051 162.626 439.056 162.922 445.182 160.175C446.19 159.723 447.373 160.174 447.825 161.182C448.277 162.19 447.826 163.373 446.818 163.825C439.518 167.098 432.147 166.735 425.932 163.076C421.089 160.224 416.727 155.692 412.828 149.503L412.684 149.273L412.556 149.523C409.406 155.502 405.343 160.277 400.369 163.825L399.868 164.175C393.605 168.486 386.254 170.402 377.887 169.93C376.785 169.868 375.941 168.923 376.003 167.82C376.065 166.718 377.01 165.874 378.113 165.936C385.618 166.36 392.09 164.673 397.6 160.88C403.164 157.051 407.516 151.509 410.662 144.208Z" fill="#E7EAEE"/>
<path fill-rule="evenodd" clip-rule="evenodd" d="M474.628 335.775C473.422 358.471 464.941 368.102 454.344 369.485C452.936 369.668 454.907 377.758 453.681 378.818C446.696 384.86 434.383 385.121 415.076 385.296C397.597 385.455 386.325 384.044 378.492 380.833C377.892 380.587 378.432 370.406 377.812 370.352C367.999 369.485 356.695 360.776 353.948 337.09C344.648 256.898 372.62 241.4 399.242 228.623C400.686 227.93 401.471 226.722 402.906 226.036C405.933 224.588 405.144 227.921 412.023 227.921C418.902 227.921 418.902 225.309 422 226.789C423.156 227.341 423.347 230.791 424.497 231.398C451.741 245.773 477.962 273.045 474.628 335.775Z" fill="white"/>
<path fill-rule="evenodd" clip-rule="evenodd" d="M424.497 231.398C460.474 244.417 477.184 279.21 474.628 335.775C471.563 403.594 394.537 342.881 420.216 284.456C426.334 270.536 434.372 329.471 434.46 329.72C436.508 335.515 442.764 340.01 449.09 342.413C449.09 342.413 451.922 301.564 447 282.304C442.37 264.189 424.497 231.398 424.497 231.398Z" fill="white"/>
<path fill-rule="evenodd" clip-rule="evenodd" d="M401.332 218C401.332 218 402.342 221.031 401.991 222.904C401.64 224.777 399.493 227.807 399.493 227.807C399.493 227.807 339.77 246.025 353.601 336.943C368.985 402.878 422.922 359.999 413.564 307.424C413.175 268.384 404.337 281.602 397.698 324.622C396.074 335.145 376.114 338.134 376.114 338.134" fill="white"/>
<ellipse cx="429.5" cy="192.5" rx="5.5" ry="4.5" fill="#FFB61D"/>
<ellipse cx="396.5" cy="192.5" rx="5.5" ry="4.5" fill="#FFB61D"/>
<path d="M402.047 198.569C402.285 197.49 407.209 198.337 408.594 200.179L409.021 200.75C410.312 202.46 411.098 203 412.763 203C414.89 203 415.615 202.618 416.824 201.035L417.147 200.6C418.551 198.677 423.505 197.281 423.881 198.32C424.256 199.358 423.719 200.505 422.68 200.881C421.902 201.162 421.459 201.532 420.7 202.527L420.343 203.006C418.267 205.849 416.541 207 412.763 207C409.697 207 407.919 205.851 406.024 203.415L405.397 202.583L405.113 202.214C404.489 201.423 404.107 201.103 403.665 200.977L403.569 200.953C402.49 200.715 401.809 199.648 402.047 198.569Z" fill="#00160A"/>
<path d="M405.933 168.832C403.55 168.103 401.377 167.894 400.121 168.047C398.769 168.211 397.06 168.908 395.483 169.551C394.22 170.066 393.042 170.547 392.201 170.691C391.365 170.835 390.111 170.788 388.888 170.742C387.343 170.685 385.85 170.629 385.317 170.962C384.362 171.558 385.787 172.521 386.621 172.631C389.502 173.012 391.601 173.103 392.991 172.88C394.225 172.683 395.338 172.342 396.851 171.761L398.43 171.161C399.48 170.77 399.75 170.707 400.121 170.699L400.381 170.699C401.438 170.726 402.998 171.043 405.019 171.661C405.822 171.906 406.677 171.472 406.929 170.691C407.181 169.91 406.735 169.078 405.933 168.832Z" fill="#00160A"/>
<path d="M411.828 190.294C412.956 186.998 413.611 170.763 412.368 170.75C411.126 170.737 410.108 171.734 410.095 172.977C410.077 174.724 410.088 176.399 410.098 177.971C410.129 182.686 410.154 186.459 409.365 188.388L409.197 188.786C408.178 191.314 407.893 193.464 410.615 193.968C412.24 194.268 419.539 190.129 419.118 188.959C418.698 187.79 417.409 187.183 416.24 187.603L415.933 187.712C415.238 187.956 414.331 188.716 413.513 189.4C412.787 190.007 412.133 190.555 411.763 190.628L411.705 190.639L411.828 190.294Z" fill="#00160A"/>
<path d="M421.066 168.832C423.449 168.103 425.622 167.894 426.878 168.047C428.23 168.211 429.939 168.908 431.516 169.551C432.779 170.066 433.957 170.547 434.798 170.691C435.634 170.835 436.888 170.788 438.111 170.742C439.656 170.685 441.149 170.629 441.682 170.962C442.637 171.558 441.212 172.521 440.378 172.631C437.497 173.012 435.398 173.103 434.008 172.88C432.774 172.683 431.661 172.342 430.148 171.761L428.569 171.161C427.519 170.77 427.249 170.707 426.878 170.699L426.618 170.699C425.561 170.726 424.001 171.043 421.98 171.661C421.177 171.906 420.322 171.472 420.07 170.691C419.818 169.91 420.264 169.078 421.066 168.832Z" fill="#00160A"/>
<path d="M433.941 180.138C434.569 179.066 434.21 177.687 433.138 177.059C432.76 176.837 432.46 177.258 432.005 177.896C431.171 179.066 429.815 180.967 426.5 180.967C423.159 180.967 421.789 179.048 420.955 177.881C420.51 177.259 420.219 176.85 419.862 177.059C418.79 177.687 418.43 179.066 419.059 180.138C420.644 182.843 423.224 184.25 426.5 184.25C429.776 184.25 432.355 182.843 433.941 180.138Z" fill="#00160A"/>
<path d="M405.218 177.108C406.262 177.781 406.564 179.174 405.891 180.218C404.168 182.893 401.416 184.25 397.915 184.25C394.389 184.25 391.664 182.868 390.06 180.141C389.43 179.069 389.188 177.624 390.859 177.06C391.589 176.814 392.329 177.527 393.244 178.408C394.422 179.542 395.89 180.956 397.999 180.956C401.99 180.956 403.404 178.956 404.21 177.814C404.616 177.24 404.868 176.883 405.218 177.108Z" fill="#00160A"/>
<path fill-rule="evenodd" clip-rule="evenodd" d="M412.345 74.4704C399.738 76.7193 390.081 86.2715 388.195 100.383C388.105 101.054 388.046 101.708 388.018 102.346C385.833 103.031 379.361 105.121 379.538 105.773C379.704 106.38 385.444 105.015 388.031 104.367C388.406 110.554 391.902 114.99 397.791 117.704C399.29 118.394 400.902 118.961 402.613 119.419C396.527 121.336 390.305 124.843 385.39 129.662C376.308 138.566 372.099 151.124 374.34 167.082C374.36 167.226 374.381 167.37 374.402 167.515C367.157 165.283 362.75 168.245 362.75 176.076C362.75 183.932 374.238 188.347 379.097 185.153C383.994 198.123 391.622 210.113 399.29 217.054C399.057 217.556 399.008 218.145 399.197 218.711C399.76 220.401 399.931 221.676 399.779 222.489L399.747 222.638C399.574 223.353 399.075 224.375 398.24 225.651L398.08 225.891L397.612 226.038C357.463 238.932 342.099 276.298 351.376 337.281L351.409 337.454L351.58 338.174C356.056 356.717 364.529 367.537 375.084 370.341C375.082 370.391 375.082 370.442 375.084 370.494C376.928 432.955 378.54 482.723 379.921 519.8L380.422 532.966L380.922 545.446C381.628 562.598 382.262 575.785 382.824 585.012L383.184 590.675C383.801 599.94 384.161 601.979 385.484 602.914L385.612 603L385.711 603.06C385.996 603.225 386.346 603.372 386.765 603.503C386.273 603.502 385.779 603.502 385.283 603.501L375.519 603.492C362.314 603.454 349.673 603.273 332.892 602.914L291.613 601.975C279.259 601.717 272.31 601.637 264.566 601.649L258.303 601.676C240.494 601.818 226.495 602.61 214.642 604.281C186.145 608.298 169.202 617.733 161.696 635.529C157.865 644.613 159.71 652.465 166.745 658.58C172.786 663.83 182.613 667.8 195.989 670.706L196.735 670.867C219.618 675.724 252.107 677.481 293.308 676.863L295.841 676.823C315.196 676.49 335.041 675.695 358.929 674.41L382.711 673.062C391.067 672.58 399.675 672.085 402.74 671.922L406.885 671.708C415.688 671.27 421.363 671.107 424.865 671.216L428.792 671.365C485.569 673.444 529.878 670.604 558.383 663.912C571.387 660.859 580.69 657.073 585.892 652.765C591.527 648.099 592.499 642.484 588.322 637.524C575.291 622.053 553.903 613.312 519.347 608.652L517.562 608.416C492.806 605.204 462.847 603.911 411.559 603.586L411.841 603.568C413.116 603.482 414.121 602.447 414.17 601.17L417.88 497.086C417.985 497.088 418.092 497.085 418.204 497.078C423.052 496.744 426.335 493.748 432.316 482.478L433.027 481.123L433.841 479.547C435.299 476.854 439.172 472.672 442.492 469.087L442.493 469.086C444.671 466.734 446.612 464.638 447.474 463.391C449.263 463.741 451.861 464.016 455.269 464.215L455.695 464.238L452.991 470.806L452.939 470.945C452.601 471.974 453.149 473.1 454.19 473.459C489.874 485.731 509.274 476.153 514.284 450.364C521.431 413.582 502.09 395.102 457.521 395.573L458.225 372.029C460.965 371.642 463.528 370.539 465.827 368.673C472.334 363.393 476.128 352.449 476.877 335.876C479.421 279.574 462.987 244.127 427.463 230.113L426.254 229.648L426.14 229.33C425.515 227.56 425.096 226.126 424.883 225.047L424.837 224.804C424.614 223.539 424.614 221.424 424.863 218.53C424.895 218.17 424.839 217.822 424.714 217.507C433.465 210.426 442.006 197.706 446.175 184.55L446.28 184.586C446.324 184.601 446.369 184.617 446.415 184.634L448.335 185.316C449.595 185.74 450.65 186.013 451.729 186.155C457.648 186.932 461.25 183.074 461.25 174.122C461.25 170.738 459.621 168.397 456.576 167.863C454.584 167.514 452.083 167.976 448.978 169.186C450.459 149.727 445.901 135.808 436.608 127.109C433.107 123.832 429.01 121.431 424.758 119.88C428.711 118.822 432.673 117.032 435.752 114.583C442.818 108.964 445.047 100.513 440.993 89.5368L454.773 86.462L454.884 86.4237C455.346 86.2324 455.462 85.0845 455.462 84.227C455.462 83.3695 454.759 82.3872 454.227 82.538L440.129 87.3938C435.595 77.326 424.167 72.3616 412.345 74.4704ZM390.842 606.508L391.518 606.509C394.765 606.515 397.935 606.528 401.032 606.549C400.793 609.266 400.736 612.577 400.972 615H391.556C391.464 613.062 391.222 609.475 390.842 606.508ZM388.081 606.506C387.865 608.221 387.69 610.156 387.534 611.895C387.41 613.261 387.298 614.506 387.185 615.428C387.108 615.489 387.034 615.556 386.966 615.629C381.701 621.222 376.254 624.862 370.627 626.588L369.71 626.862C364.897 628.269 355.885 630.487 356.063 630.436C352.135 631.556 350.233 632.846 349.565 635.54C348.464 639.975 352.952 641.922 364.593 641.998L365.479 642C367.39 641.997 369.077 641.803 372.792 641.215L375.682 640.754C378.596 640.301 380.32 640.107 381.9 640.092L382.583 640.097C383.412 640.118 384.268 640.204 386.141 640.443L388.428 640.74C389.752 640.91 390.687 641.014 391.676 641.095C395.768 641.433 398.893 641.15 401.511 639.894C408.287 636.644 409.111 628.558 404.676 616.319C404.671 616.304 404.666 616.29 404.66 616.276C404.683 616.139 404.695 616 404.695 615.857V606.577C461.261 607.076 492.776 610.115 518.679 613.608L520.67 613.883C552.93 618.451 572.67 626.703 584.498 640.746C589.272 646.414 580.66 653.545 557.241 659.044C528.944 665.688 484.441 668.489 427.237 666.303L425.499 666.235C421.405 666.072 414.516 666.292 403.101 666.896L392.606 667.485C388.612 667.713 384.014 667.979 379.667 668.229C373.172 668.604 367.236 668.946 364.709 669.086L358.665 669.417C335.824 670.645 316.696 671.425 298.169 671.779L295.755 671.823C253.702 672.546 220.661 670.834 197.774 665.976C171.2 660.335 158.561 651.088 164.303 637.471C170.926 621.769 188.097 611.201 214.535 607.347L215.34 607.232C223.242 606.118 232.163 606.292 242.614 606.497C247.814 606.598 253.393 606.707 259.413 606.669L264.572 606.649C272.946 606.636 328.762 605.825 328.762 605.825C348.303 606.259 362.212 606.466 377.065 606.496L388.081 606.506ZM421.346 219.942C418.024 222.052 414.749 223.25 411.75 223.25C409.395 223.25 406.868 222.388 404.277 220.828C404.368 221.725 404.345 222.554 404.202 223.318C403.895 224.952 402.931 227.846 401.329 230.108C401.284 230.17 401.237 230.23 401.187 230.288C403.334 231.504 406.653 232.768 411.237 232.126C416.285 231.418 419.075 229.624 420.769 228.23C420.506 225.551 420.845 222.373 421.346 219.942ZM421.321 230.911C419.226 233.652 415.693 236.626 411.237 236.626C404.52 236.626 400.109 234.959 398.675 231.423C361.531 243.484 345.164 277.035 353.56 334.823L353.811 336.514L353.947 337.09C359.1 358.488 371.255 367.888 383.223 366.422L383.59 366.374C394.306 364.867 404.751 354.552 407.547 342.796L407.961 341.027C410.047 331.953 411.313 323.932 411.313 317.34L411.307 314.604C411.237 300.243 410.622 289.614 409.85 284.926L409.795 284.606L409.709 284.838C409.383 285.721 409.034 286.803 408.667 288.078L408.556 288.466C406.869 294.454 404.888 304.187 402.635 317.709C400.98 327.648 374.4 340.123 374.002 338.946C373.878 338.578 376.056 337.079 379.152 334.946L379.155 334.944L379.167 334.935C380.373 334.105 381.718 333.179 383.12 332.186C383.07 332.094 383.02 331.996 382.968 331.892C379.052 324.037 376.639 317.144 375.748 311.186C374.866 305.297 376.923 281.596 378.23 281.602L378.394 281.608C379.053 281.654 378.908 284.726 378.694 289.279C378.46 294.241 378.142 300.963 378.693 307.446C379.29 314.486 382.411 321.577 384.579 326.503C385.178 327.863 385.704 329.058 386.084 330.042C391.814 325.791 397.556 320.817 398.197 316.97L398.707 313.94C400.733 302.077 402.539 293.323 404.126 287.599L404.225 287.245C405.095 284.161 405.905 281.958 406.706 280.557C407.965 278.355 409.872 277.209 411.875 278.802C414.101 280.572 415.214 288.187 415.623 302.07C415.964 295.852 416.53 290.819 417.297 287.049C417.938 283.899 418.718 281.618 419.692 280.177C421.075 278.13 423.236 277.431 425.202 278.806L425.334 278.903C429.556 282.136 432.403 297.816 432.569 318.207L432.577 319.913L432.618 320.151C435.197 329.897 440.541 335.579 445.39 338.982C455.285 322.766 449.526 292.727 447.083 279.985C446.379 276.313 445.95 274.077 446.251 274.023C447.61 273.777 448.91 274.679 449.156 276.038C452.283 293.328 453.893 306.111 453.98 314.45C454.068 322.888 452.655 331.78 449.751 341.123C449.709 341.258 449.656 341.387 449.595 341.51C451.074 342.27 452.373 342.819 453.353 343.234C454.618 343.769 455.351 344.079 455.256 344.327C454.812 345.488 436.879 345.488 428.106 320.469C428.076 320.382 428.076 320.257 428.077 320.145L428.077 320.106C428.077 309.67 427.362 300.364 426.107 293.265C425.535 290.032 424.867 287.362 424.153 285.401L424.058 285.143C423.739 284.303 423.426 283.645 423.159 283.189L423.147 283.169L423.092 283.279C422.621 284.25 422.138 285.825 421.707 287.946L421.636 288.299C421.418 289.418 421.145 290.658 420.847 292.017C419.561 297.876 417.791 305.936 417.75 315.979L417.747 317.478C417.747 334.997 430.063 356.21 444.063 364.522C458.61 373.159 471.071 364.669 472.381 335.673C474.897 279.994 459.523 242.687 423.733 233.514C422.564 233.214 421.795 232.247 421.321 230.911ZM415.575 322.844C415.065 329.063 413.766 336.097 411.925 343.837C408.716 357.329 396.843 369.055 384.216 370.83C382.035 371.137 379.908 371.155 377.85 370.886C377.977 372.722 378.122 375.369 378.281 378.707C378.732 378.644 379.204 378.704 379.649 378.904C382.944 380.385 401.18 382.432 417.022 382.749L418.198 382.77C437.042 383.052 450.537 380.958 453.071 377.112L453.224 371.978C450.174 371.518 446.988 370.304 443.765 368.391C429.828 360.117 417.694 340.666 415.575 322.844ZM367.25 176.076C366.86 170.249 371.579 170.631 375.062 171.295C375.805 174.987 376.837 178.714 378.099 182.387L377.922 182.382C374.052 182.275 367.652 182.097 367.25 176.076ZM448.701 172.239C448.63 172.912 448.552 173.592 448.467 174.277C448.161 176.757 447.657 179.27 446.985 181.781C451.493 182.315 459.042 182.609 457.632 172.596C457.083 168.696 452.057 170.811 448.701 172.239ZM411.077 117.791C413 117.677 414.994 117.745 417.012 117.999C422.119 117.936 429.761 115.606 433.263 111.453C446.999 95.1589 427.953 76.6995 413.16 79.0855C402.175 80.8573 391.809 88.5713 390.16 100.913C389.367 106.841 393.239 116.282 411.077 117.791ZM381.697 471.859C383.786 533.143 386.035 599.118 387.05 600.884C387.222 601.193 389.829 601.217 391.897 601.237L391.9 601.237H391.91C392.452 601.242 392.957 601.247 393.37 601.256L394.483 601.273L395.746 601.275C398.808 601.26 402.668 601.116 407.321 600.844L409.26 600.726L416.905 418.528C416.695 414.383 412.872 409.646 410.301 406.462C408.771 404.566 407.685 403.22 408.069 402.876C409.085 401.968 417.032 410.879 418.497 414.031C418.524 414.138 418.556 414.281 418.591 414.456C419.493 412.091 420.763 409.61 422.416 407.032C423.012 406.102 430.574 395.612 425.179 406.427C413.627 429.587 426.713 439 449.555 439.083L449.64 439.083L449.649 439.084C449.839 439.085 449.979 439.086 450.291 439.047C459.185 437.916 468.837 438.439 476.44 439.43C483.912 440.405 496.831 447.682 482.209 451.79C478.715 452.772 473.101 452.179 466.619 450.77L464.862 450.479L454.567 471.304L456.346 471.688C487.546 481.609 505.64 472.351 510.219 450.295L510.358 449.601C516.889 415.986 502.869 395.182 457.466 397.401L457.407 399.376C457.366 400.756 456.213 401.841 454.833 401.799C453.453 401.757 452.368 400.604 452.41 399.224L452.454 397.726C436.556 398.893 446.968 396.897 452.506 396.007L452.882 383.442C446.335 386.773 434.273 388.016 418.237 387.771L416.922 387.748C401.385 387.437 384.001 385.573 378.514 383.806C379.344 402.827 380.494 436.562 381.697 471.854L381.697 471.859ZM460.41 452.787L456.7 461.798C454.128 461.407 452.355 460.952 451.024 460.61C450.584 460.497 450.191 460.397 449.835 460.315C449.351 456.734 449.364 454.137 449.815 452.604C450.208 451.272 450.775 450.521 451.515 450.182C453.11 450.704 454.987 451.271 457.147 451.884L458.771 452.339L460.41 452.787ZM446.454 460.565C446.65 460.437 446.857 460.34 447.07 460.272C446.531 457.39 446.527 453.005 446.978 451.474C447.285 450.431 447.546 449.611 447.897 448.949C447.383 448.773 446.601 448.373 445.638 447.88C441.208 445.612 432.948 441.385 429.311 448.018C423.174 459.211 417.782 494.376 419.351 494.386C421.583 494.4 427.257 486.464 430.992 479.415L431.157 479.1L432.12 477.226C435.051 471.541 439.735 464.973 446.454 460.565ZM463.971 448.266C463.171 448.124 462.379 448.481 461.948 449.143C461.778 449.039 461.589 448.959 461.386 448.909L447.538 445.489L447.233 445.316C436.704 439.365 429.896 439.869 425.145 446.498C423.461 448.849 422.617 451.804 422.211 455.726L422.163 456.221L422.105 456.898C422.05 457.577 422.007 458.279 421.964 459.146L421.795 462.762L421.763 463.31C421.711 464.161 421.658 464.716 421.583 465.238L421.535 465.549L421.381 466.389L421.288 466.822C421.234 467.055 421.169 467.323 421.084 467.655L420.838 468.591L419.336 474.012C419.068 475.249 418.816 476.414 418.578 477.507L420.188 432.36C425.246 438.64 435.995 441.946 451.352 440.992L452.617 440.921C453.211 440.89 453.812 440.858 454.417 440.826L454.435 440.825L454.546 440.819L454.569 440.817C461.256 440.458 468.514 440.067 475.089 441.528C491.485 445.17 484.779 448.517 483.335 449.238L483.249 449.281L483.205 449.303L483.017 449.393C480.707 450.42 475.288 450.212 465.048 448.453L463.971 448.266ZM356.613 633.444L357.159 633.283C356.895 633.363 376.671 630.563 387.256 619.552C389.253 617.474 401.377 619 401.377 619L401.389 619.031C405.952 626.588 406.611 634.444 400.886 636.761C398.864 637.579 395.451 638.393 392.005 638.109L391.504 638.065L390.798 637.994C390.312 637.943 389.79 637.881 389.178 637.803L385.772 637.365C383.979 637.145 383.188 637.091 382.105 637.091C380.213 637.091 371.121 638.427 371.121 638.427C368.347 638.852 366.934 638.998 365.473 639C359.629 639.008 355.948 637.572 354.137 636.835L353.965 636.761C353.803 636.687 353.671 636.616 353.568 636.548L353.456 636.469L353.447 636.503C353.657 635.658 354.365 634.128 356.613 633.444ZM445.083 174.277C445.655 169.649 445.843 165.323 445.692 161.301C438.763 164.052 431.827 163.547 425.932 160.076C421.088 157.224 416.727 152.692 412.827 146.503L412.684 146.274L412.555 146.523C409.406 152.502 405.343 157.277 400.368 160.825L399.868 161.175C393.624 165.472 386.3 167.39 377.967 166.934L378 167.082C382.752 188 399.268 220.228 412.023 221C416.901 221.295 423.981 213.416 430.545 204.873C437.632 195.65 443.782 184.817 445.083 174.277ZM433.533 130.394C439.774 136.236 444.18 145.161 445.4 157.092C445.327 157.115 445.253 157.143 445.181 157.175C439.056 159.922 433.051 160.626 427.961 157.629C422.921 154.661 418.34 148.477 414.251 141.037C413.45 139.578 411.321 139.68 410.662 141.208C410.531 141.512 410.388 141.854 410.231 142.229C408.424 146.551 404.792 155.238 396.911 159.825C391.174 163.163 382.708 164.008 378.528 164.426L378.523 164.426L378.517 164.427C378.144 164.464 377.806 164.498 377.506 164.53C377.351 163.557 377.233 162.589 377.152 161.629C381.928 160.764 391.965 157.459 396.001 154.924C401.12 151.709 402.687 148.427 405.293 142.972C405.771 141.972 406.283 140.899 406.859 139.74C407.356 138.739 408.534 132.071 405.741 137.142C405.571 137.45 405.391 137.786 405.198 138.147L405.197 138.149L405.196 138.151L405.195 138.152C402.289 143.585 396.384 154.624 377.036 159.659C376.66 148.456 381.188 138.418 387.81 131.926C393.993 125.864 403.347 121.855 410.453 121.166C417.929 120.44 426.968 124.249 433.533 130.394Z" fill="#00160A"/>
<path fill-rule="evenodd" clip-rule="evenodd" d="M231.12 479.831C229.923 467.072 223.985 454.442 214.575 445.77C207.723 439.455 197.903 434.167 188.74 438.689C174.643 447.103 170.858 464.37 172.279 479.831C174.041 498.995 182.993 510.811 200.19 517.869C209.879 521.845 216.32 527.09 221.58 536.23C225.788 543.538 228.241 552.69 233.528 559.316C241.432 569.22 251.324 573.623 263.516 571.978C265.933 571.978 273.718 579.226 276.15 583.616C282.503 595.082 287.956 607.189 290.459 620.134C291.189 623.912 290.673 638.045 293.252 640.773C297.967 645.762 296.586 636.155 296.304 633.255C293.962 609.241 285.341 588.783 272.824 568.595C276.669 563.573 277.224 550.791 276.016 546.759C272.824 534.258 233.531 505.519 231.12 479.831Z" fill="white"/>
<path fill-rule="evenodd" clip-rule="evenodd" d="M187.298 435.792L187.228 435.83C174.133 443.646 169.343 454.569 170.283 479.923C171.271 506.564 180.934 511.286 198.282 518.575L198.81 518.794C208.548 522.79 214.689 527.999 219.713 536.729L220.116 537.441C220.994 539.023 221.778 540.638 222.884 543.106L224.865 547.599C227.538 553.629 229.241 556.801 231.746 559.94C239.968 570.241 250.251 574.642 262.65 572.969L262.768 572.945L262.882 572.908C264.803 572.153 271.336 578.796 274.275 584.101C281.415 596.986 286.026 608.225 288.321 619.534L288.477 620.324C288.625 621.09 288.723 622.267 288.836 624.505L288.993 627.819C289.03 628.593 289.065 629.264 289.102 629.9L289.124 630.277C289.497 636.443 290.11 639.963 291.525 641.46C293.415 643.46 295.16 643.837 296.117 642.1C296.661 641.112 296.788 639.517 296.671 637.272L296.624 636.522C296.597 636.139 296.563 635.74 296.522 635.314L296.198 632.164C293.906 610.329 286.447 590.516 273.276 569.045L273.02 568.629L273.183 568.369C276.336 563.165 277.485 551.514 275.974 546.472C273.391 537.857 268.283 530.884 258.988 521.691L257.37 520.097C241.653 504.551 236.381 496.533 232.062 479.423L230.575 473.503L230.538 473.359C226.99 459.681 223.266 451.54 216.225 445.052C207.777 437.266 195.902 431.546 187.298 435.792ZM214.87 446.523C221.329 452.475 225.896 459.996 229.249 472.523L229.97 475.295L230.974 479.318C232.062 490.102 235.424 502.807 255.965 521.52L257.057 522.596C266.467 531.832 271.548 538.672 274.058 547.046C275.485 551.808 274.179 563.874 271.03 567.987C270.777 568.317 270.755 568.769 270.974 569.122C284.368 590.724 291.913 610.524 294.208 632.358L294.489 635.078L294.568 635.902C294.603 636.297 294.631 636.666 294.653 637.023L294.674 637.376C294.771 639.243 294.663 640.593 294.365 641.135L294.35 641.171L294.386 641.182C294.121 641.124 293.631 640.776 292.978 640.086C292.073 639.128 291.487 635.874 291.148 630.59L291.077 629.402L290.816 624.062C290.71 622.037 290.614 620.901 290.464 620.067L290.441 619.944C288.157 608.13 283.424 596.485 276.025 583.131L275.863 582.843C272.403 576.764 265.682 569.959 262.308 570.992L262.288 570.998L262.383 570.987C250.699 572.563 241.103 568.457 233.309 558.692C230.872 555.638 229.202 552.483 226.46 546.259L225.046 543.044C223.555 539.683 222.633 537.791 221.447 535.731C216.291 526.773 209.943 521.305 200.118 517.172L199.569 516.944C182.563 509.964 173.988 498.367 172.275 479.74L172.226 479.184C170.782 461.981 175.945 447.146 187.866 439.783L188.217 439.568L188.183 439.586C195.907 435.774 206.965 439.238 214.87 446.523Z" fill="#00160A"/>
<path fill-rule="evenodd" clip-rule="evenodd" d="M286.511 572.283C292.296 573.171 297.336 569.784 299.277 564.139C300.954 559.26 301.117 553.585 303.022 548.972C304.334 545.795 306.42 543.096 308.972 540.815C315.703 534.798 322.73 533.293 324.737 523.306C326.31 515.477 324.357 499.52 313.43 501.111C305.828 502.223 299.685 512.38 296.145 518.786C291.764 526.713 287.676 535.207 285.374 543.914C281.581 558.258 281.069 574.178 281.022 588.868C281.016 590.638 280.647 612.261 283.175 611.907C285.68 611.555 284.094 589.111 284.307 584.463" fill="white"/>
<path fill-rule="evenodd" clip-rule="evenodd" d="M204.216 452.3C202.29 453.288 202.668 456.465 204.972 462.137C207.281 467.819 210.685 472.098 214.163 474.044C217.72 476.034 220.969 475.214 221.867 471.723C222.677 468.574 217.136 460.694 211.253 455.484C208.191 452.772 205.801 451.487 204.216 452.3ZM209.927 456.981C214.649 462.69 220.469 470.13 219.93 472.225C219.403 474.273 217.666 474.712 215.139 473.299C212.093 471.594 208.427 466.757 206.279 461.467L205.962 460.672C203.998 456.884 204.003 453.465 205.129 453.08C206.201 452.713 208.523 455.284 209.927 456.981ZM303.305 514.413C302.519 512.266 304.88 509.622 309.233 507.717C313.908 505.672 316.949 505.525 316.934 508.071C316.924 509.791 314.604 512.193 311.065 514.354C307.477 516.545 304.127 516.663 303.305 514.413ZM314.906 508.206C314.825 508.195 314.726 508.188 314.603 508.189L314.472 508.192C314.341 508.199 314.182 508.194 313.989 508.189C312.79 508.155 310.324 508.085 305.711 510.373C304.722 510.863 304.089 513.471 304.183 513.726C304.409 514.344 307.357 515.275 310.023 513.647C311.133 512.969 312.108 511.772 312.901 510.798C313.235 510.388 313.537 510.018 313.803 509.742C314.401 509.123 314.765 508.586 314.888 508.261L314.906 508.206ZM307.358 527.65L306.875 528.433C304.761 531.883 303.482 534.327 302.968 535.871C302.282 537.934 303.017 539.393 304.927 538.769C306.668 538.199 310.025 535.378 314.199 531.26C317.576 527.928 319.266 522.863 317.971 520.437C316.21 517.14 312.102 520.023 307.358 527.65ZM316.206 520.379C317.006 521.876 315.61 527.058 312.795 529.836L311.849 530.759C311.115 531.468 310.329 532.264 309.549 533.054C307.153 535.478 304.819 537.84 304.258 537.428C303.605 536.948 305.731 532.446 308.057 528.706C310.299 525.101 313.238 521.772 314.725 520.729C315.692 520.051 316.039 520.065 316.206 520.379ZM288.408 558.497C287.84 562.269 288.348 565.084 290.252 565.474C292.21 565.875 294.29 563.268 296.609 557.949C298.822 552.872 298.243 548.062 295.347 547.333C292.36 546.581 289.646 550.745 288.468 558.113L288.408 558.497ZM294.859 549.272C296.152 549.598 296.823 552.99 295.149 557.343C293.835 560.764 290.252 568.887 289.305 562.528C289.16 561.56 289.16 560.295 289.386 558.795L289.507 558.038C290.537 551.979 293.536 548.939 294.859 549.272ZM184.803 495.603C179.905 490.26 177.005 483.604 179.415 480.691C182.286 477.221 195.539 489.226 195.366 495.224C195.265 498.724 193.742 500.52 191.218 500.06C189.347 499.72 187.066 498.072 184.803 495.603ZM180.948 480.976L180.879 481.068C179.566 482.97 181.1 489.695 185.277 494.251C187.271 496.426 190.241 498.85 191.577 499.093C192.692 499.296 193.298 498.581 193.367 496.166C193.431 493.948 190.962 489.307 187.347 486.032C186.948 485.67 186.47 485.182 185.952 484.653L185.951 484.653C184.38 483.048 182.436 481.063 181.162 481.047C180.96 481.044 180.916 481.023 180.948 480.976ZM180.948 480.976L180.956 480.966C180.953 480.97 180.95 480.973 180.948 480.976ZM238.831 553.921C239.948 558.777 242.154 561.937 245.142 563.67C247.168 564.845 249.049 565.19 251.204 565.19C255.828 565.19 257.973 563.13 257.168 559.784C256.565 557.274 254.243 554.157 251.15 551.439C248.065 548.729 244.757 546.891 242.353 546.741C239.067 546.536 237.743 549.19 238.831 553.921ZM242.228 548.737C244.088 548.853 247.048 550.497 249.83 552.941C252.641 555.412 254.736 558.225 255.224 560.252C255.69 562.191 254.651 564.19 251.204 564.19C249.369 564.19 247.806 563.903 246.146 562.94C243.654 561.495 240.777 557.806 239.78 553.473C238.951 549.869 240.568 548.634 242.228 548.737ZM247.178 533.381C243.038 529.941 241.058 526.327 242.25 524.338C243.608 522.072 247.165 523.546 250.768 527.505C253.022 529.981 256.179 534.266 257.111 536.383C257.49 537.245 257.619 537.888 257.329 538.474C256.89 539.361 256.016 539.385 254.994 538.967C253.689 538.432 251.483 536.9 248.224 534.242L247.178 533.381ZM245.13 525.529C244.691 525.347 244.342 525.283 244.115 525.31C244.008 525.322 243.982 525.338 243.966 525.366C243.94 525.408 243.895 525.464 243.839 525.532C243.559 525.875 243.02 526.537 243.488 527.39C244.223 528.732 246.569 531.274 248.456 532.843C250.977 534.938 253.619 536.407 255.191 537.282L255.191 537.282C255.485 537.446 255.742 537.589 255.954 537.711L256.087 537.786L255.939 537.508C254.852 535.523 251.381 531.198 249.512 529.098L249.289 528.851C247.718 527.125 246.27 526.001 245.13 525.529ZM203.25 506.338C202.058 508.327 204.038 511.941 208.178 515.381L209.224 516.242C212.483 518.9 214.689 520.432 215.994 520.967C217.016 521.385 217.89 521.361 218.329 520.474C218.619 519.888 218.49 519.245 218.111 518.383C217.179 516.266 214.022 511.981 211.768 509.505C208.165 505.546 204.608 504.072 203.25 506.338ZM205.115 507.31C205.342 507.283 205.691 507.347 206.13 507.529C207.27 508.001 208.718 509.125 210.289 510.851L210.512 511.098C212.381 513.198 214.852 517.523 215.939 519.508L216.087 519.786L215.954 519.711C214.611 518.935 212.448 517.33 209.456 514.843C207.569 513.274 205.223 510.732 204.488 509.39C204.02 508.537 204.559 507.875 204.839 507.532C204.895 507.464 204.94 507.408 204.966 507.366C204.982 507.338 205.008 507.322 205.115 507.31ZM228.178 509.381C224.038 505.941 222.058 502.327 223.25 500.338C224.608 498.072 228.165 499.546 231.768 503.505C234.022 505.981 237.179 510.266 238.111 512.383C238.49 513.245 238.619 513.888 238.329 514.474C237.89 515.361 237.016 515.385 235.994 514.967C234.689 514.432 232.483 512.9 229.224 510.242L228.178 509.381ZM226.13 501.529C225.691 501.347 225.342 501.283 225.115 501.31C225.008 501.322 224.982 501.338 224.966 501.366C224.961 501.374 224.956 501.383 224.95 501.392C224.779 501.674 224.272 502.514 224.815 503.505C225.55 504.847 227.7 508.244 228.456 508.843C230.701 510.62 233.517 511.998 235.383 512.911C236.052 513.239 236.599 513.506 236.954 513.711L237.087 513.786L236.939 513.508C235.852 511.523 232.381 507.198 230.512 505.098L230.289 504.851C228.718 503.125 227.27 502.001 226.13 501.529Z" fill="#FFB61D"/>
<path fill-rule="evenodd" clip-rule="evenodd" d="M313.286 500.121C318.806 499.317 323.686 502.51 325.715 508.348C327.309 512.934 326.622 519 325.717 523.503C324.557 529.279 322.139 532.366 316.814 536.189L313.613 538.436C312.508 539.223 311.601 539.908 310.734 540.622C310.357 540.932 309.993 541.244 309.638 541.56C307.063 543.863 305.142 546.458 303.946 549.353L303.783 549.76C303.15 551.383 302.749 552.992 302.171 555.993L301.675 558.619C301.172 561.231 300.793 562.805 300.223 564.464C298.034 570.829 293.413 574.201 287.359 573.271C286.813 573.187 285.02 573.323 289.039 572.509C293.058 571.695 296.437 569.325 298.331 563.814C298.864 562.263 299.226 560.758 299.714 558.225L300.212 555.585C300.861 552.218 301.303 550.515 302.098 548.59C303.414 545.402 305.515 542.565 308.306 540.069C308.681 539.734 309.065 539.405 309.463 539.078C310.257 538.424 311.078 537.797 312.034 537.107L313.007 536.416C313.814 535.85 315.043 534.994 315.291 534.818L315.983 534.322C320.693 530.887 323.736 528.186 324.756 523.109C325.593 518.945 324.299 513.241 322.826 509.004C321.081 503.984 318.007 500.455 313.575 501.1C307.047 502.055 290.844 525.774 286.364 540.295C282.678 552.243 281.742 570.586 281.986 587.055L282.026 589.401L282.02 592.637C282.022 595.258 282.048 597.449 282.117 599.727L282.136 600.299C282.245 603.595 282.435 606.302 282.72 608.25C282.814 608.892 282.918 609.441 283.028 609.888L283.084 610.107L283.114 609.972C283.239 609.371 283.34 608.586 283.417 607.631L283.442 607.307L283.487 606.619C283.61 604.488 283.635 601.764 283.582 598.36L283.536 595.981C283.516 595.108 283.492 594.169 283.461 593.076L283.294 586.793C283.275 585.817 283.276 585.304 283.292 584.827L283.366 583.007C283.421 581.529 283.454 579.992 283.492 577.551L283.549 574.014C283.7 565.928 283.995 561.902 284.959 556.95C285.104 556.203 285.263 555.466 285.436 554.738C287.959 544.113 293.39 536.465 298.645 527.093C300.223 524.278 308.505 519.968 308.581 520.515C308.657 521.062 301.489 524.297 299.314 527.916C294.686 535.614 289.848 544.814 287.381 555.2C287.215 555.902 287.062 556.612 286.922 557.332L286.739 558.305C285.947 562.699 285.687 566.633 285.548 574.072L285.444 580.269C285.417 581.529 285.388 582.533 285.347 583.554L285.287 585.039C285.274 585.587 285.279 586.262 285.314 587.709L285.527 595.557C285.545 596.327 285.56 597.039 285.573 597.751L285.605 600.045C285.7 608.942 285.285 612.621 283.314 612.897C281.771 613.114 281.191 611.612 280.741 608.539C280.461 606.621 280.272 604.053 280.157 600.953L280.137 600.366C280.053 597.852 280.022 595.501 280.02 592.643L280.022 588.893C279.599 571.779 281.56 552.323 285.453 539.705C290.147 524.492 305.714 501.229 313.286 500.121Z" fill="#00160A"/>
<ellipse cx="283" cy="622" rx="39" ry="29" fill="white"/>
<ellipse cx="267.505" cy="622" rx="23.5048" ry="29" fill="#E7EAEE"/>
<path fill-rule="evenodd" clip-rule="evenodd" d="M322 591.75H244C243.31 591.75 242.75 592.31 242.75 593C242.75 614.364 244.766 627.664 250.123 636.899C256.163 647.312 266.57 652.25 283 652.25C299.43 652.25 309.837 647.312 315.877 636.899C321.234 627.664 323.25 614.364 323.25 593C323.25 592.31 322.69 591.75 322 591.75ZM247.252 594.25H319.747L319.746 594.537C319.651 614.588 319.662 627.116 314.715 635.645C309.165 645.213 298.602 650.75 283 650.75C267.398 650.75 257.836 644.213 252.285 634.645L252.099 634.319C247.352 625.911 247.4 614.665 247.258 595.325L247.252 594.25Z" fill="#00160A"/>
</svg>
