<svg width="750" height="750" viewBox="0 0 750 750" fill="none" xmlns="http://www.w3.org/2000/svg">
<rect width="750" height="750" fill="none"/>
<path fill-rule="evenodd" clip-rule="evenodd" d="M678.894 408.883C664.549 427.774 645.952 442.943 629.751 460.269C608.659 482.825 591.609 509.151 579.653 537.625C567.281 567.087 559.531 600.069 536.756 622.483C503.992 654.73 449.878 654.06 407.429 636.414C341.169 608.869 294.27 548.678 258.364 486.551C251.153 474.074 243.838 460.95 231.925 452.84C210.267 438.096 181.427 444.367 155.342 446.824C136.802 448.57 117.492 447.942 100.466 440.396C74.9682 429.095 57.8854 403.161 52.358 375.824C46.8306 348.487 51.6133 319.95 60.5543 293.532C85.073 221.087 141.545 160.692 211.009 128.688C280.474 96.6839 361.867 92.7756 435.005 115.143C467.048 124.943 498.538 140.305 520.16 165.903C539.231 188.483 549.599 217.77 570.538 238.629C590.587 258.602 618.091 268.706 643.049 282.046C668.007 295.386 692.732 314.975 698.415 342.698C703.178 365.935 693.238 389.991 678.894 408.883Z" />
<path fill-rule="evenodd" clip-rule="evenodd" d="M158.551 169.893L159.123 169.924C169.226 170.505 180.893 174.795 183.298 184.625C190.283 159.566 206.209 137.098 227.543 122.211C220.975 136.113 218.409 151.879 220.229 167.147C225.937 152.636 236.482 140.076 249.785 131.942C243.759 140.479 240.311 150.811 240.005 161.256C239.782 168.851 241.341 176.803 246.096 182.729C249.167 186.557 253.369 189.306 257.658 191.691C258.73 192.287 259.814 192.863 260.907 193.418C261.34 193.638 261.775 193.855 262.211 194.068C263.223 194.564 264.243 195.041 265.269 195.501C266.189 195.913 267.115 196.311 268.046 196.695L268.663 196.947C269.277 197.196 269.894 197.438 270.513 197.675L271.532 198.058L272.103 198.268L273.212 198.663L273.631 198.809L274.6 199.138C275.247 199.355 275.896 199.565 276.547 199.768L277.849 200.166L278.699 200.416L279.722 200.707L280.66 200.963L282.002 201.314L282.59 201.462L283.495 201.683L284.017 201.806L284.936 202.017L285.633 202.171L286.083 202.268L287.299 202.52L288.541 202.762L289.735 202.981L290.93 203.186L292.19 203.388L293.347 203.56L294.59 203.73L295.817 203.884L296.926 204.012L297.618 204.085L298.66 204.188L299.401 204.255L300.159 204.318L301.391 204.41L301.79 204.437L303.033 204.511L304.247 204.57L305.426 204.615L306.197 204.638L307.354 204.661L307.896 204.668L309.13 204.675L310.363 204.667L310.894 204.66L312.003 204.637L313.299 204.595L314.053 204.565L315.193 204.508L316.444 204.433L317.658 204.347L318.89 204.246L319.488 204.192L320.686 204.074L321.947 203.937L322.578 203.862L323.712 203.719L324.924 203.554L325.629 203.451L326.215 203.362L326.801 203.27L327.927 203.085L328.673 202.955L329.176 202.865L329.819 202.746L331.04 202.51L331.598 202.397L332.214 202.269L333.299 202.035L334.549 201.751L335.704 201.475L336.357 201.313L337.478 201.026L338.154 200.846L339.304 200.53L340.483 200.192L341.021 200.033L341.726 199.82L342.856 199.468L343.388 199.297L343.964 199.109L344.627 198.889L345.093 198.73L345.776 198.495L346.892 198.098L347.472 197.886L348.626 197.453L349.726 197.027L350.861 196.572L351.887 196.148L352.612 195.84L353.696 195.369L354.233 195.13L354.739 194.902L355.333 194.629L355.903 194.363L356.4 194.128L357.536 193.579L358.057 193.321L358.593 193.052L359.626 192.522L360.249 192.196L360.781 191.913L361.893 191.308L362.331 191.065L362.987 190.695L363.413 190.452L363.968 190.131L364.497 189.82L365.027 189.505L366.064 188.874L367.062 188.251L367.655 187.873L368.115 187.576L368.664 187.217L369.103 186.925L369.684 186.534L370.126 186.233L370.636 185.882L371.197 185.489L371.654 185.165L372.185 184.783C372.396 184.63 372.607 184.476 372.818 184.321C372.895 183.224 372.81 182.263 372.596 181.403C371.723 180.86 370.86 180.263 370.009 179.611C367.035 177.333 364.25 173.501 361.655 168.114L360.971 167.183C357.149 161.916 354.257 156.856 354.08 156.05C352.9 150.686 352.544 145.219 352.609 139.725L352.601 139.692C352.05 135.936 352.321 132.097 353.221 128.253C353.38 126.339 353.557 124.428 353.733 122.523L354.536 123.794L354.611 123.584C355.497 121.115 357.222 125.832 359.164 131.117L363.961 138.709C361.148 119.559 368.368 99.2153 382.624 86.1232C375.616 113.934 383.781 145.086 403.531 165.883C426.683 190.262 462.66 199.592 484.82 224.876C504.719 247.58 510.133 279.136 522.759 306.577L523.183 307.49C527.695 317.137 533.831 326.916 543.635 331.077C553.188 335.131 564.106 332.994 574.248 330.796L602.719 324.625C592.773 346.617 563.416 357.31 541.655 346.866C548.745 357.078 561.84 362.762 574.142 360.966C591.936 358.369 605.822 341.983 623.778 341C628.489 340.742 633.619 341.802 636.747 345.334C641.251 350.42 639.624 359.023 634.578 363.571C629.531 368.12 622.171 369.227 615.42 368.46C623.706 365.326 632.532 348.573 626.625 349.199C612.354 350.711 589.749 362.323 573.612 374.973C577.21 373.992 581.487 374.632 585.142 373.89C593.692 372.153 596.852 370.507 604.275 368.46C600.326 376.93 590.708 378.842 580.839 383.683C596.482 381.432 611.439 376.998 627.082 374.747C632.725 373.935 647.206 379.327 646.86 381.736C646.739 382.58 636.7 382.43 634.98 382.384C628.354 382.206 623.533 380.942 617.771 384.219C601.476 393.486 578.692 394.715 561.175 388.041L564.161 390.311L566.412 392.009C576.942 399.907 587.876 407.42 600.326 411.52C614.685 416.25 631.687 415.686 643.559 406.376L643.966 406.052C653.174 398.6 664.78 394.16 676.61 393.564C663.217 399.995 650.916 408.691 640.386 419.172C649.848 413.279 662.39 412.695 672.358 417.684C664.766 417.84 657.222 419.952 650.653 423.761C647.995 425.303 645.178 428.456 646.86 431.029C647.617 432.186 649.051 432.685 650.406 432.959C660.971 435.096 670.788 428.393 679.694 421.917L682.376 419.963C691.981 412.984 705.189 406.88 715.119 413.387C695.87 424.131 682.506 445.296 661.12 450.646C644.047 454.918 626.289 447.844 610.728 439.622L606.942 437.614L605.368 436.786C596.597 432.202 587.443 428.013 577.718 428.727C565.996 429.588 554.469 441.625 559.086 452.434C562.093 459.475 570.344 462.732 577.965 463.458C585.586 464.184 593.393 463.128 600.849 464.867C617.495 468.75 628.181 483.659 640.862 495.153L643.76 497.745L644.617 498.502C651.424 504.495 660.538 511.874 670.124 514.602C680.901 517.67 692.342 514.49 698.469 514.602C710.974 514.832 724.446 518.732 731.605 528.987L729.752 528.46L728.495 528.112C720.979 526.064 713.919 524.727 706.949 526.208C703.548 526.931 683.015 538.761 661.12 530.227C643.629 523.41 629.672 508.426 622.578 503.133C612.182 495.377 578.809 477.784 582.49 481.725C582.919 483.04 581.275 482.662 578.149 481.041L578.682 482.189C584.841 495.7 585.327 506.317 580.14 514.04C574.74 522.079 566.818 523.28 556.374 517.642L553.992 516.043C547.882 511.93 543.709 509.012 541.475 507.29C539.326 505.634 544.847 541.382 556.374 552.631C561.769 557.895 579.149 561.308 593.843 568.286C598.001 570.26 602.63 574.279 607.73 580.342C600.784 576.844 594.637 574.613 589.291 573.648C566.123 569.466 549.529 574.743 539.668 561.847C529.807 548.952 531.06 544.291 530.016 533.307L528.175 514.04C516.997 530.463 506.531 541.268 496.779 546.455C488.046 551.1 479.236 551.05 470.349 546.303L469.934 546.077L470.12 546.188C477.446 550.507 483.815 553.494 489.224 555.147C495.332 557.014 503.055 558.048 512.395 558.251C485.577 574.493 462.18 572.619 442.206 552.631L441.119 551.536C430.231 540.486 415.195 522.788 406.938 496.859L406.323 494.902C402.752 483.645 399.474 476.719 402.174 455.161L402.487 452.743C403.147 447.423 403.867 438.524 402.353 430.065C401.686 426.338 399.234 420.833 394.998 413.55C377.699 434.162 368.439 454.581 367.219 474.806C365.999 495.032 370.477 518.246 380.651 544.449L380.857 544.995L381.016 545.451C383.281 547.855 385.477 550.689 387.522 554.128C398.026 571.79 412.532 588.759 413.237 609.296C413.677 622.136 408.151 635.057 398.563 643.607C406.68 622.538 400.418 596.758 383.608 581.707L383.095 581.254C364.775 565.291 353.139 541.884 351.472 517.642C351.602 518.126 351.742 518.594 351.894 519.048C349.683 508.611 348.71 497.955 348.975 487.078L349.007 485.951C349.384 474.147 351.254 457.533 354.619 436.109L353.761 438.433C350.482 447.41 348.181 454.876 347.463 458.989C342.314 488.52 343.181 526.664 347.463 546.645L345.046 547.425C306.345 559.867 285.697 564.259 283.101 560.601L273.911 546.645C245.58 497.008 237.47 432.551 250.525 375.322L250.927 373.59L250.67 374.352C245.53 389.719 240.828 412.277 239.359 432.605L239.268 433.935C237.87 455.394 240.288 474.117 239.388 478.124L239.359 478.243C236.698 488.404 250.036 527.47 265.927 554.559C276.085 571.876 291.977 581.502 290.082 584.685C288.617 587.147 266.272 572.483 247.954 555.167L246.923 554.185C230.16 538.092 217.352 519.841 217.029 522.878C215.119 540.791 239.359 576.203 239.359 580.148L239.355 581.981C239.276 598.674 238.049 612.353 232.015 626.586L231.529 627.717C228.176 635.416 223.571 643.617 215.479 645.42C223.269 633.598 228.838 620.317 231.812 606.475C233.115 600.408 233.923 594.133 232.977 588C231.729 579.911 227.505 572.57 222.575 566.037C210.001 549.372 191.682 535.165 188.39 514.55C186.688 503.895 189.395 493.033 189.02 482.249C188.66 471.884 185.466 461.833 184.207 451.538C181.045 425.684 190.972 398.564 210.077 380.86C189.487 382.856 169.629 391.775 154.46 405.841C147.458 412.333 141.367 419.929 133.385 425.171C123.167 431.881 110.757 434.16 98.7198 436.291C120.436 421.751 139.27 402.924 153.817 381.212C142.514 395.817 125.328 405.73 107.026 408.202L108.304 407.367C119.581 399.944 130.422 391.237 137.031 379.498C143.889 367.315 145.282 351.204 137.295 339.729C129.308 328.255 110.699 324.633 100.92 334.624C111.133 321.699 126.803 313.235 143.212 311.781C159.249 310.36 180.031 312.733 194.217 305.017C169.74 300.06 144.957 296.62 120.057 294.725C115.338 294.366 109.659 293.597 104.457 292.64C99.158 291.95 94.6005 290.931 91.0374 289.131C90.6436 288.952 90.3011 288.776 90.0165 288.602C89.8951 288.527 89.7826 288.455 89.6786 288.386L89.4398 288.223L89.3815 288.177C87.0074 286.392 90.7203 286.209 92.4038 285.658C91.6699 284.788 89.6796 284.246 89.5638 283.415C89.555 283.352 89.5775 283.286 89.6241 283.217L89.5662 283.036C89.4835 282.124 91.7441 282.058 91.6614 281.146C91.0036 279.84 89.8128 279.763 89.7927 279.118L89.6812 278.995C89.1624 278.385 89.2554 277.929 91.4363 277.955L91.6614 277.959C96.6192 278.083 98.9238 278.466 103.404 280.506L103.475 280.525L102.439 279.402C101.159 277.989 99.643 276.05 101.195 275.344C101.242 275.312 101.299 275.289 101.366 275.276C101.648 275.176 102.014 275.11 102.475 275.084C110.028 274.664 110.985 278.551 117.222 278.645L118.732 278.664C143.808 278.915 188.785 276.426 187.22 275.887C185.622 275.337 154.693 252.827 135.547 253.375C126.064 253.647 116.038 256.906 107.445 252.884C123.152 246.39 141.305 244.376 157.144 250.541C166.083 254.02 173.883 259.895 182.567 263.967C201.311 272.754 224.078 272.435 242.568 263.125C222.169 263.606 201.668 258.911 183.511 249.601C209.551 252.393 236.189 249.46 260.998 241.069C241.901 230.053 219.858 225.29 197.714 224.445L194.569 224.445C189.566 224.433 185.744 224.371 182.852 224.446L181.917 224.477C154.642 225.577 127.832 231.523 101.028 236.691C100.129 236.864 99.145 236.962 98.1433 236.976L97.8926 236.978C93.5409 236.978 88.9581 235.384 89.5662 231.462C103.197 231.212 115.175 223.027 127.483 217.164C143.375 209.592 160.978 205.639 178.582 205.676L179.542 205.681L180.502 205.695C180.244 205.408 179.984 205.123 179.721 204.84L179.14 204.224L178.625 203.693L178.103 203.167C177.439 202.505 176.759 201.857 176.065 201.225L175.466 200.687L174.87 200.165L174.05 199.467L173.54 199.045L172.984 198.595L172.215 197.99L171.862 197.719L171.326 197.313L170.481 196.693L169.915 196.289L169.048 195.688L168.895 195.584C168.467 195.294 168.035 195.01 167.6 194.731L167.141 194.439L166.579 194.088L165.973 193.72L165.301 193.322L164.475 192.848L163.771 192.456L163.174 192.134L162.591 191.826L161.713 191.377L161.051 191.051L160.103 190.598L159.415 190.282L158.553 189.9L157.644 189.514L156.926 189.22C156.481 189.041 156.034 188.868 155.585 188.699L154.91 188.45C154.258 188.214 153.602 187.989 152.943 187.774C152.651 187.679 152.359 187.587 152.066 187.496L151.425 187.302C151.202 187.236 150.979 187.171 150.756 187.108L150.097 186.924C140.112 184.2 131.887 175.802 129.373 165.762C138.042 170.601 148.613 169.392 158.551 169.893ZM199.683 306.148L199.88 306.21C202.509 307.005 206.211 307.894 210.71 308.596C207.043 307.745 203.366 306.929 199.683 306.148ZM104.142 276.105L104.154 276.111L104.746 276.324C105.264 276.507 105.847 276.702 106.499 276.9L105.992 276.662C105.395 276.392 104.78 276.16 104.142 276.105Z" fill="white"/>
<path fill-rule="evenodd" clip-rule="evenodd" d="M397.235 366.966C395.057 366.525 392.509 366.194 390.869 367.693C373.691 383.386 364.527 405.86 357.219 427.95C352.278 442.886 347.914 458.128 346.405 473.788C345.191 486.387 345.841 499.083 346.493 511.724C347.089 523.295 347.685 534.867 348.281 546.439C346.949 547.337 322.704 510.75 331.078 462.595C339.453 414.44 360.657 372.349 375.025 358.11C395.242 343.316 417.226 371.019 397.235 366.966Z" fill="#E7EAEE"/>
<path d="M156.342 254.857C164.863 258.291 171.942 264.501 179.987 268.936C188.75 273.768 198.529 276.425 208.286 278.645C241.819 286.273 143.252 249.583 156.342 254.857Z" fill="white"/>
<path fill-rule="evenodd" clip-rule="evenodd" d="M357.924 279.308C381.489 260.941 385.959 270.449 391.311 267.893C385.134 272.941 378.468 278.875 377.811 286.825C377.404 291.737 379.43 296.492 381.489 300.971C384.346 307.183 387.413 313.42 392.004 318.487C401.335 328.787 360.922 305.404 357.528 297.788C355.962 294.274 354.36 290.547 354.787 286.723C355.088 284.028 356.027 280.786 357.924 279.308Z" fill="#E7EAEE"/>
<path d="M364.689 237.033C365.737 231.86 369.938 227.95 374.227 224.875C387.26 215.531 403.317 210.479 419.352 210.677C418.258 210.161 420.644 210.503 423.14 212.586C426.246 215.178 427.863 217.061 429.114 221.588C425.027 220.83 421.243 218.54 418.677 215.27C419.769 221.049 424.61 225.935 430.379 227.078C427.131 227.923 424.157 229.792 421.987 232.354C427.313 230.397 433.868 232.687 436.817 237.534C428.712 236.478 420.188 239.311 414.327 245.009C423.362 241.647 434.292 244.182 440.925 251.176C427.754 250.16 414.547 249.62 401.337 249.557C408.288 250.95 414.642 255.119 418.687 260.94C417.732 260.943 411.86 260.354 401.337 257.478C394.765 255.682 376.153 249.557 376.153 249.557C376.153 249.557 374.219 248.393 373.349 247.827C366.961 243.666 364.074 240.068 364.689 237.033Z" fill="white"/>
<ellipse cx="383.513" cy="222.145" rx="3.18778" ry="3.74814" fill="#FFB61D"/>
<path fill-rule="evenodd" clip-rule="evenodd" d="M374.596 0.674782C374.126 0.80558 373.383 0.716613 373.458 0.234506C373.739 0.0902908 374.053 -0.0580997 374.359 0.0229957C374.664 0.104091 374.862 0.54591 374.617 0.74461L374.596 0.674782Z" fill="#00160A"/>
<ellipse cx="396.296" cy="243" rx="3.50152" ry="4" fill="#FFB61D"/>
<path fill-rule="evenodd" clip-rule="evenodd" d="M641.627 495.84L641.351 495.593C638.111 492.692 635.007 489.557 631.908 486.428C622.67 477.099 613.474 467.812 600.849 464.867C596.296 463.805 591.612 463.785 586.919 463.766C583.927 463.753 580.932 463.741 577.965 463.458C570.344 462.732 562.094 459.475 559.086 452.434C554.469 441.625 565.996 429.588 577.718 428.727C588.705 427.92 598.963 433.372 608.763 438.58C609.42 438.929 610.075 439.277 610.728 439.622C626.289 447.844 644.047 454.918 661.12 450.646C673.834 447.466 683.712 438.696 693.678 429.849C700.475 423.815 707.313 417.744 715.119 413.387C705.189 406.88 691.981 412.984 682.376 419.963C681.917 420.297 681.455 420.634 680.99 420.973C671.743 427.718 661.486 435.2 650.406 432.959C649.051 432.685 647.617 432.186 646.86 431.029C645.179 428.456 647.995 425.303 650.654 423.761C657.223 419.952 664.766 417.84 672.358 417.684C662.39 412.695 649.848 413.279 640.386 419.172C650.916 408.691 663.218 399.995 676.61 393.564C664.78 394.16 653.174 398.6 643.966 406.052C632.079 415.672 614.851 416.305 600.326 411.52C585.801 406.736 573.339 397.309 561.175 388.041C578.692 394.715 601.476 393.486 617.771 384.219C622.339 381.621 626.315 381.878 631.069 382.184C632.311 382.264 633.607 382.347 634.98 382.384C636.7 382.43 646.739 382.58 646.86 381.736C647.206 379.327 632.725 373.935 627.082 374.747C619.26 375.872 611.61 377.543 603.961 379.215C596.311 380.886 588.661 382.557 580.84 383.683C583.206 382.522 585.558 381.529 587.822 380.574C594.995 377.548 601.273 374.899 604.275 368.46C601.511 369.222 599.339 369.929 597.259 370.605C593.752 371.745 590.509 372.799 585.142 373.89C583.459 374.232 581.644 374.28 579.824 374.329C577.692 374.386 575.553 374.444 573.613 374.973C589.75 362.323 612.354 350.711 626.625 349.199C632.533 348.573 623.706 365.326 615.421 368.46C622.171 369.227 629.531 368.12 634.578 363.571C639.624 359.023 641.251 350.42 636.747 345.334C633.619 341.802 628.49 340.742 623.778 341C614.347 341.517 606.038 346.283 597.696 351.068C590.156 355.393 582.59 359.733 574.142 360.966C561.84 362.762 548.745 357.078 541.655 346.866C563.416 357.31 592.773 346.617 602.719 324.625L574.249 330.796C564.106 332.994 553.188 335.131 543.635 331.077C533.831 326.916 527.695 317.137 523.183 307.49C518.823 298.168 515.33 288.35 511.843 278.552C504.987 259.286 498.157 240.093 484.82 224.876C473.387 211.831 458.276 203.033 443.146 194.224C428.95 185.959 414.738 177.684 403.531 165.883C383.782 145.086 375.616 113.934 382.625 86.1232C368.368 99.2153 361.148 119.559 363.961 138.709L353.734 122.523C352.696 133.699 351.669 145.088 354.08 156.05C356.491 167.012 362.938 177.679 373.154 182.328C358.563 168.937 351.569 147.768 355.309 128.32C357.165 135.003 361.359 141.012 366.993 145.058C363.728 125.535 368.614 104.778 380.245 88.7624C373.275 118.776 383.876 152.215 406.866 172.731C416.756 181.557 428.467 187.941 440.173 194.322C452.352 200.962 464.526 207.598 474.637 216.979C494.723 235.614 504.251 262.697 512.903 288.694C517.988 303.974 523.92 320.468 537.512 329.104C555.863 340.764 579.848 333.364 600.183 325.673C589.359 347.333 558.39 355.767 538.077 342.587C542.513 355.263 555.843 364.23 569.255 363.562C579.04 363.076 588.054 358.132 596.956 353.25C607.759 347.326 618.399 341.49 630.058 343.815C631.944 344.19 633.838 344.809 635.313 346.042C639.524 349.558 638.482 356.748 634.648 360.672C630.813 364.595 625.207 366.099 619.887 367.441C624.571 364.627 629.631 361.341 631.147 356.091C632.663 350.841 631.695 347.69 627.082 347.69C609.171 347.69 589.618 360.963 573.564 371.861C572.122 372.84 570.708 373.799 569.326 374.729C580.206 376.955 591.836 375.321 601.681 370.184C592.591 377.199 581.284 381.297 569.81 381.736C580.519 389.016 593.853 385.329 607.214 381.635C620.445 377.977 633.703 374.311 644.468 381.279C633.434 376.867 621.901 380.875 610.225 384.933C599.963 388.5 589.589 392.105 579.345 390.066C577.072 389.613 574.771 388.889 572.473 388.166C566.718 386.354 560.98 384.547 555.731 387.025C569.473 398.477 585.286 407.435 602.173 413.335C611.133 416.466 620.933 418.74 630.043 416.078C635.957 414.35 641.043 410.701 646.119 407.059C651.608 403.121 657.085 399.191 663.584 397.712C651.513 405.083 640.87 414.781 632.412 426.115C642.857 417.814 657.067 414.455 670.124 417.203C667.543 418.013 664.827 418.265 662.116 418.517C658.952 418.81 655.794 419.103 652.866 420.283C647.43 422.474 643.627 430.389 648.203 434.052C649.643 435.204 651.549 435.59 653.389 435.71C663.581 436.373 672.415 430.239 681.211 424.131C690.327 417.801 699.402 411.499 709.906 412.825C699.868 422.955 689.611 433.118 677.326 440.363C665.042 447.607 650.336 451.741 636.381 448.8C627.534 446.936 619.599 442.418 611.693 437.917C609.599 436.725 607.506 435.534 605.399 434.393C595.341 428.949 583.85 424.475 572.674 426.906C561.499 429.336 551.895 441.324 555.842 452.059C558.69 459.807 567.17 464.029 575.291 465.511C578.815 466.154 582.398 466.427 585.979 466.701C590.649 467.057 595.314 467.413 599.836 468.588C613.027 472.016 622.886 481.619 632.841 491.315C640.298 498.578 647.808 505.893 656.812 510.704C665.448 515.318 667.114 517.384 669.233 518.093C671.257 518.771 673.695 518.212 683.015 517.453C698.004 516.232 715.222 515.412 725.69 526.208C714.014 519.866 706.472 522.747 697.909 526.018C691.298 528.543 684.079 531.301 673.877 530.227C659.377 528.702 647.824 518.947 636.336 509.248C632.062 505.639 627.797 502.038 623.393 498.871C620.572 496.843 617.965 494.836 615.478 492.922C603.643 483.812 594.544 476.808 578.269 479.708C582.502 488.5 583.692 498.723 581.591 508.252C580.506 513.177 578.168 518.346 573.576 520.431C567.631 523.131 560.824 519.589 555.444 515.891C544.903 508.646 535.081 500.356 526.168 491.183C525.369 490.361 524.574 489.53 523.778 488.696C518.616 483.296 513.394 477.831 506.721 474.569C486.564 464.716 461.828 479.5 450.884 499.086C454.521 485.467 465.124 473.908 478.379 469.112C491.635 464.316 507.179 466.415 518.688 474.555C521.25 476.367 523.798 478.499 526.362 480.644C534.652 487.578 543.113 494.656 552.769 491.549C542.597 492.122 534.638 485.464 526.509 478.664C521.537 474.504 516.501 470.291 510.856 467.648C495.015 460.232 475.677 466.309 461.981 477.189C453.488 483.936 445.959 495.414 450.96 505.039C458.706 484.308 482.468 468.112 503.11 476.092C511.675 479.403 518.288 486.113 524.786 492.706C525.741 493.674 526.693 494.64 527.648 495.593C535.202 503.122 543.345 510.059 551.979 516.321C557.02 519.976 562.747 523.549 568.958 523.105C577.588 522.488 583.951 513.974 585.142 505.404C586.332 496.835 585.176 489.949 582.49 481.725C578.809 477.784 612.182 495.377 622.578 503.133C624.329 504.44 626.499 506.337 629.036 508.556C636.778 515.326 647.947 525.093 661.12 530.227C679.433 537.365 696.792 530.257 703.972 527.318C705.377 526.742 706.393 526.327 706.949 526.208C714.873 524.525 722.912 526.482 731.605 528.987C724.446 518.732 710.974 514.832 698.47 514.602C696.612 514.568 694.266 514.837 691.599 515.142C685.467 515.844 677.634 516.74 670.124 514.602C659.054 511.451 648.612 502.097 641.627 495.84ZM577.243 382.922C578.183 382.653 579.194 382.641 580.14 382.887L580.083 383.071C579.136 383.162 578.176 383.111 577.243 382.922ZM156.342 254.857C161.516 256.942 166.158 260.05 170.808 263.164L170.808 263.164C173.816 265.178 176.827 267.194 179.988 268.936C188.75 273.768 198.529 276.425 208.286 278.645C241.819 286.273 276.412 289.223 310.753 287.384C322.657 286.746 334.865 285.441 345.458 279.971C358.65 273.157 368.286 259.853 370.645 245.193C365.377 245.503 361.641 239.206 362.689 234.033C363.737 228.86 367.938 224.95 372.227 221.875C385.26 212.531 401.317 207.479 417.352 207.677C416.3 207.181 415.536 206.584 414.758 205.976C413.722 205.167 412.661 204.337 410.86 203.702C415.003 201.779 419.355 202.957 422.872 205.872C421.169 202.643 421.456 198.462 423.584 195.496C427.565 203.513 434.37 210.092 442.516 213.802C433.943 212.117 426.463 205.685 423.514 197.46C422.798 202.506 424.323 207.822 427.569 211.744C423.653 207.438 418.214 204.535 412.451 203.702C420.435 206.53 426.857 213.424 429.114 221.588C425.027 220.83 421.243 218.54 418.677 215.27C419.769 221.049 424.61 225.935 430.379 227.078C427.131 227.923 424.157 229.792 421.987 232.354C427.313 230.397 433.868 232.687 436.817 237.534C428.712 236.478 420.188 239.311 414.327 245.009C423.362 241.647 434.292 244.182 440.925 251.176C427.754 250.16 414.547 249.62 401.337 249.557C408.288 250.95 414.642 255.119 418.687 260.94C414.436 260.953 410.192 259.603 406.729 257.136C409.885 256.689 413.187 257.361 415.917 259.004C410.25 254.046 403.283 250.589 395.907 249.074C409.8 247.536 423.886 247.751 437.725 249.714C430.368 244.593 420.405 243.456 412.084 246.789C416.615 239.574 425.459 235.318 433.925 236.279C430.213 232.677 424.004 231.996 419.599 234.709C420.366 230.995 423.385 227.841 427.062 226.913C424.227 225.433 421.283 223.861 419.431 221.253C417.579 218.646 417.22 214.677 419.511 212.445C420.877 215.279 423.103 217.688 425.808 219.291C426.133 219.572 426.52 219.79 426.99 219.925C426.587 219.731 426.193 219.519 425.808 219.291C424.739 218.364 424.348 216.741 423.944 215.061C423.551 213.432 423.146 211.749 422.096 210.595C420.541 208.887 417.938 208.748 415.629 208.837C398.762 209.487 382.179 216.043 369.427 227.102C366.277 229.834 363.102 233.915 364.68 237.774C365.455 239.67 367.216 240.95 368.892 242.127L380.465 250.253C377.806 250.012 375.202 249.189 372.886 247.86C369.684 262.445 359.566 275.351 346.168 281.943C336.361 286.768 325.274 288.24 314.38 289.124C282.563 291.707 250.386 289.827 219.086 283.556C216.79 283.096 214.497 282.613 212.204 282.129L212.202 282.129C203.737 280.343 195.264 278.556 186.644 277.959C176.346 277.247 164.134 278.117 152.17 278.97C133.947 280.269 116.303 281.526 106.889 277.086C106.79 277.039 106.69 276.991 106.59 276.944L106.587 276.942C105.538 276.44 104.433 275.911 103.252 276.153C100.324 276.153 103.222 278.265 105.941 280.247C107.145 281.124 108.313 281.976 108.925 282.607C105.931 281.978 103.358 281.419 100.785 280.86C98.2122 280.301 95.6392 279.742 92.6452 279.113C86.6571 277.854 98.3401 282.981 102.475 283.763C101.546 283.695 100.177 283.547 98.7016 283.388C94.1635 282.9 88.6078 282.301 91.6615 283.556C93.6848 284.388 95.5709 285.062 97.457 285.737C99.343 286.411 101.229 287.086 103.252 287.917C102.23 287.892 100.708 287.782 99.0861 287.665L99.0847 287.665C94.3815 287.324 88.8327 286.922 92.1437 288.357C96.5972 290.286 113.101 292.485 124.281 293.265C152.744 295.249 181.195 298.634 208.89 305.497C212.277 306.336 215.665 307.229 219.057 308.123C234.052 312.074 249.121 316.045 264.54 315.508C264.546 317.463 261.942 318.124 259.986 318.097C248.1 317.935 236.479 314.991 224.931 312.065L224.93 312.065L224.921 312.063C223.518 311.707 222.116 311.352 220.714 311.002C187.699 302.759 153.987 297.307 120.057 294.725C109.458 293.919 94.0142 291.047 90.0166 288.602C87.1666 286.858 89.234 286.4 91.1044 285.985C91.8577 285.818 92.5789 285.658 92.9343 285.424L92.8974 285.411C91.6289 284.977 89.961 284.406 89.5663 283.036C89.525 282.58 90.0694 282.336 90.6139 282.091C91.1583 281.847 91.7028 281.602 91.6615 281.146C91.6263 280.759 91.0581 280.261 90.5025 279.774C89.3944 278.803 88.3368 277.876 91.6615 277.959C96.6528 278.084 98.955 278.471 103.496 280.548C103.363 280.397 103.193 280.215 103.001 280.01C101.478 278.379 98.6018 275.3 102.475 275.084C106.565 274.856 108.721 275.892 110.829 276.904C112.613 277.761 114.362 278.602 117.222 278.645C141.953 279.017 188.817 276.437 187.22 275.887C186.961 275.798 185.933 275.133 184.309 274.083C175.911 268.649 151.592 252.916 135.547 253.375C132.785 253.454 129.976 253.787 127.17 254.119L127.17 254.119C120.344 254.928 113.534 255.735 107.445 252.884C123.152 246.39 141.305 244.376 157.144 250.541C162.229 252.52 166.945 255.274 171.665 258.031L171.665 258.031C175.243 260.12 178.823 262.211 182.568 263.967C201.311 272.754 224.078 272.435 242.568 263.125C222.169 263.606 201.668 258.911 183.511 249.601C209.551 252.393 236.19 249.46 260.998 241.069C237.353 227.429 209.192 223.376 181.917 224.477C158.348 225.428 135.127 229.996 111.956 234.555L111.956 234.555L111.953 234.556C108.31 235.272 104.669 235.989 101.028 236.691C96.1568 237.63 88.8062 236.364 89.5663 231.462C100.187 231.267 109.805 226.255 119.357 221.277L119.357 221.277C122.064 219.866 124.765 218.459 127.483 217.164C143.953 209.317 162.261 205.357 180.502 205.695C172.441 196.704 161.748 190.102 150.098 186.924C140.112 184.2 131.888 175.802 129.373 165.762C136.13 169.534 144.041 169.631 151.908 169.728C154.329 169.758 156.746 169.788 159.123 169.924C169.226 170.505 180.894 174.795 183.298 184.625C190.283 159.566 206.21 137.098 227.543 122.211C220.975 136.113 218.409 151.879 220.229 167.147C225.937 152.636 236.482 140.076 249.785 131.942C243.759 140.479 240.311 150.811 240.005 161.256C239.783 168.851 241.341 176.803 246.096 182.729C249.167 186.557 253.369 189.306 257.658 191.691C293.41 211.57 340.716 208.364 373.46 183.844C362.223 196.744 345.575 204.14 328.632 206.506C311.689 208.872 294.396 206.567 277.773 202.526C263.423 199.038 248.013 193.135 241.253 180.007C234.164 166.241 239.117 149.399 246.075 135.567C234.708 145.088 225.585 157.271 219.648 170.859C216.943 157.136 217.959 142.699 222.559 129.491C203.374 144.646 189.734 166.67 184.716 190.598C180.61 180.035 170.092 172.275 158.788 171.469C155.743 171.252 152.622 171.486 149.515 171.719C143.731 172.153 137.995 172.584 132.887 170.09C135.6 178.229 144.287 181.462 152.72 184.602L152.72 184.602C154.944 185.429 157.149 186.25 159.223 187.153C170.038 191.86 178.714 200.3 187.131 208.562C170.794 205.234 153.777 209.011 138.217 214.998C130.454 217.984 122.918 221.513 115.382 225.043C107.812 228.588 100.242 232.134 92.442 235.129C102.323 235.455 112.041 233.003 121.644 230.58C122.243 230.429 122.842 230.278 123.441 230.127C161.442 220.582 202.434 214.124 239.11 227.91C242.45 229.165 245.728 230.581 249.005 231.996C253.624 233.991 258.242 235.986 263.028 237.529C290.888 246.513 321.151 239.424 349.275 231.308C326.06 244.005 298.469 248.511 272.42 243.859C264.775 242.494 257.079 244.634 249.528 246.735L249.526 246.735C248.387 247.052 247.251 247.368 246.119 247.671C230.356 251.888 213.939 253.65 197.64 252.875C220.832 263.278 246.812 261.132 272.785 258.986C298.861 256.833 324.93 254.679 348.168 265.224C316.355 257.776 282.865 257.585 250.969 264.669C247.701 265.395 244.412 266.196 241.109 267C224.592 271.022 207.753 275.122 191.729 270.277C184.651 268.137 178.258 264.369 171.858 260.597C166.184 257.253 160.504 253.905 154.336 251.685C141.52 247.073 126.896 247.727 114.543 253.464C128.515 251.482 143.252 249.583 156.342 254.857ZM428.196 212.461C427.992 212.218 427.783 211.979 427.569 211.744C427.772 211.989 427.981 212.228 428.196 212.461ZM405.195 217.499L404.355 216.664C405.419 215.211 405.338 213.028 404.167 211.658C404.432 211.161 405.214 211.186 405.624 211.571C406.034 211.957 406.163 212.548 406.252 213.104C406.504 214.673 406.479 216.562 405.195 217.499ZM404.462 236.13C405.755 233.594 406.044 230.563 405.255 227.829C404.671 227.824 404.093 227.575 403.689 227.154C404.297 230.094 404.175 233.183 403.335 236.067C403.684 235.878 404.137 235.904 404.462 236.13ZM378.168 227.829C377.681 227.892 377.395 228.402 377.611 228.843C378.95 231.571 383.255 239.804 387.622 242.369C387.959 242.375 388.291 242.177 388.446 241.878C384.127 239.125 379.939 230.434 378.938 228.256C378.802 227.961 378.491 227.787 378.168 227.829ZM404.369 254.576L402.594 252.887C403.603 252.519 404.836 252.9 405.461 253.773C406.086 254.647 406.048 255.937 405.373 256.772C405.096 257.115 404.712 257.387 404.277 257.458C403.943 257.512 403.603 257.447 403.271 257.381C401.942 257.12 400.588 256.849 399.401 256.195C398.215 255.541 397.2 254.43 397.012 253.088C398.943 254.671 401.374 255.636 403.865 255.807L404.369 254.576ZM397.284 256.873C392.345 257.795 387.472 259.066 382.711 260.67C386.803 260.784 390.856 262.083 394.252 264.369C398.613 267.303 403.771 269.038 409.019 269.336C403.421 270.737 397.172 269.193 392.871 265.346C390.797 263.49 387.997 262.605 385.224 262.379C382.45 262.152 379.666 262.532 376.911 262.93C380.873 259.151 386.389 257.582 391.67 256.142C393.613 255.613 396.089 255.252 397.284 256.873ZM391.311 267.893C385.959 270.449 381.293 274.427 377.924 279.308C376.384 281.54 375.088 284.028 374.787 286.723C374.36 290.547 375.962 294.273 377.528 297.788C380.922 305.404 384.402 313.155 389.957 319.374C398.564 329.011 410.907 333.76 423.137 338.466L423.137 338.466C426.334 339.696 429.524 340.923 432.636 342.234C475.014 360.078 507.044 396.392 531.278 435.469L531.486 435.804C534.633 440.881 537.912 446.171 543.037 449.216C516.829 401.666 478.694 358.416 428.362 338.056C426.193 337.179 423.988 336.334 421.777 335.487L421.776 335.487C410.852 331.301 399.764 327.053 392.004 318.487C387.413 313.42 384.346 307.183 381.489 300.971C379.43 296.492 377.404 291.737 377.811 286.825C378.468 278.875 385.134 272.941 391.311 267.893ZM251.977 487.506C253.779 497.166 256.053 506.775 259.589 515.943C262.838 524.366 267.142 532.382 272.371 539.741C253.329 519.234 247.744 489.782 245.635 461.877C243.95 439.586 243.958 417.168 245.658 394.878C239.187 428.607 237.874 463.663 245.288 497.197C252.703 530.732 269.222 562.71 294.701 585.74C295.778 586.714 294.763 588.693 293.342 588.996C291.921 589.298 290.511 588.546 289.255 587.817C262.614 572.356 235.77 554.272 221.167 527.151C220.554 526.012 220.21 524.181 221.441 523.784C238.394 548.082 260.899 568.481 286.74 582.973C253.651 550.909 237.804 503.939 236.533 457.881C235.262 411.823 247.351 366.352 263.483 323.193C265.561 317.633 267.857 311.878 272.288 307.93C247.935 364.005 240.763 427.407 251.977 487.506ZM564.235 466.887C560.899 467.705 557.286 467.347 554.176 465.89C560.974 470.691 567.156 476.362 572.525 482.72C568.698 481.849 565.148 479.797 562.483 476.915L568.02 487.207L558.648 478.941L561.711 487.737C545.76 474.804 532.933 458.465 520.142 442.171C504.518 422.268 488.946 402.431 467.795 388.949C445.326 374.626 418.615 368.87 392.543 363.369C394.252 362.254 395.251 360.138 395.025 358.11C380.657 372.349 369.142 389.455 361.355 408.125C358.109 415.909 355.51 423.944 352.914 431.968C349.536 442.413 346.146 452.908 344.41 463.747C341.976 478.944 342.849 494.453 343.729 509.819L345.658 543.507C345.75 545.11 346.949 547.337 348.281 546.439L346.493 511.724C345.841 499.083 345.191 486.387 346.405 473.788C347.914 458.128 352.278 442.886 357.219 427.95C364.527 405.86 373.691 383.386 390.869 367.693C392.509 366.194 395.057 366.525 397.235 366.966C417.226 371.019 437.053 376.55 455.36 385.546C473.666 394.543 490.467 407.16 502.472 423.65C519.851 447.523 539.394 469.819 560.782 490.177C562.528 489.557 563.709 487.632 563.469 485.795C564.692 487.745 567.006 488.958 569.306 488.853L569.507 484.149C571.06 485.413 573.488 485.445 575.073 484.223C571.96 478.516 567.383 473.616 561.901 470.122L565.791 469.875C567.302 468.15 565.149 465.674 563.222 464.431L540.572 449.816C547.407 456.802 555.449 462.604 564.235 466.887ZM98.7199 436.291C110.757 434.16 123.167 431.881 133.385 425.171C138.798 421.617 143.341 416.98 147.888 412.338L147.888 412.338L147.889 412.337L147.89 412.337L147.89 412.336L147.89 412.336C150.048 410.133 152.207 407.93 154.46 405.841C169.629 391.775 189.487 382.856 210.077 380.86C190.972 398.564 181.045 425.684 184.207 451.538C184.719 455.722 185.55 459.866 186.381 464.008C187.594 470.056 188.806 476.097 189.02 482.249C189.174 486.691 188.806 491.145 188.438 495.593C187.913 501.945 187.389 508.283 188.39 514.55C190.771 529.459 201.012 541.017 211.256 552.577C215.175 557.001 219.095 561.425 222.575 566.037C227.505 572.57 231.729 579.911 232.977 588C233.923 594.133 233.115 600.408 231.812 606.475C228.839 620.317 223.269 633.598 215.48 645.42C223.969 643.528 228.62 634.593 232.015 626.586C238.268 611.835 244.187 595.425 239.359 580.148C237.41 573.978 233.85 568.542 230.286 563.098C228.639 560.583 226.991 558.066 225.501 555.474C215.125 537.435 212.543 515.084 218.531 495.154C215.443 516.516 220.064 538.91 231.356 557.304C232.431 559.055 233.568 560.778 234.705 562.502L234.706 562.503L234.707 562.504C237.956 567.431 241.207 572.36 243.025 577.943C244.709 583.113 245.08 588.63 244.88 594.064C244.165 613.505 236.024 632.581 222.481 646.547C220.358 648.736 217.071 650.928 214.527 649.247C211.94 647.539 212.743 643.583 213.988 640.745C215.788 636.639 217.912 632.599 220.035 628.559C225.582 618.003 231.128 607.449 230.908 595.74C230.607 579.733 219.554 566.175 208.723 554.384L208.186 553.8C197.507 542.179 186.108 529.774 183.888 514.186C182.991 507.888 183.687 501.55 184.386 495.197C184.866 490.832 185.346 486.459 185.311 482.087C185.258 475.513 184.042 469.044 182.824 462.568C181.994 458.156 181.164 453.742 180.701 449.288C178.287 426.106 186.404 402.032 202.36 385.043C185.621 388.381 169.814 396.278 157.094 407.658C154.5 409.979 152.027 412.445 149.555 414.909L149.555 414.909C144.814 419.636 140.078 424.357 134.51 428.037C122.348 436.074 107.407 438.398 92.9858 440.53C92.0112 439.274 93.3171 437.553 94.5266 436.52L132.749 403.898C121.695 409.037 109.439 411.569 97.2528 411.233C98.9255 410.079 100.612 408.937 102.3 407.794L102.301 407.793L102.302 407.792L102.303 407.792L102.305 407.79L102.308 407.789L102.311 407.786C111.368 401.652 120.468 395.489 127.707 387.337C136.298 377.662 142.025 364.397 139.183 351.774C136.341 339.151 122.716 328.853 110.375 332.74C107.417 333.672 104.759 335.285 102.097 336.901C99.9882 338.181 97.8764 339.463 95.6101 340.409C100.167 322.67 119.304 312.51 137.421 309.823C146.175 308.524 155.047 308.451 163.917 308.378H163.917H163.917H163.917H163.917H163.917H163.917H163.918H163.918H163.918C173.404 308.299 182.887 308.221 192.219 306.644C182.594 312.55 171.107 312.131 159.538 311.709C154.051 311.509 148.546 311.308 143.212 311.781C126.803 313.235 111.133 321.699 100.92 334.624C110.699 324.633 129.308 328.255 137.295 339.729C145.282 351.204 143.889 367.315 137.031 379.498C130.172 391.681 118.757 400.597 107.026 408.202C125.328 405.73 142.514 395.817 153.817 381.212C139.27 402.924 120.437 421.751 98.7199 436.291ZM548.739 600.276C539.575 611.469 524.444 616.085 509.999 616.869C494.706 617.698 479.225 614.849 465.229 608.63C462.395 607.37 459.601 605.962 457.161 604.048C455.03 602.377 453.209 600.35 451.406 598.328C431.666 576.185 412.399 552.717 402.055 524.914C400.364 520.369 398.904 515.582 399.311 510.75C405.119 528.489 413.48 545.391 424.057 560.771C431.455 571.528 439.905 581.512 448.34 591.476C451.362 595.046 454.404 598.636 458.003 601.623C466.186 608.413 476.732 611.666 487.185 613.62C504.979 616.947 524.683 616.569 539.528 606.209C540.295 605.673 541.049 605.112 541.803 604.55L541.806 604.548C544.003 602.911 546.202 601.273 548.739 600.276ZM411.047 212.336C412.077 214.241 413.024 216.191 413.884 218.179C414.337 215.802 413.566 213.226 411.884 211.488L411.047 212.336ZM411.499 240.508C412.712 237.222 413.943 233.829 413.801 230.328C413.779 229.792 413.853 229.078 414.381 228.982C415.977 232.937 415.178 237.754 412.391 240.983L411.499 240.508ZM391.046 219.993C395.024 219.993 399.001 220.741 402.707 222.186C399.434 219.72 395.258 218.483 391.17 218.768C389.752 218.867 388.544 220.227 388.613 221.647C388.682 223.067 390.017 224.304 391.438 224.265C391.414 223.642 390.979 223.155 390.551 222.676C390.436 222.547 390.322 222.418 390.216 222.288C389.717 221.674 389.446 220.631 390.1 220.187C390.371 220.004 390.719 219.992 391.046 219.993ZM638.68 600.517C634.918 599.156 631.056 598.091 627.2 597.027L611.921 592.812C587.503 586.077 562.159 579.282 537.152 583.31C533.222 583.943 529.274 584.84 525.324 585.737C514.524 588.191 503.712 590.648 493.229 587.715C492.355 587.471 491.411 586.235 492.265 585.928C502.979 588.845 514.07 586.439 525.087 584.049C528.297 583.353 531.502 582.657 534.689 582.096C546.065 580.091 557.741 579.802 569.202 581.242C579.993 582.597 590.529 585.464 601.023 588.322L631.251 596.556C635.074 597.597 638.903 598.64 642.611 600.034C650.479 602.989 657.75 607.524 663.866 613.29C663.143 613.919 662.061 613.821 661.113 613.685C629.452 609.13 598.21 601.662 567.911 591.406C550.524 585.521 530.042 590.037 516.742 602.69C526.84 604.072 537.293 602.778 546.749 598.973C542.411 602.302 537.1 604.346 531.649 604.783C528.759 605.015 525.796 604.818 522.847 604.621C517.415 604.259 512.028 603.9 507.225 606.231L515.17 600.912C524.847 594.433 535.069 587.754 546.668 586.711C555.855 585.885 564.908 588.7 573.74 591.445C574.156 591.575 574.572 591.704 574.987 591.833C602.282 600.293 630.197 606.754 658.433 611.147C652.415 606.665 645.736 603.071 638.68 600.517ZM395.422 414.68C399.308 421.46 401.559 429.168 401.932 436.973C402.2 442.559 401.522 448.116 400.845 453.678C400.362 457.641 399.879 461.606 399.736 465.586C399.045 484.908 406.401 503.668 415.786 520.571C426.129 539.195 439.917 557.05 459.321 565.845C478.725 574.639 504.63 571.716 517.348 554.625C503.874 558.25 489.004 556.371 476.855 549.507C487.554 550.597 498.877 546.798 505.987 538.729C513.096 530.661 515.354 518.318 510.636 508.654C505.919 498.99 494.035 493.116 483.718 496.151C473.401 499.185 466.529 511.448 470.159 521.571C471.797 526.139 475.452 530.091 480.109 531.461C484.765 532.83 490.31 531.261 493.083 527.277C497.826 520.463 492.406 510.379 484.69 507.31C492.669 505.438 501.155 512.691 501.304 520.885C501.453 529.078 494.091 536.405 485.922 537.047C477.752 537.689 469.721 532.241 466.447 524.729C463.173 517.217 464.371 508.162 468.688 501.196C473.835 492.891 483.253 487.46 493.01 486.935C502.767 486.411 512.62 490.723 519.034 498.094C528.122 508.54 529.81 523.493 529.13 537.323C528.22 555.811 545.437 573.118 563.929 572.306C579.677 571.614 595.591 575.169 609.548 582.496C606.186 572.415 595.229 567.144 585.026 564.173C583.52 563.735 581.993 563.315 580.46 562.893L580.458 562.893L580.454 562.892C571.605 560.458 562.56 557.97 556.166 551.558C549.641 545.015 547.344 535.962 545.024 526.818C543.66 521.443 542.289 516.036 540.045 511.089C542.338 528.361 545.945 547.814 560.557 557.305C566.085 560.896 572.538 562.553 578.966 564.205L578.967 564.205C580.707 564.652 582.445 565.098 584.162 565.583C592.224 567.856 600.577 571.498 604.888 578.68C595.859 572.606 584.642 571.867 573.612 571.14L573.611 571.14L573.61 571.14C571.227 570.983 568.851 570.826 566.509 570.617C553.327 569.436 538.444 564.788 533.44 552.536C531.245 547.161 531.386 541.263 531.526 535.393V535.393C531.567 533.68 531.608 531.97 531.591 530.276C531.391 510.666 520.329 489.378 501.212 485.009C487.913 481.969 472.994 488.563 466.29 500.444C461.607 508.743 460.999 519.496 465.726 527.77C470.454 536.044 480.774 541.061 489.992 538.646C499.21 536.232 505.885 525.891 503.359 516.703C500.834 507.515 488.735 502.126 480.637 507.15C484.548 508.598 488.376 510.711 490.837 514.078C493.298 517.445 494.085 522.276 491.885 525.818C487.918 532.205 477.076 529.966 473.238 523.501C468.549 515.602 472.226 504.241 480.293 499.847C488.36 495.454 499.267 498.001 505.259 504.964C511.252 511.927 512.338 522.429 508.767 530.892C505.316 539.068 497.751 545.381 489.089 547.312C480.428 549.243 470.897 546.741 464.301 540.806C462.77 542.979 465.138 545.758 467.347 547.238C479.034 555.07 492.998 559.461 507.065 559.726C492.637 570.922 471.296 569.596 455.39 560.622C439.484 551.648 428.119 536.411 418.765 520.725C410.064 506.134 402.516 490.163 402.032 473.181C401.857 467.03 402.615 460.918 403.375 454.802C403.956 450.114 404.538 445.424 404.701 440.711C405.075 429.849 402.711 418.028 394.539 410.862C369.77 438.092 359.61 477.89 368.295 513.661C372.782 532.142 381.846 549.18 391.765 565.406C392.468 566.555 393.176 567.704 393.885 568.854C399.919 578.638 406.009 588.514 409.042 599.565C412.432 611.915 411.332 626.327 402.775 635.855C406.533 620.132 403.035 602.827 393.466 589.798C390.095 585.208 386.059 581.179 382.021 577.148C378.538 573.672 375.053 570.193 371.992 566.352C360.93 552.469 356.069 534.788 351.472 517.642C353.139 541.884 364.775 565.291 383.095 581.254C400.29 596.237 406.762 622.326 398.563 643.607C408.151 635.057 413.677 622.136 413.237 609.296C412.684 593.203 403.658 579.302 394.724 565.541C392.256 561.74 389.796 557.95 387.522 554.128C374.739 532.633 367.242 507.721 368.01 482.724C368.777 457.728 378.138 432.755 395.422 414.68Z" fill="#00160A"/>
</svg>
