<svg width="750" height="750" viewBox="0 0 750 750" fill="none" xmlns="http://www.w3.org/2000/svg">
<rect width="750" height="750" fill="none"/>
<path fill-rule="evenodd" clip-rule="evenodd" d="M262.227 673.375C322.796 652.616 381.997 610.65 486.088 627.498C590.179 644.347 662.074 506.987 623.595 439.601C606.505 417.839 594.372 389.155 623.595 343.275C650.912 256.744 598.364 202.416 549.913 176.833C501.462 151.25 383.444 98.0988 284.56 135.353C185.676 172.606 145.571 231.124 139.011 271.741C132.452 312.358 158.66 316.33 163.349 380.574C168.038 444.818 103.463 550.717 129.721 608.984C155.979 667.25 201.659 694.134 262.227 673.375Z" />
<path fill-rule="evenodd" clip-rule="evenodd" d="M535.279 616.374C533.126 613.175 529.567 611.278 526.294 609.238C517.905 604.012 510.663 597.168 503.516 590.341C488.624 576.118 473.867 561.754 459.245 547.253C455.564 543.602 451.869 539.916 448.903 535.663C442.107 525.923 433.445 517.491 423.526 510.959C422.112 510.028 420.586 509.107 418.894 509.037C416.881 508.954 415.04 510.084 413.366 511.206C400.362 519.929 388.766 530.746 379.162 543.113C377.976 544.641 376.758 546.403 376.979 548.324C377.143 549.744 378.069 550.944 378.965 552.057C390.232 566.053 402.364 579.352 415.268 591.853C418.771 595.246 422.341 598.591 425.446 602.352C429.736 607.547 433.07 613.452 436.923 618.98C454.711 644.5 483.136 661.126 512.946 670.017C516.626 671.114 520.467 672.115 524.265 671.55C532.723 670.291 538.492 660.037 535.175 652.154C532.801 646.511 534.577 640.09 536.09 634.158C537.603 628.226 538.696 621.454 535.279 616.374Z" fill="white"/>
<path fill-rule="evenodd" clip-rule="evenodd" d="M540.899 464.697C543.987 457.853 551.257 453.113 558.765 453.048C562.426 453.016 566.012 453.997 569.543 454.969C585.067 459.247 600.592 463.525 616.117 467.803C620.158 468.916 624.277 470.065 627.757 472.4C631.237 474.736 634.029 478.507 634.083 482.698C634.119 485.446 633.001 488.071 631.753 490.52C630.05 493.86 627.968 497.159 624.845 499.234C618.53 503.43 610.137 501.479 602.851 499.38C585.908 494.5 568.941 489.613 552.473 483.313C547.134 481.27 541.184 478.343 539.82 472.792C539.158 470.099 539.758 467.225 540.899 464.697Z" fill="white"/>
<path fill-rule="evenodd" clip-rule="evenodd" d="M329.27 602.711C336.207 599.012 345.968 602.447 349.061 609.675C351.086 614.41 350.413 619.81 349.703 624.911C347.813 638.488 345.923 652.066 344.034 665.643C343.646 668.428 343.255 671.228 342.423 673.915C340.829 679.06 337.458 683.797 332.669 686.262C327.879 688.727 321.639 688.58 317.41 685.245C314.242 682.746 312.482 678.793 311.853 674.808C311.224 670.822 311.612 666.753 312.052 662.742C313.49 649.618 315.473 636.555 317.994 623.596C319.558 615.553 322.039 606.566 329.27 602.711Z" fill="white"/>
<path fill-rule="evenodd" clip-rule="evenodd" d="M163.255 332.483C162.481 331.463 163.804 330.179 164.941 329.59C177.975 322.839 191.156 316.37 204.471 310.192C207.95 308.577 211.496 306.964 215.288 306.384C219.08 305.803 223.215 306.376 226.214 308.768C229.769 311.602 231.109 316.423 231.33 320.964C231.513 324.716 230.956 328.764 228.441 331.554C227.286 332.836 225.797 333.761 224.323 334.658C210.732 342.936 196.644 350.397 182.16 356.989C177.778 358.983 172.724 360.912 168.303 359.007C166.644 358.292 165.237 357.082 164.057 355.714C158.588 349.373 158.236 339.186 163.255 332.483Z" fill="white"/>
<path fill-rule="evenodd" clip-rule="evenodd" d="M293.309 201.489C292.496 207.958 295.483 214.766 300.795 218.547C303.302 220.332 304.226 223.742 303.828 226.794C303.43 229.846 301.933 232.632 300.405 235.304C299.26 237.308 298.028 239.353 296.149 240.694C294.271 242.035 291.566 242.493 289.673 241.174C282.407 236.111 272.562 238.089 263.98 240.27C261.134 240.993 258.367 239.04 256.078 237.202C253.173 234.87 250.268 232.538 247.362 230.206C246.319 229.368 245.246 228.495 244.634 227.306C243.876 225.83 243.932 224.078 244.12 222.43C245.06 214.178 248.787 206.518 252.846 199.273C257.039 191.787 262.905 183.737 271.461 183.102C273.693 182.936 276.161 183.434 277.575 185.169C280.084 188.249 283.959 189.794 287.305 191.936C290.651 194.078 293.805 197.547 293.309 201.489Z" fill="white"/>
<path fill-rule="evenodd" clip-rule="evenodd" d="M242.894 219.536C240.373 221.768 236.72 222.36 233.393 221.844C230.066 221.328 226.98 219.832 223.986 218.292C208.246 210.195 193.412 200.341 179.848 188.971C178.807 188.099 177.754 187.195 177.063 186.026C176.25 184.653 176.001 183.025 175.844 181.437C174.17 164.496 181.879 146.925 195.479 136.685C201.024 132.51 208.947 129.577 214.69 133.476C227.797 142.376 240.637 151.669 253.188 161.337C258.674 165.564 264.225 169.996 267.805 175.924C269.035 177.962 269.922 180.824 268.255 182.523C266.184 176.102 234.458 220.099 242.894 219.536Z" fill="white"/>
<path fill-rule="evenodd" clip-rule="evenodd" d="M148.979 636.822C142.06 639.326 132.73 636.449 130.855 629.335C127.721 617.439 144.997 611.359 151.451 600.886C159.112 588.456 149.929 572.757 140.906 561.278C134.504 566.63 125.178 572.131 118.584 567.017C110.599 560.824 117.318 547.878 125.461 541.894C140.066 531.163 158.743 526.122 176.764 528.05C181.352 493.88 198.905 461.611 225.099 439.194C251.293 416.777 285.886 404.418 320.354 405.163C316.501 338.331 355.248 270.932 414.942 240.632C421.422 237.343 428.36 234.408 435.626 234.451C442.893 234.495 450.565 238.194 453.323 244.917C456.081 251.64 451.805 260.867 444.564 261.481C441.191 261.767 411.93 272.184 414.942 271.526C453.323 263.133 545.192 330.084 594.652 330.084C599.092 330.084 610.618 313.71 613.742 311.521C616.611 309.511 624.509 308.373 627.961 308.966C636.961 310.513 636.33 323.803 632.458 332.074C609.369 381.406 557.64 412.449 504.463 424.239C451.287 436.03 396.015 431.369 341.752 426.65C337.997 465.458 332.695 507.662 304.929 535.034C278.531 561.057 236.777 566.779 201.041 556.933C201.041 551.569 201.041 551.569 201.346 536.883C195.147 567.368 182.685 596.566 164.96 622.132C160.768 628.178 155.897 634.319 148.979 636.822Z" fill="white"/>
<path d="M523.611 164.062C521.416 166.92 519.221 169.778 517.027 172.636C515.842 174.178 513.523 175.799 512.261 174.318C510.053 171.725 505.971 172.456 502.636 171.766C500.476 171.319 498.522 170.206 496.609 169.108C468.949 153.241 441.289 137.374 413.629 121.507C411.443 120.254 409.076 118.78 408.352 116.366C414.667 105.314 425.327 90.0883 425.936 90.4563C432.57 95.2368 439.324 99.8511 446.189 104.293C467.97 118.386 490.83 130.722 513.069 144.079C515.233 145.379 517.605 146.992 518.008 149.484C518.319 151.403 516.911 156.155 518.24 155.235C518.955 154.74 519.923 155.185 520.67 155.631C522.928 156.981 525.519 159.036 524.972 161.609C524.776 162.532 524.185 163.314 523.611 164.062Z" fill="white"/>
<path fill-rule="evenodd" clip-rule="evenodd" d="M408.714 274.258C410.283 274.001 411.701 272.951 412.405 271.526C424.074 272.679 435.642 274.859 446.93 278.034C472.477 285.22 496.318 297.398 519.511 310.295C543.266 323.506 569.955 331.405 597.073 333.251C597.279 334.733 596.028 336.103 594.604 336.564C593.181 337.024 591.637 336.801 590.158 336.573C567.676 333.112 544.493 329.4 525.198 317.352C505.508 305.058 484.594 294.727 462.866 286.56C457.261 284.454 451.599 282.49 445.849 280.82C433.754 277.307 421.28 275.103 408.714 274.258Z" fill="#00160A"/>
<path fill-rule="evenodd" clip-rule="evenodd" d="M540.899 464.697C543.987 457.853 551.257 453.113 558.765 453.048C562.426 453.016 566.012 453.997 569.543 454.969C585.067 459.247 600.592 463.525 616.117 467.803C620.158 468.916 624.277 470.065 627.757 472.4C631.237 474.736 634.029 478.507 634.083 482.698C634.119 485.446 633.001 488.071 631.753 490.52C630.05 493.86 627.968 497.159 624.845 499.234C618.53 503.43 610.137 501.479 602.851 499.38C585.908 494.5 568.941 489.613 552.473 483.313C547.134 481.27 541.184 478.343 539.82 472.792C539.158 470.099 539.758 467.225 540.899 464.697ZM580.702 483.639C580.241 486.817 580.898 491.039 584.046 491.671C591.699 493.208 599.279 495.107 606.752 497.361C611.521 498.799 616.74 500.369 621.338 498.453C624.79 497.015 627.192 493.863 629.233 490.73C631.558 487.161 633.668 482.553 631.597 478.831C630.213 476.343 627.371 475.108 624.713 474.089C614.514 470.181 604.054 466.952 593.427 464.431C590.264 463.681 587.455 466.566 585.784 469.355C583.17 473.719 581.432 478.605 580.702 483.639Z" fill="#00160A"/>
<path fill-rule="evenodd" clip-rule="evenodd" d="M255.864 167.084C255.078 166.623 254.228 166.19 253.317 166.183C252.334 166.175 251.423 166.661 250.573 167.153C234.224 176.608 222.418 193.559 219.217 212.171C225.846 217.42 234.458 220.099 242.894 219.536C240.373 221.768 236.72 222.36 233.393 221.844C230.066 221.328 226.98 219.832 223.986 218.292C208.246 210.195 193.412 200.341 179.848 188.971C178.807 188.099 177.754 187.195 177.063 186.026C176.25 184.653 176.001 183.025 175.844 181.437C174.17 164.496 181.879 146.925 195.479 136.685C201.024 132.51 208.947 129.577 214.69 133.476C227.797 142.376 240.637 151.669 253.188 161.337C258.674 165.564 264.225 169.996 267.805 175.924C269.035 177.962 269.922 180.824 268.255 182.523C266.184 176.102 261.685 170.496 255.864 167.084ZM186.311 149.519C184.446 151.985 182.601 154.508 181.403 157.359C180.035 160.613 179.566 164.163 179.11 167.664C178.286 173.977 177.657 181.057 181.583 186.07C182.988 187.864 184.867 189.217 186.718 190.545C194.992 196.48 203.266 202.414 211.539 208.349C212.528 209.058 213.571 209.79 214.777 209.951C215.984 210.112 217.389 209.488 217.672 208.305C221.979 190.276 233.936 174.208 249.967 164.904C250.992 164.309 250.129 162.753 249.225 161.987C241.159 155.155 232.59 148.916 223.611 143.336C223.11 143.025 222.581 142.707 221.992 142.67C221.233 142.622 220.534 143.048 219.895 143.461C212 148.573 204.415 154.38 198.586 161.762C192.757 169.143 188.769 178.26 188.82 187.666C188.397 188.423 187.347 187.398 187.207 186.541C186.068 179.573 189.016 172.574 192.73 166.569C199.182 156.133 208.179 147.284 218.72 141.006C215.574 135.091 207.234 133.661 201.036 136.207C194.839 138.752 190.353 144.175 186.311 149.519V149.519Z" fill="#00160A"/>
<path fill-rule="evenodd" clip-rule="evenodd" d="M349.061 609.675C351.086 614.41 350.413 619.81 349.703 624.911L344.034 665.643C343.646 668.428 343.255 671.228 342.423 673.915C340.829 679.06 337.458 683.797 332.669 686.262C327.879 688.727 321.639 688.58 317.41 685.245C314.242 682.746 312.482 678.793 311.853 674.808C311.224 670.822 311.612 666.753 312.052 662.742C313.49 649.618 315.473 636.555 317.994 623.596L318.156 622.775C319.732 614.949 322.284 606.435 329.27 602.711C336.207 599.012 345.968 602.447 349.061 609.675ZM319.085 645.212L319.086 645.193C318.61 645.438 318.121 645.704 317.618 645.99C317.048 649.587 316.542 653.193 316.128 656.812C315.565 661.738 315.174 666.686 315.034 671.642L315.019 672.309C314.995 673.984 315.095 675.696 315.905 677.144C317.134 679.341 319.692 680.407 322.131 681.029C326.022 682.022 330.414 682.208 333.796 680.043C337.881 677.427 339.338 672.232 340.259 667.47C341.109 663.077 341.776 658.649 342.258 654.201L342.318 653.606C342.448 652.212 342.47 650.775 341.85 649.536C341.28 648.396 340.234 647.572 339.16 646.885C338.817 646.664 338.466 646.455 338.11 646.256C335.359 645.28 335.359 643.777 329.806 643.652C326.164 643.57 322.446 643.777 319.085 645.212Z" fill="#00160A"/>
<path fill-rule="evenodd" clip-rule="evenodd" d="M163.255 332.483C162.481 331.463 163.804 330.179 164.941 329.59C177.975 322.839 191.156 316.37 204.471 310.192C207.95 308.577 211.496 306.964 215.288 306.384C219.08 305.803 223.215 306.376 226.214 308.768C229.769 311.602 231.109 316.423 231.33 320.964C231.513 324.716 230.956 328.764 228.441 331.554C227.286 332.836 225.797 333.761 224.323 334.658C210.732 342.936 196.644 350.397 182.16 356.989C177.778 358.983 172.724 360.912 168.303 359.007C166.644 358.292 165.237 357.082 164.057 355.714C158.588 349.373 158.236 339.186 163.255 332.483ZM227.394 314.492C226.417 311.803 223.867 309.874 221.094 309.167C218.321 308.46 215.363 308.848 212.645 309.742C210.602 310.414 208.662 311.361 206.73 312.305C203.386 313.939 200.042 315.573 196.699 317.208C195.676 317.707 194.61 318.243 193.954 319.173C193.489 319.832 193.273 320.631 193.067 321.41C192.266 324.431 191.459 327.57 192.011 330.646C192.826 335.194 196.401 338.667 199.788 341.81C200.43 342.406 201.116 343.025 201.972 343.214C203.108 343.464 204.249 342.899 205.276 342.351C210.056 339.804 214.835 337.257 219.615 334.709C223.299 332.746 227.268 330.47 228.753 326.57C230.227 322.697 228.809 318.387 227.394 314.492Z" fill="#00160A"/>
<path fill-rule="evenodd" clip-rule="evenodd" d="M387.499 70.9693C387.992 70.2345 389.009 70.0058 389.875 70.1912C390.74 70.3767 391.492 70.8936 392.218 71.3992C397.341 74.9648 402.464 78.5305 407.587 82.0961C408.444 82.6927 409.373 83.398 409.546 84.4279C409.171 85.2647 407.91 84.8684 407.152 84.3523C400.601 79.8913 394.05 75.4303 387.499 70.9693Z" fill="#00160A"/>
<path fill-rule="evenodd" clip-rule="evenodd" d="M451.191 125.633C450.408 125.527 450.612 124.333 451.031 123.663C452.599 121.158 454.168 118.654 455.736 116.149C456.286 116.251 456.213 117.064 455.987 117.575C454.718 120.439 453.104 123.151 451.191 125.633Z" fill="#00160A"/>
<path fill-rule="evenodd" clip-rule="evenodd" d="M378.212 541.115C387.697 530.143 398.35 520.182 409.933 511.454C412.611 509.436 415.532 507.41 418.877 507.18C424.187 506.814 428.607 510.967 432.285 514.815C441.962 524.941 451.64 535.066 461.317 545.192C472.731 557.134 484.151 569.082 496.134 580.452C508.971 592.631 522.498 604.178 537.412 613.701C541.98 616.618 542.331 623.241 540.854 628.456C539.376 633.671 536.582 638.654 536.63 644.074C536.65 646.368 537.186 648.621 537.538 650.889C538.558 657.469 537.894 664.607 534.099 670.078C530.303 675.55 522.858 678.762 516.67 676.301C492.61 666.731 467.895 656.748 449.237 638.794C444.602 634.334 440.409 629.44 436.224 624.555C416.561 601.6 396.899 578.646 377.236 555.691C375.948 554.188 374.616 552.599 374.199 550.664C373.444 547.158 375.867 543.828 378.212 541.115M535.279 616.374C533.126 613.174 529.568 611.278 526.294 609.238C517.905 604.012 510.664 597.168 503.516 590.341C488.625 576.118 473.867 561.754 459.246 547.253C455.564 543.601 451.87 539.916 448.903 535.663C442.108 525.923 433.446 517.491 423.527 510.959C422.112 510.028 420.586 509.107 418.894 509.037C416.881 508.954 415.04 510.084 413.367 511.206C400.362 519.929 388.766 530.746 379.162 543.113C377.976 544.641 376.758 546.403 376.98 548.324C377.143 549.744 378.069 550.944 378.966 552.057C390.232 566.053 402.364 579.352 415.269 591.853C418.771 595.246 422.341 598.591 425.446 602.352C429.736 607.547 433.07 613.452 436.923 618.979C454.711 644.5 483.136 661.126 512.947 670.016C516.626 671.114 520.467 672.115 524.265 671.55C532.724 670.291 538.492 660.037 535.175 652.154C532.801 646.511 534.577 640.09 536.09 634.158C537.603 628.226 538.696 621.454 535.279 616.374Z" fill="#00160A"/>
<path fill-rule="evenodd" clip-rule="evenodd" d="M438.759 107.197C437.658 109.246 436.556 111.295 435.455 113.343C435.024 110.382 436.988 107.661 438.843 105.314C439.368 105.752 439.083 106.595 438.759 107.197L438.759 107.197Z" fill="#00160A"/>
<path fill-rule="evenodd" clip-rule="evenodd" d="M444.814 114.05C445.044 116.195 444.113 118.429 442.428 119.775C442.235 117.633 443.157 115.421 444.814 114.05L444.814 114.05Z" fill="#00160A"/>
<path fill-rule="evenodd" clip-rule="evenodd" d="M473.234 127.031C472.88 129.265 471.75 131.37 470.084 132.9C469.396 133.532 468.608 134.074 467.72 134.366C467.375 133.923 467.757 133.297 468.126 132.875C469.829 130.927 471.532 128.979 473.234 127.031Z" fill="#00160A"/>
<path fill-rule="evenodd" clip-rule="evenodd" d="M460.626 127.772C460.916 126.801 461.427 125.897 462.107 125.147C462.792 125.045 462.719 126.181 462.335 126.756C461.717 127.68 461.099 128.604 460.482 129.529C459.822 129.199 459.826 128.069 460.488 127.744L460.626 127.772Z" fill="#00160A"/>
<path fill-rule="evenodd" clip-rule="evenodd" d="M491.488 139.159C491.035 140.287 490.01 141.167 488.827 141.445C489.734 139.994 490.641 138.543 491.548 137.092C491.966 137.701 491.941 138.58 491.489 139.164L491.488 139.159Z" fill="#00160A"/>
<path fill-rule="evenodd" clip-rule="evenodd" d="M504.584 148.587C504.737 148.026 505.384 147.654 505.946 147.802C505.557 148.92 505.001 149.98 504.303 150.936C503.624 150.339 503.751 149.076 504.535 148.627L504.584 148.587Z" fill="#00160A"/>
<path fill-rule="evenodd" clip-rule="evenodd" d="M293.309 201.489C292.496 207.958 295.483 214.766 300.795 218.547C303.302 220.332 304.226 223.742 303.828 226.794C303.43 229.846 301.933 232.632 300.405 235.304C299.26 237.308 298.028 239.353 296.149 240.694C294.271 242.035 291.566 242.493 289.673 241.174C282.407 236.111 272.562 238.089 263.98 240.27C261.134 240.993 258.367 239.04 256.078 237.202C253.173 234.87 250.268 232.538 247.362 230.206C246.319 229.368 245.246 228.495 244.634 227.306C243.876 225.83 243.932 224.078 244.12 222.43C245.06 214.178 248.787 206.518 252.846 199.273C257.039 191.787 262.905 183.737 271.461 183.102C273.693 182.936 276.161 183.434 277.575 185.169C280.084 188.249 283.959 189.794 287.305 191.936C290.651 194.078 293.805 197.547 293.309 201.489ZM258.39 200.891C257.702 200.526 256.907 200.151 256.175 200.418C255.697 200.593 255.355 201.009 255.045 201.412C251.269 206.31 248.481 211.965 246.894 217.941C246.399 219.804 246.029 221.827 246.733 223.621C247.29 225.039 248.445 226.123 249.565 227.156C252.091 229.486 254.618 231.816 257.144 234.147C258.884 235.751 261.037 237.477 263.346 236.958C271.727 235.074 280.892 233.271 288.588 237.087C291.773 238.666 295.799 236.995 298.025 234.224C300.251 231.452 301.106 227.857 301.9 224.392C295.671 219.657 290.943 212.976 288.548 205.527C288.214 204.487 286.634 205.137 285.883 205.931C281.698 210.359 277.512 214.787 273.326 219.215C270.55 222.151 267.559 225.789 268.39 229.743C268.617 230.823 266.779 231.288 266.074 230.439C265.368 229.589 265.568 228.327 265.889 227.271C268.875 217.428 278.239 211.203 285.03 203.478C286.355 201.97 287.664 200.17 287.494 198.17C287.315 196.068 285.577 194.485 283.959 193.132C280.836 190.522 277.555 187.854 273.607 186.864C269.659 185.874 264.848 187.082 262.944 190.68C268.989 193.469 274.841 196.68 280.441 200.28C281.235 200.791 282.058 201.975 281.271 202.496C276.505 199.837 271.739 197.178 266.973 194.519C265.49 193.692 263.953 192.847 262.264 192.672C260.574 192.498 258.675 193.17 257.927 194.695C256.965 196.658 258.317 199.07 260.154 200.254C261.992 201.438 264.219 201.817 266.243 202.643C269.206 203.852 271.748 206.066 273.352 208.835C268.364 206.187 263.377 203.539 258.39 200.891Z" fill="#00160A"/>
<path fill-rule="evenodd" clip-rule="evenodd" d="M495.61 148.379C495.419 149.051 494.857 149.604 494.182 149.785C494.419 147.859 495.551 146.063 497.186 145.019C497.223 146.272 496.564 147.524 495.509 148.202L495.61 148.379Z" fill="#00160A"/>
<path fill-rule="evenodd" clip-rule="evenodd" d="M479.792 138.385C479.494 139.055 478.814 139.539 478.083 139.602C478.246 138.356 478.754 137.157 479.534 136.172C479.84 135.786 480.228 135.411 480.717 135.357C481.206 135.303 481.754 135.745 481.625 136.22C480.989 136.909 480.354 137.598 479.719 138.286L479.792 138.385Z" fill="#00160A"/>
<path fill-rule="evenodd" clip-rule="evenodd" d="M378.044 298.921C378.173 299.275 377.558 299.581 377.354 299.263C377.234 298.932 377.322 298.534 377.572 298.285C377.755 298.468 377.939 298.652 378.123 298.836L378.044 298.921Z" fill="#00160A"/>
<path fill-rule="evenodd" clip-rule="evenodd" d="M524.477 173.052C525.417 172.451 526.382 171.826 527.019 170.91C527.657 169.994 527.892 168.704 527.287 167.766C526.135 167.616 525.066 166.922 524.461 165.93C524.435 165.335 525.04 164.798 525.627 164.894C526.761 165.39 527.942 165.921 528.711 166.891C529.48 167.861 529.67 169.411 528.787 170.278C537.382 176.188 545.977 182.098 554.572 188.007C554.055 188.387 553.33 188.146 552.747 187.881C545.071 184.394 538.607 178.767 531.59 174.095C529.961 173.011 527.525 172.074 526.289 173.59C524.633 175.62 520.78 174.926 519.936 172.447C519.778 171.521 521.339 171.468 522.057 172.074C522.775 172.68 523.685 173.558 524.477 173.052Z" fill="#00160A"/>
<path fill-rule="evenodd" clip-rule="evenodd" d="M509.57 616.224C511.108 614.222 512.688 612.253 514.31 610.318C514.788 609.748 515.278 609.173 515.901 608.765C518.273 607.213 521.419 608.618 523.789 610.173C526.404 611.888 528.897 613.789 531.243 615.857C533.187 617.57 535.119 619.555 535.65 622.09C536.181 624.626 534.655 627.738 532.074 627.961C530.491 630.831 528.234 633.325 525.535 635.185C524.004 636.241 521.908 635.591 520.245 634.758C515.48 632.372 511.365 628.701 508.453 624.237C507.988 623.525 507.546 622.774 507.378 621.94C506.962 619.874 508.286 617.896 509.57 616.224ZM525.197 634.004C526.616 631.985 528.035 629.965 529.453 627.946C528.088 626.33 525.597 626.327 523.81 625.196C522.833 624.577 522.104 623.643 521.396 622.728C519.322 620.047 517.248 617.366 515.175 614.686C513.445 616.494 511.839 618.42 510.372 620.446C510.158 620.742 509.94 621.058 509.902 621.421C509.859 621.836 510.058 622.234 510.262 622.598C513.4 628.226 518.942 632.458 525.197 634.004ZM522.556 611.526C521.229 610.615 519.177 609.804 518.243 611.116C517.676 611.913 517.97 613.016 518.346 613.919C520.427 618.921 524.479 623.072 529.429 625.274C530.85 625.906 533.01 626.083 533.492 624.604C533.671 624.057 533.521 623.459 533.332 622.915C531.593 617.886 526.943 614.539 522.556 611.526Z" fill="#00160A"/>
<path fill-rule="evenodd" clip-rule="evenodd" d="M400.429 545.523C399.59 546.738 398.751 547.954 397.913 549.169C397.118 550.321 396.296 551.546 396.192 552.942C396.1 554.189 396.598 555.4 397.15 556.523C399.579 561.455 403.285 565.752 407.808 568.879C406.562 570.416 404.071 569.516 402.491 568.324C398.316 565.174 395.169 560.683 393.632 555.684C393.257 554.462 392.973 553.182 393.112 551.911C393.402 549.265 395.42 547.184 397.325 545.325C399.635 543.071 402.308 540.665 405.535 540.711C407.657 540.742 409.609 541.859 411.3 543.14C416.178 546.836 419.895 552.854 418.813 558.877C418.547 560.357 417.436 562.106 415.99 561.694C410.731 560.195 406.061 556.718 403.118 552.11C402.498 551.14 401.904 550.074 400.897 549.518C400.867 548.175 400.71 546.836 400.429 545.523ZM405.379 544.775C404.008 545.638 403.845 547.626 404.364 549.16C405.759 553.279 410.375 555.242 413.218 558.532C413.586 558.959 413.962 559.435 414.504 559.589C415.326 559.822 416.192 559.167 416.489 558.365C416.786 557.563 416.658 556.673 416.498 555.833C416.037 553.414 415.327 551.003 414.002 548.927C412.676 546.852 410.675 545.128 408.287 544.526C407.317 544.281 406.226 544.242 405.379 544.775Z" fill="#00160A"/>
<path fill-rule="evenodd" clip-rule="evenodd" d="M498.024 584.749C498.993 585.221 499.506 586.279 499.948 587.261C500.614 588.742 501.279 590.222 501.945 591.702C502.224 592.321 502.507 592.96 502.532 593.638C502.569 594.652 502.048 595.777 502.618 596.617C499.942 598.735 497.431 601.06 495.112 603.564C494.481 604.245 493.831 604.964 492.966 605.303C491.345 605.937 489.543 605.056 488.12 604.054C484.771 601.696 482.008 598.511 480.149 594.861C479.202 593 478.624 590.415 480.231 589.081C480.748 588.652 480.916 587.944 481.107 587.298C481.997 584.288 484.072 581.646 486.785 580.067C487.178 579.838 487.6 579.626 488.055 579.609C488.45 579.594 488.834 579.728 489.207 579.86C491.19 580.563 493.174 581.266 495.157 581.968C495.988 582.263 496.991 582.82 496.869 583.693C496.792 584.251 497.517 584.503 498.024 584.749M483.088 586.457C482.159 588.437 481.228 590.626 481.774 592.743C481.987 593.567 482.414 594.319 482.883 595.03C484.594 597.622 486.93 599.799 489.636 601.323C491.379 602.304 493.715 602.959 495.256 601.685C496.441 600.705 496.824 598.802 498.275 598.294C499.046 598.025 499.093 596.856 498.565 596.234C498.036 595.612 497.195 595.38 496.424 595.112C492.124 593.613 488.657 589.917 487.436 585.53C487.327 585.139 487.227 584.728 486.968 584.414C486.407 583.738 485.289 583.804 484.577 584.319C483.865 584.833 483.461 585.662 483.088 586.457M499.927 593.588C501.055 591.461 499.283 589.003 497.629 587.253C496.619 586.185 495.609 585.116 494.6 584.048C493.835 583.239 493.013 582.394 491.938 582.102C490.863 581.81 489.485 582.334 489.274 583.428C489.183 583.899 489.318 584.382 489.476 584.835C491.048 589.339 495.217 592.831 499.927 593.588H499.927Z" fill="#00160A"/>
<path fill-rule="evenodd" clip-rule="evenodd" d="M476.43 608.765C479.915 609.371 482.592 612.089 485.016 614.665C485.993 615.703 486.981 616.758 487.653 618.015C489.24 620.987 488.807 624.712 487.352 627.751C485.896 630.789 483.54 633.288 481.221 635.732C479.847 637.18 478.158 638.749 476.177 638.512C475.441 638.424 474.76 638.086 474.111 637.729C468.31 634.538 463.659 629.306 461.17 623.171C460.843 622.365 460.547 621.502 460.672 620.641C460.794 619.797 461.304 619.066 461.8 618.372C463.592 615.858 465.417 613.309 467.835 611.391C470.254 609.473 473.389 608.236 476.43 608.765M464.873 619.463C463.952 620.398 462.874 621.4 462.829 622.712C462.808 623.305 463.011 623.883 463.245 624.428C465.417 629.508 470.223 632.879 474.797 635.977C475.095 636.179 475.413 636.388 475.773 636.411C476.17 636.436 476.543 636.23 476.878 636.013C478.535 634.94 479.895 633.477 481.238 632.03C481.91 631.306 482.613 630.518 482.757 629.541C482.9 628.563 482.181 627.404 481.197 627.492C479.135 627.677 477.144 626.618 475.585 625.256C472.841 622.86 471.038 619.415 470.634 615.795C470.495 614.547 470.462 613.154 469.582 612.258C468.511 614.94 466.9 617.405 464.873 619.463ZM475.521 611.769C474.652 611.702 473.717 611.841 473.058 612.41C471.543 613.717 472.365 616.2 473.472 617.868C475.153 620.399 477.255 622.649 479.666 624.497C480.58 625.197 481.568 625.854 482.693 626.095C483.818 626.337 485.111 626.085 485.857 625.209C486.607 624.329 486.647 623.015 486.27 621.922C485.894 620.829 485.165 619.9 484.472 618.974C482.101 615.802 479.469 612.074 475.521 611.769L475.521 611.769Z" fill="#00160A"/>
<path fill-rule="evenodd" clip-rule="evenodd" d="M442.63 604.636C441.337 605.625 439.529 605.744 437.97 605.277C436.41 604.81 435.058 603.826 433.825 602.763C430.822 600.172 428.327 596.995 426.523 593.463C425.562 591.581 424.781 589.516 424.935 587.408C425.166 584.255 427.406 581.646 429.668 579.437C430.73 578.4 431.895 577.354 433.344 577.028C434.757 576.709 436.23 577.125 437.575 577.662C444.393 580.384 449.766 586.479 451.612 593.584C450.604 598.333 446.485 601.685 442.63 604.636ZM437.395 601.614C438.863 602.483 440.618 603.224 442.235 602.68C443.836 602.142 444.789 600.512 445.391 598.934C443.537 596.763 440.752 595.63 438.598 593.757C434.77 590.427 433.337 585.191 432.092 580.273C429.984 582.022 428.302 584.28 427.229 586.8C426.921 587.525 426.658 588.301 426.742 589.084C426.802 589.647 427.038 590.174 427.287 590.682C429.504 595.2 433.064 599.05 437.395 601.614ZM433.811 582.198C433.729 582.969 434.109 583.706 434.499 584.376C436.866 588.443 440.025 592.047 443.747 594.925C444.883 595.803 446.445 596.637 447.668 595.884C448.396 595.435 448.732 594.539 448.804 593.686C448.997 591.391 447.671 589.267 446.314 587.406C444.291 584.633 441.944 581.9 438.766 580.603C437.831 580.222 436.799 579.974 435.814 580.192C434.828 580.41 433.918 581.195 433.811 582.198V582.198Z" fill="#00160A"/>
<path fill-rule="evenodd" clip-rule="evenodd" d="M368.663 81.0337C367.257 82.8868 366.092 86.0365 368.168 87.0867C369.796 87.9103 371.557 86.312 372.684 84.8769C377.102 79.2481 381.521 73.6192 385.939 67.9904C387.017 69.9106 385.783 72.2611 384.579 74.1049C381.238 79.221 377.704 84.5235 372.409 87.5733C381.529 92.0595 390.226 97.4035 398.349 103.512C401.825 102.194 404.712 99.3968 406.138 95.9639C405.149 96.9066 403.536 96.1975 402.39 95.4536C395.172 90.7667 388.104 85.8476 381.202 80.7065C381.688 79.3953 383.66 79.9637 384.814 80.753C391.21 85.1267 397.606 89.5003 404.002 93.8739C405.565 94.9428 407.499 93.2118 408.591 91.665C410.989 88.2708 413.386 84.8766 415.783 81.4824C416.664 80.2352 417.626 78.9232 419.049 78.37C421.478 77.4256 424.088 79.0343 426.197 80.5659C426.816 81.015 427.465 81.5032 427.741 82.2161C428.218 83.4492 427.407 84.7735 426.635 85.8468C419.125 96.2889 411.614 106.731 404.103 117.173C403.762 117.648 403.405 118.136 402.897 118.426C401.601 119.167 399.966 118.316 398.886 117.285C397.359 115.827 395.05 113.396 396.395 110.951C397.74 108.506 397.796 108.397 398.927 106.532C389.395 99.2926 379.463 91.863 367.776 89.278C365.785 88.8375 364.702 86.5005 364.938 84.4749C365.175 82.4494 366.372 80.6827 367.534 79.0066C370.293 75.0256 373.052 71.0447 375.812 67.0638C376.521 66.04 377.247 64.9989 378.234 64.2385C380.029 62.8547 382.627 62.6043 384.653 63.6197C386.68 64.6351 388.035 66.8658 388.001 69.1323C386.778 67.9361 385.504 66.7067 383.897 66.1195C382.29 65.5324 380.248 65.7695 379.214 67.1322C375.697 71.766 372.18 76.3999 368.663 81.0337ZM397.424 111.773C397.424 113.869 399.049 115.01 400.284 115.487C401.519 115.964 403.118 115.775 403.886 114.696C410.659 105.179 417.433 95.6624 424.206 86.1457C424.501 85.7305 424.803 85.3034 424.933 84.8107C425.211 83.7563 424.622 82.6264 423.769 81.9475C422.915 81.2687 421.841 80.9461 420.795 80.6381C420.323 80.4992 419.802 80.3632 419.355 80.5687C419.054 80.7074 418.84 80.9804 418.638 81.2438C412.973 88.6407 407.57 96.2384 402.442 104.018C402.24 103.625 398.805 108.594 397.424 111.773Z" fill="#00160A"/>
<path fill-rule="evenodd" clip-rule="evenodd" d="M296.557 224.262C296.333 225.716 295.135 226.782 294.183 227.902C292.097 230.356 291.005 233.478 289.957 236.523C288.724 235.179 288.526 233.131 288.996 231.368C289.465 229.606 290.504 228.058 291.526 226.548C292.114 225.679 292.728 224.785 293.62 224.234C294.512 223.684 295.767 223.573 296.557 224.262L296.557 224.262Z" fill="#00160A"/>
<path fill-rule="evenodd" clip-rule="evenodd" d="M523.611 164.062C521.416 166.92 519.221 169.778 517.027 172.636C515.842 174.178 513.523 175.799 512.261 174.318C510.053 171.725 505.971 172.456 502.636 171.766C500.476 171.319 498.522 170.206 496.609 169.108C468.949 153.241 441.289 137.374 413.629 121.508C411.443 120.254 409.076 118.78 408.352 116.366C437.94 132.24 467.032 149.038 495.572 166.727C499.072 168.896 503.9 170.996 506.928 168.204C507.797 167.403 508.333 166.312 508.849 165.248C511.51 159.763 514.171 154.278 516.831 148.793C486.951 129.578 454.339 114.597 425.963 93.2233C425.395 92.7952 424.785 92.2959 424.671 91.5936C424.557 90.8913 425.327 90.0883 425.936 90.4563C432.57 95.2369 439.324 99.8511 446.189 104.293C467.97 118.386 490.83 130.722 513.069 144.079C515.233 145.379 517.605 146.992 518.008 149.484C518.319 151.403 517.345 153.271 516.404 154.972C514.466 158.471 512.529 161.97 510.591 165.469C509.909 166.701 509.203 168.085 509.535 169.454C510.053 171.593 512.939 172.37 514.959 171.494C516.978 170.618 518.297 168.68 519.504 166.84C520.608 165.157 521.712 163.474 522.816 161.791C523.702 160.439 521.687 159.107 520.15 158.606C518.613 158.106 516.911 156.155 518.24 155.235C518.955 154.74 519.923 155.185 520.67 155.632C522.928 156.981 525.519 159.036 524.972 161.609C524.776 162.532 524.185 163.314 523.611 164.062Z" fill="#00160A"/>
<path fill-rule="evenodd" clip-rule="evenodd" d="M283.368 197.488C283.829 197.753 284.323 198.054 284.509 198.552C284.696 199.049 284.34 199.752 283.814 199.675C278.943 196.874 274.073 194.073 269.202 191.272C269.29 190.718 269.908 190.377 270.469 190.398C271.029 190.419 271.541 190.705 272.028 190.984C275.808 193.152 279.588 195.32 283.368 197.488Z" fill="#00160A"/>
<path fill-rule="evenodd" clip-rule="evenodd" d="M213.809 170.269C212.785 167.633 214.278 164.72 215.947 162.438C218.492 158.959 221.572 155.872 225.044 153.317C225.908 152.682 227.233 152.119 227.929 152.936C228.773 153.924 227.486 155.276 226.412 156.008C221.879 159.101 218.72 163.776 215.637 168.316C215.131 169.06 214.596 169.831 213.809 170.269L213.809 170.269Z" fill="#FFB61D"/>
<path fill-rule="evenodd" clip-rule="evenodd" d="M472.33 568.657C469.001 571.025 465.672 573.394 462.344 575.762C461.135 576.622 459.656 577.525 458.264 577.011C453.293 575.177 449.813 570.621 447.501 565.854C446.596 563.988 445.814 561.854 446.451 559.88C446.77 558.89 447.419 558.046 448.057 557.223C450.025 554.683 452.351 551.934 455.548 551.602C456.966 551.455 458.39 551.82 459.723 552.325C463.931 553.921 467.563 556.991 469.837 560.874C468.954 560.535 468.018 560.333 467.074 560.276C464.75 556.496 460.542 553.941 456.115 553.622C457.303 556.386 458.764 559.033 460.47 561.511C462.019 563.759 463.939 565.984 466.568 566.722C468.562 567.283 471.022 567.05 472.33 568.657ZM455.463 572.143C457.081 573.471 459.162 574.584 461.192 574.079C464.02 573.376 465.49 569.879 468.332 569.236C464.543 568.81 461.204 566.394 458.835 563.405C456.467 560.416 454.929 556.869 453.419 553.368C453.209 556.702 448.899 558.842 449.098 562.177C449.134 562.792 449.331 563.386 449.552 563.96C450.777 567.135 452.834 569.983 455.463 572.143H455.463Z" fill="#00160A"/>
<path fill-rule="evenodd" clip-rule="evenodd" d="M264.984 197.098C265.737 196.651 266.69 197.073 267.454 197.503C269.799 198.821 272.099 200.22 274.348 201.696C274.793 201.988 275.297 202.459 275.105 202.954C274.858 203.589 273.909 203.351 273.323 203.005C270.975 201.617 268.626 200.23 266.278 198.843C265.612 198.449 264.848 197.859 264.984 197.098L264.984 197.098Z" fill="#00160A"/>
<path fill-rule="evenodd" clip-rule="evenodd" d="M219.114 177.16C220.494 173.273 222.633 169.656 225.376 166.576C226.338 165.494 227.373 164.48 228.406 163.466C229.908 161.994 231.41 160.521 232.912 159.048C233.33 158.639 233.821 158.2 234.405 158.23C235.15 158.268 235.647 159.106 235.588 159.849C235.529 160.592 235.076 161.24 234.619 161.829C232.286 164.836 229.434 167.395 226.909 170.242C224.384 173.088 222.133 176.344 221.369 180.072C221.165 181.071 219.516 180.998 219.003 180.117C218.491 179.236 218.773 178.121 219.114 177.16Z" fill="#FFB61D"/>
<path fill-rule="evenodd" clip-rule="evenodd" d="M498.663 647.093C499.44 643.725 501.07 640.557 503.359 637.965C504.362 639.262 503.209 641.049 502.352 642.448C501.66 643.577 501.152 644.82 500.855 646.111C500.767 646.492 500.698 646.894 500.802 647.271C500.888 647.587 501.089 647.858 501.286 648.121C504.67 652.642 508.552 657.489 514.091 658.595C515.179 658.812 516.303 658.235 517.038 657.403C517.774 656.572 518.195 655.516 518.602 654.484C511.859 651.803 506.66 645.549 505.257 638.429C505.201 638.142 505.151 637.837 505.256 637.563C505.401 637.184 505.799 636.972 506.174 636.817C508.85 635.712 512.023 635.892 514.556 637.292C515.538 637.835 516.417 638.543 517.291 639.247C518.644 640.339 519.998 641.431 521.351 642.522C523.578 644.318 526.03 646.623 525.723 649.468C525.554 651.031 524.557 652.363 523.597 653.608C521.5 656.325 519.403 659.043 517.307 661.76C509.97 660.806 503.148 656.444 499.204 650.185C498.905 649.711 498.617 649.213 498.528 648.66C498.444 648.139 498.544 647.607 498.663 647.093ZM514.391 640.014C512.084 638.681 509.347 638.109 506.699 638.405C508.689 643.795 512.595 648.455 517.555 651.355C518.769 652.065 520.251 652.682 521.541 652.121C523.202 651.399 523.584 649.186 524.927 647.971C522.336 645.967 519.745 643.963 517.153 641.959C516.262 641.269 515.367 640.578 514.391 640.014Z" fill="#00160A"/>
<path fill-rule="evenodd" clip-rule="evenodd" d="M427.321 521.934C430.85 519.841 435.574 521.656 438.358 524.669C441.143 527.682 442.617 531.642 444.677 535.189C444.286 535.349 443.894 535.509 443.503 535.669C441.532 530.405 438.1 525.696 433.692 522.209C432.971 521.638 431.619 521.279 431.382 522.168C431.314 522.423 431.39 522.691 431.466 522.943C431.91 524.412 432.354 525.881 432.798 527.35C433.07 528.252 433.344 529.159 433.754 530.007C435.247 533.1 438.324 535.06 441.25 536.857C441.925 537.272 441.499 538.356 440.86 538.824C440.221 539.292 439.366 539.646 439.173 540.414C438.913 537.272 435.451 535.571 433.574 533.038C432.891 532.116 432.413 531.062 431.941 530.016C430.94 527.804 429.94 525.592 428.94 523.38C427.705 524.569 426.469 525.758 425.234 526.946C424.661 527.497 424.069 528.076 423.797 528.823C423.41 529.881 423.737 531.061 424.167 532.103C424.967 534.046 426.123 535.841 427.56 537.374C428.438 538.31 429.428 539.161 430.103 540.252C430.777 541.344 431.087 542.774 430.485 543.908C427.202 541.187 424.432 537.848 422.364 534.118C421.556 532.661 420.839 531.067 420.917 529.403C421.078 525.981 424.375 523.682 427.321 521.934V521.934Z" fill="#00160A"/>
<path fill-rule="evenodd" clip-rule="evenodd" d="M164.96 622.132C160.768 628.178 155.897 634.319 148.979 636.822C142.06 639.326 132.73 636.449 130.855 629.334C127.721 617.439 144.997 611.359 151.451 600.886C159.112 588.456 149.929 572.757 140.906 561.278C134.504 566.63 125.178 572.131 118.584 567.017C110.599 560.824 117.318 547.878 125.461 541.894C140.066 531.163 158.743 526.122 176.764 528.05C181.352 493.88 198.905 461.611 225.099 439.194C251.293 416.777 285.886 404.418 320.354 405.163C316.501 338.331 355.248 270.932 414.942 240.632C421.422 237.343 428.36 234.408 435.626 234.451C442.893 234.495 450.565 238.194 453.323 244.917C456.081 251.64 451.805 260.867 444.564 261.481C416.682 263.846 390.202 279.379 374.532 302.562C411.618 299.707 446.708 317.886 479.45 335.535C492.792 342.727 506.135 349.918 519.477 357.11C532.431 364.092 546.803 371.303 561.2 368.257C587.827 362.622 595.936 327.739 618.224 312.12C621.093 310.11 624.509 308.373 627.961 308.966C636.961 310.513 636.33 323.803 632.458 332.074C609.369 381.406 557.64 412.449 504.463 424.239C451.287 436.03 396.015 431.369 341.752 426.65C337.997 465.458 332.695 507.662 304.929 535.034C278.531 561.057 236.777 566.779 201.041 556.933C220.052 558.333 239.306 559.412 258.059 555.99C276.812 552.569 295.267 544.198 307.453 529.539C314.747 520.764 319.488 510.167 323.47 499.474C332.078 476.357 337.556 452.078 339.708 427.505C333.067 427.955 326.427 428.405 319.786 428.855C321.468 461.58 313.32 496.177 290.803 519.982C268.286 543.787 229.586 553.502 201.346 536.883C195.147 567.368 182.685 596.566 164.96 622.132ZM237.239 542.314C248.217 540.599 258.95 537.322 269.013 532.612C262.779 527.637 256.759 522.281 252.01 515.871C241.899 502.223 238.068 484.531 227.055 471.599C213.83 489.94 205.161 511.54 202.038 533.935C201.968 534.44 201.91 534.993 202.183 535.423C202.466 535.87 203.019 536.048 203.528 536.192C211.944 538.579 220.498 540.48 229.132 541.88C224.343 536.67 219.518 531.414 215.875 525.347C212.232 519.28 209.808 512.267 210.283 505.206C214.77 516.958 221.188 527.97 229.201 537.668C231.268 540.169 234.032 542.814 237.239 542.314ZM634.508 321.947C636.993 315.81 628.518 309.95 622.192 311.904C615.866 313.858 611.946 319.973 608.258 325.472C587.578 356.312 557.44 380.716 522.974 394.529C469.885 415.806 410.564 411.568 353.418 409.236C326.549 408.14 299.128 407.606 273.36 415.297C235.842 426.496 204.151 455.717 189.952 492.205C181.754 513.272 179.232 536.054 173.624 557.953C168.016 579.852 158.441 602.046 140.188 615.382C136.877 617.802 133.038 620.288 132.118 624.284C130.749 630.225 137.359 635.619 143.443 635.228C149.527 634.837 154.632 630.593 158.808 626.151C201.249 580.994 191.511 502.899 235.324 459.071C255.983 438.406 285.646 428.996 314.753 426.416C343.86 423.836 373.109 427.354 402.293 428.82C447.757 431.105 494.309 428.214 536.775 411.823C579.242 395.431 617.42 364.138 634.508 321.947ZM359.835 334.43C358.897 335 358.336 336.014 357.828 336.987C347.108 357.551 341.807 380.91 342.602 404.087C341.452 404.032 341.002 402.586 340.881 401.441C338.051 374.449 349.271 348.185 360.247 323.363C363.572 315.844 366.921 308.28 371.509 301.457C380.056 288.745 392.491 279.196 405.156 270.579C409.372 267.711 413.699 264.889 418.529 263.254C421.742 262.167 425.111 261.629 428.461 261.095C432.632 260.431 436.804 259.766 440.975 259.102C445.307 258.412 450.267 257.283 452.242 253.367C455.015 247.866 449.43 241.46 443.497 239.8C436.015 237.706 428.042 239.85 420.722 242.457C409.505 246.451 398.62 251.596 389.018 258.637C381.356 264.256 374.591 271.021 368.384 278.215C339.104 312.151 322.08 356.443 321.092 401.254C321.07 402.275 321.066 403.345 321.533 404.253C322.653 406.43 325.667 406.543 328.11 406.389C345.552 405.294 363.104 405.965 380.411 408.389C371.96 400.415 363.368 392.34 353.078 386.945C349.82 385.236 346.197 383.614 344.402 380.403C351.477 381.544 358.235 384.586 363.78 389.126C368.247 392.783 371.892 397.345 376.238 401.146C380.583 404.946 385.979 408.058 391.749 407.877C407.928 407.368 424.131 407.659 440.281 408.749C427.396 400.174 416.775 388.683 405.122 378.497C393.469 368.311 380.11 359.13 364.822 356.719C360.555 356.046 355.187 355.104 354.118 350.918C370.26 351.779 385.391 359.313 398.435 368.859C411.479 378.406 422.86 390.007 435.143 400.515C439.529 404.268 444.731 408.1 450.462 407.412C468.417 405.256 486.509 403.069 503.691 397.432C461.891 382.574 428.881 346.994 385.588 337.311C378.428 335.709 371.123 334.859 363.835 334.012C362.477 333.854 361.003 333.72 359.835 334.43ZM524.495 362.819C519.733 360.51 514.971 358.202 510.208 355.893C503.406 352.596 496.603 349.298 489.9 345.804C474.29 337.669 459.229 328.476 443.339 320.903C427.448 313.33 410.52 307.353 392.956 306.176C388.489 305.877 383.949 305.882 379.635 304.685C376.935 303.936 373.998 305.194 372.008 307.166C370.017 309.137 368.785 311.728 367.592 314.263C364.933 319.914 362.273 325.565 359.614 331.216C380.107 329.303 400.266 336.976 418.684 346.162C436.133 354.864 452.815 365.037 469.043 375.844C476.408 380.749 483.737 385.817 491.838 389.377C499.939 392.937 508.981 394.931 517.689 393.357C532.612 390.66 543.868 378.261 558.054 372.903C546.258 373.233 535.114 367.966 524.495 362.819ZM255.228 448.107C259.69 459.139 266.017 469.513 274.477 477.882C282.938 486.252 293.6 492.554 305.24 495.03C307.951 485.112 310.545 475.163 313.021 465.184C313.256 464.238 313.36 462.983 312.491 462.541C300.053 456.216 288.859 447.455 279.731 436.9C279.81 435.804 281.126 435.151 282.205 435.355C283.285 435.56 284.149 436.342 284.949 437.096C293.85 445.495 302.605 454.644 313.965 459.196C316.545 450.72 318.301 441.994 319.201 433.181C319.366 431.559 318.967 429.297 317.337 429.291C285.185 429.171 253.196 442.558 230.713 465.542C229.154 467.135 229.062 469.728 229.847 471.814C230.633 473.9 232.134 475.621 233.522 477.365C240.285 485.871 244.869 495.856 250.213 505.319C255.557 514.781 261.98 524.057 271.195 529.816C272.145 530.41 273.198 530.982 274.315 530.897C275.233 530.827 276.054 530.321 276.824 529.816C287.814 522.61 296.997 512.671 303.312 501.147C303.997 499.897 304.311 497.815 302.919 497.513C294.469 495.679 286.445 491.906 279.643 486.567C274.389 482.443 269.901 477.442 265.442 472.469C262.715 469.427 259.97 466.362 257.864 462.861C255.331 458.65 253.776 453.855 253.354 448.959C253.979 448.675 254.603 448.391 255.228 448.107ZM123.137 566.499C127.701 567.449 132.036 564.352 135.59 561.335C139.711 557.836 143.749 554.17 148.433 551.471C153.118 548.771 158.599 547.078 163.939 547.921C165.752 548.207 167.55 548.78 169.38 548.644C171.21 548.508 173.155 547.392 173.471 545.584C174.223 541.292 174.816 536.971 175.247 532.635C175.309 532.016 175.344 531.32 174.937 530.849C174.544 530.394 173.879 530.316 173.278 530.277C154.214 529.048 134.758 536.493 121.384 550.136C119.357 552.204 117.386 554.565 116.914 557.422C116.253 561.42 119.17 565.674 123.137 566.499ZM161.603 553.885C164.165 556.838 166.726 559.792 169.288 562.745C169.962 559.12 171.028 555.569 172.462 552.172C164.817 548.959 155.554 549.947 148.76 554.701C147.281 555.735 145.921 556.928 144.565 558.118C144.027 558.591 143.466 559.095 143.237 559.774C143.009 560.452 143.258 561.348 143.938 561.574C146.466 562.412 148.259 564.637 149.705 566.874C154.449 574.214 157.052 582.921 157.115 591.661C160.751 584.011 164.388 576.36 168.024 568.71C166.58 568.305 166.209 566.491 165.848 565.036C164.564 559.87 160.422 555.986 156.474 552.415C157.09 551.594 158.34 551.489 159.282 551.899C160.224 552.309 160.93 553.109 161.603 553.885Z" fill="#00160A"/>
</svg>
