<svg width="750" height="750" viewBox="0 0 750 750" fill="none" xmlns="http://www.w3.org/2000/svg">
<rect width="750" height="750" fill="none"/>
<path fill-rule="evenodd" clip-rule="evenodd" d="M214.077 404.068C214.8 407.558 213.991 411.204 212.668 414.514C213 414.83 213.331 415.145 213.663 415.461C220.282 410.308 227.004 405.048 231.817 398.177C233.844 395.283 231.449 391.057 228.202 389.662C224.955 388.268 221.263 388.698 217.732 388.548C213.484 388.368 209.275 387.3 205.456 385.43C199.91 382.717 194.822 378.24 188.649 378.148C187.968 378.138 187.238 378.2 186.702 378.622C185.397 379.65 186.194 381.743 187.175 383.085C192.042 389.743 199.337 394.586 207.363 396.484C210.833 397.304 213.354 400.577 214.077 404.068Z" />
<path fill-rule="evenodd" clip-rule="evenodd" d="M320.562 505.771L232.811 525.356C214.876 529.358 197.092 518.064 193.089 500.129C191.16 491.484 192.757 482.427 197.527 474.964L245.942 399.203C260.847 375.88 265.838 347.577 259.809 320.562L240.225 232.811C236.222 214.876 247.516 197.092 265.451 193.089C274.096 191.16 283.153 192.757 290.616 197.526L366.377 245.942C389.7 260.847 418.004 265.838 445.018 259.809L532.769 240.224C550.704 236.222 568.488 247.516 572.491 265.451C574.42 274.096 572.823 283.153 568.054 290.616L519.638 366.377C504.733 389.7 499.742 418.004 505.771 445.018L525.356 532.769C529.359 550.704 518.064 568.488 500.129 572.491C491.484 574.42 482.427 572.823 474.964 568.054L399.203 519.638C375.88 504.733 347.577 499.742 320.562 505.771Z" />
<path d="M629.197 471.608C629.197 471.608 235.941 471.816 80.2413 471.608C68.0206 444.967 83.3946 409.369 111.168 400C102.476 409.916 93.784 419.832 85.0922 429.747C100.363 429.594 629.197 429.747 629.197 429.747V471.608Z" fill="white"/>
<path fill-rule="evenodd" clip-rule="evenodd" d="M502.363 471.667C307.103 471.742 166.396 471.723 80.2414 471.608C68.0206 444.967 367.669 456.186 481.295 456.186C594.92 456.186 542.353 471.651 502.363 471.667Z" fill="#E7EAEE"/>
<path fill-rule="evenodd" clip-rule="evenodd" d="M421.044 166.191C422.432 164.609 425.171 164.492 426.689 165.95C421.787 156.241 407.445 153.331 404.364 142.9C400.419 129.548 394.601 116.75 387.133 105C384.025 116.552 378.088 127.333 369.986 136.135C367.879 136.144 365.771 136.154 363.663 136.163C358.875 136.185 354.044 136.211 349.368 137.24C340.954 139.092 333.413 144.11 324.889 145.358C325.521 144.567 326.152 143.776 326.784 142.984C326.608 142.168 325.425 141.794 324.812 142.362C323.732 138.067 320.254 134.695 316.309 132.684C312.363 130.674 306.545 126.932 294.899 127.916C309.029 143.733 304.653 209.579 308.129 222.058C309.314 222.374 310.222 221.078 310.993 220.124C311.764 219.17 313.564 218.583 313.981 219.738C316.875 227.76 317.286 240.106 326.158 244.886C327.87 245.808 328.888 244.085 328.755 243.245C328.586 242.173 329.874 241.347 330.947 241.51C332.021 241.672 332.879 242.45 333.716 243.141C347.828 254.793 370.935 248.787 385.063 260.419C387.855 262.717 390.315 265.712 393.799 266.68C395.878 267.257 398.093 267.03 400.217 266.649C412.864 264.382 424.124 256.878 432.908 247.501C441.692 238.124 448.25 226.912 454.356 215.607C448.73 212.421 442.816 208.949 439.759 203.251C437.351 198.762 435.87 192.328 430.806 191.779C432.412 196.996 434.019 202.214 435.625 207.431C436.213 209.342 436.808 211.334 436.497 213.309C436.186 215.283 434.677 217.223 432.681 217.323C429.971 217.459 428.063 214.393 425.373 214.044C424.863 224.135 420.988 234.028 414.509 241.781C412.26 244.471 407.937 246.914 405.655 244.252C409.118 238.657 412.582 233.061 416.045 227.466C418.204 223.979 420.418 220.331 420.814 216.249C421.21 212.168 419.186 207.538 415.261 206.348C415.086 205.268 416.225 204.342 417.318 204.309C418.41 204.277 419.417 204.856 420.356 205.416C423.849 207.499 427.343 209.583 430.836 211.667C429.722 203.383 427.442 195.256 424.086 187.601C427.338 187.293 430.663 187.789 433.682 189.035C431.357 182.309 427.095 176.266 421.54 171.819C419.896 170.504 419.656 167.773 421.044 166.191Z" fill="white"/>
<path fill-rule="evenodd" clip-rule="evenodd" d="M351.275 148.339C354.153 150.244 356.423 153.053 357.683 156.267C358.074 157.266 359.187 157.748 359.937 158.516C360.688 159.283 360.812 160.923 359.76 161.138C359.3 161.231 358.849 160.978 358.446 160.737C351.993 156.884 344.145 153.773 337.105 156.405C338.263 156.996 338.847 158.513 338.386 159.728C339.822 159.78 341.162 160.426 342.453 161.06C343.59 161.618 344.727 162.175 345.863 162.733C345.744 163.069 345.625 163.405 345.506 163.74C340.366 161.123 334.088 160.851 328.741 163.014C330.518 163.284 332.329 163.333 334.118 163.16C336.727 164.475 339.336 165.79 341.944 167.105C342.525 167.397 343.137 167.719 343.464 168.281C343.79 168.843 343.666 169.714 343.059 169.946C338.345 165.788 331.677 163.95 325.498 165.105C324.777 165.239 324.284 164.234 324.59 163.567C324.896 162.9 325.63 162.558 326.312 162.29C329.737 160.941 333.349 160.069 337.012 159.706C335.179 158.007 333.057 156.622 330.765 155.629C330.387 154.338 332.25 153.101 333.294 153.949C341.227 152.394 349.725 153.937 356.605 158.181C356.663 156.832 355.662 155.697 354.725 154.723C351.798 151.68 348.87 148.637 345.943 145.594C351.069 146.243 356.094 147.687 360.783 149.856C361.843 150.347 362.891 150.877 363.852 151.542C367.469 154.047 369.623 158.527 369.318 162.917C367.126 158.285 363.657 154.265 359.396 151.419C356.96 149.793 354.198 148.526 351.275 148.339V148.339Z" fill="#E7EAEE"/>
<path fill-rule="evenodd" clip-rule="evenodd" d="M164.938 367.27C157.515 373.933 158.164 385.722 160.843 395.33C164.29 407.691 170.119 419.383 177.915 429.574L85.0922 430.507L111.168 400.76C83.3946 410.129 68.0206 445.727 80.2413 472.368C235.941 472.575 391.64 472.257 547.337 471.412C518.939 490.605 491.409 513.889 478.213 545.522C465.017 577.156 470.481 618.746 498.534 638.439C508.984 645.774 521.531 649.533 534.075 651.908C547.009 654.358 562.671 654.461 570.655 643.994C575.317 637.881 573.088 628.289 570.884 618.802C569.346 612.185 567.821 605.619 568.655 600.321C571.482 582.357 583.575 573.247 597.375 562.852C600.274 560.668 603.248 558.428 606.227 556.036C631.667 535.62 660.828 509.806 668.253 478.043C675.034 449.03 667.571 420.25 648.176 397.632C641.193 389.488 632.608 382.076 623.98 374.627C612.387 364.616 600.715 354.538 592.744 342.526C587.877 335.191 586.171 327.349 584.38 319.121C583.738 316.167 583.084 313.164 582.27 310.116C571.814 270.986 534.528 250.866 496.135 230.149L496.133 230.148L496.131 230.147L496.131 230.147L496.125 230.144C491.266 227.522 486.389 224.89 481.547 222.209C459.328 209.907 436.903 194.161 429.769 169.513C433.703 169.666 435.162 163.753 432.895 160.533C431.209 158.139 428.546 156.792 425.889 155.448L425.889 155.448C424.973 154.985 424.058 154.522 423.184 154.017C415.072 149.327 410.421 139.759 405.658 129.961C398.503 115.24 391.094 100 371.315 100C370.569 104.994 371.341 109.444 372.064 113.613C373.181 120.055 374.182 125.827 369.286 131.905C355.269 130.351 340.778 133.416 328.591 140.513C321.545 127.137 303.676 121.423 289.191 125.753C291.025 128.062 292.113 129.22 293.014 130.18C294.919 132.208 295.994 133.352 301.52 142.594C309.663 156.21 304.504 206.266 303.216 214.181C301.927 222.095 308.025 227.719 313.603 223.811C310.886 235.541 320.674 246.736 332.71 247.073C336.821 247.806 339.376 249.795 341.79 251.674C343.292 252.843 344.739 253.97 346.473 254.726C308.255 282.062 265.947 303.669 221.396 318.604L220.612 318.867C212.276 321.657 203.563 324.573 197.66 331.051C191.573 337.732 190.143 349.592 197.227 355.206C192.902 359.128 186.983 360.194 181.062 361.261C175.165 362.323 169.266 363.386 164.938 367.27ZM559.742 420.173C552.845 426.691 539.341 427.032 529.852 426.993L406.794 426.489C403.239 421.765 405.438 414.505 410.03 410.783C414.623 407.06 420.806 406.058 426.699 405.591C445.721 404.085 465.066 406.818 482.926 413.534C487.941 414.426 491.749 408.098 490.537 403.151C489.325 398.204 485.112 394.665 481.194 391.41C468.552 380.908 456.156 369.081 450.222 353.754C444.068 337.859 445.853 319.108 454.896 304.66C439.714 317.272 436.524 340.455 443.342 358.977C450.16 377.499 465.133 391.906 481.356 403.147C472.496 404.964 463.297 402.94 454.192 400.937C443.159 398.51 432.262 396.112 422.27 400.614L420.21 344.41L414.869 393.675C414.472 397.338 413.319 401.87 409.698 402.551C399.871 404.4 394.044 417.27 399.14 425.875C394.748 428.838 388.049 427.513 385.117 423.1C382.185 418.688 383.559 411.998 387.992 409.098C398.746 402.063 399.597 386.91 399.304 374.063L397.285 285.367C397.236 283.226 397.721 280.411 399.842 280.116C430.891 275.802 458.497 252.473 467.927 222.578C495.444 234.904 522.965 249.117 545.169 268.69C595.981 313.483 582.044 350.728 578.398 360.471C577.759 362.178 577.436 363.041 577.832 362.952C580.366 362.386 581.568 359.533 582.27 357.034C583.909 351.195 584.976 345.195 585.451 339.149C593.837 354.728 607.189 366.565 620.567 378.425C632.796 389.266 645.046 400.126 653.547 413.882C666.658 435.095 669.402 462.397 660.776 485.795C650.586 513.435 627.166 532.77 604.066 551.84C598.516 556.423 592.983 560.99 587.658 565.654C576.511 575.415 565.296 587.509 564.936 602.321C564.84 606.29 565.549 610.202 566.259 614.12C566.76 616.89 567.263 619.662 567.482 622.46C568.01 629.215 566.344 636.9 560.623 640.532C558.211 642.063 555.342 642.694 552.514 643.103C523.194 647.337 487.279 627.497 478.915 599.078C470.708 571.191 485.114 536.787 504.042 514.724C515.801 501.018 531.016 491.224 546.282 481.396C555.589 475.405 564.915 469.401 573.487 462.492C581.521 456.017 589.455 449.038 594.539 440.059C599.622 431.08 601.448 419.665 596.882 410.412C593.139 402.829 585.763 397.564 578.531 392.4C569.436 385.908 560.568 379.577 559.437 369.004C559.576 373.754 561.581 379.076 563.569 384.351C565.302 388.95 567.022 393.514 567.479 397.632C568.461 406.474 566.208 414.063 559.742 420.173ZM574.705 402.042C587.058 402.177 594.313 417.815 590.838 429.669C587.363 441.524 577.157 449.962 567.479 457.639C562.624 461.491 557.263 465.531 551.065 465.577L83.7496 469.074L81.7021 432.822L171.83 432.736C183.488 432.725 196.706 433.391 204.3 442.237C207.061 445.454 211.978 441.951 215.347 439.378C223.328 433.282 234.165 432.985 244.207 432.944L573.942 431.606C577.478 431.592 582.236 430.404 582.12 426.87L559.947 426.036C567.91 420.555 573.405 411.621 574.705 402.042ZM231.777 428.803C236.723 416.857 240.476 404.416 242.961 391.728C243.659 388.164 244.259 384.515 243.785 380.915C242.361 370.111 232.102 363 222.676 357.529C226.699 357.449 230.131 354.605 232.713 351.519C233.432 350.66 234.118 349.766 234.804 348.873C236.584 346.556 238.363 344.24 240.708 342.526C245.518 339.011 246.288 338.948 256.225 338.133L256.227 338.133L256.26 338.13C257.274 338.047 258.382 337.956 259.6 337.853C268.339 337.112 289.472 329.15 304.903 323.336L304.903 323.336L304.903 323.336C312.775 320.37 319.163 317.963 321.664 317.36C355.888 309.101 379.611 319.914 384.954 325.741C387.869 328.922 388.585 333.482 389.17 337.757C391.806 356.988 394.442 376.522 391.666 395.733C391.148 399.319 390.19 403.273 387.149 405.243C384.099 407.218 381.228 409.468 378.58 411.956C374.335 415.945 370.519 422.422 373.816 427.224L231.777 428.803ZM426.585 164.524C425.067 163.066 422.328 163.183 420.94 164.765C419.552 166.347 419.792 169.077 421.435 170.393C426.991 174.84 431.253 180.883 433.578 187.608C430.559 186.363 427.234 185.866 423.982 186.174C427.338 193.83 429.618 201.956 430.732 210.241L420.251 203.989C419.313 203.429 418.306 202.851 417.214 202.883C416.121 202.915 414.982 203.842 415.157 204.921C419.081 206.111 421.105 210.741 420.71 214.823C420.314 218.905 418.1 222.553 415.941 226.04L405.551 242.825C407.833 245.488 412.156 243.045 414.405 240.354C420.884 232.601 424.759 222.709 425.269 212.617C426.519 212.78 427.6 213.528 428.67 214.269C429.905 215.124 431.126 215.97 432.577 215.897C434.573 215.797 436.082 213.857 436.393 211.882C436.704 209.908 436.109 207.915 435.521 206.005L430.702 190.353C434.63 190.778 436.403 194.746 438.124 198.599C438.622 199.713 439.115 200.818 439.655 201.825C442.712 207.522 448.626 210.995 454.252 214.181C448.146 225.486 441.588 236.698 432.804 246.075C424.02 255.452 412.76 262.956 400.113 265.222C397.989 265.603 395.774 265.831 393.695 265.253C391.09 264.53 389.057 262.673 387.031 260.821C386.347 260.197 385.663 259.572 384.959 258.992C377.899 253.18 368.597 251.772 359.296 250.364C349.984 248.954 340.672 247.544 333.612 241.715L333.522 241.64L333.411 241.548C332.637 240.904 331.831 240.233 330.843 240.083C329.77 239.92 328.482 240.747 328.651 241.819C328.784 242.659 327.766 244.382 326.054 243.459C319.452 239.902 317.535 232.156 315.794 225.12C315.195 222.7 314.617 220.364 313.877 218.311C313.46 217.157 311.66 217.743 310.889 218.698L310.842 218.756C310.796 218.814 310.749 218.873 310.701 218.932C309.971 219.849 309.116 220.923 308.025 220.631C306.723 215.844 307.177 210.433 307.616 205.198C307.794 203.067 307.971 200.965 308.025 198.946C308.03 198.763 308.086 198.211 308.175 197.346C309.183 187.492 314.353 136.971 294.9 127.916C299.525 127.005 306.989 127.848 313.603 131.905C320.294 136.009 325.102 143.534 324.785 143.932C329.406 143.255 333.739 141.47 338.078 139.683C341.742 138.173 345.411 136.662 349.264 135.814C353.94 134.784 358.771 134.758 363.559 134.737L369.882 134.708C376.695 127.307 376.431 119.2 376.125 109.798L376.125 109.796C376.067 108.017 376.008 106.191 375.995 104.315C387.801 105.866 400.315 128.121 404.26 141.474C405.907 147.051 410.774 150.478 415.695 153.944C419.979 156.96 424.304 160.006 426.585 164.524ZM225.352 321.964C226.704 321.62 228.048 321.279 229.374 320.928C249.656 315.562 268.585 306.118 287.351 296.737C309.708 285.561 332.451 274.115 350.387 256.706C351.774 255.361 353.972 255.454 355.888 255.701C362.973 256.614 369.943 258.423 376.578 261.07C380.055 262.457 383.965 264.84 383.989 268.583C383.998 269.901 383.492 271.161 382.994 272.381L379.654 280.569C378.229 284.062 376.779 287.685 376.902 291.456C377.025 295.226 379.166 299.206 382.794 300.242C386.421 301.278 390.902 297.903 389.965 294.249C388.36 287.991 387.261 281.604 386.684 275.17C393.752 289.167 391.314 305.868 388.708 321.33C379.354 316.402 369.561 312.304 359.484 309.101C356.023 308.001 352.143 307.032 348.874 308.613C340.869 312.483 325.801 313.514 324.318 312.474C322.834 311.434 320.804 311.936 319.095 312.537C316.342 313.504 311.095 315.55 304.827 317.993L304.826 317.994L304.826 317.994L304.825 317.994L304.824 317.994L304.824 317.995C289.443 323.991 267.913 332.384 261.985 333.135C260.425 333.333 258.856 333.479 257.287 333.626L257.286 333.626C253.893 333.942 250.501 334.259 247.204 335.093C242.381 336.313 237.627 338.841 235.074 343.111C233.167 342.062 231.977 340.207 230.78 338.342L230.78 338.342C230.202 337.442 229.623 336.54 228.961 335.724C226.927 333.219 222.657 331.673 220.707 334.244C218.996 328.393 210.335 326.135 205.985 330.405C205.313 331.065 204.752 331.825 204.191 332.586C203.608 333.376 203.025 334.166 202.318 334.844C200.929 336.172 198.706 336.99 197.095 335.943C203.68 327.466 214.766 324.651 225.352 321.964ZM203.887 428.215C198.918 430.003 193.436 428.261 188.507 426.367C183.847 424.577 178.984 422.442 176.153 418.33C172.747 413.383 173.114 406.854 173.616 400.868L175.718 375.792C172.6 378.415 170.31 382.007 169.249 385.941C166.729 380.382 170.477 372.958 176.446 371.684C173.924 369.595 169.774 370.966 167.994 373.714C166.214 376.462 166.254 380.001 166.775 383.234C166.915 384.105 167.086 384.976 167.257 385.846L167.257 385.846L167.257 385.847L167.257 385.847L167.257 385.847C167.72 388.204 168.182 390.562 168.04 392.948C164.293 387.094 163.579 379.407 166.183 372.963C167.362 370.044 169.453 367.188 172.509 366.437C175.566 365.685 179.349 368.183 178.843 371.289C177.682 378.409 181.002 385.718 186.094 390.829C191.185 395.94 197.857 399.159 204.591 401.745C207.07 402.697 210.152 404.877 208.943 407.241C207.681 409.71 206.81 412.504 207.244 415.243C207.677 417.982 209.684 420.599 212.416 421.071C215.784 421.653 218.781 419.044 221.202 416.632L235.507 402.381C233.601 407.677 231.364 412.854 228.816 417.873C227.07 421.311 225.073 424.792 221.917 427.007C218.76 429.221 214.14 429.797 211.154 427.358C209.491 425.998 207.221 426.902 205.109 427.744L205.108 427.744L205.107 427.745C204.692 427.91 204.283 428.073 203.887 428.215ZM202.471 378.345C201.136 377.46 199.801 376.574 198.417 375.794C194.13 373.375 188.437 372.075 184.502 375.031C183.24 370.971 185.734 366.61 188.987 363.871C194.741 359.027 203.177 357.606 210.201 360.299C216.86 362.851 223.619 365.63 228.908 370.413C234.198 375.197 237.814 382.43 236.455 389.431C234.968 389.793 233.726 388.599 232.566 387.482C232.345 387.269 232.126 387.059 231.91 386.863C228.62 383.887 224.108 383.807 219.509 383.724H219.509C216.713 383.674 213.885 383.624 211.281 382.922C208.063 382.054 205.27 380.201 202.471 378.345ZM212.669 414.514C213.992 411.204 214.801 407.559 214.078 404.068C213.355 400.577 210.833 397.305 207.364 396.484C199.338 394.586 192.042 389.744 187.176 383.085C186.195 381.743 185.397 379.65 186.703 378.622C187.239 378.201 187.968 378.138 188.65 378.148C193.045 378.214 196.89 380.502 200.742 382.794C202.3 383.721 203.859 384.649 205.456 385.431C209.276 387.3 213.484 388.369 217.733 388.549C218.584 388.585 219.445 388.587 220.307 388.59C223.018 388.597 225.739 388.604 228.203 389.663C231.45 391.057 233.845 395.283 231.818 398.178C227.005 405.048 220.283 410.308 213.663 415.461L212.669 414.514ZM456.29 218.13C457.029 216.796 458.125 215.263 459.64 215.435C461.603 215.659 461.998 218.337 461.728 220.293C459.817 234.173 451.225 246.514 440.294 255.279C429.364 264.045 416.213 269.594 402.91 273.993C401.996 274.295 401.1 274.865 400.219 275.425C398.537 276.495 396.914 277.528 395.336 276.582C393.517 275.491 393.981 272.499 395.636 271.172C397.138 269.969 399.138 269.711 401.065 269.462C401.262 269.437 401.458 269.412 401.653 269.385C414.515 267.654 426.002 260.023 434.789 250.472C443.576 240.921 450.005 229.485 456.29 218.13ZM217.802 335.045C218.96 336.425 220.237 337.946 221.996 337.908C223.475 337.876 224.396 339.078 225.351 340.322C226.028 341.205 226.722 342.109 227.643 342.611C229.846 343.812 230.035 347.155 228.589 349.206C227.143 351.256 224.634 352.254 222.207 352.888C217.257 354.181 212.031 354.404 206.99 353.539C203.702 352.974 200.293 351.818 198.221 349.204C196.148 346.589 196.089 342.198 198.833 340.301C199.751 339.666 200.856 339.37 201.955 339.076C203.265 338.725 204.566 338.377 205.53 337.46C206.246 336.779 206.674 335.871 207.102 334.964C207.551 334.014 207.998 333.066 208.774 332.381C210.03 331.273 211.934 331.121 213.515 331.675C215.096 332.229 216.395 333.388 217.481 334.664L217.581 334.783L217.639 334.852L217.802 335.045ZM208.534 437.111C208.025 437.312 207.452 437.344 206.924 437.202C206.414 437.065 205.948 436.765 205.612 436.357C204.243 434.698 206.151 431.699 208.234 432.237C210.316 432.774 210.535 436.322 208.534 437.111ZM377.868 426.703C377.361 427.31 376.126 427.246 375.995 426.467C375.455 423.261 375.198 419.317 377.85 417.436L378.299 424.432C378.35 425.221 378.375 426.096 377.868 426.703ZM351.275 143.339C354.153 145.244 356.424 148.053 357.683 151.267C357.939 151.922 358.506 152.355 359.077 152.791C359.377 153.021 359.678 153.251 359.937 153.516C360.688 154.283 360.812 155.923 359.76 156.138C359.3 156.231 358.849 155.978 358.446 155.737C351.993 151.884 344.145 148.773 337.105 151.405C338.263 151.996 338.847 153.513 338.386 154.728C339.823 154.78 341.162 155.426 342.453 156.06L345.864 157.733L345.506 158.74C340.366 156.123 334.088 155.851 328.741 158.014C330.518 158.284 332.329 158.333 334.118 158.16L341.945 162.105C342.525 162.397 343.137 162.719 343.464 163.281C343.79 163.843 343.666 164.714 343.059 164.946C338.345 160.788 331.677 158.95 325.498 160.105C324.777 160.239 324.284 159.234 324.59 158.567C324.896 157.9 325.63 157.558 326.312 157.29C329.737 155.941 333.349 155.069 337.012 154.706C335.18 153.007 333.057 151.623 330.765 150.629C330.387 149.338 332.25 148.101 333.294 148.949C341.227 147.394 349.726 148.937 356.605 153.181C356.663 151.832 355.662 150.697 354.725 149.723L345.943 140.594C351.069 141.243 356.094 142.687 360.783 144.856C361.844 145.347 362.891 145.877 363.852 146.542C367.47 149.047 369.623 153.527 369.318 157.917C367.126 153.285 363.657 149.265 359.396 146.419C356.96 144.793 354.198 143.526 351.275 143.339ZM369.335 185.967C368.837 182.094 368.814 177.962 370.657 174.518C371.208 173.488 371.973 172.499 373.058 172.067C374.718 171.407 376.63 172.25 377.939 173.466C381.189 176.482 381.88 181.369 381.601 185.794C381.48 187.716 381.198 189.683 380.255 191.363C379.313 193.043 377.589 194.395 375.662 194.423C373.729 194.452 371.963 193.144 370.957 191.492C369.951 189.84 369.581 187.885 369.335 185.967ZM323.084 200.377C319.43 194.785 319.677 186.92 323.673 181.567C324.151 180.928 324.694 180.308 325.403 179.942C326.785 179.23 328.551 179.659 329.749 180.651C330.946 181.643 331.666 183.096 332.187 184.561C333.731 188.901 333.795 193.752 332.366 198.13C331.499 200.786 329.351 203.659 326.599 203.179C325.079 202.914 323.928 201.668 323.084 200.377ZM358.181 229.099C358.62 228.977 359.057 228.856 359.38 228.547C360.065 227.892 359.824 226.626 359.047 226.083C358.269 225.541 357.178 225.635 356.349 226.094C355.51 226.56 354.843 227.48 354.985 228.429C355.127 229.378 356.341 230.087 357.121 229.529C357.431 229.308 357.807 229.203 358.181 229.099ZM368.047 213.681C374.113 212.337 377.504 212.507 382.708 213.834L383.805 214.12C388.998 215.476 392.242 215.482 398.833 213.345C399.621 213.09 400.467 213.521 400.722 214.309C400.978 215.098 388.951 218.515 383.453 217.126L382.439 216.863C377.377 215.533 374.432 215.339 368.696 216.61C367.887 216.789 367.086 216.279 366.907 215.47C366.728 214.661 367.238 213.861 368.047 213.681ZM415.694 199.194C415.328 198.451 414.429 198.145 413.685 198.511C403.01 203.765 397.096 204.45 387.361 203.207L384.905 202.903C384.625 202.871 384.379 202.845 384.12 202.82L383.243 202.742C377.447 202.286 372.852 203.27 366.956 206.791C366.245 207.216 366.013 208.137 366.437 208.848C366.862 209.559 367.783 209.792 368.494 209.367C373.98 206.09 378.03 205.278 383.444 205.77C383.803 205.802 384.102 205.832 384.449 205.87L388.049 206.313C397.72 207.436 416.06 199.937 415.694 199.194ZM341.635 213.276C342.462 213.217 343.179 213.839 343.238 214.666C343.297 215.492 342.675 216.209 341.849 216.268C338.429 216.512 336.074 217.675 332.538 220.524L331.259 221.58L330.84 221.931C330.615 222.12 330.423 222.28 330.351 222.34C327.235 224.938 325.159 226.354 322.405 227.484C321.639 227.798 316.345 228.875 320.448 226.665C324.551 224.455 329.897 218.809 329.897 218.809L330.68 218.168C334.647 214.975 337.486 213.571 341.635 213.276ZM343.886 220.452C343.561 219.69 342.68 219.336 341.918 219.661C338.153 221.268 336.033 223.323 332.47 227.985L331.37 229.416C330.65 230.338 330.045 231.269 329.459 232.172C328.166 234.163 326.96 236.021 324.783 237.36C321.618 239.306 326.14 238.286 326.846 237.852C329.656 236.124 331.478 234.217 334.322 230.503L335.147 229.425C338.234 225.423 340.036 223.726 343.096 222.42C343.858 222.095 344.212 221.214 343.886 220.452Z" fill="#00160A"/>
<path fill-rule="evenodd" clip-rule="evenodd" d="M349.141 215.688C347.914 214.582 346.132 214.243 344.933 213.106C343.797 212.028 343.362 210.271 343.865 208.787C344.367 207.304 345.781 206.173 347.338 206.008C351.805 205.534 356.273 205.061 360.74 204.587C361.8 204.475 362.972 204.39 363.831 205.022C365.143 205.987 364.936 208.095 363.988 209.419C363.04 210.742 361.579 211.595 360.437 212.755C358.965 214.25 358.044 216.277 357.887 218.369C357.77 219.923 357.939 221.775 356.708 222.73C355.162 223.928 352.876 222.512 351.93 220.8C350.984 219.088 350.594 216.997 349.141 215.688H349.141Z" fill="#FFB61D"/>
<path fill-rule="evenodd" clip-rule="evenodd" d="M530.286 427.415C539.775 427.454 553.279 427.113 560.176 420.596C566.642 414.486 568.895 406.896 567.913 398.054C566.931 389.213 560.13 378.318 559.871 369.426C561.902 388.408 588.867 393.716 597.315 410.834C601.882 420.087 600.056 431.502 594.972 440.481C589.889 449.46 581.955 456.439 573.921 462.914C551.288 481.156 523.404 493.084 504.476 515.147C485.548 537.209 471.142 571.614 479.349 599.5C487.713 627.919 523.628 647.759 552.948 643.525C555.776 643.117 558.645 642.486 561.057 640.954C566.777 637.322 568.444 629.637 567.915 622.882C567.387 616.127 565.206 609.517 565.37 602.743C565.73 587.931 576.944 575.837 588.091 566.076C615.58 542.005 648.571 520.5 661.209 486.217C669.836 462.819 667.091 435.517 653.981 414.304C636.178 385.498 601.935 369.389 585.885 339.571C585.41 345.617 584.342 351.617 582.703 357.456C582.002 359.955 580.8 362.808 578.266 363.375C575.606 363.969 605.317 321.753 545.602 269.112C523.398 249.539 495.878 235.326 468.36 223C458.93 252.895 431.325 276.224 400.276 280.538C398.154 280.833 397.67 283.648 397.718 285.789C398.392 315.354 399.065 344.92 399.738 374.485C400.03 387.332 399.179 402.486 388.426 409.52C383.992 412.42 382.619 419.11 385.55 423.522C388.482 427.935 395.182 429.261 399.573 426.297C394.478 417.693 400.304 404.823 410.132 402.973C413.752 402.292 414.905 397.76 415.302 394.098C417.083 377.676 418.863 361.254 420.644 344.832C421.33 363.567 422.017 382.302 422.704 401.036C440.942 392.819 462.193 407.587 481.79 403.569C465.566 392.329 450.594 377.921 443.776 359.399C436.958 340.877 440.148 317.694 455.329 305.082C446.286 319.53 444.501 338.281 450.655 354.176C456.589 369.503 468.986 381.33 481.628 391.832C485.546 395.087 489.759 398.626 490.971 403.573C492.183 408.521 488.375 414.848 483.359 413.957C465.5 407.241 446.154 404.508 427.133 406.014C421.239 406.48 415.057 407.482 410.464 411.205C405.871 414.928 403.673 422.188 407.228 426.912C448.247 427.079 489.266 427.247 530.286 427.415Z" fill="white"/>
<path fill-rule="evenodd" clip-rule="evenodd" d="M552.514 643.103C555.342 642.694 558.211 642.063 560.623 640.532C566.344 636.9 568.01 629.215 567.482 622.46C566.953 615.704 564.772 609.095 564.936 602.321C565.296 587.509 576.511 575.415 587.658 565.654C615.146 541.583 648.137 520.077 660.776 485.795C665.836 472.069 602.296 514.043 567.482 563.461C542.951 598.282 540.394 644.853 552.514 643.103Z" fill="#E7EAEE"/>
<path fill-rule="evenodd" clip-rule="evenodd" d="M575.889 301.748C571.581 291.376 559.575 281.389 545.168 268.69C522.965 249.116 495.444 234.904 467.927 222.578C494.909 242.233 527.803 258.641 551.21 283.31C562.618 295.334 570.336 319.565 576.786 327.352C581.723 333.313 588.172 331.328 575.889 301.748Z" fill="#E7EAEE"/>
<path fill-rule="evenodd" clip-rule="evenodd" d="M385.755 297.68C386.734 295.543 387.422 285.683 382.267 285.683C379.052 289.333 379.382 296.338 385.755 297.68Z" fill="#FFB61D"/>
<path fill-rule="evenodd" clip-rule="evenodd" d="M229.374 320.928C217.671 324.025 204.521 326.383 197.095 335.943C198.706 336.99 200.929 336.172 202.318 334.843C203.706 333.515 204.614 331.751 205.985 330.405C210.335 326.134 218.996 328.393 220.707 334.244C222.657 331.673 226.927 333.219 228.961 335.724C230.995 338.229 232.247 341.556 235.074 343.111C237.627 338.841 242.381 336.313 247.204 335.093C252.027 333.873 257.05 333.76 261.985 333.135C270.329 332.078 278.482 329.529 285.942 325.645C285.488 326.576 316.397 313.173 344.681 311.23C365.335 309.811 384.76 319.25 388.708 321.33C391.314 305.868 393.752 289.167 386.684 275.17C387.261 281.604 388.36 287.991 389.965 294.249C390.902 297.903 386.421 301.278 382.794 300.242C379.166 299.206 377.025 295.226 376.902 291.456C376.779 287.685 378.229 284.062 379.654 280.569C380.767 277.84 381.881 275.11 382.994 272.381C383.492 271.161 383.998 269.901 383.989 268.583C383.965 264.84 380.055 262.457 376.578 261.07C369.943 258.423 362.973 256.614 355.888 255.701C353.972 255.454 351.774 255.361 350.387 256.706C332.451 274.115 309.708 285.561 287.351 296.737C268.585 306.118 249.656 315.562 229.374 320.928Z" fill="white"/>
<path fill-rule="evenodd" clip-rule="evenodd" d="M235.074 343.111C237.627 338.841 242.381 336.313 247.204 335.093C252.027 333.873 257.05 333.76 261.985 333.135C263.911 332.891 271.818 331.643 282.082 328.042C296.923 322.835 317.295 314.522 336.705 312.407C362.041 309.646 384.634 319.184 388.708 321.33C391.314 305.868 382.501 307.725 377.769 307.236C273.162 296.431 232.247 341.556 235.074 343.111Z" fill="#E7EAEE"/>
</svg>
