<svg width="750" height="750" viewBox="0 0 750 750" fill="none" xmlns="http://www.w3.org/2000/svg">
<rect width="750" height="750" fill="none"/>
<path fill-rule="evenodd" clip-rule="evenodd" d="M146.471 542.778C56.7134 480.509 164.212 397.996 137.952 299.331C111.693 200.666 48.0833 53.5536 299.029 105.973C553.289 159.086 714.55 227.476 676.44 439.316C638.33 651.157 236.229 605.046 146.471 542.778Z" />
<path fill-rule="evenodd" clip-rule="evenodd" d="M536.056 628.072C530.428 622.461 527.762 614.615 525.275 607.067C518.758 616.504 504.21 616.808 494.219 611.177C484.229 605.546 477.486 595.713 470.313 586.766C457.469 570.746 402.451 531.185 401.547 519.249C401.067 512.919 419.476 501.395 419.476 501.395L386.396 481.932C386.396 481.932 369.24 495.093 359.376 496.658C331.934 501.01 312.525 498.419 312.502 503.358C312.418 521.228 420.535 611.888 386.058 611.177C334.315 610.11 239.81 509.398 209.197 501.395C196.377 498.044 108.447 503.358 108.447 482.074C108.447 453.488 186.986 433.82 186.986 433.82C186.986 433.82 166.517 364.794 191.292 308.348C196.966 295.421 203.991 280.401 204.675 267.699C204.863 264.215 303.913 170.394 316.638 165.707C346.307 154.778 377.866 149.003 409.483 148.716C413.697 148.677 533.872 165.707 587.912 254.906C597.678 271.026 642.042 390.741 596.999 465.837C589.893 477.684 590.764 492.388 595.677 505.431C600.59 518.474 606.631 532.982 601.063 545.76C598.023 525.288 592.684 505.159 585.177 485.872C574.71 493.482 580.01 509.856 586.25 521.193C594.114 535.48 601.978 549.767 609.841 564.054C613.112 569.995 616.493 576.543 615.317 583.222C613.971 590.86 607.165 596.144 600.861 600.662C586.469 610.976 572.076 621.29 557.683 631.604C551.224 636.233 541.684 633.683 536.056 628.072Z" fill="white"/>
<path fill-rule="evenodd" clip-rule="evenodd" d="M341.632 311.942C342.735 308.958 346.703 307.725 349.631 308.969C352.558 310.212 354.376 313.322 354.834 316.469C355.293 319.617 354.597 322.816 353.701 325.868C352.884 328.651 351.898 331.385 350.75 334.049C350.643 334.296 350.5 334.573 350.237 334.632C349.957 334.695 349.699 334.477 349.497 334.273C344.522 329.233 341.523 322.292 341.262 315.214C341.222 314.11 341.25 312.978 341.632 311.942ZM350.233 312.67C349.416 311.97 348.363 311.512 347.288 311.544C344.779 311.62 343.028 314.357 343.084 316.866C343.14 319.376 344.477 321.654 345.774 323.803C346.703 325.341 347.632 326.88 348.561 328.419C348.878 328.943 349.501 329.542 349.994 329.178C350.193 329.032 350.27 328.775 350.335 328.537C350.715 327.139 351.096 325.741 351.476 324.343C352.02 322.344 352.568 320.313 352.534 318.242C352.5 316.171 351.805 314.018 350.233 312.67L350.233 312.67Z" fill="#FFB61D"/>
<path fill-rule="evenodd" clip-rule="evenodd" d="M348.592 320.702C347.98 320.875 347.313 320.842 346.722 320.611C345.574 320.164 344.781 318.934 344.848 317.704C344.914 316.474 345.835 315.337 347.024 315.016C348.826 314.53 350.856 316.19 350.736 318.053C350.658 319.262 349.758 320.374 348.592 320.702Z" fill="#FFB61D"/>
<path fill-rule="evenodd" clip-rule="evenodd" d="M381.438 613.19C383.496 613.461 382.736 616.655 381.401 618.245C368.647 633.428 351.996 645.309 333.49 652.43C329.34 654.026 325.046 655.399 320.61 655.704C312.384 656.271 304.188 653.058 297.683 647.991C291.177 642.923 286.22 636.112 282.18 628.923C271.132 609.264 266.501 586.065 269.153 563.671C269.402 561.564 270.84 558.768 272.782 559.624C272.219 567.111 272.132 574.634 272.521 582.132C272.903 589.497 273.753 596.882 275.868 603.947C277.826 610.488 280.838 616.659 283.979 622.722C287.208 628.953 290.629 635.167 295.292 640.413C299.955 645.659 306.007 649.922 312.892 651.282C321.524 652.987 330.383 650.013 338.341 646.261C354.845 638.48 369.651 627.118 381.438 613.19Z" fill="#00160A"/>
<path fill-rule="evenodd" clip-rule="evenodd" d="M441.15 527.857C456.139 513.11 471.128 498.364 486.116 483.617C486.956 482.791 488.198 481.91 489.19 482.543C490.514 483.388 489.455 485.42 488.339 486.524C472.207 502.479 456.074 518.434 439.941 534.389C438.779 533.799 438.441 532.209 438.85 530.972C439.26 529.734 440.221 528.771 441.15 527.857H441.15Z" fill="#00160A"/>
<path fill-rule="evenodd" clip-rule="evenodd" d="M326.403 443.045C325.49 443.203 324.576 443.361 323.662 443.519C321.888 440.857 320.073 438.095 319.517 434.945C318.96 431.796 320.002 428.13 322.798 426.576C325.961 424.818 326.915 420.494 325.907 417.018C324.899 413.542 322.403 410.725 319.957 408.057C317.474 405.348 313.491 402.471 310.542 404.666C308.62 406.097 305.743 405.288 304.023 403.62C302.303 401.952 301.393 399.647 300.28 397.525C298.175 393.51 295.106 389.888 291.091 387.783C287.076 385.678 282.051 385.261 278.01 387.315C274.001 389.353 271.472 393.408 268.055 396.331C264.638 399.255 258.995 400.808 255.916 397.53C255.133 396.696 254.608 395.46 255.053 394.407C255.498 393.353 257.225 392.991 257.777 393.993C259.182 396.546 263.066 396.509 265.494 394.898C267.923 393.288 269.443 390.655 271.435 388.528C275.332 384.369 281.256 382.203 286.917 382.868C292.578 383.534 297.838 387.013 300.665 391.963C302.027 394.348 302.867 397.06 304.645 399.153C306.424 401.246 309.656 402.528 311.937 400.999C314.514 399.271 317.876 401.418 320.137 403.542C323.198 406.416 326.18 409.522 327.903 413.351C329.627 417.179 329.9 421.89 327.648 425.433C325.773 428.382 322.185 430.771 322.496 434.252C322.786 437.498 326.521 439.788 326.403 443.045Z" fill="#00160A"/>
<path fill-rule="evenodd" clip-rule="evenodd" d="M365.97 296.878C371.458 299.447 376.34 303.556 379.161 308.918C381.982 314.281 382.556 320.94 380.027 326.446C374.795 337.836 358.158 342.27 356.323 354.67C355.856 357.828 356.492 361.111 355.712 364.207C355.172 366.346 353.991 368.256 353.046 370.249C351.018 374.526 350.061 379.305 350.284 384.033C348.169 385.178 345.683 382.74 345.413 380.351C345.143 377.962 346.099 375.589 346.048 373.185C345.952 368.666 342.456 365.069 339.474 361.673C335.002 356.578 331.116 350.579 330.389 343.839C330.155 341.667 330.254 339.451 329.766 337.322C329.24 335.033 328.063 332.956 327.024 330.85C324.219 325.168 322.321 318.611 324.047 312.515C325.774 306.419 332.211 301.375 338.321 303.053C340.056 303.53 341.754 304.503 343.535 304.238C346.661 303.771 347.922 300.042 350.102 297.752C354.008 293.647 360.838 294.475 365.97 296.878M339.399 356.12C342.864 360.678 346.328 365.236 349.793 369.794C353.767 365.61 352.123 358.841 353.331 353.198C354.977 345.511 361.853 340.293 367.81 335.164C373.768 330.035 379.683 323.018 378.345 315.272C377.27 309.047 371.838 304.624 366.63 301.05C363.694 299.035 360.305 297.008 356.803 297.656C353.262 298.31 350.836 301.45 348.285 303.991C345.734 306.532 341.887 308.74 338.694 307.075C334.201 304.731 328.481 308.729 327.213 313.635C325.945 318.542 327.768 323.675 329.769 328.33C331.771 332.986 334.028 337.811 333.648 342.864C333.278 347.781 336.415 352.194 339.399 356.12Z" fill="#00160A"/>
<path fill-rule="evenodd" clip-rule="evenodd" d="M63.0306 251.418C62.8057 250.809 63.8742 250.637 64.4471 250.943C64.4224 251.577 63.4481 251.898 63.0521 251.402L63.0306 251.418Z" fill="#00160A"/>
<path fill-rule="evenodd" clip-rule="evenodd" d="M478.594 501.054C479.77 501.218 480.395 502.666 480.128 503.823C479.86 504.98 478.989 505.887 478.154 506.731C471.402 513.556 464.649 520.381 457.896 527.207C457.398 527.711 456.812 528.252 456.103 528.229C455.15 528.199 454.527 527.097 454.643 526.151C454.76 525.205 455.382 524.409 455.985 523.67C462.194 516.073 468.932 508.909 476.135 502.245C476.827 501.605 477.66 500.924 478.594 501.054V501.054Z" fill="#00160A"/>
<path fill-rule="evenodd" clip-rule="evenodd" d="M280.045 402.347C283.765 402.684 286.626 406.18 287.265 409.861C287.903 413.541 286.756 417.304 285.2 420.7C284.342 422.571 283.357 424.384 282.252 426.121C281.458 427.37 280.446 428.684 278.985 428.926C276.546 429.331 274.833 426.646 273.892 424.36C272.567 421.142 271.352 417.879 270.248 414.579C269.706 412.958 269.185 411.253 269.462 409.567C269.885 406.99 272.076 405.061 274.371 403.814C276.113 402.868 278.071 402.168 280.045 402.347M276.55 421.3C276.835 421.745 277.139 422.201 277.587 422.483C277.953 422.715 278.403 422.812 278.833 422.752C279.939 422.599 280.65 421.533 281.215 420.569C282.694 418.048 284.213 415.401 284.379 412.483C284.545 409.564 282.887 406.317 280.026 405.715C276.679 405.011 273.56 408.365 273.276 411.774C272.992 415.183 274.703 418.42 276.55 421.3Z" fill="#FFB61D"/>
<path fill-rule="evenodd" clip-rule="evenodd" d="M279.885 409.264C280.803 409.561 281.595 410.231 282.039 411.088C282.434 411.851 282.553 412.753 282.369 413.592C281.944 415.53 279.754 416.882 277.831 416.395C275.909 415.907 274.627 413.675 275.176 411.769C275.725 409.863 277.997 408.654 279.885 409.264ZM279.459 413.286C280.159 412.917 279.534 411.575 278.801 411.875C278.234 411.95 277.858 412.664 278.117 413.174C278.377 413.685 279.175 413.802 279.571 413.388L279.459 413.286Z" fill="#FFB61D"/>
<path fill-rule="evenodd" clip-rule="evenodd" d="M476.788 445.936C474.714 443.696 472.849 441.262 471.227 438.676C470.709 437.849 471.783 436.773 472.751 436.902C473.718 437.031 474.429 437.842 475.046 438.598C477.195 441.234 479.344 443.87 481.493 446.505C481.246 447.446 480.059 447.872 479.119 447.622C478.179 447.372 477.449 446.649 476.788 445.936L476.788 445.936Z" fill="#00160A"/>
<path fill-rule="evenodd" clip-rule="evenodd" d="M547.596 568.064C547.619 568.372 547.506 568.671 547.389 568.957C546.208 571.83 544.452 574.465 542.254 576.66C538.756 580.152 534.016 582.739 532.143 587.313C531.7 588.396 530.045 588.553 529.185 587.759C528.325 586.965 528.207 585.602 528.588 584.495C528.969 583.389 529.756 582.476 530.525 581.594C533.032 578.72 535.539 575.845 538.046 572.971C539.967 570.768 541.972 568.501 544.634 567.293C545.729 566.796 547.503 566.865 547.596 568.064V568.064Z" fill="#00160A"/>
<path fill-rule="evenodd" clip-rule="evenodd" d="M479.343 433.967C481.817 436.874 484.291 439.781 486.766 442.689C487.181 443.177 487.621 443.732 487.593 444.373C487.549 445.369 486.326 445.963 485.356 445.731C484.387 445.498 483.654 444.724 483.003 443.969C480.907 441.537 479.029 438.917 477.4 436.15C476.765 435.071 476.518 433.185 477.759 433.024C478.396 432.941 478.926 433.478 479.343 433.967L479.343 433.967Z" fill="#00160A"/>
<path fill-rule="evenodd" clip-rule="evenodd" d="M450.845 450.172C450.469 449.644 450.08 448.955 450.398 448.389C450.923 447.456 452.348 448.18 453.059 448.981C455.573 451.817 457.713 454.983 459.406 458.374C457.793 459.19 456.079 457.529 455.031 456.056C453.636 454.095 452.24 452.134 450.845 450.172Z" fill="#00160A"/>
<path fill-rule="evenodd" clip-rule="evenodd" d="M453.074 458.52C454.081 459.567 455.099 461.288 454.051 462.294C452.984 463.316 451.278 462.163 450.335 461.025C448.055 458.272 446.073 455.273 444.433 452.097C445.485 451.194 447.044 452.245 448.005 453.245C449.695 455.003 451.384 456.762 453.074 458.52Z" fill="#00160A"/>
<path fill-rule="evenodd" clip-rule="evenodd" d="M455.817 448.213C455.362 447.543 454.934 446.623 455.428 445.981C456.133 445.064 457.566 445.906 458.355 446.752C460.644 449.205 462.934 451.659 465.223 454.113C465.121 455 464.082 455.531 463.199 455.4C462.315 455.269 461.58 454.673 460.918 454.074C458.994 452.332 457.277 450.36 455.817 448.213L455.817 448.213Z" fill="#00160A"/>
<path fill-rule="evenodd" clip-rule="evenodd" d="M470.25 442.771C471.675 444.59 473.101 446.409 474.527 448.228C475.092 448.949 475.689 449.875 475.32 450.714C474.965 451.523 473.842 451.736 473.03 451.388C472.217 451.041 471.649 450.305 471.119 449.599C469.631 447.612 468.157 445.616 466.697 443.609C466.374 443.166 466.036 442.668 466.085 442.122C466.167 441.213 467.331 440.741 468.201 441.019C469.07 441.296 469.686 442.053 470.25 442.771H470.25Z" fill="#00160A"/>
<path fill-rule="evenodd" clip-rule="evenodd" d="M469.176 451.16C469.471 451.482 469.787 451.857 469.755 452.293C469.713 452.874 469.031 453.235 468.455 453.148C467.878 453.062 467.402 452.668 466.968 452.278C464.123 449.719 461.725 446.665 459.915 443.294C460.271 442.367 461.671 442.996 462.343 443.727C464.621 446.205 466.898 448.682 469.176 451.16Z" fill="#00160A"/>
<path fill-rule="evenodd" clip-rule="evenodd" d="M496.808 434.756C497.03 435.012 497.264 435.304 497.25 435.642C497.23 436.152 496.623 436.472 496.12 436.386C495.616 436.299 495.209 435.94 494.834 435.593C492.155 433.118 489.593 430.517 487.158 427.801C488.019 426.644 489.837 427.572 490.882 428.565C492.954 430.534 494.932 432.6 496.808 434.756V434.756Z" fill="#00160A"/>
<path fill-rule="evenodd" clip-rule="evenodd" d="M488.32 437.23C486.822 435.178 485.324 433.126 483.826 431.074C483.551 430.698 483.262 430.241 483.409 429.799C483.7 428.929 485.02 429.317 485.73 429.896C487.983 431.734 489.895 433.989 491.341 436.511C491.622 437.001 491.892 437.58 491.693 438.108C491.441 438.78 490.52 438.978 489.859 438.696C489.199 438.415 488.743 437.809 488.32 437.23L488.32 437.23Z" fill="#00160A"/>
<path fill-rule="evenodd" clip-rule="evenodd" d="M500.275 429.69C498.795 428.099 497.315 426.507 495.835 424.916C495.308 424.349 495.946 423.343 496.716 423.26C497.486 423.178 498.19 423.664 498.8 424.141C499.923 425.018 501.005 425.946 502.044 426.921C502.618 427.461 503.201 428.051 503.417 428.808C503.634 429.566 503.337 430.528 502.592 430.786C501.735 431.081 500.892 430.354 500.275 429.69L500.275 429.69Z" fill="#00160A"/>
<path fill-rule="evenodd" clip-rule="evenodd" d="M497.403 432.841C495.355 430.74 493.393 428.555 491.524 426.294C491.199 425.9 490.855 425.415 490.994 424.923C491.15 424.368 491.877 424.151 492.423 424.336C492.969 424.522 493.369 424.982 493.741 425.422C495.453 427.448 497.165 429.474 498.877 431.5C499.34 432.048 499.796 432.91 499.27 433.398C498.74 433.89 497.908 433.359 497.403 432.841V432.841Z" fill="#00160A"/>
<path fill-rule="evenodd" clip-rule="evenodd" d="M594.839 562.689C597.151 561.975 603.004 560.387 605.316 559.674C606.352 559.355 607.892 559.313 608.086 560.38C608.246 561.258 607.237 561.855 606.391 562.139C604.056 562.924 598.1 564.344 595.654 564.639C594.784 564.744 593.519 564.42 593.696 563.561C593.797 563.067 594.357 562.837 594.839 562.689Z" fill="#00160A"/>
<path fill-rule="evenodd" clip-rule="evenodd" d="M336.523 466.006C340.183 466.059 344.51 466.911 345.97 470.268C347.341 473.421 345.185 477.211 342.161 478.847C339.137 480.484 335.535 480.524 332.097 480.52C285.187 480.46 238.279 479.327 191.42 477.124C188.5 476.987 188.224 472.773 188.891 469.927C189.289 468.229 189.737 466.438 190.962 465.196C192.725 463.409 195.521 463.287 198.031 463.279C231.717 463.171 265.464 463.065 299.008 466.164C304.321 466.655 309.64 467.227 314.975 467.175C322.17 467.105 329.328 465.901 336.523 466.006M341.776 474.521C342.562 472.987 341.405 471.036 339.832 470.332C338.259 469.627 336.45 469.81 334.735 469.979C312.745 472.142 290.605 469.646 268.547 468.356C252.514 467.419 236.451 467.121 220.394 466.823C213.7 466.698 207.006 466.574 200.312 466.45C198.177 466.41 195.837 466.438 194.197 467.806C192.556 469.173 192.501 472.397 194.537 473.041C194.905 473.158 195.296 473.178 195.682 473.196C242.81 475.488 289.999 476.516 337.182 476.28C338.912 476.271 340.987 476.06 341.776 474.521V474.521Z" fill="#00160A"/>
<path fill-rule="evenodd" clip-rule="evenodd" d="M306.575 503.923C310.758 513.08 319.77 519.859 329.728 521.339C334.413 522.036 337.612 526.297 340.28 530.211C343.053 534.278 345.087 541.173 340.503 542.969C358.294 562.588 376.085 582.206 393.876 601.825C395.942 604.104 397.95 607.908 395.554 609.837C394.664 610.554 393.444 610.667 392.302 610.705C377.645 611.196 363.814 604.335 351.129 596.975C332.862 586.375 315.416 574.362 298.997 561.079C287.002 551.374 269.769 548.598 255.333 554.044C247.844 556.87 238.455 551.11 237.581 543.153C236.707 535.196 244.621 527.535 252.545 528.668C240.632 510.991 219.325 500.067 198.018 500.711C172.302 501.488 146.482 498.789 121.482 492.712C119.286 492.179 116.928 491.512 115.551 489.721C112.804 486.148 115.685 481.07 118.704 477.724C140.945 453.076 175.166 439.779 208.214 442.944C209.622 443.079 210.388 441.369 210.718 439.993C219.119 404.983 227.52 369.972 235.92 334.961C236.933 330.739 243.359 330.156 246.543 333.107C249.727 336.059 250.427 340.764 250.794 345.09C253.53 377.339 248.752 412.057 264.783 440.172C265.53 441.482 266.373 442.823 267.685 443.566C268.977 444.299 270.533 444.343 272.019 444.37C301.701 444.896 331.383 445.422 361.065 445.947C364.763 446.013 369.304 445.573 370.798 442.189C374.626 433.519 378.455 424.849 382.283 416.178C383.501 413.42 385.181 410.29 388.162 409.836C392.431 409.185 395.133 414.548 394.994 418.864C394.856 423.181 393.404 427.767 395.306 431.645C402.279 424.233 409.371 416.726 418.09 411.479C426.81 406.232 437.52 403.444 447.298 406.264C438.654 420.008 430.009 433.752 421.365 447.497C428.585 452.274 429.154 464.357 422.415 469.792C419.538 472.113 421.821 476.692 424.204 479.518C431.672 488.369 439.14 497.22 446.607 506.072C440.233 509.027 432.81 505.985 426.543 502.81C415.342 497.135 404.408 490.933 393.79 484.231C388.637 480.979 382.958 487.076 378.281 490.982C370.857 497.182 360.607 498.417 350.984 499.398C336.181 500.906 321.378 502.415 306.575 503.923ZM332.396 484.683C341.49 485.181 350.757 485.811 359.581 483.556C368.617 481.248 376.84 475.874 382.581 468.525C383.975 466.741 386.417 466.236 388.649 465.852C396.354 464.526 404.468 463.23 411.829 465.866C415.149 467.055 419.201 465.694 421.13 462.741C423.059 459.787 422.677 455.53 420.254 452.967C417.631 452.895 417.153 456.617 415.762 458.842C413.934 461.765 409.948 462.241 406.505 462.414C393.874 463.049 381.244 463.684 368.613 464.319C365.547 464.473 361.323 463.581 361.415 460.512C361.455 459.162 362.442 458.046 363.408 457.103C366.8 453.792 370.67 450.974 374.862 448.763C323.577 449.152 272.285 448.575 221.022 447.034C195.814 446.276 168.933 445.702 147.454 458.917C145.449 460.151 143.881 463.789 146.207 464.148C153.059 465.205 159.911 466.262 166.763 467.319C167.579 467.445 168.452 467.599 169.043 468.176C170.813 469.905 168.333 472.686 166.052 473.647C156.639 477.609 145.424 477.005 136.492 472.053C134.468 470.931 132.066 469.566 130.004 470.617C127.513 471.886 127.855 475.891 129.968 477.722C132.082 479.553 135.092 479.81 137.882 479.983C162.952 481.53 188.022 483.077 213.091 484.624C220.138 485.058 227.207 485.493 234.253 485.054C266.923 483.018 299.712 482.894 332.396 484.683ZM368.991 581.87C360.217 569.797 350.222 558.613 339.209 548.541C335.603 545.244 332.427 541.511 329.261 537.789C315.418 521.515 301.576 505.241 287.733 488.967C286.351 487.343 283.962 487.129 281.83 487.062C263.649 486.485 245.408 487.837 227.51 491.085C226.187 491.325 224.759 491.635 223.885 492.658C221.859 495.028 224.391 498.493 226.766 500.515C250.53 520.749 275.168 539.957 300.587 558.069C305.265 561.402 310.013 564.723 315.296 566.978C325.263 571.235 335.23 575.491 345.196 579.747C352.822 583.004 361.912 586.188 368.991 581.87M249.971 402.195C249.605 397.441 249.603 392.604 248.296 388.018C245.942 379.758 239.666 373.271 233.419 367.376C232.934 366.918 232.295 366.426 231.669 366.655C231.099 366.864 230.893 367.547 230.763 368.139C226.107 389.342 221.451 410.545 216.795 431.748C215.917 435.749 215.033 439.807 215.223 443.9C231.546 444.106 247.869 444.312 264.193 444.517C256.06 431.871 251.125 417.186 249.971 402.195ZM441.763 409.236C431.624 408.37 421.181 412.097 413.881 419.187C400.51 432.173 386.231 444.225 371.184 455.225C369.123 456.731 366.916 458.4 366.217 460.854C378.824 460.286 391.431 459.717 404.038 459.148C407.362 458.998 411.276 458.5 412.866 455.576C421.565 439.573 431.221 424.09 441.763 409.236ZM118.177 484.306C117.834 485.041 117.529 485.859 117.72 486.647C118.057 488.041 119.685 488.621 121.079 488.959C149.266 495.799 178.509 496.68 207.502 497.528C210.387 497.613 213.38 497.677 216.029 496.532C218.678 495.386 220.88 492.662 220.449 489.808C201.603 487.196 182.581 485.858 163.555 485.806C152.157 485.774 140.435 486.152 129.75 482.185C127.172 481.228 124.255 479.309 124.583 476.579C121.838 478.555 119.61 481.243 118.177 484.306ZM386.961 479.216C385.949 477.022 383.1 476.21 380.737 476.717C378.375 477.223 376.369 478.72 374.388 480.103C369.815 483.295 364.87 486.112 359.443 487.399C354.712 488.52 349.789 488.44 344.928 488.354C327.18 488.04 309.432 487.725 291.684 487.411C295.636 493.308 301.053 499.933 308.11 499.158C321.915 497.642 335.899 498.004 349.639 495.977C363.378 493.949 377.299 489.192 386.961 479.216ZM428.023 494.398C428.669 494.311 429.422 494.095 429.625 493.476C429.795 492.956 429.484 492.412 429.181 491.957C424.069 484.265 417.773 477.445 411.506 470.662C410.55 469.627 409.553 468.562 408.254 468.016C406.91 467.451 405.395 467.505 403.941 467.613C397.997 468.059 392.11 469.271 386.472 471.211C386.012 471.369 385.477 471.623 385.425 472.107C385.384 472.484 385.666 472.811 385.931 473.081C391.854 479.102 399.263 483.404 406.575 487.631C413.192 491.457 420.449 495.419 428.023 494.398ZM259.484 533.076C258.932 532.648 258.344 532.206 257.651 532.116C257.089 532.043 256.527 532.213 255.986 532.381C254.733 532.77 253.48 533.159 252.228 533.547C251 533.928 249.467 535.057 250.175 536.13C252.384 539.475 253.281 543.662 252.635 547.618C252.426 548.901 254.272 549.361 255.569 549.269C262.275 548.796 268.98 548.322 275.686 547.849C276.385 547.799 277.329 547.445 277.166 546.763C271.272 542.201 265.378 537.638 259.484 533.076ZM374.382 442.39C373.911 443.622 375.167 444.96 376.479 445.096C377.791 445.232 379.039 444.569 380.192 443.928C384.347 441.615 388.828 438.929 390.397 434.44C390.909 432.978 391.067 431.419 391.221 429.877C391.485 427.232 391.75 424.586 392.014 421.94C392.073 421.353 392.121 420.717 391.81 420.215C391.499 419.713 390.674 419.51 390.329 419.989C388.935 421.925 386.889 423.383 384.603 424.067C383.614 424.363 382.552 424.533 381.719 425.143C380.727 425.868 380.24 427.08 379.8 428.228C377.994 432.949 376.188 437.669 374.382 442.39ZM333.065 527.171C331.255 523.795 326.267 522.66 323.174 524.922C327.161 528.037 329.41 532.844 332.794 536.606C333.958 537.9 335.472 539.152 337.21 539.038C338.948 538.924 340.384 536.602 339.153 535.37C336.737 532.954 334.679 530.182 333.065 527.171ZM244.421 536.38C241.729 539.008 242.646 543.457 243.757 547.051C244.131 548.263 245.325 549.77 246.316 548.978C246.652 548.709 246.772 548.259 246.873 547.84C247.37 545.775 247.87 543.662 247.648 541.55C247.426 539.438 246.338 537.292 244.421 536.38Z" fill="#00160A"/>
<path fill-rule="evenodd" clip-rule="evenodd" d="M542.056 633.072C536.428 627.461 533.762 619.615 531.275 612.067C524.758 621.504 516.305 628.203 506.315 622.572C496.324 616.941 483.486 600.713 476.313 591.766C463.469 575.746 448.211 561.665 431.214 550.145C440.291 560.104 445.72 573.319 446.264 586.783C453.15 586.712 460.036 586.64 466.922 586.568C443.771 594.457 418.97 597.464 394.605 595.334C407.844 584.201 418.197 569.664 424.39 553.513C423.008 549.142 416.441 550.155 412.607 552.665C408.772 555.175 403.81 558.362 400.116 555.648C395.569 552.308 395.882 541.845 390.482 543.481C376.463 547.729 359.844 539.29 355.001 525.465C351.694 527.532 348.388 529.599 345.081 531.666C343.489 526.544 350.861 522.587 355.83 524.607C360.798 526.627 363.71 531.652 367.155 535.763C370.6 539.873 376.129 543.502 381.046 541.36C390.209 537.369 402.261 544.577 403.079 554.538C410.185 548.836 419.931 546.575 428.821 548.567C423.15 540.352 416.821 532.591 409.914 525.383C415.165 518.386 421.657 512.324 428.997 507.565C425.395 514.375 420.401 520.446 414.414 525.295C445.122 555.401 475.83 585.508 506.539 615.614C508.472 617.509 510.688 619.529 513.395 619.566C516.361 619.607 518.753 617.271 520.775 615.101C535.187 599.634 549.6 584.168 564.013 568.702C567.767 564.672 571.718 560.23 572.282 554.751C572.989 547.87 568.185 541.768 563.599 536.59C545.144 515.756 525.509 495.968 504.819 477.352C495.744 469.187 483.78 460.697 472.364 465.02C458.589 470.237 455.311 490.968 441.161 495.063C445.392 489.248 449.623 483.433 453.853 477.618C445.465 471.55 434.974 458.008 434.428 447.67C441.161 441.536 449.463 436.891 456.348 433.33C449.463 417.118 450.28 413.747 459.488 411.533C468.697 409.319 476.674 407.125 485.136 404.295C508.598 396.448 519.796 359.244 500.103 343.791C489.269 335.29 408.071 251.841 373.208 221.074C375.848 232.85 360.335 243.953 350.04 237.655C352.015 244.443 347.267 252.658 340.255 253.553C333.242 254.449 326.401 246.673 328.856 240.043C330.969 234.337 337.729 231.976 341.654 227.326C345.579 222.677 342.155 212.458 336.82 215.385C334.003 226.725 317.419 231.556 308.952 223.504C305.971 220.669 302.066 219.972 298.074 220.642C293.183 221.462 284.722 223.361 281.104 226.868C275.436 232.363 274.157 240.389 267.408 244.118C266.333 244.713 265.205 245.223 264.014 245.629C255.351 248.581 243.222 240.008 247.72 232.037C223.07 254.765 206.149 285.728 200.332 318.748C213.197 322.416 215.64 339.312 215.604 352.69C201.09 356.373 214.743 384.077 202.191 392.24C187.881 401.547 191.86 423.188 197.526 439.289C183.021 408.073 181.276 371.149 192.772 338.704C191.636 359.288 190.5 379.872 189.363 400.456C199.096 399.032 203.027 387.171 203.832 377.368C204.637 367.564 205.249 356.029 213.491 350.661C210.414 342.818 209.152 334.269 209.83 325.871C206.248 324.714 202.666 323.558 199.084 322.402C196.932 337.557 180.099 345.012 166.218 351.465C151.232 358.432 137.134 367.304 124.37 377.8C110.679 389.059 97.641 404.538 99.1573 422.198C100.615 439.179 115.248 452.164 130.61 459.545C114.16 459.508 100.04 444.874 97.3883 428.638C94.7365 412.403 101.811 395.701 112.871 383.523C123.93 371.345 138.596 363.067 153.468 356.034C172.943 346.824 196.565 334.879 197.292 313.348C197.897 295.4 217.583 277.81 208.152 262.527C194.906 241.06 187.518 216.018 186.99 190.799C186.729 178.358 189 164.274 199.199 157.143C204.277 153.593 210.594 152.354 216.749 151.647C239.575 149.026 263.091 152.683 284.043 162.114C296.409 167.679 309.913 175.394 322.638 170.707C352.307 159.778 383.866 154.003 415.483 153.716C419.697 153.677 423.196 150.583 426.13 147.557C437.678 135.652 447.314 121.876 459.881 111.052C472.447 100.228 489.164 92.4356 505.408 95.7854C522.413 99.2924 535.108 114.436 540.663 130.886C546.218 147.337 545.903 165.109 545.528 182.467C544.856 213.555 583.849 230.485 593.912 259.906C599.845 277.252 619.42 285.291 637.025 290.409C654.629 295.526 674.349 301.196 683.423 317.127C691.874 331.965 687.695 351.403 677.718 365.261C667.742 379.12 652.97 388.615 638.559 397.776C615.228 412.609 621.777 450.545 602.999 470.837C593.533 481.066 596.764 497.388 601.677 510.431C606.59 523.474 612.631 537.982 607.063 550.76C604.023 530.288 598.684 510.159 591.177 490.872C580.71 498.482 586.01 514.856 592.25 526.193C600.114 540.48 607.978 554.767 615.841 569.054C619.112 574.995 622.493 581.543 621.317 588.222C619.971 595.86 613.165 601.144 606.861 605.662C592.469 615.976 578.076 626.29 563.683 636.604C557.224 641.233 547.684 638.683 542.056 633.072ZM572.773 501.392C571.51 499.971 569.2 500.665 567.475 501.461C565.746 502.26 564.017 503.058 562.289 503.857C561.91 504.032 561.491 504.211 561.089 504.101C560.33 503.895 560.203 502.771 560.679 502.146C561.156 501.521 561.963 501.27 562.711 501.027C564.304 500.51 565.858 499.875 567.358 499.128C568.215 498.702 569.135 498.138 569.368 497.209C569.601 496.281 568.535 495.152 567.747 495.696C565.426 497.295 562.816 498.472 560.081 499.152C559.261 499.355 557.982 499.099 558.175 498.276C558.249 497.961 558.542 497.754 558.816 497.581C561.256 496.047 563.919 494.868 566.695 494.092C567.695 493.813 567.446 492.131 566.494 491.718C565.541 491.305 564.453 491.723 563.501 492.138C561.2 493.141 558.899 494.144 556.598 495.147C556.104 495.363 555.55 495.645 555.418 496.168C555.3 496.636 555.571 497.106 555.831 497.513C557.504 500.132 559.176 502.75 560.849 505.369C561.104 505.768 561.393 506.195 561.843 506.341C562.332 506.5 562.855 506.28 563.321 506.062C566.506 504.576 569.657 503.018 572.773 501.392ZM415.558 216.53C410.142 216.623 406.074 210.465 407.082 205.143C408.09 199.82 412.875 195.837 418.057 194.259C425.099 192.115 433.507 193.37 439.12 188.607C441.641 186.468 443.18 183.395 445.477 181.016C450.482 175.83 459.188 174.732 465.324 178.515C466.701 174.9 462.625 171.405 458.811 170.761C454.996 170.117 450.883 170.886 447.369 169.268C441.196 166.426 433.928 170.077 428.987 174.743C424.047 179.41 419.996 185.288 413.907 188.305C407.818 191.322 398.605 189.639 396.931 183.053C396.409 181.001 396.345 178.282 394.343 177.59C391.186 176.498 389.544 172.813 389.732 169.478C389.919 166.143 391.518 163.074 393.082 160.122C386.896 159.811 380.684 160.003 374.529 160.696C373.052 160.862 371.175 161.486 371.178 162.971C371.185 166.042 368.334 168.245 365.773 169.938C360.351 173.522 354.929 177.106 349.507 180.69C349.677 184.269 354.955 185.126 358.046 183.313C361.137 181.5 363.315 178.259 366.648 176.942C368.428 176.238 370.382 176.152 372.295 176.074C375.561 175.941 378.828 175.808 382.094 175.675C386.28 175.505 391.927 176.568 392.149 180.751C392.33 184.182 388.521 186.186 386.082 188.607C380.531 194.115 380.551 204.777 373.266 207.621C370.677 208.631 369.981 212.217 371.116 214.754C372.252 217.29 374.62 219.014 376.861 220.658C415.969 249.353 484.097 323.333 485.588 323.53C487.078 323.728 488.827 322.658 488.744 321.157C488.528 317.275 488.319 313.322 489.269 309.552C490.218 305.782 492.523 302.153 496.077 300.576C499.353 299.124 504.119 298.795 504.828 295.282C506.414 287.425 514.28 281.349 522.284 281.798C526.216 282.019 530.555 283.52 533.828 281.328C531.188 278.825 527.288 278.308 524.016 276.719C520.744 275.13 517.866 271.107 519.821 268.039C522.708 263.509 518.502 257.585 519.367 252.282C519.734 250.032 521.005 248.04 522.349 246.198C526.904 239.955 532.658 234.589 539.204 230.48C540.726 229.525 541.107 227.513 541.347 225.732C541.926 221.433 542.504 217.133 543.083 212.833C543.487 209.833 543.76 206.391 541.702 204.172C535.003 196.951 523.85 196.714 514.005 197.036C504.16 197.357 493.036 197.23 486.216 190.123C484.099 187.917 480.234 188.667 477.938 190.686C475.642 192.705 474.373 195.612 472.664 198.147C467.325 206.066 456.989 210.263 447.64 208.308C442.633 207.261 437.585 204.622 432.669 206.035C426.115 207.919 422.376 216.414 415.558 216.53ZM603.707 411.445C604.008 412.538 604.448 413.786 605.52 414.154C606.38 414.449 607.307 414.046 608.126 413.651C610.846 412.341 613.565 411.032 616.285 409.722C617.681 409.049 619.249 408.157 619.497 406.628C624.533 375.613 623.074 343.56 615.243 313.131C613.391 305.935 611.182 298.814 608.238 291.992C604.478 283.277 599.551 275.119 594.493 267.087C587.214 255.526 579.628 244.157 571.746 232.997C570.284 235.278 569.848 238.04 569.105 240.645C568.361 243.25 567.114 245.95 564.721 247.22C562.329 248.49 558.653 247.412 558.229 244.737C557.312 238.953 551.105 234.579 545.349 235.662C544.112 235.895 543.702 237.434 543.548 238.684C542.147 250.045 540.746 261.407 539.346 272.768C539.244 273.594 539.201 274.577 539.851 275.097C540.392 275.53 541.163 275.434 541.856 275.423C545.773 275.365 549.189 279.456 548.433 283.3C547.676 287.144 542.964 289.635 539.361 288.095C537.806 287.431 536.588 289.539 536.199 291.184C533.846 301.116 531.493 311.048 529.14 320.98C528.446 323.91 530.976 326.675 533.697 327.962C536.418 329.249 539.528 329.715 542.025 331.397C548.279 335.609 548.01 345.189 553.067 350.782C557.187 355.338 564.811 356.167 569.814 352.602C574.29 349.413 576.235 343.588 576.238 338.092C576.239 334.344 578.567 330.695 581.965 329.114C585.363 327.533 589.654 328.102 592.522 330.514C595.316 332.864 596.582 336.515 597.726 339.981C598.231 341.51 598.736 343.178 598.194 344.694C597.308 347.173 594.261 347.907 591.77 348.758C587.195 350.322 583.185 353.488 580.602 357.575C579.342 359.57 578.487 362.368 580.048 364.138C583.86 368.464 587.673 372.79 591.485 377.116C593.479 379.378 595.533 381.749 596.333 384.656C598.791 393.586 601.249 402.515 603.707 411.445ZM215.333 269.236C221.308 258.085 227.341 246.846 235.458 237.142C242.566 228.644 251.128 221.498 259.677 214.451C270.941 205.167 282.273 195.966 293.672 186.849C298.417 183.054 303.236 179.235 308.768 176.722C292.183 169.414 275.492 162.069 257.885 157.776C240.277 153.484 221.522 152.364 204.148 157.523C202.474 158.02 200.793 158.585 199.348 159.565C196.908 161.221 195.367 163.902 194.211 166.615C189.667 177.275 189.922 189.354 191.4 200.848C194.503 224.977 202.713 248.438 215.333 269.236ZM589.796 600.172C589.639 601.791 587.892 603.314 586.425 602.611C585.732 602.278 585.31 601.573 584.929 600.906C579.079 590.694 573.229 580.481 567.38 570.268C563.605 571.689 561.791 576.239 562.215 580.25C562.639 584.26 564.778 587.857 566.865 591.308C570.058 596.585 573.251 601.863 576.444 607.141C574.765 608.87 572.062 606.572 570.819 604.508C566.388 597.152 561.957 589.796 557.526 582.441C549.064 591.145 540.602 599.849 532.139 608.553C537.65 617.168 543.161 625.782 548.672 634.397C549.971 636.427 552.752 637.075 555.108 636.565C557.463 636.055 559.499 634.625 561.463 633.229C576.232 622.724 591.001 612.22 605.771 601.716C606.894 600.917 608.096 600.006 608.426 598.668C608.77 597.269 608.054 595.85 607.36 594.587C573.95 533.809 538.293 474.266 500.485 416.121C499.372 414.41 497.965 412.519 495.928 412.384C494.57 412.294 493.311 413.034 492.152 413.747C477.157 422.974 462.163 432.202 447.168 441.429C444.392 443.138 441.615 444.846 438.839 446.555C438.116 446.999 437.338 447.514 437.096 448.327C436.81 449.288 437.378 450.276 437.925 451.116C443.387 459.508 449.153 467.701 455.208 475.675C462.364 467.973 470.877 459.678 481.387 459.939C490.46 460.164 497.946 466.764 504.555 472.985C508.421 476.624 512.287 480.263 516.153 483.902C510.043 472.455 502.819 461.604 494.616 451.551C494.262 449.858 497.243 450.321 498.392 451.613C509.839 464.49 516.14 481.412 528.194 493.722C540.513 506.301 552.831 518.88 565.149 531.46C570.382 536.803 575.934 542.84 576.346 550.306C576.723 557.125 572.68 563.329 568.616 568.817C575.781 577.275 582.335 586.251 588.21 595.652C589.072 597.032 589.952 598.552 589.796 600.172ZM459.337 161.526C464.525 162.554 469.718 163.583 474.807 165.02C487.916 168.722 500.103 175.055 512.184 181.346C522.727 186.836 533.329 192.363 542.792 199.557C543.821 173.84 542.801 148.304 534.244 124.03C531.777 117.03 525.817 109.482 520.019 104.848C513.212 99.4074 503.762 98.45 495.135 99.6841C480.065 101.84 466.34 109.911 455.035 120.106C443.73 130.301 434.564 142.602 425.476 154.815C436.763 157.052 448.05 159.289 459.337 161.526ZM610.723 286.354C625.284 323.502 630.039 364.444 624.38 403.94C642.858 393.35 659.373 379.349 672.844 362.853C679.556 354.632 685.777 344.957 685.34 334.353C684.98 325.639 680.023 317.595 673.477 311.831C666.932 306.067 658.892 302.299 650.813 299.014C637.818 293.729 624.397 289.492 610.723 286.354ZM582.168 349.87C585.59 347.359 589.251 345.176 593.086 343.359C593.076 340.912 593.05 338.385 592.068 336.143C591.086 333.902 588.882 332.005 586.441 332.173C583.875 332.35 581.939 334.694 581.124 337.134C580.31 339.574 580.296 342.204 579.732 344.714C578.173 351.655 572.022 357.321 564.977 358.305C557.932 359.289 550.464 355.526 547.063 349.277C544.322 344.242 543.911 337.726 539.544 334.011C537.125 331.953 533.906 331.164 530.815 330.436C530.097 330.268 529.333 330.1 528.636 330.339C527.514 330.723 526.988 331.976 526.592 333.093C523.945 340.578 521.298 348.062 518.651 355.547C517.672 358.315 516.867 361.854 519.055 363.813C539.262 381.897 547.487 410.66 568.038 428.353C568.646 428.877 569.396 429.424 570.177 429.238C579.981 426.912 589.485 423.327 598.383 418.601C599.091 418.225 599.83 417.809 600.236 417.118C600.648 416.417 600.646 415.554 600.604 414.742C600.311 409.15 598.648 403.634 595.802 398.811C594.456 396.53 592.804 394.278 592.547 391.642C592.328 389.391 593.164 387.083 592.63 384.886C592.193 383.092 590.908 381.645 589.666 380.278C586.157 376.415 582.648 372.553 579.139 368.691C577.403 366.78 575.6 364.743 575.068 362.217C574.032 357.296 578.114 352.845 582.168 349.87ZM362.234 236.16C366.374 233.67 368.883 228.703 368.43 223.893C367.769 216.875 361.725 211.76 356.145 207.451C347.003 200.392 326.097 183.24 316.906 179.553C307.714 175.866 267.048 212.141 252.917 226.049C252.203 226.751 251.459 227.517 251.26 228.499C251.061 229.48 246.743 240.041 255.437 242.608C264.132 245.175 265.064 243.197 268.616 240.041C272.168 236.885 274.236 232.408 275.905 227.96C277.33 224.16 281.64 222.342 285.616 221.532C289.593 220.722 293.878 220.42 297.167 218.043C300.592 215.568 305.376 215.712 309.28 217.33C313.184 218.948 316.408 221.827 319.551 224.654C322.176 227.015 326.42 224.375 328.038 221.236C329.656 218.098 330.336 214.226 333.166 212.115C337.213 209.096 343.423 211.798 345.915 216.189C349.459 222.433 346.953 231.349 340.676 234.834C337.038 236.853 331.715 238.207 331.57 242.365C331.498 244.432 332.941 246.25 334.549 247.552C337.434 249.885 342.132 250.993 344.59 248.213C348.093 244.251 344.181 235.879 349.033 233.774C353.317 231.916 358.233 238.568 362.234 236.16ZM472.857 191.839C474.308 189.588 475.763 187.122 478.184 185.974C481.277 184.508 484.993 185.673 487.927 187.436C490.862 189.199 493.483 191.559 496.702 192.725C499.978 193.912 503.568 193.752 507.048 193.576C512.836 193.284 518.625 192.992 524.413 192.7C489.424 172.427 450.068 158.21 409.633 157.81C406.224 157.777 402.738 157.854 399.539 159.033C396.341 160.213 393.436 162.695 392.617 166.003C391.368 171.042 395.952 176.427 401.14 176.588C398.43 178.572 398.847 183.18 401.429 185.329C404.011 187.477 407.875 187.46 410.975 186.167C414.074 184.873 416.586 182.514 419.024 180.203C423.561 175.904 428.099 171.604 432.636 167.304C435.488 164.602 439.929 164.487 443.783 165.25C447.637 166.013 451.41 167.489 455.338 167.393C463.585 167.193 470.89 175.66 469.483 183.789C465.782 180.298 460.397 178.68 455.385 179.553C450.372 180.425 445.851 183.767 443.546 188.304C441.678 191.981 437.508 193.925 433.453 194.681C429.398 195.438 425.209 195.28 421.169 196.115C417.13 196.949 413.011 199.076 411.359 202.855C409.706 206.635 411.865 212.025 415.973 212.406C420.757 212.85 423.55 207.232 427.574 204.607C431.404 202.109 436.403 202.436 440.871 203.407C445.34 204.378 449.807 205.91 454.363 205.516C462.28 204.831 468.552 198.519 472.857 191.839ZM600.988 422.215C591.82 425.75 582.652 429.285 573.485 432.82C572.209 433.311 570.657 434.568 571.423 435.7C580.168 448.606 586.9 462.874 591.3 477.83C591.728 479.286 593.938 478.196 594.801 476.948C602.819 465.355 609.212 452.64 613.735 439.29C614.553 436.874 615.316 434.263 614.614 431.811C613.511 427.957 609.368 426.014 606.315 423.415C605.472 422.697 604.619 421.867 603.524 421.707C602.661 421.582 601.802 421.901 600.988 422.215ZM495.226 307.577C491.015 312.049 494.553 319.625 492.389 325.374C491.909 326.648 491.135 327.992 491.577 329.28C491.797 329.922 492.291 330.425 492.77 330.905C494.267 332.406 495.765 333.906 497.262 335.407C498.438 336.585 500.345 337.805 501.57 336.679C506.606 332.047 512.708 328.579 519.265 326.623C521.153 326.059 523.196 325.55 524.514 324.085C525.676 322.793 526.051 320.996 526.382 319.29C528.233 309.738 530.072 300.184 531.898 290.628C532.041 289.882 532.178 289.082 531.874 288.387C531.552 287.649 530.807 287.197 530.08 286.851C522.704 283.337 512.785 286.937 509.379 294.364C508.224 296.884 507.69 299.803 505.749 301.783C502.92 304.669 497.996 304.636 495.226 307.577ZM348.161 185.397C346.735 184.103 345.26 182.479 345.401 180.558C345.55 178.511 347.446 177.1 349.164 175.976C355.25 171.995 361.337 168.014 367.423 164.034C367.275 162.852 365.618 162.727 364.446 162.94C348.686 165.806 333.246 170.425 318.502 176.686C334.944 186.822 350.719 198.042 365.688 210.249C367.505 206.125 372.181 204.095 374.949 200.539C378.446 196.047 378.707 189.376 383.008 185.646C385.118 183.815 388.253 182.546 388.675 179.785C384.983 179.811 381.291 179.837 377.599 179.862C373.108 179.894 368.327 180.01 364.595 182.509C361.339 184.69 358.836 188.657 354.918 188.769C352.336 188.843 350.073 187.133 348.161 185.397ZM532.221 431.008C535.086 436.146 537.952 441.283 540.818 446.421C535.568 429.719 529.308 413.334 522.083 397.387C521.827 396.82 521.533 396.215 520.983 395.924C520.305 395.565 519.479 395.802 518.752 396.045C498.398 402.851 478.043 409.656 457.689 416.462C457.07 416.668 456.4 416.915 456.068 417.477C455.669 418.151 455.908 419.008 456.175 419.744C457.368 423.035 458.929 426.193 460.82 429.139C473.585 421.712 486.351 414.284 499.116 406.856C501.081 405.713 503.15 404.538 505.422 404.452C507.301 404.381 509.128 405.071 510.808 405.918C520.781 410.948 526.78 421.253 532.221 431.008ZM439.806 570.001C437.24 564.521 432.837 560.034 427.783 556.708C421.576 568.238 414.453 579.276 406.503 589.683C405.895 590.479 405.671 592.107 406.671 592.037C416.364 591.356 426.057 590.674 435.75 589.993C437.695 589.856 440.034 589.447 440.749 587.632C442.967 582.002 442.372 575.481 439.806 570.001ZM586.153 489.155C586.937 487.953 587.736 486.717 588.055 485.317C588.475 483.465 588.01 481.538 587.511 479.706C583.667 465.617 577.618 452.17 570.069 439.669C569.19 438.214 568.244 436.723 566.813 435.805C565.382 434.887 563.325 434.719 562.077 435.872C560.409 437.414 561.042 440.136 561.802 442.276C567.82 459.231 573.838 476.187 579.856 493.142C580.215 494.152 581.031 495.395 582.031 495.007C582.421 494.856 582.673 494.486 582.902 494.137C583.985 492.476 585.069 490.815 586.153 489.155ZM525.752 273.505C527.494 274.975 529.806 275.531 532.027 276.043C533.808 276.453 534.861 274.131 535.169 272.329C537.228 260.299 538.551 248.157 539.872 236.023C538.862 235.594 537.79 236.419 537.002 237.183C534.171 239.93 531.339 242.677 528.508 245.424C526.537 247.336 524.476 249.402 523.851 252.076C522.661 257.165 526.999 262.966 524.257 267.415C523.062 269.355 524.01 272.036 525.752 273.505ZM519.586 369.742C518.906 368.978 518.172 368.19 517.199 367.875C516.226 367.56 514.957 367.917 514.619 368.882C511.605 377.505 508.591 386.128 505.576 394.751C505.29 395.57 505.482 396.95 506.315 396.704C511.399 395.204 516.089 392.549 521.195 391.123C526.3 389.698 532.27 389.715 536.349 393.1C531.592 384.761 525.964 376.918 519.586 369.742ZM563.131 243.652C564.66 239.504 566.189 235.356 567.719 231.208C568.015 230.404 567.428 229.567 566.877 228.911C561.418 222.408 555.913 215.86 549.303 210.53C549.022 210.303 548.703 210.067 548.342 210.086C547.655 210.123 547.381 210.977 547.284 211.658C546.461 217.441 545.638 223.225 544.815 229.009C544.575 230.694 546.128 232.159 547.756 232.658C549.383 233.156 551.136 233.017 552.81 233.329C555.896 233.903 558.629 236.112 559.838 239.01C560.605 240.848 561.172 243.293 563.131 243.652ZM514.324 355.374C517.215 347.982 519.866 340.496 522.272 332.932C522.434 332.423 522.595 331.87 522.424 331.364C521.965 330.013 519.965 330.363 518.69 331.002C513.677 333.512 508.857 336.407 504.286 339.652C503.718 340.054 503.098 340.562 503.077 341.258C503.06 341.785 503.399 342.248 503.723 342.663C507.119 347.013 510.655 351.253 514.324 355.374ZM556.726 477.219C556.185 476.628 555.295 476.537 554.494 476.55C552.681 476.58 550.875 476.949 549.197 477.633C548.371 477.97 547.55 478.388 546.66 478.434C545.769 478.479 544.77 478.016 544.551 477.151C546.905 475.468 549.76 474.495 552.652 474.389C553.938 474.342 553.975 472.159 552.846 471.54C551.717 470.922 550.325 471.374 549.124 471.836C547.138 472.599 545.152 473.362 543.166 474.125C542.588 474.347 541.993 473.648 542.077 473.035C542.16 472.421 542.658 471.955 543.151 471.579C544.937 470.214 547.069 469.306 549.29 468.963C550.349 468.8 550.52 467.157 549.746 466.416C548.973 465.675 547.782 465.627 546.713 465.682C543.601 465.845 540.517 466.519 537.622 467.67C540.091 472.1 542.611 476.501 545.184 480.871C545.85 482.002 546.573 483.185 547.726 483.811C549.798 481.194 552.949 479.459 556.269 479.108C557.066 479.023 557.268 477.81 556.726 477.219ZM599.248 557.139C597.346 557.625 595.461 558.179 593.598 558.8C593.088 558.97 592.499 559.236 592.412 559.766C592.361 560.082 592.513 560.391 592.661 560.675C593.755 562.778 594.849 564.881 595.943 566.983C596.387 567.836 597.281 568.838 598.11 568.35C600.839 566.746 603.887 565.686 607.024 565.253C607.887 565.134 608.451 564.208 608.471 563.337C608.491 562.466 608.105 561.644 607.728 560.858C607.082 559.512 606.373 558.093 605.102 557.308C603.394 556.253 601.195 556.643 599.248 557.139ZM606.591 580.25C605.847 580.386 604.987 580.61 604.696 581.308C604.458 581.877 604.709 582.522 604.958 583.086C605.907 585.24 606.856 587.393 607.805 589.547C608.102 590.22 608.494 590.974 609.212 591.135C609.722 591.248 610.24 591.017 610.712 590.79C612.175 590.09 613.638 589.389 615.101 588.688C615.924 588.294 616.796 587.855 617.248 587.061C617.699 586.268 617.46 585.026 616.58 584.784C616.11 584.654 615.614 584.839 615.176 585.052C613.866 585.688 612.685 586.614 611.286 587.021C609.888 587.427 608.107 587.115 607.443 585.819C610.889 584.595 614.184 582.944 617.227 580.916C616.954 579.014 614.288 578.845 612.398 579.19C610.462 579.544 608.527 579.897 606.591 580.25ZM578.437 530.802C578.997 530.192 579.81 529.894 580.59 529.617C582.736 528.854 584.883 528.091 587.029 527.328C588.145 526.931 587.871 525.076 586.819 524.534C585.766 523.991 584.495 524.33 583.363 524.679C580.908 525.435 578.453 526.191 575.998 526.947C575.678 527.046 575.341 527.154 575.116 527.403C574.603 527.972 574.948 528.868 575.313 529.542C576.286 531.339 577.258 533.136 578.231 534.933C578.345 535.143 578.472 535.366 578.688 535.467C578.949 535.589 579.255 535.496 579.528 535.402C582.515 534.37 585.503 533.337 588.49 532.305C589.203 532.058 590.059 531.607 589.999 530.855C589.917 529.83 588.414 529.822 587.433 530.133C584.36 531.108 581.287 532.084 578.214 533.059C577.672 532.433 577.877 531.411 578.437 530.802ZM616.629 413.568C613.984 415.063 611.339 416.558 608.693 418.053C608.375 418.232 608.041 418.428 607.867 418.749C607.405 419.598 608.317 420.52 609.12 421.059C610.766 422.161 612.411 423.264 614.056 424.366C614.38 424.583 614.729 424.808 615.119 424.812C616.005 424.82 616.461 423.777 616.689 422.921C617.419 420.171 618.149 417.422 618.879 414.672C618.97 414.327 619.06 413.949 618.912 413.624C618.554 412.84 617.379 413.144 616.629 413.568ZM581.802 536.96C581.162 537.124 580.435 537.363 580.195 537.978C580.017 538.436 580.179 538.952 580.387 539.397C580.923 540.541 581.771 541.537 582.815 542.249C585.59 541.19 588.365 540.13 591.141 539.071C592.333 538.615 593.745 537.849 593.695 536.573C593.659 535.66 592.796 534.952 591.9 534.776C591.004 534.6 590.083 534.829 589.198 535.057C586.732 535.691 584.267 536.325 581.802 536.96ZM541.589 437.121C542.56 439.016 544.962 439.565 547.064 439.906C550.417 440.449 553.769 440.992 557.122 441.536C557.18 439.633 555.217 438.368 553.473 437.604C550.277 436.204 546.942 435.123 543.532 434.382C543.164 434.302 542.781 434.226 542.415 434.314C541.323 434.577 541.077 436.12 541.589 437.121ZM529.161 435.686C529.423 435.587 529.689 435.485 529.916 435.319C530.916 434.584 530.612 432.857 529.591 432.15C528.57 431.443 527.188 431.538 526.004 431.91C524.819 432.282 523.714 432.899 522.503 433.172C520.867 433.542 518.727 433.525 518.1 435.081C517.565 436.409 518.792 437.914 520.191 438.222C521.59 438.529 523.024 438.013 524.363 437.505C525.962 436.899 527.562 436.293 529.161 435.686ZM535.597 447.67C536.948 446.788 536.323 444.467 534.886 443.733C533.45 443 531.723 443.343 530.151 443.702C528.492 444.082 526.721 444.526 525.591 445.798C524.462 447.07 524.463 449.454 526.004 450.174C528.099 451.153 530.064 448.389 532.35 448.047C533.443 447.884 534.672 448.273 535.597 447.67ZM583.023 522.038C583.476 521.886 583.955 521.716 584.247 521.337C584.572 520.916 584.583 520.315 584.4 519.816C583.969 518.648 582.623 518.026 581.378 518.049C580.133 518.071 578.96 518.601 577.829 519.12C576.388 519.781 574.948 520.442 573.507 521.103C572.715 521.467 571.819 521.961 571.689 522.823C571.555 523.699 572.36 524.494 573.226 524.679C574.093 524.865 574.985 524.605 575.832 524.344C578.238 523.603 580.635 522.834 583.023 522.038ZM589.514 552.542C592.617 551.237 595.719 549.933 598.822 548.628C599.115 548.505 599.419 548.375 599.632 548.139C600.262 547.441 599.687 546.225 598.809 545.889C597.931 545.554 596.95 545.813 596.047 546.075C593.95 546.682 591.854 547.289 589.757 547.896C588.597 548.232 587.299 548.684 586.811 549.788C586.143 551.298 587.993 553.182 589.514 552.542ZM610.458 570.629C611.697 570.151 611.245 568.062 610.014 567.562C608.784 567.061 607.402 567.575 606.156 568.034C603.713 568.934 601.195 569.63 598.636 570.114C597.744 571.314 598.831 573.154 600.27 573.561C601.709 573.969 603.227 573.422 604.622 572.884C606.567 572.132 608.513 571.381 610.458 570.629ZM544.408 431.59C546.908 432.245 549.408 432.901 551.908 433.556C552.859 433.805 554.326 433.665 554.257 432.684C549.939 429.699 544.972 427.66 539.802 426.751C539.528 426.703 539.239 426.659 538.978 426.754C538.081 427.08 538.423 428.469 539.098 429.143C540.495 430.537 542.499 431.09 544.408 431.59ZM553.854 421.932C554.738 424.058 555.622 426.184 556.506 428.31C557.039 429.591 557.637 430.951 558.812 431.688C559.986 432.424 561.898 432.112 562.283 430.78C562.576 429.765 561.89 428.751 561.238 427.919C558.748 424.745 556.185 421.629 553.55 418.575C552.966 419.585 553.406 420.855 553.854 421.932ZM549.572 425.927C550.041 426.089 550.612 426.235 550.992 425.914C551.435 425.539 551.275 424.814 550.974 424.318C549.878 422.514 547.661 421.8 545.631 421.223C542.902 420.448 540.173 419.673 537.444 418.897C536.595 418.656 535.957 419.894 536.354 420.681C536.751 421.468 537.664 421.822 538.497 422.11C542.189 423.382 545.881 424.655 549.572 425.927ZM586.064 543.141C585.297 543.373 584.463 543.655 584.044 544.338C583.298 545.553 584.388 547.137 585.67 547.761C588.565 545.405 592.253 544.044 595.983 543.954C597.253 543.924 597.363 541.796 596.287 541.122C595.21 540.448 593.814 540.796 592.598 541.164C590.42 541.823 588.242 542.482 586.064 543.141ZM573.942 509.914C572.182 510.379 570.422 510.844 568.663 511.31C567.049 511.736 565.026 512.792 565.413 514.416C565.743 515.798 567.674 516.112 568.97 515.53C570.266 514.948 571.255 513.819 572.545 513.224C574.654 512.251 577.623 512.605 578.805 510.607C577.798 509.176 575.634 509.466 573.942 509.914ZM507.99 416.857C507.652 417.003 507.304 417.17 507.081 417.463C506.506 418.219 507.133 419.395 508.023 419.727C508.913 420.059 509.902 419.82 510.825 419.599C513.93 418.856 517.09 418.341 520.27 418.06C520.579 416.316 518.299 415.338 516.528 415.268C513.611 415.152 510.67 415.7 507.99 416.857ZM559.45 484.508C560.362 483.542 559.846 481.389 558.542 481.643C555.084 482.318 551.751 483.626 548.757 485.482C548.057 486.907 549.993 488.385 551.561 488.138C553.129 487.89 554.389 486.74 555.858 486.139C557.088 485.635 558.537 485.474 559.45 484.508ZM561.344 453.264C560.934 452.747 560.279 452.501 559.657 452.279C556.635 451.198 553.613 450.118 550.591 449.037C549.764 448.741 548.838 448.447 548.033 448.8C547.229 449.152 546.908 450.485 547.695 450.875C551.567 452.789 555.683 454.208 559.911 455.089C560.351 455.18 560.843 455.257 561.222 455.016C561.779 454.661 561.753 453.782 561.344 453.264ZM547.116 417.71C547.547 417.966 548.113 417.483 548.125 416.982C548.136 416.481 547.799 416.045 547.46 415.676C544.214 412.134 539.45 410.48 534.893 408.957C533.737 408.571 532.046 408.44 531.709 409.611C536.977 412.048 542.122 414.752 547.116 417.71ZM614.329 574.837C614.056 573.888 613.054 573.297 612.071 573.198C611.089 573.099 610.113 573.391 609.169 573.68C607.52 574.184 605.872 574.688 604.223 575.192C603.084 575.54 601.7 576.225 601.795 577.412C601.873 578.379 602.999 578.957 603.963 578.864C604.928 578.771 605.779 578.226 606.653 577.808C608.56 576.894 610.736 576.553 612.831 576.838C613.81 576.971 614.601 575.787 614.329 574.837ZM510.934 424.08C510.92 424.973 511.618 425.823 512.496 425.985C513.063 426.089 513.642 425.933 514.198 425.778C517.407 424.884 520.616 423.989 523.825 423.095C523.876 422.193 523.097 421.414 522.232 421.152C521.367 420.891 520.439 421.025 519.546 421.161C517.215 421.515 514.884 421.87 512.554 422.225C511.671 422.359 510.948 423.188 510.934 424.08ZM563.94 488.269C564.068 487.431 563.243 486.691 562.402 486.585C561.561 486.48 560.735 486.823 559.957 487.159C557.48 488.229 555.004 489.298 552.527 490.367C551.791 491.302 552.697 492.785 553.858 493.048C555.019 493.311 556.197 492.78 557.269 492.263C558.961 491.447 560.653 490.632 562.344 489.816C563.04 489.481 563.823 489.033 563.94 488.269ZM528.522 402.517C528.807 403.026 529.375 403.296 529.907 403.534C534.32 405.511 538.732 407.488 543.145 409.465C543.928 409.816 545.071 410.055 545.457 409.288C545.872 408.466 544.849 407.68 544.001 407.319C539.254 405.303 534.507 403.286 529.76 401.269C529.521 401.168 529.266 401.064 529.011 401.107C528.436 401.203 528.237 402.009 528.522 402.517ZM551.375 459.444C551.227 459.382 551.068 459.318 550.91 459.349C550.746 459.381 550.61 459.524 550.586 459.69C550.972 462.331 553.935 463.632 556.474 464.456C559.792 465.533 563.11 466.61 566.428 467.687C567.225 466.805 565.923 465.583 564.828 465.121C560.343 463.229 555.859 461.337 551.375 459.444ZM526.84 428.495C527.21 427.798 526.653 426.926 525.951 426.565C524.724 425.934 523.244 426.286 521.914 426.651C520.399 427.067 518.883 427.482 517.368 427.898C516.277 428.198 514.96 428.764 514.92 429.896C514.889 430.742 515.688 431.435 516.521 431.59C517.354 431.745 518.204 431.5 519.016 431.258C521.177 430.613 523.338 429.968 525.5 429.322C526.017 429.168 526.587 428.972 526.84 428.495ZM601.961 551.368C601.06 550.847 599.927 551.152 598.936 551.469C595.782 552.477 592.628 553.485 589.475 554.494C588.777 555.611 590.046 557.096 591.361 557.175C592.675 557.253 593.867 556.486 595.028 555.864C597.139 554.733 599.466 554.005 601.845 553.732C602.88 553.613 602.862 551.89 601.961 551.368ZM541.73 455.624C540.72 455.354 539.65 455.542 538.621 455.732C537.349 455.967 536.076 456.201 534.804 456.436C533.361 456.702 531.531 457.449 531.684 458.908C531.774 459.769 532.624 460.391 533.481 460.516C534.338 460.641 535.199 460.386 536.028 460.134C538.567 459.361 541.107 458.587 543.646 457.814C543.671 456.768 542.74 455.895 541.73 455.624ZM533.068 438.517C532.362 437.796 531.199 437.744 530.229 438.025C529.259 438.305 528.39 438.856 527.443 439.204C526.326 439.614 525.118 439.735 524.005 440.156C522.891 440.577 521.816 441.418 521.623 442.592C522.041 443.57 523.444 443.46 524.471 443.184C527.19 442.452 529.91 441.719 532.63 440.987C533.605 440.724 533.775 439.238 533.068 438.517ZM529.284 451.825C528.151 452.155 528.346 454.027 529.379 454.597C530.412 455.166 531.688 454.852 532.822 454.524C535.2 453.838 537.577 453.151 539.955 452.464C540.129 451.276 539.042 450.201 537.87 449.943C536.698 449.684 535.485 450.022 534.332 450.357C532.649 450.847 530.967 451.336 529.284 451.825ZM542.774 284.547C544.286 283.458 544.053 281.211 544.098 279.348C542.127 279.108 539.969 278.908 538.307 279.994C536.646 281.081 536.201 284.014 537.979 284.895C538.59 285.198 539.303 285.19 539.985 285.175C540.953 285.154 541.988 285.112 542.774 284.547ZM546.584 442.915C545.632 442.817 544.245 443.238 544.516 444.156C544.646 444.597 545.13 444.813 545.562 444.97C549.706 446.468 554.032 447.46 558.414 447.916C558.957 447.791 559.116 447.023 558.832 446.544C558.548 446.065 558.002 445.817 557.485 445.61C554.001 444.209 550.32 443.299 546.584 442.915ZM527.3 396.918C530.884 398.76 534.537 400.468 538.248 402.037C538.969 402.342 539.787 402.644 540.512 402.347C541.236 402.049 541.513 400.836 540.795 400.522C536.576 398.676 532.356 396.829 528.136 394.982C527.466 394.689 526.511 394.479 526.148 395.115C525.751 395.812 526.586 396.552 527.3 396.918ZM562.773 458.691C562.163 458.137 561.342 457.889 560.551 457.656C557.222 456.678 553.892 455.7 550.563 454.722C550.103 454.587 549.59 454.455 549.159 454.667C548.728 454.879 548.572 455.604 549.003 455.815C553.558 458.048 558.367 459.763 563.306 460.917C563.715 460.201 563.384 459.246 562.773 458.691ZM565.385 510.071C567.759 509.231 570.133 508.391 572.507 507.552C573.551 507.182 574.672 506.754 575.27 505.822C575.117 504.986 574.213 504.46 573.363 504.443C572.514 504.426 571.709 504.794 570.939 505.154C568.859 506.126 566.778 507.098 564.697 508.07C563.946 508.421 563.08 508.938 563.067 509.767C563.457 510.528 564.579 510.356 565.385 510.071ZM546.521 462.591C547.076 461.974 546.577 460.902 545.806 460.594C545.036 460.287 544.167 460.499 543.365 460.713C540.64 461.442 537.916 462.171 535.191 462.9C534.697 463.473 535.141 464.441 535.836 464.74C536.531 465.04 537.328 464.88 538.067 464.716C540.525 464.171 542.983 463.625 545.442 463.079C545.834 462.992 546.253 462.89 546.521 462.591ZM579.814 513.654C579.253 513.53 578.679 513.752 578.146 513.97C575.242 515.157 572.337 516.344 569.433 517.531C568.591 517.875 568.931 519.303 569.785 519.615C570.638 519.927 571.571 519.523 572.389 519.127C574.885 517.919 577.381 516.711 579.877 515.502C580.161 515.365 580.464 515.209 580.603 514.927C580.858 514.411 580.376 513.777 579.814 513.654ZM558.488 467.526C557.37 467.112 555.757 466.896 555.311 468.001C559.247 470.028 563.423 471.591 567.723 472.647C568.601 472.116 567.504 470.864 566.542 470.508C563.857 469.514 561.173 468.52 558.488 467.526ZM504.336 413.127C503.584 413.981 504.324 415.6 505.462 415.591C508.062 413.893 511.098 412.87 514.195 412.647C513.214 411.419 511.513 410.953 509.946 411.076C508.378 411.199 506.9 411.823 505.453 412.44C505.047 412.613 504.627 412.796 504.336 413.127ZM567.95 476.915C568.801 477.121 570.142 476.882 569.93 476.032C566.374 474.427 562.626 473.247 558.792 472.525C558.369 473.096 558.623 473.959 559.152 474.433C559.682 474.907 560.403 475.09 561.094 475.257C563.379 475.81 565.664 476.363 567.95 476.915ZM565.26 481.37C567.251 481.986 569.313 482.374 571.392 482.524C571.808 481.974 571.57 481.133 571.061 480.667C570.552 480.201 569.854 480.016 569.185 479.846C567.064 479.306 564.943 478.767 562.823 478.228C562.052 479.553 563.796 480.917 565.26 481.37ZM610.601 594.425C610.126 595.591 610.743 597.222 611.992 597.384C613.547 595.892 614.882 594.171 615.94 592.294C615.338 591.643 614.275 591.8 613.442 592.107C612.26 592.542 611.076 593.259 610.601 594.425ZM577.392 497.577C576.38 496.634 575.13 495.949 573.792 495.603C573.577 497.5 574.665 499.476 576.383 500.308C576.795 500.507 577.283 500.644 577.704 500.465C578.767 500.013 578.237 498.364 577.392 497.577ZM572.415 485.658C571.719 485.156 570.82 485.06 569.965 484.98C568.913 484.882 567.86 484.784 566.808 484.686C566.298 485.914 567.742 487.109 569.058 487.301C570.373 487.494 571.813 487.231 572.962 487.899C573.483 487.217 573.11 486.16 572.415 485.658ZM580.571 508.788C580.984 509.14 581.492 509.454 582.031 509.395C582.221 506.812 580.476 504.409 578.304 502.999C578.049 505.142 578.928 507.388 580.571 508.788ZM573.829 491.379C572.611 490.707 571.177 490.431 569.796 490.604C570.297 491.95 571.489 493.016 572.882 493.365C573.627 493.552 574.558 493.469 574.964 492.816C575.371 492.164 574.569 491.084 573.94 491.526M505.583 407.703C504.428 407.908 503.344 408.495 502.541 409.35C503.977 409.754 505.613 409.346 506.69 408.315C506.424 407.958 506.012 407.714 505.572 407.653" fill="#00160A"/>
<path fill-rule="evenodd" clip-rule="evenodd" d="M480.8 522.595C492.584 511.276 509.124 512.872 520.693 525.293C530.753 536.099 528.362 550.374 516.937 562.347C512.627 566.819 503.974 569.785 497.713 569.058C492.412 568.532 484.158 564.625 479.256 561.024C476.987 559.356 474.911 555.919 472.954 550.698L472.665 549.918C469.187 540.276 471.536 530.084 479.414 523.688L479.783 523.394L479.866 523.28C479.935 523.195 480.013 523.115 480.103 523.04L480.246 522.93L480.407 522.827L480.742 522.658L480.8 522.595ZM501.285 561.476L497.721 565.288L498.114 565.321C501.768 565.587 505.342 565.015 508.592 563.633L508.773 563.553L508.521 563.539C506.276 563.378 503.902 562.692 501.437 561.547L501.285 561.476ZM490.887 554.317L490.553 554.011L490.202 554.353C488.82 555.699 487.415 557.079 485.979 558.501L484.352 560.116C484.813 560.451 485.292 560.779 485.791 561.099C488.045 562.568 490.479 563.682 492.998 564.405L493.539 564.554L496.144 561.81L498.094 559.747L497.966 559.671C495.516 558.166 493.108 556.319 490.887 554.317ZM507.887 554.412L503.639 558.958L503.853 559.051C507.159 560.436 510.098 560.699 512.628 559.678L512.894 559.564L512.638 559.275C511.36 557.845 509.986 556.428 508.482 554.98L507.887 554.412ZM482.292 544.82L481.538 545.561C480.452 546.618 479.357 547.667 478.251 548.709L476.512 550.335L476.658 550.683C477.835 553.396 479.476 555.758 481.613 557.824L481.689 557.896L481.932 557.65C483.479 556.08 485.077 554.49 486.742 552.861L488.037 551.599L487.685 551.245C485.748 549.275 484.091 547.346 482.696 545.397L482.292 544.82ZM514.826 546.987L510.19 551.948L510.237 551.992C512.016 553.689 513.642 555.355 515.151 557.037L515.609 557.553L515.623 557.537C517.206 555.388 516.933 551.886 515.033 547.457L514.826 546.987ZM498.605 546.315L498.261 546.638C496.676 548.125 495.069 549.652 493.43 551.228L492.967 551.672L493.399 552.053C495.665 554.034 497.837 555.698 500.007 557.039L500.417 557.286L503.327 554.197L505.33 552.063L504.668 551.476C503.467 550.415 502.169 549.304 500.537 547.932L498.605 546.315ZM523.374 537.844L516.959 544.705L517.168 545.108C517.521 545.804 517.868 546.51 518.208 547.228L518.713 548.313L519.183 549.358C519.662 550.369 519.993 551.376 520.17 552.368L520.196 552.536L520.387 552.192C522.983 547.433 524.047 542.536 523.396 537.985L523.374 537.844ZM509.264 537.769L508.935 537.332L507.765 538.314L504.506 541.009L503.923 541.499C503.323 542.005 502.785 542.469 502.288 542.909L501.71 543.428L501.113 543.979L502.457 545.101C503.957 546.358 505.262 547.477 506.483 548.555L507.644 549.59L511.372 545.596L513.145 543.688L513.132 543.662C512.017 541.696 510.692 539.688 509.264 537.769ZM489.407 538.171L489.128 537.897L489.04 537.991C487.95 539.133 486.85 540.265 485.741 541.389L484.634 542.501L484.865 542.854C486.213 544.874 487.88 546.846 489.825 548.757L490.317 549.234L490.406 549.318L490.558 549.173C491.681 548.1 492.834 547.009 494.025 545.89L495.944 544.093L495.679 543.872C493.519 542.032 491.434 540.136 489.407 538.171ZM477.552 530.891L477.446 531.068C474.807 535.505 473.993 541.019 475.218 546.273L475.328 546.723L475.383 546.937L475.937 546.421C477.093 545.331 478.241 544.232 479.381 543.122L480.54 541.982L480.43 541.78C478.531 538.247 477.537 534.659 477.552 530.973L477.552 530.891ZM498.514 527.57L497.138 529.151C495.576 530.929 493.992 532.687 492.386 534.427L491.44 535.443L491.676 535.672C493.546 537.481 495.484 539.242 497.507 540.973L498.448 541.769L499.346 540.942C499.923 540.418 500.541 539.878 501.24 539.285L502.386 538.324L505.079 536.106C505.566 535.704 506 535.342 506.403 535.001L506.798 534.666L506.607 534.443C505.683 533.37 504.813 532.449 504.09 531.773L503.878 531.578C502.41 530.254 500.805 529.042 499.017 527.889L498.514 527.57ZM517.96 527.377L517.816 527.63C516.329 530.151 514.28 532.512 511.492 535.082L511.259 535.294L511.343 535.41C512.561 537.121 513.715 538.91 514.81 540.778L515.206 541.466L518.325 538.098L522.27 533.816L522.179 533.592C521.271 531.436 519.924 529.413 518.132 527.551L517.96 527.377ZM481.046 529.294L481.031 529.439C480.71 532.839 481.376 536.183 482.936 539.473L482.976 539.554L483.392 539.138C484.312 538.206 485.226 537.268 486.134 536.322L486.827 535.595L486.546 535.308C484.947 533.662 483.379 531.961 481.831 530.197L481.046 529.294ZM482.596 525.534L482.358 525.649L482.419 525.723C484.53 528.241 486.681 530.625 488.906 532.913L489.134 533.145L490.063 532.149C491.692 530.383 493.3 528.597 494.884 526.791L495.656 525.903L495.573 525.858C495.181 525.645 494.779 525.432 494.367 525.218L493.741 524.897C490.068 523.094 487.355 523.294 482.966 525.358L482.596 525.534ZM505.567 519.102L504.214 520.78C503.3 521.904 502.378 523.02 501.448 524.129L500.796 524.901L500.962 525.006C503.423 526.593 505.519 528.316 507.243 530.225L507.634 530.669C508.015 531.112 508.392 531.561 508.763 532.017L509.189 532.548L509.248 532.495C511.993 529.936 513.932 527.605 515.262 525.101L515.3 525.024L514.948 524.746C511.389 521.949 508.783 520.287 506.024 519.265L505.567 519.102ZM500.125 518.14C496.639 518.115 493.464 518.738 490.534 520.018L490.367 520.092L490.659 520.13C491.301 520.225 491.93 520.387 492.55 520.621L492.859 520.744C494.519 521.475 496.045 522.207 497.477 522.968L497.955 523.227L498.893 522.121C499.848 520.983 500.794 519.839 501.731 518.687L502.067 518.27L501.659 518.224C501.319 518.189 500.979 518.165 500.638 518.152L500.125 518.14Z" fill="#FFB61D"/>
<path fill-rule="evenodd" clip-rule="evenodd" d="M559.384 279.453C560.486 276.469 564.454 275.237 567.382 276.481C570.31 277.724 572.127 280.833 572.586 283.981C573.045 287.129 572.348 290.328 571.452 293.38C570.635 296.163 569.649 298.897 568.501 301.56C568.395 301.808 568.252 302.085 567.989 302.144C567.709 302.207 567.45 301.989 567.249 301.785C562.274 296.744 559.275 289.803 559.014 282.726C558.973 281.622 559.001 280.49 559.384 279.453ZM567.984 280.181C567.168 279.481 566.114 279.023 565.039 279.056C562.53 279.132 560.78 281.869 560.835 284.378C560.891 286.887 562.228 289.165 563.525 291.314C564.455 292.853 565.384 294.392 566.313 295.931C566.63 296.455 567.253 297.053 567.746 296.69C567.945 296.544 568.022 296.287 568.086 296.049C568.467 294.651 568.847 293.253 569.227 291.855C569.771 289.856 570.319 287.825 570.285 285.754C570.252 283.683 569.557 281.529 567.984 280.181L567.984 280.181Z" fill="#FFB61D"/>
<path fill-rule="evenodd" clip-rule="evenodd" d="M566.343 288.214C565.732 288.386 565.065 288.354 564.473 288.123C563.325 287.676 562.533 286.446 562.599 285.216C562.666 283.986 563.586 282.848 564.776 282.527C566.578 282.041 568.607 283.702 568.487 285.564C568.41 286.773 567.509 287.886 566.343 288.214Z" fill="#FFB61D"/>
</svg>
