<svg width="750" height="750" viewBox="0 0 750 750" fill="none" xmlns="http://www.w3.org/2000/svg">
<rect width="750" height="750" fill="none"/>
<path fill-rule="evenodd" clip-rule="evenodd" d="M250 560.577C144.599 517.965 145.249 571.458 98.2706 492.577C51.2922 413.697 94.7165 297.479 232.576 261.577C370.435 225.675 562 56.2607 664.265 337.977C693.002 417.142 637.625 628 438.669 627.579C296.245 627.275 321.235 588.577 250 560.577Z" />
<path fill-rule="evenodd" clip-rule="evenodd" d="M423.759 397.577C423.262 397.186 423.39 395.989 423.538 395.183C424.475 390.071 428.994 386.648 432.98 383.455C436.965 380.261 441.089 375.971 440.675 370.786C440.116 363.781 443.344 357.138 445.315 350.409C447.286 343.68 447.635 335.39 442.612 330.634C440.872 328.986 438.653 327.953 436.9 326.319C435.146 324.686 433.886 322.035 434.883 319.826C434.034 320.335 433.184 320.844 432.335 321.354C432.098 317.938 428.217 316.418 425.298 314.782C420.29 311.975 416.628 306.306 417.03 300.447C417.432 294.588 422.542 289.192 428.233 289.522C430.677 289.664 433.815 290.437 435.029 288.247C439.513 280.158 451.143 279.226 456.424 271.665C457.575 270.017 463.127 265.098 462.579 268.577C461.361 276.312 468.137 274.068 470.809 277.306C482.459 291.42 483.357 312.808 481.255 333.077C476.759 376.449 449.951 418.183 423.759 397.577Z" fill="white"/>
<path fill-rule="evenodd" clip-rule="evenodd" d="M455.382 281.22C458.095 278.302 462.049 276.577 466.033 276.577C472.617 279.99 479.129 284.607 485.569 290.428C489.607 288.83 492.453 288.505 494.106 289.454C496.585 290.877 498.104 293.577 498.823 296.344C501.128 305.218 496.225 314.399 490.193 321.302C487.562 324.312 484.63 327.188 483.019 330.848C481.408 334.507 481.48 339.28 484.412 341.998C491.743 348.792 494.189 359.511 493.78 369.499C493.371 379.487 490.523 389.195 488.929 399.064C487.159 410.016 486.938 421.218 488.274 432.232C488.687 435.633 489.281 439.114 491.057 442.044C492.833 444.974 496.048 447.263 499.464 447.011C498.254 448.742 495.338 448.862 493.989 447.236C495.317 448.617 496.645 449.997 497.973 451.378C496.366 451.041 494.76 450.704 493.154 450.368C506.582 458.002 520.487 464.796 534.762 470.695C533.928 467.89 530.987 466.364 528.326 465.147C520.895 461.749 513.464 458.35 506.033 454.952C517.196 455.964 527.976 460.813 536.141 468.495C545.977 477.749 561.897 477.231 572.563 485.514C574.85 487.291 576.908 489.558 577.676 492.351C578.754 496.274 577.028 500.565 574.186 503.476C571.344 506.388 567.54 508.146 563.735 509.588C552.368 513.894 540.145 515.926 527.997 515.528C526.966 513.716 527.996 511.303 529.674 510.065C531.351 508.828 533.488 508.449 535.525 508.011C544.194 506.146 552.495 502.585 559.819 497.587C561.465 496.464 563.251 494.448 562.195 492.759C561.803 492.131 561.106 491.774 560.438 491.455C548.936 485.964 536.086 483.324 523.351 483.835C527.111 483.156 530.87 482.476 534.629 481.797C524.693 475.869 514.248 470.796 503.446 466.652C500.088 465.363 496 464.255 493.145 466.444C486.178 471.787 479.21 477.13 472.243 482.473C481.227 482.631 490.168 484.841 498.192 488.886C496.356 492.899 492.23 495.762 487.829 496.076C489.911 493.94 491.994 491.805 494.076 489.669C479.245 480.475 458.093 490.084 443.241 480.924C436.616 476.838 432.225 469.475 425.043 466.475C418.193 463.613 410.389 465.358 403.181 467.14C398.454 468.309 393.488 469.607 390 473.005C390.097 469.586 393.346 467.112 396.541 465.894C399.736 464.676 403.283 464.113 405.972 462.001C408.701 459.858 410.095 456.472 412.246 453.751C414.398 451.03 418.211 448.884 421.251 450.555C420.314 443.329 426.453 437.436 430.614 431.456C435.354 424.645 437.887 416.323 437.746 408.026C432.466 410.833 430.091 418.068 432.682 423.459C433.832 425.853 431.541 428.874 428.892 429.063C426.243 429.252 423.812 427.302 422.615 424.931C421.417 422.56 421.199 419.831 421.02 417.181C420.767 413.436 420.557 409.613 421.521 405.986C423.348 399.113 429.08 394.002 435.028 390.107C440.976 386.212 447.507 383.026 452.494 377.957C457.995 372.366 461.254 364.628 461.413 356.785C463.707 367.236 458.535 280.507 455.382 281.22ZM431.189 425.025C431.245 422.864 430.574 420.69 429.31 418.937C428.869 421.108 429.602 423.48 431.189 425.025Z" fill="white"/>
<path fill-rule="evenodd" clip-rule="evenodd" d="M356.72 421.616C352.387 424.66 347.902 427.87 345.381 432.518C342.859 437.166 342.976 443.693 347.09 447.027C357.158 455.185 353.938 471.429 359.948 482.89C363.246 489.18 369.594 495.138 367.813 502.009C366.418 507.393 360.627 510.205 355.467 512.325C353.045 513.32 350.482 514.336 347.884 513.998C345.285 513.659 342.739 511.426 343.059 508.835C343.633 504.199 351.777 503.36 351.922 498.692C351.963 497.381 351.291 496.165 350.639 495.026C346.231 487.324 341.823 479.622 337.415 471.92C332.259 482.685 330.189 494.896 331.51 506.75C331.925 510.47 329.141 513.955 325.757 515.58C322.373 517.206 318.496 517.379 314.742 517.523C311.666 517.64 308.393 517.711 305.752 516.136C303.111 514.561 301.631 510.678 303.619 508.337C305.407 506.23 308.687 506.513 311.297 505.588C318.227 503.131 318.524 493.608 317.538 486.345C315.635 472.313 313.731 458.281 311.827 444.249C310.863 437.143 309.786 429.737 305.671 423.854C291.52 403.62 310.035 372.763 296.655 352.015C292.547 345.645 288.416 339.034 287.04 331.588C285.664 324.142 287.659 315.58 293.833 311.165C298.466 307.853 299.023 301.359 299.657 295.712C300.818 285.37 303.655 275.216 308.025 265.764C298.059 258.521 285.979 254.203 273.665 253.482C274.046 255.724 274.859 257.894 276.045 259.837C268.957 257.184 263.495 250.614 262.197 243.182C261.062 245.808 259.928 248.435 258.793 251.062C249.035 231.179 256.058 207.559 263.202 186.602C265.282 180.5 267.362 174.398 269.442 168.296C271.944 160.954 275.523 152.572 283.064 150.657C287.705 149.478 293.961 153.935 291.512 158.036C285.426 156.511 288.726 162.636 291.019 160.045C296.22 154.166 300.461 147.181 306.686 142.361C318.555 133.173 336.214 133.758 349.099 141.469C361.983 149.18 370.425 162.856 374.604 177.241C375.209 179.323 375.721 181.624 374.825 183.599C373.929 185.574 370.996 186.679 369.514 185.092C367.45 182.881 364.583 187.06 364.718 190.077C365.413 205.537 375.277 218.939 379.866 233.724C384.341 248.143 383.704 263.577 383.025 278.655C382.079 299.623 379.465 357.635 378.616 365.633C377.016 380.702 373.689 395.654 373.892 410.805C374.154 430.274 380.224 449.157 386.624 467.554C389.287 475.209 392.127 483.033 397.426 489.179C402.724 495.326 411.085 499.519 419 497.661C413.385 503.274 403.795 503.077 396.825 499.259C389.854 495.442 384.947 488.811 380.489 482.249C377.644 478.061 369.909 486.393 366.55 482.603C370.683 481.739 374.591 479.83 377.807 477.104C370.778 458.608 363.749 440.112 356.72 421.616ZM320.623 201.614C319.903 200.886 318.781 200.165 317.943 200.754C318.866 201.685 318.592 203.482 317.434 204.098C316.055 203.595 316.546 201.559 316.16 200.148C315.664 198.333 313.56 197.544 311.722 197.116C302.286 194.916 291.313 194.54 285.043 187.178C284.46 186.493 283.909 185.74 283.118 185.308C281.501 184.426 279.368 185.243 278.22 186.68C277.072 188.117 276.686 190.003 276.418 191.82C275.062 201.023 275.851 210.533 278.706 219.389C279.221 220.987 279.831 222.611 280.979 223.84C284.118 227.198 289.546 226.255 294.086 225.484C298.311 224.767 302.602 224.433 306.887 224.488C308.874 224.513 310.831 224.062 312.766 223.612C317.878 222.425 322.991 221.238 328.104 220.051C328.168 213.248 325.414 206.461 320.623 201.614Z" fill="white"/>
<path fill-rule="evenodd" clip-rule="evenodd" d="M508.796 600.632L520.962 602.432C523.188 602.761 525.647 603.221 527 604.989C526.377 605.533 525.431 605.448 524.606 605.329C519.899 604.655 515.192 603.98 510.485 603.306L516.085 609.74C517.05 610.848 518.089 612.006 519.504 612.447C520.744 612.833 522.522 612.955 522.67 614.224C520.965 614.939 518.939 614.498 517.367 613.532C515.795 612.566 514.585 611.138 513.403 609.734C511.503 607.479 509.604 605.223 507.704 602.967C507.207 602.377 506.704 601.503 507.211 600.922C507.577 600.503 508.239 600.55 508.796 600.632ZM573.947 550.577C574.322 552.199 572.644 553.454 571.263 554.33C560.193 561.354 554.718 574.617 549.906 587.041C549.534 588.002 549.437 589.51 550.432 589.665C552.36 586.035 556.143 583.518 560.155 583.195C557.11 585.318 555.891 589.355 555.7 593.132C555.509 596.909 556.128 600.705 555.782 604.47C553.889 604.286 553.401 601.703 553.424 599.749C553.47 595.882 553.515 592.014 553.561 588.147C546.568 592.454 544.888 601.926 543.902 610.243C543.513 610.834 542.526 610.579 542.183 609.959C541.84 609.338 541.943 608.569 542.061 607.866C544.923 590.938 551.432 574.671 560.986 560.571C551.756 565.518 543.877 573.096 538.464 582.236C537.078 579.652 539.054 576.568 541.011 574.409C550.23 564.24 561.524 556.068 573.947 550.577ZM488.082 541.577C492.957 544.966 497.832 548.355 502.707 551.744C510.438 557.119 518.247 562.562 524.515 569.587C524.084 563.168 525.696 556.628 529.062 551.145C529.46 550.496 530.159 549.771 530.853 550.085C531.343 550.307 531.484 550.924 531.564 551.456C532.945 560.669 534.326 569.882 535.707 579.095C531.738 571.717 529.795 563.263 530.142 554.894C527.726 558.777 525.746 563.258 526.357 567.789C527.848 578.845 543.384 584.21 544 595.35C530.458 578.667 516.368 561.61 497.483 551.347C506.276 563.832 516.315 575.441 527.402 585.945C530.531 588.909 534.006 592.391 533.783 596.693C526.408 588.027 513.818 584.187 502.857 587.26C509.155 589.599 515.292 592.368 521.212 595.543C524.686 597.405 528.381 599.776 529.418 603.577C519.423 596.099 507.832 590.761 495.649 588.026C504.872 582.654 516.9 582.456 526.294 587.524C512.103 574.734 500.484 559.402 488.957 544.17C488.383 543.411 487.776 542.478 488.082 541.577ZM429.051 490.585C451.841 494.954 474.243 501.341 495.908 509.647C498.476 510.631 501.113 511.694 503.048 513.645C505.358 515.975 506.367 519.257 507.297 522.401C511.198 535.596 515.099 548.792 519 561.987C511.984 548.212 506.968 533.423 504.157 518.226C486.883 525.114 467.632 524.14 449.039 523.598C420.392 522.762 391.707 523.202 363.098 524.917C365.009 525.345 366.92 525.773 368.831 526.2C364.468 527.661 359.754 527.541 355.155 527.379C320.446 526.153 285.791 523.385 251.327 519.087C243.98 518.171 236.257 517.03 230.421 512.48L214.633 559.334C213.732 562.008 210.749 565.244 208.819 563.183C206.554 560.765 202.637 563.284 200.399 565.727C191.894 575.011 183.389 584.294 174.884 593.577C179.867 584.956 186.166 577.094 193.496 570.347C185.386 570.201 177.287 573.826 172 579.967C174.03 567.685 186.678 558.164 199.062 559.594C190.803 560.733 183.026 565.056 177.707 571.466C186.683 570.299 195.332 566.705 202.486 561.167C205.064 559.172 209.086 559.355 211.47 561.577C216.445 546.708 221.419 531.84 226.393 516.972C227.114 514.818 227.716 512.12 226.079 510.544C254.073 501.277 283.485 496.298 312.973 495.833C289.534 499.472 266.095 503.112 242.655 506.751C239.051 507.31 234.706 508.514 233.856 512.056C237.9 513.082 241.943 514.107 246.01 515.036C308.243 529.252 373.094 520.473 436.931 521.242C458.997 521.507 481.624 522.848 502.586 515.961C470.897 501.277 436.522 492.393 401.677 489.882C410.56 487.448 420.004 488.851 429.051 490.585ZM165.686 504.304C175.739 506.705 184.778 512.086 193.638 517.392C200.184 521.312 207.478 526.406 208.115 533.922L208.132 534.185L207.949 533.977C200.925 526.074 192.62 519.301 183.452 514.007C189.752 521.117 196.053 528.227 202.353 535.336C203.982 537.175 205.676 539.484 206.115 541.773C206.202 541.667 206.338 541.597 206.493 541.61L206.445 541.577C206.906 541.699 207.146 542.217 206.905 542.57C206.657 542.599 206.385 542.542 206.201 542.407C206.287 543.373 206.123 544.33 205.61 545.236C203.413 541.67 200.65 538.45 197.454 535.734C199.982 541.188 202.509 546.643 205.037 552.098C202.466 551.246 200.202 549.503 198.728 547.239C198.391 549.118 199.224 551.157 200.783 552.267C198.209 553.559 195.298 554.177 192.42 554.043C193.579 554.883 194.739 555.723 195.899 556.563L171.881 557.577C172.62 556.284 173.644 555.154 174.859 554.29C156.136 552.283 142.451 536.616 150.84 542.276C164.569 551.537 182.165 554.905 198.362 551.372C189.396 548.761 180.971 544.324 173.758 538.413C178.872 537.156 184.538 538.39 188.67 541.639L188.968 541.879L177.802 526.346C174.08 521.168 170.357 515.989 166.634 510.811C177.695 522.307 188.755 533.803 199.816 545.299C193.967 528.106 181.567 513.212 165.686 504.304ZM190.568 554.188L190.455 554.316C190.09 554.048 189.725 554.803 190.05 555.118C190.453 555.246 190.923 555.138 191.229 554.847C191.009 554.627 190.789 554.407 190.568 554.188ZM593.369 502.61C601.847 504.452 610.325 506.294 618.803 508.136C621.403 508.7 624.691 510.215 624.255 512.874C624.078 513.958 623.269 514.811 622.472 515.556C619.58 518.261 616.31 520.55 612.791 522.331L621.633 524.547C623.978 525.135 626.444 525.79 628.163 527.51C629.882 529.23 630.447 532.388 628.684 534.062C631.209 538.441 633.561 542.922 635.733 547.491C636.812 549.76 637.765 552.714 636.093 554.577C633.217 548.048 630.34 541.519 627.464 534.991C623.686 537.308 619.064 538.173 614.719 537.376C615.932 535.708 618.173 535.265 620.205 535.041C622.237 534.818 624.45 534.614 625.938 533.194C627.426 531.773 627.346 528.659 625.373 528.119C619.838 526.604 614.304 525.09 608.769 523.575C612.9 519.772 617.313 516.285 621.96 513.153C622.2 511.923 620.714 511.15 619.519 510.827C606.538 507.319 593.326 504.688 580 502.957C583.997 500.732 588.91 501.642 593.369 502.61ZM164.152 538.588C164.719 538.68 165.169 539.13 165.593 539.546C169.171 543.057 173.626 545.529 178.363 546.633C180.731 547.185 183.378 547.519 185 549.453C176.979 550.302 168.66 546.758 163.365 540.233C163.21 540.042 163.052 539.837 163.01 539.588C162.908 538.982 163.584 538.497 164.152 538.588ZM180.519 540.86C184.585 544.072 189.349 546.402 194.387 547.643C190.369 544.362 185.582 542.021 180.519 540.86ZM189.753 538.462C191.257 542.288 194.426 545.431 198.274 546.912C195.942 543.641 193.047 540.77 189.753 538.462ZM267.372 324.322C261.738 327.065 256.579 330.773 252.19 335.234C242.321 345.267 229.589 352.475 215.884 355.785L250.58 336.15C250.029 332.338 244.291 332.905 240.841 334.644C234.859 337.659 229.034 341.02 223.675 345.032C220.495 347.413 217.485 350.02 214.676 352.825C203.687 363.8 195.954 377.635 190.124 392.006C181.746 412.657 177.028 435.088 179.038 457.271C181.048 479.454 190.167 501.363 206.367 516.717C206.935 514.97 207.502 513.222 208.07 511.475C210.566 512.715 213.524 513.005 216.214 512.273C212.987 510.402 209.592 508.36 207.885 505.052C206.178 501.745 207.083 496.825 210.605 495.589C207.171 492.52 204.812 488.281 204.018 483.755C207.892 483.043 211.766 482.331 215.64 481.619C211.841 472.934 212.601 462.413 217.609 454.358C218.394 453.095 219.661 451.736 221.107 452.099C223.417 452.679 224.093 457.147 226.297 456.248L234.91 444.066L243.249 432.27L243.112 432.473C239.818 437.461 239.688 444.378 242.863 449.456C247.289 444.788 253.308 441.646 259.68 440.679C260.203 443.574 260.726 446.47 261.249 449.366C263.595 447.423 266.118 445.401 269.144 445.011C272.17 444.621 275.716 446.653 275.73 449.692C275.742 452.194 273.545 454.974 275.152 456.897C277.472 455.403 279.967 453.856 282.729 453.865C285.491 453.874 288.421 456.189 287.969 458.904C287.28 463.045 286.591 467.186 285.901 471.327C290.585 469.8 296.97 468.882 299.326 473.193C301.02 476.295 299.256 480.169 296.961 482.861C294.666 485.552 291.737 487.917 290.64 491.275C289.118 488.148 291.982 484.786 294.393 482.275C296.805 479.765 298.971 475.575 296.462 473.16C293.115 469.938 287.352 475.169 283.063 473.368C283.998 467.796 284.933 462.223 285.868 456.651C281.015 456.633 276.164 458.045 272.084 460.663C271.702 456.26 271.97 451.803 272.877 447.477C268.133 448.471 263.468 449.843 258.942 451.573C257.89 448.78 257.453 445.759 257.668 442.784L241.887 451.978C241.475 450.42 240.403 449.047 238.989 448.265C240.424 456.555 241.859 464.845 243.293 473.135C238.808 464.955 236.717 455.49 237.341 446.19C232.431 449.327 228.896 454.526 227.792 460.232C224.669 459.519 221.913 457.353 220.491 454.494C214.749 462.543 213.997 473.842 218.623 482.576C214.876 484.206 210.902 485.319 206.85 485.872L214.052 497.256C212.171 497.501 210.379 498.375 209.032 499.705C210.397 505.869 215.516 511.049 221.683 512.506C218.795 514.31 215.345 515.21 211.939 515.048C216.172 516.271 220.158 518.335 223.594 521.085C218.714 520.309 213.989 518.578 209.767 516.021C211.881 520.481 215.732 524.096 220.328 525.935C217.586 526.044 214.817 525.398 212.409 524.088C215.033 527.563 216.359 531.988 216.075 536.327C214.218 532.687 212.36 529.047 210.502 525.407C210.298 529.014 210.095 532.622 209.891 536.229C209.467 535.722 209.038 535.219 208.604 534.721L208.17 534.228L208.271 533.989C209.886 529.931 208.652 525.164 206.253 521.485C203.792 517.711 200.25 514.793 196.967 511.702C183.007 498.563 173.228 481.726 163.649 465.146C160.045 458.907 156.441 452.669 152.837 446.43C147.998 438.054 142.984 428.538 145.442 419.189C145.793 417.852 146.349 416.48 147.466 415.66C145.731 417.624 147.047 420.751 148.829 422.673C150.611 424.595 152.937 426.366 153.311 428.955C157.326 456.777 174.622 480.641 191.386 503.252C170.685 467.966 174.052 422.535 190.806 385.229C199.921 364.933 213.665 345.465 233.871 336.016C238.371 333.911 243.102 332.346 247.819 330.787C254.337 328.632 260.854 326.477 267.372 324.322ZM527.902 521.348C528.466 521.48 529.129 521.735 529.234 522.317C529.323 522.809 528.95 523.252 528.594 523.594C526.765 525.347 524.583 526.713 522.223 527.581C521.479 527.855 521.501 529.05 522.09 529.588C522.68 530.126 523.539 530.185 524.329 530.218C553.553 531.412 582.776 532.607 612 533.802C611.716 535.311 609.758 535.616 608.254 535.573C580.566 534.785 552.886 533.736 525.217 532.428C522.353 532.292 518.471 530.935 519.027 528.064C519.555 525.338 523.424 525.305 525.51 523.52L513 521.745C517.829 520.337 523.008 520.199 527.902 521.348ZM358.245 525.263L358.41 525.377C359.201 525.923 360.385 525.795 361.041 525.093C360.204 524.546 359.01 524.618 358.245 525.263ZM349.099 141.469C361.983 149.18 370.425 162.856 374.604 177.241C375.209 179.323 375.721 181.624 374.825 183.599C373.953 185.52 371.153 186.618 369.638 185.215L369.514 185.092C367.45 182.881 364.582 187.06 364.718 190.077C365.413 205.537 375.277 218.939 379.866 233.724C384.341 248.143 383.704 263.577 383.025 278.655C382.079 299.623 381.134 320.591 380.189 341.559C379.827 349.594 379.465 357.635 378.615 365.633C377.016 380.702 373.689 395.654 373.892 410.805C374.154 430.274 380.224 449.157 386.624 467.554C389.287 475.209 392.127 483.033 397.426 489.179C402.724 495.326 411.085 499.519 419 497.661C413.385 503.274 403.795 503.077 396.825 499.259C389.854 495.442 384.947 488.811 380.489 482.249C377.644 478.061 369.909 486.393 366.55 482.603C370.683 481.739 374.591 479.83 377.807 477.104C370.778 458.608 363.749 440.112 356.72 421.616C352.387 424.66 347.902 427.87 345.381 432.518C342.859 437.166 342.976 443.693 347.09 447.027C357.158 455.185 353.938 471.429 359.948 482.89C363.246 489.18 369.594 495.138 367.813 502.009C366.418 507.393 360.627 510.205 355.467 512.325C353.045 513.32 350.482 514.336 347.884 513.998C345.285 513.659 342.739 511.426 343.059 508.835C343.633 504.199 351.777 503.36 351.922 498.692C351.963 497.381 351.291 496.165 350.639 495.026C346.231 487.324 341.823 479.622 337.415 471.92C332.259 482.685 330.189 494.896 331.51 506.75C331.925 510.47 329.141 513.955 325.757 515.58C322.373 517.206 318.496 517.379 314.742 517.523C311.666 517.64 308.393 517.711 305.752 516.136C303.111 514.561 301.631 510.678 303.619 508.337C305.407 506.23 308.687 506.513 311.297 505.588C318.227 503.131 318.524 493.608 317.538 486.345L311.827 444.249C310.863 437.143 309.786 429.737 305.671 423.854C291.52 403.62 310.035 372.763 296.654 352.015C292.547 345.645 288.416 339.034 287.04 331.588C285.664 324.142 287.659 315.58 293.833 311.165C298.466 307.853 299.023 301.359 299.657 295.712C300.818 285.37 303.655 275.216 308.025 265.764C298.059 258.521 285.979 254.203 273.665 253.482C274.046 255.724 274.859 257.894 276.045 259.837C268.957 257.184 263.495 250.614 262.197 243.182C261.062 245.808 259.928 248.435 258.793 251.062C249.035 231.179 256.058 207.559 263.202 186.602C265.282 180.5 267.362 174.398 269.442 168.296C271.944 160.954 275.523 152.572 283.064 150.657C287.705 149.478 293.961 153.935 291.512 158.036C285.425 156.511 278.946 159.808 274.931 164.614C270.917 169.42 268.861 175.51 266.888 181.445C260.272 201.357 253.585 222.57 258.59 242.943C259.352 241.526 260.805 240.498 262.399 240.248C264.044 244.861 266.571 249.161 269.803 252.848C276.637 250.342 284.178 249.782 291.31 251.25C290.767 251.917 290.223 252.585 289.68 253.252C295.346 257.105 301.908 259.64 308.699 260.601C312.351 254.424 316.002 248.247 319.654 242.071L320.326 240.931C323.575 235.409 326.739 229.703 327.756 223.402C316.653 226.176 305.287 227.905 293.86 228.558C288.879 228.842 283.338 228.73 279.668 225.362C277.438 223.316 276.281 220.373 275.43 217.474C272.355 207.001 272.4 195.639 275.56 185.19C271.068 184.923 269.804 178.271 272.41 174.616C275.016 170.962 279.55 169.328 283.328 166.894C292.866 160.747 297.716 149.305 306.686 142.361C318.555 133.173 336.214 133.758 349.099 141.469ZM466.033 276.577C475.909 281.696 484.771 288.764 491.959 297.257C492.329 301.837 493.055 306.388 494.13 310.856C495.603 306.563 497.095 302 496.113 297.569C495.131 293.139 490.632 289.161 486.29 290.477C488.096 288.261 491.627 288.031 494.106 289.454C496.585 290.877 498.104 293.577 498.823 296.344C501.128 305.218 496.225 314.399 490.193 321.302C487.562 324.312 484.63 327.188 483.019 330.848C481.408 334.507 481.48 339.28 484.412 341.998C491.743 348.792 494.189 359.511 493.78 369.499C493.371 379.487 490.523 389.195 488.929 399.064C487.159 410.016 486.938 421.218 488.274 432.232C488.687 435.633 489.281 439.114 491.057 442.044C492.833 444.974 496.048 447.263 499.464 447.011C498.368 448.58 495.869 448.826 494.407 447.648L494.278 447.536L495.981 449.307C496.645 449.997 497.309 450.687 497.973 451.378C496.366 451.041 494.76 450.704 493.154 450.368C506.582 458.002 520.487 464.796 534.762 470.695C533.928 467.89 530.987 466.364 528.326 465.147C520.895 461.749 513.464 458.35 506.033 454.952C517.196 455.964 527.976 460.813 536.141 468.495C545.977 477.749 561.897 477.231 572.563 485.514C574.85 487.291 576.908 489.558 577.676 492.35C578.754 496.274 577.028 500.565 574.186 503.476C571.344 506.388 567.54 508.146 563.735 509.588C552.368 513.894 540.145 515.926 527.997 515.528C526.966 513.716 527.996 511.303 529.674 510.065C531.351 508.828 533.488 508.449 535.525 508.011C544.194 506.146 552.495 502.585 559.819 497.587C561.465 496.464 563.251 494.448 562.195 492.759C561.803 492.131 561.106 491.774 560.438 491.455C548.936 485.964 536.086 483.324 523.351 483.835L534.629 481.797C524.693 475.869 514.248 470.796 503.446 466.652C500.088 465.363 496 464.255 493.145 466.444C486.178 471.787 479.21 477.13 472.243 482.473C481.227 482.631 490.168 484.841 498.192 488.886C496.356 492.899 492.23 495.762 487.829 496.076C489.911 493.94 491.994 491.805 494.076 489.669C479.245 480.475 458.093 490.084 443.241 480.924C436.616 476.838 432.225 469.475 425.043 466.475C418.193 463.613 410.389 465.358 403.181 467.14C398.454 468.309 393.488 469.607 390 473.005C390.097 469.586 393.346 467.112 396.541 465.894C399.736 464.676 403.283 464.113 405.972 462.001C408.701 459.858 410.095 456.472 412.246 453.751C414.398 451.03 418.211 448.884 421.251 450.555C420.314 443.329 426.453 437.436 430.614 431.456C435.354 424.645 437.887 416.323 437.746 408.026C432.466 410.832 430.091 418.068 432.682 423.459C433.832 425.853 431.541 428.874 428.892 429.063C426.243 429.251 423.812 427.302 422.615 424.931C421.417 422.56 421.199 419.831 421.02 417.181C420.767 413.436 420.557 409.613 421.521 405.986C423.348 399.113 429.08 394.002 435.028 390.107C440.976 386.212 447.507 383.026 452.494 377.957C457.995 372.366 461.254 364.628 461.413 356.785C463.707 367.236 458.296 378.896 448.834 383.888C440.468 388.302 431.962 393.306 426.722 401.183C421.481 409.06 420.552 420.592 427.058 427.46C425.991 421.879 427.483 415.861 431.032 411.424C433.906 407.833 437.924 405.369 441.895 403.048C451.103 397.667 460.529 392.657 470.14 388.035C469.488 385.556 471.542 382.742 474.101 382.608C471.209 378.002 473.954 370.947 479.198 369.509C477.652 371.483 476.06 373.551 475.547 376.006C475.034 378.46 475.958 381.411 478.265 382.391C473.724 382.421 472.94 389.659 468.769 391.457C460.183 395.159 451.864 399.48 443.896 404.374C443.308 404.736 442.701 405.136 442.133 405.578C442.242 405.577 442.357 405.608 442.477 405.675C443.085 409.842 443.163 414.085 442.709 418.271C442.645 418.854 442.387 419.604 441.796 419.576C441.195 419.548 441.019 418.754 441.018 418.156L441 407.542C440.999 407.143 441.107 406.675 441.292 406.296C440.186 407.342 439.388 408.59 439.455 410.076C439.806 417.896 437.52 425.812 433.054 432.24C437.986 427.945 442.917 423.651 447.849 419.356C449.435 417.975 452.831 417.317 452.789 419.42C445.236 424.444 437.561 429.578 431.839 436.617C426.117 443.656 422.543 453.023 424.532 461.875C422.324 461.05 422.13 458.1 421.607 455.8C421.085 453.501 418.286 451.097 416.716 452.855C412.996 457.022 409.276 461.189 405.555 465.356C413.79 460.258 425.447 461.588 432.323 468.41C441.434 477.45 453.853 486.054 466.162 482.422C477.282 479.141 483.783 466.982 494.653 462.945C484.717 438.895 482.619 411.677 488.753 386.388C490.474 379.292 492.843 372.123 492.071 364.862C490.874 353.61 482.421 344.424 479.608 333.464C478.406 336.636 475.294 338.995 471.916 339.293C475.784 334.336 479.653 329.378 483.522 324.421C489.441 316.835 490.772 305.917 486.805 297.15C482.838 288.383 473.732 282.169 464.122 281.721C465.333 282.894 466.545 284.067 467.756 285.24C465.548 286.008 463.341 286.776 461.133 287.545C460.718 286.057 460.304 284.57 459.889 283.083C461.54 281.748 463.19 280.414 464.841 279.08C461.688 279.794 458.535 280.507 455.382 281.22C458.095 278.302 462.049 276.577 466.033 276.577ZM302.639 151.419C293.375 158.066 285.766 166.702 278.245 175.26C276.356 177.479 279.918 180.242 282.761 180.906C295.53 183.889 308.792 184.766 321.844 183.491C318.357 188.417 311.251 189.014 305.268 188.118C299.284 187.221 293.137 185.321 287.318 186.975C299.215 192.155 311.947 195.425 324.875 196.621L320.515 199.173C329.28 203.888 331.973 215.611 329.807 225.299C327.642 234.986 321.812 243.376 317.115 252.128C308.674 267.856 303.688 285.413 302.607 303.215C314.587 298.873 318.675 284.19 319.8 271.538C320.925 258.886 321.438 244.649 330.807 236.035C323.686 252.082 321.136 270.113 323.528 287.496C313.546 296.561 303.564 305.625 293.582 314.689C286.27 321.328 289.911 333.258 294.063 342.204C294.568 343.292 295.13 344.445 296.165 345.056C298.731 346.571 301.874 343.516 302.141 340.557C302.409 337.597 301.124 334.691 301.174 331.72C301.225 328.748 303.741 325.353 306.576 326.278C303.501 323.568 307.237 318.751 310.833 316.777C320.384 311.535 331.169 308.542 342.065 308.11C345.35 307.98 346.822 304.074 347.867 300.968C348.911 297.862 351.746 294.279 354.733 295.647C349.33 276.719 360.263 257.017 360.004 237.34C366.636 255.909 349.256 277.595 357.943 295.303C354.562 297.462 351.181 299.622 347.799 301.782C350.635 302.934 353.05 305.086 354.513 307.766C337.957 309.326 321.698 313.972 306.828 321.392C309.942 323.43 308.931 329.188 305.307 330.05C299.934 352.515 302.432 376.769 312.273 397.678C313.905 388.895 320.049 381.068 328.212 377.375C319.731 384.077 314.749 394.441 312.737 405.038C310.726 415.635 311.424 426.549 312.594 437.271C313.866 448.921 315.686 460.511 318.047 471.991C319.655 479.809 321.518 487.875 319.853 495.681C318.188 503.487 311.802 510.959 303.792 510.952C309.115 514.069 315.516 515.314 321.624 514.423C327.397 513.581 329.874 506.462 329.469 500.663C329.064 494.863 327.038 488.934 328.752 483.377C329.605 480.611 331.329 478.193 332.375 475.494C334.252 470.654 333.839 465.287 333.934 460.1C334.146 448.449 337.108 436.856 342.512 426.521C343.447 428.359 343.109 430.761 341.702 432.271C364.55 413.85 378.199 384.615 377.619 355.337L375.679 358.449C377.42 328.344 379.162 298.24 380.904 268.136C381.334 260.69 381.762 253.171 380.535 245.813C377.052 224.915 360.506 206.417 362.946 185.373C358.066 183.719 353.185 182.064 348.304 180.41C355.011 180.942 361.717 181.475 368.423 182.007C369.521 182.094 370.778 182.124 371.539 181.331C372.318 180.518 372.203 179.223 371.964 178.125C368.95 164.287 355.486 155.653 343.19 148.552C349.974 149.571 356.36 153.035 360.901 158.158C356.756 147.883 345.604 141.505 334.508 140.859C323.111 140.195 311.904 144.772 302.639 151.419ZM551.043 505.216C546.035 509.266 539.176 509.82 532.833 510.934C531.744 511.125 530.431 511.558 530.254 512.65C531.41 513.367 532.863 513.339 534.221 513.261C545.362 512.618 556.392 510.099 566.708 505.842C566.128 504.509 564.209 504.68 562.811 505.076C561.765 505.372 560.718 505.668 559.672 505.965C558.48 506.302 557.176 506.635 556.034 506.153C554.892 505.672 554.24 503.979 555.173 503.163C553.601 502.949 552.277 504.218 551.043 505.216ZM339.868 441.806C337.799 448.808 336.866 456.253 338.143 463.44C340.012 473.951 346.364 483.022 352.052 492.068C353.797 494.845 355.563 498.008 354.902 501.218C354.186 504.697 350.904 506.958 347.889 508.85C352.889 511.263 358.578 507.618 362.917 504.162C363.575 503.637 364.279 503.039 364.423 502.211C364.555 501.452 364.177 500.708 363.81 500.03C359.627 492.282 355.444 484.535 351.262 476.788L351.166 471.34C351.111 468.173 351.051 464.972 350.276 461.9C348.425 454.566 342.756 448.8 339.868 441.806ZM225.456 504.941C225.813 505.265 226.002 505.752 226.372 506.062C226.939 506.54 227.756 506.481 228.486 506.578C229.216 506.675 230.06 507.158 229.997 507.904C227.924 509.037 225.173 508.714 223.408 507.131C222.872 506.579 222.863 505.588 223.388 505.026C223.914 504.464 224.887 504.423 225.456 504.941ZM525.007 500.589C525.482 500.669 526.094 500.945 525.988 501.415C525.935 501.65 525.712 501.799 525.505 501.919C523.047 503.35 520.255 504.202 517.418 504.386C516.39 504.452 515.516 505.11 514.725 505.788L514.545 505.944C513.707 506.674 512.801 507.448 511.698 507.567C510.595 507.685 509.328 506.775 509.539 505.683C509.725 504.716 510.832 504.282 511.777 504.015C513.486 503.532 515.196 503.049 516.906 502.566C517.135 502.264 517.219 501.857 517.128 501.488L504.818 501.669C504.349 501.676 503.851 501.675 503.453 501.425C503.056 501.176 502.839 500.58 503.144 500.223C510.395 499.253 517.792 499.377 525.007 500.589ZM495.268 455.446C493.975 457.227 494.761 459.888 496.391 461.366C498.021 462.844 500.245 463.434 502.377 463.976C504.403 464.491 506.428 465.006 508.453 465.52C509.003 465.66 509.637 465.785 510.096 465.453C510.376 465.249 510.43 464.813 510.3 464.519L510.28 464.482L511.387 465.126C527.892 474.656 545.286 482.645 563.27 488.954C566.09 489.943 566.73 493.965 565.239 496.555C563.749 499.146 560.92 500.614 558.232 501.921C557.172 502.437 556.273 504.288 557.449 504.378C560.831 502.743 564.734 502.206 568.431 502.867C571.809 503.471 575.113 500.46 575.596 497.062C576.08 493.664 574.284 490.256 571.73 487.963C569.177 485.671 565.945 484.301 562.754 483.04C542.94 475.213 521.857 469.897 503.967 458.329C501.808 456.932 498.569 455.598 497.04 457.666L495.268 455.446ZM387.407 487.92C391.298 493.118 396.846 497.066 403.044 499.046C404.934 499.65 406.956 500.077 408.896 499.662C408.86 498.715 407.652 498.376 406.715 498.213C403.185 497.6 399.877 495.779 397.478 493.127C396.273 491.795 395.275 490.248 393.831 489.177C392.022 487.837 389.596 487.385 387.407 487.92ZM258.607 480.585C260.366 480.684 259.328 484.042 260.817 484.986C261.411 485.363 262.179 485.184 262.871 485.059C266.973 484.321 271.429 486.207 273.762 489.67C274.348 490.539 273.778 491.81 272.861 492.313C271.943 492.817 270.83 492.758 269.791 492.637C268.169 492.448 267.04 494.194 266.478 495.731C265.916 497.269 265.255 499.098 263.672 499.503C262.459 499.813 261.224 499.104 260.271 498.289C259.319 497.474 258.437 496.496 257.249 496.102C256.06 495.707 254.445 496.233 254.244 497.472C254.026 498.815 252.188 498.994 250.841 498.83L246.03 498.247C245.739 496.919 247.623 496.25 248.967 496.427C250.312 496.604 252.027 496.874 252.715 495.702C253.071 495.096 252.984 494.28 253.424 493.731C254.149 492.824 255.591 493.314 256.607 493.874C257.695 494.474 258.782 495.073 259.87 495.673C260.866 496.222 261.942 496.789 263.073 496.674C264.204 496.56 265.295 495.426 264.917 494.351C264.435 492.978 265.892 491.658 267.301 491.308C268.711 490.958 270.271 491.081 271.522 490.342C269.059 487.198 264.174 486.297 260.757 488.357C259.73 488.976 258.777 487.377 258.784 486.177C258.792 484.976 258.734 483.354 257.56 483.117C256.666 482.937 255.951 483.797 255.308 484.445C254.666 485.094 253.444 485.539 252.961 484.764C253.571 482.295 256.074 480.442 258.607 480.585ZM299.444 488.008C301.119 488.63 302.938 489.375 303.74 490.913C304.542 492.452 303.389 494.856 301.621 494.551C301.341 494.168 301.329 493.623 301.591 493.23C301.807 492.906 302.199 492.65 302.21 492.266C302.221 491.874 301.829 491.596 301.479 491.391C299.653 490.318 297.826 489.245 296 488.172C296.761 487.238 298.291 487.58 299.444 488.008ZM362.19 491.821L362.199 492.168C362.227 492.826 362.662 493.449 363.27 493.704C363.706 492.948 363.065 491.831 362.19 491.821ZM237 486.775C235.555 488.285 233.613 489.212 231.619 489.341C232.156 489.964 232.594 490.688 232.912 491.471C231.569 491.977 230.308 490.58 229.456 489.336C229.126 488.853 228.796 488.158 229.157 487.703C229.3 487.523 229.518 487.441 229.726 487.371C232.07 486.582 234.575 486.377 237 486.775ZM371.48 399.299C367.835 405.934 363.525 412.205 358.635 417.989C357.734 419.055 358.341 420.661 358.959 421.911C368.553 441.308 372.974 462.961 382.987 482.145C383.85 483.798 384.917 485.57 386.7 486.131C388.483 486.692 390.86 485.02 390.163 483.291C379.34 456.454 369.686 428.167 371.48 399.299ZM236.595 465.714C237.062 466.04 237.059 466.755 237.026 467.348C236.813 471.139 237.523 474.984 239.068 478.406C239.587 479.557 241.268 479.185 242.152 478.323C243.036 477.461 243.763 476.233 244.944 476.02C246.194 475.795 247.379 476.913 247.772 478.198C248.166 479.482 247.97 480.877 247.77 482.211C247.649 483.023 247.476 483.925 246.843 484.395C246.21 484.865 245.051 484.367 245.23 483.567L245.936 480.409C246.027 480 246.116 479.552 245.945 479.173C245.654 478.528 244.776 478.466 244.174 478.783C243.572 479.1 243.123 479.671 242.556 480.056C240.743 481.289 238.188 480.224 236.919 478.374C235.651 476.523 235.337 474.142 235.063 471.869C233.948 475.674 233.585 479.727 234.005 483.688C233.441 484.274 232.647 483.261 232.477 482.441C231.38 477.174 232.196 471.482 234.718 466.804C235.118 466.063 235.923 465.247 236.595 465.714ZM270 474.544C267.333 475.615 265.096 477.687 263.849 480.241C263.571 480.809 262.593 480.603 262.335 480.027C262.076 479.451 262.314 478.782 262.609 478.223C263.376 476.77 264.54 475.522 265.947 474.647C264.298 474.525 262.649 474.402 261 474.28C263.355 471.904 267.792 472.035 270 474.544ZM249.324 470.597C250.524 470.777 251.439 471.713 252.201 472.635C251.436 472.709 250.702 473.046 250.155 473.572C251.104 474.565 252.052 475.559 253 476.553C250.405 476.807 247.754 475.046 247.049 472.598C246.72 471.458 248.123 470.418 249.324 470.597ZM530.961 374.612C538.973 399.418 543.329 425.368 543.852 451.396C548.883 446.953 555.4 444.173 562.13 443.6C558.593 444.842 556.325 448.285 555.069 451.773C553.813 455.261 553.3 458.99 551.858 462.407C562.894 459.027 574.973 459.042 586 462.448C576.545 465.146 567.617 469.627 559.841 475.577C558.489 474.825 559.667 472.802 560.911 471.885C565.929 468.185 571.502 465.215 577.392 463.104C568.023 461.262 558.158 461.932 549.134 465.025C550.79 459.42 552.205 453.747 553.376 448.025C546.921 451.026 541.022 455.188 536.059 460.245C534.769 459.089 536.644 457.28 537.974 456.171C541.551 453.189 541.699 447.891 541.463 443.28C540.55 425.428 538.167 407.549 532.704 390.505C533.216 409.717 529.27 429.032 521.253 446.55C520.881 447.364 519.605 448.176 519.324 447.327C519.573 446.357 519.822 445.387 520.071 444.417C517.722 441.43 516.609 437.524 517.038 433.767C512.842 438.728 509.194 444.14 506.179 449.875C504.851 450.219 504.734 447.993 505.385 446.8C508.936 440.296 513.426 434.291 518.679 429.024C519.251 433.626 519.824 438.228 520.396 442.83C529.639 421.824 532.796 398.254 529.402 375.602C529.521 374.927 530.289 374.439 530.961 374.612ZM264.536 464.799C265.079 465.124 265.198 466.036 264.607 466.276C263.649 466.665 263.806 467.959 264.038 468.914C264.27 469.869 264.092 471.25 263.05 471.307C262.145 471.357 261.69 470.292 261.64 469.442C261.589 468.593 261.564 467.56 260.77 467.149C258.275 468.625 255.779 470.101 253.283 471.577C252.563 470.778 253.347 469.581 254.168 468.874C256.55 466.825 259.507 465.37 262.658 464.699C263.286 464.566 263.993 464.474 264.536 464.799ZM488.943 460.824C489.162 461.189 488.688 461.87 488.539 461.438L488.535 461.396C488.279 461.385 488.042 461.089 488 460.726C488.317 460.564 488.724 460.458 488.943 460.824ZM148.189 425.995C148.015 428.719 148.019 431.454 148.201 434.177C148.372 436.721 148.847 439.534 150.867 441.1C151.51 441.598 152.655 441.809 152.974 441.063C153.051 440.88 153.056 440.676 153.057 440.478C153.089 436.213 152.28 431.943 150.689 427.983C150.25 426.888 149.306 425.606 148.189 425.995ZM303.728 381.562L302.325 393.236C301.882 396.93 301.437 400.652 301.717 404.361C302.086 409.258 303.702 413.965 305.351 418.592C306.387 421.501 307.531 424.535 309.872 426.556C308.5 418.957 308.831 411.056 310.836 403.597C311.014 402.937 311.205 402.269 311.194 401.587C311.176 400.534 310.68 399.557 310.221 398.609C307.483 392.957 305.667 386.862 304.866 380.637C304.515 380.098 303.805 380.924 303.728 381.562ZM429.31 418.937C428.869 421.108 429.602 423.48 431.189 425.025C431.245 422.864 430.574 420.69 429.31 418.937ZM461 268.842C459.361 276.05 451.408 279.161 445.159 282.815C440.716 285.413 436.711 288.802 433.375 292.788C432.582 293.735 431.126 293.023 429.996 292.568C426.463 291.148 422.181 293.401 420.577 296.943C418.972 300.484 419.726 304.826 421.802 308.096C423.879 311.367 427.105 313.695 430.496 315.447C431.56 314.931 431.234 313.167 430.306 312.423C429.378 311.678 428.134 311.487 427.147 310.827C426.23 310.213 425.602 309.239 425.054 308.263C423.415 305.348 422.241 301.759 423.505 298.652C424.769 295.545 429.443 294.075 431.378 296.791C434.322 300.923 427.654 307.381 430.703 311.432C430.412 309.445 431.533 307.327 433.312 306.503C433.194 310.219 433.077 313.935 432.959 317.651C433.85 316.706 435.089 316.117 436.365 316.03C436.491 319.441 436.88 322.841 437.526 326.188C438.303 325.682 438.665 324.59 438.351 323.7L460.438 343.948C455.628 341.704 451.137 338.732 447.154 335.159C451.129 342.693 447.251 351.802 444.886 360.024C442.883 366.985 442.013 374.29 442.324 381.543C440.899 380.024 438.423 381.146 436.79 382.424C431.539 386.53 427.083 391.712 423.759 397.577C423.353 396.872 423.39 395.989 423.538 395.183C424.475 390.071 428.994 386.648 432.98 383.455C436.965 380.261 441.089 375.971 440.675 370.787C440.116 363.781 443.344 357.138 445.315 350.409C447.286 343.68 447.635 335.39 442.612 330.634C440.872 328.986 438.653 327.953 436.9 326.32C435.146 324.686 433.886 322.035 434.883 319.827C434.034 320.336 433.184 320.845 432.335 321.354C432.098 317.938 428.217 316.418 425.298 314.782C420.29 311.975 416.628 306.306 417.03 300.447C417.432 294.588 422.542 289.192 428.233 289.522C430.677 289.664 433.815 290.437 435.029 288.248C439.513 280.158 451.143 279.226 456.424 271.665C457.575 270.018 459.303 267.81 461 268.842ZM297.081 348.973L296.946 349.255C297.378 349.357 297.81 349.46 298.242 349.562C298.808 348.96 298.682 347.77 297.896 347.513C297.11 347.256 296.36 348.568 297.081 348.973ZM442.214 319.577C442.297 320.799 442.689 322.001 443.347 323.055C443.343 322.3 444.609 322.098 445.158 322.647C445.706 323.195 445.709 324.039 445.678 324.793C448.217 324.528 450.027 326.918 451.929 328.531C456.363 332.29 462.977 332.293 468.921 331.973C470.562 331.885 472.747 332.172 473 333.709C470.209 334.655 467.167 334.652 464.206 334.506C459.576 334.276 454.883 333.7 450.66 331.892C446.436 330.083 442.699 326.893 441.221 322.736C440.798 321.547 440.906 319.784 442.214 319.577ZM445.526 314.578C447.207 319.017 453.299 321.335 457.711 319.214C458.5 318.835 459.249 318.334 460.117 318.178C461.577 317.915 462.996 318.67 464.357 319.239C466.275 320.041 468.419 320.514 470.469 320.109C472.519 319.704 474.431 318.281 474.917 316.334C475.042 315.834 475.087 315.282 475.434 314.889C475.782 314.496 476.591 314.452 476.761 314.94C477.745 317.752 475.555 320.908 472.663 321.979C469.77 323.049 466.486 322.48 463.588 321.423C462.615 321.068 461.616 320.652 460.576 320.727C459.531 320.802 458.605 321.361 457.648 321.772C453.212 323.678 447.447 322.084 444.761 318.207C444.318 317.568 443.942 316.833 444.007 316.068C444.072 315.304 444.725 314.545 445.526 314.578ZM491.163 311.031C490.903 312.282 491.071 313.62 491.634 314.767C492.51 314.362 493.038 313.317 492.845 312.371L492.852 312.367C492.838 311.546 491.965 310.856 491.163 311.031ZM460.17 308.592C460.913 308.696 461.513 309.327 462.04 309.949C463.107 311.207 464.097 312.554 465 313.977C462.373 314.715 459.608 314.773 456.96 314.147C456.143 313.954 455.808 312.688 456.109 311.779C456.411 310.869 457.123 310.251 457.801 309.684C458.509 309.093 459.307 308.472 460.17 308.592ZM458.669 312.398L458.921 312.525L460.669 312.131C460.864 311.811 460.938 311.394 460.869 311.01C459.996 310.504 458.789 311.266 458.669 312.398ZM425.874 298.343C424.889 299.354 424.694 300.965 425.015 302.359C425.576 304.804 427.479 306.797 427.806 309.287C428.489 309.095 428.791 308.243 428.745 307.515C428.699 306.788 428.417 306.09 428.387 305.362C428.287 302.924 430.916 300.405 429.54 298.421C428.731 297.255 426.859 297.332 425.874 298.343ZM476.747 289.59C479.541 289.783 481.715 292.221 483.227 294.719C484.447 296.737 485.467 299.194 484.776 301.477C483.846 304.549 480.418 305.736 477.457 306.487L474.341 307.278C473.513 307.487 472.649 307.698 471.82 307.494C470.673 307.213 469.831 306.207 469.069 305.256C467.527 303.328 465.894 301.137 466.005 298.612C466.135 295.672 468.559 293.489 470.876 291.867C472.647 290.627 474.629 289.443 476.747 289.59ZM454.194 293.606C456.857 295.486 458.566 298.793 457.827 301.88C457.088 304.966 453.488 307.337 450.344 306.35C447.462 305.446 444.48 304.451 442.335 302.4C440.189 300.349 439.164 296.919 440.822 294.489C441.75 293.129 443.352 292.3 444.997 291.895C448.123 291.126 451.597 291.772 454.194 293.606ZM476.983 293.036C475.232 293.269 473.439 293.383 471.794 294.056C470.148 294.73 468.63 296.099 468.278 297.931C467.821 300.303 469.374 302.532 470.832 304.396C471.516 305.27 472.767 305.268 473.828 305.11C477.053 304.631 480.177 303.395 482.908 301.515C481.526 301.177 480.143 300.838 478.761 300.499C478.946 299.619 480.091 299.578 480.942 299.611C481.792 299.644 482.954 299.076 482.646 298.235C481.337 297.821 479.964 297.635 478.6 297.688C478.198 297.704 477.727 297.787 477.548 298.168C477.409 298.465 477.51 298.816 477.572 299.141C477.982 301.312 476.045 303.602 473.964 303.407C471.882 303.212 470.355 300.597 471.118 298.536C471.882 296.475 474.681 295.659 476.331 297.017C476.7 296.667 476.664 295.952 476.261 295.646C477.477 294.761 479.073 294.489 480.49 294.924C480.656 294.122 480.021 293.334 479.287 293.072C478.552 292.811 477.752 292.934 476.983 293.036ZM446.12 294.238C444.079 294.495 441.671 295.834 442.041 297.772C442.3 299.133 443.952 299.928 445.384 299.739C446.816 299.55 448.025 298.635 449.037 297.648L444.799 297.983C444.245 298.027 443.43 297.769 443.631 297.273C443.687 297.135 443.818 297.038 443.947 296.956C445.785 295.776 448.439 295.931 450.114 297.315C451.749 297.833 453.328 298.993 453.611 300.619C453.895 302.245 452.222 304.076 450.592 303.541C450.448 304.749 452.387 305.123 453.489 304.519C456.143 303.066 456.392 299.128 454.461 296.86C452.53 294.591 449.152 293.856 446.12 294.238ZM445.06 300.451C444.845 302.069 446.644 303.612 448.302 303.232C447.814 301.984 446.721 300.966 445.403 300.535L445.06 300.451ZM449.161 301.255L450.921 302.659L450.973 302.404C451.718 302.019 451.774 300.831 451.068 300.384C450.363 299.937 449.241 300.449 449.161 301.255ZM474.248 298.789C473.318 298.881 472.777 300.275 473.393 301.019L473.214 301.034C473.779 301.822 475.136 301.699 475.546 300.81C475.956 299.921 475.178 298.697 474.248 298.789ZM278.22 186.68C277.072 188.117 276.686 190.003 276.418 191.82C275.061 201.023 275.851 210.533 278.706 219.389C279.221 220.987 279.831 222.611 280.979 223.84C284.118 227.198 289.546 226.255 294.086 225.484C298.311 224.767 302.602 224.433 306.887 224.488C308.874 224.513 310.831 224.062 312.766 223.612C317.878 222.425 322.991 221.238 328.104 220.051C328.168 213.248 325.414 206.461 320.623 201.614C319.903 200.886 318.781 200.165 317.943 200.754C318.865 201.685 318.592 203.482 317.434 204.098C316.055 203.595 316.546 201.559 316.16 200.148C315.664 198.333 313.56 197.544 311.722 197.116C302.286 194.916 291.313 194.54 285.043 187.178C284.46 186.493 283.909 185.74 283.118 185.308C281.501 184.426 279.368 185.243 278.22 186.68ZM346.045 158.652C351.512 161.204 356.368 165.179 360.058 170.119C360.557 170.787 361.058 171.554 360.994 172.399C360.878 173.935 359.116 174.599 357.676 174.905C355.127 175.446 352.578 175.988 350.028 176.529C349.096 176.728 347.629 176.301 348.01 175.387C351.08 173.42 354.763 172.524 358.346 172.874C358.632 172.252 358.289 171.521 357.91 170.956C356.658 169.092 354.942 167.634 353.249 166.202C350.499 163.875 347.75 161.548 345 159.221C345.058 158.742 345.638 158.426 346.045 158.652ZM325.961 151.099C328.362 152.207 329.231 155.079 329.667 157.642C329.938 159.234 330.142 160.864 329.875 162.456C329.408 165.244 327.489 167.678 325.055 169.196C322.62 170.715 319.714 171.388 316.831 171.542C310.154 171.9 303.368 169.48 298.492 165.003C296.37 163.054 296.656 159.469 298.44 157.219C300.224 154.969 303.079 153.806 305.886 153.051C309.063 152.195 312.337 151.74 315.6 151.287C317.84 150.976 320.086 150.665 322.347 150.589C323.575 150.548 324.849 150.586 325.961 151.099ZM299.325 160.161C298.589 161.443 299.801 162.929 300.913 163.917C303.091 165.852 305.821 167.933 308.664 167.191C310.57 166.694 312.617 164.998 314.207 166.141C314.073 166.757 313.349 167.054 312.711 167.135C312.072 167.215 311.375 167.195 310.853 167.564C310.332 167.934 310.255 168.907 310.873 169.084C312.89 169.662 314.769 167.963 316.204 166.461C317.639 164.959 319.698 163.375 321.623 164.2C321.879 164.309 322.144 164.505 322.148 164.778C322.152 165.176 321.645 165.347 321.248 165.434C319.13 165.899 317.236 167.266 316.159 169.109C318.979 168.707 321.508 167.247 323.955 165.816C325.686 164.805 327.586 163.562 327.936 161.619C325.518 162.318 323.003 162.697 320.482 162.742C315.206 162.836 310.076 166.014 304.933 164.862C303.632 164.57 302.736 163.437 301.953 162.38C302.765 161.619 304.065 162.246 305.125 162.613C306.186 162.98 307.889 162.419 307.494 161.388C306.249 160.87 305.004 160.352 303.759 159.833C302.258 159.208 300.124 158.769 299.325 160.161ZM311.17 160.658C310.801 160.708 310.392 160.806 310.196 161.116C309.914 161.565 310.298 162.185 310.807 162.356C311.317 162.527 311.874 162.389 312.394 162.251C313.678 161.908 314.961 161.565 316.245 161.223C314.637 160.622 312.874 160.426 311.17 160.658ZM322.919 158.451C320.951 159.175 318.897 159.955 317.516 161.507C320.595 160.984 323.73 160.771 326.854 160.872C327.96 160.39 327.547 158.565 326.437 158.092C325.327 157.619 324.053 158.034 322.919 158.451ZM324.495 154.115C323.401 154.202 322.426 154.789 321.404 155.18C318.5 156.29 315.258 155.808 312.145 155.644C309.411 155.5 306.653 155.616 303.968 156.145C302.525 156.429 300.837 157.116 300.656 158.546C303.116 157.415 305.982 157.819 308.692 158.014C314.829 158.458 321.055 157.693 326.889 155.778C326.866 154.705 325.589 154.029 324.495 154.115ZM281.219 154.464C280.492 154.785 279.744 155.23 279.454 155.967C279.164 156.704 279.637 157.744 280.431 157.722C282.839 156.043 285.883 155.293 288.8 155.66C289.723 155.776 290.667 155.028 290.76 154.105C287.688 153.017 284.2 153.148 281.219 154.464ZM313.003 141.864L313.011 141.972C312.103 141.649 310.984 142.148 310.62 143.037C312.117 142.933 313.598 142.612 315.003 142.087C314.998 141.264 313.699 141.42 313.003 141.864ZM332.151 138.567C331.541 138.844 332.257 139.982 332.774 139.555L332.788 139.603C333.25 139.234 332.691 138.324 332.151 138.567Z" fill="#00160A"/>
</svg>
