<svg width="750" height="750" viewBox="0 0 750 750" fill="none" xmlns="http://www.w3.org/2000/svg">
<rect width="750" height="750" fill="none"/>
<path fill-rule="evenodd" clip-rule="evenodd" d="M546.9 554.823L547.222 554.899L547.86 555.054C558.201 557.638 568.277 561.279 577.881 565.903C583.256 568.491 588.852 571.467 594.801 571.011C596.505 570.88 598.185 570.465 599.894 570.446C605.686 570.383 610.573 574.758 616.234 575.982C621.144 577.043 626.209 575.664 631.224 575.379C636.239 575.094 642.037 576.417 644.358 580.872C644.681 581.491 644.928 582.2 644.775 582.882C644.57 583.8 643.739 584.377 642.87 584.812L642.696 584.897L642.326 585.068C635.65 588.058 628.524 591.118 621.291 590.24L620.786 590.172L620.033 590.074C613.254 589.307 606.414 591.512 599.57 591.32C585.443 590.924 571.041 589.392 557.464 586.527L556.013 586.215L555.282 586.057C532.004 581.085 520.297 584.688 509.418 584.965L509.072 584.972L508.393 584.981C504.203 585.002 490.29 584.916 485.317 586.221C482.808 586.879 481.142 583.078 482.466 580.847C483.736 578.706 486.286 577.801 488.615 576.871L488.905 576.755L489.138 576.659C491.397 575.71 493.749 574.196 494.186 571.847L494.224 571.601L494.26 571.368C494.803 568.385 498.363 567.06 501.417 566.381L501.664 566.327L503.417 565.956C508.104 564.982 512.884 564.174 517.594 564.906C520.262 565.32 530.449 558.938 533.504 556.31C537.048 553.262 542.271 553.756 546.9 554.823ZM585.852 357.713L585.472 357.837C582.282 358.755 579.233 360.155 576.479 362.012C571.774 365.184 567.81 369.653 562.451 371.518C558.747 372.808 554.573 372.698 550.942 371.214C552.199 373.946 555.691 374.899 558.683 374.588C567.42 373.681 573.374 365.456 581.228 361.522C582.96 360.654 584.783 360.003 586.659 359.548C587.44 361.321 588.219 363.112 588.994 364.916L588.99 364.937C588.392 365.377 587.848 365.889 587.38 366.473C585.58 368.718 585.133 372.123 586.735 374.513C588.345 376.913 591.292 377.645 594.293 377.555L594.294 377.545L595.379 380.205C597.183 384.654 598.974 389.18 600.75 393.785L600.606 393.862C600.175 394.079 599.746 394.299 599.319 394.523C587.652 400.622 577.079 409.138 564.448 412.851C562.104 413.54 559.636 414.058 557.226 413.652C554.817 413.246 552.466 411.744 551.649 409.441C550.745 409.504 550.657 410.839 551.042 411.66C553.192 416.248 559.731 416.224 564.595 414.807C577.598 411.02 588.653 402.602 600.632 396.252L601.509 395.79L602.891 399.471C663.04 563.936 500.783 551.763 454.153 539.687C385.018 521.783 179.668 588.632 134.659 539.687C115.936 519.327 106.595 492.528 104.964 462.551C118.643 456.887 130.544 446.975 144.489 441.73C153.246 438.437 162.717 437.058 172.05 437.718C176.731 438.049 181.518 438.941 185.451 441.501C189.385 444.06 192.306 448.582 191.869 453.255C191.565 456.509 189.737 459.407 187.811 462.048C186.475 463.882 185.054 465.675 183.328 467.147C180.036 469.954 175.761 471.455 171.454 471.861C167.025 472.279 162.319 471.507 158.772 468.822C155.224 466.136 153.147 461.284 154.527 457.055C155.087 455.337 156.157 453.821 157.418 452.527C159.991 449.884 163.652 448.049 167.309 448.528C170.966 449.007 174.303 452.309 174.014 455.986C173.725 459.663 168.977 462.421 165.969 460.287C166.438 458.672 164.06 457.156 162.793 458.262C161.689 459.227 162.059 461.172 163.183 462.115C164.307 463.057 165.875 463.236 167.342 463.247C169.732 463.264 172.244 462.894 174.147 461.449C178.483 458.156 177.073 450.488 172.382 447.724C167.691 444.96 161.444 446.35 157.11 449.644C154.931 451.3 153.054 453.454 152.147 456.036C150.259 461.409 153.138 467.665 157.86 470.848C162.582 474.032 168.679 474.565 174.301 473.657C177.492 473.142 180.667 472.171 183.319 470.323C185.941 468.497 187.926 465.911 189.759 463.294C192.177 459.84 194.485 456.008 194.528 451.792C194.574 447.068 191.643 442.662 187.745 439.993C183.847 437.325 179.098 436.179 174.402 435.667C160.271 434.126 145.917 437.937 133.319 444.523C123.681 449.562 114.79 456.249 104.868 460.516C103.859 436.893 107.572 411.361 115.198 385.491L115.808 385.367C125.228 383.404 134.832 382.326 144.453 382.149C150.837 382.032 157.304 382.324 163.428 384.132C165.998 384.892 168.523 385.92 171.193 386.151C176.315 386.595 181.53 384.068 186.504 385.373C189.013 386.031 190.679 382.229 189.355 379.999C188.032 377.768 185.32 376.88 182.916 375.907C180.511 374.934 177.92 373.326 177.597 370.752C177.191 367.522 173.341 366.158 170.157 365.479L168.989 365.231C164.115 364.203 159.133 363.295 154.227 364.058C151.559 364.472 148.756 365.363 146.245 364.371C142.497 362.89 141.372 358.09 138.317 355.462C135.168 352.753 130.692 352.841 126.486 353.644C142.543 314.778 166.683 276.603 196.172 244.446L196.188 244.465C196.358 244.487 196.527 244.507 196.696 244.526C207.826 245.789 219.232 244.568 229.842 240.976C237.428 238.409 245.654 241.958 252.546 246.038C259.437 250.118 266.441 254.966 274.446 255.202C280.179 255.37 285.661 253.122 291.197 251.624C314.75 245.254 339.51 252.421 363.583 256.393C370.995 257.616 379.338 258.318 385.311 253.76C383.506 249.813 379.185 247.531 374.899 246.842C370.614 246.152 366.243 246.766 361.911 247.047C346.797 248.025 331.434 244.82 317.971 237.881C310.582 234.072 301.822 234.644 293.555 233.77C285.288 232.896 276.098 229.519 273.213 221.722C270.668 214.842 263.475 210.376 256.174 209.67C248.873 208.964 241.571 211.518 235.295 215.314C229.018 219.11 223.577 224.112 217.988 228.863C215.934 230.609 213.788 232.363 211.225 233.2C209.779 233.672 208.267 233.83 206.742 233.91L206.228 233.925C310.266 129.541 472.424 101.351 585.852 357.713ZM589.795 366.785C589.982 367.222 590.171 367.667 590.36 368.112L593.476 375.566C591.719 375.47 590.046 374.933 588.984 373.586C587.461 371.653 587.95 368.621 589.693 366.883L589.795 366.785ZM177.375 298.532L176.796 298.84C175.907 299.318 175.052 299.814 173.81 300.564L170.871 302.351C167.016 304.672 164.917 305.713 162.262 306.493C161.09 306.838 160.239 306.954 159.461 306.822C158.598 306.677 157.873 306.155 157.642 305.502L157.438 304.928L156.832 304.971C155.735 305.048 155.502 306.236 155.898 307.079C156.941 309.305 159.806 309.75 162.776 308.885C165.791 308.007 168.138 306.864 172.416 304.345L175.156 302.715C178.7 300.619 180.562 299.653 182.915 298.768C186.639 297.368 190.667 296.781 194.636 297.062C196.958 297.226 198.721 297.679 200.12 298.59C201.721 299.632 202.719 301.37 202.568 302.988C202.47 304.034 201.968 305.031 200.942 306.439C200.248 307.392 199.712 308.017 199.108 308.532C197.868 309.589 196.194 310.234 194.357 310.407C192.423 310.589 190.637 310.198 189.365 309.235C188 308.202 187.318 306.408 187.786 304.973C187.973 304.399 188.34 303.839 188.863 303.302C189.921 302.216 191.289 301.627 192.514 301.787C193.778 301.953 194.841 303.092 194.754 304.195L194.738 304.319C194.589 305.14 193.637 305.763 192.902 305.648L192.823 305.632L192.821 305.614C192.563 304.518 191.068 303.819 190.116 304.651C189.247 305.41 189.433 306.825 190.298 307.552C190.903 308.059 191.637 308.227 192.627 308.234C194.028 308.244 195.184 307.975 196.094 307.284C198.422 305.516 197.822 301.472 195.244 299.953C193.009 298.636 189.961 299.105 187.671 300.845C186.516 301.723 185.656 302.798 185.229 304.014C184.308 306.636 185.586 309.771 188.036 311.423C190.136 312.839 192.898 313.249 195.805 312.779C197.482 312.508 198.905 312.006 200.081 311.187C201.166 310.431 202.001 309.479 203.096 307.914C204.586 305.785 205.309 304.219 205.328 302.43C205.35 300.18 204.032 297.982 202.012 296.599C200.347 295.46 198.311 294.844 195.808 294.571C189.8 293.916 183.415 295.375 177.375 298.532Z" />
<path fill-rule="evenodd" clip-rule="evenodd" d="M117.648 445.441C118.465 447.744 120.816 449.246 123.225 449.652C125.635 450.058 128.103 449.54 130.447 448.851C138.818 446.39 146.284 441.821 153.764 437.243C157.572 434.913 161.383 432.58 165.318 430.523C177.916 423.936 192.27 420.126 206.401 421.667C211.097 422.179 215.846 423.325 219.744 425.993C223.643 428.662 226.573 433.068 226.526 437.792C226.484 442.008 224.176 445.84 221.758 449.294C219.926 451.911 217.94 454.497 215.318 456.323C212.666 458.171 209.491 459.142 206.3 459.657C200.678 460.565 194.581 460.032 189.859 456.848C185.137 453.664 182.258 447.409 184.146 442.036C185.053 439.454 186.931 437.3 189.109 435.644C193.443 432.35 199.69 430.96 204.381 433.724C209.072 436.488 210.482 444.155 206.146 447.449C204.243 448.894 201.731 449.264 199.341 449.247C197.874 449.236 196.306 449.057 195.182 448.115C194.058 447.172 193.688 445.227 194.793 444.262C196.059 443.156 198.437 444.672 197.968 446.287C200.976 448.421 205.724 445.663 206.013 441.986C206.302 438.309 202.965 435.007 199.308 434.528C195.651 434.049 191.99 435.884 189.417 438.527C188.156 439.821 187.086 441.337 186.526 443.054C185.146 447.284 187.223 452.136 190.771 454.821C194.318 457.507 199.024 458.279 203.453 457.861C207.76 457.455 212.035 455.954 215.327 453.147C217.053 451.675 218.474 449.882 219.81 448.048C221.736 445.407 223.564 442.509 223.868 439.255C224.305 434.582 221.384 430.06 217.45 427.501C213.517 424.941 208.73 424.049 204.049 423.718C194.716 423.058 185.245 424.437 176.488 427.73C169.154 430.488 162.386 434.537 155.628 438.58C147.582 443.393 139.55 448.198 130.594 450.807C125.73 452.224 119.191 452.248 117.041 447.66C116.656 446.839 116.744 445.504 117.648 445.441Z" />
<path fill-rule="evenodd" clip-rule="evenodd" d="M348.288 497.494C338.752 509.678 312.721 500.267 301.54 493.15C290.358 486.033 294.651 479.139 294.651 475.767C294.651 472.395 293.883 468.272 292.013 465.357C290.143 462.442 260.572 449.943 260.572 436.214C260.572 423.408 269.436 411.692 281.835 406.385C301.54 397.951 311.179 403.314 329.387 410.72C347.595 418.127 346.098 436.214 346.098 436.214C346.098 436.214 361.031 481.21 348.288 497.494Z" fill="#E7EAEE"/>
<path d="M336.542 504.24C296.26 501.609 258.533 475.709 240.797 439.446C223.062 403.183 225.591 357.992 246.495 323.458C267.399 288.925 305.78 265.851 346.023 262.674C356.43 261.853 367.06 262.299 377.035 265.377C387.869 268.72 397.608 275.055 408.491 278.236C423.453 282.609 439.366 279.309 452.816 271.43C462.817 265.571 471.854 257.934 482.595 253.579C495.145 248.489 509.842 250.387 521.831 256.686C533.82 262.985 543.316 273.299 550.633 284.695C572.421 318.628 575.651 360.824 578.264 401.064C579.7 423.175 581.023 446.092 573.122 466.794C565.951 485.582 551.802 500.804 537.038 514.458C521.382 528.937 504.531 542.327 485.687 552.31C448.958 571.767 405.99 577.395 364.592 573.68C323.194 569.965 283.074 557.341 244.443 542.003C222.881 533.442 199.634 556.523 176.933 551.739C162.907 548.783 153.079 535.942 139.749 530.67C125.426 525.004 107.695 529.566 97.8848 541.442C106.471 520.662 135.863 512.015 154.333 524.836C163.68 531.324 176.211 530.919 187.261 528.207C198.311 525.496 208.887 520.753 220.173 519.308C236.326 517.239 252.482 522.067 268.716 523.359C288.574 524.939 308.429 521.211 328.001 517.501C349.082 513.504 370.163 509.508 391.244 505.511C401.416 503.583 411.761 501.595 420.917 496.764C431.229 491.324 439.614 482.314 444.302 471.639C409.191 501.064 356.423 502.613 336.542 504.24Z" fill="white"/>
<path fill-rule="evenodd" clip-rule="evenodd" d="M351.288 498.494C341.752 510.678 315.721 501.267 304.54 494.15C293.358 487.033 297.651 480.139 297.651 476.767C297.651 473.395 296.883 469.272 295.013 466.357C293.143 463.442 263.572 450.943 263.572 437.214C263.572 424.408 272.436 412.692 284.835 407.385C304.54 398.951 314.179 404.314 332.387 411.72C350.595 419.127 349.098 437.214 349.098 437.214C349.098 437.214 364.031 482.21 351.288 498.494Z" fill="#E7EAEE"/>
<path fill-rule="evenodd" clip-rule="evenodd" d="M390.804 441.628C391.097 442.868 392.477 444.109 393.523 443.382C398.986 439.58 404.47 435.767 410.389 432.722C414.202 430.762 418.283 429.056 421.252 425.963C417.652 427.716 413.4 427.449 409.479 426.639C405.557 425.829 401.714 424.513 397.717 424.278C394.293 424.076 390.823 424.69 387.676 426.054C385.783 426.875 383.923 428.049 382.953 429.869C381.983 431.69 382.213 434.269 383.908 435.445C385.736 436.713 388.676 436.118 389.952 437.94C390.683 438.983 390.512 440.388 390.804 441.628Z" fill="#E7EAEE"/>
<path fill-rule="evenodd" clip-rule="evenodd" d="M442.911 323.674C451.084 338.314 461.488 348.768 454.862 355.415C449.118 361.179 451.122 351.152 444.604 349C440.277 347.572 431.045 350.517 422.965 350.179C411.834 349.712 410.292 357.044 402.004 356.655C389.107 356.048 371.556 347.583 366.162 345.5C359.686 342.999 361.626 334.331 366.162 330.22C367.832 328.707 373.303 333.136 373.907 331.109C376.152 323.575 371.282 316.852 375 315.846C376.71 315.384 382.95 317.425 385.312 319.846C388.086 322.688 390.879 326.918 396.61 325.199C407.221 322.015 405.858 315.076 414.152 315.076C422.445 315.076 433.284 321.151 438.507 322.939C443.73 324.726 434.737 309.034 442.911 323.674Z" fill="#E7EAEE"/>
<path fill-rule="evenodd" clip-rule="evenodd" d="M358.634 397.504C359.719 400.737 361.945 403.569 364.465 405.866C366.824 408.016 370.582 409.849 370.113 413.006C374.787 408.065 381.778 405.416 388.552 406.017C390.85 406.221 393.107 406.775 395.406 406.953C403.853 407.61 411.778 403.226 419.113 398.986C424.38 395.94 429.648 392.895 434.916 389.849C436.137 387.313 435.192 384.144 433.306 382.054C431.42 379.964 428.768 378.747 426.141 377.735C423.293 376.639 420.328 375.706 417.277 375.644C414.3 375.583 410.405 375.842 409.329 373.065C407.902 369.38 404.417 366.572 400.513 365.96C396.609 365.348 392.433 366.955 389.946 370.027C387.372 373.206 383.166 374.429 379.322 375.828C374.665 377.524 370.189 379.713 365.992 382.348C362.473 384.558 358.833 387.64 358.634 391.79C358.55 393.555 358.072 395.829 358.634 397.504Z" fill="#E7EAEE"/>
<path fill-rule="evenodd" clip-rule="evenodd" d="M369.625 304.306C375.155 305.884 380.339 300.726 386.058 300.118C390.731 299.622 395.35 302.227 400.006 301.591C401.687 301.362 403.671 299.795 402.786 298.348C402.27 297.502 401.105 297.399 400.114 297.39C394.731 297.337 389.348 297.284 383.965 297.232C382.214 297.215 380.316 297.147 378.957 296.043C376.128 293.745 372.684 292.338 369.211 291.235C364.461 289.727 359.547 288.728 354.582 288.302C349.162 287.837 343.683 288.057 338.317 288.955C336.212 291.689 334.106 294.422 332.001 297.156C329.417 300.511 325.952 304.241 321.773 303.548C316.321 302.644 310.589 303.514 305.649 305.993C310.617 304.352 316.117 304.369 321.074 306.042C324.22 307.104 327.131 308.803 330.312 309.758C338.221 312.132 346.714 309.662 354.444 306.757C359.331 304.92 364.604 302.873 369.625 304.306Z" fill="#E7EAEE"/>
<path d="M463.478 366.669C463.605 367.76 464.303 368.69 465.009 369.531C468.569 373.772 473.144 377.355 478.496 378.774C488.399 381.4 499.046 375.991 505.513 368.044C511.979 360.097 515.117 350.023 517.991 340.188C518.821 337.349 520.054 334.078 522.903 333.283C525.982 332.423 528.547 329.911 529.472 326.851C530.397 323.79 529.652 320.279 527.564 317.857C525.203 315.119 520.113 314.332 518.313 317.468C517.614 318.686 515.905 318.969 514.57 318.534C513.234 318.098 512.153 317.131 511.022 316.297C504.02 311.131 494.678 310.837 485.977 310.747C483.223 310.719 480.436 310.694 477.76 311.344C472.228 312.688 467.753 316.752 462.416 318.733C455.592 321.266 447.498 320.025 441.747 315.563C447.992 325.45 453.207 335.988 457.279 346.95C457.576 349.152 462.757 360.461 463.478 366.669Z" fill="white"/>
<path fill-rule="evenodd" clip-rule="evenodd" d="M323.435 327.726C321.992 324.216 319.827 320.092 316.035 319.951C315 319.913 313.985 320.202 312.964 320.376C307.519 321.301 300.808 314.455 298.767 313.901C296.725 313.346 294.25 317.195 291.664 318.351C289.078 319.507 286.362 321.352 285.986 324.16C285.685 326.407 286.994 328.767 286.202 330.891C285.078 333.905 280.532 334.419 279.338 337.407C278.294 340.018 280.417 342.753 282.465 344.681C287.033 348.98 292.434 353.52 292.885 359.776C293.053 362.119 295.245 363.71 297.171 365.053C304.27 370.003 310.551 376.123 315.684 383.091C314.509 381.469 315.123 379.105 316.39 377.553C317.657 376.002 319.443 374.98 320.959 373.67C323.928 371.105 325.843 367.447 328.976 365.085C332.921 362.112 338.13 361.641 342.993 360.772C347.856 359.902 353.118 358.164 355.543 353.86C355.779 353.441 355.989 352.976 355.942 352.498C355.81 351.139 354.008 350.832 352.861 350.091C350.713 348.701 350.87 345.591 350.132 343.141C349.058 339.575 345.707 337.066 342.141 335.992C338.576 334.918 334.775 335.042 331.053 335.175C327.261 335.311 324.878 331.235 323.435 327.726Z" fill="#E7EAEE"/>
<path d="M690.735 558.894C690.319 559.254 689.91 558.341 690.226 557.89C690.673 557.76 690.819 558.473 690.717 558.927L690.735 558.894Z" fill="black"/>
<path fill-rule="evenodd" clip-rule="evenodd" d="M530.435 470.165C527.926 471.109 524.867 470.332 523.113 468.305C522.22 467.273 520.501 467.9 519.483 468.808C518.464 469.717 517.461 470.923 516.097 470.914C514.699 470.906 513.63 469.508 513.478 468.119C513.327 466.729 513.851 465.365 514.365 464.065C512.454 464.429 510.445 464.788 508.595 464.185C506.745 463.582 505.168 461.663 505.656 459.78C505.835 459.091 506.261 458.49 506.752 457.974C508.38 456.267 510.829 455.381 513.172 455.654C514.313 455.786 514.712 454.178 514.614 453.034C514.429 450.854 514.077 448.614 514.689 446.513C515.301 444.412 517.246 442.493 519.415 442.78C522.167 443.145 523.323 446.469 523.629 449.229C523.733 450.172 524.517 451.463 525.252 450.864C527.616 448.938 531.391 449.046 533.641 451.104C534.509 451.898 535.172 453.012 535.112 454.188C535.041 455.557 534.02 456.702 532.882 457.466C531.744 458.23 530.444 458.737 529.336 459.545C531.747 461.16 534.279 463.587 533.784 466.446C533.485 468.166 532.069 469.55 530.435 470.165ZM519.792 460.867C519.852 461.145 519.912 461.423 519.972 461.701C517.957 462.713 517.335 465.241 516.933 467.46C517.535 467.913 518.371 467.324 518.802 466.706C519.743 465.354 520.187 463.727 520.878 462.232C521.569 460.736 522.643 459.264 524.225 458.805C524.883 458.614 525.58 458.614 526.253 458.482C527.684 458.2 528.924 457.339 530.116 456.498C530.782 456.029 531.485 455.512 531.758 454.745C532.367 453.029 530.235 451.351 528.444 451.679C526.652 452.008 525.355 453.535 524.302 455.022C523.25 456.508 522.188 458.134 520.517 458.857C520.032 459.067 519.476 459.189 518.979 459.012C518.482 458.834 518.099 458.273 518.267 457.773C518.436 457.273 519.262 457.125 519.496 457.597C519.915 457.405 520.114 456.841 519.91 456.429C517.784 456.807 515.659 457.185 513.534 457.564C512.366 457.772 511.155 457.997 510.193 458.691C509.231 459.384 508.6 460.691 509.061 461.783C512.145 463.822 516.201 459.985 519.792 460.867ZM525.149 461.072C523.693 461.352 523.143 463.308 523.705 464.68C524.268 466.052 525.525 466.986 526.639 467.965C527.717 468.912 529.593 468.474 530.363 467.263C531.133 466.053 530.886 464.377 530.016 463.236C529.146 462.095 527.766 461.435 526.363 461.138C525.963 461.053 525.549 460.995 525.149 461.072ZM521.26 451.642C521.176 449.511 520.963 447.108 519.309 445.763C518.804 445.353 518.157 446.082 517.953 446.699C517.431 448.274 517.19 449.942 517.244 451.6C517.271 452.429 517.384 453.292 517.846 453.981C518.309 454.669 519.206 455.126 519.988 454.848C521.153 454.434 521.308 452.877 521.26 451.642V451.642Z" fill="#FFB61D"/>
<path fill-rule="evenodd" clip-rule="evenodd" d="M519.213 282.714C518.219 282.023 517.225 281.333 516.231 280.642C517.729 279.563 519.943 279.88 521.354 281.071C522.764 282.262 523.448 284.141 523.573 285.982C523.669 287.387 523.358 288.996 522.166 289.743C521.017 290.463 519.528 290.11 518.225 289.735C517.151 289.425 516.076 289.115 515.001 288.806C513.873 288.48 512.878 289.609 512.335 290.65C511.792 291.691 511.166 292.937 510.002 293.092C508.453 293.299 507.537 291.491 506.434 290.384C503.222 287.16 496.809 289.472 493.843 286.021C492.58 284.551 492.397 282.326 493.164 280.546C493.93 278.766 495.534 277.428 497.335 276.713C498.067 276.423 498.853 276.215 499.468 275.725C500.084 275.235 500.477 274.341 500.106 273.647C499.26 272.064 498.398 270.428 498.223 268.642C498.047 266.856 498.729 264.862 500.312 264.017C501.845 263.199 503.821 263.682 505.172 264.775C506.523 265.867 507.367 267.457 508.082 269.041C508.286 269.494 508.506 269.978 508.929 270.24C509.352 270.501 510.038 270.389 510.174 269.911C510.866 267.49 514.137 266.485 516.374 267.639C518.611 268.793 519.738 271.479 519.666 273.995C519.64 274.892 519.475 275.814 518.972 276.556C518.618 277.078 518.119 277.481 517.619 277.866C516.12 279.02 514.548 280.079 512.915 281.036C512.843 284.145 515.361 287.102 518.441 287.529C519.487 287.674 520.737 287.448 521.233 286.516C521.975 285.123 520.509 283.615 519.213 282.714ZM513.516 277.559C515.253 277.335 516.8 276.017 517.297 274.337C517.795 272.658 517.214 270.71 515.879 269.576C515.615 269.353 515.308 269.152 514.963 269.13C514.558 269.104 514.184 269.325 513.839 269.538C511.347 271.076 508.548 273.145 508.606 276.073C508.667 279.165 507.632 282.268 505.725 284.703C505.037 285.583 505.558 286.904 506.335 287.707C507.112 288.509 508.135 289.108 508.663 290.092C509.031 290.779 510.135 290.693 510.656 290.114C511.178 289.535 511.267 288.696 511.303 287.918C511.441 285.007 511.197 282.079 510.579 279.232C510.443 278.603 510.997 278.008 511.606 277.799C512.215 277.59 512.878 277.642 513.516 277.559ZM506.039 279.508C504.995 280.085 503.861 279.015 502.841 278.394C500.01 276.671 495.939 278.905 495.16 282.127C494.856 283.385 495.755 284.685 496.908 285.274C498.061 285.863 499.405 285.911 500.7 285.946C501.563 285.97 502.506 285.969 503.185 285.434C503.629 285.084 503.888 284.556 504.127 284.043C504.82 282.556 505.458 281.043 506.039 279.508ZM502.515 265.873C501.5 265.812 500.635 266.741 500.432 267.737C500.229 268.734 500.531 269.76 500.889 270.712C502.079 273.873 503.942 276.778 506.317 279.18C506.887 274.866 507.245 269.875 504.18 266.786C503.724 266.326 503.162 265.911 502.515 265.873V265.873Z" fill="#E7EAEE"/>
<path fill-rule="evenodd" clip-rule="evenodd" d="M291.974 380.992C289.224 382.498 287.454 385.636 287.587 388.769C287.644 390.125 287.88 391.815 286.728 392.533C285.778 389.252 286.224 385.591 287.933 382.634C288.355 381.904 288.877 381.192 289.621 380.795C290.365 380.398 291.375 380.399 291.974 380.992V380.992Z" fill="#00160A"/>
<circle cx="510" cy="343.5" r="3.5" fill="#FFB61D"/>
<path fill-rule="evenodd" clip-rule="evenodd" d="M399.396 454.39C399.676 453.193 400.224 451.898 401.368 451.45C403.889 450.462 405.864 454.299 408.564 454.505C410.039 454.618 411.359 453.608 412.817 453.36C415.233 452.948 417.75 455.093 417.727 457.544C417.707 459.623 416.176 461.437 416.04 463.511C414.676 463.274 413.144 463.833 412.441 465.027C411.738 466.22 412.103 467.989 413.328 468.636C414.553 469.282 416.354 468.38 416.397 466.996C416.42 466.249 416 465.561 415.89 464.822C415.781 464.083 416.247 463.127 416.986 463.239C418.416 464.16 419.188 466 418.843 467.665C418.499 469.33 417.059 470.712 415.381 470.988C414.866 471.073 414.317 471.069 413.862 471.324C413.084 471.76 412.873 472.753 412.572 473.592C411.988 475.219 410.721 476.641 409.082 477.193C407.443 477.744 405.457 477.309 404.356 475.976C403.255 474.642 403.271 472.451 404.534 471.269C403.756 470.874 402.956 471.691 402.224 472.167C400.38 473.366 397.628 472.161 396.856 470.102C396.085 468.042 397.025 465.614 398.704 464.194C399.241 463.74 399.922 463.16 399.709 462.49C398.882 459.884 398.772 457.053 399.396 454.39ZM407.48 464.244C406.818 466.989 406.155 469.742 405.81 472.545C405.707 473.38 405.693 474.371 406.354 474.892C407.066 475.454 408.14 475.106 408.845 474.534C410.736 472.997 411.148 469.939 409.731 467.956C408.734 466.56 409.641 464.564 410.907 463.406C412.174 462.247 413.805 461.438 414.725 459.99C415.645 458.541 415.26 456.076 413.565 455.806C412.246 455.596 410.8 455.961 409.881 456.931C409.049 457.808 408.735 459.041 408.452 460.216C408.128 461.559 407.804 462.901 407.48 464.244ZM405.172 462.245C406.415 461.553 406.623 459.824 406.305 458.437C405.941 456.849 405.077 455.38 403.867 454.288C403.58 454.029 403.25 453.781 402.865 453.744C401.823 453.645 401.332 454.983 401.192 456.02C400.986 457.548 400.792 459.168 401.419 460.576C402.046 461.983 403.825 462.995 405.172 462.245ZM399.401 469.636C400.267 470.697 402.052 470.08 402.953 469.049C403.854 468.019 404.42 466.643 405.599 465.946C406.11 465.644 405.708 464.761 405.122 464.666C404.536 464.57 403.985 464.923 403.453 465.185C402.396 465.706 401.187 465.92 400.226 466.6C399.264 467.28 398.657 468.723 399.401 469.636Z" fill="#FFB61D"/>
<path d="M689.193 542.727C689.649 542.56 689.814 543.353 689.569 543.773C689.105 543.936 688.939 543.143 689.172 542.71L689.193 542.727Z" fill="black"/>
<path fill-rule="evenodd" clip-rule="evenodd" d="M529.472 326.851C530.656 323.795 529.652 320.279 527.564 317.857C525.203 315.119 520.113 314.332 518.313 317.468C517.614 318.686 515.905 318.969 514.57 318.534C513.234 318.098 512.153 317.131 511.022 316.297C504.02 311.131 494.678 310.837 485.977 310.747C483.223 310.719 480.436 310.694 477.76 311.344C472.228 312.688 467.753 316.752 462.416 318.733C455.592 321.266 447.498 320.025 441.747 315.563C444.072 319.244 450.462 331.142 450.462 331.142C450.462 331.142 449.312 325.584 451.031 325.074C454.191 324.136 458.211 326.03 461.315 325.594C472.885 323.969 479.008 318.33 483.503 317.857C514.57 314.587 526.395 334.79 529.472 326.851Z" fill="#E7EAEE"/>
<path fill-rule="evenodd" clip-rule="evenodd" d="M537.038 506.458C521.382 520.937 504.531 534.327 485.687 544.309C448.958 563.766 405.99 569.395 364.592 565.68C323.194 561.965 283.074 549.341 244.443 534.003C233.518 529.665 331.749 560.713 410.484 553.167C487.143 545.819 544.321 499.722 537.038 506.458Z" fill="#E7EAEE"/>
<circle cx="472" cy="363" r="5" fill="#FFB61D"/>
<path d="M314.923 390.54C317.553 395.354 321.94 399.079 324.27 404.046C327.057 409.988 360.978 464.162 362.155 464.357C364.601 464.763 368.789 460.734 368.351 462.092C368.181 461.827 406.941 483.321 399.069 488.568C390.029 494.594 371.355 501.064 347.816 501.064C338.723 499.032 333.061 490.209 328.397 482.143C314.266 457.706 300.101 433.087 290.52 406.534C289.407 403.452 288.23 400.164 285.626 398.176C283.455 396.517 280.626 396.035 277.91 395.74C271.11 395.004 264.239 395.737 257.447 396.103C249.519 396.53 249.519 392.627 251.683 391.436C254.987 389.618 258.582 388.913 261.165 386.578C257.532 388.2 256.164 388.959 252.218 389.472C248.272 389.984 250.1 386.763 250.292 385.244C249.691 387.611 246.274 389.174 244.374 387.333C241.905 384.94 245.393 379.492 247.981 378.044C248.422 377.797 262.846 370.337 263.844 369.733C262.574 369.436 249.893 378.344 245.726 377.001C243.016 376.127 245.859 371.376 248.483 368.41C256.606 359.229 254.457 362.364 257.443 359.341C259.108 357.656 261.802 357.728 264.163 357.917C267.726 358.202 282.045 357.129 293.876 364.908C304.987 372.213 313.717 388.332 314.923 390.54Z" fill="white"/>
<path fill-rule="evenodd" clip-rule="evenodd" d="M538.589 203.731C536.665 204.254 535.06 205.818 534.487 207.727C534.067 209.125 534.18 210.621 534.337 212.072C534.594 214.447 535.034 216.965 536.656 218.717C538.417 217.083 538.431 214.319 538.034 211.95C537.976 211.602 537.911 211.251 537.847 210.898C537.473 208.855 537.09 206.763 537.792 204.839C539.654 207.769 540.24 211.48 539.372 214.841L544.906 212.56C545.945 212.132 547.178 212.748 547.819 213.671C548.459 214.594 548.649 215.747 548.823 216.857C549.236 219.501 549.323 222.856 546.967 224.126C546.28 224.496 545.319 225.318 545.962 225.76C547.887 227.083 548.398 230.025 547.122 231.981C545.847 233.936 543.053 234.676 540.927 233.71C538.801 232.744 537.526 230.252 537.868 227.942L533.008 231.054C532.562 231.339 532.062 231.637 531.54 231.552C530.887 231.445 530.485 230.799 530.17 230.218C528.928 227.923 527.675 225.123 528.927 222.834C526.838 222.301 524.938 220.892 524.038 218.933C523.139 216.974 523.361 214.487 524.775 212.86C526.188 211.232 528.788 210.693 530.631 211.81C531.494 212.333 532.144 210.88 532.178 209.872C532.273 207.123 533.153 204.066 535.583 202.777C536.699 202.185 538.568 202.467 538.589 203.731ZM542.006 222.038C543.923 223.121 546.715 221.968 547.309 219.849C547.904 217.729 546.118 215.293 543.918 215.221C541.268 215.135 539.418 217.797 538.415 220.252C538.014 221.236 536.552 220.975 535.607 220.489C534.663 220.002 533.321 219.538 532.701 220.402C531.885 221.54 530.64 222.362 529.273 222.667C530.065 223.299 530.355 224.292 530.647 225.291C530.776 225.731 530.905 226.173 531.078 226.586C531.642 227.932 533.548 229.035 534.455 227.891C536.046 225.885 537.899 224.087 539.952 222.556C540.553 222.108 541.354 221.669 542.006 222.038ZM527.765 213.686C526.781 213.427 525.766 214.305 525.578 215.306C525.391 216.307 525.83 217.327 526.419 218.158C526.687 218.536 526.993 218.896 527.381 219.15C528.378 219.803 529.71 219.635 530.821 219.203C531.268 219.03 531.699 218.819 532.131 218.608C532.773 218.293 533.414 217.979 534.102 217.792C532.495 215.8 530.24 214.339 527.765 213.686ZM545.521 230.385C545.941 229.547 545.671 228.496 545.1 227.753C544.528 227.01 543.706 226.51 542.903 226.027L541.59 225.237C541.085 224.933 540.484 224.619 539.936 224.836C539.02 225.2 539.191 226.538 539.543 227.459C540.05 228.781 540.65 230.166 541.818 230.967C542.986 231.767 544.886 231.651 545.521 230.385ZM441.635 221.793C442.395 222.524 442.502 223.874 441.78 224.643C441.059 225.413 439.599 225.327 439.056 224.422C438.764 223.936 438.757 223.355 438.751 222.777C438.749 222.595 438.747 222.414 438.736 222.236C438.69 221.491 438.07 219.774 437.906 219.378C435.89 217.727 435.124 215.009 434.716 212.436C434.411 210.513 434.257 208.474 435.012 206.68C435.768 204.885 437.692 203.449 439.596 203.854C441.804 204.324 442.861 206.793 443.572 208.936C444.152 210.685 444.532 213.039 442.958 213.996C442.688 211.661 442.365 209.192 440.902 207.352C439.974 206.185 438.061 205.421 437.068 206.535C436.642 207.013 436.539 207.692 436.491 208.331C436.12 213.28 438.059 218.353 441.635 221.793ZM437.949 233.313L437.66 233.358C435.07 233.758 432.381 234.174 430.348 231.842C428.24 229.422 427.505 224.146 428.647 222.771C430.253 220.836 432.817 219.694 435.338 219.86C435.446 220.121 435.377 220.706 435.307 221.297C435.236 221.899 435.164 222.507 435.279 222.783C433.531 221.874 431.142 222.499 430.062 224.146C429.928 224.351 429.809 224.598 429.882 224.831C430.457 226.66 431.084 228.566 432.452 229.908C433.821 231.25 436.174 231.797 437.659 230.585C438.134 230.198 438.47 229.681 438.806 229.163L438.806 229.163C439.077 228.746 439.349 228.328 439.695 227.975C440.47 227.185 442.04 226.927 442.525 227.922C441.35 229.101 440.235 230.34 439.184 231.631C438.934 231.939 438.685 232.396 438.945 232.696C439.581 233.432 439.703 234.431 439.823 235.419C439.857 235.693 439.89 235.967 439.934 236.233C440.138 237.46 440.912 238.852 442.155 238.822C443.204 238.797 443.911 237.776 444.437 236.868L446.416 233.456C446.99 233.526 447.363 234.155 447.351 234.734C447.339 235.312 447.045 235.843 446.749 236.341C445.836 237.873 444.829 239.35 443.737 240.76C443.404 241.19 443.023 241.64 442.493 241.763C441.944 241.892 441.381 241.633 440.908 241.325C438.351 239.661 437.088 236.24 437.949 233.313ZM449.225 212.117C450.104 211.675 451.292 211.687 451.956 212.412C453.421 215.954 452.437 220.363 449.606 222.946C449.539 223.007 449.47 223.068 449.402 223.13C448.934 223.546 448.452 223.976 448.292 224.571C448.108 225.254 448.697 226.151 449.368 225.928C449.835 225.772 449.984 225.247 450.126 224.748L450.127 224.745C450.157 224.638 450.187 224.533 450.22 224.433C450.629 223.178 451.996 222.314 453.305 222.484C454.985 223.208 458.389 225.166 457.746 230.355C457.17 234.997 454.875 234.78 454.056 234.702C453.96 234.693 453.884 234.686 453.833 234.689C451.612 234.817 450.281 232.399 449.199 230.431L449.139 230.323C448.629 229.397 447.478 228.396 446.681 229.091C446.37 229.363 446.277 229.802 446.219 230.211C446.13 230.837 446.104 231.539 446.501 232.031C446.898 232.523 447.865 232.518 448.034 231.909C448.238 233.756 449.248 235.541 450.838 236.503C452.429 237.465 454.588 237.497 456.107 236.427C457.205 235.654 457.885 234.42 458.389 233.175C458.851 232.033 459.198 230.828 459.224 229.597C459.287 226.6 457.406 223.827 454.985 222.061C454.353 221.6 453.599 221.029 453.679 220.251L454.035 216.782C454.206 215.11 454.369 213.366 453.768 211.797C453.167 210.227 451.55 208.91 449.902 209.24C448.584 209.504 447.76 210.624 446.928 211.756C446.171 212.785 445.407 213.824 444.256 214.239C442.984 214.698 442.919 216.449 443.087 217.791C443.143 218.243 443.21 218.719 443.493 219.075C443.777 219.431 444.356 219.592 444.691 219.284C444.606 217.344 445.881 215.639 447.091 214.12C447.704 213.351 448.346 212.558 449.225 212.117ZM334.212 287.112C336.698 284.918 340.138 284.195 343.434 283.843C355.014 282.606 366.957 285.044 377.126 290.718C377.327 290.83 377.528 290.944 377.729 291.058C379.586 292.107 381.489 293.182 383.602 293.313C384.266 293.354 384.929 293.299 385.592 293.244C386.172 293.197 386.752 293.149 387.333 293.165C388.722 293.204 390.02 293.41 391.303 293.614C393.71 293.997 396.066 294.372 398.882 293.617C402.916 292.537 403.51 293.596 403.939 295.764C404.368 297.932 402.805 300.124 400.797 301.046C398.788 301.967 396.464 301.872 394.282 301.522C393.65 301.421 393.021 301.3 392.391 301.179L392.391 301.179C390.845 300.881 389.299 300.584 387.728 300.581C384.621 300.575 381.536 301.703 378.499 302.814C374.207 304.384 370.01 305.919 365.984 304.167C364.559 303.548 362.92 303.987 361.432 304.433L345.698 309.147C341.804 310.313 337.778 311.493 333.74 311.029C330.534 310.661 327.576 309.288 324.618 307.916C321.637 306.532 318.656 305.149 315.422 304.795C312.698 304.497 309.939 304.949 307.193 305.399C303.698 305.971 300.226 306.539 296.88 305.552C297.062 304.689 298.004 304.252 298.83 303.943C303.874 302.057 309.001 300.153 314.37 299.748C315.254 299.681 316.157 299.651 317.063 299.621C320.344 299.512 323.663 299.401 326.287 297.547C328.206 296.191 329.396 294.136 330.59 292.072C331.632 290.273 332.677 288.467 334.212 287.112ZM368.625 302.306C371.888 303.237 375.029 301.823 378.232 300.383C380.458 299.382 382.713 298.367 385.058 298.118C387.345 297.875 389.619 298.375 391.891 298.874C394.261 299.395 396.629 299.915 399.006 299.591C400.687 299.362 402.671 297.795 401.786 296.347C401.27 295.502 400.105 295.399 399.114 295.389L382.965 295.231C381.214 295.214 379.316 295.147 377.957 294.043C375.128 291.745 371.684 290.338 368.211 289.235C363.461 287.727 358.548 286.727 353.582 286.302C348.162 285.837 342.683 286.057 337.317 286.955L331.001 295.155C328.417 298.511 324.952 302.24 320.773 301.548C315.321 300.644 309.589 301.513 304.649 303.993C309.617 302.351 315.117 302.369 320.074 304.042C321.527 304.533 322.93 305.159 324.332 305.785L324.333 305.785C325.967 306.515 327.6 307.244 329.312 307.758C337.221 310.132 345.714 307.662 353.444 304.757L353.722 304.652C358.53 302.844 363.699 300.9 368.625 302.306ZM323.576 369.729C326.366 366.373 329.08 363.11 333.237 362.952C339.705 362.707 346.056 360.394 351.269 356.557C352.533 355.626 353.792 354.521 354.249 353.019C354.707 351.517 353.997 349.568 352.465 349.225C349.497 348.56 348.364 345.466 347.25 342.423C346.893 341.449 346.539 340.48 346.126 339.597C344.368 335.837 340.703 333.029 336.615 332.312C335.065 332.039 333.488 332.052 331.911 332.064H331.911C330.513 332.075 329.114 332.086 327.732 331.9C324.792 331.502 321.65 329.777 321.112 326.858C319.752 319.48 311.362 314.245 304.137 316.267C302.079 316.843 300.331 315.517 298.527 314.149C297.103 313.069 295.645 311.963 293.973 311.745C292.518 311.556 291.076 312.074 289.701 312.584C286.6 313.732 283.417 314.931 280.972 317.157C278.528 319.383 276.969 322.913 278.007 326.052C278.626 327.923 277.083 329.812 275.451 330.919C275.115 331.147 274.764 331.367 274.413 331.587C273.062 332.434 271.693 333.293 271.01 334.7C269.981 336.82 270.925 339.378 272.247 341.329C273.702 343.477 275.638 345.404 277.557 347.314C281.243 350.984 284.865 354.59 284.891 359.573L264.163 357.917C261.802 357.728 259.108 357.655 257.443 359.34C256.448 360.348 256.023 360.671 255.598 360.995C254.748 361.642 253.899 362.289 248.483 368.409C245.859 371.376 243.016 376.127 245.726 377C248.461 377.882 254.863 374.348 259.3 371.898L259.3 371.898L259.3 371.898L259.301 371.898C261.624 370.616 263.408 369.631 263.844 369.733C263.159 370.148 256.143 373.795 251.671 376.12C249.63 377.181 248.119 377.966 247.981 378.044C245.393 379.492 241.905 384.939 244.374 387.333C246.274 389.174 249.69 387.611 250.292 385.244C250.254 385.544 250.152 385.909 250.044 386.299C249.603 387.888 249.05 389.883 252.218 389.472C255.763 389.011 257.227 388.351 260.123 387.046C260.307 386.963 260.496 386.877 260.692 386.789C260.846 386.72 261.003 386.65 261.165 386.577C259.553 388.034 257.548 388.857 255.465 389.711L255.465 389.711C254.209 390.226 252.925 390.752 251.683 391.436C249.519 392.627 249.519 396.53 257.447 396.103C258.793 396.03 260.142 395.943 261.494 395.856H261.494L261.495 395.856L261.495 395.856L261.496 395.856L261.497 395.856L261.498 395.856L261.498 395.856L261.499 395.856C266.963 395.504 272.459 395.15 277.91 395.74C280.626 396.034 283.455 396.517 285.626 398.175C288.218 400.155 289.396 403.422 290.504 406.491L290.519 406.534C300.101 433.087 314.266 457.706 328.397 482.143C333.061 490.209 338.722 499.032 347.816 501.064C323.719 471.736 304.823 438.148 292.268 402.327C290.815 398.181 286.885 395.29 282.697 393.96C278.51 392.63 274.033 392.622 269.639 392.627C266.854 392.63 264.591 393.034 262.4 393.425C259.519 393.939 256.764 394.431 253.113 393.96C250.172 393.58 252.661 392.551 256.196 391.09C259.758 389.617 264.382 387.706 265.582 385.578C264.2 383.382 260.8 384.326 258.627 385.743C256.454 387.16 249.726 389.35 251.349 386.577C253.359 383.144 256.937 381.288 260.542 379.418L260.543 379.418C261.682 378.827 262.824 378.235 263.92 377.591C265.118 376.887 264.219 374.796 262.846 374.59C261.472 374.384 260.208 375.298 259.121 376.162C257.922 377.115 256.553 378.494 255.14 379.919C251.822 383.265 248.259 386.858 246.071 385.743C241.313 383.319 256.434 375.315 264.808 370.882L264.817 370.877C265.359 370.59 265.873 370.318 266.351 370.064C264.45 366.791 259.351 368.403 256.483 370.873L256.374 370.967C256.26 371.065 256.146 371.164 256.03 371.264C253.258 373.665 250.001 376.485 246.641 375.228C244.644 374.481 247.535 372.108 250.426 369.735C251.872 368.549 253.318 367.362 254.152 366.379C255.554 364.727 257.001 363.038 258.902 361.999C261.228 360.727 263.983 360.56 266.634 360.536C273.233 360.476 279.838 361.127 286.299 362.473C295.7 368.702 303.828 376.844 310.042 386.256C324.548 408.229 338.755 430.398 352.961 452.566C353.125 452.821 353.423 453.313 353.815 453.961C355.902 457.41 360.661 465.277 362.154 465.463C363.806 465.67 365.516 464.292 366.726 463.223L424.792 427.078C434.231 421.202 444.677 415.091 455.703 416.52C473.567 418.835 491.688 420.94 509.54 418.542C527.393 416.145 545.212 408.751 556.779 394.942C535.878 411.592 508.44 419.797 481.829 417.357C478.207 417.024 474.555 416.507 470.9 415.989L470.899 415.989C459.875 414.428 448.815 412.861 438.413 416.347C435.739 417.243 433.027 418.461 430.309 419.682C422.62 423.135 414.886 426.608 407.836 422.867C401.434 419.47 393.424 421.229 387.054 424.685C380.684 428.142 372.66 432.862 378.238 438.847C383.816 444.831 372.168 442.103 365.664 438.904C359.161 435.705 357.637 424.546 364.28 420.027C361.307 423.406 361.406 430.178 365.751 431.354C370.097 432.53 374.665 430.386 378.238 427.648C382.284 424.549 381.719 420.56 381.214 416.995C380.674 413.182 380.203 409.853 385.508 408.612C389.143 407.762 392.89 408.025 396.642 408.288C400.065 408.529 403.492 408.769 406.843 408.166C412.37 407.17 417.069 404.032 421.798 400.874C424.752 398.901 427.718 396.92 430.904 395.45C439.194 391.624 448.59 391.407 457.749 391.195C458.288 391.183 458.826 391.17 459.362 391.157C476.111 390.747 493.186 389.338 508.615 382.809C524.044 376.28 537.761 363.848 542.099 347.666C545.669 334.346 542.292 319.362 533.353 308.861C524.413 298.361 510.161 292.636 496.441 294.035C489.275 294.765 482.351 297.286 475.469 299.79C466.029 303.226 456.668 306.633 446.871 305.354C432.625 303.494 421.694 292.25 411.983 281.663C423.561 283.438 435.63 281.884 446.381 277.233C451.858 274.864 456.981 271.722 462.094 268.587L462.094 268.586C469.081 264.302 476.049 260.029 483.877 257.752C503.305 252.101 524.943 260.286 539.133 274.709C553.323 289.131 560.976 308.849 565.015 328.674C567.648 341.593 568.896 354.724 570.145 367.86V367.86C570.813 374.883 571.481 381.907 572.36 388.9C572.803 392.423 573.298 395.969 573.795 399.526L573.795 399.528C576.694 420.3 579.65 441.478 572.684 461.009C566.733 477.691 554.201 491.054 541.901 503.799C525.191 521.113 507.971 538.507 486.86 550.053C467.33 560.734 445.276 565.942 423.262 569.237C405.994 571.822 388.503 573.303 371.066 572.406C334.586 570.529 299.509 558.36 265.181 545.873C252.845 541.385 239.956 536.766 226.92 538.314C220.224 539.109 213.716 541.509 207.257 543.891L207.256 543.891C197.669 547.426 188.188 550.923 178.351 549.076C169.31 547.378 161.956 541.47 154.608 535.567C147.15 529.576 139.698 523.59 130.496 522.015C138.723 520.655 146.834 524.438 154.806 528.157C164.013 532.452 173.037 536.661 181.841 532.761C213.855 518.581 250.666 523.212 285.335 528.112L327.96 534.137C333.936 534.982 339.85 533.634 345.792 532.28C349.288 531.483 352.795 530.684 356.328 530.329C365.484 529.407 374.497 531.47 383.537 533.538C388.318 534.632 393.106 535.728 397.927 536.385C434.045 541.309 472.049 518.267 484.386 483.966C485.999 479.48 487.297 474.729 488.596 469.97C492.347 456.239 496.115 442.441 507.531 434.773C508.724 433.972 510.006 433.229 511.292 432.484L511.293 432.483C515.338 430.139 519.423 427.773 520.891 423.497C510.084 427.042 500.641 434.591 494.804 444.352C490.699 451.217 488.419 458.913 486.136 466.618L486.136 466.618C485.092 470.141 484.048 473.666 482.828 477.114C471.566 508.957 440.852 535.555 407.135 533.56C400.351 533.159 393.676 531.665 387.012 530.173C378.678 528.307 370.36 526.445 361.866 526.729C357.128 526.887 352.455 527.714 347.779 528.541C343.963 529.216 340.145 529.891 336.288 530.204C323.597 531.233 310.954 528.318 298.554 525.423C326.477 518.537 354.773 513.164 383.276 509.335C404.258 506.516 428.427 502.642 439.171 484.401C446.834 471.39 459.306 462.388 471.767 453.394C484.497 444.206 497.217 435.026 504.788 421.586C468.843 457.672 417.077 488.684 342.439 503.931C341.922 504.032 341.413 504.135 340.911 504.24C341.421 504.138 341.931 504.035 342.439 503.931C347.599 502.926 353.501 502.148 359.922 501.302C384.625 498.049 417.004 493.784 444.302 471.639C439.614 482.314 431.229 491.323 420.917 496.764C411.761 501.595 401.416 503.583 391.244 505.511L328.001 517.501C308.429 521.211 288.574 524.939 268.716 523.359C263.201 522.92 257.695 522.073 252.195 521.227C241.505 519.583 230.838 517.942 220.173 519.308C213.203 520.2 206.504 522.35 199.797 524.503L199.797 524.503C195.644 525.836 191.487 527.17 187.261 528.207C176.211 530.919 163.68 531.324 154.333 524.836C135.863 512.015 106.471 520.662 97.8848 541.442C107.695 529.566 125.426 525.004 139.749 530.67C145.598 532.983 150.772 536.753 155.923 540.507C162.512 545.307 169.061 550.08 176.933 551.739C187.633 553.994 198.454 550.058 209.164 546.163C221.175 541.794 233.044 537.477 244.443 542.003C283.074 557.341 323.194 569.965 364.592 573.68C405.99 577.395 448.958 571.766 485.687 552.31C504.531 542.327 521.382 528.937 537.038 514.458C551.802 500.804 565.951 485.582 573.122 466.793C581.023 446.092 579.7 423.175 578.264 401.064C575.651 360.824 572.421 318.628 550.633 284.695C543.316 273.299 533.82 262.985 521.831 256.686C509.842 250.387 495.145 248.489 482.595 253.579C475.657 256.392 469.429 260.575 463.194 264.763C459.776 267.059 456.356 269.356 452.816 271.43C439.366 279.309 423.453 282.609 408.491 278.236C402.909 276.604 397.629 274.143 392.347 271.682C387.33 269.344 382.313 267.006 377.035 265.377C367.06 262.299 356.43 261.853 346.023 262.674C305.78 265.851 267.399 288.925 246.495 323.458C225.591 357.992 223.062 403.183 240.797 439.446C258.533 475.709 296.26 501.609 336.542 504.24C331.541 501.14 325.742 499.976 319.919 498.808L319.918 498.808C316.632 498.149 313.337 497.488 310.175 496.476C301.408 493.672 292.595 485.651 294.804 476.715C296.698 469.051 289.913 462.01 283.059 458.092C281.724 457.329 280.344 456.597 278.958 455.863C273.225 452.825 267.398 449.737 264.337 444.165C257.745 432.16 268.02 418.145 277.588 408.345C266.944 414.457 259.03 425.14 256.286 437.102C262.686 448.203 272.907 457.053 284.81 461.799C290.92 469.773 293.888 480.091 292.948 490.093C258.115 468.816 234.381 430.342 230.995 389.665C230.187 379.954 230.542 369.839 234.615 360.986C243.744 341.143 253.122 320.976 267.794 304.796C290.025 280.281 324.019 266.949 356.988 269.816C389.956 272.682 421.14 291.68 438.806 319.663C432.362 316.107 425.705 312.48 418.391 311.657C411.078 310.833 402.861 313.504 399.291 319.94C396.588 324.813 389.223 320.962 385.33 316.975C381.438 312.988 373.524 309.801 371.541 315.009L373.528 326.403C365.964 322.673 356.772 333.969 361.962 340.617C363.724 342.874 366.396 344.196 368.973 345.444C383.41 352.433 400.219 359.511 414.88 353.006C422.404 349.668 430.663 348.001 438.892 348.159C440.876 348.197 442.943 348.366 444.643 349.388C445.974 350.189 446.934 351.419 447.898 352.656C448.547 353.487 449.197 354.321 449.964 355.029C451.872 356.791 455.501 357.37 456.677 355.054C459.776 360.583 462.936 366.291 463.722 372.58C464.508 378.869 462.352 385.96 456.901 389.194C451.45 392.428 442.86 389.704 441.766 383.46C440.724 377.508 434.613 376.003 428.208 374.425C422.785 373.089 417.152 371.702 414.205 367.519C411.111 363.127 404.757 362.244 399.587 363.707C395.8 364.778 392.412 366.824 389.025 368.869C387.789 369.616 386.553 370.362 385.298 371.061C383.305 372.171 381.234 373.178 379.163 374.185L379.162 374.185C373.929 376.731 368.699 379.275 364.739 383.465C359.213 389.312 357.68 400.105 364.28 404.706C366.748 406.426 385.298 421.586 375.097 426.724C359.89 434.384 364.058 420.7 365.661 418.267C358.324 419.142 354.975 429.362 358.952 435.589C362.929 441.816 371.835 445.704 379.061 444.165C382.641 443.402 381.588 441.487 380.348 439.231C379.085 436.933 377.627 434.28 380.675 432.132C380.091 434.352 382.302 435.118 384.752 435.966C386.669 436.63 388.733 437.344 389.718 438.847C391.495 441.557 388.737 444.901 386.227 446.949L367.787 461.993C367.537 462.126 367.22 462.322 366.858 462.546C365.511 463.377 363.55 464.588 362.154 464.357C360.978 464.162 348.663 442.598 346.161 431.52C345.872 430.243 345.647 428.931 345.422 427.621L345.422 427.621L345.422 427.62L345.422 427.62L345.422 427.62L345.422 427.619L345.422 427.619L345.422 427.618L345.422 427.618C344.611 422.891 343.806 418.2 340.041 415.275C338.166 413.819 335.948 412.724 333.748 411.638C329.869 409.724 326.048 407.838 324.269 404.045C323.018 401.377 321.173 399.068 319.325 396.755C317.734 394.763 316.14 392.768 314.923 390.54C312.293 385.726 312.224 378.53 317.04 375.902C319.61 374.499 321.612 372.091 323.576 369.729ZM311.035 318.951C314.827 319.092 316.992 323.216 318.435 326.726C319.878 330.235 322.261 334.311 326.053 334.175C329.775 334.042 333.576 333.918 337.141 334.992C340.707 336.066 344.058 338.575 345.132 342.141C345.338 342.825 345.474 343.561 345.61 344.296C345.962 346.194 346.313 348.089 347.861 349.091C348.192 349.304 348.576 349.482 348.96 349.659C349.907 350.096 350.848 350.53 350.942 351.498C350.989 351.976 350.779 352.441 350.543 352.86C348.119 357.164 342.856 358.902 337.993 359.772C337.293 359.897 336.585 360.014 335.875 360.131L335.875 360.131L335.874 360.131L335.874 360.131L335.874 360.132C331.655 360.829 327.352 361.54 323.976 364.085C322.287 365.358 320.951 367.009 319.614 368.661C318.471 370.074 317.327 371.488 315.959 372.67C315.431 373.126 314.871 373.547 314.311 373.968C313.263 374.756 312.216 375.542 311.39 376.553C310.123 378.105 309.509 380.469 310.684 382.091C305.551 375.123 299.27 369.003 292.171 364.053C290.245 362.71 288.053 361.119 287.885 358.776C287.469 353.008 282.847 348.7 278.548 344.693L278.546 344.691L278.545 344.69L278.529 344.675C278.171 344.342 277.816 344.011 277.466 343.681C275.417 341.753 273.295 339.018 274.338 336.407C274.931 334.924 276.348 334.051 277.764 333.179C279.201 332.293 280.636 331.409 281.202 329.891C281.649 328.692 281.427 327.419 281.203 326.132C281.029 325.139 280.855 324.139 280.986 323.16C281.21 321.489 281.892 321.054 283.587 319.972C284.742 319.235 286.366 318.198 288.635 316.267C292.078 313.338 296.995 315.55 301.253 317.465C303.926 318.667 306.339 319.752 307.964 319.376C308.968 319.143 310 318.913 311.035 318.951ZM337.695 416.347C340.114 419.103 342.641 422.087 343.122 425.723C343.368 427.575 343.04 429.5 342.197 431.167L331.257 414.124C331.139 413.939 331.017 413.714 331.105 413.514C331.248 413.188 331.732 413.288 332.053 413.442L336.549 415.595C336.964 415.794 337.391 416.002 337.695 416.347ZM452.833 332.084C452.735 332.999 453.062 333.95 453.7 334.613C454.534 335.031 455.415 334.628 456.311 334.219C456.728 334.028 457.148 333.836 457.568 333.725C458.336 333.522 459.148 333.599 459.939 333.677L469.657 334.642C470.255 333.716 469.03 332.689 467.991 332.321C463.142 330.606 457.733 330.521 452.833 332.084ZM505.789 349.595C501.835 355.662 495.648 360.238 488.689 362.242L488.626 363.802C496.379 362.071 503.419 357.333 507.941 350.803C508.462 350.05 508.889 348.877 508.14 348.35C507.325 347.775 506.334 348.76 505.789 349.595ZM490.158 334.142C489.21 333.878 487.928 333.633 487.468 334.504C489.119 336.004 490.973 337.589 493.202 337.656C494.797 337.704 496.294 336.954 497.712 336.223C501.047 334.503 504.412 332.764 507.3 330.368C507.191 329.356 505.871 328.886 504.906 329.21C504.105 329.478 503.489 330.088 502.881 330.689L502.88 330.69C502.818 330.752 502.755 330.814 502.692 330.875C502.631 330.935 502.57 330.994 502.508 331.053C499.296 334.115 494.434 335.331 490.158 334.142ZM481.306 354.749C481.563 355.174 481.882 355.624 482.366 355.735C482.711 355.815 483.069 355.702 483.405 355.591L488.661 353.855C488.661 353.235 487.998 352.805 487.381 352.744C487.036 352.709 486.69 352.75 486.344 352.791C486.072 352.823 485.8 352.856 485.527 352.851C483.423 352.818 481.961 350.685 481.434 348.647C481.251 347.938 481.132 347.207 481.014 346.478C480.792 345.114 480.571 343.754 479.93 342.542C478.718 342.484 478.277 344.124 478.355 345.335C478.566 348.648 479.588 351.907 481.306 354.749ZM466.376 343.139C467.61 341.806 469.455 340.033 470.866 341.177C468.465 345.885 463.231 348.999 457.948 348.864C460.871 354.389 462.757 360.46 463.478 366.669C463.605 367.76 464.303 368.69 465.009 369.531C468.569 373.772 473.144 377.355 478.496 378.774C488.4 381.4 499.046 375.991 505.513 368.044C511.979 360.096 515.117 350.023 517.991 340.188C518.821 337.349 520.054 334.078 522.903 333.282C525.982 332.422 528.547 329.911 529.472 326.85C530.397 323.79 529.652 320.278 527.564 317.857C525.203 315.119 520.113 314.332 518.313 317.467C517.614 318.686 515.905 318.969 514.57 318.533C513.489 318.181 512.574 317.48 511.666 316.783C511.452 316.619 511.238 316.455 511.022 316.296C504.02 311.131 494.678 310.837 485.977 310.747C483.223 310.718 480.436 310.694 477.76 311.344C474.643 312.101 471.862 313.721 469.074 315.347C466.912 316.606 464.746 317.868 462.416 318.733C455.592 321.266 447.498 320.025 441.747 315.563C447.993 325.45 453.207 335.987 457.279 346.95C460.668 347.054 464.074 345.627 466.376 343.139ZM374.829 318.907L374.829 318.908C375.668 320.641 376.502 322.365 376.654 324.265C376.903 327.381 373.636 330.946 370.996 329.273C368.255 327.537 364.209 329.167 362.931 332.149C361.653 335.131 362.863 338.799 365.299 340.942C367.138 342.559 369.51 343.407 371.82 344.219C374.612 345.201 377.757 346.525 381.024 347.899L381.025 347.899C389.27 351.369 398.285 355.162 404.328 354.598C407.355 354.316 412.994 351.011 414.914 349.82C418.575 347.549 422.815 345.186 426.958 346.367C432.176 347.855 437.925 347.398 442.843 345.105C445.241 343.986 447.465 346.921 448.447 349.378C449.43 351.835 451.386 354.862 453.894 354.019C455.278 353.554 456.022 351.963 455.978 350.504C455.934 349.045 455.279 347.683 454.636 346.372L442.966 322.555C439.851 323.427 437.088 321.621 434.244 319.762C432.309 318.498 430.337 317.209 428.192 316.722C427.115 316.477 426.008 316.443 424.9 316.408C423.748 316.372 422.596 316.336 421.48 316.064C420.285 315.772 419.172 315.219 418.061 314.667C416.707 313.995 415.357 313.325 413.87 313.133C410.678 312.721 407.633 314.614 405.308 316.839C404.544 317.57 403.82 318.348 403.096 319.125C401.617 320.713 400.14 322.299 398.331 323.481C395.637 325.24 391.815 325.872 389.319 323.841C388.354 323.056 387.709 321.982 387.063 320.906L387.062 320.905C386.743 320.373 386.423 319.84 386.063 319.34C383.292 315.492 377.828 313.846 373.392 315.522C373.755 316.686 374.293 317.798 374.829 318.907ZM363.049 396.58C364.134 399.813 366.36 402.645 368.88 404.942C369.431 405.444 370.058 405.929 370.69 406.417L370.69 406.417C372.764 408.02 374.888 409.662 374.528 412.082C379.202 407.141 386.193 404.492 392.967 405.093C394.076 405.191 395.176 405.371 396.276 405.551C397.454 405.744 398.632 405.937 399.821 406.029C408.268 406.686 416.193 402.302 423.528 398.061L439.331 388.925C440.552 386.388 439.607 383.22 437.721 381.13C435.835 379.04 433.183 377.823 430.556 376.811C427.708 375.714 424.743 374.782 421.692 374.72C421.403 374.714 421.106 374.711 420.803 374.708C417.985 374.681 414.715 374.649 413.744 372.141C412.317 368.456 408.832 365.648 404.928 365.036C401.024 364.424 396.848 366.031 394.361 369.103C392.064 371.94 388.466 373.219 384.986 374.456L384.985 374.457C384.567 374.605 384.15 374.754 383.737 374.904C379.08 376.599 374.604 378.789 370.407 381.424C366.888 383.633 363.248 386.716 363.049 390.866C363.028 391.323 362.979 391.815 362.929 392.321C362.787 393.769 362.633 395.339 363.049 396.58ZM522.137 371.733C528.71 366.608 534.465 360.224 537.854 352.61C541.243 344.995 542.095 336.068 539.15 328.271C537.399 323.635 534.406 319.567 531.107 315.868C525.38 309.448 517.886 303.668 509.283 303.548C506.414 303.508 503.58 304.106 500.773 304.701L484.499 308.152C493.719 307.98 502.969 309.482 511.661 312.565L511.732 312.59C513.688 313.284 515.827 314.042 517.766 313.314C522.528 311.527 528.416 313.511 531.126 317.816C533.836 322.121 533.077 328.288 529.406 331.809C528.663 332.52 527.828 333.125 526.993 333.729C526.069 334.397 525.146 335.065 524.35 335.877C521.973 338.303 521.001 341.693 520.057 344.988C519.948 345.368 519.84 345.746 519.73 346.121C514.102 365.305 499.423 382.861 479.869 387.022C495.095 386.535 510.123 381.1 522.137 371.733ZM504.39 302.58C509.372 302.03 514.546 301.529 519.288 303.155C523.625 304.642 527.174 307.766 530.598 310.815L535.554 315.229C528.164 303.456 514.511 295.884 500.612 295.849C493.928 295.832 487.329 297.437 481.032 299.676C479.028 300.388 477.049 301.165 475.07 301.942C474.395 302.207 473.72 302.472 473.044 302.734C465.689 305.589 458.068 308.17 450.181 308.362C442.294 308.555 434.008 306.044 428.796 300.122C428.566 299.861 428.339 299.591 428.111 299.321L428.111 299.32C427 298.001 425.868 296.655 424.258 296.121C428.873 302.069 433.585 308.111 439.747 312.435C445.91 316.76 453.857 319.186 461.081 317.067C464.351 316.107 467.259 314.302 470.171 312.495C471.496 311.672 472.823 310.848 474.185 310.104C483.351 305.094 494.007 303.727 504.39 302.58ZM392.804 440.628C393.097 441.868 394.477 443.109 395.523 442.382C400.986 438.58 406.47 434.767 412.389 431.722C413.026 431.395 413.669 431.075 414.314 430.754C417.533 429.154 420.779 427.54 423.252 424.963C419.652 426.716 415.4 426.449 411.479 425.639C410.227 425.38 408.983 425.07 407.74 424.76L407.739 424.76C405.087 424.099 402.438 423.438 399.717 423.278C396.293 423.076 392.823 423.69 389.676 425.054C387.783 425.875 385.924 427.049 384.953 428.869C383.983 430.69 384.213 433.269 385.908 434.445C386.697 434.992 387.692 435.193 388.671 435.39C389.963 435.65 391.226 435.904 391.952 436.94C392.436 437.63 392.525 438.478 392.614 439.332C392.659 439.769 392.705 440.208 392.804 440.628ZM475.099 382.042C473.563 381.118 472.32 379.789 471.098 378.478L465.1 372.042L465.8 382.687C465.867 383.717 465.931 384.777 465.603 385.755C465.276 386.733 464.455 387.62 463.427 387.703C462.886 387.747 462.873 388.65 463.339 388.928C463.805 389.207 464.399 389.053 464.917 388.891L479.063 384.482C479.94 384.209 480.845 383.92 481.531 383.308C479.327 383.648 477.01 383.191 475.099 382.042ZM505.043 320.578C500.365 320.267 495.706 321.225 491.116 322.178C489.915 322.427 488.705 322.679 487.578 323.163C484.95 324.293 483.019 326.567 481.187 328.764C480.916 329.09 480.627 329.467 480.671 329.89C480.746 330.608 481.759 330.863 482.392 330.514C482.917 330.224 483.247 329.701 483.573 329.187C483.639 329.082 483.705 328.978 483.773 328.875C486.18 325.238 490.921 324.122 495.204 323.299C498.833 322.601 502.569 321.903 506.196 322.613C506.829 322.737 507.186 321.755 506.795 321.242C506.405 320.728 505.686 320.621 505.043 320.578Z" fill="#00160A"/>
</svg>
