<svg width="750" height="750" viewBox="0 0 750 750" fill="none" xmlns="http://www.w3.org/2000/svg">
<rect width="750" height="750" fill="none"/>
<path d="M546.882 651C606.83 656.233 715.382 574 631.882 452.5C545.465 311.718 693 211 571.5 133C483.43 76.461 377.569 198.621 306.693 174.369C155.5 133 59.824 285.832 126.5 383C176.324 455.609 55.4849 505.5 104 563C158 627 200.791 557.815 280 572.299C395 593.328 477.424 644.938 546.882 651Z" />
<path d="M432.906 154.369L433.86 154.938L434.804 155.512C448.112 163.694 444.695 176.79 462.186 196.249C500.073 238.396 536.297 282.13 570.748 327.305L573.464 330.875L574.252 331.916C587.074 348.884 592.715 359.789 593.032 372.874C593.266 382.551 603.197 389.053 595.995 396.549L595.606 396.949L595.569 396.983L595.449 397.115C593.736 398.954 591.819 400.588 589.728 401.98L589.167 402.343L588.993 402.466C580.178 408.477 569.798 410.973 560.119 409.129L559.601 409.026L559.18 408.935L559.126 409.306C549.317 473.99 529.321 537.119 500.105 595.658L499.216 597.43L498.304 599.236L497.781 600.261L497.246 601.288C494.535 606.446 492.571 609.297 489.636 611.914C485.532 615.573 480.331 617.613 473.912 618.442C469.368 619.029 465.091 619.024 457.872 618.611L456.605 618.536C427.627 616.778 398.532 616.789 369.537 618.566L366.819 618.738L364.573 618.885L364.245 618.921C359.858 619.387 355.88 619.721 352.073 619.93L351.125 619.979L350.063 620.027L349.869 620.044C345.353 620.446 340.842 620.891 336.336 621.378L328.654 622.247L322.186 622.988L319.34 623.299C318.461 623.392 317.638 623.477 316.835 623.556L313.792 623.838L313.578 624C313.47 624.077 313.361 624.153 313.25 624.227L312.91 624.444L312.556 624.653L311.409 625.274L310.641 624.7L310.42 624.525L310.209 624.338L310.011 624.142L309.502 624.179C298.45 624.946 289.271 624.664 280.612 623.009L279.826 622.854L279.065 622.697C259.444 618.543 243.172 605.666 238.909 588.871C222.848 525.584 200.379 463.924 171.958 405.14L171.571 404.344L171.383 404.456C164.643 408.275 156.174 407.338 148.715 402.498L148.33 402.244L147.939 401.977L147.849 401.939C145.51 400.902 143.432 399.039 141.951 396.698L141.744 396.36L141.597 396.035L141.541 396.059C139.126 393.095 137.339 389.77 136.34 386.308L136.196 385.787L136.064 385.265C132.865 371.98 136.98 358.291 147.053 340.924C149.98 335.877 167.773 306.121 191.634 291.999C217.883 276.464 212.996 277.839 218.634 272.999C223 267.5 205.475 235.929 190 220C174.525 204.071 235.438 187.867 240.174 189.618C241.415 190.077 242.561 190.645 243.62 191.323L244.068 191.62L244.117 191.654L244.237 191.346L244.59 191.994L244.764 192.124C246.907 193.757 248.664 195.896 250.125 198.543L250.395 199.045L250.62 199.481C252.266 202.748 255.472 204.401 257 210.5L258.038 214.72L258.334 215.907L258.624 217.039C259.822 221.644 262 224.901 263.338 227.67L263.5 228L263.582 228.164L263.956 227.669C286.051 198.585 311.522 176.1 344.03 159.466L343.794 159.471C340.201 159.471 349.597 155.238 373.368 146.825L374.717 146.352L376.111 145.873C393.672 139.899 414.464 143.485 432.906 154.369Z" fill="white"/>
<path d="M563.984 406.631L563.466 406.528L563.046 406.437L562.992 406.807C553.183 471.492 533.187 534.621 503.97 593.159L503.082 594.932L502.17 596.738L501.647 597.762C498.65 603.578 496.626 606.63 493.502 609.416C489.398 613.075 484.197 615.114 477.778 615.943C473.233 616.531 470.064 614.682 458.473 613.633C497.907 592.122 504.018 551.453 517.81 525C557.872 448.165 533.012 427.256 563.984 406.631Z" fill="#E7EAEE"/>
<path d="M387.604 689.712C387.089 690.937 385.424 691.402 384.407 690.605C385.025 689.742 385.672 688.853 386.575 688.349C387.478 687.844 388.716 687.842 389.407 688.64C388.874 689.031 388.341 689.423 387.808 689.815L387.604 689.712Z" fill="#00160A"/>
<path d="M387.969 693.681C386.782 693.788 385.595 693.894 384.407 694C384.927 693.338 385.447 692.676 385.966 692.014C386.648 691.984 387.391 691.969 387.941 692.318C388.491 692.667 388.61 693.531 387.995 693.788L387.969 693.681Z" fill="#00160A"/>
<path d="M426.831 645C426.283 644.743 426.316 644.018 426.648 643.559C426.979 643.1 427.511 642.768 427.819 642.296C428.148 641.792 428.186 641.188 428.216 640.608C428.312 638.739 428.409 636.869 428.505 635C429.455 636.541 429.641 638.428 429.006 640.089C429.969 639.944 431.01 640.429 431.407 641.209C429.982 642.561 428.452 643.828 426.831 645Z" fill="#00160A"/>
<path d="M425.283 644C423.741 643.691 422.499 642.266 422.407 640.703C423.468 641.102 424.664 640.316 425.177 639.309C425.69 638.302 425.723 637.132 425.878 636.014C426.23 633.469 427.271 631.022 428.863 629C429.84 630.568 429.464 632.832 428.032 634.003C425.83 635.804 427.804 639.785 426.055 642.026C425.582 642.631 424.823 643.384 425.283 644Z" fill="#00160A"/>
<path d="M251.407 267.293C244.745 274.481 233.081 277.603 224.738 272.444C217.911 268.222 214.961 260.031 211.726 252.702C208.404 245.174 204.317 237.981 199.548 231.27C196.375 226.806 191.844 222.099 186.407 222.851C187.435 221.067 189.951 220.613 191.892 221.315C193.832 222.016 195.313 223.58 196.668 225.131C203.493 232.943 209.106 241.805 213.247 251.306C215.284 255.979 216.991 260.852 219.872 265.061C222.753 269.271 227.085 272.837 232.171 273.368C236.59 273.829 240.887 271.98 244.943 270.173C247.098 269.213 249.253 268.253 251.407 267.293Z" fill="#00160A"/>
<path d="M325.886 681.043C332.653 677.795 340.368 677.487 347.842 677.235C357.638 676.906 367.559 676.587 377.123 678.771C380.413 679.523 384.278 681.359 384.393 684.796C384.508 688.231 383.932 691.69 382.713 694.895C381.238 692.169 377.43 692.271 374.408 692.71C358.306 695.049 341.744 696.419 325.9 692.672C324.034 692.231 322.007 691.591 320.997 689.931C320.002 688.295 320.348 686.075 321.425 684.493C322.501 682.91 324.178 681.863 325.886 681.043ZM344.76 691.988C339.627 691.594 334.505 691.058 329.401 690.382C327.902 690.183 326.349 689.952 325.082 689.112C323.815 688.271 322.92 686.64 323.39 685.175C321.904 685.478 321.531 687.695 322.426 688.943C323.321 690.191 324.904 690.668 326.38 691.02C342.335 694.815 358.996 692.973 375.274 691.081C378.537 690.702 382.644 689.496 382.939 686.161C383.246 682.703 379.124 680.799 375.776 680.171C362.167 677.621 348.17 678.614 334.422 680.212C332.319 680.456 330.167 680.73 328.283 681.713C326.398 682.695 324.806 684.545 324.707 686.701C329.507 690.412 336.263 689.118 342.191 690.205C343.277 690.404 344.543 690.885 344.76 691.988Z" fill="#00160A"/>
<path d="M329.151 547.209C330.242 548.357 330.715 550.045 330.196 551.504C329.677 552.963 328.105 554.079 326.468 553.996C324.831 553.912 323.346 552.517 323.409 550.98C323.492 548.968 324.039 546.417 326.146 546.04C327.26 545.841 328.395 546.415 329.151 547.209ZM325.596 550.114C324.768 551.183 326.437 552.762 327.745 552.271C329.052 551.779 329.432 550.079 328.837 548.881C328.65 548.503 328.379 548.149 328.004 547.926C326.78 547.199 324.944 548.663 325.512 549.914L325.596 550.114Z" fill="#00160A"/>
<path d="M380.77 661.024C380.316 660.714 379.862 660.404 379.407 660.094C380.743 656.928 380.952 653.299 379.989 650C384.151 651.816 380.045 660.132 384.141 662.093C384.388 658.286 387.387 655.105 390.849 653.527C394.312 651.95 398.201 651.673 401.996 651.419C416.493 650.45 431.336 649.515 445.3 653.542C447.983 654.316 451.055 655.788 451.38 658.569C451.704 661.339 449.031 663.516 446.458 664.57C442.321 666.264 437.772 666.601 433.308 666.79C420.753 667.321 408.155 666.844 395.676 665.364C392.202 664.952 388.417 664.296 386.126 661.643C384.505 663.435 381.604 663.895 379.511 662.692C379.931 662.136 380.35 661.58 380.77 661.024ZM392.885 654.572C391.883 654.768 390.783 655.04 390.207 655.885C389.435 657.02 390.061 658.675 391.172 659.478C392.284 660.281 393.713 660.456 395.074 660.605C405.144 661.713 415.214 662.82 425.284 663.927C415.688 664.696 405.988 664.143 396.541 662.288C393.613 661.714 390.565 660.939 388.391 658.891C387.603 659.636 387.886 661.043 388.684 661.777C389.483 662.51 390.605 662.744 391.67 662.939C408.054 665.929 424.895 666.382 441.415 664.276C443.89 663.96 446.575 663.475 448.228 661.6C449.881 659.725 449.491 656.038 447.059 655.478C429.327 651.396 410.742 651.085 392.885 654.572Z" fill="#00160A"/>
<path d="M324.244 514.411C323.688 515.036 324.077 516.024 324.364 516.822C324.974 518.516 324.981 520.37 324.981 522.179C324.98 526.827 324.98 531.476 324.98 536.125C324.98 536.976 324.739 538.109 323.923 538.143C323.894 532.524 323.865 526.905 323.836 521.286C323.825 519.14 323.771 516.843 322.586 515.087C321.857 514.006 323.514 512.59 324.679 513.112C325.844 513.633 326.319 515.072 326.564 516.369C327.088 519.148 327.145 521.997 327.2 524.829C327.268 528.365 327.337 531.9 327.405 535.436C327.433 536.867 327.156 538.721 325.809 539C326.444 534.355 326.42 529.643 326.395 524.951C326.376 521.298 326.279 517.385 324.244 514.411Z" fill="#00160A"/>
<path d="M320.951 626.136C321.81 627.526 322.67 628.917 323.529 630.308C323.481 627.602 324.666 624.898 326.699 623.075C325.717 625.27 325.425 627.759 325.872 630.116C327.175 627.929 328.063 625.503 328.475 623C328.648 624.836 328.82 626.673 328.993 628.509C333.302 626.442 338.229 626.117 343.014 625.828C347.578 625.552 352.142 625.277 356.706 625.001C370.823 624.148 384.996 623.296 399.095 624.407C403.364 624.744 407.8 625.324 411.355 627.674C413.882 629.344 415.914 632.266 415.295 635.2C414.428 639.315 409.349 640.819 405.133 641.49C392.6 643.487 379.995 645.039 367.349 646.141C352.033 647.476 335.972 648.034 321.962 641.799C319.821 640.846 317.597 639.583 316.694 637.448C315.791 635.314 317.102 632.242 319.451 632.248C319.019 630.714 317.879 629.387 316.413 628.713C318.163 627.722 320.75 628.991 321 630.962C320.984 629.354 320.967 627.745 320.951 626.136ZM328.095 640.041C335.464 641.085 342.833 642.129 350.202 643.173C340.855 643.813 331.392 642.78 322.415 640.138C327.372 642.689 332.813 644.325 338.372 644.936C342.544 645.395 346.757 645.281 350.952 645.108C370.574 644.301 390.142 642.233 409.49 638.92C413.194 638.286 413.947 632.779 411.457 630.006C408.968 627.233 404.886 626.588 401.142 626.248C383.265 624.623 365.263 626.004 347.365 627.384C340.236 627.934 333.023 628.501 326.242 630.733C323.95 631.488 321.35 632.932 321.305 635.31C321.25 638.308 325.079 639.613 328.095 640.041ZM319.179 633.799C317.738 634.329 317.657 636.472 318.622 637.651C319.285 638.46 320.292 638.986 321.344 639.071C319.914 637.963 319.329 635.912 319.965 634.233C319.861 633.926 319.5 633.727 319.179 633.799H319.179Z" fill="#00160A"/>
<path d="M369.761 476.025C370.088 475.89 370.418 476.334 370.407 476.75C370.396 477.166 370.169 477.523 369.952 477.848C369.282 478.853 368.477 479.945 367.407 480C367.403 478.264 368.395 476.588 369.761 476.025Z" fill="#00160A"/>
<path d="M422.006 503.56C402.194 515.074 382.332 526.614 361.363 535.847C357.981 537.337 354.161 538.783 350.691 537.512C348.254 536.619 346.472 534.536 344.895 532.473C339.417 525.303 334.997 517.324 331.825 508.874C331.029 506.752 330.301 504.536 330.42 502.272C330.54 500.009 331.682 497.667 333.742 496.726C339.127 494.266 344.512 491.805 349.897 489.345C350.766 488.948 351.67 488.524 352.26 487.77C352.954 486.884 353.094 485.697 353.209 484.577C354.071 476.165 354.934 467.753 355.796 459.341C356.008 457.268 356.332 454.976 357.932 453.644C359.532 452.313 362.72 453.145 362.594 455.224C362.512 456.583 363.868 457.532 365.057 458.194C371.389 461.718 377.722 465.242 384.054 468.767C385.242 469.427 386.684 470.099 387.894 469.48C393.269 466.73 398.751 464.191 404.324 461.869C406.206 461.085 408.3 460.317 410.23 460.97C411.787 461.497 412.9 462.845 413.896 464.153C419.643 471.697 424.386 480.007 427.959 488.794C428.917 491.152 429.806 493.721 429.219 496.198C428.403 499.643 425.064 501.783 422.006 503.56ZM332.764 504.532C334.741 511.522 338.257 518.071 342.988 523.579C345.44 526.432 348.378 529.102 352.018 530.042C356.583 531.22 361.348 529.488 365.691 527.654C378.687 522.166 391.159 515.524 403.61 508.892C410.838 505.042 418.066 501.192 425.294 497.343C426.283 496.816 427.359 496.188 427.697 495.119C427.97 494.254 427.682 493.321 427.383 492.465C424.056 482.919 419.134 473.933 412.886 465.991C411.758 464.558 410.456 463.075 408.679 462.675C406.841 462.26 404.978 463.11 403.285 463.939C380.568 475.063 358.024 486.542 335.665 498.371C334.416 499.031 333.067 499.804 332.577 501.13C332.177 502.214 332.45 503.42 332.764 504.532ZM425.148 499.245C421.079 501.433 417.01 503.621 412.941 505.809C397.296 514.222 381.626 522.646 365.295 529.629C359.738 532.005 352.898 534.087 348.039 530.49C345.498 528.609 344.045 525.468 341.347 523.821C344.259 529.524 348.478 536.059 354.874 535.933C357.156 535.889 359.312 534.944 361.39 534.001C383.452 523.995 404.781 512.369 425.148 499.245ZM362.571 459.487C361.854 459.624 361.479 460.39 361.014 460.954C360.549 461.519 359.54 461.867 359.174 461.233C359.319 460.59 359.464 459.947 359.609 459.304C359.375 458.912 358.746 458.961 358.423 459.283C358.1 459.606 358.004 460.085 357.924 460.534C356.468 468.692 355.432 476.924 354.821 485.188C354.778 485.769 354.806 486.483 355.32 486.756C356.998 486.004 356.818 483.619 356.617 481.789C356.149 477.536 357.172 473.058 359.794 469.679C362.416 466.3 366.697 464.16 370.957 464.503C371.434 464.107 370.879 463.37 370.356 463.038C368.261 461.71 366.037 460.589 363.725 459.694C363.355 459.551 362.96 459.412 362.571 459.487ZM362.652 477.122C362.403 478.659 362.222 480.694 360.703 481.024C360.407 482.079 362.24 482.559 362.969 481.742C363.698 480.924 363.628 479.701 363.723 478.609C363.983 475.628 365.909 472.848 368.606 471.559C371.303 470.27 374.673 470.52 377.152 472.192C378.455 473.071 380.194 474.323 381.349 473.257C382.052 472.609 381.937 471.398 381.338 470.654C380.739 469.91 379.8 469.536 378.885 469.263C375.623 468.289 372.013 468.231 368.884 469.57C365.754 470.909 363.198 473.759 362.652 477.122ZM377.068 466.652C372.713 464.894 367.487 465.499 363.648 468.206C359.81 470.912 357.479 475.635 357.665 480.332C357.708 481.417 357.875 482.492 358.042 483.564C358.13 484.134 358.378 484.852 358.954 484.857C359.717 484.865 359.78 483.744 359.633 482.995C358.835 478.938 360.072 474.532 362.864 471.484C365.656 468.437 369.934 466.824 374.04 467.27C375.119 467.387 376.441 467.539 377.068 466.652ZM365.238 481.017C368.798 480.985 371.185 477.544 373.567 474.896C373.759 474.683 373.97 474.463 374.247 474.391C374.635 474.291 375.078 474.558 375.171 474.948C374.768 475.41 374.364 475.872 373.96 476.334C375.408 476.633 377.009 475.798 377.593 474.438C375.408 472.203 371.715 471.63 368.957 473.099C366.199 474.567 364.608 477.954 365.238 481.017ZM358.969 457.031C360.027 457.278 361.219 456.663 361.632 455.657C360.535 454.627 358.447 455.092 357.89 456.491C358.232 456.705 358.573 456.92 358.915 457.134L358.969 457.031ZM382.909 470.704C382.581 471.506 383.975 472.225 384.489 471.527C385.003 470.83 384.085 469.709 383.273 470.01C382.994 470.113 382.771 470.324 382.557 470.53L382.909 470.704Z" fill="#00160A"/>
<path d="M480.733 522.942C476.362 520.043 474.949 514.357 474.154 509.174C472.023 495.281 471.841 481.092 473.613 467.149C473.877 465.073 474.232 462.89 475.56 461.273C477.997 458.306 482.484 458.462 486.321 458.642C496.455 459.116 506.666 457.918 516.414 455.108C518.041 454.64 519.788 455.755 520.606 457.237C521.425 458.719 521.538 460.475 521.632 462.165C522.144 471.33 522.657 480.495 523.169 489.659C523.605 497.464 523.9 505.845 519.724 512.452C514.31 521.019 503.206 523.817 493.115 524.773C488.876 525.174 484.281 525.295 480.733 522.942ZM481.96 460.178C480.834 460.257 479.674 460.4 478.697 460.966C476.879 462.019 476.14 464.234 475.649 466.276C473.845 473.78 473.421 481.614 474.406 489.27C482.108 489.639 489.842 489.327 497.489 488.339C497.915 488.284 498.362 488.218 498.704 487.958C499.328 487.483 499.364 486.574 499.34 485.791C499.152 479.821 498.671 473.86 497.901 467.936C497.661 466.096 497.335 464.133 496.058 462.786C494.916 461.582 493.219 461.099 491.59 460.778C488.426 460.154 485.178 459.952 481.96 460.178ZM490.432 519.952C492.613 519.797 495.178 519.397 496.157 517.443C496.502 516.755 496.584 515.969 496.661 515.203C497.222 509.589 497.783 503.975 498.344 498.362C498.434 497.466 498.505 496.489 498.009 495.738C497.061 494.3 494.896 494.668 493.241 495.146C487.379 496.839 481.298 497.779 475.198 497.933C473.573 502.045 475.898 506.544 476.485 510.926C476.675 512.344 476.685 513.809 477.195 515.145C478.095 517.505 480.445 519.068 482.894 519.688C485.342 520.308 487.913 520.132 490.432 519.952ZM510.467 512.708C507.373 516.315 501.886 517.774 499.981 522.127C512.109 521.204 522.384 509.541 521.769 497.396C521.164 485.451 520.558 473.505 519.953 461.56C519.906 460.629 519.848 459.66 519.392 458.847C518.386 457.056 515.892 456.754 513.89 457.217C511.889 457.68 509.993 458.687 507.939 458.737C513.846 462.195 514.516 470.315 514.498 477.159C514.49 480.264 514.482 483.369 514.474 486.474C515.983 485.009 518.898 486.12 519.416 488.159C519.934 490.198 518.398 492.38 516.397 493.03C513.36 494.018 513.369 498.215 513.522 501.404C513.714 505.399 513.072 509.672 510.467 512.708ZM504.906 459.541C503.872 459.41 502.826 459.563 501.794 459.715C500.716 459.874 499.637 460.033 498.558 460.192C501.972 463.317 503.737 467.89 504.493 472.454C505.249 477.019 505.108 481.677 505.331 486.298C505.35 486.701 505.405 487.163 505.739 487.388C506 487.564 506.344 487.531 506.656 487.491C508.061 487.31 509.466 487.129 510.871 486.949C511.215 486.905 511.582 486.851 511.842 486.621C512.167 486.335 512.234 485.861 512.279 485.43C512.937 479.212 513.576 472.792 511.737 466.816C510.702 463.452 508.4 459.982 504.906 459.541ZM496.266 522.037C498.203 521.215 500.073 519.95 500.977 518.051C501.628 516.685 501.718 515.13 501.797 513.619C502.254 504.909 502.711 496.198 503.167 487.488C503.645 478.379 503.8 468.269 497.837 461.365C502.563 477.719 500.716 495.157 498.829 512.075C498.378 516.125 497.013 521.177 492.978 521.75C489.03 521.622 485.083 521.494 481.135 521.366C485.741 523.822 491.462 524.075 496.266 522.037ZM512.085 500.024C512.146 498.346 512.206 496.669 512.267 494.991C509.619 494.857 506.949 495.173 504.406 495.921C503.812 502.208 503.521 508.524 503.533 514.839C503.533 514.968 503.535 515.103 503.59 515.22C503.806 515.673 504.49 515.459 504.91 515.183C506.327 514.248 507.763 513.297 508.876 512.015C511.645 508.826 511.933 504.245 512.085 500.024ZM475.626 496.811C481.783 495.684 487.94 494.557 494.096 493.43C495.59 493.157 497.315 492.942 498.46 493.938C498.779 493.117 499.103 492.247 498.961 491.378C498.819 490.509 498.019 489.682 497.154 489.848C490.818 491.059 484.309 491.363 477.888 490.747C476.432 490.607 474.94 491.541 474.429 492.911C473.918 494.281 474.434 495.964 475.626 496.811ZM514.854 487.629C512.01 488.245 509.166 488.861 506.322 489.477C505.898 489.569 505.444 489.678 505.155 490.001C504.793 490.405 504.801 491.008 504.829 491.548C504.877 492.471 504.924 493.393 504.972 494.316C507.933 493.662 510.894 493.009 513.855 492.355C515.055 492.091 516.332 491.783 517.17 490.884C518.008 489.985 518.088 488.289 517.017 487.687C516.373 487.326 515.575 487.472 514.854 487.629Z" fill="#00160A"/>
<path d="M436.906 152.369L437.86 152.938C451.617 161.224 462.283 171.332 480.186 191.249C518.073 233.396 554.297 277.13 588.748 322.305L591.464 325.875L592.252 326.916C605.074 343.884 610.715 354.789 611.032 367.874C611.266 377.551 607.197 387.053 599.995 394.549L599.606 394.949L599.569 394.983L599.449 395.115C597.736 396.954 595.819 398.588 593.728 399.98L593.167 400.343L592.993 400.466C584.178 406.477 573.798 408.973 564.119 407.129L563.601 407.026L563.18 406.935L563.126 407.306C553.317 471.99 533.321 535.119 504.105 593.658L503.216 595.43L502.304 597.236L501.781 598.261C498.785 604.077 496.761 607.128 493.636 609.914C489.532 613.573 484.331 615.613 477.912 616.442C473.368 617.029 469.091 617.024 461.872 616.611L460.605 616.536C431.627 614.778 402.532 614.789 373.537 616.566L370.819 616.738L368.573 616.885L368.245 616.921C363.858 617.387 359.88 617.721 356.073 617.93L355.125 617.979L354.063 618.027L353.869 618.044C349.353 618.446 344.842 618.891 340.336 619.378L332.654 620.247L326.186 620.988C324.127 621.218 322.44 621.398 320.835 621.556C302.459 622.295 290.384 622.112 284.612 621.009L283.826 620.854L283.065 620.697C263.444 616.543 247.172 603.666 242.909 586.871C226.848 523.584 204.379 461.924 175.958 403.14L175.571 402.344L175.383 402.456C168.643 406.275 160.174 405.338 152.715 400.498L152.33 400.244L151.939 399.977L151.849 399.939C149.51 398.902 147.432 397.039 145.951 394.698L145.744 394.36L145.632 394.169L145.541 394.059C143.126 391.095 141.339 387.77 140.34 384.308L140.196 383.787L140.064 383.265C136.865 369.98 140.98 356.291 151.053 338.924C169.389 307.311 191.921 283.568 218.79 270.265L219.605 269.865L221.071 272.476C197.343 287.706 176.775 307.839 161.042 331.235C150.253 347.277 144.322 362.02 144.304 376.046L144.307 376.683L144.315 377.21L144.342 377.159C151.109 363.85 162.418 352.747 180.471 339.575L181.249 339.01L181.973 338.486C201.7 324.259 223.187 310.84 248.02 296.968L251.351 295.116C269.711 284.951 285.33 276.848 315.781 261.52L347.562 245.521C356.288 241.102 362.826 237.745 370.153 233.927L371.998 232.959C386.918 225.069 398.236 217.645 407.176 209.246C418.69 198.429 425.253 186.706 426.225 173.568C427.011 162.955 423.08 152.899 415.567 148.195C408.266 143.623 398.886 143.96 385.826 147.807C338.74 161.677 296.569 191.711 268.069 231.674C266.315 234.134 267.51 236.367 268.069 237.698C271.729 246.402 269.49 256.186 265.166 264.576L264.927 265.032L261.534 271.351L264.272 256.23C264.028 231.674 259.428 218.145 249.254 197.673L248.827 196.821L248.576 196.332L248.41 196.659C243.679 205.754 234.591 212.842 223.504 216.741L222.929 216.94L222.378 217.124C213.184 220.142 205.252 221.03 189.15 221.466L185.34 221.558L184.884 220.857C182.121 216.603 184.816 211.304 189.978 207.122C200.946 198.236 213.797 191.691 227.434 188.045C234.317 186.204 239.438 185.867 244.174 187.618C245.415 188.077 246.561 188.645 247.62 189.323L248.068 189.62L248.117 189.654L248.237 189.346L248.59 189.994L248.764 190.124C250.907 191.757 252.664 193.896 254.125 196.543L254.395 197.045L254.62 197.481C256.266 200.748 257.277 203.877 258.806 209.976L259.843 214.195L260.14 215.383C261.459 220.599 262.584 224.133 264.028 227.124L264.19 227.454L264.272 227.617L264.647 227.122C293.188 189.552 332.888 160.567 377.368 144.825L378.717 144.352L380.111 143.873C397.672 137.899 418.464 141.485 436.906 152.369ZM361.058 407.504C342.585 408.479 324.476 416.747 311.274 430.126C305.294 436.186 301.444 442.235 300.026 448.619L299.901 449.203C299.072 453.277 299.13 457.014 299.838 464.358L315.014 616.219C315.133 617.402 315.274 618.235 315.489 618.865L315.544 619.017L316.597 618.929L316.742 618.796C318.545 617.051 319.746 614.389 320.11 611.47L320.163 610.987L320.173 610.868C320.42 608.038 320.133 605.652 319.136 600.64L318.854 599.233L318.431 597.073C315.403 581.302 313.951 566.824 312.152 539.738L311.587 531.178C309.256 496.552 307.34 480.456 302.359 461.033C300.111 452.267 302.718 442.323 308.82 434.429C313.99 427.741 321.333 422.494 330.843 418.07C342.381 412.702 354.391 409.717 366.136 409.521C375.619 409.363 385.027 410.853 398.098 414.097L399.359 414.415C410.117 417.161 416.477 419.839 421.877 424.762C427.306 429.71 430.812 436.347 434.049 446.179C441.218 467.95 443.968 491.948 443.568 520.857L443.51 524.208C443.317 533.475 442.886 542.127 441.985 556.121L440.682 575.924C440.065 585.588 439.752 591.536 439.497 598.539L439.47 599.386C439.365 603.212 439.579 605.253 440.47 607.281C441.35 609.282 443.067 610.77 444.829 611.159L445.073 611.204L446.143 538.611C446.537 509.061 446.274 494.796 444.575 477.621L444.52 477.072C443.603 467.932 442.398 460.401 440.591 453.354C439.675 449.783 438.579 446.259 437.309 442.798C433.717 433.015 429.327 425.826 423.286 420.947C416.484 415.455 409.143 413.146 394.027 410.612L392.673 410.388C376.967 407.818 369.833 407.041 361.058 407.504ZM322.647 614.131L322.638 614.169C322.221 615.745 321.588 617.23 320.754 618.55L323.952 618.216C324.873 618.117 325.863 618.007 326.961 617.882L332.324 617.265C331.922 617.214 331.522 617.16 331.123 617.104L330.157 616.962L328.907 616.773L328.879 615.403L328.744 615.482C327.544 616.147 326.218 616.582 324.855 616.744L324.513 616.779L323.16 616.894L322.647 614.131ZM277.771 615.328L277.674 615.462C277.521 615.661 277.348 615.841 277.158 616.002C279.277 616.701 281.459 617.29 283.687 617.762C284.404 617.914 285.125 618.056 285.851 618.188C283.233 617.473 280.664 616.576 278.171 615.503L277.771 615.328ZM361.594 340.517C299.161 343.949 235.134 360.443 170.402 388.358L168.165 389.327L170.459 390.406C175.694 392.866 178.658 397.073 182.56 405.628L188.716 419.283C200.087 444.596 206.728 460 213.531 477.18C223.129 501.417 230.511 523.43 236.006 544.952L238.992 556.874C239.371 558.367 239.718 559.714 240.062 561.024L240.518 562.741C243.7 574.604 246.721 583.242 250.667 590.892C255.718 600.683 262.018 608.025 270.156 613.023C272.411 614.408 275.164 614.326 275.44 613.238L275.458 613.139L275.69 611.049L277.591 611.949C287.521 616.652 298.87 618.313 309.734 616.686L310.327 616.592L295.41 468.144L295.268 466.724C294.315 457.045 294.325 451.548 295.877 445.684C297.931 437.921 302.877 430.801 310.161 424.134C322.853 412.516 339.298 405.074 356.404 403.207C367.861 401.957 379.44 402.947 395.512 405.903L396.914 406.164C409.353 408.525 417.016 411.028 423.984 415.786C432.893 421.87 439.033 431.011 443.015 442.992C446.179 452.511 447.87 463.176 448.884 477.081C452.017 520.045 452.017 563.237 448.884 606.201C448.588 610.263 453.938 613.003 461.091 613.337L461.45 613.352L462.457 613.386L463.674 613.42C476.077 613.729 483.171 612.454 488.838 607.748C491.939 605.172 494.009 602.112 497.211 596.013L497.466 595.525C526.371 540.057 546.245 479.894 556.075 418.124L556.37 416.252C557.441 409.375 558.594 404.543 560.473 400.235C562.886 394.706 566.302 390.836 571.04 388.881L571.427 388.727L571.884 388.55L571.683 388.396C567.749 385.4 563.05 382.597 556.911 379.407L555.547 378.704C498.394 349.477 431.043 336.7 361.594 340.517ZM364.453 414.254C354.454 414.65 344.142 417.369 333.675 422.102C318.595 428.921 308.427 438.897 306.911 450.772C306.813 451.536 306.751 452.314 306.722 453.111L306.706 453.693C306.638 457.07 307.072 460.123 308.268 465.686L309.195 469.894C312.238 483.875 313.876 497.526 315.503 518.941L316.744 535.802C319.389 571.193 321.519 591.164 325.465 612.862L325.59 613.548L325.795 613.492C326.996 613.126 328.11 612.464 328.993 611.575L329.209 611.348L331.741 608.572L331.854 614.175L332.49 614.262C338.797 615.092 345.398 615.34 352.602 615.084L353.803 615.038L356.033 614.843C359.069 614.583 362.108 614.343 365.145 614.122L368.25 613.903L370.71 613.632C373.929 613.268 377.008 612.881 382.891 612.12L388.003 611.464C404.29 609.409 412.767 608.711 422.587 608.915L423.914 608.948L427.67 609.076L428.68 609.097C431.289 609.131 433.254 608.995 435.04 608.592L435.207 608.552L435.178 606.43C435.067 596.115 435.406 585.688 436.213 571.206L436.901 559.564L437.553 548.724C438.056 540.098 438.312 534.79 438.521 528.545C439.601 496.289 437.304 471.443 429.822 448.788C426.419 438.487 422.543 431.538 416.731 426.85C411.698 422.79 405.992 420.703 395.314 418.245L393.756 417.89C381.21 415.058 372.989 413.917 364.453 414.254ZM448.064 611.867L448.049 612.882L449.303 612.937C448.85 612.605 448.436 612.248 448.064 611.867ZM438.225 609.481L438.251 610.793L437.171 611.127C434.671 611.899 432.152 612.144 428.625 612.096L427.299 612.067L424.271 611.96L423.829 611.947C418.769 611.802 414.156 611.891 408.736 612.277C419.493 612.148 430.252 612.261 441.002 612.615C439.898 611.804 438.94 610.728 438.225 609.481ZM574.133 390.372L572.868 391.325C569.509 393.853 566.812 397.256 565.099 401.095L564.971 401.387L565.027 401.4C569.452 402.328 572.031 402.388 574.477 401.379L574.706 401.281C577.901 399.872 579.437 395.492 577.456 393.473C576.51 392.509 575.531 391.586 574.503 390.691L574.133 390.372ZM169.894 400.736L168.364 401.264C167.723 401.48 167.141 401.661 166.604 401.806C169.086 401.752 171.471 401.158 173.635 399.993C172.769 399.898 171.657 400.142 169.894 400.736ZM426.156 152.234L426.194 152.319C432.287 166.579 431.594 183.637 424.123 197.262C416.923 210.396 405.85 219.226 385.241 230.802L381.626 232.813C366.276 241.305 352.434 248.494 327.505 261.049L302.204 273.769C276.072 286.951 262.017 294.318 245.491 303.608C220.185 317.833 198.65 331.664 179.159 346.576L177.759 347.653C165.791 356.91 158.153 364.2 152.191 372.842C148.149 378.701 146.231 383.891 146.88 388.778C147.024 389.859 147.361 390.949 147.862 391.977L148.057 392.36L148.11 392.457L148.149 392.504C149.524 394.138 151.095 395.622 152.792 396.895L153.304 397.27L153.39 397.33L153.558 397.396C154.432 397.718 155.316 397.87 156.191 397.845L156.243 397.841L156.223 397.616C155.79 392.006 160.907 387.162 168.61 383.793L168.978 383.634C237.932 354.202 305.824 337.458 371.736 335.334C444.797 332.979 515.217 349.153 573.265 383.279C575.037 384.321 576.548 385.295 577.829 386.263L578.692 386.944C581.089 388.922 582.557 390.937 583.356 393.517C584.177 396.165 583.515 399.161 581.965 401.368L581.869 401.5C584.927 401.057 587.959 399.959 590.809 398.273L591.257 398.002L591.488 397.858L591.855 397.605C593.459 396.473 594.982 395.227 596.399 393.891L597 393.312L597.358 392.955L597.505 392.796C599.608 390.481 601.322 387.858 602.537 385.08C606.853 375.216 606.221 362.974 601.425 351.202L601.077 350.361C597.39 341.585 592.577 334.464 582.309 321.303C554.25 285.342 524.609 249.328 493.231 212.979L490.189 209.461C476.985 194.21 468.668 185.195 459.343 176.515L458.898 176.102C448.165 166.157 437.632 158.347 426.604 152.471L426.156 152.234ZM166.392 390.144L166.135 390.273C164.141 391.276 163.012 392.145 162.153 393.373C160.876 395.197 161.08 397.849 162.536 398.749C163.619 399.419 164.781 399.311 167.549 398.373L168.269 398.123C169.812 397.581 171.041 397.211 172.099 397.042L172.198 397.027L171.608 396.26C170.906 395.363 170.185 394.481 169.444 393.616L168.697 392.756L166.392 390.144ZM229.494 192.887L229.136 192.961L229.176 193.359C229.477 196.415 227.579 198.954 224.29 201.233L223.996 201.434C219.192 204.661 213.845 207.074 208.247 208.541C203.684 209.737 200.079 209.789 197.004 208.122C196.671 207.941 195.904 208.224 194.938 209.026C192.724 210.864 190.782 213.03 189.194 215.43L188.866 215.935L200.247 215.866C204.076 215.824 206.216 215.73 208.656 215.47L208.929 215.44C222.226 213.967 234.861 207.106 243.337 196.756L243.693 196.309C244.465 195.313 244.825 194.619 244.909 193.916C244.995 193.197 244.571 192.49 244.17 192.433C239.301 191.739 234.316 191.91 229.494 192.887ZM227.426 193.486C215.146 194.542 203.709 200.751 198.65 207.068C198.65 207.521 199.052 207.804 199.76 207.933C201.408 205.91 203.709 203.901 206.478 202.073C207.433 204.902 213.372 203.707 217.502 202.652C223.029 199.643 227.426 195.937 227.426 193.486ZM420.1 147.862L420.211 147.959C420.525 148.242 420.831 148.535 421.13 148.835L420.717 148.078L420.211 147.9L420.1 147.862Z" fill="#00160A"/>
<path d="M414.851 395.166C438.81 407.883 451.424 429.738 448.66 430.999C445.897 432.261 423.425 392.822 367.854 397.43C296.182 399.912 287.317 449.461 284.441 448.484C281.564 447.508 292.719 415.939 319.332 399.094C345.946 382.249 390.892 382.449 414.851 395.166Z" fill="#E7EAEE"/>
<path d="M400.065 498.105C399.845 497.349 399.502 496.635 399.048 495.991C398.373 495.141 397.645 494.336 396.866 493.58C395.874 492.549 391.997 489.278 391.798 488.417C391.729 488.273 391.617 488.152 391.479 488.072C391.272 487.91 391.044 487.776 390.831 487.621C390.313 487.245 389.811 486.847 389.278 486.494C389.082 486.364 388.763 486.399 388.597 486.25C387.926 485.653 387.328 484.971 386.636 484.4C385.803 483.712 384.88 483.135 384.039 482.456C383.266 481.899 382.385 481.511 381.452 481.316C380.275 480.96 379.019 480.958 377.84 481.31C376.76 481.645 376.099 482.386 375.418 483.134C374.77 483.843 374.471 484.804 374.602 485.755C374.506 485.746 374.41 485.731 374.316 485.71C372.824 485.281 371.548 485.82 370.388 486.669C369.64 487.207 369.03 487.917 368.61 488.738C368.211 489.449 368.005 490.252 368.012 491.067C367.997 491.373 367.965 491.677 367.916 491.979C367.845 492.806 367.777 493.633 367.713 494.46C367.68 494.907 367.782 495.412 367.609 495.792C367.232 496.554 367.094 497.411 367.213 498.252C367.279 498.688 367.321 499.128 367.765 499.23C367.662 499.409 367.583 499.601 367.527 499.8C367.471 500.196 367.464 500.601 367.438 501.002C367.355 502.249 367.253 503.496 367.197 504.745C367.169 505.382 367.251 506.024 367.235 506.662C367.13 508.208 367.416 509.756 368.066 511.163C368.483 512.073 369.094 512.881 369.855 513.53C370.565 514.098 371.305 514.633 372.237 514.772C372.764 514.85 373.299 514.882 373.83 514.931C374.228 514.966 375.037 515.016 375.335 515.053C375.732 514.945 376.21 514.98 376.591 514.893C376.724 514.862 376.858 514.831 376.992 514.8C377.803 514.496 378.735 514.063 379.288 513.806C380.503 513.231 381.573 512.39 382.418 511.345C383.005 510.704 383.406 509.914 383.576 509.062C383.75 507.943 383.637 506.798 383.248 505.734C382.777 504.481 382.241 503.251 381.75 502.004C381.247 500.724 380.738 499.445 380.284 498.147C380.076 497.703 380.003 497.206 380.076 496.721C380.128 496.171 380.067 495.616 379.896 495.09C379.715 494.272 379.472 493.468 379.255 492.658L379.451 492.581C379.578 492.776 379.696 492.977 379.833 493.165C380.158 493.709 380.546 494.214 380.988 494.668C381.424 495.063 381.748 495.567 381.927 496.128C382.221 496.888 382.412 497.691 382.735 498.438C383.374 499.917 384.05 501.38 384.761 502.827C385.032 503.394 385.387 503.917 385.815 504.378C387.171 505.813 388.947 506.781 390.888 507.143C392.027 507.339 393.194 507.293 394.314 507.008C395.781 506.71 397.121 505.97 398.156 504.888C398.499 504.506 398.8 504.087 399.054 503.64C399.493 502.958 399.873 502.241 400.191 501.495C400.616 500.373 400.407 499.207 400.065 498.105ZM385.688 484.107C386.526 484.868 387.348 485.646 388.228 486.464C387.873 486.575 387.651 486.731 387.389 486.355C387.111 486.056 386.807 485.782 386.48 485.539C386.373 485.383 386.29 485.212 386.234 485.032C386.018 485.02 385.634 485.046 385.717 484.568C385.453 484.492 385.209 484.422 384.899 484.334C385.186 483.935 385.439 483.882 385.688 484.107ZM385.229 483.781L384.418 484.041L384.6 483.44L384.058 483.607C383.842 483.423 383.663 483.216 383.865 482.897C384.288 483.17 384.71 483.444 385.229 483.781ZM382.896 482.367L383.857 482.893C383.386 483.083 383.076 482.874 382.832 482.502L382.896 482.367ZM376.005 487.738L376.431 488.315L376.271 488.445L375.863 487.841L376.005 487.738ZM368.662 495.101C368.791 493.605 368.88 492.103 369.088 490.618C369.157 489.929 369.394 489.267 369.777 488.691C370.453 487.799 371.215 486.947 372.467 486.739C373.191 486.555 373.955 486.607 374.647 486.889C374.771 486.934 374.877 487.017 374.951 487.125C375.448 488.119 376.102 489.026 376.89 489.809C377.498 490.487 377.92 491.31 378.116 492.199C378.271 492.8 378.349 493.42 378.455 494.033C378.471 494.181 378.479 494.33 378.48 494.479C376.806 494.02 375.156 494.173 373.54 494.376C371.927 494.579 370.345 495.033 368.707 495.386C368.677 495.294 368.662 495.198 368.662 495.101ZM376.515 488.624L376.674 488.558L377.087 488.916C376.923 488.963 376.757 489.05 376.72 489.013C376.632 488.894 376.563 488.763 376.515 488.624ZM377.187 489.264C377.275 489.269 377.406 489.238 377.445 489.284C377.575 489.437 377.811 489.603 377.4 489.897L377.187 489.264ZM367.747 497.292C367.771 496.797 367.853 496.394 368.476 496.225C369.109 496.054 369.671 495.627 370.3 495.427C371.088 495.176 371.895 494.993 372.714 494.879C373.71 494.728 374.716 494.655 375.723 494.659C376.693 494.702 377.658 494.818 378.611 495.005C379.154 495.175 379.56 495.63 379.667 496.19C378.895 496.422 377.149 496.447 377.035 496.465C376.009 496.624 374.979 496.755 373.954 496.917C373.475 496.993 373.007 497.131 372.53 497.217C372.373 497.245 371.112 497.522 370.719 497.623C369.761 497.871 368.79 498.071 367.749 498.307C367.747 497.983 367.73 497.637 367.747 497.292ZM369.812 512.91L368.65 511.363L368.727 511.291C368.823 511.397 368.92 511.501 369.014 511.607C369.261 511.886 369.518 512.158 369.748 512.45C369.823 512.579 369.88 512.717 369.917 512.861L369.812 512.91ZM371.241 513.805L371.156 513.877L370.548 513.465L371.118 513.263L371.241 513.805ZM372.14 514.22C371.835 514.252 371.613 514.134 371.582 513.831C371.574 513.745 371.78 513.622 371.907 513.55C372 513.605 372.073 513.689 372.115 513.788C372.142 513.931 372.15 514.076 372.14 514.22ZM373.804 514.435L373.684 514.531C373.46 514.336 373.235 514.14 372.994 513.931L372.794 514.435L372.399 513.864L372.512 513.681C372.927 513.751 373.342 513.821 373.802 513.899L373.804 514.435ZM374.756 514.503C374.266 514.57 374.257 514.561 374.153 513.914C374.25 513.901 374.347 513.886 374.445 513.875C374.543 513.864 374.641 513.859 374.745 513.85L374.756 514.503ZM375.686 514.499C375.201 514.612 375.114 514.519 375.102 513.893C375.254 513.892 375.406 513.891 375.547 513.89L375.686 514.499ZM377.317 514.08C377.317 514.14 377.21 514.257 377.178 514.248C377.093 514.218 377.02 514.164 376.967 514.091C376.886 513.959 376.785 513.841 376.668 513.74C376.566 514.055 376.799 514.507 376.304 514.504C376.147 514.504 375.991 514.123 375.789 513.856L377.271 513.411C377.29 513.642 377.319 513.861 377.317 514.08L377.317 514.08ZM378.224 513.926L377.752 514.06L377.592 513.353C377.771 513.264 377.923 513.188 378.098 513.101L378.224 513.926ZM378.578 513.643L378.454 512.955L378.983 512.684C379.139 513.479 379.115 513.534 378.578 513.643ZM380.305 512.702L379.988 512.167L379.833 512.199C379.825 512.345 379.839 512.492 379.876 512.634C379.963 512.838 380.01 512.994 379.742 513.073C379.497 513.145 379.389 513.019 379.345 512.799C379.32 512.671 379.288 512.545 379.261 512.427C379.641 512.149 380.001 511.886 380.378 511.61L380.827 512.36C380.67 512.462 380.487 512.583 380.305 512.702L380.305 512.702ZM382.383 504.887C382.575 505.329 382.736 505.785 382.863 506.25C382.897 506.371 382.935 506.492 382.978 506.611C383.272 507.417 383.316 508.293 383.103 509.124C383.098 509.145 383.057 509.158 383.033 509.175C383.033 509.712 382.795 510.221 382.383 510.566L381.78 510.253L381.669 510.371L382.196 510.909C382.072 511.049 381.907 511.236 381.741 511.422L381.345 510.923C381.046 511.232 381.14 511.413 381.639 511.58L381.022 512.141L380.68 511.356C381.2 510.563 381.67 509.737 382.085 508.884C382.155 508.483 382.246 508.085 382.359 507.694C382.386 507.601 382.529 507.529 382.634 507.478C382.735 507.44 382.84 507.415 382.947 507.401L382.959 507.273L382.484 507.128L382.383 504.887ZM381.988 505.529C382.187 506.586 382.083 507.678 381.69 508.68C381.274 510.108 380.313 511.316 379.015 512.044C378.292 512.472 377.536 512.843 376.755 513.153C376.146 513.368 375.502 513.462 374.858 513.429C373.787 513.405 372.723 513.252 371.689 512.974C370.898 512.729 369.423 511.297 369.349 511.187C369.117 510.839 368.887 510.489 368.69 510.121C368.217 509.313 367.903 508.421 367.766 507.495C367.678 506.652 367.646 505.804 367.672 504.957C367.698 504.041 367.812 503.128 367.891 502.213C367.966 501.35 368.032 500.486 368.134 499.627C368.177 499.462 368.291 499.324 368.446 499.252C368.877 499.079 369.318 498.934 369.768 498.818C370.09 498.733 370.436 498.738 370.759 498.654C372.12 498.302 373.461 497.846 374.839 497.595C376.006 497.383 377.221 497.457 378.401 497.298C379.282 497.18 379.585 497.585 379.778 498.337C379.99 499.167 380.301 499.972 380.562 500.791C380.593 500.889 380.957 501.781 381.066 502.237C381.329 503.345 381.725 504.421 381.988 505.529L381.988 505.529ZM378.783 490.978C378.674 490.984 378.477 491.018 378.469 490.993C378.431 490.835 378.407 490.673 378.397 490.509L378.668 490.472L378.783 490.978ZM377.949 490.503L377.802 489.857L377.952 489.804L378.418 490.296L377.949 490.503ZM377.975 489.315C377.22 488.526 376.416 487.781 375.953 486.751C375.25 485.417 375.713 483.767 377.007 482.994C377.86 482.417 378.874 482.124 379.903 482.158C381.078 482.165 382.213 482.592 383.102 483.361C384.071 484.18 385.046 484.993 386.002 485.826C386.351 486.13 386.653 486.485 387.019 486.861C386.5 487.107 386.003 487.329 385.518 487.575C384.111 488.276 382.793 489.144 381.593 490.159C381.227 490.495 380.897 490.868 380.609 491.273C380.395 491.555 380.245 491.637 379.967 491.343C379.316 490.655 378.63 490 377.975 489.315ZM379.082 491.596C379.016 491.458 378.976 491.31 378.965 491.158L379.083 491.109L379.45 491.417L379.449 491.568C379.321 491.581 379.12 491.648 379.082 491.596L379.082 491.596ZM379.764 492.517L379.521 491.883C379.627 491.877 379.752 491.831 379.835 491.872C380.122 492.011 380.039 492.196 379.764 492.517ZM381.199 494.027C380.866 493.779 380.575 493.479 380.338 493.139C380.241 492.993 380.306 492.681 380.389 492.483C380.858 491.453 381.602 490.573 382.54 489.939C383.9 488.906 385.395 488.064 386.983 487.436C387.239 487.338 387.496 487.238 387.744 487.122C388.828 486.617 389.964 487.203 390.576 488.255C390.217 488.337 389.876 488.403 389.541 488.492C386.4 489.184 383.622 491.005 381.734 493.609C381.605 493.795 381.245 494.063 381.199 494.027ZM383.004 497.462C382.722 496.696 382.396 495.946 382.029 495.217C381.879 495.013 381.909 494.729 382.098 494.561C382.323 494.33 382.532 494.083 382.765 493.862C384.241 492.462 385.771 491.13 387.593 490.188C388.147 489.895 388.717 489.635 389.302 489.409C389.852 489.187 390.427 489.03 391.014 488.94C391.249 488.911 391.556 489.173 391.776 489.366C392.301 489.826 392.801 490.315 393.297 490.807C394.23 491.731 395.172 492.646 396.074 493.598C397.087 494.668 397.734 495.954 398.248 497.664C398.325 498.528 398.347 499.397 398.314 500.264C398.192 501.264 397.665 502.169 396.857 502.769C396.067 503.438 395.22 504.038 394.327 504.561C392.766 505.451 390.886 505.588 389.212 504.935C388.228 504.549 387.319 503.992 386.529 503.289C385.896 502.681 385.335 502.003 384.857 501.267C384.051 500.1 383.426 498.817 383.004 497.462L383.004 497.462ZM386.916 504.932C386.743 504.588 386.618 504.337 386.478 504.059C386.214 504.225 386.04 504.015 385.874 503.76C385.574 503.3 385.266 502.847 384.961 502.39L385.061 502.313C385.757 503.026 386.263 503.947 387.303 504.267C387.166 504.501 387.08 504.65 386.916 504.932L386.916 504.932ZM388.184 505.484C387.641 505.473 387.417 505.183 387.512 504.57C388.214 504.927 388.214 504.927 388.184 505.484L388.184 505.484ZM399.89 499.377C399.819 499.608 400.167 500.062 399.515 499.993C399.438 500.014 399.378 500.073 399.356 500.149C399.375 500.227 399.433 500.291 399.509 500.318C399.672 500.339 399.837 500.345 400.001 500.337C399.95 500.652 399.879 500.964 399.789 501.271C399.774 501.316 399.497 501.297 399.35 501.264C399.166 501.213 398.985 501.15 398.809 501.075L398.719 501.278C399.008 501.429 399.297 501.58 399.632 501.755C399.522 502.034 399.388 502.304 399.233 502.562C398.948 502.965 398.757 502.327 398.385 502.512L398.888 503.129L398.433 503.679C397.958 504.643 397.156 505.406 396.169 505.832C395.919 505.948 395.813 505.931 395.687 505.698C395.58 505.53 395.46 505.372 395.328 505.223L395.162 505.329L395.553 506.149C395.287 506.335 395.028 506.581 394.736 506.273C394.561 506.051 394.407 505.814 394.277 505.563L394.139 505.612L394.441 506.605C394.197 506.596 393.87 506.676 393.669 506.552C393.469 506.429 393.396 506.101 393.237 505.808C392.944 506.148 393.219 506.397 393.289 506.673C392.725 507.164 392.675 506.478 392.387 506.193C392.343 506.394 392.355 506.55 392.282 506.626C392.172 506.74 392.028 506.815 391.872 506.84C391.81 506.849 391.694 506.673 391.653 506.562C391.595 506.372 391.549 506.179 391.515 505.983L391.352 506.001L391.269 506.82C391.029 506.722 390.742 506.693 390.637 506.539C390.519 506.366 390.565 506.081 390.54 505.844L390.353 505.828L390.216 506.496C389.535 506.555 389.748 505.893 389.455 505.497C389.373 505.763 389.312 505.962 389.25 506.161C388.611 505.94 388.454 505.693 388.652 505.19C389.665 505.609 390.758 505.801 391.854 505.751C392.866 505.704 393.847 505.391 394.7 504.844C395.492 504.351 396.258 503.817 396.995 503.246C397.666 502.703 398.191 502.002 398.523 501.206C398.898 500.242 398.955 499.184 398.684 498.186C398.503 497.436 398.34 496.681 398.159 495.88C398.613 496.172 398.966 496.599 399.166 497.101C399.357 497.522 399.524 497.955 399.666 498.395C399.784 498.612 399.748 498.88 399.577 499.058C399.282 499.398 399.721 499.284 399.89 499.377Z" fill="#FFB61D"/>
<path d="M397.631 502.986C397.748 503.562 397.949 503.721 398.431 503.678C398.449 503.638 398.481 503.577 398.474 503.572C398.21 503.383 397.942 503.2 397.631 502.986Z" fill="#F93059"/>
<path d="M398.434 503.678L398.431 503.678L398.427 503.687L398.434 503.678Z" fill="#F93059"/>
<path d="M395.848 504.8C396.048 505.043 396.248 505.286 396.447 505.529L396.624 505.357L396.009 504.659L395.848 504.8Z" fill="#F93059"/>
<path d="M396.69 504.101L397.333 504.682L397.479 504.507L396.825 503.941L396.69 504.101Z" fill="#F93059"/>
</svg>
