<svg width="750" height="750" viewBox="0 0 750 750" fill="none" xmlns="http://www.w3.org/2000/svg">
<rect width="750" height="750" fill="none"/>
<path fill-rule="evenodd" clip-rule="evenodd" d="M420.935 568.037C357.415 526.991 272.349 513.466 225.133 554.465C149.837 619.851 30.3458 536.579 66.3737 439.277C102.402 341.976 364.914 -25.9333 587.389 270.781C809.859 567.498 557.423 656.225 420.935 568.037Z" />
<path fill-rule="evenodd" clip-rule="evenodd" d="M354.932 239.638C364.764 238.346 371.954 231.124 379.201 223.843C385.802 217.212 392.451 210.533 401.189 208.243L401.173 208.258L401.157 208.272C389.957 218.613 378.757 228.955 367.552 239.296C382.058 237.532 394.727 240.306 409.798 247.774C410.243 253.49 415.855 255.069 431.766 259.543C444.493 263.122 463.81 268.554 492.342 279.44C495.045 280.471 497.825 281.585 499.844 283.655C502.183 286.054 503.197 289.414 504.082 292.646C522.745 360.753 518.983 434.811 493.507 500.673C508.787 502.903 522.936 505.154 537.085 507.405C551.234 509.655 565.383 511.906 580.662 514.136C587.23 515.092 596.271 520.051 594.19 526.354L594.04 526.806C592.052 532.842 590.853 536.483 584.513 537.802C578.016 539.159 571.284 538.216 564.715 537.273C554.331 535.783 543.925 534.264 533.501 532.742L533.486 532.74C413.055 515.163 290.215 497.233 170.998 519.042C170.586 519.117 170.173 519.193 169.76 519.269C160.605 520.948 151.229 522.668 142.13 520.816C141.303 520.648 140.483 520.489 139.674 520.331C131.182 518.679 123.92 517.267 122.744 508.483C122.583 507.278 122.573 505.966 123.248 504.956C123.988 503.853 125.355 503.381 126.626 502.995C150.114 495.794 181.005 489.874 205.517 488.233C187.716 424.921 180.53 358.856 193.353 291.996C193.988 288.687 195.588 284.616 197.761 282.041C199.858 279.556 202.278 278.755 205.238 277.775L205.238 277.775C205.561 277.668 205.889 277.559 206.225 277.446C235.445 267.57 262.704 260.498 293.137 255.478C295.974 247.561 303.674 242.372 311.983 241.081C314.298 240.722 316.44 240.255 318.504 239.805C323.848 238.64 328.668 237.59 334.609 238.816C325.364 225.317 314.306 213.06 301.83 202.476C300.09 201 302.166 197.874 304.446 197.964C306.725 198.053 308.477 199.928 309.957 201.665C315.442 208.104 320.93 214.543 326.417 220.981L326.466 221.039C330.676 225.979 334.887 230.92 339.096 235.861C331.839 228.451 324.581 221.042 317.322 213.633C326.218 227.065 338.958 241.735 354.932 239.638ZM266.368 296.202C266.368 296.202 242.284 346.996 268.894 407.974L273.976 410.971C273.976 410.971 400.584 416.847 426.38 416.838L430.845 412.835C430.845 412.835 468.315 345.368 433.62 290.795C433.62 290.795 304.673 288.625 266.368 296.202ZM305.943 200.064C305.924 201.177 305.906 202.29 305.888 203.403L305.778 203.351C304.284 203.071 303.329 201.211 303.972 199.834C304.633 199.73 305.323 199.811 305.943 200.064Z" fill="white"/>
<path fill-rule="evenodd" clip-rule="evenodd" d="M278.924 310.542C278.924 310.542 262.054 351.721 277.119 392.524C277.119 392.524 345.651 415.456 418.22 396.747C418.22 396.747 434.398 376.488 423.085 311.08C374.592 298.182 329.473 298.771 278.924 310.542Z" fill="white"/>
<path fill-rule="evenodd" clip-rule="evenodd" d="M401.502 206.666C400.302 206.288 399.272 205.323 398.938 204.11C398.604 202.897 399.039 201.476 400.069 200.753C400.87 200.191 401.91 200.084 402.883 200.179C403.848 200.273 404.836 200.571 405.525 201.254C406.62 202.34 406.644 204.268 405.687 205.477C404.73 206.687 402.973 207.129 401.502 206.666ZM403.834 202.72C403.404 202.429 402.81 202.401 402.355 202.652C401.638 203.105 401.926 204.451 402.766 204.571C403.607 204.691 404.259 203.479 403.696 202.843L403.834 202.72Z" fill="#00160A"/>
<path fill-rule="evenodd" clip-rule="evenodd" d="M328.762 436.625C329.162 440.739 329.561 444.852 329.962 448.966C330.056 449.941 329.722 451.349 328.758 451.178C327.265 449.216 327.359 446.529 327.269 444.065C327.156 440.986 326.646 437.921 325.757 434.971C325.477 434.043 326.956 433.423 327.734 434.001C328.512 434.58 328.668 435.661 328.762 436.625Z" fill="#FFB61D"/>
<path fill-rule="evenodd" clip-rule="evenodd" d="M268.68 456.472C266.46 461.276 262.699 465.564 257.743 467.417C251.329 469.814 244.072 467.809 238.012 464.62C235.654 463.379 233.362 461.942 231.518 460.018C227.746 456.083 226.2 450.481 225.813 445.043C225.54 441.207 225.788 437.279 227.088 433.66C229.97 425.638 238.207 419.984 246.726 419.75C255.245 419.516 263.596 424.486 267.843 431.876C272.09 439.266 272.256 448.735 268.68 456.472ZM262.668 461.712C264.457 459.938 265.775 457.732 266.762 455.413C270.565 446.467 269.079 435.222 262.285 428.27C255.492 421.318 243.495 419.781 235.715 425.608C230.681 429.378 227.815 435.719 227.834 442.01C227.853 448.302 230.615 454.45 234.96 458.999C238.531 462.738 243.252 465.49 248.376 466.182C253.499 466.873 258.996 465.353 262.668 461.712Z" fill="#00160A"/>
<path fill-rule="evenodd" clip-rule="evenodd" d="M306.133 451.334C304.922 456.531 298.825 459.828 293.676 458.433C288.527 457.037 284.978 451.567 285.309 446.242C285.4 444.783 285.756 443.311 286.565 442.094C288.528 439.144 292.484 438.439 296 437.994C297.158 437.848 298.343 437.703 299.483 437.954C301.746 438.452 303.398 440.409 304.51 442.442C305.988 445.146 306.833 448.334 306.133 451.334ZM300.351 454.896C302.026 453.291 302.608 450.801 302.406 448.49C302.12 445.227 300.206 441.98 297.162 440.771C294.118 439.562 290.089 440.977 289.012 444.07C287.831 447.465 288.244 451.562 290.691 454.194C293.138 456.827 297.757 457.383 300.351 454.896Z" fill="#00160A"/>
<path fill-rule="evenodd" clip-rule="evenodd" d="M426.124 433.117C427.283 430.632 428.999 428.423 431.04 426.592C439.831 418.705 454.579 419.127 463.417 426.961C472.255 434.795 474.613 448.752 469.538 459.417C466.809 465.152 461.891 470.11 455.723 471.619C449.753 473.079 443.453 471.198 437.935 468.491C433.623 466.376 429.387 463.562 427.135 459.318C425.84 456.875 425.287 454.113 424.856 451.382C423.889 445.262 423.504 438.732 426.124 433.117ZM450.741 423.433C447.247 422.824 443.603 422.778 440.197 423.769C432.851 425.903 427.43 432.923 426.358 440.499C425.285 448.074 428.221 455.92 433.353 461.593C439.694 468.603 450.485 472.392 458.904 468.098C463.742 465.631 467.154 460.83 468.633 455.605C470.111 450.379 469.794 444.767 468.494 439.494C467.849 436.878 466.952 434.29 465.461 432.046C462.227 427.176 456.499 424.437 450.741 423.433ZM430.594 460.917C430.536 461.656 431.013 462.406 431.708 462.665C431.813 461.971 431.361 461.234 430.694 461.014L430.594 460.917Z" fill="#00160A"/>
<path fill-rule="evenodd" clip-rule="evenodd" d="M357.641 441.479C358.449 442.928 358.172 444.899 356.997 446.07C355.914 444.738 355.256 443.065 355.142 441.352C353.481 441.359 351.821 441.366 350.16 441.374C350.591 442.969 350.264 444.752 349.292 446.089C347.961 444.953 347.298 443.083 347.617 441.362C345.96 441.36 344.303 441.358 342.646 441.356C342.849 442.927 342.264 444.579 341.119 445.671C340.853 445.118 340.587 444.563 340.321 444.01C339.875 443.08 339.4 442.114 338.578 441.492C337.755 440.87 336.475 440.722 335.743 441.447C334.436 442.741 335.486 445.835 333.694 446.243C332.673 445.119 332.299 443.446 332.741 441.994C331.699 442 330.663 441.513 330.004 440.705C329.815 440.065 330.734 439.722 331.4 439.699C343.343 439.291 355.303 439.382 367.237 439.973C368.595 440.04 370.151 440.219 370.916 441.343C371.351 441.982 371.423 442.791 371.481 443.561C371.604 445.174 371.727 446.787 371.85 448.401C371.968 449.945 372.067 451.584 371.346 452.953C369.972 455.558 366.465 455.939 363.52 455.992C352.354 456.193 341.187 456.394 330.02 456.595C327.182 456.646 324.074 456.607 321.894 454.789C320.297 453.456 319.507 451.392 319.04 449.366C318.478 446.931 318.344 444.185 319.756 442.125C321.169 440.065 324.604 439.36 326.142 441.328C326.063 442.122 324.899 442.008 324.101 442.016C322.564 442.031 321.339 443.466 321.026 444.971C320.712 446.477 321.089 448.031 321.465 449.522C321.863 451.107 322.352 452.829 323.689 453.769C324.799 454.55 326.246 454.608 327.603 454.632C337.783 454.812 347.969 454.644 358.137 454.13C361.059 453.981 363.989 453.804 366.867 453.274C369.279 452.83 369.96 449.697 369.803 447.249C369.695 445.556 369.394 443.764 368.263 442.501C367.131 441.238 364.92 440.823 363.764 442.064C363.818 443.469 363.097 444.881 361.927 445.66C361.721 444.494 361.494 443.277 360.77 442.341C360.045 441.404 358.655 440.868 357.641 441.479Z" fill="#00160A"/>
<path fill-rule="evenodd" clip-rule="evenodd" d="M402.56 452.724C400.172 457.521 393.196 458.676 388.62 455.888C385.815 454.178 383.736 451.212 383.371 447.946C383.008 444.68 384.487 441.205 387.252 439.43C388.532 438.607 390.018 438.159 391.51 437.86C394.423 437.275 397.747 437.324 399.997 439.264C401.283 440.373 402.051 441.965 402.6 443.572C403.612 446.537 403.957 449.92 402.56 452.724ZM392.934 455.488C395.146 455.679 397.367 454.49 398.626 452.661C399.884 450.832 400.22 448.452 399.748 446.283C399.096 443.293 396.759 440.595 393.753 440.028C390.747 439.462 387.335 441.461 386.805 444.475C386.395 446.806 386.484 449.29 387.502 451.426C388.52 453.562 390.577 455.284 392.934 455.488Z" fill="#00160A"/>
<path fill-rule="evenodd" clip-rule="evenodd" d="M354.931 239.637C373.72 237.17 382.857 213.046 401.189 208.243C389.977 218.594 378.765 228.945 367.554 239.296C382.056 237.532 397.1 240.551 409.8 247.774C394.832 241.88 378.37 241.371 362.29 240.937C344.792 240.464 327.294 239.991 309.795 239.519C306.179 239.421 302.365 239.369 299.199 241.118C296.032 242.867 293.933 247.097 295.757 250.222C364.046 242.579 434.128 251.492 498.331 275.986C501.033 277.016 503.812 278.131 505.831 280.201C508.171 282.599 509.186 285.96 510.071 289.192C528.734 357.299 524.969 431.357 499.495 497.219C530.052 501.679 560.609 506.139 591.168 510.599C597.736 511.558 601.503 519.701 599.422 526.005C597.341 532.309 591.013 536.449 584.516 537.803C578.014 539.158 571.286 538.214 564.714 537.271C434.359 518.564 301.186 501.533 171.644 525.228C162.098 526.975 152.285 528.941 142.776 527.005C133.267 525.068 124.032 518.104 122.745 508.483C122.584 507.279 122.573 505.966 123.248 504.957C123.988 503.851 125.355 503.383 126.627 502.993C150.115 495.794 174.435 491.314 198.946 489.672C178.743 424.661 174.825 354.655 187.649 287.795C188.284 284.486 189.03 281.031 191.203 278.456C193.528 275.701 197.104 274.399 200.52 273.245C229.74 263.368 259.764 255.871 290.196 250.852C293.033 242.935 301.306 237.993 309.615 236.701C317.924 235.411 326.374 237.116 334.61 238.815C325.362 225.317 314.306 213.06 301.83 202.476C300.09 201 302.167 197.874 304.446 197.963C306.726 198.053 308.477 199.928 309.957 201.664C319.67 213.063 329.382 224.462 339.095 235.86C331.837 228.451 324.58 221.042 317.322 213.633C326.217 227.065 338.96 241.735 354.931 239.637ZM504.614 282.237C502.556 279.773 499.421 278.532 496.411 277.416C398.855 241.264 287.509 239.693 191.665 280.17C181.448 345.564 183.789 412.898 198.524 477.425C199.688 482.525 202.324 488.767 207.554 488.696C286.831 487.617 366.091 491.164 445.296 494.711C460.076 495.373 474.856 496.035 489.621 496.965C495.798 497.354 499.549 490.416 501.532 484.552C522.668 422.029 524.869 353.239 507.772 289.493C507.083 286.924 506.32 284.278 504.614 282.237ZM125.767 508.165C126.334 516.709 134.34 523.238 142.7 525.081C151.06 526.923 159.738 525.175 168.153 523.599C300.189 498.867 436.066 516.888 569.085 535.619C576.791 536.703 585.352 537.597 591.693 533.089C598.034 528.581 598.386 516.423 590.844 514.506C508.392 493.549 422.042 497.089 337.061 493.146C314.006 492.076 290.972 490.445 267.896 490.029C228.57 489.319 189.181 492.147 150.359 498.466C141.511 499.906 132.105 501.823 125.767 508.165ZM184.226 326.974C183.171 346.284 182.577 365.62 182.446 384.958C182.415 389.4 182.416 393.895 183.473 398.209C184.173 374.47 184.874 350.715 184.226 326.974ZM195.082 470.846C194.114 465.614 193.146 460.381 192.179 455.149C191.834 453.287 191.464 451.362 190.382 449.809C191.172 456.965 192.751 464.034 195.082 470.846ZM305.887 203.403C305.906 202.29 305.925 201.177 305.943 200.064C305.323 199.81 304.634 199.73 303.972 199.834C303.329 201.211 304.285 203.071 305.778 203.35L305.887 203.403Z" fill="#00160A"/>
<path fill-rule="evenodd" clip-rule="evenodd" d="M450.073 463.373C453.53 460.308 456.986 457.244 460.443 454.179C461.2 453.508 462.709 453.036 462.934 454.023C459.226 457.737 455.342 461.275 451.3 464.622C450.891 464.206 450.482 463.789 450.073 463.373Z" fill="#00160A"/>
<path fill-rule="evenodd" clip-rule="evenodd" d="M239.514 428.836C239.871 428.907 240.228 428.977 240.584 429.048C239.37 430.23 237.839 431.084 236.196 431.496C237.055 430.37 238.213 429.473 239.519 428.925L239.514 428.836Z" fill="#00160A"/>
<path fill-rule="evenodd" clip-rule="evenodd" d="M252.718 460.871C251.883 460.583 252.567 459.329 253.303 458.841C254.907 457.782 256.511 456.723 258.114 455.664C258.823 455.196 259.956 454.815 260.365 455.56C258.389 457.578 256.116 459.304 253.641 460.665C253.356 460.822 253.025 460.978 252.718 460.871Z" fill="#00160A"/>
<path fill-rule="evenodd" clip-rule="evenodd" d="M461.279 443.201C462.049 442.5 463.546 441.953 463.872 442.941C456.939 449.472 449.958 455.954 442.93 462.384C442.354 462.376 442.002 461.666 442.136 461.105C442.27 460.545 442.717 460.122 443.143 459.734C449.188 454.223 455.234 448.712 461.279 443.201Z" fill="#00160A"/>
<path fill-rule="evenodd" clip-rule="evenodd" d="M262.692 446.714C256.884 450.918 250.974 454.981 244.969 458.897C244.639 459.112 244.24 459.335 243.874 459.19C243.036 458.859 243.75 457.606 244.503 457.11C249.527 453.797 254.551 450.484 259.575 447.171C260.524 446.546 261.859 445.939 262.692 446.714Z" fill="#00160A"/>
<path fill-rule="evenodd" clip-rule="evenodd" d="M262.766 286.862C271.34 288.81 280.258 288.235 289.037 287.74C337.312 285.017 385.742 285.045 434.013 287.823C435.91 287.932 438.135 288.245 439.034 289.919C438.017 290.011 436.98 289.86 436.031 289.483C453.591 325.957 453.27 370.545 435.188 406.764C433.352 410.441 431.292 414.258 431.446 418.365C428.164 416.998 424.507 416.946 420.952 416.908C370.47 416.373 319.999 414.752 269.587 412.047C267.992 411.961 266.326 411.853 264.958 411.03C263.042 409.877 262.153 407.61 261.428 405.493C251.572 376.688 248.405 345.615 252.249 315.413C253.55 305.192 255.896 294.54 262.766 286.862ZM282.971 393.54C324.673 402.682 368.265 407.2 409.951 397.989C412.48 397.431 415.079 396.785 417.141 395.218C420.312 392.809 421.621 388.71 422.526 384.831C427.888 361.834 425.232 337.82 422.548 314.359C421.966 309.266 415.93 307.025 410.909 305.994C368.564 297.297 324.452 297.308 282.111 306.023C279.498 306.561 276.797 307.174 274.685 308.804C272.573 310.434 271.231 313.38 272.267 315.839C272.238 313.334 273.742 310.874 275.985 309.759C266.367 334.206 265.241 361.904 272.845 387.051C274.065 391.087 278.853 392.637 282.971 393.54ZM444.338 372.903C448.671 345.564 445.089 317.016 434.137 291.595C430.014 295.667 425.671 300.153 424.791 305.881C423.41 314.862 431.003 324.18 427.483 332.556C426.862 329.432 426.241 326.309 425.62 323.186C429.709 344.319 429.427 366.29 424.793 387.311C424.268 389.694 423.55 392.276 421.555 393.681C419.775 394.933 420.841 397.711 422.05 399.52C424.7 403.488 427.351 407.455 430.002 411.423C437.134 396.889 441.879 381.187 443.989 365.135C444.105 367.725 444.222 370.314 444.338 372.903ZM278.804 303.961C323.509 291.503 371.315 295.181 416.605 305.309C417.741 305.563 419.017 305.8 420.001 305.177C420.47 304.88 420.809 304.42 421.137 303.971C424.479 299.389 427.822 294.807 431.166 290.224C376.1 286.609 320.765 287.116 265.775 291.737C266.816 294.875 267.904 298.096 270.036 300.622C272.168 303.148 275.62 304.849 278.804 303.961ZM275.107 393.324C272.441 396.317 270.223 399.709 268.547 403.351C267.975 404.595 267.462 406.029 267.974 407.298C268.739 409.196 271.212 409.576 273.255 409.669C323.525 411.95 373.82 413.682 424.128 414.866C424.727 414.88 425.429 414.844 425.771 414.352C426.06 413.934 425.955 413.37 425.838 412.875C425.011 409.381 424.128 405.768 421.919 402.938C419.71 400.108 415.778 398.286 412.449 399.629C387.309 409.773 359.06 407.349 332.152 404.05C312.923 401.692 293.645 398.95 275.107 393.324ZM270.636 387.629C260.694 363.225 265.363 335.569 270.986 309.824C271.244 308.641 271.504 307.413 271.241 306.231C271.015 305.215 270.421 304.325 269.839 303.462C267.265 299.647 264.691 295.832 262.117 292.017C249.783 328.287 250.585 368.871 264.342 404.625C268.548 399.826 273.044 393.539 270.636 387.629ZM337.26 298.171C328.194 297.917 319.108 298.333 310.101 299.413C309.537 299.48 308.779 299.96 309.131 300.406C318.762 299.845 328.394 299.285 338.025 298.724C338.136 298.374 337.628 298.181 337.26 298.171ZM362.234 405.339C371.04 406.155 379.953 405.803 388.667 404.296C389.08 404.224 389.586 404.059 389.639 403.643C380.504 404.208 371.369 404.774 362.234 405.339ZM393.884 403.68C394.801 403.861 395.802 403.533 396.436 402.846C395.175 402.63 393.85 402.811 392.692 403.356C392.667 403.86 393.367 404.22 393.763 403.907M398.278 403.062C398.648 403.342 399.017 402.569 398.696 402.234C398.322 402.133 397.905 402.198 397.58 402.409C397.5 402.767 397.889 403.138 398.243 403.042L398.278 403.062Z" fill="#00160A"/>
<path fill-rule="evenodd" clip-rule="evenodd" d="M244.61 462.625C236.992 459.801 230.631 453.114 229.319 445.094C228.007 437.074 232.496 428.159 240.139 425.402C243.731 424.106 247.675 424.163 251.46 424.668C253.033 424.877 254.605 425.164 256.096 425.704C261.284 427.581 265.032 432.479 266.38 437.829C267.729 443.178 266.909 448.896 264.996 454.071C264.133 456.405 263.018 458.708 261.251 460.459C257.054 464.621 250.152 464.68 244.61 462.625ZM241.584 459.19C242.827 460.165 244.549 461.171 245.859 460.289C250.726 457.01 255.594 453.731 260.461 450.452C261.288 449.894 262.819 449.624 262.921 450.617C257.872 454.1 252.822 457.582 247.773 461.065C251.56 463.633 257.068 462.091 260.108 458.671C263.147 455.251 264.183 450.496 264.491 445.93C264.793 441.459 264.466 436.807 262.443 432.809C261.874 431.687 260.92 430.492 259.667 430.601C259.079 430.652 258.561 430.99 258.071 431.319C249.812 436.855 241.553 442.392 233.294 447.928C232.822 448.244 232.312 448.615 232.198 449.171C232.083 449.727 232.695 450.386 233.177 450.086C242.057 443.903 251.049 437.882 260.148 432.026C260.993 432.439 260.207 433.698 259.416 434.208C251.246 439.48 243.199 444.944 235.285 450.593C234.468 451.177 233.554 452.183 234.09 453.032C234.967 452.576 235.792 452.027 236.615 451.478C244.136 446.465 251.657 441.452 259.177 436.44C260.283 435.703 262.212 435.231 262.565 436.512C253.238 442.066 244.197 448.097 235.485 454.573C235.669 455.092 236.205 455.462 236.755 455.45C244.41 450.288 252.129 445.219 259.908 440.245C261.142 439.456 262.793 438.673 263.961 439.557C255.004 444.976 246.263 450.753 237.766 456.87C237.934 457.346 238.434 457.682 238.938 457.657C246.485 452.045 254.394 446.919 262.598 442.321C263.01 443.359 261.863 444.302 260.887 444.844C254.273 448.51 247.924 452.654 241.904 457.231C241.428 457.593 240.897 458.151 241.136 458.699C241.225 458.905 241.408 459.051 241.584 459.19ZM231.347 440.442C237.37 435.997 243.606 431.842 250.028 427.996C250.741 427.568 251.83 427.224 252.26 427.935C245.863 432.272 239.466 436.608 233.069 440.944C232.05 441.635 230.891 442.723 231.328 443.875C238.414 439.127 245.499 434.379 252.585 429.631C253.51 429.011 254.979 428.493 255.542 429.453C248.157 434.366 240.772 439.279 233.388 444.192C232.406 444.844 231.288 445.928 231.789 446.996C240.448 441.343 249.108 435.691 257.767 430.039C257.999 429.887 258.247 429.716 258.332 429.452C258.525 428.855 257.801 428.397 257.21 428.186C255.788 427.678 254.367 427.171 252.945 426.663C252.232 426.408 251.497 426.15 250.741 426.182C249.663 426.228 248.706 426.85 247.81 427.452C242.949 430.715 238.089 433.979 233.229 437.243C232.908 436.919 232.404 436.792 231.968 436.925C231.52 438.037 231.307 439.243 231.347 440.442ZM235.73 431.966C233.989 432.79 232.627 434.377 232.075 436.222C237.129 432.926 242.183 429.63 247.237 426.335C243.776 426.382 240.329 427.243 237.252 428.83C236.039 429.456 234.751 431.014 235.73 431.966Z" fill="#00160A"/>
<path fill-rule="evenodd" clip-rule="evenodd" d="M444.737 466.27C436.485 463.653 429.499 456.667 427.885 448.161C426.271 439.655 430.726 430.088 438.695 426.705C443.284 424.758 448.546 424.882 453.367 426.147C457.057 427.117 460.674 428.804 463.216 431.649C467.647 436.607 467.972 443.987 467.071 450.575C466.391 455.551 464.951 460.785 461.14 464.054C456.764 467.807 450.231 468.012 444.737 466.27ZM462.336 447.535C463.116 446.892 464.64 446.482 464.829 447.475C458.628 452.981 452.535 458.609 446.556 464.354C451.873 466.87 458.853 465.121 462.356 460.396C461.309 459.586 459.927 460.804 459.132 461.862C458.336 462.92 456.749 463.985 455.878 462.988C457.153 461.265 458.784 459.808 460.639 458.734C461.371 458.31 462.151 457.935 462.737 457.324C463.425 456.607 463.775 455.637 464.061 454.685C465.636 449.43 465.761 443.748 464.422 438.428C456.519 445.476 448.617 452.524 440.714 459.572C440.256 459.981 439.748 460.411 439.135 460.444C438.522 460.477 437.864 459.867 438.102 459.3C445.679 452.797 453.257 446.294 460.834 439.791C461.896 438.88 463.007 437.894 463.411 436.555C463.814 435.216 463.146 433.457 461.765 433.239C460.711 433.072 459.751 433.815 458.943 434.512C451.068 441.301 443.193 448.089 435.317 454.877C434.449 455.626 433.525 456.914 434.289 457.769C442.653 450.597 451.016 443.425 459.38 436.254C460.364 435.41 461.834 434.546 462.83 435.377C454.047 442.96 445.266 450.542 436.483 458.125C436.119 458.439 435.719 458.85 435.81 459.323C435.88 459.682 436.212 459.92 436.521 460.118C438.513 461.39 440.61 462.501 442.782 463.433C443.489 463.737 444.405 463.986 444.945 463.439C450.464 457.844 456.271 452.534 462.336 447.535ZM430.997 443.003C430.382 443.496 429.718 444.364 430.23 444.963C436.568 440.063 442.907 435.163 449.246 430.263C450.099 429.604 451.258 428.92 452.173 429.49C445.376 434.868 438.579 440.246 431.782 445.624C430.678 446.497 429.452 447.891 430.141 449.119C438.479 442.023 447.078 435.233 455.913 428.766C453.612 428 451.222 427.502 448.807 427.283C446.467 427.071 444.041 427.134 441.864 428.018C439.687 428.902 437.788 430.726 437.309 433.027C439.633 430.809 442.546 429.214 445.667 428.453C441.157 431.768 436.648 435.084 432.14 438.399C430.857 439.342 429.429 440.978 430.328 442.292C435.738 436.87 441.98 432.28 448.769 428.734C442.845 433.49 436.92 438.246 430.997 443.003ZM430.562 450.523C430.72 451.099 430.879 451.676 431.037 452.252C440.123 444.896 449.209 437.54 458.295 430.184C457.257 429.292 455.69 430.163 454.625 431.025C446.605 437.524 438.583 444.024 430.562 450.523ZM433.525 452.304C432.671 453.012 431.846 454.467 432.806 455.022C441.894 447.324 450.982 439.625 460.071 431.927C459.393 431.201 458.201 431.824 457.437 432.458C449.466 439.073 441.495 445.688 433.525 452.304ZM433.523 433.217C435.385 432.516 437.015 431.212 438.105 429.547C435.959 429.391 433.84 431.088 433.523 433.217Z" fill="#00160A"/>
<path fill-rule="evenodd" clip-rule="evenodd" d="M318.963 337.416C319.767 336.137 325.134 334.404 328.727 337.597C332.32 340.791 319.507 343.513 328.759 346.124C338.01 348.736 354.258 348.947 362.11 347.021C369.963 345.095 361.061 338.991 362.576 337.83C364.092 336.669 372.07 332.842 375.469 337.83C378.867 342.818 387.937 349.013 373.228 352.976C358.518 356.94 331.968 356.855 318.963 353.126C305.958 349.397 318.159 338.695 318.963 337.416Z" fill="#00160A"/>
<path fill-rule="evenodd" clip-rule="evenodd" d="M341.167 319.48C345.419 317.077 349.174 317.988 352.106 319.48C355.038 320.973 351.639 327.775 351.639 327.775C351.639 327.775 361.3 325.564 361.029 327.338C360.758 329.113 353.857 340.575 346.955 340.728C340.052 340.881 333.71 329.314 332.816 327.775C331.922 326.236 341.431 327.775 341.431 327.775C341.431 327.775 336.915 321.884 341.167 319.48Z" fill="#00160A"/>
<path fill-rule="evenodd" clip-rule="evenodd" d="M398.062 370.873C400.271 370.912 402.03 372.734 401.992 374.942C401.953 377.151 400.131 378.91 397.923 378.872L297.938 377.127C295.729 377.088 293.97 375.266 294.008 373.057C294.047 370.849 295.869 369.089 298.077 369.128L398.062 370.873ZM398.036 372.373L298.051 370.628C296.671 370.604 295.532 371.703 295.508 373.084C295.485 374.409 296.497 375.511 297.8 375.619L297.964 375.627L397.949 377.372C399.329 377.396 400.468 376.297 400.492 374.916C400.515 373.591 399.503 372.489 398.2 372.381L398.036 372.373Z" fill="#00160A"/>
<rect x="294.078" y="369.058" width="85" height="8" rx="4" transform="rotate(1 294.078 369.058)" fill="#FFB61D"/>
</svg>
