<svg width="750" height="750" viewBox="0 0 750 750" fill="none" xmlns="http://www.w3.org/2000/svg">
<rect width="750" height="750" fill="none"/>
<path fill-rule="evenodd" clip-rule="evenodd" d="M517.284 94.1302C399.854 74.8653 411.826 267.707 255.577 241.313C95.7604 214.316 47.9942 404.763 95.7604 509.958C147.351 623.576 477.695 684.654 595.877 600.899C728.891 506.632 737.615 130.277 517.284 94.1302Z" />
<path fill-rule="evenodd" clip-rule="evenodd" d="M256.486 301.158C256.486 301.158 269.97 330.558 281.681 344.187C298.299 363.528 322.03 379.595 330.942 394.679C352.117 430.521 342.725 448.053 342.725 448.053C342.725 448.053 331.538 409.415 315.504 390.544C303.267 376.141 279.23 360.167 271.196 348.338C256.723 327.031 249.246 306.618 249.246 306.618L256.486 301.158Z" fill="white"/>
<path d="M422.955 614.082C367.67 616.664 312.423 620.089 257.242 624.356C250.165 625.054 244.929 625.159 245.209 625.91C240.234 625.594 231.241 622.888 226.013 625.054C229.951 625.968 237.395 629.449 237.837 633.467C185.763 636.471 133.4 634.444 81.7134 627.425C132.321 630.874 183.082 632.058 233.795 630.972C227.26 626.586 218.855 625.093 211.209 626.96C221.065 622.195 232.486 620.742 243.221 622.888C235.03 613.725 229.602 602.124 227.816 589.965C235.998 595.56 242.542 603.522 246.447 612.633C246.073 595.507 258.192 578.867 274.606 573.968C264.124 587.318 258.583 604.46 259.269 621.42C311.672 616.943 364.191 613.812 416.756 612.031C414.161 609.973 412.397 606.897 411.93 603.619C414.5 601.425 418.296 600.78 421.446 602.001C423.759 583.692 436.496 567.065 453.571 560.066C444.061 570.808 437.453 584.096 434.629 598.163C437.563 596.386 441.277 595.955 444.539 597.014C443.61 600.98 441.283 604.605 438.063 607.101C503.148 592.225 571.47 617.569 637.583 608.273C604.209 619.067 568.148 610.699 533.26 607.069C482.189 602.001 433.14 612.031 422.955 614.082Z" fill="white"/>
<path d="M560.671 218.197C561.244 212.749 565.934 208.666 570.743 206.046C579.443 201.306 589.685 199.456 599.493 200.854C603.934 201.487 607.32 197.256 610.493 194.085C618.728 185.855 631.314 182.851 642.8 184.752C654.286 186.653 664.694 192.998 673.077 201.077C681.46 209.157 688.003 218.933 694.059 228.877C695.329 230.962 698.276 231.018 700.715 230.898C705.979 230.64 711.517 230.786 716.116 233.36C720.714 235.935 723.945 241.65 722.085 246.58C721.213 248.889 719.363 250.73 717.249 252.004C713.033 254.545 707.921 254.983 703.012 255.358C670.277 257.857 637.542 260.357 604.807 262.856C595.851 263.54 586.753 264.216 577.957 262.394C569.161 260.572 560.55 255.884 556.047 248.112C551.544 240.339 552.297 229.267 559.205 223.525C560.664 222.312 560.473 220.084 560.671 218.197" fill="white"/>
<path d="M451.1 268.351C458.245 276.558 495.124 273.684 496.32 288.699C492.095 289.858 487.87 291.017 483.645 292.176C476.776 294.06 469.829 295.976 463.614 299.457C460.698 301.091 457.231 303.11 454.265 301.569C442.796 295.609 429.46 293.757 416.594 294.987C403.728 296.217 391.283 300.41 379.607 305.953C373.511 308.846 366.642 312.188 360.333 309.796C337.299 301.062 311.02 301.215 288.089 310.216C284.023 311.812 279.491 310.041 275.49 308.29C271.162 306.396 266.834 304.503 262.507 302.609C268.088 296.226 291.948 287.345 296.813 281.167C297.668 280.081 329.528 257.987 364.465 267.97C366.03 267.235 420.367 257.987 451.1 268.351Z" fill="white"/>
<path fill-rule="evenodd" clip-rule="evenodd" d="M308.296 372.688C288.038 353.434 264.65 333.943 259.194 306.531C269.207 332.247 291.441 350.759 310.941 370.285C330.441 389.811 348.912 414.167 347.707 441.736C379.591 434.776 412.632 433.145 445.047 436.93C448.37 421.966 458.042 409.368 465.632 396.05C484.446 363.034 490.806 324.599 496.851 287.083C498.38 277.598 486.767 271.976 477.457 269.604C468.159 267.234 458.86 264.865 449.562 262.496C432.087 258.043 413.983 253.559 396.208 256.604C384.189 258.662 372.32 264.139 360.299 262.089C341.165 258.824 320.865 262.958 304.531 273.444C296.319 278.715 289.022 285.549 280.058 289.406C261.193 297.523 244.576 310.795 232.49 327.4C226.176 294.739 236.814 261.314 249.252 230.46C263.155 195.97 280.608 161.074 310.521 138.982C354.379 106.592 411.561 112.897 457.183 142.749C502.806 172.601 530.683 221.828 539.692 275.6C540.74 281.855 541.483 288.624 538.538 294.24C535.594 299.856 534.483 303.106 529.682 298.963C525.59 295.431 521.234 291.768 515.925 290.751C510.615 289.734 504.174 292.493 503.144 297.8C495.605 336.667 487.688 376.52 466.742 410.117C461.288 418.866 454.936 427.22 451.467 436.929C448.813 444.358 447.957 452.289 447.121 460.134C445.378 476.48 443.635 492.826 441.892 509.171C441.158 516.061 440.134 523.564 435.115 528.341C430.322 532.903 423.189 533.723 416.598 534.309C395.195 536.21 373.791 538.111 352.388 540.012C348.56 540.351 344.22 540.525 341.424 537.889C339.27 535.857 338.673 532.711 338.25 529.781C335.243 508.985 335.244 487.757 338.252 466.962C342.568 437.125 329.216 406.6 308.185 385C297.225 373.744 284.3 364.543 273.358 353.269C262.416 341.995 253.258 327.826 252.601 312.129C260.047 332.76 273.768 351.079 291.471 364.026C317.928 383.374 336.778 412.851 343.242 444.984C348.324 417.501 328.554 391.943 308.296 372.688Z" fill="white"/>
<path fill-rule="evenodd" clip-rule="evenodd" d="M253.55 435.487C250.339 433.727 249.157 429.78 248.313 426.217C244.172 408.738 241.144 390.995 239.255 373.132C239.135 371.996 239.079 370.684 239.906 369.896C241.676 371.984 241.989 374.9 242.26 377.623C244.214 397.206 247.999 416.606 253.55 435.487Z" fill="#00160A"/>
<path fill-rule="evenodd" clip-rule="evenodd" d="M508.138 375.945C511.048 366.216 513.193 356.258 514.547 346.193C514.731 344.831 515.244 343.116 516.614 343.011C517.415 343.71 517.338 344.956 517.187 346.008C515.897 354.982 514.056 363.877 511.679 372.625C511.196 374.401 509.846 376.631 508.138 375.945H508.138Z" fill="#00160A"/>
<path fill-rule="evenodd" clip-rule="evenodd" d="M433.99 609.839C435.578 605.529 438.485 601.715 442.22 599.043C438.251 599.286 434.39 601.014 431.565 603.814C433.121 591.611 437.024 579.711 442.998 568.957C431.948 578.027 424.815 591.717 423.714 605.971C421.082 604.437 417.798 604.066 414.89 604.975C417.578 608.011 420.267 611.046 422.955 614.082C367.67 616.664 312.423 620.089 257.242 624.356C254.373 609.106 258.103 592.73 267.294 580.228C255.166 588.781 247.679 603.545 247.945 618.384C242.537 611.171 239.843 600.867 231.722 596.745C233.159 603.814 234.819 605.403 244.358 623.663C244.748 624.409 244.929 625.159 245.209 625.91C240.234 625.594 231.241 622.888 226.013 625.054C229.951 625.968 237.395 629.449 237.837 633.467C185.763 636.471 133.4 634.444 81.7134 627.425C132.321 630.874 183.082 632.058 233.795 630.972C227.26 626.586 218.855 625.093 211.209 626.96C221.065 622.195 232.486 620.742 243.221 622.888C235.03 613.725 229.602 602.124 227.816 589.965C235.998 595.56 242.542 603.522 246.447 612.633C246.073 595.507 258.192 578.867 274.606 573.968C264.124 587.318 258.583 604.46 259.269 621.42C311.672 616.943 364.191 613.812 416.756 612.031C414.161 609.973 412.397 606.897 411.93 603.619C414.5 601.425 418.296 600.78 421.446 602.001C423.759 583.692 436.496 567.065 453.571 560.066C444.061 570.808 437.453 584.096 434.629 598.163C437.563 596.386 441.277 595.955 444.539 597.014C443.61 600.98 441.283 604.605 438.063 607.101C503.148 592.225 571.47 617.569 637.583 608.273C604.209 619.067 568.148 610.699 533.26 607.069C500.24 603.633 466.767 604.567 433.99 609.839Z" fill="#00160A"/>
<path fill-rule="evenodd" clip-rule="evenodd" d="M463.296 371.864C464.094 373.038 463.844 374.606 463.522 375.988C461.59 384.287 458.183 392.24 453.509 399.365C452.209 397.744 453.405 395.397 454.499 393.63C457.411 388.93 459.551 383.753 460.807 378.368C461.34 376.083 461.769 373.645 463.296 371.864H463.296Z" fill="#00160A"/>
<path fill-rule="evenodd" clip-rule="evenodd" d="M450.837 386.931C449.635 385.893 450.173 383.962 450.749 382.482C452.6 377.729 453.844 372.74 454.442 367.674C454.64 365.994 454.955 364.017 456.469 363.265C457.183 363.909 457.075 365.038 456.91 365.985C455.655 373.181 454.349 380.526 450.837 386.931Z" fill="#00160A"/>
<path fill-rule="evenodd" clip-rule="evenodd" d="M350.774 413.752C351.126 413.436 351.675 413.76 352.001 414.102C353.465 415.636 354.338 417.72 354.403 419.84C352.444 418.79 351.008 416.814 350.615 414.626C350.56 414.321 350.543 413.958 350.774 413.752L350.774 413.752Z" fill="#00160A"/>
<path fill-rule="evenodd" clip-rule="evenodd" d="M504.944 349.489C504.422 358.729 502.312 367.877 498.735 376.412C498.642 376.633 498.543 376.861 498.361 377.018C497.83 377.476 496.934 376.983 496.744 376.308C496.554 375.632 496.825 374.923 497.082 374.271C499.606 367.883 501.281 361.16 502.048 354.335C502.276 352.306 502.916 349.726 504.944 349.489L504.944 349.489Z" fill="#00160A"/>
<path fill-rule="evenodd" clip-rule="evenodd" d="M347.36 397.817C343.922 393.169 341.157 388.024 339.178 382.592C338.924 381.893 339.079 380.715 339.797 380.909C340.067 380.981 340.227 381.251 340.359 381.498C343.345 387.064 346.33 392.63 349.315 398.196C349.163 399.034 347.866 398.501 347.36 397.817H347.36Z" fill="#00160A"/>
<path fill-rule="evenodd" clip-rule="evenodd" d="M249.472 301.225C247.893 300.406 247.829 298.204 248.019 296.435C251.552 263.464 267.604 231.988 292.217 209.767C292.783 213.95 289.554 217.573 286.691 220.674C266.298 242.766 253.078 271.377 249.472 301.225Z" fill="#00160A"/>
<path fill-rule="evenodd" clip-rule="evenodd" d="M456.38 301.192C456.83 290.367 455.02 278.452 451.1 268.351C458.245 276.558 458.541 288.5 458.466 299.382C469.863 292.603 483.06 288.879 496.32 288.699C492.095 289.858 487.87 291.017 483.645 292.176C476.776 294.06 469.829 295.976 463.614 299.457C460.698 301.091 457.231 303.11 454.265 301.569C442.796 295.609 429.46 293.757 416.594 294.987C403.728 296.218 391.283 301.41 379.607 306.953C373.511 309.846 366.642 313.188 360.333 310.796C337.299 302.062 311.02 301.215 288.089 310.216C284.023 311.812 279.491 310.041 275.49 308.29C271.162 306.397 266.834 304.503 262.507 302.609C267.538 303.665 280.03 308.159 280.03 308.159C280.03 308.159 283.629 308.594 284.761 307.212C285.894 305.83 286.252 303.993 286.66 302.253C288.456 294.598 291.948 287.345 296.813 281.167C297.668 280.081 299.498 279.068 300.179 280.27C293.447 288.073 288.958 297.789 287.38 307.974C311.917 298.719 339.916 299.011 364.254 308.776C366.58 295.31 366.651 281.459 364.465 267.97C366.03 267.235 367.179 269.568 367.333 271.29C368.455 283.835 368.254 296.498 366.733 309.001C380.809 302.201 395.407 296.057 410.841 293.578C426.275 291.098 442.75 293.539 456.38 301.192Z" fill="#00160A"/>
<path fill-rule="evenodd" clip-rule="evenodd" d="M277.478 274.312C284.837 253.254 296.307 233.641 311.053 216.903C312.134 215.676 313.419 214.372 315.054 214.317C316.688 214.261 318.223 216.398 317.069 217.557C300.104 234.614 286.872 255.363 278.563 277.94C277.067 277.979 276.985 275.724 277.478 274.312H277.478Z" fill="#00160A"/>
<path fill-rule="evenodd" clip-rule="evenodd" d="M254.231 369.139C254.446 369.401 254.471 369.766 254.488 370.104C255.194 384.129 258.758 397.833 262.304 411.421C262.455 412.001 261.609 412.42 261.077 412.143C260.545 411.866 260.313 411.242 260.127 410.672C255.992 397.942 253.352 384.727 252.28 371.386C252.227 370.72 252.189 370.003 252.543 369.437C252.898 368.872 253.808 368.623 254.231 369.139H254.231Z" fill="#00160A"/>
<path fill-rule="evenodd" clip-rule="evenodd" d="M365.021 255.253C363.545 255.315 363.063 253.307 363.084 251.83C363.308 236.383 363.532 220.937 363.755 205.491C363.78 203.785 364.242 201.564 365.937 201.376C367.444 203.141 367.412 205.708 367.3 208.027C366.541 223.769 365.781 239.511 365.021 255.253Z" fill="#00160A"/>
<path fill-rule="evenodd" clip-rule="evenodd" d="M507.246 278.893C510.519 273.579 510.298 266.892 509.747 260.675C508.781 249.786 507.123 238.958 504.788 228.279C504.564 227.255 504.43 225.965 505.292 225.369C506.005 224.877 507.046 225.217 507.604 225.879C508.162 226.542 508.357 227.428 508.529 228.276C511.208 241.553 512.427 255.124 512.159 268.665C512.06 273.7 511.235 279.608 506.815 282.022C505.965 281.247 506.643 279.871 507.246 278.893H507.246Z" fill="#00160A"/>
<path fill-rule="evenodd" clip-rule="evenodd" d="M455.403 243.106C456.514 248.044 456.043 253.325 454.075 257.987C452.723 256.535 453.103 254.258 453.337 252.288C454.246 244.637 451.567 237.017 448.272 230.051C444.977 223.086 440.996 216.36 439.016 208.914C438.718 207.794 438.763 206.171 439.906 205.973C440.87 205.806 441.528 206.897 441.888 207.808C445.59 217.188 449.293 226.568 452.995 235.947C453.921 238.292 454.85 240.647 455.403 243.106Z" fill="#00160A"/>
<path fill-rule="evenodd" clip-rule="evenodd" d="M555.671 215.197C556.244 209.749 560.934 205.666 565.743 203.046C574.443 198.306 584.685 196.456 594.493 197.854C598.934 198.487 602.32 194.256 605.493 191.085C613.728 182.855 626.314 179.851 637.8 181.752C649.286 183.653 659.694 189.998 668.077 198.077C676.46 206.157 683.003 215.933 689.059 225.877C690.329 227.962 693.276 228.018 695.715 227.898C700.979 227.64 706.517 227.786 711.116 230.36C715.714 232.935 718.945 238.65 717.085 243.58C716.213 245.889 714.363 247.73 712.249 249.004C708.033 251.545 702.921 251.983 698.012 252.358C665.277 254.857 632.542 257.357 599.807 259.856C590.851 260.54 581.753 261.216 572.957 259.394C564.161 257.572 555.55 252.884 551.047 245.112C546.544 237.339 547.297 226.267 554.205 220.525C555.664 219.312 555.473 217.084 555.671 215.197M568.072 204.735C564.154 206.603 560.242 209.352 558.952 213.497C558.492 214.974 558.397 216.542 557.97 218.028C556.863 221.883 553.674 224.777 551.991 228.417C548.483 236.006 552.481 245.443 559.169 250.461C565.856 255.478 574.517 256.969 582.857 257.556C612.873 259.67 642.719 252.054 672.8 251.297C684.615 250.999 696.807 251.703 707.859 247.517C712.043 245.933 716.64 241.924 714.844 237.827C714.391 236.792 713.573 235.962 712.717 235.225C707.425 230.674 699.847 228.933 693.1 230.718C689.659 231.629 686.785 228.138 684.901 225.118C676.703 211.98 667.421 198.884 654.178 190.858C640.934 182.831 622.775 181.076 610.456 190.46C604.92 194.676 599.771 201.228 592.85 200.494C584.412 199.599 575.733 201.085 568.072 204.735Z" fill="#00160A"/>
<path fill-rule="evenodd" clip-rule="evenodd" d="M109.654 166.24C108.549 169.687 109.942 173.398 111.451 176.689C113.205 180.513 116.089 184.827 120.288 184.562C133.256 183.743 146.223 182.924 159.191 182.105C161.069 181.987 163.654 182.477 163.665 184.359C147.404 185.661 131.143 186.962 114.882 188.264C103.943 189.139 92.5058 190.177 83.2699 196.102C74.0339 202.027 68.0136 214.521 72.9956 224.298C74.8833 228.003 78.588 231.1 82.7439 230.976C93.9445 230.642 105.145 230.309 116.345 229.975C118.955 229.897 122.526 230.721 122.409 233.329C104.61 232.266 86.7049 232.97 69.0437 235.428C62.7029 236.31 56.1805 237.5 50.8631 241.065C45.5458 244.63 41.7251 251.175 43.214 257.402C44.2416 261.699 47.6079 265.151 51.5007 267.241C55.3935 269.332 59.8 270.237 64.1576 270.969C110.368 278.728 157.775 269.653 204.51 273.043C209.739 273.422 215.4 274.156 219.124 277.846C178.804 270.107 137.224 278.743 96.2137 276.803C87.0856 276.371 77.9913 275.414 68.9031 274.458C61.4644 273.675 53.6707 272.765 47.5341 268.488C44.5815 266.431 42.1065 263.588 40.8713 260.208C37.8115 251.834 43.2112 242.267 50.8199 237.62C58.4286 232.972 67.6615 232.052 76.5405 231.245C69.2837 226.279 67.1261 215.82 70.2658 207.606C73.4054 199.393 80.8731 193.404 89.0577 190.19C97.2423 186.976 106.16 186.199 114.943 185.786C112.353 182.393 109.724 178.931 108.276 174.915C106.828 170.9 106.721 166.17 109.032 162.581C110.638 160.085 113.215 158.395 115.786 156.912C140.381 142.72 170.112 141.072 198.499 141.776C206.212 141.968 214.177 142.367 221.114 145.746C231.876 150.987 238.417 163.104 238.482 175.074C238.547 187.043 232.756 198.593 224.243 207.008C222.876 205.114 224.585 202.596 226.083 200.803C233.018 192.502 236.958 181.434 235.482 170.718C234.007 160.002 226.655 149.979 216.406 146.521C212.123 145.076 207.551 144.77 203.037 144.54C173.683 143.045 142.92 144.581 117.212 158.827C114.047 160.581 110.757 162.794 109.654 166.24Z" fill="#00160A"/>
<path fill-rule="evenodd" clip-rule="evenodd" d="M308.296 372.688C288.038 353.434 264.65 333.943 259.194 306.532C269.207 332.247 291.441 350.759 310.941 370.285C330.441 389.811 348.912 414.167 347.707 441.737C379.591 434.776 412.632 433.145 445.047 436.93C448.37 421.966 458.042 409.368 465.632 396.05C484.446 363.034 490.806 324.599 496.851 287.083C498.38 277.598 486.767 271.976 477.457 269.604C468.159 267.234 458.86 264.865 449.562 262.496C432.087 258.043 413.983 253.559 396.208 256.604C384.189 258.662 372.32 264.139 360.299 262.089C341.165 258.825 320.865 262.958 304.531 273.444C296.319 278.716 289.097 285.879 280.058 289.406C260.486 297.041 249.246 306.289 232.49 327.4C226.176 294.739 236.814 261.314 249.252 230.461C263.155 195.97 280.608 161.074 310.521 138.982C354.379 106.593 418.561 109.897 464.183 139.749C509.806 169.601 537.683 221.828 546.692 275.6C547.74 281.855 548.483 288.624 545.538 294.24C542.594 299.857 534.483 303.106 529.682 298.963C525.59 295.431 521.234 291.768 515.925 290.751C510.615 289.734 504.174 292.493 503.144 297.8C495.605 336.667 487.688 376.521 466.742 410.117C461.288 418.866 454.936 427.22 451.467 436.929C448.813 444.358 447.957 452.289 447.121 460.134C445.378 476.48 443.635 492.826 441.892 509.172C441.158 516.062 440.134 523.564 435.115 528.342C430.322 532.903 423.189 533.723 416.598 534.309C395.195 536.21 373.791 538.111 352.388 540.012C348.56 540.352 344.22 540.525 341.424 537.889C339.27 535.857 338.673 532.711 338.25 529.781C335.243 508.985 335.244 487.757 338.252 466.962C342.568 437.126 329.216 406.6 308.185 385.001C297.225 373.744 284.3 364.543 273.358 353.269C262.416 341.996 253.258 327.826 252.601 312.13C260.047 332.76 273.768 351.079 291.471 364.026C317.928 383.374 336.778 412.852 343.242 444.984C348.324 417.501 328.554 391.943 308.296 372.688ZM353.734 258.297C362.342 259.137 371.357 261.277 379.39 258.073C401.024 249.445 426.118 249.901 447.424 259.31C456.516 263.326 466.752 263.547 476.543 265.261C486.335 266.974 496.671 270.881 501.657 279.481C507.255 289.138 523.707 286.469 530.082 295.631C532.726 299.431 539.23 297.983 541.733 294.089C544.236 290.195 543.899 285.183 543.339 280.588C538.784 243.185 525.086 206.512 501.447 177.17C477.808 147.828 443.897 126.251 406.693 120.285C369.488 114.32 329.344 124.865 301.808 150.585C285.141 166.152 273.582 186.347 263.424 206.767C245.733 242.33 231.252 281.156 234.109 320.773C245.983 306.406 258.881 291.331 276.689 285.83C280.942 284.516 285.601 283.672 288.829 280.607C305.937 264.362 330.253 256.003 353.734 258.297ZM372.762 503.423C372.697 512.974 374.128 522.534 376.987 531.648C377.231 532.426 377.533 533.263 378.225 533.695C378.897 534.114 379.754 534.034 380.541 533.94C390.112 532.795 399.683 531.651 409.254 530.506C409.605 530.464 409.997 530.4 410.207 530.115C410.425 529.82 410.359 529.411 410.282 529.052C408.56 520.955 406.837 512.859 405.114 504.763C405.017 504.307 404.907 503.826 404.585 503.489C404.19 503.075 403.576 502.978 403.009 502.906C393.607 501.716 384.111 501.273 374.639 501.582C374.085 501.601 373.464 501.651 373.1 502.07C372.788 502.429 372.766 502.947 372.762 503.423ZM403.138 469.674C402.823 469.244 402.226 469.158 401.695 469.111C392.045 468.257 382.308 468.397 372.687 469.528C372.129 469.593 371.539 469.676 371.108 470.035C370.401 470.623 370.395 471.686 370.45 472.604C370.771 478.055 371.092 483.505 371.413 488.955C371.492 490.286 372.009 492.042 373.341 491.976C382.777 491.502 392.254 491.848 401.63 493.008C402.92 493.168 403.418 491.387 403.416 490.087C403.405 483.665 403.394 477.242 403.383 470.819C403.382 470.422 403.372 469.995 403.138 469.674ZM343.319 506.703C342.591 507.034 341.845 507.404 341.352 508.034C340.566 509.035 340.6 510.432 340.67 511.703C340.917 516.164 341.164 520.624 341.411 525.085C341.536 527.343 341.669 529.637 342.434 531.765C343.199 533.892 344.702 535.867 346.821 536.654C348.567 537.303 350.5 537.085 352.349 536.857C355.848 536.428 359.347 535.998 362.846 535.568C364.283 535.392 365.771 535.198 367 534.434C363.721 524.474 361.541 514.152 360.514 503.716C360.443 502.985 359.46 502.814 358.727 502.86C353.415 503.195 348.166 504.504 343.319 506.703ZM437.463 494.758C438.499 488.356 439.535 481.953 440.571 475.55C440.662 474.989 440.739 474.362 440.409 473.899C440.074 473.429 439.444 473.301 438.874 473.209C431.289 471.991 423.684 470.891 416.065 469.911C415.493 469.837 414.799 469.815 414.469 470.288C414.272 470.57 414.279 470.941 414.293 471.285C414.569 477.96 414.844 484.635 415.12 491.31C415.145 491.92 415.202 492.601 415.658 493.006C415.98 493.292 416.43 493.372 416.855 493.441C423.252 494.474 429.648 495.507 436.045 496.54C436.883 496.675 437.327 495.596 437.463 494.758ZM370.967 456.987C370.829 457.725 370.782 458.669 371.439 459.031C371.754 459.205 372.137 459.175 372.495 459.141C382.526 458.177 392.556 457.214 402.587 456.25C403.104 456.201 403.651 456.14 404.068 455.83C404.636 455.408 404.81 454.647 404.944 453.952C405.762 449.722 406.579 445.491 407.397 441.261C407.513 440.659 407.584 439.925 407.106 439.542C406.772 439.275 406.299 439.297 405.873 439.333C396.258 440.138 386.642 440.943 377.026 441.748C376.241 441.813 375.421 441.89 374.757 442.314C373.632 443.031 373.293 444.49 373.049 445.801C372.355 449.53 371.661 453.258 370.967 456.987ZM416.158 443.073C415.783 446.74 415.407 450.408 415.031 454.076C414.969 454.68 414.916 455.327 415.21 455.858C415.645 456.643 416.646 456.871 417.531 457.02C425.579 458.376 433.628 459.731 441.676 461.087C442.01 461.143 442.366 461.197 442.677 461.064C443.27 460.809 443.402 460.042 443.445 459.398C443.765 454.665 443.837 449.915 443.66 445.174C443.63 444.357 443.587 443.519 443.254 442.772C442.245 440.506 439.244 440.13 436.763 440.08C430.953 439.961 425.143 439.843 419.333 439.725C418.731 439.713 418.1 439.707 417.566 439.987C416.52 440.535 416.279 441.898 416.158 443.073ZM501.841 287.065C497.688 292.479 496.549 299.547 495.494 306.289C490.158 340.392 483.24 375.284 464.475 404.255C458.046 414.18 450.034 423.979 449.125 435.769C452.665 423.496 462.468 414.207 469.198 403.349C474.135 395.383 477.43 386.522 480.448 377.649C487.732 356.23 493.597 334.329 497.99 312.136C499.569 304.157 501.127 295.764 506.265 289.458C504.52 289.441 502.81 288.515 501.841 287.065ZM357.845 493.247C358.403 493.102 359.001 492.932 359.364 492.484C359.752 492.003 359.77 491.332 359.769 490.714C359.762 484.828 359.754 478.943 359.747 473.058C359.747 472.634 359.734 472.174 359.465 471.846C359.08 471.375 358.367 471.392 357.762 471.458C353.092 471.969 348.467 472.888 343.957 474.202C343.428 474.356 342.874 474.532 342.498 474.935C342.066 475.398 341.955 476.067 341.869 476.694C340.992 483.048 340.642 489.475 340.823 495.887C340.838 496.41 340.914 497.03 341.379 497.27C341.7 497.437 342.088 497.349 342.438 497.258C347.574 495.921 352.71 494.584 357.845 493.247ZM433.063 524.952C436.464 520.863 436.494 515.029 436.354 509.713C436.327 508.678 435.109 508.165 434.104 507.917C428.73 506.592 423.27 505.613 417.77 504.989C417.289 504.934 416.761 504.893 416.36 505.164C415.747 505.579 415.753 506.467 415.833 507.203C416.578 514.067 418.003 520.857 420.081 527.441C420.322 528.206 420.639 529.047 421.364 529.391C421.754 529.576 422.203 529.582 422.634 529.57C426.551 529.457 430.557 527.964 433.063 524.952ZM350.886 445.788C349.55 446.172 348.187 446.623 347.135 447.532C346.136 448.394 345.501 449.601 345.007 450.825C343.437 454.711 343.08 458.964 342.74 463.142C342.714 463.461 342.697 463.813 342.892 464.067C343.184 464.448 343.763 464.397 344.235 464.309C348.306 463.546 352.376 462.783 356.447 462.019C357.606 461.802 358.889 461.507 359.547 460.528C359.994 459.862 360.05 459.017 360.091 458.216C360.341 453.407 360.59 448.597 360.839 443.788C357.474 444.182 354.142 444.851 350.886 445.788ZM373.738 466.381C382.628 465.419 391.609 465.3 400.521 466.028C401.532 466.111 402.642 466.178 403.461 465.58C404.743 464.642 404.57 462.711 404.264 461.152C404.184 460.745 404.092 460.315 403.807 460.014C403.353 459.533 402.596 459.553 401.937 459.609C393.04 460.355 384.143 461.101 375.247 461.847C374.019 461.95 372.709 462.085 371.756 462.865C370.803 463.646 370.495 465.319 371.476 466.062C372.099 466.534 372.962 466.465 373.738 466.381ZM441.472 465.674C440.403 464.581 438.794 464.261 437.289 463.993C430.631 462.81 423.973 461.627 417.315 460.444C416.446 460.29 415.379 460.209 414.856 460.92C414.628 461.23 414.565 461.627 414.508 462.008C414.225 463.902 414.458 466.54 416.357 466.79C423.925 467.787 431.493 468.784 439.062 469.781C439.812 469.88 440.618 469.97 441.288 469.618C442.642 468.908 442.541 466.767 441.472 465.674ZM364.772 503.236C364.321 504.475 364.547 505.845 364.781 507.142C366.215 515.074 367.774 522.985 369.558 530.846C369.799 531.905 370.065 533.008 370.769 533.835C371.473 534.662 372.757 535.104 373.674 534.523C375.053 533.65 374.544 531.561 373.951 530.04C370.889 522.187 370.019 513.663 369.596 505.244C369.522 503.766 369.237 501.962 367.848 501.452C366.611 500.997 365.223 501.997 364.772 503.236ZM435.699 504.699C437.312 504.084 436.197 501.334 437.35 500.05C430.657 498.381 423.833 497.236 416.962 496.629C415.341 496.486 414.59 498.929 415.555 500.239C416.52 501.548 418.284 501.921 419.887 502.198C421.332 502.448 422.777 502.698 424.222 502.948C427.615 503.535 431.007 504.121 434.399 504.708C434.832 504.783 435.289 504.855 435.699 504.699ZM375.315 498.682C383.622 498.195 391.975 498.508 400.221 499.614C401.868 499.835 404.154 499.641 404.375 497.994C404.603 496.289 402.305 495.54 400.588 495.455C392.242 495.04 383.879 494.981 375.529 495.28C374.05 495.333 372.022 496.083 372.412 497.511C372.711 498.605 374.183 498.749 375.315 498.682ZM407.206 470.681C406.816 471.494 406.806 472.431 406.802 473.332C406.784 478.42 406.766 483.507 406.748 488.594C406.744 489.722 406.749 490.893 407.223 491.917C407.697 492.941 408.783 493.774 409.894 493.578C411.738 493.252 412.079 490.783 411.977 488.914C411.681 483.502 411.385 478.089 411.09 472.677C411.017 471.346 410.669 469.673 409.364 469.401C408.481 469.217 407.596 469.867 407.206 470.681ZM412.882 505.881C412.513 504.816 411.66 503.835 410.543 503.681C409.427 503.527 408.196 504.529 408.41 505.635C409.718 512.372 411.027 519.109 412.335 525.845C412.641 527.423 413.063 529.178 414.424 530.033C415.785 530.888 418.151 529.742 417.642 528.217C415.576 522.033 413.494 515.74 413.275 509.224C413.237 508.098 413.251 506.945 412.882 505.881ZM367.354 491.509C367.961 490.424 367.913 489.106 367.848 487.864C367.622 483.53 367.396 479.197 367.171 474.864C367.1 473.518 366.983 472.054 366.073 471.06C365.162 470.066 363.165 470.058 362.728 471.333C362.611 471.672 362.623 472.039 362.635 472.397C362.842 478.195 363.049 483.992 363.255 489.79C363.291 490.795 363.4 491.946 364.216 492.535C365.223 493.263 366.746 492.594 367.354 491.509ZM364.237 444.087C363.085 445.679 363.033 447.787 363.026 449.751C363.016 452.458 363.006 455.164 362.996 457.871C362.991 459.322 363.522 461.303 364.966 461.162C366.096 461.052 366.547 459.671 366.735 458.552C367.579 453.527 368.423 448.502 369.267 443.477C368.083 441.91 365.388 442.496 364.237 444.087ZM356.314 500.541C357.503 500.435 358.828 500.333 359.63 499.45C360.433 498.567 359.932 496.684 358.749 496.846C355.1 497.346 351.45 497.846 347.8 498.346C345.907 498.606 343.898 498.916 342.456 500.169C341.014 501.422 340.537 503.969 342.013 505.182C346.351 502.589 351.28 500.99 356.314 500.541ZM343.009 467.861C341.918 468.9 341.723 470.989 343.013 471.767C347.191 470.372 351.519 469.425 355.898 468.947C356.977 468.829 358.122 468.716 358.986 468.06C359.851 467.404 360.232 465.986 359.45 465.234C358.833 464.64 357.851 464.727 357.005 464.854C353.73 465.345 350.455 465.836 347.18 466.327C345.691 466.55 344.1 466.821 343.009 467.861ZM411.275 439.895C410.89 440.306 410.773 440.893 410.672 441.448C409.903 445.678 409.134 449.908 408.365 454.138C408.226 454.903 408.14 455.827 408.736 456.325C409.345 456.833 410.339 456.521 410.82 455.889C411.301 455.257 411.406 454.426 411.494 453.637C411.971 449.397 412.448 445.156 412.924 440.916C412.967 440.535 412.998 440.109 412.761 439.808C412.412 439.366 411.66 439.484 411.275 439.895ZM409.837 495.919C408.237 495.724 406.685 497.768 407.683 499.034C408.381 499.92 409.2 500.824 410.302 501.065C411.403 501.306 412.773 500.504 412.667 499.381C412.516 497.776 411.437 496.115 409.837 495.919ZM410.47 463.446C411.01 462.15 411.139 460.077 409.745 459.915C409.2 459.851 408.684 460.186 408.31 460.588C406.573 462.453 407.471 466.014 409.884 466.834C410.658 465.941 410.931 464.64 410.58 463.512C410.196 462.277 409.974 464.64 410.47 463.446ZM367.266 465.82C366.941 464.626 365.95 463.503 364.712 463.491C363.109 463.475 362.059 465.752 363.113 466.961C364.167 468.17 366.566 467.442 366.769 465.851C366.949 464.441 367.639 467.191 367.266 465.82ZM368.244 498.637C368.625 498.313 368.898 497.865 369.012 497.378C367.956 496.198 366.106 495.816 364.669 496.481C364.351 496.629 364.043 496.832 363.862 497.132C363.345 497.992 364.203 499.148 365.193 499.312C366.183 499.476 367.153 498.993 368.041 498.525L368.244 498.637Z" fill="#00160A"/>
</svg>
