<svg width="750" height="750" viewBox="0 0 750 750" fill="none" xmlns="http://www.w3.org/2000/svg">
<rect width="750" height="750" fill="none"/>
<path fill-rule="evenodd" clip-rule="evenodd" d="M375 89.0019C280.436 88.9807 120.52 129.043 119 187.458L120.52 377.29C133.859 522.352 234.994 644.244 375 684C515.006 644.244 616.141 522.352 629.48 377.29L631 187.458C630.783 141.766 469.564 88.9807 375 89.0019Z" />
<path fill-rule="evenodd" clip-rule="evenodd" d="M370.598 528.161L370.604 528.125C369.343 536.482 364.533 543.578 356.176 549.412C346.715 555.877 334.889 577.4 356.176 577.4C361.762 577.4 374.862 574.905 379.119 570.226C380.381 568.965 381.642 566.126 382.903 561.711C384.323 557.612 385.821 554.852 387.397 553.433C389.605 561.948 390.476 580.828 384.011 594.073C377.704 606.845 375.654 616.543 377.862 623.166C384.169 626.792 397.099 624.792 416.651 621.166C420.593 578.749 421.54 515.344 416.651 439.815C429.581 436.976 434.387 434.147 439.905 434.462C448.42 434.777 466.009 437.157 471.212 444.095C494.234 474.212 506.907 494.618 510.692 502.817C512.269 506.602 517.314 525.752 525.829 558.55C525.514 561.231 526.302 589.119 525.829 591.641C536.928 614.111 547.826 607.376 560.362 607.376C559.731 602.488 557.996 587.729 552.32 580.16C546.013 572.118 549.087 558.164 547.826 553.433C547.037 549.964 546.328 544.524 545.697 537.113C545.224 529.229 544.593 523.474 543.805 519.847C532.61 469.389 521.572 428.155 510.692 396.145C515.75 397.47 531.219 404.192 542.019 403.565C559.499 402.55 577.903 397.47 575.191 388.969C574.245 384.396 571.564 381.873 567.149 381.4C566.361 381.243 564.311 381.164 561 381.164C558.319 381.164 556.111 380.927 554.377 380.454C547.415 378.771 537.884 382.191 530.268 380.454C511.492 376.173 494.78 365.896 487.039 355.464C474.898 338.907 457.093 329.525 453.624 327.317C446.843 322.902 446.831 318.96 433.585 315.491C415.61 310.761 369.99 268.469 365.102 263.896C359.74 258.85 356.823 254.435 356.35 250.651C355.877 245.763 358.006 236.933 362.736 224.16C366.836 212.807 367.467 203.819 364.629 197.197C364.471 200.193 364.16 177.802 358.168 169.287C356.275 166.449 353.516 162.822 349.889 158.407C345.474 153.046 342.636 149.577 341.374 148C336.486 149.419 332.229 153.992 328.602 161.718C324.66 170.391 321.112 175.673 317.959 177.565C317.07 177.36 309.088 173.894 303.737 172.715C296.741 171.173 289.036 171.668 288.232 169.524C286.97 165.739 285.945 162.98 285.157 161.245C282.319 155.253 278.455 152.257 273.567 152.257C268.048 152.257 261.268 155.102 257.011 164.248C256.222 165.982 252.123 172.167 246.131 189.355C237.616 213.638 236.512 235.513 237.616 244.974C241.085 274.619 245.658 293.383 251.334 301.267C251.965 301.897 253.857 302.607 257.011 303.395C259.534 304.026 260.874 305.209 261.032 306.943C259.77 312.305 245.641 325.031 242.645 335.123C239.492 345.53 237.284 353.335 236.023 358.538C231.45 376.829 230.267 393.544 232.475 408.681C233.894 418.3 234.682 433.358 234.84 453.857C234.998 475.617 235.629 491.464 236.732 501.398C237.205 506.129 238.23 512.436 239.807 520.32C241.857 529.939 243.118 536.325 243.591 539.478C245.957 554.616 245.484 567.703 242.172 578.741C234.761 588.202 224.681 602.077 222 616.899C222 628.146 252.842 631.541 267.805 614.736C271.437 610.658 273.845 586.58 271.322 565.766C270.06 554.255 272.999 534.354 275.049 513.697C277.257 490.676 280.591 475.061 280.433 468.439C279.96 453.459 286.182 429.169 291.543 426.646C312.042 439.261 355.624 450.388 357.832 451.492C359.724 452.596 360.828 453.778 361.143 455.04C367.17 504.18 370.319 528.56 370.591 528.179L370.598 528.161Z" fill="white"/>
<path fill-rule="evenodd" clip-rule="evenodd" d="M283.237 337.525C281.168 338.725 278.329 331.706 279.567 328.503C283.928 317.221 288.05 320.354 287.328 325.868C286.607 331.369 287.328 335.153 283.237 337.525Z" fill="#FFB61D"/>
<path fill-rule="evenodd" clip-rule="evenodd" d="M347.352 140.715C346.585 138.99 345.817 137.264 344.992 135.577C343.189 131.89 338.32 130.748 335.671 133.383C334.106 134.94 332.552 136.511 330.999 138.081L330.999 138.082L330.999 138.082L330.999 138.082L330.999 138.082L330.999 138.082L330.999 138.082L330.999 138.082L330.998 138.082L330.998 138.083L330.997 138.084C327.605 141.513 324.214 144.943 320.694 148.235L320.195 148.707C315.728 152.974 312.022 157.729 309.54 163.406C309.341 163.862 309.381 164.423 309.421 164.983C309.44 165.243 309.458 165.503 309.453 165.753C309.723 165.719 310.02 165.715 310.317 165.711C310.972 165.703 311.627 165.694 311.994 165.365C312.689 164.741 313.245 163.968 313.803 163.192L313.803 163.192L313.803 163.192L313.803 163.192L313.803 163.192L313.803 163.192C314.154 162.705 314.505 162.218 314.891 161.765C318.959 157.002 323.05 152.259 327.171 147.542C327.363 147.323 327.706 147.235 328.048 147.147C328.208 147.106 328.367 147.065 328.511 147.011C328.502 147.183 328.504 147.358 328.505 147.533V147.533C328.508 147.913 328.511 148.292 328.41 148.642C328.149 149.544 327.85 150.439 327.55 151.334C326.989 153.013 326.427 154.69 326.123 156.414C325.315 160.984 324.727 165.608 324.397 170.235C324.347 170.936 325.323 171.775 326.209 172.462L326.804 172.918C326.962 173.039 328.502 172.022 328.677 171.343C329.096 169.722 329.419 168.077 329.741 166.432L329.741 166.431C330.064 164.786 330.387 163.141 330.805 161.521C331.007 160.741 331.205 159.96 331.403 159.18L331.403 159.18C333.077 152.583 334.746 146.005 338.449 140.049C340.208 137.219 341.206 138.155 342.221 139.965L343.747 142.701C345.645 146.126 347.517 149.575 349.405 153.054L349.406 153.055L349.415 153.072C351.048 156.081 352.693 159.113 354.379 162.171C355.073 163.661 355.788 165.124 356.498 166.576C358.416 170.502 360.293 174.342 361.597 178.368C363.215 183.362 364.96 188.903 364.317 193.903C363.46 200.57 358.116 215.18 358.116 215.18C351.934 235.965 321.957 275.503 309.476 283.198C298.024 290.258 285.621 294.802 271.978 295.334C264.319 295.633 257.809 292.664 251.516 288.806L250.619 288.249C245.551 285.068 242.265 281.04 241.795 274.81C241.435 270.026 240.978 265.248 240.521 260.47L240.521 260.469L240.521 260.469L240.521 260.469L240.521 260.469L240.521 260.469L240.521 260.469L240.521 260.468L240.521 260.468L240.521 260.468L240.521 260.468C239.765 252.568 239.01 244.669 238.69 236.752C238.343 228.196 238.95 219.521 240.024 211.012C240.982 203.431 242.621 195.919 244.329 188.446L245.063 185.245C249.011 168.058 258.419 154.183 271.627 142.743C276.361 138.642 280.37 139.319 283.421 144.803C284.72 147.138 285.96 149.506 287.199 151.875C288.466 154.295 289.733 156.716 291.063 159.101C291.389 159.685 292.035 160.09 292.68 160.495C292.978 160.682 293.276 160.869 293.543 161.074C293.557 160.752 293.607 160.415 293.657 160.078C293.766 159.348 293.874 158.618 293.623 158.046L293.215 157.117L293.215 157.117C291.147 152.399 289.074 147.671 286.666 143.124C283.14 136.465 276.508 133.309 269.442 138.628C260.528 145.338 253.354 153.722 247.861 163.26C245.049 168.143 243.248 173.643 241.462 179.094L241.462 179.094L241.462 179.094C241.094 180.217 240.727 181.338 240.352 182.451L239.994 183.525C236.692 193.561 234.448 203.865 233.712 214.431C233.478 217.786 233.566 221.165 233.654 224.542L233.654 224.542C233.682 225.604 233.71 226.665 233.727 227.725C233.755 229.4 233.773 231.075 233.791 232.751V232.751V232.751C233.845 237.809 233.9 242.869 234.229 247.909C234.49 251.91 234.9 255.902 235.309 259.893C235.794 264.615 236.278 269.336 236.517 274.071L236.544 274.526C237.554 289.475 250.87 297.73 262.179 300.515C271.98 302.929 282.511 302.368 292.594 298.486C304.094 294.878 313.527 288.038 322.422 280.784C333.923 271.405 362.91 223.056 367.896 205.828C370.869 195.556 370.364 185.9 366.378 176.08C362.839 167.362 358.2 159.37 352.953 151.579C350.693 148.222 349.023 144.469 347.352 140.715ZM234.961 400.357L234.961 400.356C234.652 393.955 234.341 387.525 234.896 381.186C235.903 369.686 238.608 358.504 243.856 348.031C245.988 343.776 247.738 339.262 249.085 334.696C250.781 328.949 254.386 324.557 258.015 320.135C258.649 319.363 259.283 318.59 259.908 317.809C262.79 314.207 265.542 310.482 268.097 306.643C269.374 304.725 269.919 304.449 271.216 306.592C276.609 315.504 288.978 317.498 297.799 311.925C312.234 302.806 324.664 291.33 337.094 279.854L337.907 279.104C343.746 273.714 348.958 267.595 351.592 259.78C351.881 258.922 352.535 258.118 353.199 257.474C353.674 257.014 354.255 256.662 354.836 256.311C355.091 256.157 355.345 256.004 355.59 255.841C355.571 256.118 355.565 256.398 355.558 256.678C355.544 257.281 355.531 257.884 355.386 258.454C353.134 267.345 347.931 274.505 341.628 280.849C334.013 288.513 326.372 296.197 318.21 303.257C312.29 308.377 305.639 312.707 299.032 316.95C296.866 318.341 294.105 318.909 291.459 319.454C291.109 319.526 290.761 319.598 290.416 319.671C288.368 320.105 287.741 321.011 287.67 323.009C287.647 323.672 287.64 324.341 287.633 325.012C287.593 328.725 287.552 332.481 284.757 335.495C283.548 336.798 282.014 337.86 280.466 338.748C280.013 339.008 278.641 338.517 278.296 337.981C274.915 332.723 273.33 327.118 278.445 322.092C280.302 320.267 278.223 319.353 277.674 319.185C274.879 318.33 273.345 316.261 271.793 314.167L271.792 314.167L271.792 314.167L271.792 314.166L271.792 314.166L271.792 314.166L271.792 314.166L271.792 314.166L271.792 314.166L271.792 314.166L271.791 314.165L271.791 314.165C271.465 313.725 271.138 313.284 270.798 312.853C270.455 312.417 268.861 312.241 268.677 312.512C267.026 314.934 265.273 317.292 263.519 319.649L263.519 319.649L263.519 319.649L263.518 319.649L263.518 319.649L263.518 319.65L263.518 319.65L263.518 319.65L263.518 319.65L263.518 319.65L263.518 319.65L263.518 319.651C259.033 325.679 254.547 331.708 251.784 338.832C251.078 340.654 250.364 342.473 249.65 344.293C247.509 349.749 245.368 355.206 243.424 360.732C239.15 372.885 238.275 385.47 239.133 398.248C239.25 399.991 239.373 401.735 239.495 403.479C240.018 410.918 240.541 418.362 240.646 425.809C240.78 435.389 240.397 444.987 239.926 454.562C239.709 458.978 239.284 463.383 238.859 467.788C238.592 470.551 238.325 473.314 238.11 476.08C237.241 487.235 239.073 498.148 241.03 509.072C241.804 513.394 242.242 517.779 242.679 522.161C242.799 523.36 242.919 524.559 243.045 525.756C244.399 538.558 245.565 551.434 243.925 564.231C243.642 566.445 243.473 568.693 243.304 570.944C242.769 578.061 242.231 585.222 238.056 591.517C236.657 593.626 235.01 595.728 233.035 597.263C232.087 597.999 231.257 598.532 230.497 599.021C227.816 600.744 225.992 601.916 222.83 609.528C219.5 617.545 223.192 620.37 225.563 622.184C226.082 622.581 226.538 622.93 226.843 623.274C226.081 624.671 222.047 624.384 220.523 623.274C215.696 619.76 215.696 613.367 217.737 607.666C219.98 601.4 222.949 596.065 229.035 593.704C235.056 591.368 236.932 586.297 237.766 580.971C239.214 571.726 240.564 562.366 240.676 553.039C240.77 545.268 239.873 537.469 238.98 529.698L238.98 529.697C238.814 528.258 238.649 526.819 238.49 525.382C237.261 514.274 235.979 503.154 234.14 492.136C232.839 484.336 233.388 476.609 233.936 468.886C234.114 466.384 234.292 463.882 234.406 461.378C234.735 454.196 235.301 447.025 235.866 439.853C236.233 435.206 236.599 430.559 236.902 425.908C237.025 424.014 236.922 422.106 236.813 420.093C236.755 419.015 236.695 417.907 236.668 416.756C236.48 415.132 236.252 413.559 236.027 412.017C235.63 409.283 235.247 406.647 235.132 403.999C235.079 402.789 235.02 401.577 234.962 400.364L234.962 400.363L234.962 400.362L234.962 400.362L234.962 400.361L234.961 400.36L234.961 400.36L234.961 400.359L234.961 400.358L234.961 400.358L234.961 400.357ZM281.844 334.037C283.755 332.229 283.753 329.945 283.751 327.657C283.749 325.869 283.747 324.079 284.657 322.508C284.798 322.264 284.148 321.166 283.771 321.111C283.198 321.027 282.238 321.331 281.976 321.781C281.256 323.018 280.639 324.314 280.022 325.61C279.74 326.202 279.458 326.794 279.166 327.381C277.628 330.472 278.851 332.654 281.844 334.037ZM388.089 593.993C389.618 590.585 390.864 586.837 391.196 583.148C392.041 573.752 392.691 564.302 392.693 554.874C392.695 547.33 392.328 539.786 391.96 532.241L391.96 532.241L391.959 532.237L391.959 532.232C391.793 528.83 391.628 525.427 391.496 522.025C391.427 520.246 391.377 518.467 391.327 516.688V516.687V516.687V516.686C391.292 515.414 391.256 514.142 391.214 512.87C390.593 494.328 384.921 477.284 375.52 461.462C374.582 459.882 371.546 458.462 369.704 458.697C363.806 459.452 358.208 458.416 352.544 457.368L352.541 457.367L352.536 457.366C351.533 457.181 350.529 456.995 349.52 456.818C340.702 455.277 332.212 452.858 324.475 448.489C318.036 444.853 311.903 440.651 305.788 436.461L305.788 436.461L305.788 436.461L305.787 436.46C305.223 436.073 304.659 435.687 304.094 435.301C299.496 432.155 294.948 428.868 290.776 425.191C288.358 423.06 287.077 424.237 286.16 426.036C282.153 433.893 278.391 441.912 277.282 450.776C275.692 463.476 274.14 476.192 273.035 488.941C271.916 501.873 271.098 514.832 270.281 527.79C270.122 530.309 269.963 532.829 269.801 535.348C269.204 544.687 268.75 554.035 268.329 563.384C267.996 570.76 268.512 577.96 269.867 585.355C271.505 594.289 271.694 603.965 267.82 612.521C264.368 620.146 257.89 625.155 249.178 626.095C244.17 626.635 240.566 621.239 243.281 616.929C244.681 614.708 246.931 612.997 249.144 611.314C249.755 610.849 250.363 610.387 250.949 609.917C251.314 609.624 252.024 609.763 252.735 609.902L252.736 609.902C253.063 609.966 253.391 610.03 253.685 610.051C253.577 610.313 253.484 610.587 253.39 610.86C253.184 611.466 252.978 612.071 252.611 612.554C252.219 613.071 251.739 613.541 251.261 614.009C250.493 614.761 249.734 615.505 249.365 616.417C248.877 617.624 249.1 619.569 249.818 620.647C250.263 621.315 252.583 621.544 253.441 620.997C258.899 617.515 263.617 613.39 264.591 606.369C264.746 605.256 265.097 604.148 265.447 603.047C265.943 601.484 266.434 599.934 266.352 598.4C266.084 593.414 265.537 588.443 264.989 583.472L264.989 583.472C264.723 581.064 264.458 578.656 264.224 576.247L264.188 575.871L264.188 575.871C263.909 572.994 263.628 570.106 263.602 567.221C263.517 557.724 263.468 548.225 263.575 538.728L263.593 537.177C263.748 523.419 263.903 509.657 264.353 495.907C264.55 489.888 265.206 483.879 265.861 477.88C265.96 476.967 266.06 476.054 266.158 475.141C266.891 468.322 267.684 461.501 268.75 454.729C270.558 443.247 273.766 432.195 279.803 422.132C280.775 420.513 280.431 417.723 276.138 418.11C273.95 418.307 270.063 419.069 266.654 419.736L266.654 419.736L266.654 419.736L266.653 419.736L266.653 419.737L266.652 419.737L266.648 419.737C263.376 420.378 260.547 420.933 260.088 420.817C260.538 420.054 269.353 416.094 273.384 415.757C283.162 414.94 290.967 419.759 298.606 425.187C299.245 425.642 299.885 426.097 300.524 426.553L300.525 426.554C310.369 433.566 320.243 440.6 331.841 444.625C340.001 447.458 348.274 449.784 356.97 450.324C358.629 450.427 360.277 450.692 361.926 450.957L361.927 450.957C363.049 451.137 364.172 451.318 365.298 451.447C365.722 451.496 366.169 451.344 366.615 451.192C366.821 451.122 367.026 451.052 367.23 451.002C367.14 450.841 367.056 450.675 366.973 450.509C366.789 450.143 366.605 449.777 366.352 449.469C365.554 448.497 364.729 447.536 363.84 446.65C345.16 428.022 330.588 402.444 330.713 401.429C331.099 401.684 333.063 404.237 335.472 407.371L335.472 407.371C338.334 411.094 341.826 415.635 344.048 418.11C353.455 428.582 363.212 438.748 373.043 448.828C384.286 460.355 391.161 474.13 394.66 489.673C396.453 497.639 397.851 505.646 397.293 513.95C396.887 519.987 396.812 526.048 396.737 532.107V532.108C396.705 534.637 396.674 537.166 396.618 539.693C396.588 541.095 396.556 542.498 396.525 543.901L396.525 543.906C396.378 550.456 396.231 557.005 396.148 563.556L396.147 563.598L396.146 563.708C396.131 565.486 396.026 577.487 392.693 589.334C390.061 598.694 385.017 607.984 383.034 611.635C382.644 612.355 382.372 612.855 382.261 613.094C380.847 616.137 380.947 618.112 383.674 618.459C385.986 618.754 388.923 618.427 389.673 614.729L389.714 614.526C389.91 613.551 390.117 612.521 390.634 611.723C390.937 611.255 391.496 610.954 392.055 610.653L392.055 610.653L392.055 610.652C392.304 610.519 392.552 610.385 392.777 610.237C392.834 610.381 392.708 610.886 392.532 611.591L392.531 611.591C391.889 614.159 390.582 619.376 395.072 619.433C399.627 619.49 399.377 616.892 399.22 615.264C399.195 615.002 399.172 614.765 399.172 614.568V614.524C399.172 613.104 399.172 611.004 400.36 610.81C403.005 610.378 403.128 612.934 403.216 614.775L403.217 614.791C403.239 615.249 403.226 615.707 403.214 616.159V616.159V616.16C403.161 618.07 403.111 619.859 405.698 620.969C408.544 622.19 410.652 621.365 412.488 619.499C414.428 617.527 413.875 615.383 412.055 613.555C408.335 609.815 408.484 604.894 408.682 600.357C409.08 591.21 409.823 582.077 410.566 572.945C410.764 570.507 410.962 568.07 411.154 565.632C411.426 562.18 411.751 558.733 412.076 555.286L412.076 555.285L412.076 555.285L412.076 555.284L412.076 555.284L412.076 555.283L412.077 555.282L412.077 555.282L412.077 555.281L412.077 555.281L412.077 555.28L412.077 555.277C412.369 552.184 412.661 549.091 412.914 545.994C413.293 541.352 413.648 536.707 414.003 532.062C414.417 526.641 414.831 521.22 415.284 515.802C415.421 514.164 415.646 512.529 415.871 510.896C416.207 508.457 416.542 506.02 416.584 503.576C416.648 499.904 416.48 496.229 416.313 492.553V492.552V492.552V492.552V492.552V492.551V492.551V492.551V492.55V492.55V492.55V492.55C416.217 490.456 416.122 488.363 416.069 486.269C416.026 484.536 416.032 482.8 416.038 481.065C416.046 478.614 416.055 476.165 415.923 473.722C415.804 471.515 415.732 469.296 415.66 467.076V467.076C415.457 460.804 415.253 454.523 413.991 448.468C413.055 443.975 409.835 435.541 407.597 429.677C406.315 426.321 405.356 423.807 405.33 423.357C406.256 424.098 413.126 435.138 415.323 440.056L415.366 440.151C417.463 444.846 417.572 445.09 422.146 443.099C431.008 439.24 440.213 436.665 449.806 435.518C450.468 435.439 451.144 435.506 451.823 435.572C452.408 435.629 452.994 435.687 453.572 435.651C454.204 435.612 454.826 435.416 455.449 435.22C455.726 435.133 456.004 435.046 456.282 434.972C456.09 434.734 455.911 434.475 455.733 434.216C455.345 433.652 454.957 433.088 454.427 432.746C452.852 431.731 451.243 430.772 449.633 429.812L449.632 429.812L449.632 429.811L449.631 429.811L449.63 429.81L449.629 429.81L449.629 429.809L449.628 429.809L449.627 429.809L449.626 429.808L449.625 429.808L449.624 429.807C448.024 428.853 446.424 427.899 444.858 426.892C441.667 424.838 439.703 423.461 437.037 421.591L437.036 421.59L437.035 421.589C436.399 421.143 435.723 420.669 434.98 420.151C434.47 419.795 432.51 417.772 432.198 417.131C432.866 416.927 453.15 423.707 459.69 431.895C465.374 439.012 470.719 446.417 475.935 453.889C482.465 463.242 488.781 472.746 495.054 482.274C495.546 483.021 496.039 483.768 496.531 484.515C501.692 492.346 506.857 500.183 511.644 508.24L512.171 509.126L512.171 509.127C516.382 516.21 520.646 523.383 523.628 531.005C527.813 541.701 531.347 552.704 531.558 564.497C531.616 567.685 532.087 570.862 532.559 574.042L532.559 574.042C532.947 576.654 533.334 579.268 533.493 581.891C533.87 588.121 532.443 594.114 530.218 599.989C529.789 601.122 530.348 602.662 530.879 604.122L530.88 604.123C531.039 604.561 531.195 604.991 531.322 605.402C531.402 605.662 532.653 605.729 533.314 605.612C535.671 605.193 536.169 603.555 536.424 601.356C536.634 599.538 537.398 597.764 538.142 596.035C538.236 595.816 538.33 595.599 538.422 595.381C538.601 594.96 539.802 594.531 540.171 594.741C540.67 595.025 541.053 595.914 541.073 596.557C541.094 597.211 541.026 597.876 540.958 598.539L540.958 598.539V598.54C540.856 599.53 540.755 600.514 540.954 601.439C541.287 602.99 542.188 604.523 543.202 605.77C543.566 606.218 545.71 606.033 545.793 605.759C546.119 604.68 546.195 603.523 546.27 602.37L546.27 602.368L546.27 602.366L546.271 602.363C546.29 602.06 546.31 601.757 546.335 601.455C546.348 601.286 546.313 601.112 546.278 600.939C546.24 600.755 546.203 600.571 546.225 600.394C546.391 599.026 546.58 597.66 546.769 596.294L546.769 596.293L546.769 596.292L546.769 596.292L546.769 596.291L546.769 596.29L546.769 596.289L546.776 596.244C546.839 595.787 546.902 595.329 546.964 594.871C547.248 595.207 547.532 595.543 547.816 595.878C548.813 597.057 549.81 598.236 550.788 599.43C550.852 599.507 550.85 599.643 550.847 599.776C550.845 599.912 550.843 600.046 550.911 600.112C551.222 600.416 551.526 600.742 551.83 601.068L551.831 601.068L551.831 601.069L551.832 601.069L551.832 601.069L551.832 601.07L551.833 601.07L551.833 601.07L551.833 601.071C552.707 602.007 553.586 602.949 554.667 603.41C555.219 603.645 557.359 601.943 557.503 600.941C557.729 599.361 557.421 597.101 556.396 596.049C551.649 591.184 548.526 585.407 547.073 578.953C546.342 575.706 546.067 572.362 545.791 569.014C545.614 566.866 545.437 564.716 545.14 562.589C545.004 561.617 544.868 560.645 544.732 559.672C543.312 549.496 541.891 539.315 540.145 529.193C538.843 521.644 537.339 514.13 535.836 506.615C535.079 502.83 534.321 499.045 533.59 495.255C533.486 494.718 533.569 494.132 533.649 493.57L533.65 493.562L533.656 493.516C533.663 493.469 533.67 493.421 533.676 493.374C535.183 482.389 533.102 471.685 530.572 461.148L530.13 459.307C526.902 445.855 523.662 432.348 519.183 419.294C516.508 411.495 512.894 404.019 509.279 396.543C507.698 393.272 506.117 390.001 504.614 386.703C504.049 385.463 503.498 384.217 502.947 382.97C501.56 379.834 500.173 376.697 498.572 373.674L498.094 372.77C494.5 365.981 490.898 359.174 486.808 352.685C481.714 344.603 475.548 337.207 467.441 332.043C460.89 327.87 453.848 324.356 446.73 321.214C438.868 317.743 430.857 314.61 422.848 311.477L422.839 311.473C420.43 310.531 418.022 309.589 415.618 308.638C414.001 307.998 412.356 307.427 410.711 306.857L410.711 306.857C408.819 306.201 406.928 305.545 405.08 304.784C404.518 304.553 404.129 303.903 403.739 303.253C403.56 302.954 403.381 302.655 403.185 302.397C403.471 302.391 403.762 302.365 404.054 302.338C404.679 302.281 405.305 302.223 405.876 302.374C421.31 306.453 435.889 312.749 450.482 319.051C452.726 320.02 454.969 320.989 457.216 321.949C468.55 326.796 478.191 333.671 485.595 343.389C490.22 349.458 494.684 355.84 497.988 362.677C501.628 370.211 507.838 374.306 514.715 377.497C522.778 381.239 531.296 384.23 540.446 383.452C545.603 383.014 550.73 382.158 555.846 381.305L556.272 381.233L557.024 381.108L557.7 380.996C563.733 379.997 571.421 383.494 570.118 390.059C569.297 394.196 566.271 396.246 562.782 397.18C561.493 397.525 560.203 397.887 558.912 398.249C550.994 400.47 543.014 402.709 534.663 401.265C530.592 400.561 526.597 399.417 522.602 398.272C520.668 397.719 518.734 397.165 516.791 396.66C516.253 396.521 515.691 396.473 515.129 396.426L515.129 396.425L515.128 396.425L515.128 396.425L515.127 396.425L515.127 396.425L515.126 396.425L515.126 396.425L515.125 396.425L515.124 396.425L515.124 396.425C514.863 396.402 514.601 396.38 514.342 396.349C514.414 396.551 514.48 396.756 514.546 396.961C514.688 397.4 514.83 397.84 515.029 398.252C522.575 413.874 528.217 430.128 531.583 447.174C532.259 450.599 533.049 454.001 533.838 457.404L533.839 457.406C534.824 461.653 535.81 465.899 536.574 470.186C537.233 473.887 537.569 477.644 537.906 481.403L537.906 481.403L537.906 481.404L537.906 481.404L537.906 481.405L537.906 481.405L537.906 481.406L537.906 481.406L537.906 481.407L537.906 481.408L537.906 481.408L537.907 481.409C538.093 483.492 538.279 485.576 538.52 487.651C538.645 488.72 538.767 489.79 538.888 490.86L538.89 490.874V490.875C539.426 495.596 539.963 500.321 540.751 505.001C541.644 510.312 542.613 515.611 543.581 520.91C544.987 528.6 546.392 536.29 547.568 544.016C548.328 549.007 548.748 554.048 549.169 559.091L549.169 559.092L549.169 559.095C549.456 562.538 549.743 565.981 550.138 569.41C551.197 578.597 553.184 587.459 560.067 594.402C562.607 596.964 562.916 601.463 561.124 604.502C559.158 607.835 556.059 608.972 551.815 608.004C550.968 607.811 549.921 607.578 549.203 607.897C545.528 609.531 542.002 610.839 538.519 607.382C538.237 607.101 536.578 607.962 535.728 608.54C530.075 612.382 525.234 608.581 524.988 602.683C524.899 600.556 525.339 598.286 526.062 596.269C528.971 588.152 528.912 579.851 528.076 571.451C527.883 569.512 527.75 567.563 527.616 565.614C527.38 562.161 527.143 558.71 526.576 555.312C524.154 540.811 518.722 527.381 510.855 515.005C500.017 497.956 489.033 480.999 477.951 464.108C475.598 460.521 473.079 457.045 470.559 453.567L470.558 453.566L470.558 453.566C468.535 450.775 466.512 447.983 464.575 445.135C461.723 440.94 457.583 441.363 453.785 441.752L453.784 441.752C453.164 441.815 452.554 441.878 451.96 441.919C445.045 442.4 438.604 444.771 432.159 447.144C429.169 448.245 426.178 449.346 423.138 450.259C418.927 451.523 419.281 453.968 419.649 456.509C419.724 457.027 419.799 457.549 419.837 458.065C420.001 460.32 420.247 462.57 420.493 464.819L420.493 464.821C420.794 467.575 421.095 470.328 421.246 473.09L421.333 474.667L421.387 475.648C421.922 485.363 422.457 495.085 422.542 504.807C422.573 508.328 422.137 511.849 421.702 515.373L421.702 515.373L421.702 515.374L421.702 515.374L421.702 515.374L421.702 515.375L421.702 515.375L421.702 515.375L421.702 515.376L421.702 515.376L421.702 515.377L421.702 515.377C421.447 517.435 421.193 519.495 421.031 521.556C420.633 526.628 420.271 531.703 419.91 536.778C419.419 543.656 418.929 550.534 418.348 557.404C418.132 559.967 417.935 562.535 417.738 565.103C417.054 574.025 416.369 582.957 414.851 591.738C413.428 599.968 414.977 607.193 417.956 614.568C419.655 618.771 415.514 624.635 410.656 624.683C410.201 624.688 409.725 624.72 409.24 624.753L409.24 624.753C406.777 624.919 404.086 625.101 402.816 621.765C402.711 621.488 400.945 621.353 400.659 621.714C399.121 623.652 397.232 623.445 395.348 623.238L395.347 623.238C394.671 623.164 393.995 623.09 393.337 623.115C392.669 623.141 391.993 623.124 391.319 623.108C390.096 623.078 388.876 623.047 387.702 623.27C384.028 623.968 380.904 622.841 378.665 620.199C376.479 617.619 377.079 614.554 379.045 611.597C379.713 610.341 380.382 609.097 381.047 607.86L381.048 607.859L381.048 607.858L381.049 607.857L381.05 607.856L381.05 607.855L381.051 607.854L381.051 607.853L381.052 607.852C383.548 603.212 385.987 598.678 388.089 593.993ZM566.326 389.788C566.072 389.42 565.839 388.983 565.607 388.545C565.095 387.583 564.582 386.62 563.848 386.4C561.37 385.658 558.538 385.02 556.075 385.498C546.145 387.427 536.299 389.306 526.336 385.806C525.5 385.512 524.661 385.225 523.822 384.937L523.822 384.937C517.2 382.67 510.583 380.404 505.568 375.028C505.373 374.818 505.046 374.731 504.72 374.643C504.568 374.603 504.416 374.562 504.277 374.509C504.263 374.729 504.221 374.963 504.18 375.197C504.09 375.701 504 376.206 504.184 376.574C506.13 380.461 508.113 384.335 510.276 388.105C510.834 389.077 511.954 390.001 513.015 390.365C514.523 390.882 516.027 391.418 517.532 391.954L517.536 391.956C522.455 393.708 527.382 395.463 532.445 396.578C540.514 398.354 548.694 396.864 556.547 394.786C557.185 394.617 557.86 394.486 558.551 394.352C561.373 393.802 564.453 393.203 566.326 389.788ZM268.844 246.568C263.465 249.232 257.971 250.659 252.332 249.485C250.535 249.11 248.365 246.79 247.804 244.926C246.383 240.209 245.485 235.325 244.59 230.458L244.59 230.456C244.487 229.898 244.384 229.34 244.281 228.783C243.512 224.634 246.021 222.062 249.483 220.996C256.92 218.708 264.491 217.573 271.843 221.564C280.385 226.201 279.472 238.754 274.009 242.648C272.686 243.591 271.4 244.588 270.013 245.663C269.632 245.958 269.243 246.26 268.844 246.568ZM270.428 227.175C270.322 227.058 270.217 226.91 270.112 226.762C269.885 226.44 269.657 226.118 269.417 226.109C268.356 226.067 267.291 226.132 266.226 226.198L266.226 226.198C265.835 226.223 265.444 226.247 265.053 226.266C265.205 226.571 265.364 226.875 265.522 227.178C265.876 227.856 266.23 228.534 266.516 229.239C266.976 230.373 267.382 231.53 267.787 232.686L267.788 232.687C267.92 233.064 268.052 233.441 268.186 233.818C268.347 234.269 268.496 234.724 268.646 235.18L268.646 235.18L268.646 235.18L268.646 235.18L268.646 235.18L268.646 235.18L268.646 235.181L268.646 235.181L268.646 235.181L268.646 235.181C268.714 235.387 268.781 235.593 268.85 235.799C269.052 235.691 269.265 235.595 269.479 235.498C269.942 235.29 270.405 235.081 270.752 234.751C273.222 232.401 272.253 229.975 270.428 227.175ZM375.77 481.831C375.708 480.977 375.646 480.116 375.582 479.248C375.466 478.816 375.31 478.505 375.176 478.239C375.066 478.02 374.971 477.832 374.928 477.632C374.602 476.12 374.294 474.604 373.985 473.088L373.985 473.087L373.985 473.087L373.985 473.086L373.985 473.085L373.985 473.084L373.984 473.083L373.984 473.083L373.984 473.082C373.311 469.773 372.638 466.464 371.787 463.202C371.74 463.021 371.704 462.802 371.666 462.566C371.469 461.35 371.199 459.688 368.86 460.465C366.462 461.261 366.675 462.422 367.06 464.527L367.084 464.653L367.118 464.842C368.571 472.896 369.588 481.04 370.474 489.181C371.152 495.412 371.493 501.686 371.781 507.951C371.886 510.229 372.035 512.513 372.185 514.798L372.185 514.8L372.185 514.802L372.185 514.803L372.185 514.805L372.185 514.807L372.185 514.808L372.185 514.81L372.185 514.811C372.609 521.313 373.034 527.823 372.453 534.236C371.731 542.196 366.834 548.513 359.789 552.746C353.097 556.768 346.726 560.997 344.075 569.006C342.438 573.951 344.034 577.463 348.609 577.596C349.452 577.62 350.308 577.227 351.164 576.833C351.557 576.652 351.95 576.472 352.342 576.332C352.047 576.005 351.769 575.628 351.492 575.251C350.878 574.417 350.263 573.582 349.453 573.289C347.266 572.498 347.109 571.964 347.987 569.681C349.795 564.975 352.565 561.423 356.907 558.914C363.827 554.916 369.929 549.875 373.696 542.736C378.309 533.992 380.47 524.641 379.051 514.634C378.197 508.616 377.567 502.563 376.966 496.513C376.489 491.705 376.138 486.884 375.77 481.831ZM403.934 342.326C401.8 330.137 399.723 318.31 397.465 306.518C395.93 298.498 390.291 293.58 384.035 289.045C383.298 288.511 382.553 287.98 381.807 287.447C377.566 284.419 373.267 281.349 369.918 277.504C364.097 270.82 354.413 254.856 354.885 246.527C355.2 240.977 357.145 234.519 357.145 234.519C357.145 234.519 356.206 246.001 357.145 249.504C360.455 261.841 369.491 271.618 377.824 278.168C379.741 279.675 381.726 281.111 383.709 282.546L383.71 282.546L383.71 282.546L383.71 282.546L383.71 282.546L383.71 282.547L383.711 282.547L383.711 282.547C387.62 285.375 391.525 288.2 394.902 291.561C398.174 294.818 400.809 299.096 401.491 304.301C401.882 307.28 402.363 310.228 402.846 313.186C403.821 319.159 404.803 325.174 405.056 331.568C405.347 338.905 409.303 349.584 411.188 354.672C411.791 356.3 412.182 357.356 412.173 357.546C411.489 357.291 406.43 348.471 404.588 344.315C404.352 343.783 404.139 343.241 403.934 342.326ZM342.22 180.115C334.478 176.375 326.648 172.818 318.468 169.187C314.578 168.226 310.902 167.269 307.276 166.325L307.276 166.325L307.275 166.325C306.071 166.012 304.873 165.7 303.674 165.389C295.134 163.18 286.525 163.419 278.126 165.677C274.28 166.712 270.606 168.406 266.944 170.095L266.943 170.095L266.943 170.095L266.943 170.095L266.943 170.095L266.943 170.095L266.943 170.095C265.831 170.608 264.72 171.121 263.605 171.614C263.237 171.777 263.073 172.403 262.909 173.029C262.833 173.319 262.757 173.609 262.661 173.853C262.917 173.906 263.174 173.974 263.431 174.042C264.028 174.201 264.626 174.359 265.21 174.321C265.604 174.295 265.977 174.061 266.356 173.822L266.356 173.822C266.597 173.67 266.84 173.517 267.092 173.416C274.358 170.481 281.918 168.7 289.735 168.484C301.982 168.145 313.598 171.179 324.812 175.865C327.416 176.953 329.991 178.114 332.565 179.276C335.183 180.456 337.8 181.637 340.45 182.741C341.202 183.055 342.097 183.023 342.992 182.991C343.405 182.976 343.818 182.962 344.216 182.981C344.009 182.671 343.825 182.314 343.64 181.957L343.64 181.957L343.64 181.957C343.242 181.186 342.844 180.416 342.22 180.115ZM299.937 205.276C299.169 202.543 302.175 202.504 304.733 202.813C309.986 203.449 315.291 203.657 320.596 203.866C322.775 203.951 324.955 204.037 327.131 204.152C327.632 204.178 328.337 204.149 329.056 204.119L329.056 204.119H329.057H329.057H329.057H329.057C330.645 204.052 332.298 203.983 331.946 204.509C324.308 215.936 302.934 215.936 299.937 205.276ZM252.489 255.457C251.314 262.305 252.948 266.693 260.443 268.4C263.111 269.008 266.418 267.348 268.283 266.308C271.176 264.695 273.967 262.899 276.759 261.103L276.759 261.102C277.695 260.5 278.631 259.898 279.571 259.302C279.482 260.18 282.043 266.133 283.761 267.203C284.949 266.348 285.425 265.498 285.927 264.602C286.087 264.317 286.25 264.027 286.439 263.73C286.72 263.289 286.84 262.748 286.961 262.204C287.022 261.927 287.084 261.648 287.167 261.383C287.445 260.499 287.526 259.521 287.608 258.541C287.818 256.012 288.029 253.479 291.61 252.581C291.76 252.543 291.945 252.52 292.143 252.494C293.03 252.38 294.192 252.231 293.736 250.667C293.177 248.753 291.608 249.263 290.894 249.523C287.837 250.634 284.85 251.987 281.957 253.483C278.56 255.241 275.188 257.049 271.816 258.856C268.671 260.542 265.526 262.229 262.36 263.874C259.206 265.514 256.831 263.424 254.777 260.852C253.283 258.983 253.634 255.575 253.845 253.53C253.925 252.745 253.986 252.161 253.913 251.941C253.17 252.677 252.634 254.619 252.489 255.457ZM279.736 259.198L279.571 259.302C279.576 259.258 279.587 259.227 279.605 259.21C279.633 259.183 279.678 259.18 279.736 259.198ZM279.736 259.198C280.464 258.738 281.194 258.282 281.928 257.834C282.633 257.403 283.454 257.163 284.275 256.922C284.652 256.811 285.03 256.7 285.397 256.571C285.197 257.134 285.071 257.936 284.937 258.792C284.707 260.257 284.452 261.879 283.761 262.728C283.617 262.905 282.737 262.006 281.82 261.07L281.82 261.07C280.973 260.205 280.094 259.308 279.736 259.198ZM387.188 546.413C387.224 545.737 387.245 545.093 387.266 544.473C387.314 543.019 387.359 541.695 387.567 540.398C387.655 539.852 388.072 539.359 388.489 538.866C388.678 538.642 388.867 538.418 389.026 538.189C389.185 538.416 389.391 538.645 389.597 538.874C390.039 539.366 390.482 539.858 390.463 540.332C390.055 550.629 389.549 561.075 384.641 570.317C382.722 573.93 378.667 576.723 375.015 578.958C373.433 579.926 369.829 579.306 368.173 578.049C365.5 576.022 365.26 572.437 366.899 569.503C368.043 567.454 370.017 565.774 371.905 564.291C372.333 563.955 373.179 564.15 374.024 564.346C374.411 564.435 374.797 564.525 375.144 564.563C374.987 564.803 374.836 565.049 374.685 565.295C374.351 565.84 374.018 566.384 373.611 566.866C373.208 567.344 372.754 567.793 372.302 568.24L372.302 568.24L372.301 568.241L372.301 568.241C371.451 569.082 370.605 569.918 370.111 570.932C369.579 572.023 369.6 574.238 370.321 574.868C371.206 575.643 373.36 575.871 374.476 575.329C381.415 571.957 383.756 565.529 385.041 558.51C385.755 554.605 386.459 550.697 387.188 546.413ZM252.461 210.367C258.327 211.08 269.101 203.599 269.101 201.986C269.101 200.374 254.481 198.711 248.647 198.15C245.968 197.892 244.39 198.672 244.174 201.371C243.865 205.246 248.181 209.847 252.461 210.367ZM359.963 578.831C353.324 574.569 354.645 570.263 360.999 563.927C361.736 563.192 362.72 562.464 363.696 562.271C364.411 562.13 365.187 562.303 365.964 562.475C366.303 562.551 366.642 562.626 366.976 562.675C366.837 562.891 366.705 563.112 366.572 563.332C366.282 563.815 365.993 564.298 365.633 564.721C363.846 566.826 362.044 568.921 360.176 570.954C358.146 573.163 359.808 574.073 361.521 574.947C361.743 575.06 362.025 575.1 362.298 575.139C362.655 575.19 362.998 575.238 363.179 575.446C363.716 576.062 364.143 576.775 364.569 577.488C364.742 577.776 364.914 578.065 365.094 578.347C364.823 578.427 364.553 578.516 364.283 578.605L364.282 578.605C363.656 578.812 363.029 579.018 362.386 579.117C361.66 579.229 360.892 579.069 359.963 578.831ZM243.723 608.36C242.204 608.495 240.686 608.63 238.969 608.944C238.066 609.684 237.123 610.367 236.194 611.04C234.089 612.565 232.059 614.036 230.739 615.987C229.502 617.816 229.735 621.36 230.613 623.633C231.09 624.869 233.419 625.532 235.319 626.074C235.576 626.147 235.826 626.218 236.061 626.288C237.077 626.589 238.492 626.247 239.485 625.731C240.206 625.355 240.786 624.71 241.367 624.064C241.621 623.782 241.874 623.5 242.14 623.241C241.798 623.109 241.409 622.91 241.02 622.711C240.175 622.279 239.33 621.846 238.966 622.101C237.012 623.469 236.359 622.132 235.836 621.062C235.692 620.766 235.557 620.491 235.408 620.299C234.897 619.641 235.217 617.689 235.873 616.902C236.73 615.875 237.757 614.994 238.786 614.11C239.555 613.45 240.325 612.788 241.026 612.065C241.753 611.314 242.34 610.427 242.926 609.54C243.188 609.142 243.451 608.745 243.726 608.359L243.723 608.36Z" fill="#00160A"/>
<path fill-rule="evenodd" clip-rule="evenodd" d="M83.4531 232.165C74.3519 233.665 68.483 243.372 70.3445 253.845C71.4355 259.983 74.9397 265.471 79.4859 269.115L80.7467 289.708C80.8696 291.686 82.9677 293.428 84.2653 292.613L92.3711 287.129L102.745 295.622C104.405 297.046 106.007 295.724 105.43 293.391L99.513 269.765C102.829 265.816 104.394 259.346 103.303 252.034C101.442 239.56 92.5544 230.665 83.4531 232.165ZM90.1944 273.714C92.3678 273.833 94.3569 273.405 96.1005 272.509L100.028 287.852L92.5782 281.978C91.8458 281.42 91.0309 281.342 90.4586 281.77L84.6372 285.934L83.8002 271.929C85.8574 272.961 88.0198 273.594 90.1944 273.714ZM84.2958 237.359C91.1217 236.421 97.7871 243.093 99.1832 252.26C100.579 261.428 96.1777 268.707 89.3517 268.52C86.9501 268.454 84.5684 267.55 82.4291 266.064C82.3162 265.969 82.1972 265.885 82.0738 265.812C78.3012 263.125 75.3419 258.674 74.4643 253.619C73.0682 245.576 77.4699 238.296 84.2958 237.359Z" fill="#FFB61D"/>
<path fill-rule="evenodd" clip-rule="evenodd" d="M645.097 392.165C654.198 393.665 660.067 403.372 658.205 413.845C657.114 419.983 653.61 425.471 649.064 429.115L647.803 449.708C647.68 451.686 645.582 453.428 644.285 452.613L636.179 447.129L625.805 455.622C624.144 457.046 622.543 455.724 623.12 453.391L629.037 429.765C625.721 425.816 624.155 419.346 625.247 412.034C627.108 399.56 635.995 390.665 645.097 392.165ZM638.355 433.714C636.182 433.833 634.193 433.405 632.449 432.509L628.522 447.852L635.972 441.978C636.704 441.42 637.519 441.342 638.091 441.77L643.913 445.934L644.75 431.929C642.692 432.961 640.53 433.594 638.355 433.714ZM644.254 397.359C637.428 396.421 630.763 403.093 629.367 412.26C627.97 421.428 632.372 428.707 639.198 428.52C641.6 428.454 643.981 427.55 646.121 426.064C646.234 425.969 646.353 425.885 646.476 425.812C650.249 423.125 653.208 418.674 654.086 413.619C655.482 405.576 651.08 398.296 644.254 397.359Z" fill="#FFB61D"/>
</svg>
