<svg width="750" height="750" viewBox="0 0 750 750" fill="none" xmlns="http://www.w3.org/2000/svg">
<rect width="750" height="750" fill="none"/>
<path fill-rule="evenodd" clip-rule="evenodd" d="M359.128 609.893C333.675 565.672 348.621 419.957 363.756 456.977C365.435 461.082 363.105 480.064 360.263 497.548C357.048 517.323 353.961 548.973 356.466 568.83C357.804 579.44 368.035 625.368 359.128 609.893Z" />
<path fill-rule="evenodd" clip-rule="evenodd" d="M38.4314 347.91C41.2014 288.876 77.4634 186.251 257.906 176.533C475.48 164.817 499.874 2.9719 582.388 154.183C664.899 305.393 783.197 464.566 656.262 587.382C538.468 701.358 384.42 672.256 186.509 573.275C42.1295 501.057 35.6599 406.942 38.4297 347.911L38.4314 347.91Z" />
<path d="M400.588 392.173C400.588 392.173 393.013 397.246 388.038 390.05L386.187 388.795C386.187 388.795 380.26 390.567 384.571 380.509C384.571 380.509 386.623 377.826 386.187 375.934C386.187 375.934 387.506 377.826 390.491 375.934C390.491 375.934 392.336 375.891 394.297 376.96L395.285 375.934C395.285 375.934 391.531 372.573 396.786 368.35C396.786 368.35 398.44 365.916 398.362 363.96C398.362 363.96 398.843 366.352 400.647 366.301C400.647 366.301 404.697 365.701 406.155 367.67C406.155 367.67 410.589 360.162 415.48 359.19H418.551C418.551 359.19 414.829 358.269 415 352.8L415.45 351.478C415.45 351.478 411.872 349.598 413.537 345.876C413.537 345.876 415.313 343.386 417.575 342.511C417.575 342.511 419.686 341.337 419.977 340C419.977 340 420.415 342.026 423.064 342.293C423.064 342.293 428.073 342.202 428.563 345.872C428.563 345.872 428.656 349.463 428.202 352.048C428.202 352.048 430.356 347.225 440.191 352.974C440.191 352.974 442.56 355.488 445.402 353.954C445.402 353.954 442.942 355.52 443.436 358.376C443.436 358.376 444.487 362.728 442.222 365.293C442.222 365.293 448.209 365.649 452.174 368.775C452.174 368.775 456.499 372.893 453.938 380.373L452.99 382.108C452.99 382.108 456.236 380.594 458.188 384.647C458.188 384.647 459.755 385.69 461 384.511C461 384.511 459.747 385.664 459.631 387.663C459.631 387.663 460.435 396.087 455.693 397.11C455.693 397.11 452.421 396.802 450.929 395.316L449.321 394.702C449.321 394.702 447.835 398.891 442.963 399.082C442.963 399.082 439.298 398.81 437.992 397.305L436.45 395.814C436.45 395.814 436.365 398.936 433.974 399.878C433.974 399.878 426.443 401.44 423.81 393.385L422.369 391.346L421.267 391.481C421.267 391.481 420.141 396.198 413.387 396.169C413.387 396.169 405.021 397.841 400.588 392.173Z" fill="white"/>
<path fill-rule="evenodd" clip-rule="evenodd" d="M379.576 411.233C383.568 410.083 387.057 406.584 387.233 402.436C387.363 399.342 385.152 395.995 382.354 395.287C377.824 394.141 366.903 392.345 359.323 392.024C361.454 386.263 363.584 380.502 365.715 374.741C367.532 376.475 368.664 374.969 368.635 374.876C367.474 371.06 367.673 365.172 372.428 363.061C380.319 359.558 384.731 348.149 378.787 341.89C376.824 339.823 374.177 338.671 371.533 337.522C370.617 337.123 369.702 336.725 368.816 336.289C365.372 334.595 361.939 331.66 361.931 327.824C368.077 327.021 373.305 322.422 375.954 316.821C378.603 311.221 378.948 304.764 378.125 298.625C378.095 298.403 378.065 298.178 378.034 297.952C377.533 294.29 376.976 290.222 379.392 287.502C384.486 281.77 381.936 272.854 379.119 265.724C378.434 263.99 377.272 261.936 375.412 262.069C374.327 262.148 373.468 262.991 372.772 263.825C369.096 268.231 367.02 273.942 367.008 279.679C362.728 279.819 360.383 277.546 357.409 274.466C355.198 272.176 351.37 273.342 346.876 274.71C344.844 275.329 342.675 275.99 340.458 276.39C337.749 272.172 340.83 269.741 341.052 273.755C343.534 269.254 344.105 263.74 342.598 258.827C341.181 257.427 338.409 257.944 337.592 259.759C328.99 243.647 311.835 232.428 293.616 231C294.154 233.169 292.122 235.294 289.926 235.716C287.73 236.136 285.501 235.354 283.402 234.584C292.179 238.094 305.345 261.194 301.639 282.147C298.596 299.351 287.334 315.948 284.064 320.767C283.844 321.092 283.66 321.363 283.517 321.577C282.914 320.739 274.761 322.122 273.819 323.788C261.507 345.55 269.467 376.398 290.774 389.498C290.866 389.555 290.988 389.629 291.137 389.72C293.477 391.147 302.423 396.599 304.403 399.723C304.447 399.791 304.484 399.892 304.528 400.011C304.741 400.588 305.117 401.604 307.129 401.518C306.228 407.322 306.073 414.711 311.287 417.42C313.725 418.686 316.639 418.437 319.372 418.155L323.147 417.767C327.766 417.291 332.385 416.816 337.003 416.34C341.107 415.918 343.337 410.697 341.972 406.805C340.609 402.914 336.858 400.36 333.055 398.761C334.584 398.034 336.114 397.307 337.643 396.58C339.172 395.853 340.701 395.127 342.231 394.399C340.312 398.815 345.883 402.612 350.415 404.244C353.424 405.327 356.432 406.411 359.44 407.495C360.865 408.008 362.291 408.522 363.717 409.035C368.826 410.875 374.357 412.735 379.576 411.233ZM514.1 514.341C517.48 512.614 520.856 510.889 524.511 509.914C530.463 508.32 522.191 508.641 522.191 508.641C526.436 505.181 544.467 510.229 544.717 519.837C544.811 523.419 540.234 529.849 532.908 534.211C529.925 535.987 526.649 536.851 523.394 537.71C520.722 538.416 518.063 539.117 515.592 540.316C511.497 542.302 507.808 546.711 506 549.053C503.826 551.868 505.861 552.937 507.608 553.854C509.098 554.637 510.378 555.31 508.658 556.863C495.96 568.329 502.149 593.632 504.265 602.284C504.595 603.632 504.826 604.576 504.871 605C504.909 599.663 510.326 595.789 515.592 594.881C518.701 594.349 521.857 594.514 525.019 594.679C527.212 594.793 529.408 594.908 531.592 594.79C541.344 594.254 550.691 588.734 555.87 580.464C555.967 582.979 557.406 585.409 559.569 586.703C563.381 573.559 569.911 561.207 578.625 550.657C579.231 549.922 579.852 549.188 580.476 548.45C584.688 543.466 589.031 538.327 589.868 531.955C590.633 526.121 588.012 519.981 583.318 516.427C583.214 516.348 583.107 516.268 583 516.187C581.709 515.219 580.272 514.14 580.272 512.567C580.272 511.13 582.645 510.62 583.181 511.482C583.214 511.691 583.24 511.907 583.26 512.122C583.319 511.854 583.286 511.646 583.181 511.482C581.841 502.618 570.695 498.999 561.599 497.901C552.288 496.784 540.866 494.511 538.224 485.523C531.83 463.76 529.249 440.886 530.634 418.249C530.767 416.077 530.936 413.904 531.105 411.73C531.659 404.6 532.214 397.464 531.497 390.364C530.639 381.883 527.99 373.701 525.357 365.594C523.654 360.349 521.878 354.968 518.374 350.707C514.871 346.446 510.083 344.387 503.833 344.807C502.888 343.816 502.726 341.974 502.997 340.309C503.398 337.865 504.492 336.242 505.508 336.366C507.226 336.576 504.141 332.415 502.263 332.961C501.059 333.311 499.925 334.192 499.075 334.852C498.259 335.486 497.705 335.916 497.606 335.473C496.961 332.589 495.905 328.91 493.982 330.119C486.165 335.034 483.89 345.887 484.942 346.361C484.455 346.207 479.765 344.764 479.282 345.766C477.255 349.973 473.068 352.98 469.005 355.896C463.581 359.791 458.379 363.526 458.844 369.744C459.178 374.194 462.791 377.82 466.85 379.682C467.262 379.871 468.594 380.143 470.371 380.505C476.581 381.771 488.214 384.143 484.942 387.958C480.843 392.736 459.716 399.253 448.776 402.628C446.349 403.377 444.423 403.971 443.296 404.357C437.865 401.705 445.093 414.739 466.983 428.53C474.958 433.555 468.318 447.175 464.08 455.868C463.988 456.057 463.897 456.244 463.807 456.429C462.587 458.933 461.203 461.441 459.812 463.962C454.793 473.057 449.685 482.314 451.912 492.114C452.384 494.192 453.181 496.177 453.977 498.161C454.87 500.387 455.762 502.611 456.195 504.963C458.336 516.578 446.174 528.323 434.634 525.795C430.569 524.9 427.656 530.883 429.968 534.339C432.281 537.801 437.298 538.402 441.255 537.102C444.037 536.192 446.493 534.574 448.95 532.956C449.986 532.273 451.021 531.591 452.082 530.962C455.658 528.832 459.99 527.251 463.941 528.565C462.759 529.756 461.396 530.768 460.036 531.777C457.981 533.302 455.936 534.82 454.542 536.939C452.264 540.401 453.433 546.496 457.475 546.796C426.674 545.327 474.392 548.769 461.624 546.862C463.947 544.951 467.103 545.581 470.209 546.201C471.17 546.393 472.126 546.584 473.051 546.698C476.964 547.182 482.138 543.386 479.667 540.316C475.418 535.031 479.717 526.755 485.731 523.626C489.331 521.749 493.327 520.972 497.336 520.193C500.025 519.67 502.719 519.147 505.304 518.289C508.354 517.278 511.228 515.809 514.1 514.341ZM457.69 546.809L457.475 546.796C457.545 546.803 457.617 546.809 457.69 546.809ZM484.983 346.373L484.942 346.361C484.955 346.367 484.969 346.371 484.983 346.373Z" fill="white"/>
<path fill-rule="evenodd" clip-rule="evenodd" d="M316.537 347.36C316.242 346.293 300.655 356.462 312.817 375.322C324.978 394.183 331.756 392.574 328.367 399.406C328.367 399.406 332.519 398.785 336.358 393.288C340.199 387.791 342.719 375.39 332.432 366.542C322.145 357.695 319.915 359.596 316.537 347.36Z" fill="#E7EAEE"/>
<mask id="mask0_0_1334" style="mask-type:alpha" maskUnits="userSpaceOnUse" x="427" y="402" width="15" height="18">
<path fill-rule="evenodd" clip-rule="evenodd" d="M435.283 411.523C433.624 411.846 432.309 413.027 430.836 413.756C428.262 415.029 426.905 411.403 427.236 409.606C427.47 408.335 427.796 407.702 428.655 406.787C429.009 406.409 429.97 405.463 430.402 405.177C430.732 404.959 431.527 404.199 431.527 404.199C431.527 404.199 431.53 402.884 431.259 402.495C431.578 402.988 432.715 403.614 432.715 403.614C432.715 403.614 434.131 403.288 434.805 403.298C436.653 403.326 437.254 403.379 438.939 404.119C440.277 404.706 441.886 406.879 441.191 408.478C440.864 409.229 440.206 409.5 439.458 409.557C438.884 409.6 438.098 409.629 437.39 409.838C438.188 409.754 439.113 409.181 439.868 410.023C440.373 410.587 440.699 411.375 440.817 412.097C441.187 414.358 441.351 416.858 439.678 418.63C439.678 418.63 435.891 421.128 432.016 415.055" fill="white"/>
</mask>
<g mask="url(#mask0_0_1334)">
<path d="M430.858 413.906C430.858 413.906 425.14 412.733 427.835 407.622C427.835 407.622 431.275 401.391 436.858 403.109C436.858 403.109 443.059 404.883 441.056 408.332C441.056 408.332 439.414 409.318 440.828 413.862C440.828 413.862 441.261 417.479 439.023 418.712C439.023 418.712 434.453 420.705 431.32 414.493L430.858 413.906Z" fill="white"/>
</g>
<path fill-rule="evenodd" clip-rule="evenodd" d="M419.514 339.529L418.147 341.128C415.435 341.979 413.055 343.514 412.207 345.416C411.521 346.954 411.697 348.777 413.371 350.779C413.808 351.249 414.305 351.633 414.846 351.937C414.771 352.013 414.715 352.11 414.691 352.222C414.691 352.222 414.114 353.615 414.707 355.587C414.924 356.311 415.361 357.064 416.013 357.851L415.99 357.857C414.295 358.242 412.811 358.98 411.557 359.895C411.364 359.52 410.969 359.264 410.515 359.265C409.87 359.265 409.348 359.782 409.348 360.418C409.442 360.512 409.487 360.589 409.533 360.666C409.599 360.779 409.665 360.892 409.883 361.058C409.938 361.099 409.979 361.142 410.014 361.201C409.538 361.664 409.11 362.143 408.728 362.62C407.709 363.895 407.013 365.127 406.602 365.95C405.957 365.426 405.184 364.996 404.337 364.694C403.164 364.276 401.851 364.141 400.551 364.322C400.446 364.244 400.24 364.09 400.108 363.98C399.718 363.654 399.388 363.307 399.388 363.307C399.046 362.97 398.55 362.835 398.082 362.952C397.613 363.069 397.242 363.42 397.103 363.877C397.103 363.877 396.587 365.587 396.24 366.289C396.23 366.31 396.214 366.347 396.214 366.347C396.214 366.347 396.264 366.286 396.284 366.264C395.653 367.021 395.131 367.709 394.735 368.361C393.769 369.946 393.383 371.228 393.346 372.253C393.297 373.576 393.738 374.496 394.264 375.118C393.657 374.841 393.004 374.628 392.336 374.515C391.4 374.358 390.44 374.426 389.516 374.76C389.029 374.937 388.605 374.935 388.256 374.872C387.647 374.761 387.306 374.376 387.306 374.376C387.013 374.076 386.584 373.947 386.172 374.037C385.759 374.127 385.424 374.422 385.287 374.816C385.287 374.816 384.618 376.541 384.058 377.859C383.848 378.354 383.656 378.786 383.527 379.013C383.093 379.808 382.711 380.715 382.468 381.752C382.265 382.619 382.163 383.576 382.167 384.622C382.281 388.091 383.768 389.168 385.47 389.231C385.98 389.25 386.53 389.178 387.089 389.014C387.259 389.351 387.517 389.818 387.877 390.352C388.24 390.889 388.709 391.456 389.289 392.012C389.705 392.409 390.183 392.783 390.717 393.095C391.497 393.551 392.386 393.879 393.324 394.046C395.214 394.383 397.28 394.091 399.429 392.631C399.476 392.599 399.522 392.566 399.568 392.533L399.568 392.533C399.662 392.467 399.757 392.4 399.858 392.34C400.004 392.252 400.154 392.17 400.316 392.098C400.376 392.071 400.436 392.045 400.496 392.02C401.03 392.842 402.043 394.016 403.846 394.987C405.553 395.906 408.024 396.609 411.509 396.601C416.038 396.45 418.975 395.293 420.552 393.777C422.564 391.843 422.711 389.341 421.171 387.118C420.267 385.816 419.03 384.818 417.626 384.088C417.881 383.518 418.246 382.435 418.152 381.045C418.103 380.315 417.882 379.524 417.465 378.688C417.074 377.903 416.476 377.09 415.596 376.324C414.956 375.766 414.141 375.263 413.172 374.772C413.614 374.638 414.129 374.438 414.694 374.171C415.069 373.995 415.49 373.766 415.979 373.481C415.536 374.353 415.335 374.982 415.335 374.982C415.212 375.281 415.358 375.622 415.662 375.743C415.964 375.865 416.31 375.721 416.433 375.422C416.433 375.422 417.235 373.938 418.661 372.592C419.736 371.576 421.2 370.685 423.063 370.756C424.184 370.799 425.42 371.235 426.86 372.153C427.921 372.83 429.096 373.735 430.342 375C431.239 375.874 431.893 376.716 432.339 377.517C432.234 377.551 432.133 377.6 432.038 377.665C431.508 378.028 431.377 378.747 431.745 379.269C431.745 379.269 432.199 379.792 433.101 380.382C433.053 381.418 432.622 382.323 431.939 383.062C430.62 384.49 428.509 385.399 426.668 385.227C425.898 385.155 425.215 384.828 424.679 384.379C424.36 384.111 424.173 383.742 424.015 383.336C423.706 382.777 422.996 382.571 422.43 382.876C421.864 383.18 421.655 383.881 421.964 384.439C422.708 385.466 423.711 386.128 424.93 386.403C424.737 386.497 424.543 386.602 424.347 386.718C422.709 387.702 422.159 388.874 422.217 390.22C422.271 391.495 423.017 393.024 423.982 394.814C425.651 397.836 428.785 399.496 431.467 399.763C434.307 400.047 436.56 398.858 436.379 396.535C436.369 396.213 436.095 395.96 435.768 395.969C435.442 395.98 435.184 396.25 435.195 396.572C435.182 397.326 434.721 397.795 434.058 398.035C433.123 398.375 431.82 398.25 430.503 397.777C428.747 397.144 426.983 395.813 426.057 393.795C426 393.674 425.943 393.554 425.887 393.437L425.886 393.435L425.886 393.435C425.28 392.158 424.77 391.083 424.773 390.17C424.774 389.679 425.081 389.325 425.691 388.987C427.464 387.983 429.04 388.494 430.524 389.572C432.374 390.916 434.099 393.067 435.74 395.114L435.74 395.115C436.196 395.683 436.645 396.244 437.089 396.777C439.08 399.13 441.574 399.618 443.86 399.181C446.748 398.629 449.227 396.557 449.776 395.299C449.876 395.069 449.989 394.785 450.101 394.455C450.135 394.716 450.26 394.968 450.474 395.159C452.032 396.257 453.347 396.736 454.492 396.894C455.66 397.055 456.651 396.887 457.524 396.383C459.38 395.313 460.616 392.814 460.997 390.299C461.072 389.811 461.074 389.121 461.048 388.417C461.019 387.645 460.948 386.86 460.895 386.351C461.282 385.907 461.907 385.169 462.135 384.787C462.82 383.642 461.873 382.929 461.442 382.783C461.068 382.672 460.669 382.74 460.358 382.954C460.322 382.924 460.261 382.998 460.206 383.077C460.177 383.104 460.15 383.132 460.123 383.162L460.112 383.176C460.067 383.186 460.021 383.194 459.974 383.199C459.946 383.162 459.919 383.129 459.892 383.099C459.161 381.841 458.066 380.841 456.682 380.4C456.236 380.257 455.758 380.17 455.251 380.152C455.862 379.333 456.264 378.372 456.479 377.342C456.774 375.929 456.694 374.39 456.397 372.991C456.043 371.327 455.38 369.855 454.668 368.962C453.374 367.347 449.414 364.755 445.702 364.619C445.194 364.6 444.695 364.634 444.203 364.711C444.527 364.182 444.772 363.619 444.946 363.038C445.24 362.06 445.349 361.033 445.307 360.038C445.24 358.442 444.832 356.947 444.455 355.851C444.475 355.905 444.489 356.038 444.425 356.024C443.561 355.833 446.373 353.967 446.373 353.967C446.656 353.806 446.753 353.448 446.59 353.169C446.426 352.89 446.064 352.794 445.78 352.955C445.78 352.955 444.182 353.68 443.269 354.501C442.626 355.079 442.43 355.788 442.521 356.348C442.674 357.183 442.768 358.264 442.752 359.416C442.739 360.343 442.605 361.305 442.308 362.227C441.846 363.665 440.906 364.993 438.92 365.73L435.475 364.715C435.111 364.586 434.705 364.68 434.438 364.955C434.438 364.955 434.248 365.191 433.9 365.544L433.853 365.557C432.422 365.972 431.369 366.868 430.662 367.896C430.352 368.044 430.026 368.178 429.688 368.29C429.209 368.45 428.698 368.546 428.179 368.566C427.458 368.593 426.761 368.398 426.045 368.125C425.651 368.041 425.261 368.163 424.99 368.419C424.369 368.285 423.778 368.232 423.22 368.243C424.409 367.084 425.212 365.996 425.689 365.012C426.346 363.656 426.39 362.435 426.042 361.397C425.75 360.524 425.122 359.755 424.192 359.136C424.333 359.026 424.476 358.911 424.621 358.792C425.193 358.323 425.746 357.763 426.303 357.199C426.52 356.98 426.737 356.76 426.956 356.544C427.11 356.394 427.273 356.263 427.438 356.13L427.438 356.13L427.465 356.109C427.59 356.008 427.71 355.908 427.825 355.808C427.852 355.864 427.88 355.92 427.909 355.976C428.592 357.308 429.709 358.513 430.675 359.556L430.769 359.657C430.951 359.853 431.113 360.05 431.268 360.239L431.269 360.24L431.269 360.24C431.303 360.282 431.338 360.324 431.372 360.365C432.131 361.281 432.824 361.858 433.219 362.069C433.832 362.264 434.491 361.932 434.689 361.326C434.887 360.721 434.549 360.071 433.936 359.876C433.759 359.856 433.457 359.814 433.104 359.622C432.666 359.383 432.145 359.084 431.67 358.632C431.012 358.008 430.455 357.151 429.988 356.286C429.166 354.764 428.745 353.056 429.98 351.836C430.419 351.388 431.056 351.294 431.751 351.269C432.51 351.24 433.342 351.388 434.209 351.565C435.541 351.838 436.925 352.231 438.165 352.642C440.412 353.385 442.161 354.084 442.161 354.084C442.441 354.251 442.805 354.162 442.975 353.886C443.144 353.611 443.055 353.251 442.775 353.084C442.775 353.084 441.225 351.843 439.057 350.638C438.423 350.286 437.738 349.955 437.026 349.656C436.311 349.356 435.571 349.1 434.835 348.916C433.952 348.696 433.073 348.58 432.258 348.589C430.556 348.606 429.103 349.127 428.176 350.269C427.41 351.246 427.109 352.309 427.163 353.391C426.937 353.494 426.743 353.669 426.62 353.903C426.607 353.956 426.594 354.01 426.582 354.063C426.476 354.509 426.374 354.944 426.123 355.362C426.041 355.499 425.949 355.63 425.84 355.749C425.595 356.017 425.301 356.237 425.011 356.454L424.975 356.481C423.986 357.221 422.919 357.783 422.091 358.162C421.567 357.996 420.996 357.86 420.381 357.756C420.15 357.587 419.908 357.415 419.672 357.252C418.899 356.721 418.185 356.299 418.185 356.299L418.348 356.422C417.564 355.854 417.047 355.27 416.697 354.71C415.92 353.465 415.848 352.471 415.848 352.471C415.854 352.446 415.858 352.421 415.86 352.397C416.822 352.74 417.88 352.88 418.965 352.841C420.059 352.802 421.165 352.607 422.186 352.327C424.647 351.651 426.574 350.593 426.574 350.593C426.874 350.464 427.011 350.119 426.88 349.824C426.749 349.528 426.4 349.393 426.1 349.522C426.1 349.522 422.366 350.7 419.003 350.456C417.632 350.357 416.308 350.035 415.477 349.004C414.354 347.76 414.302 346.665 414.982 345.73C415.792 344.616 417.269 343.694 418.898 343.033C419.164 342.924 419.564 342.63 419.918 342.183C420.074 341.986 420.233 341.761 420.38 341.543C420.683 341.801 421.084 342.082 421.625 342.335C422.238 342.634 422.942 342.684 423.682 342.736C424.306 342.779 424.957 342.825 425.601 343.024C425.852 343.101 426.093 343.225 426.327 343.385C426.924 343.795 427.352 344.515 427.742 345.636C428.03 346.205 428.731 346.437 429.308 346.153C429.885 345.87 430.12 345.177 429.832 344.608C428.892 343.233 427.985 342.519 427.053 342.111C426.692 341.953 426.342 341.829 425.989 341.732C425.462 341.586 424.934 341.522 424.425 341.461C423.676 341.372 422.969 341.287 422.37 340.951C422.02 340.747 421.763 340.535 421.567 340.343C421.23 340.011 421.153 339.754 421.153 339.754C421.054 339.415 420.762 339.164 420.407 339.116C420.054 339.067 419.703 339.229 419.514 339.529ZM459.834 383.681C459.632 383.622 459.498 383.494 459.52 383.283C459.56 382.885 459.708 382.894 459.892 383.099C459.912 383.133 459.932 383.167 459.951 383.201L459.974 383.199C460.053 383.304 460.135 383.437 460.217 383.583C459.998 383.566 459.881 383.606 459.834 383.681ZM459.994 383.714C459.937 383.707 459.884 383.696 459.834 383.681C459.787 383.757 459.811 383.867 459.875 383.991C459.854 384.104 459.862 384.219 459.9 384.332L459.908 384.356C459.96 384.325 460.01 384.294 460.056 384.264C460.077 384.29 460.098 384.316 460.12 384.341L460.159 384.32L460.153 384.297C460.143 384.27 460.135 384.243 460.128 384.216C460.512 383.953 460.649 383.733 460.283 383.632C460.292 383.619 460.302 383.606 460.313 383.593C460.279 383.589 460.247 383.585 460.217 383.583L460.238 383.62L460.219 383.616L460.093 383.593L460.087 383.6C460.051 383.638 460.02 383.676 459.994 383.714ZM460.223 383.721C460.19 383.777 460.165 383.834 460.149 383.891C460.108 383.999 460.102 384.108 460.128 384.216C460.105 384.232 460.081 384.248 460.056 384.264C459.983 384.171 459.919 384.078 459.875 383.991C459.88 383.962 459.887 383.933 459.896 383.904C459.917 383.84 459.95 383.777 459.994 383.714C460.067 383.722 460.144 383.725 460.223 383.721ZM460.261 383.662L460.29 383.716C460.268 383.718 460.245 383.72 460.223 383.721L460.229 383.712L460.238 383.696C460.245 383.685 460.253 383.673 460.261 383.662ZM460.261 383.662C460.268 383.652 460.275 383.642 460.283 383.632L460.273 383.629C460.262 383.626 460.25 383.623 460.238 383.62L460.261 383.662ZM460.206 383.077C460.192 383.098 460.178 383.119 460.165 383.138L460.146 383.168C460.294 383.13 460.403 383.066 460.378 382.988C460.373 382.971 460.366 382.96 460.358 382.954L460.325 382.977C460.301 382.996 460.278 383.015 460.253 383.033L460.206 383.077ZM410.643 363.498C409.125 364.812 408.076 366.19 407.568 366.922C408.085 367.58 408.423 368.32 408.52 369.099C408.659 370.22 408.345 371.428 407.301 372.615C406.858 373.119 406.263 373.594 405.561 374.132L405.489 374.188L405.488 374.188C405.052 374.522 404.585 374.879 404.046 375.251C403.56 375.585 403.049 375.92 402.46 376.27C401.862 376.509 401.181 376.224 400.939 375.635C400.697 375.045 400.986 374.373 401.583 374.134L401.656 374.117L401.656 374.117C402.231 373.985 402.749 373.866 403.231 373.695C403.813 373.49 404.333 373.288 404.766 373.013C406.541 371.882 407.051 370.503 406.808 369.389C406.622 368.541 405.918 367.865 405.047 367.373C403.853 366.699 402.262 366.461 400.78 366.871C400.437 366.961 399.944 366.912 399.404 366.66C399.314 366.617 399.219 366.566 399.121 366.509C399.082 366.615 399.041 366.719 399.001 366.82C398.764 367.405 398.49 367.87 398.316 368.054C397.348 369.027 396.662 369.887 396.181 370.65C395.732 371.362 395.443 371.955 395.328 372.491C394.927 374.36 396.328 375.186 396.328 375.186C396.629 375.313 396.769 375.657 396.641 375.954C396.555 376.151 396.373 376.278 396.171 376.304C397.624 377.458 398.194 378.563 398.222 379.554C398.242 380.233 397.994 380.868 397.567 381.516C397.546 381.548 397.524 381.581 397.501 381.613C397.605 381.608 397.712 381.629 397.81 381.681C397.81 381.681 399.281 382.322 400.561 384.807C401.199 386.046 401.765 387.765 402.071 390.122C402.111 390.206 402.139 390.295 402.156 390.385C402.472 390.875 403.543 392.256 406.01 393.119C407.383 393.599 409.161 393.929 411.468 393.871C415.127 393.884 417.561 393.177 418.891 392.014C420.086 390.968 420.197 389.555 419.396 388.244C418.269 386.396 416.31 385.233 414.229 384.58C411.806 383.821 409.224 383.731 407.494 384.066C406.092 384.43 405.116 384.361 404.264 384.068C403.136 383.681 402.23 382.773 400.86 381.399L400.662 381.201C400.252 380.71 400.321 379.983 400.818 379.578C401.315 379.173 402.052 379.242 402.462 379.732L402.497 379.782C402.488 379.72 402.483 379.656 402.484 379.591C402.484 379.591 402.608 379.024 402.94 378.224C403.041 377.982 403.158 377.727 403.283 377.456L403.283 377.456L403.283 377.455L403.283 377.455L403.283 377.455C403.354 377.301 403.427 377.143 403.501 376.978C404.047 375.759 404.789 374.442 406.352 373.831C407.321 373.452 408.59 373.346 410.27 373.742C410.233 373.315 410.441 372.884 410.839 372.652C411.221 372.49 411.585 372.377 412.064 372.545C412.114 372.563 412.168 372.587 412.227 372.615L412.227 372.615C412.43 372.709 412.702 372.835 413.145 372.822C413.605 372.808 414.215 372.726 415.022 372.39C415.341 372.257 415.687 372.086 416.057 371.866C417.085 371.255 418.297 370.3 419.817 368.981C422.422 366.672 423.729 364.746 423.906 363.2C424.01 362.289 423.518 361.629 422.673 361.166C422.414 361.024 422.125 360.901 421.809 360.796C421.713 360.854 421.661 360.884 421.661 360.884C421.286 361.058 420.848 361.028 420.501 360.805C420.501 360.805 420.179 360.638 419.724 360.391C419.607 360.38 419.488 360.37 419.368 360.362C418.089 360.231 416.922 360.364 415.853 360.64C414.696 360.94 413.654 361.407 412.724 361.971C412.73 361.976 412.736 361.98 412.741 361.985C412.882 362.104 413.018 362.22 413.129 362.36C413.202 362.453 413.254 362.554 413.298 362.656C413.382 362.844 413.423 363.003 413.46 363.176C413.61 363.876 413.56 364.192 413.56 364.192C413.769 364.44 413.735 364.809 413.484 365.015C413.232 365.221 412.858 365.187 412.642 364.931C412.642 364.931 412.395 364.903 411.818 364.659C411.654 364.589 411.523 364.519 411.345 364.401C411.229 364.323 411.122 364.239 411.019 364.129C410.926 364.031 410.842 363.917 410.777 363.792C410.727 363.696 410.682 363.597 410.643 363.498ZM389.654 389.199C389.233 388.897 388.868 388.625 388.577 388.403C389.489 387.944 390.351 387.382 391.006 386.949C391.266 386.778 391.567 386.59 391.721 386.495L391.748 386.5C392.07 386.55 392.373 386.331 392.424 386.012C392.474 385.818 392.403 385.674 392.347 385.559L392.344 385.553C392.259 385.376 392.08 385.276 391.818 385.232C391.674 385.209 391.376 385.274 390.968 385.434C390.746 385.522 390.47 385.643 390.156 385.781L390.156 385.781L390.156 385.781L390.156 385.781C389.585 386.032 388.889 386.337 388.161 386.597C387.307 386.901 386.414 387.125 385.679 387.012C385.356 386.962 385.139 386.742 384.997 386.366C384.842 385.951 384.806 385.392 384.844 384.658C384.871 383.825 384.999 383.07 385.168 382.38C385.361 381.586 385.615 380.879 385.936 380.262C386.115 379.903 386.407 379.15 386.688 378.336C386.85 377.864 387.012 377.372 387.152 376.936C387.389 377.008 387.65 377.064 387.934 377.093C388.612 377.161 389.425 377.106 390.33 376.689C391.047 376.358 391.83 376.316 392.581 376.452C393.457 376.612 394.295 376.97 394.964 377.394C396.513 378.411 397.134 379.322 396.732 380.206C396.467 380.788 395.807 381.242 394.983 381.658C394.508 381.897 393.968 382.065 393.379 382.248L393.379 382.249C392.795 382.519 392.545 383.207 392.82 383.782C393.094 384.357 393.79 384.605 394.373 384.333C395.445 383.676 396.312 382.991 396.948 382.299C396.979 382.47 397.086 382.625 397.252 382.713C397.252 382.713 398.267 383.399 399.049 385.463C399.491 386.626 399.835 388.205 399.889 390.333C399.78 390.518 399.665 390.692 399.52 390.854C399.395 390.994 399.267 391.121 399.118 391.22C397.804 392.099 396.428 392.11 395.262 391.979C394.416 391.883 393.678 391.546 392.968 391.2C392.457 390.951 391.98 390.664 391.519 390.387L391.519 390.387L391.513 390.383C390.828 389.97 390.191 389.584 389.654 389.199ZM449.673 382.632C449.163 382.597 448.677 382.499 448.216 382.349C446.924 381.927 445.845 381.167 445.06 380.402C444.841 380.189 444.645 379.979 444.472 379.782C443.853 380.588 443.104 381.237 442.334 381.68C443.503 381.883 444.311 382.201 444.311 382.201L444.366 382.227C446.09 383.105 447.361 384.089 448.292 385.11C448.502 384.267 448.933 383.422 449.673 382.632ZM448.224 387.821C448.268 388.057 448.322 388.284 448.385 388.499C448.505 388.909 448.645 389.273 448.777 389.572C449.143 391.719 448.396 393.607 447.966 394.484C447.528 395.378 445.585 396.664 443.476 396.976C441.952 397.201 440.31 396.831 439.056 395.222C438.617 394.664 438.174 394.079 437.724 393.484C436.722 392.16 435.688 390.793 434.597 389.603C433.304 388.193 431.925 387.025 430.48 386.367C430.288 386.28 430.096 386.201 429.902 386.131C431.12 385.747 432.271 385.125 433.184 384.26C434.025 383.464 434.677 382.488 434.999 381.354C435.254 381.458 435.523 381.558 435.808 381.657C436.312 381.832 436.861 382.001 437.462 382.13C436.074 382.756 434.769 383.954 433.816 386.119C433.599 386.718 433.914 387.378 434.521 387.592C435.128 387.807 435.797 387.495 436.015 386.897C436.594 384.898 437.635 383.81 438.829 383.313C439.471 383.045 440.133 382.917 440.756 382.903C442.257 382.869 443.504 383.362 443.724 383.454C446.135 384.794 447.511 386.313 448.224 387.821ZM449.873 387.463C449.886 386.918 449.977 386.33 450.205 385.751C450.592 384.763 451.456 383.855 453.106 383.216C454.156 382.77 455.059 382.747 455.816 382.997C456.681 383.283 457.341 383.939 457.765 384.755C457.923 385.047 458.189 385.345 458.61 385.511C458.521 385.713 458.49 385.939 458.527 386.16C458.527 386.16 458.788 387.386 458.937 388.584C459.008 389.145 459.066 389.696 459.041 390.091C458.905 392.11 458.211 394.263 456.774 395.179C456.211 395.537 455.523 395.716 454.767 395.523C453.889 395.3 453.031 394.568 452.043 393.452C451.566 393.024 450.826 393.06 450.393 393.531C450.382 393.544 450.37 393.556 450.359 393.569C450.754 391.979 450.924 389.774 449.904 387.532L449.893 387.508L449.873 387.463ZM447.993 380.128C446.825 379.743 445.858 379.066 445.243 378.556C445.723 377.601 446.019 376.509 446.017 375.327C446.015 373.456 445.271 371.345 443.276 369.263C442.838 368.805 442.329 368.357 441.755 367.91C442.213 367.161 442.756 366.611 443.436 366.313C444.113 366.017 444.871 365.969 445.615 366.03C448.731 366.288 451.88 368.814 452.845 370.261C453.615 371.395 454.106 373.616 453.938 375.704C453.866 376.599 453.663 377.469 453.254 378.221C452.886 378.896 452.369 379.491 451.578 379.86C450.265 380.525 449.04 380.474 447.993 380.128ZM429.116 369.878L429.115 369.878L429.059 369.895C428.913 369.937 428.767 369.979 428.62 370.018C428.886 370.195 429.155 370.389 429.426 370.6C429.497 370.348 429.595 370.038 429.726 369.697C429.524 369.758 429.321 369.818 429.117 369.878L429.117 369.878L429.116 369.878L429.116 369.878L429.116 369.878L429.116 369.878ZM430.454 371.464C431.032 371.986 431.625 372.58 432.237 373.249C434.378 375.69 435.223 377.878 435.222 379.746C435.53 379.983 435.887 380.209 436.308 380.388C437.301 380.811 438.593 380.958 440.117 380.796C441.838 380.578 443.928 378.231 443.697 375.418C443.629 374.586 443.317 373.723 442.756 372.833C442.094 371.782 441.061 370.722 439.55 369.692C438.377 368.816 437.346 368.276 436.432 367.986C435.643 367.735 434.965 367.649 434.363 367.745C434.073 367.792 433.802 367.869 433.55 367.971C433.246 368.158 432.919 368.348 432.571 368.534C432.034 368.946 431.614 369.456 431.294 369.934C430.828 370.629 430.548 371.244 430.454 371.464ZM430.051 403.155C429.717 402.534 429.899 401.749 430.488 401.345C431.108 400.919 431.952 401.075 432.384 401.694L432.41 401.735L432.411 401.735L433.003 402.142C433.229 402.099 433.496 402.052 433.762 402.015C434.154 401.959 434.542 401.924 434.826 401.931C435.84 401.965 436.513 402.002 437.161 402.133C437.837 402.27 438.49 402.496 439.448 402.938C440.466 403.415 441.631 404.586 442.171 405.917C442.583 406.933 442.668 408.013 442.234 408.941C441.962 409.523 441.584 409.933 441.119 410.203C441.191 410.336 441.256 410.473 441.314 410.613C441.496 411.052 441.624 411.512 441.683 411.952C441.882 413.413 441.991 414.962 441.659 416.37C441.421 417.378 440.977 418.323 440.188 419.121C440.151 419.161 440.109 419.197 440.064 419.226C440.064 419.226 438.318 420.345 435.816 419.503C434.449 419.043 432.809 418.028 431.044 415.689C430.851 415.386 430.813 415.026 430.911 414.707C429.61 415.296 428.509 414.888 427.656 414.098C426.435 412.969 425.879 410.765 426.074 409.387C426.19 408.614 426.358 408.038 426.604 407.508C426.856 406.963 427.209 406.476 427.724 405.893C427.94 405.652 428.374 405.2 428.787 404.802C429.123 404.478 429.454 404.195 429.67 404.045L430.24 403.522V403.521L430.238 403.435C430.201 403.388 430.167 403.341 430.136 403.296L430.21 403.245C430.184 403.162 430.136 403.12 430.057 403.151L430.051 403.155ZM430.051 403.155C430.068 403.189 430.088 403.223 430.109 403.255L430.136 403.296C430.129 403.285 430.116 403.272 430.102 403.257C430.065 403.22 430.022 403.174 430.051 403.155ZM437.886 410.78C437.754 410.816 437.624 410.846 437.497 410.863C436.972 410.918 436.492 410.56 436.391 410.037C436.289 409.514 436.599 408.999 437.105 408.849C437.418 408.747 437.745 408.678 438.067 408.624C438.435 408.562 438.795 408.527 439.113 408.496C439.205 408.487 439.294 408.478 439.378 408.47C439.586 408.447 439.781 408.397 439.945 408.298C440.04 408.239 440.099 408.138 440.148 408.014C440.339 407.544 440.087 407.022 439.795 406.553C439.44 405.982 438.913 405.496 438.433 405.3C437.699 404.994 437.205 404.83 436.692 404.746C436.166 404.66 435.623 404.662 434.811 404.664H434.811L434.786 404.664L433.021 404.967C432.894 404.996 432.764 405.007 432.635 404.999C432.585 405.07 432.528 405.137 432.464 405.198L431.135 406.31L429.588 407.679C429.243 408.026 428.99 408.308 428.811 408.639C428.632 408.969 428.509 409.334 428.401 409.825C428.249 410.495 428.4 411.52 428.835 412.269C429.17 412.847 429.688 413.291 430.452 412.961C430.962 412.743 431.456 412.473 431.951 412.203C432.485 411.911 433.02 411.618 433.58 411.389C434.091 411.179 434.615 411.013 435.173 410.939C435.492 410.877 435.8 411.088 435.861 411.41C435.923 411.732 435.714 412.044 435.396 412.106C434.955 412.22 434.554 412.412 434.163 412.63C433.642 412.918 433.15 413.263 432.659 413.607L432.659 413.607L432.659 413.607C432.517 413.707 432.375 413.806 432.233 413.904C432.534 413.962 432.812 414.139 432.991 414.419C433.868 416.083 434.734 417.147 435.618 417.746C436.286 418.2 436.922 418.407 437.475 418.45C438.372 418.521 439.016 418.199 439.222 418.078C439.747 417.474 440.028 416.78 440.162 416.049C440.389 414.82 440.193 413.491 439.953 412.241C439.898 411.953 439.793 411.655 439.657 411.372C439.53 411.11 439.364 410.867 439.17 410.662L439.166 410.659C438.913 410.669 438.635 410.682 438.351 410.713C438.197 410.73 438.04 410.75 437.886 410.78ZM416.382 383.526C416.416 382.917 416.357 381.841 415.751 380.655C415.421 380.01 414.884 379.374 414.122 378.683C413.535 378.15 412.833 377.568 411.9 377.038C409.635 375.602 408.06 375.185 406.9 375.484C405.793 375.77 405.056 376.595 404.789 377.464C404.439 378.596 404.82 379.628 404.82 379.628C404.809 380.265 404.277 380.772 403.633 380.762C403.419 380.758 403.22 380.698 403.049 380.596C403.692 381.559 404.167 382.262 404.885 382.617C405.465 382.903 406.177 382.933 407.204 382.756C409.447 382.216 413.028 382.285 416.152 383.438C416.229 383.467 416.306 383.496 416.382 383.526ZM425.983 378.072C425.516 377.8 425.523 377.562 425.523 377.562L425.525 377.562C425.542 377.56 425.56 377.556 425.577 377.552L425.525 377.562C425.225 377.605 424.936 377.416 424.864 377.12C424.788 376.806 424.984 376.49 425.339 376.408C425.339 376.408 425.304 376.326 425.69 375.862C425.828 375.694 425.949 375.645 426.188 375.549C426.287 375.51 426.402 375.513 426.507 375.533L426.512 375.534L426.512 375.534C426.715 375.574 426.891 375.609 427.038 375.736C427.151 375.834 427.267 375.901 427.372 375.963C427.57 376.079 427.734 376.174 427.789 376.414C427.801 376.468 427.83 376.504 427.859 376.538C427.893 376.578 427.926 376.616 427.926 376.682C427.926 376.745 427.949 376.793 427.972 376.839C428 376.896 428.027 376.952 428.01 377.032C427.993 377.109 427.997 377.18 428.001 377.252C428.007 377.367 428.013 377.484 427.936 377.627C427.915 377.667 427.895 377.706 427.895 377.754L427.895 377.763C427.895 377.811 427.895 377.841 427.928 377.885C428.025 378.015 428.038 378.057 428.05 378.094C428.064 378.14 428.076 378.177 428.234 378.357C428.005 378.952 427.33 379.25 426.728 379.024C426.304 378.865 426.029 378.488 425.983 378.072ZM426.531 377.99C426.685 378.073 426.795 378.067 426.966 377.755C426.982 377.727 426.93 377.704 426.889 377.686C426.856 377.671 426.829 377.659 426.851 377.65C426.976 377.599 426.469 377.686 426.551 377.763C426.617 377.828 426.588 377.909 426.531 377.99ZM412.681 389.836C412.705 389.767 412.712 389.698 412.712 389.628C412.82 389.616 412.928 389.589 413.034 389.545C413.628 389.298 413.907 388.622 413.657 388.036C413.476 387.999 413.421 387.955 413.375 387.918C413.331 387.882 413.294 387.853 413.164 387.842C413.125 387.839 413.111 387.827 413.097 387.816C413.084 387.805 413.071 387.794 413.04 387.789C412.989 387.779 412.966 387.759 412.938 387.735C412.926 387.724 412.913 387.712 412.896 387.7C412.569 387.482 412.362 387.399 412.097 387.343C411.863 387.294 411.68 387.414 411.415 387.586C411.32 387.648 411.215 387.717 411.093 387.787C410.786 387.963 410.553 388.236 410.252 388.612C410.163 388.723 410.09 388.844 410.046 388.98C410.017 389.07 410.01 389.16 410.014 389.252C410.024 389.425 410.036 389.538 410.088 389.682C410.307 390.292 410.465 390.419 410.465 390.419C410.389 390.75 410.591 391.063 410.909 391.134C411.228 391.204 411.545 391.005 411.617 390.69C411.617 390.69 411.974 390.643 412.5 390.097C412.574 390.021 412.645 389.942 412.681 389.836ZM449.6 371.43C449.786 371.096 450.137 370.861 450.551 370.835C451.194 370.796 451.748 371.281 451.788 371.915C451.625 372.05 451.584 372.106 451.539 372.165C451.505 372.212 451.468 372.26 451.371 372.351C451.308 372.409 451.291 372.462 451.27 372.536C451.23 372.672 451.2 372.789 451.173 372.895L451.173 372.895L451.173 372.895L451.173 372.895L451.173 372.896C451.133 373.049 451.1 373.179 451.05 373.315C451.026 373.382 450.982 373.422 450.938 373.464C450.903 373.495 450.869 373.527 450.842 373.572C450.687 373.833 450.433 373.886 450.121 373.951L450.121 373.951C450.009 373.975 449.89 374 449.766 374.036C449.401 374.143 449.004 374.089 448.566 373.958C448.431 373.918 448.3 373.85 448.2 373.754C447.997 373.562 447.883 373.405 447.794 373.187C447.569 372.646 447.598 372.462 447.598 372.462L447.575 372.445C447.319 372.245 447.275 371.877 447.477 371.624C447.679 371.371 448.052 371.327 448.309 371.527C448.309 371.527 448.612 371.356 449.323 371.389C449.341 371.39 449.358 371.391 449.375 371.391C449.44 371.393 449.503 371.395 449.57 371.418L449.6 371.43ZM450.002 372.286C449.979 372.357 450.002 372.485 450.019 372.583C450.026 372.62 450.032 372.652 450.034 372.675C450.051 372.678 450.073 372.684 450.097 372.69C450.19 372.714 450.314 372.746 450.307 372.675C450.282 372.408 450.172 372.323 450.002 372.286ZM440.845 390.367C440.232 389.981 440.006 389.708 440.006 389.708C439.69 389.625 439.501 389.305 439.585 388.993C439.67 388.681 439.994 388.496 440.31 388.579C440.31 388.579 440.595 388.402 441.243 388.248C441.31 388.232 441.377 388.213 441.446 388.195C441.641 388.141 441.846 388.085 442.085 388.07C442.222 388.061 442.362 388.077 442.503 388.094L442.547 388.099C442.658 388.111 442.763 388.138 442.867 388.165C442.98 388.193 443.092 388.222 443.21 388.232C443.323 388.242 443.433 388.264 443.539 388.286C443.779 388.335 444.001 388.38 444.204 388.274L444.212 388.269C444.226 388.262 444.241 388.255 444.257 388.247L444.257 388.247C444.344 388.205 444.438 388.16 444.464 388.071C444.487 387.991 444.44 387.949 444.385 387.9C444.346 387.864 444.302 387.825 444.277 387.765C444.261 387.727 444.236 387.716 444.21 387.705C444.185 387.695 444.159 387.684 444.138 387.649C444.275 387.028 444.898 386.633 445.528 386.769C446.157 386.904 446.558 387.518 446.421 388.139C446.294 388.234 446.224 388.313 446.16 388.386C446.082 388.474 446.012 388.553 445.861 388.636C445.78 388.68 445.736 388.724 445.679 388.78C445.667 388.791 445.654 388.804 445.64 388.817C445.576 388.879 445.529 388.954 445.483 389.029C445.464 389.059 445.445 389.09 445.425 389.119C445.34 389.244 445.247 389.35 445.15 389.459L445.15 389.459L445.149 389.46C445.117 389.496 445.085 389.532 445.053 389.57C444.588 390.11 443.933 390.405 443.167 390.653C442.893 390.741 442.614 390.79 442.328 390.803C442.144 390.811 441.958 390.799 441.786 390.755C441.41 390.659 441.113 390.534 440.845 390.367Z" fill="#FFB61D"/>
<path fill-rule="evenodd" clip-rule="evenodd" d="M435.945 151.626C436.617 150.149 434.392 149.09 432.77 149.083C431.148 149.077 428.887 148.61 429.011 146.992C432.784 145.702 437.046 145.908 440.676 147.557C438.808 150.65 437.64 154.163 437.283 157.759C437.236 158.225 437.259 158.8 437.67 159.022C437.986 159.192 438.374 159.06 438.703 158.917C443.28 156.934 447.108 153.275 449.297 148.792C449.911 147.535 451.774 147.385 452.956 148.133C454.139 148.881 454.8 150.209 455.405 151.471C456.057 152.829 458.061 152.87 459.376 152.135C460.69 151.399 461.655 150.15 462.957 149.393C464.259 148.635 466.247 148.602 466.966 149.925C464.736 151.596 462.505 153.268 460.275 154.939C458.569 156.217 456.029 157.459 454.538 155.938C453.738 155.122 453.681 153.846 453.164 152.826C452.647 151.807 451.012 151.158 450.46 152.159C447.76 157.055 443.061 160.809 437.691 162.361C436.635 162.666 435.285 162.796 434.639 161.907C434.334 161.488 434.277 160.941 434.253 160.423C434.112 157.412 434.697 154.37 435.945 151.626Z" fill="#00160A"/>
<path fill-rule="evenodd" clip-rule="evenodd" d="M380.784 375.731C378.634 372.179 377.38 368.09 377.167 363.945C377.084 362.321 378.427 360.754 380.043 360.588C379.699 365.927 381.089 371.365 383.954 375.883C384.407 376.598 383.447 377.53 382.616 377.374C381.784 377.217 381.222 376.454 380.784 375.731Z" fill="#00160A"/>
<path fill-rule="evenodd" clip-rule="evenodd" d="M431.668 133.051C433.593 136.142 433.945 140.159 432.587 143.537C432.496 143.763 432.39 143.996 432.194 144.141C431.4 144.729 430.606 143.39 430.51 142.406C430.319 140.427 430.128 138.448 429.937 136.468C429.796 135.009 430.206 132.938 431.668 133.051Z" fill="#00160A"/>
<path fill-rule="evenodd" clip-rule="evenodd" d="M365.979 315.072C365.979 315.072 367.999 313.582 371.693 314.714C371.693 314.714 373.322 315.94 371.549 316.95C371.549 316.95 370.408 317.34 369.513 317.899C369.59 318.148 367.796 317.489 366.694 317.112C366.694 317.112 364.849 316.528 365.979 315.072Z" fill="#FFB61D"/>
<path fill-rule="evenodd" clip-rule="evenodd" d="M472.237 210.427C471.941 208.731 471.648 207.048 470.346 206.02C468.066 204.216 468.208 200.673 469.238 197.954C469.561 197.102 469.95 196.268 470.339 195.434C471.192 193.607 472.042 191.784 472.185 189.792C472.385 186.985 471.156 184.306 469.939 181.655C468.544 178.616 467.165 175.612 467.973 172.489C468.976 168.614 472.669 166.724 476.428 164.801C479.751 163.1 483.125 161.373 484.74 158.225C486.567 154.663 485.538 150.292 483.804 146.684C482.421 143.806 480.529 141.048 477.796 139.397C475.063 137.745 471.36 137.425 468.743 139.254C466.125 141.084 465.288 145.293 467.503 147.594C468.754 147.217 469.053 145.876 469.361 144.494C469.637 143.256 469.92 141.986 470.902 141.349C472.12 140.558 473.725 141.191 475.027 141.834C476.947 142.783 478.926 143.778 480.29 145.429C481.653 147.08 482.23 149.584 481.065 151.38C480.559 152.159 479.823 153.316 480.613 153.803C481.96 154.633 482.038 156.69 481.191 158.027C480.345 159.363 478.873 160.148 477.461 160.862L477.078 161.056C473.458 162.885 469.735 164.766 467.137 167.87C464.447 171.084 463.319 176.03 465.698 179.48C470.789 186.86 467.749 196.872 464.553 205.249C467.124 206.1 468.08 208.8 469.035 211.5L469.035 211.501L469.035 211.501C469.399 212.527 469.762 213.554 470.214 214.479C473.735 221.687 483.513 223.023 491.423 221.693C492.966 221.433 494.951 220.366 494.394 218.904C493.102 218.962 491.808 219.081 490.515 219.2C487.729 219.458 484.945 219.715 482.18 219.349C478.133 218.815 473.95 216.537 472.723 212.643C472.501 211.939 472.369 211.182 472.237 210.427ZM445.496 203.763C435.794 212.099 424.754 218.736 413.474 224.767C411.443 225.852 409.398 226.923 407.35 227.996C395.673 234.109 383.919 240.262 374.463 249.366C369.667 253.983 365.545 259.298 362.267 265.092C360.356 263.671 361.372 260.646 362.675 258.652C373.343 242.312 391.457 232.892 408.867 223.838C409.91 223.296 410.95 222.755 411.987 222.214C430.319 212.639 449.407 200.96 457.464 181.91C458.416 190.511 452.059 198.123 445.496 203.763ZM307.987 220.852C313.361 223.694 321.251 224.778 324.464 219.617C317.93 220.942 310.924 219.789 305.16 216.438C304.393 215.993 303.625 215.504 302.853 215.013C299.686 212.999 296.438 210.933 292.855 211.546C291.783 211.73 290.756 212.154 289.735 212.576C288.286 213.175 286.848 213.769 285.308 213.664C282.681 213.485 281.065 208.978 283.661 208.542C280.122 207.982 276.583 207.422 273.045 206.862L272.356 206.753L262.406 205.178C265.66 198.259 267.557 190.705 267.955 183.068C267.199 183.122 266.486 183.17 265.822 183.215L265.819 183.215L265.817 183.215C259.168 183.66 257.329 183.783 264.13 186.678C264.682 192.994 262.418 199.504 258.066 204.115C259.521 208.147 264.238 208.728 268.966 209.311C273.671 209.891 278.387 210.473 279.912 214.455C280.653 216.388 283.111 217.084 285.158 216.785C286.257 216.624 287.309 216.26 288.362 215.896C289.269 215.582 290.178 215.268 291.118 215.083C296.041 214.117 300.668 216.739 305.156 219.283C306.106 219.821 307.049 220.355 307.987 220.852ZM555.981 345.556C556.739 342.667 557.83 339.475 560.511 338.16C546.4 391.433 551.452 449.572 574.541 499.612C571.64 496.96 569.152 493.857 567.179 490.46C563.909 484.835 562.108 478.491 560.478 472.19C549.78 430.848 545.14 386.862 555.981 345.556ZM201.028 435.76C200.524 434.765 200.1 433.672 200.211 432.562C200.532 429.349 204.637 428.279 207.861 428.11C229.007 427.001 250.026 429.954 271.051 432.908C279.802 434.137 288.554 435.367 297.317 436.304C314.265 438.115 331.308 438.834 348.337 439.551C360.567 440.066 372.797 440.582 385.027 441.097L387.362 441.195L389.182 441.272L390.681 441.335C407.394 442.038 425.026 442.545 439.784 434.67C434.403 442.701 423.199 443.74 413.534 443.852C361.287 444.455 308.997 441.252 257.214 434.276C255.863 434.094 254.51 433.909 253.158 433.724L253.122 433.72C238.001 431.654 222.779 429.575 207.601 430.928C205.48 431.117 202.728 432.099 202.928 434.22C203.028 435.28 203.902 436.081 204.733 436.747C209.671 440.704 215.298 443.8 221.282 445.856C213.325 447.283 204.678 442.973 201.028 435.76ZM498.735 223.53C494.378 222.043 489.086 224.195 487.004 228.303C491.358 231.283 495.713 234.263 500.068 237.243L504.357 240.178C506.124 241.388 508.424 242.629 510.267 241.538C514.905 238.793 521.834 241.859 522.922 247.137C523.036 243.526 527.039 241.138 530.652 241.116C533.187 241.101 535.617 241.872 538.05 242.644C539.086 242.973 540.122 243.301 541.167 243.57C548.428 245.435 556.416 244.279 562.851 240.432C564.397 239.507 566.304 240.618 567.859 241.535C576.017 246.365 586.952 246.014 594.784 240.672C589.079 261.517 577.583 280.086 566.159 298.541C564.006 302.018 561.855 305.492 559.747 308.976C546.449 330.948 534.302 354.964 534.236 380.647C534.232 382.059 535.025 384.038 536.343 383.532C538.231 355.791 548.353 328.663 565.095 306.466C566.245 304.938 567.532 303.358 569.342 302.737C570.766 302.25 572.314 302.425 573.803 302.646C584.306 304.208 594.503 307.839 603.635 313.268C602.622 311.621 613.499 310.731 624.913 309.798L624.913 309.798C628.744 309.484 632.635 309.166 636.158 308.812C643.467 308.078 650.724 300.704 652.051 298.361C652.287 297.944 651.577 298.404 650.231 299.275C647.163 301.261 640.794 305.383 634.845 306.102L633.754 306.234C624.86 307.313 613.96 308.634 605.986 308.151C601.114 307.856 607.286 290.725 607.933 289.652C604.138 288.774 601.963 293.781 601.323 297.621C600.676 301.461 598.305 306.437 594.562 305.363C590.283 304.135 586.003 302.906 581.724 301.678L570.361 298.416C582.484 277.671 592.916 255.934 601.505 233.494C602.074 236.014 622.892 232.747 621.069 232.222C620.163 231.961 617.502 231.985 614.576 232.012C610.394 232.051 605.67 232.095 604.752 231.315C603.191 229.99 600.421 229.897 599.376 231.657C593.654 241.308 579.623 244.838 570.014 239.046C569.887 238.969 569.757 238.89 569.627 238.811C567.351 237.428 564.646 235.785 562.464 237.196C555.966 241.398 547.594 242.569 540.193 240.312C539.151 239.994 538.125 239.612 537.1 239.23C535.072 238.475 533.048 237.72 530.908 237.469C527.687 237.09 523.95 238.237 522.621 241.196C521.34 237.48 516.271 235.692 512.943 237.782C509.446 239.979 504.845 237.748 501.757 235.007C501.211 234.522 500.669 234.015 500.125 233.505L500.124 233.505L500.124 233.505L500.124 233.505L500.124 233.504L500.123 233.504L500.123 233.504L500.123 233.503C497.589 231.131 494.998 228.704 491.632 228.231L495.16 225.896L498.735 223.53ZM415.212 520.086C413.187 523.039 408.882 522.928 405.321 522.568C391.528 521.196 377.622 520.948 363.788 521.83C360.077 522.065 355.547 523.013 354.495 526.58C352.839 526.501 352.124 524.162 352.969 522.738C353.813 521.307 355.516 520.667 357.113 520.216C363.063 518.551 369.374 518.185 375.477 519.158C379.057 519.726 382.543 517.25 384.409 514.147C386.008 511.484 386.701 508.413 387.389 505.369L387.389 505.366C387.504 504.858 387.619 504.35 387.738 503.845C391.517 487.768 400.153 472.864 412.223 461.592C413.88 460.044 416.495 458.533 418.193 460.035C401.082 475.258 389.643 496.718 386.546 519.413C396.101 518.949 405.689 519.171 415.212 520.086ZM508.794 338.695C508.488 340.57 506.543 342.976 505.301 341.539C511.496 309.019 505.542 274.329 488.86 245.737C488.477 244.907 489.618 244.042 490.494 244.297C491.372 244.551 491.91 245.409 492.359 246.204C508.042 274.002 513.94 307.196 508.794 338.695ZM246.043 314.437C239.655 318.61 232.864 322.166 225.795 325.037C223.694 325.891 220.576 326.276 219.807 324.142L217.194 316.9L217.138 316.744C215.712 312.789 214.285 308.834 212.859 304.879C212.094 302.758 209.723 300.207 208.154 301.826C210.954 308.778 213.755 315.73 216.554 322.682C217.686 325.49 219.257 328.679 222.227 329.261C224.37 329.68 226.48 328.546 228.37 327.452C229.917 326.556 231.465 325.661 233.012 324.765C234.552 323.875 236.092 322.984 237.631 322.093C242.255 319.417 248.026 316.714 252.643 319.401C255.59 321.115 259.669 320.566 262.058 318.133C264.446 315.699 264.92 311.61 263.151 308.695C262.528 307.668 263.225 306.252 264.282 305.679C265.338 305.107 266.606 305.145 267.806 305.197L284.494 305.924C286.219 305.999 288.73 304.978 287.939 303.442C280.407 302.828 272.866 302.339 265.319 301.976C264.349 301.929 263.337 301.893 262.454 302.296C259.761 303.526 260.207 307.394 260.704 310.313C261.203 313.232 260.147 317.415 257.205 317.08C253.398 316.645 249.642 315.756 246.043 314.437ZM252.375 463.41C277.061 475.701 298.871 493.725 315.592 515.656C316.652 517.047 316.897 519.954 315.173 519.674C297.534 495.273 273.218 475.758 245.583 463.817C246.696 461.536 250.104 462.279 252.375 463.41ZM354.152 210.487C351.625 214.697 349.858 220.313 352.726 224.298C354.593 224.495 354.424 221.572 354.189 219.709C353.856 217.081 355.083 214.517 356.46 212.255C363.921 200.003 376.122 192.004 388.279 184.033L388.279 184.033C392.202 181.461 396.12 178.892 399.873 176.184C402.632 174.193 405.644 171.233 404.726 167.957C398.529 173.799 391.317 178.622 384.137 183.424C372.619 191.126 361.184 198.773 354.152 210.487ZM424.045 603.797C425.564 606.515 426.623 610.206 424.535 612.512C421.62 601.7 412.89 593.586 404.476 586.198C399.256 581.611 394.005 577.065 388.722 572.551C383.312 567.925 377.458 563.156 370.408 562.196C370.301 562.181 370.193 562.167 370.084 562.152L370.058 562.148C367.702 561.829 364.863 561.444 364.211 559.21C371.682 557.074 379.257 561.778 385.438 566.488C394.774 573.602 403.689 581.272 412.117 589.444C416.6 593.795 420.998 598.349 424.045 603.797ZM174.652 283.156C179.313 286.728 183.75 290.877 186.243 296.194C187.832 299.584 188.482 303.84 186.343 306.914C186.059 308.183 188.117 308.384 189.335 307.927C195.125 305.752 200.89 303.515 206.633 301.218C205.339 299.516 202.697 299.63 200.736 300.482C200.006 300.799 199.307 301.195 198.609 301.589C197.433 302.254 196.261 302.917 194.949 303.202C192.86 303.656 190.168 302.565 190.036 300.43C189.452 290.985 180.944 284.265 173.194 278.835C171.458 277.618 169.521 276.344 167.41 276.545C165.317 276.743 163.752 278.287 162.21 279.808C161.782 280.23 161.355 280.651 160.919 281.041C158.917 282.831 155.403 283.895 153.823 281.721L151.75 278.869L151.743 278.86L151.737 278.851C150.595 277.281 149.454 275.71 148.312 274.139C147.434 272.932 146.499 271.675 145.148 271.04C143.796 270.406 141.906 270.65 141.19 271.961C146 275.541 150.037 280.154 152.948 285.397C154.291 287.815 158.074 287.066 160.185 285.279C160.796 284.761 161.373 284.179 161.949 283.597C163.363 282.168 164.774 280.743 166.686 280.291C169.53 279.621 172.333 281.379 174.652 283.156ZM424.006 337.15C423.42 335.978 423.511 334.59 423.718 333.296C425.153 324.343 431.488 316.736 439.156 311.9C446.824 307.065 455.754 304.655 464.629 302.807C467.562 302.196 471.596 302.257 472.41 305.141C462.915 306.14 453.28 307.629 444.738 311.894C436.195 316.158 428.793 323.627 426.747 332.954C426.363 334.701 425.776 336.901 424.006 337.15ZM611.218 508.366C604.824 505.602 597.802 504.315 590.845 504.622C591.113 506.856 593.921 507.621 596.162 507.876C604.177 508.79 612.949 510.43 618.005 516.715C619.142 518.126 620.069 519.824 620.023 521.634C619.945 525.377 616.026 527.735 612.512 529.01C606.195 531.296 599.474 532.465 592.759 532.446C591.877 532.439 591.616 533.824 592.236 534.451C592.857 535.079 593.843 535.111 594.725 535.092C602.1 534.889 609.435 533.236 616.183 530.257C617.646 529.611 619.109 528.885 620.252 527.762C623.263 524.802 623.218 519.667 621.056 516.029C618.893 512.396 615.098 510.045 611.218 508.366ZM491.788 567.259C487.904 569.852 485.865 574.412 484.288 578.809C480.218 590.17 477.914 602.157 477.485 614.217L477.482 614.293V614.293C477.428 615.812 477.372 617.401 476.608 618.712C474.996 617.745 474.805 615.517 474.845 613.635C475.152 599.12 478.366 584.675 484.242 571.401C484.935 569.833 485.718 568.219 487.096 567.2C488.473 566.181 490.623 565.998 491.788 567.259ZM609.029 545.995C612.034 542.807 615.104 538.744 614.091 534.484C613.386 533.89 612.236 534.341 611.727 535.105C611.333 535.701 611.193 536.41 611.053 537.117L611.053 537.118L611.032 537.226C611.018 537.295 611.004 537.364 610.99 537.432C610.969 537.535 610.947 537.636 610.923 537.738C610.27 540.475 608.356 542.716 606.443 544.773C599.728 551.973 592.163 558.368 583.959 563.804C583.577 564.056 583.192 564.307 582.807 564.559C579.864 566.481 576.892 568.421 574.651 571.107C574.775 572.296 576.591 572.035 577.61 571.414C589.159 564.398 599.76 555.821 609.029 545.995ZM312.601 467.498C313.448 466.27 315.33 467.423 316.278 468.574C328.289 483.148 340.474 498.442 345.25 516.714C345.491 517.635 345.694 518.681 345.191 519.484C344.686 520.294 343.17 520.36 342.958 519.432C339.27 503.303 329.914 488.976 318.949 476.592C318.795 476.417 318.64 476.242 318.484 476.068L318.484 476.067C316.161 473.451 313.787 470.778 312.601 467.498ZM460.859 327.518C465.96 326.027 471.186 324.967 476.464 324.351C474.686 321.13 469.947 321.751 466.426 322.821C456.039 325.979 445.071 329.504 437.985 337.731C435.98 340.059 434.518 343.99 436.952 345.864C440.393 336.002 450.833 330.445 460.859 327.518ZM443.172 597.46C443.629 599.263 443.802 601.674 442.126 602.471L432.641 573.406C433.225 572.668 434.449 572.766 435.176 573.367C435.902 573.968 436.254 574.896 436.57 575.784C439.109 582.899 441.313 590.137 443.172 597.46ZM553.66 248.018C555.732 253.306 556.793 258.988 556.771 264.668C556.76 267.179 556.54 269.687 556.208 272.178C555.613 276.626 554.657 281.026 553.352 285.32C552.936 286.688 552.514 288.282 553.332 289.455C554.941 289.296 555.752 287.471 556.196 285.916C558.814 276.725 559.905 267.101 559.409 257.558C559.303 255.529 559.114 253.451 558.242 251.616C557.371 249.781 555.682 248.209 553.66 248.018ZM537.757 598.616C538.498 597.304 539.306 595.958 540.574 595.148C541.842 594.344 543.707 594.259 544.717 595.376C540.488 599.335 537.784 604.607 535.163 609.775C533.86 612.342 532.556 614.91 531.253 617.483C529.724 617.66 529.636 615.249 530.239 613.838C532.455 608.625 534.967 603.542 537.757 598.616ZM449.675 352.116C448.238 353.949 447.111 356.932 448.991 358.306C454.414 348.919 464.412 342.325 475.175 341.037C476.18 340.917 476.285 339.304 475.488 338.682C474.69 338.059 473.561 338.166 472.565 338.344C463.603 339.949 455.291 344.95 449.675 352.116ZM479.462 362.149C478.368 363.059 476.402 361.987 476.486 360.567C476.57 359.146 478.488 358.269 479.674 359.055C480.859 359.841 480.883 361.826 479.781 362.726L479.462 362.149ZM345.669 301.65C345.623 303.129 347.556 304.26 348.798 303.456L349.088 303.655C350.271 302.767 350.189 300.652 348.914 299.901C347.639 299.151 345.715 300.171 345.669 301.65ZM504.022 598.356C506.047 594.318 510.846 592.424 515.349 592.097C517.762 591.919 520.179 592.087 522.596 592.256H522.597H522.597H522.598C524.69 592.402 526.783 592.548 528.876 592.47C536.471 592.182 543.903 588.798 549.105 583.258C552.16 580.005 556.957 575.739 560.153 578.855C562.515 567.841 567.799 557.473 575.318 549.091C575.723 548.64 576.138 548.182 576.558 547.718L576.561 547.715C582.299 541.382 589.009 533.976 585.984 526.253C585.083 523.94 583.406 522.094 581.721 520.24L581.721 520.239L581.721 520.239L581.72 520.238C580.745 519.165 579.767 518.088 578.936 516.917C576.67 513.723 575.86 508.614 579.061 506.36C568.341 503.407 557.617 500.454 546.895 497.508C544.289 496.789 541.604 496.031 539.488 494.353C535.991 491.57 534.755 486.886 533.725 482.541C530.7 469.773 527.664 456.924 526.982 443.824C526.561 435.723 527.046 427.621 527.531 419.516V419.516V419.515V419.515C527.875 413.758 528.22 407.999 528.24 402.237C528.288 388.362 526.237 373.919 518.466 362.425C520.205 354.384 511.393 348.51 503.767 345.184C503.714 345.507 503.527 345.805 503.231 345.986C502.692 346.314 501.994 346.136 501.673 345.586C501.219 344.481 501.217 343.311 501.535 342.085C501.654 341.623 501.793 341.158 501.949 340.69C502.599 338.748 503.688 336.876 504.182 336.077C504.011 335.481 503.768 335.061 503.509 334.76C503.121 334.313 502.674 334.249 502.497 334.244C500.701 334.725 499.247 335.623 498 336.655C498.002 337.261 497.529 337.777 496.904 337.829C496.847 337.834 496.791 337.835 496.735 337.831C496.291 338.292 495.881 338.771 495.497 339.256C494.469 340.558 493.634 341.9 492.993 343.139C491.732 345.575 491.143 347.512 491.143 347.512C491.089 347.832 490.791 348.047 490.478 347.991C490.164 347.936 489.954 347.632 490.008 347.312C490.008 347.312 490.133 345.101 491.088 342.295C491.594 340.809 492.338 339.172 493.404 337.641C494.053 336.708 494.832 335.822 495.734 335.038C495.732 334.854 495.722 334.675 495.7 334.5C495.632 333.957 495.481 333.487 495.315 333.084C494.75 331.704 494.001 331.142 493.577 330.924C491.656 332.176 490.247 334.118 489.065 336.143C488.585 336.964 488.151 337.802 487.733 338.62C487.281 339.504 486.845 340.359 486.465 341.175C486.113 341.931 485.79 342.633 485.509 343.279C484.67 345.203 484.202 346.513 484.202 346.513C484.14 346.837 483.823 347.05 483.494 346.99C483.166 346.929 482.949 346.617 483.01 346.294C483.01 346.294 483.104 344.159 483.835 341.286C484.069 340.365 484.387 339.381 484.786 338.374C485.033 337.749 485.317 337.118 485.647 336.5C486.295 335.287 487.09 334.112 487.996 333.042C489.407 331.376 491.09 329.976 493.043 329.105C493.247 329 493.483 328.973 493.706 329.028C493.706 329.028 494.882 329.312 495.907 331.006C496.244 331.562 496.547 332.287 496.853 333.215C496.881 333.298 496.909 333.384 496.939 333.47C496.972 333.568 497.008 333.667 497.048 333.767C497.075 333.837 497.103 333.907 497.131 333.978C498.551 333.045 500.215 332.36 502.12 332.024C502.147 332.018 502.175 332.013 502.202 332.01C502.228 332.006 502.254 332.004 502.281 332.002C502.281 332.002 503.567 331.903 504.662 333.035C505.227 333.619 505.801 334.536 505.987 336.077C506.03 336.329 505.965 336.588 505.808 336.788C505.808 336.788 503.729 338.986 503.103 341.461C502.933 342.138 502.949 342.83 503.089 343.455C503.171 343.82 503.386 344.11 503.622 344.397C503.709 344.546 503.76 344.707 503.777 344.869C508.988 343.852 514.423 346.747 517.816 350.878C521.317 355.139 523.092 360.52 524.794 365.765C527.425 373.873 530.073 382.056 530.929 390.537C531.646 397.637 531.091 404.773 530.537 411.903L530.537 411.903C530.368 414.078 530.2 416.252 530.067 418.424C528.683 441.063 531.261 463.939 537.652 485.703C540.292 494.692 551.705 496.959 561.009 498.083C570.097 499.18 581.238 502.802 582.574 511.661C582.036 510.8 579.663 511.311 579.668 512.749C579.668 514.329 581.115 515.41 582.408 516.376L582.409 516.377L582.41 516.377L582.412 516.378C582.513 516.454 582.613 516.529 582.712 516.604C587.402 520.164 590.021 526.305 589.25 532.139C588.42 538.513 584.079 543.652 579.869 548.637C579.247 549.374 578.627 550.108 578.022 550.842C569.315 561.393 562.788 573.746 558.98 586.891C556.818 585.597 555.381 583.167 555.284 580.652C550.109 588.922 540.769 594.443 531.024 594.972C528.835 595.092 526.636 594.979 524.439 594.865L524.437 594.865C521.284 594.701 518.137 594.538 515.036 595.07C509.775 595.971 504.361 599.852 504.324 605.189C496.787 592.659 496.587 576.053 503.821 563.353C505.823 559.831 507.325 553.808 503.337 553.116C503.049 546.629 508.823 541.396 514.824 538.92C517.403 537.856 520.103 537.108 522.801 536.361C526.381 535.37 529.956 534.38 533.231 532.655C538.975 529.63 543.782 523.064 541.705 516.911C539.468 510.286 530.702 508.287 523.948 510.097C520.297 511.072 516.923 512.797 513.546 514.524C510.676 515.992 507.804 517.461 504.756 518.472C502.174 519.329 499.482 519.853 496.795 520.376L496.794 520.376C492.789 521.156 488.795 521.932 485.198 523.809C479.189 526.938 474.893 535.216 479.139 540.501C481.607 543.571 476.438 547.367 472.528 546.883C471.602 546.769 470.645 546.577 469.683 546.385C466.582 545.763 463.429 545.132 461.11 547.047C473.868 548.954 486.813 549.601 499.698 548.98C499.566 551.149 496.676 551.744 494.502 551.711C472.803 551.378 451.123 549.804 429.604 546.994C425.435 546.452 421.249 545.864 417.053 545.275C390.477 541.544 363.482 537.755 337.86 544.982C342.45 549.673 348.76 552.639 355.301 553.188C350.381 554.252 344.858 555.213 340.634 552.475C336.409 549.738 336.164 541.703 341.088 540.671C366.102 535.412 391.553 539 417.091 542.6C430.378 544.473 443.69 546.349 456.975 546.985C457.042 546.99 457.109 546.993 457.178 546.994L456.975 546.985C452.927 546.694 451.755 540.587 454.032 537.123C455.426 535.005 457.469 533.487 459.522 531.962L459.522 531.961L459.522 531.961L459.522 531.961C460.881 530.952 462.244 529.94 463.425 528.748C459.477 527.435 455.148 529.016 451.574 531.139C450.521 531.767 449.492 532.447 448.463 533.126C446.002 534.751 443.543 536.374 440.755 537.287C436.803 538.587 431.788 537.986 429.478 534.523C427.166 531.067 430.077 525.083 434.14 525.978C445.671 528.506 457.824 516.754 455.685 505.145C455.252 502.793 454.361 500.57 453.468 498.344L453.468 498.344L453.468 498.344L453.468 498.343C452.672 496.359 451.876 494.373 451.404 492.295C449.179 482.494 454.284 473.236 459.299 464.14C460.689 461.619 462.072 459.111 463.29 456.607L463.563 456.047C467.798 447.353 474.434 433.731 466.464 428.707C444.591 414.914 437.369 401.879 442.795 404.531L460.532 398.451L477.022 392.798C480.789 391.507 485.396 387.572 482.768 384.58C481.916 383.609 480.562 383.283 479.294 383.04C478.389 382.867 477.478 382.708 476.565 382.55C473.062 381.941 469.549 381.331 466.331 379.855C462.275 377.993 458.665 374.366 458.332 369.915C457.867 363.698 463.064 359.963 468.484 356.068C472.544 353.151 476.729 350.144 478.754 345.937C479.972 343.406 480.321 340.557 480.581 337.761C481.674 325.988 481.423 313.794 477.096 302.792C472.768 291.789 463.775 282.113 452.263 279.424C436.211 275.676 419.972 286.118 409.78 299.077C394.577 318.404 388.203 344.412 392.746 368.58C386.478 358.594 387.37 345.724 390.125 334.26C396.265 308.714 412.948 283.586 438.287 276.653C431.829 272.69 423.343 273.1 416.472 276.294C409.601 279.487 404.146 285.121 399.639 291.213C388.835 305.817 382.664 323.797 382.222 341.959C380.922 343.204 379.411 340.614 379.494 338.816C380.602 314.923 392.147 291.698 410.525 276.393C398.545 277.544 387.943 287.405 385.927 299.271C383.79 298.935 383.647 295.88 384.331 293.828C387.427 284.538 395.723 277.614 404.948 274.334C414.174 271.054 424.257 271.017 433.981 272.156C449.027 273.921 464.699 279.064 474.003 291.021C483.853 303.681 484.493 321.083 483.485 337.093C483.091 343.331 481.888 350.568 476.397 353.553C472.517 355.662 468.55 357.892 465.807 361.353C463.064 364.813 461.816 369.838 463.941 373.709C466.066 377.581 472.208 378.956 475.042 375.57C474.957 376.32 474.872 377.07 474.788 377.82L474.765 378.016C474.679 378.782 474.592 379.547 474.506 380.313C478.512 378.711 483.523 380.177 486.033 383.687C488.544 387.196 488.315 392.413 485.506 395.688C486.781 393.395 481.957 392.702 480.399 394.814C480.038 395.303 479.696 395.855 479.352 396.412C478.208 398.259 477.034 400.156 475.026 399.972L475.495 395.579C470.731 398.016 465.967 400.453 461.203 402.89C470.659 403.308 480.223 400.809 488.266 395.819C490.586 394.38 494.656 393.41 495.138 396.097C479.664 403.803 462.116 407.29 444.872 406.085C444.976 409.258 447.724 411.654 450.398 413.365C465.1 422.773 484.803 423.774 500.382 415.901C492.449 423.586 480.405 424.65 469.379 425.287C473.22 434.606 470.479 445.312 466.455 454.554C465.443 456.881 464.348 459.185 463.252 461.491C459.994 468.346 456.732 475.209 455.628 482.672C454.153 492.641 457.89 504.387 467.216 508.202C466.094 503.286 471.223 499.671 475.448 496.693C475.664 496.541 475.878 496.39 476.088 496.241C486.734 488.695 492.854 475.872 494.345 462.907C495.835 449.942 493.12 436.812 488.874 424.473C492.584 425.092 494.142 429.487 494.877 433.176C499.233 455.054 498.563 481.065 481.531 495.476C480.713 496.169 479.845 496.867 478.964 497.576L478.962 497.577C473.674 501.831 467.887 506.486 469.113 512.801C471.165 523.365 464.968 534.954 455.041 539.109C454.738 541.304 456.577 543.552 458.786 543.689C460.994 543.832 463.101 541.833 463.077 539.619L466.012 544.107C468.159 544.708 470.048 542.657 471.334 540.834C471.963 543.251 474.77 544.858 477.173 544.172C471.004 534.236 479.316 518.962 491.012 518.746C502.487 518.537 513.669 512.181 519.719 502.427C520.1 504.139 520.479 505.844 520.859 507.556C526.175 506.504 531.883 506.432 536.808 508.699C541.732 510.959 545.653 515.931 545.475 521.346C545.189 530.087 535.586 535.131 527.22 537.652L527.177 537.665C518.82 540.184 509.03 543.134 506.064 551.339C508.496 551.365 510.092 554.174 509.859 556.598C509.659 558.687 508.551 560.533 507.464 562.347C507.289 562.637 507.116 562.926 506.947 563.216C500.817 573.707 499.712 586.995 504.022 598.356ZM582.653 512.305C582.713 512.039 582.677 511.825 582.574 511.661C582.606 511.873 582.633 512.087 582.653 512.305ZM435.847 529.362C434.545 529.617 433.149 529.944 432.274 530.937C431.4 531.936 431.478 533.824 432.719 534.295C433.664 533.197 434.88 532.335 436.229 531.812C435.684 533.981 438.794 535.961 440.53 534.549C446.133 529.989 452.971 526.965 460.114 525.88C460.301 525.852 460.489 525.824 460.678 525.797C462.27 525.565 463.899 525.328 465.214 524.423C466.684 523.411 467.523 521.209 466.437 519.798C465.764 518.921 466.019 517.78 466.272 516.646C466.362 516.244 466.451 515.842 466.499 515.454C467.002 511.377 462.785 508.47 459.14 506.582C458.545 508.285 458.396 510.089 458.247 511.896C458.109 513.569 457.971 515.243 457.478 516.839C456.181 521.039 452.547 524.175 448.55 525.991C445.009 527.606 441.155 528.344 437.325 529.077L437.314 529.079L437.303 529.082C436.817 529.175 436.331 529.268 435.847 529.362ZM386.827 402.099C386.958 399.014 384.749 395.676 381.954 394.971C377.43 393.827 366.522 392.037 358.951 391.717C361.079 385.972 363.207 380.228 365.335 374.484C367.347 380.585 370.84 386.195 375.43 390.699C375.193 387.162 373.418 384.045 371.635 380.917C370.811 379.471 369.986 378.022 369.311 376.527C367.174 371.801 367.291 364.941 372.04 362.837C379.922 359.344 384.329 347.968 378.391 341.726C376.431 339.666 373.787 338.517 371.146 337.371C370.232 336.974 369.318 336.577 368.433 336.142C364.993 334.453 361.564 331.526 361.556 327.702C367.695 326.901 372.917 322.314 375.562 316.73C378.208 311.146 378.552 304.707 377.731 298.586C377.701 298.364 377.67 298.141 377.639 297.915C377.139 294.264 376.583 290.207 378.996 287.495C384.084 281.779 381.537 272.889 378.723 265.779C378.039 264.051 376.879 262.002 375.02 262.135C373.937 262.214 373.079 263.054 372.384 263.886C368.712 268.279 366.638 273.974 366.627 279.694C362.352 279.834 358.871 275.903 357.813 271.768C356.965 268.448 357.253 264.992 357.539 261.554V261.554V261.554C357.609 260.71 357.679 259.868 357.733 259.028C358.482 247.232 355.743 235.235 349.947 224.926C349.245 223.679 348.499 222.453 347.753 221.227C345.99 218.331 344.228 215.436 343.061 212.265C341.399 207.751 341.12 202.383 343.814 198.396C346.137 194.96 350.054 193.265 353.95 191.58C355.215 191.033 356.477 190.487 357.682 189.883C363.791 186.818 368.891 181.792 372.039 175.735C373.015 173.858 373.82 171.688 373.205 169.664C372.59 167.64 369.935 166.203 368.251 167.488C371.127 171.821 369.023 177.954 365.195 181.48C362.166 184.27 358.333 185.913 354.519 187.549C353.512 187.981 352.507 188.412 351.518 188.864C346.78 191.026 341.985 194.089 340.129 198.945C339.714 200.032 339.437 201.212 339.161 202.389C338.541 205.028 337.927 207.645 335.772 209.124C332.674 211.25 327.642 208.661 327.581 204.91C326.719 207.613 325.857 210.316 324.996 213.019L324.979 213.07L324.847 213.483L323.486 217.751C325.472 213.907 329.993 211.534 334.293 212.078C341.083 212.938 345.289 219.785 347.871 226.107C352.854 238.304 355.605 251.404 355.95 264.57C356.139 271.774 347.218 275.132 340.109 276.415C337.403 272.209 333.873 268.534 329.775 265.659C325.805 262.873 320.046 267.298 319.687 272.127C319.329 276.956 322.292 281.328 325.048 285.313C327.804 289.299 330.607 293.844 329.881 298.631C329.19 303.176 325.516 306.6 322.073 309.656C309.602 320.724 296.662 333.089 293.175 349.375C290.205 363.241 294.655 377.5 299.055 390.984C286.353 385.674 276.246 374.524 272.226 361.383C268.206 348.243 270.348 333.363 277.914 321.882C277.775 324.176 280.539 325.778 282.798 325.33C285.058 324.881 286.786 323.101 288.263 321.338C307.068 298.883 308.322 263.582 291.158 239.854C292.692 239.358 294.226 238.861 295.76 238.364C294.512 237.556 295.055 235.419 296.372 234.73C297.689 234.04 299.289 234.354 300.725 234.741C315.979 238.843 329.296 249.63 336.453 263.682L337.316 263.224L340.036 261.78L340.355 267.52L340.703 273.788C343.181 269.299 343.751 263.801 342.246 258.902C340.831 257.507 338.063 258.022 337.247 259.832C328.655 243.766 311.52 232.579 293.323 231.155C293.861 233.318 291.831 235.437 289.637 235.857C287.444 236.277 285.219 235.497 283.122 234.729C294.773 246.348 301.438 262.788 301.159 279.221C300.882 295.655 293.666 311.861 281.63 323.083C282.645 321.212 280.157 319 278.07 319.444C275.985 319.887 274.6 321.825 273.55 323.677C261.253 345.377 269.203 376.136 290.484 389.198C291.531 389.84 292.612 390.454 293.697 391.068C297.674 393.323 301.687 395.597 304.098 399.394C292.489 405.467 279.263 403.981 265.891 402.479C254.987 401.254 243.986 400.018 233.685 402.859C231.182 403.55 228.183 405.635 229.205 408.016C240.658 402.592 253.816 403.999 266.886 405.398C281.063 406.914 295.137 408.42 306.82 401.184C305.92 406.971 305.765 414.338 310.973 417.04C313.408 418.302 316.319 418.054 319.049 417.773L323.183 417.348C327.674 416.887 332.167 416.425 336.658 415.963C340.757 415.542 342.984 410.336 341.621 406.455C340.259 402.575 336.514 400.028 332.715 398.435L337.297 396.26L341.879 394.085C339.964 398.489 345.528 402.274 350.054 403.902C352.933 404.937 355.811 405.972 358.689 407.007L358.766 407.035L358.844 407.063L363.34 408.679C368.443 410.514 373.967 412.369 379.18 410.87C383.167 409.724 386.651 406.235 386.827 402.099ZM329.927 307.414C333.881 316.438 342.291 323.387 351.914 325.583C354.923 326.271 359.081 328.487 357.461 331.108C353.786 331.56 350.112 332.012 346.438 332.464C343.97 332.767 341.367 333.125 339.411 334.658C337.455 336.19 336.536 339.327 338.184 341.186C333.754 339.605 330.236 335.691 329.143 331.126C326.314 337.451 333.495 344.022 340.327 345.256C342.913 345.723 345.58 345.815 348.237 345.906H348.237C352.599 346.056 356.936 346.205 360.852 348.011C358.446 358.072 348.202 365.653 337.853 365.033C327.505 364.412 318.245 355.662 317.063 345.386C314.06 350.064 316.892 356.422 320.947 360.23C322.58 361.764 324.402 363.095 326.222 364.424C328.92 366.395 331.611 368.36 333.664 370.971C339.348 378.205 338.237 389.824 331.284 395.856C329.483 397.418 330.462 400.508 332.265 402.068C333.105 402.794 334.075 403.352 335.043 403.908C336.153 404.546 337.262 405.183 338.172 406.073C339.875 407.74 340.444 411.032 338.387 412.239C335.855 413.725 333.195 410.538 331.977 407.87C332.768 410.428 331.13 413.474 328.555 414.231C325.98 414.987 322.949 413.313 322.223 410.735C321.736 409.002 320.693 406.242 319.286 407.368C321.315 410.207 319.516 414.871 316.104 415.621C312.691 416.37 309.094 412.891 309.741 409.465C310.702 404.365 307.89 399.499 305.252 394.936L304.996 394.493C304.85 394.239 304.705 393.986 304.561 393.734C295.708 378.236 291.946 358.915 298.601 342.357C304.502 327.677 317.476 317.206 329.927 307.414ZM374.07 342.318C375.24 343.03 376.826 343.996 377.531 344.777C383.156 350.999 374.433 365.081 366.002 360.02C364.129 369.879 360.937 379.489 356.537 388.514L356.519 388.55C356.011 389.592 355.482 390.679 355.507 391.837C355.533 393.008 356.344 394.255 357.516 394.328C359.108 394.427 360.878 394.487 362.732 394.549C371.982 394.861 383.338 395.243 385.224 401.023C385.126 401.826 384.695 402.585 384.056 403.083C383.767 402.256 382.539 401.955 381.898 402.555C382.827 403.84 382.63 405.806 381.465 406.883C380.299 407.96 378.32 408.006 377.105 406.983C376.638 406.59 376.209 406.05 375.787 405.517C374.851 404.339 373.944 403.197 372.714 403.756C373.641 404.796 373.627 406.54 372.684 407.564C371.739 408.589 369.999 408.75 368.882 407.917C362.665 403.274 354.728 401.741 347.092 400.335C344.642 399.884 344.798 396.324 345.658 393.99C349.132 384.561 353.681 375.525 359.188 367.115C361.376 363.774 363.095 359.626 363.416 355.907C363.748 352.054 363.718 345.594 359.752 345.186C361.783 340.658 368.984 338.258 372.768 341.475C372.97 341.647 373.465 341.949 374.07 342.318ZM339.608 367.702C339.98 367.673 340.35 367.645 340.716 367.61C348.482 366.862 355.806 362.407 360.028 355.862C360.439 361.316 357.164 365.819 353.829 370.404C351.28 373.908 348.697 377.459 347.698 381.519C346.927 384.652 344.737 387.212 342.615 389.645C341.272 391.185 339.929 392.725 338.586 394.265C337.457 393.729 338.007 392.045 338.602 390.948C342.467 383.834 340.712 374.15 334.595 368.836C336.094 367.971 337.862 367.835 339.608 367.702H339.608ZM350.358 335.466C351.424 334.884 352.489 334.303 353.684 334.169C356.111 333.898 358.56 335.88 358.794 338.305C359.028 340.73 357.001 343.142 354.567 343.337C349.669 343.728 344.707 343.312 339.943 342.111L340.586 339.819C340.752 339.229 340.918 338.638 341.083 338.048C341.505 336.545 343.146 334.69 344.191 335.852C345.336 337.127 347.421 336.893 348.98 336.177C349.446 335.963 349.902 335.714 350.358 335.466ZM406.53 331.777C404.601 339.565 407.122 342.578 408.386 336.067C413.264 310.956 434.745 289.913 460 285.506C458.765 283.388 455.66 283.608 453.287 284.241C430.733 290.254 412.129 309.167 406.53 331.777ZM362.501 338.929L361.535 338.387L361.609 338.248C360.667 336.527 360.067 334.62 359.855 332.67C362.255 334.228 364.982 337.048 363.45 339.462L362.501 338.929ZM370.381 275.553C371.248 271.244 372.12 266.907 375.837 265.008C376.44 267.186 377.042 269.363 377.645 271.541L378.951 276.262C376.611 279.442 375.667 283.608 376.407 287.484C374.308 285.463 371.647 284.03 368.801 283.389C370.839 285.995 372.909 288.659 374.029 291.77C375.148 294.88 375.175 298.57 373.281 301.282C373.048 301.614 373.255 302.062 373.446 302.419C375.635 306.504 375.338 311.797 372.705 315.612L372.738 315.666C373.052 316.178 373.144 316.329 372.201 317.918C371.977 320.465 368.652 321.447 366.127 321.015C365.411 320.893 364.693 320.71 363.974 320.528C362.158 320.066 360.344 319.604 358.583 320.121C359.812 322.243 361.943 323.825 364.333 324.389C355.899 326.167 347.327 321.908 340.59 316.543C337.088 313.755 333.755 310.49 332.145 306.319C329.664 299.891 332.16 291.916 337.865 288.036C339.495 286.928 338.636 284.387 337.522 282.764C335.941 280.459 333.973 278.185 331.28 277.421C328.588 276.657 325.127 278.12 324.736 280.885C323.68 277.422 323.116 273.811 323.066 270.192C323.056 269.494 323.082 268.744 323.498 268.183C324.371 267.009 326.221 267.434 327.524 268.103C333.09 270.958 337.344 276.249 338.928 282.289C339.475 284.376 340.994 287.231 342.89 286.193C342.468 284.556 342.046 282.919 341.625 281.282C341.487 280.749 341.354 280.163 341.591 279.666C341.825 279.173 342.358 278.904 342.859 278.683C345.802 277.38 348.912 276.45 352.088 275.922L352.428 277.318L352.768 278.715C356.218 278.857 359.645 279.539 362.887 280.728C361.453 282.166 363.61 284.799 365.6 284.383C367.59 283.968 368.761 281.907 369.35 279.966C369.775 278.569 370.078 277.063 370.381 275.553L370.381 275.553L370.381 275.553ZM334.35 285.488C334.027 285.384 333.705 285.282 333.374 285.332C332.556 285.456 332.253 286.321 331.95 287.186C331.648 288.051 331.345 288.916 330.528 289.042C328.35 286.653 327.595 283.062 328.626 280.001C331.743 280.036 334.753 282.026 336.002 284.875C336.116 285.387 335.427 285.723 334.909 285.637C334.72 285.606 334.535 285.547 334.35 285.488Z" fill="#00160A"/>
<path fill-rule="evenodd" clip-rule="evenodd" d="M460.107 365.508C460.592 364.186 465.464 363.517 465.95 364.402C466.437 365.286 463.198 366.635 463.025 370.815C463.008 371.231 461.691 370.815 461.691 370.815C461.691 370.815 459.499 367.163 460.107 365.508Z" fill="#FFB61D"/>
<path fill-rule="evenodd" clip-rule="evenodd" d="M360.138 346.269C360.138 346.269 360.697 345.195 361.753 344.021C362.886 342.764 364.629 341.418 367.018 341.369C368.416 341.34 370.009 341.802 371.876 342.938C372.799 343.499 373.788 344.21 374.832 345.13C377.713 347.521 378.028 350.877 376.96 353.806C375.782 357.041 373.01 359.83 369.831 360.421C369.278 360.515 366.707 360.459 364.63 359.305C363.737 358.809 362.981 358.067 362.526 357.13C362.269 356.6 362.187 355.989 362.203 355.3C362.153 354.657 361.592 354.176 360.95 354.226C360.308 354.277 359.828 354.839 359.878 355.481C360.231 357.565 361.385 358.949 362.881 359.904C363.523 360.314 364.207 360.659 364.903 360.941C367.152 361.848 369.495 362.061 370.071 361.986C373.908 361.522 377.476 358.435 379.087 354.648C380.71 350.838 380.329 346.373 376.642 343.035C375.436 342.007 374.308 341.194 373.232 340.597C370.78 339.237 368.653 338.856 366.87 339.045C364.778 339.268 363.126 340.233 361.905 341.418C359.889 343.371 359.045 345.814 359.045 345.814C358.92 346.116 359.063 346.463 359.365 346.588C359.667 346.714 360.013 346.571 360.138 346.269Z" fill="#FFB61D"/>
<path fill-rule="evenodd" clip-rule="evenodd" d="M366.091 348.87C366.091 348.87 366.797 348.926 367.667 349.087C368.071 349.162 368.464 349.333 368.841 349.538C369.052 349.652 369.22 349.818 369.34 350.073C369.475 350.36 369.618 350.704 369.629 351.178C369.63 351.157 369.715 352.435 368.36 352.628C368.155 352.658 367.924 352.693 367.673 352.65C367.574 352.632 367.478 352.595 367.379 352.549C367.061 352.4 366.842 352.15 366.503 351.874C365.916 351.67 365.271 351.975 365.065 352.556C364.857 353.137 365.166 353.775 365.753 353.979C366.197 353.969 366.522 353.956 366.893 353.93C367.061 353.919 367.211 353.912 367.365 353.926C368.491 354.028 369.267 354.05 369.887 353.826C371.647 353.193 371.923 351.363 371.923 351.363C371.923 351.356 371.924 351.349 371.924 351.342C372.105 350.248 371.942 349.408 371.639 348.766C371.436 348.337 371.147 347.988 370.805 347.731C370.161 347.246 369.367 346.985 368.568 347.001C368.143 347.009 367.743 347.049 367.366 347.154C366.425 347.415 365.773 347.783 365.773 347.783C365.47 347.869 365.295 348.184 365.383 348.484C365.47 348.784 365.788 348.957 366.091 348.87Z" fill="#FFB61D"/>
<path opacity="0.01" fill-rule="evenodd" clip-rule="evenodd" d="M435.841 374.858C435.841 374.858 436.246 375.105 437.141 375.312C437.413 375.376 437.692 375.371 438.035 375.364C438.272 375.359 438.512 375.311 438.768 375.24C438.994 375.177 439.224 375.078 439.447 374.95C439.692 374.809 439.93 374.644 440.159 374.436C440.865 373.795 441.27 372.831 442.066 371.774C442.128 371.692 442.202 371.633 442.291 371.576C442.553 371.41 442.708 371.353 443.002 371.201C443.317 370.645 443.114 369.943 442.551 369.633C441.988 369.323 441.276 369.523 440.962 370.079C440.977 370.408 441.111 370.601 441.005 370.887C440.923 371.11 440.715 371.252 440.552 371.4C440.011 371.896 439.415 372.08 438.885 372.303C438.696 372.382 438.51 372.419 438.337 372.487C438.156 372.559 437.98 372.616 437.822 372.691C437.481 372.854 437.236 373.052 436.977 373.177C436.33 373.488 436.029 373.704 436.029 373.704C435.706 373.652 435.402 373.869 435.35 374.188C435.298 374.507 435.519 374.807 435.841 374.858Z" fill="#FFB61D"/>
</svg>
