<svg width="750" height="750" viewBox="0 0 750 750" fill="none" xmlns="http://www.w3.org/2000/svg">
<rect width="750" height="750" fill="none"/>
<path fill-rule="evenodd" clip-rule="evenodd" d="M332.808 626.428C303.621 641.052 269.403 642.242 237.024 638.078C174.34 630.016 111.038 599.627 79.8703 544.647C66.4261 520.931 59.636 494.04 54.9054 467.193C48.5876 431.337 46.0354 392.791 61.9115 360.027C75.2954 332.406 100.133 312.307 124.879 294.15C150.814 275.12 178.909 256.619 210.851 252.816C302.993 250.991 293.659 285.605 389.887 230.553C417.861 214.549 501.031 242.02 529.132 250.991C557.233 259.961 612.686 287.636 650.292 320.511C666.011 334.253 680.51 349.98 689.345 368.898C702.572 397.223 701.93 430.22 695.759 460.866C689.534 491.777 676.019 523.927 648.567 539.44C636.164 546.449 621.863 549.455 607.664 550.605C548.363 555.409 485.283 530.092 431.017 554.48C393.867 571.175 369.222 608.184 332.808 626.428Z" />
<path fill-rule="evenodd" clip-rule="evenodd" d="M110.458 371.989C121.601 361.014 132.073 349.697 139.122 339.834C148.823 326.257 163.048 313.348 179.904 310.858C199.56 307.953 217.613 321.505 231.901 335.313C251.641 354.388 269.357 375.557 284.655 398.35C278.518 399.149 265.295 408.302 247.722 408.012C237.378 407.841 225.019 398.622 213.073 398.007C204.775 397.579 195.717 406.264 187.362 405.602C172.753 404.444 159.089 393.688 146.765 391.742C139.424 390.583 129.516 397.881 123.872 396.417C108.363 392.394 103.767 378.58 110.458 371.989Z" fill="white"/>
<path fill-rule="evenodd" clip-rule="evenodd" d="M444.599 542.754C492.757 526.875 544.943 545.278 595.648 544.598C618.112 544.297 642.125 539.34 657.59 523.043C623.718 503.1 598.008 471.385 579.28 436.825C560.552 402.266 548.24 364.668 536.028 327.306C519.96 318.144 499.279 333.638 481.642 328.066C472.629 325.218 461.866 317.483 455.398 324.376C451.494 328.536 444.223 326.089 440.426 321.83C436.628 317.572 434.513 311.912 430.231 308.142C425.949 304.371 417.822 303.896 415.643 309.169C411.871 318.297 407.895 327.725 400.663 334.451C393.431 341.177 381.965 344.424 373.495 339.345C366.878 335.378 363.755 327.658 359.901 320.975C356.047 314.292 354.543 308.283 346.88 309.169C320.992 363.713 301.664 417.332 269.817 468.625C256.132 490.666 179.562 574.687 135.072 563.859C90.5807 553.03 93.8816 544.598 78.8569 531.283C94.5077 563.124 122.155 588.176 153.724 604.369C185.292 620.562 220.649 628.348 256.017 631.16C269.973 632.27 284.127 632.619 297.865 629.92C354.161 618.855 390.11 560.72 444.599 542.754Z" fill="white"/>
<path fill-rule="evenodd" clip-rule="evenodd" d="M396.319 330.011C401.253 323.637 404.335 315.969 409.418 309.714C414.501 303.459 422.755 298.611 430.444 301.026C437.6 303.274 441.537 310.741 444.727 317.529C446.329 320.937 451.198 321.2 454.707 319.834C458.217 318.467 461.372 315.996 465.115 315.588C472.861 314.742 478.695 322.766 486.264 324.614C497.528 327.363 508.851 315.868 519.983 319.112C524.694 320.485 528.771 324.423 533.666 324.087C524.251 301.519 517.16 278.019 507.276 255.653C497.391 233.287 484.355 211.7 465.377 196.28C463.426 194.694 461.291 193.124 458.797 192.806C456.303 192.488 453.413 193.905 452.976 196.381C451.677 203.742 450.378 211.103 449.078 218.464C448.435 222.108 446.737 226.683 443.037 226.614C440.571 226.568 438.678 224.151 438.339 221.709C437.999 219.266 438.818 216.828 439.624 214.498C442.151 207.197 444.678 199.897 447.206 192.596C429.868 198.852 414.84 210.464 402.383 224.049C389.926 237.633 379.851 253.203 370.195 268.902C361.927 282.344 353.918 295.945 346.173 309.695C356.559 308.221 365.605 316.749 371.481 325.439C374.997 330.638 379.184 336.832 385.46 336.809C389.886 336.793 393.611 333.51 396.319 330.011Z" fill="white"/>
<path fill-rule="evenodd" clip-rule="evenodd" d="M463.493 172.904C462.343 172.535 461.136 172.115 460.353 171.196C459.226 169.873 459.301 167.939 459.437 166.207C460.777 149.087 462.118 131.966 463.458 114.846C463.614 112.862 465.56 111.4 467.528 111.107C469.496 110.814 471.476 111.41 473.377 111.999C485.637 115.799 497.897 119.599 510.157 123.399C513.15 124.326 513.309 128.48 512.679 131.549C512.049 134.617 511.576 138.557 514.255 140.181C532.135 151.021 551.134 160.013 570.853 166.968C572.128 167.418 572.222 169.356 571.331 170.373C570.441 171.39 569.02 171.718 567.698 172C547.678 176.272 528.088 182.556 509.318 190.726C506.692 191.869 503.263 192.914 501.281 190.847C499.87 189.376 500.006 187.077 499.886 185.042C499.767 183.007 498.869 180.571 496.848 180.314C485.533 178.876 474.352 176.392 463.493 172.904ZM505.496 138.179C508.239 133.836 506.284 127.27 501.612 125.135C490.532 120.072 478.903 116.209 466.995 113.637C468.974 116.691 468.869 120.596 468.694 124.231C468.024 138.187 467.334 152.272 463.69 165.76C463.375 166.927 464.876 167.685 466.055 167.949C476.616 170.31 487.256 172.318 497.951 173.967C497.07 163.659 496.189 153.351 495.308 143.043C495.21 141.898 495.119 140.701 495.556 139.637C496.263 137.914 498.225 136.977 500.088 136.924C501.95 136.871 503.75 137.53 505.496 138.179ZM503.2 146.304C504.041 158.398 504.883 170.493 505.724 182.587C505.798 183.648 505.922 184.818 506.706 185.536C523.754 178.459 541.415 172.859 559.427 168.821C539.909 163.217 523.444 147.886 503.2 146.304Z" fill="#FFB61D"/>
<path fill-rule="evenodd" clip-rule="evenodd" d="M332.808 626.428C303.621 641.052 269.403 642.242 237.024 638.078C174.34 630.016 111.038 599.627 79.8701 544.647C66.4259 520.931 59.6358 494.04 54.9052 467.192C52.3098 452.463 47.2695 430.403 56.4988 420.391C58.5609 418.154 116.492 371.5 139.121 339.834C148.823 326.257 163.048 313.348 179.904 310.858C199.56 307.953 217.613 321.505 231.901 335.313C251.641 354.388 269.357 375.557 284.654 398.35C267.796 391.188 255.663 376.304 244.465 361.809C233.267 347.315 221.696 332.149 205.303 323.98C188.909 315.812 166.142 317.172 155.495 332.076C130.118 367.598 98.0155 398.299 61.3965 422.067C58.6423 423.855 58.3933 427.72 58.4449 431.003C59.0401 468.9 63.2772 512.058 93.5945 534.805C118.917 553.804 155.675 551.325 183.413 536.068C211.151 520.811 231.437 495.005 248.853 468.569C299.94 391.023 333.112 302.385 388.023 227.497C400.646 210.281 415.517 193.065 435.854 186.575C449.424 182.245 453.229 164.929 452.979 150.687C452.729 136.445 451.382 120.252 461.271 110C459.187 133.684 457.103 157.368 455.018 181.052C485.392 196.132 503.133 228.239 516.154 259.552C535.488 306.049 548.612 354.991 568.967 401.051C589.322 447.111 618.216 491.368 660.926 518.046C680.696 492.308 691.97 451.105 691.97 427.558C680.696 415.271 664.681 396.048 645.945 387.393C623.609 377.076 599.106 395.164 581.164 411.999C591.08 396.904 602.985 381.016 620.532 376.741C634.697 373.29 649.857 378.437 661.609 387.065C673.362 395.692 682.322 407.501 691.107 419.135C699.99 422.067 701.93 430.22 695.758 460.866C689.533 491.777 676.019 523.927 648.567 539.44C636.164 546.449 621.863 549.455 607.663 550.605C548.363 555.409 485.283 530.092 431.017 554.48C393.866 571.175 369.222 608.184 332.808 626.428ZM444.598 542.754C492.757 526.875 544.943 545.277 595.647 544.598C618.112 544.297 642.125 539.339 657.59 523.043C623.717 503.1 598.007 471.385 579.279 436.825C560.552 402.266 548.24 364.668 536.027 327.306C519.96 318.144 499.278 333.638 481.641 328.066C472.629 325.218 461.865 317.483 455.398 324.376C451.493 328.536 444.222 326.088 440.425 321.83C436.628 317.572 434.513 311.912 430.231 308.142C425.949 304.371 417.822 303.896 415.643 309.169C411.871 318.297 407.895 327.725 400.663 334.451C393.431 341.177 381.965 344.424 373.494 339.345C366.877 335.378 363.754 327.658 359.9 320.975C356.046 314.292 349.663 307.61 341.999 308.496C316.111 363.039 287.152 416.125 255.304 467.418C241.619 489.459 227.135 511.48 207.534 528.477C187.933 545.475 162.337 557.101 136.501 554.737C115.652 552.829 96.7143 542.211 78.8565 531.283C94.5072 563.124 122.155 588.176 153.723 604.369C185.291 620.562 220.649 628.348 256.016 631.16C269.972 632.27 284.127 632.619 297.864 629.919C354.161 618.855 390.11 560.719 444.598 542.754ZM395.319 326.011C400.252 319.637 403.334 311.969 408.417 305.714C413.5 299.459 421.755 294.61 429.444 297.026C436.6 299.274 440.536 306.74 443.727 313.528C445.329 316.937 450.198 317.2 453.707 315.834C457.216 314.467 460.371 311.996 464.115 311.588C471.86 310.742 477.695 318.766 485.264 320.614C496.528 323.363 507.851 311.868 518.983 315.112C523.693 316.485 527.771 320.423 532.666 320.087C523.251 297.519 516.211 275.298 506.327 252.932C496.443 230.566 474.972 191.012 457.796 188.806C440.425 186.575 413.84 206.464 401.383 220.049C388.925 233.633 378.851 249.202 369.195 264.902C360.927 278.344 352.918 291.945 345.172 305.695C355.558 304.221 364.605 312.749 370.481 321.439C373.997 326.638 378.183 332.832 384.46 332.809C388.885 332.793 392.61 329.51 395.319 326.011Z" fill="#00160A"/>
<path fill-rule="evenodd" clip-rule="evenodd" d="M318.761 144.636C307.849 145.743 298.949 155.323 294.453 168.287C293.285 171.657 289.448 173.214 282.717 173.862L282.293 173.901C267.39 175.23 257.496 179.069 252.726 187.844L252.527 188.219C252.138 188.965 251.806 189.71 251.32 190.888L251.006 191.655C249.881 194.421 249.305 195.592 248.341 196.809C245.341 200.602 240.826 201.77 231.792 202.041L230.788 202.067C209.143 202.549 193.851 205.838 181.464 214.489C177.921 216.964 175.811 219.42 175.338 222.569C174.797 226.177 176.893 229.914 180.24 231.965C182.919 233.606 186.131 234.255 190.142 234.266C195.023 234.281 199.904 233.431 204.493 231.768L204.875 231.628C205.566 231.372 206.222 231.111 207.196 230.707L209.259 229.846C213.491 228.095 215.544 227.475 218.119 227.339C222.092 227.131 225.226 228.18 231.902 231.441L233.306 232.13C234.76 232.842 235.808 233.337 236.836 233.788L237.117 233.91C248.316 238.747 259.766 239.556 278.363 238.138L282.032 237.842L290.158 237.155C292.292 236.981 293.819 236.87 295.579 236.759L297.276 236.659C304.52 236.264 312.253 236.258 324.879 236.51L333.564 236.691C350.969 237.034 358.816 236.942 367.181 236.081C376.9 235.08 383.23 228.294 385.825 218.241C387.928 210.093 387.163 200.586 384.233 196.069C378.381 187.049 369.648 181.616 361.612 184.12C358.949 184.949 355.598 182.993 353.888 179.784C352.96 178.041 352.488 176.469 351.714 172.946L351.339 171.241C351.123 170.277 350.965 169.633 350.764 168.908C348.038 159.043 340.593 150.62 331.138 146.702C326.989 144.983 322.768 144.229 318.761 144.636ZM329.99 149.473C338.445 152.977 345.162 160.474 347.743 169.252L347.873 169.707C348.059 170.38 348.209 170.991 348.417 171.919L348.88 174.024C349.659 177.519 350.185 179.214 351.241 181.195C353.517 185.468 358.088 188.194 362.255 187.057L362.505 186.984C368.951 184.975 376.511 189.678 381.716 197.702C384.133 201.428 384.83 210.091 382.92 217.491C380.612 226.433 375.195 232.24 366.874 233.096L365.942 233.189C358.279 233.927 350.658 234.015 334.939 233.717L323.462 233.482C311.625 233.258 304.158 233.279 297.109 233.663L294.344 233.833C292.37 233.965 290.489 234.113 287.414 234.372L278.94 235.085C260.585 236.531 249.425 235.838 238.776 231.356L238.306 231.156C237.416 230.771 236.527 230.359 235.361 229.794L232.727 228.506C225.921 225.206 222.508 224.105 217.962 224.344C214.854 224.507 212.53 225.231 207.71 227.241L205.578 228.129C204.734 228.475 204.146 228.703 203.471 228.948C199.212 230.491 194.681 231.28 190.151 231.267C186.64 231.256 183.934 230.71 181.808 229.407C179.422 227.945 177.957 225.334 178.305 223.014C178.624 220.891 180.253 218.994 183.182 216.949C194.814 208.825 209.356 205.622 230.014 205.087L230.855 205.067C241.453 204.831 246.817 203.572 250.694 198.671C251.793 197.282 252.439 196.038 253.488 193.508L254.3 191.535C254.711 190.559 255.002 189.939 255.362 189.276C259.385 181.876 268.053 178.344 281.356 177.004L282.559 176.889C290.53 176.179 295.379 174.33 297.19 169.539L297.288 169.27C301.441 157.293 309.529 148.588 319.064 147.62C322.391 147.283 325.95 147.878 329.505 149.277L329.99 149.473Z" fill="#00160A"/>
<path fill-rule="evenodd" clip-rule="evenodd" d="M643.905 206.72L643.535 207.09C643.253 207.378 642.974 207.677 642.629 208.059L641.256 209.603C639.947 211.07 639.24 211.768 638.314 212.467C636.298 213.989 633.883 214.459 632.276 213.56C631.63 213.198 631.15 212.724 630.221 211.583L629.53 210.732C629.17 210.295 628.914 210.008 628.599 209.691C624.459 205.52 617.229 205.318 611.724 208.639C607.417 211.238 604.321 215.22 600.931 221.554C599.547 224.141 596.502 225.931 592.879 226.478C591.12 226.744 589.269 226.763 586.902 226.588L585.744 226.491L582.106 226.122C562.96 224.234 543.38 226.939 525.463 233.948C522.635 235.055 521.063 236.046 520.065 237.892C518.626 240.553 520.085 244.415 523.158 244.585C575.678 247.495 628.414 246.501 680.788 241.613L684.11 241.301L686.535 241.135C686.76 241.118 686.947 241.103 687.179 241.082L687.801 241.02C692.579 240.49 695.203 238.905 695.203 234.933C695.203 231.095 693.353 230.046 688.683 229.57L687.747 229.472C685.939 229.274 685.113 229.126 683.997 228.78C680.037 227.553 675.319 224.995 674.29 223.717C672.767 221.827 672.118 220.048 671.193 215.912L670.901 214.604C669.927 210.344 669.153 208.312 667.32 206.033C661.969 199.38 650.55 200.194 643.905 206.72ZM664.983 207.913C666.502 209.803 667.151 211.582 668.075 215.71L668.367 217.02C669.342 221.286 670.116 223.318 671.953 225.599C673.439 227.443 678.63 230.258 683.109 231.646L683.521 231.769C684.592 232.078 685.491 232.235 687.061 232.414L689.13 232.636C691.771 232.949 692.203 233.324 692.203 234.933C692.203 236.89 690.786 237.711 687.215 238.065L686.303 238.144L684.019 238.299C683.909 238.308 683.806 238.316 683.706 238.325L683.41 238.352C630.231 243.462 576.666 244.546 523.324 241.59C522.715 241.556 522.213 240.227 522.704 239.319C523.257 238.295 524.356 237.603 526.556 236.742C543.73 230.023 562.478 227.358 580.845 229.017L583.092 229.239L584.949 229.429C585.383 229.472 585.742 229.504 586.139 229.537C588.968 229.772 591.173 229.77 593.327 229.444C597.813 228.767 601.695 226.485 603.576 222.969C606.733 217.071 609.54 213.461 613.274 211.208C617.68 208.549 623.397 208.709 626.47 211.805L626.649 211.99C626.797 212.148 626.946 212.317 627.129 212.536L627.705 213.242C628.992 214.842 629.677 215.543 630.811 216.178C633.605 217.741 637.244 217.033 640.121 214.862C641.178 214.064 641.953 213.313 643.235 211.89L644.834 210.093C645.299 209.579 645.627 209.234 646.007 208.86C651.497 203.469 660.871 202.801 664.983 207.913Z" fill="#00160A"/>
<path fill-rule="evenodd" clip-rule="evenodd" d="M452.979 150.687C452.73 136.445 451.382 120.252 461.271 110C459.187 133.684 457.103 157.368 455.018 181.052C458.403 182.732 453.355 185.543 450.296 185.6C439.337 185.802 453.229 164.929 452.979 150.687Z" fill="#FFB61D"/>
</svg>
