<svg width="750" height="750" viewBox="0 0 750 750" fill="none" xmlns="http://www.w3.org/2000/svg">
<rect width="750" height="750" fill="none"/>
<path fill-rule="evenodd" clip-rule="evenodd" d="M393.705 88.8343C488.169 34.5576 603.867 64.9542 658.379 158.916C675.621 188.639 684.664 221.409 686.587 257.833C688.991 303.346 680.908 352.524 662.022 423.295L661.446 425.447C655.013 449.423 614.791 586.944 602.703 632.127L591.641 673.476C589.262 682.368 580.17 687.699 571.23 685.509L570.863 685.414L529.35 674.274C483.988 662.101 344.205 628.006 320.124 621.562L315.819 620.404C245.99 601.518 199.711 584.001 161.694 559.423C130.96 539.554 106.964 515.375 89.7212 485.653C35.2101 391.691 66.6083 276.776 161.072 222.499C203.909 197.886 254.937 190.225 302.435 198.858C318.664 153.605 350.842 113.462 393.705 88.8343Z" />
<path fill-rule="evenodd" clip-rule="evenodd" d="M201.171 262.951C203.123 264.121 205.049 265.339 207.043 266.43C207.612 266.741 208.382 266.684 209.059 266.796C208.794 266.119 208.646 265.361 208.245 264.776C204.283 259.003 200.301 253.242 196.257 247.526C195.724 246.772 194.893 245.304 194.099 247.563C193.265 249.938 192.144 252.21 191.228 254.558C191.064 254.977 191.097 255.815 191.365 256.009C194.5 258.275 197.697 260.455 201.171 262.951Z" fill="white"/>
<path fill-rule="evenodd" clip-rule="evenodd" d="M337.607 686L283.78 579.767C283.78 579.767 259.207 592.141 244.899 595.358C230.59 598.576 209.059 595.358 209.059 595.358C209.059 595.358 184.531 534.876 207.599 482.606C230.667 430.336 304.936 378.109 304.936 378.109C304.936 378.109 321.814 400.11 348.407 397.555C375 395 395.414 352.827 395.414 352.827L454.381 364.419C454.381 364.419 537.775 525.656 511.695 597.476C485.615 669.297 337.607 686 337.607 686Z" fill="white"/>
<path fill-rule="evenodd" clip-rule="evenodd" d="M309.893 380.065C309.893 380.065 314.756 361.977 314.029 355.235C313.05 346.163 304.507 334.739 311.153 327.746C316.764 321.843 331.634 332.447 342.309 328.881C353.679 325.084 378.308 302.2 378.308 302.2C378.308 302.2 383.249 330.211 385.198 338.892C387.084 347.293 390.841 353.117 390.084 357.756C387.61 372.905 375.052 385.714 361.921 392.417C323.822 411.863 309.893 380.065 309.893 380.065Z" fill="white"/>
<path fill-rule="evenodd" clip-rule="evenodd" d="M156.586 212.5C156.195 214.291 155.764 216.073 155.419 217.873C153.652 227.11 150.721 235.989 146.786 244.502C145.3 247.718 143.08 250.59 141.278 253.666C140.907 254.299 140.903 255.147 140.73 255.895C141.409 255.618 142.289 255.525 142.738 255.036C149.589 247.577 158.11 241.936 164.374 233.714C173.184 222.152 179.425 209.406 184.762 196.065C186.171 192.544 187.686 189.054 189.399 185.675C189.796 184.893 191.206 184.625 192.15 184.12C192.419 185.084 192.899 186.042 192.926 187.013C193.291 200.146 192.714 213.24 190.564 226.21C189.543 232.367 188.158 238.473 186.677 244.539C185.45 249.566 183.826 254.496 182.424 259.483C182.311 259.884 182.557 260.387 182.637 260.843C182.97 260.546 183.44 260.313 183.615 259.941C184.617 257.817 185.61 255.685 186.495 253.51C191.159 242.049 195.886 230.612 200.392 219.089C202.631 213.364 204.565 207.51 206.416 201.644C208.166 196.096 209.487 190.413 211.262 184.874C212.451 181.161 218.348 179.499 220.15 182.381C221.745 184.933 223.327 188.098 223.256 190.952C223.134 195.89 221.713 200.793 220.878 205.719C220.747 206.493 220.834 207.304 220.821 208.098C221.362 207.558 222.031 207.098 222.422 206.466C224.2 203.596 226.021 200.742 227.603 197.763C231.002 191.359 234.29 184.897 237.568 178.43C238.999 175.608 240.254 172.698 241.662 169.864C242.688 167.799 244.493 167.825 246.31 168.506C247.894 169.1 249.331 170.107 248.579 172.095C246.022 178.854 243.542 185.654 240.653 192.271C239.023 196.005 236.624 199.399 234.634 202.981C234.309 203.565 234.311 204.331 234.162 205.013C234.646 204.632 235.212 204.32 235.6 203.859C238.459 200.458 241.265 197.015 244.12 193.611C247.35 189.76 250.886 186.132 253.806 182.061C259.936 173.512 265.72 164.715 271.736 156.083C272.461 155.044 273.635 154.065 274.807 153.675C275.682 153.384 276.924 153.998 277.924 154.402C278.23 154.525 278.529 155.38 278.401 155.75C277.012 159.765 275.909 163.94 273.997 167.699C271.232 173.136 267.851 178.259 264.777 183.542C264.48 184.053 264.5 184.749 264.373 185.359C264.926 185.105 265.598 184.972 266.005 184.57C266.659 183.924 267.112 183.079 267.695 182.355C274.576 173.809 280.263 164.633 283.996 154.2C285.868 148.967 285.854 148.481 291.31 148.93C294.765 149.214 298.243 150.003 301.551 151.063C305.323 152.271 308.896 154.088 312.607 155.504C313.343 155.785 314.315 155.449 315.178 155.397C315.112 154.652 315.073 153.903 314.973 153.162C314.8 151.872 314.541 150.591 314.402 149.298C313.999 145.546 313.581 141.795 313.32 138.033C313.279 137.452 313.925 136.662 314.47 136.271C314.746 136.072 315.604 136.419 316.025 136.745C316.792 137.339 317.315 138.489 318.138 138.73C325.233 140.806 329.797 146.02 334.267 151.394C334.604 151.799 335.127 152.048 335.564 152.369C335.62 151.759 335.839 151.111 335.708 150.543C334.283 144.34 331.805 138.634 327.904 133.538C322.978 127.101 318.519 120.272 313.222 114.163C309.649 110.042 305.097 106.719 300.755 103.331C297.563 100.841 294.264 98.3241 289.608 99.5256C285.061 100.699 284.017 102.817 286.523 106.612C286.824 107.068 287.264 107.537 287.311 108.031C287.376 108.715 287.129 109.429 287.015 110.131C286.364 109.829 285.33 109.691 285.119 109.199C282.356 102.773 276.56 99.8564 270.765 97.3274C264.565 94.621 258.073 92.5244 251.6 90.5114C239.193 86.6535 226.509 83.9967 213.457 85.0435C208.337 85.4542 203.096 86.8241 198.342 88.7977C189.868 92.3152 183.095 98.3001 176.981 105.169C170.805 112.107 166.78 120.244 163.78 128.754C160.608 137.753 159.454 147.297 159.513 156.912C159.546 162.16 159.66 167.413 159.487 172.656C159.22 180.709 158.858 188.764 158.302 196.803C157.952 201.855 157.173 206.878 156.586 212.5Z" fill="white"/>
<path fill-rule="evenodd" clip-rule="evenodd" d="M236.956 295.803C231.326 290.368 225.716 284.912 220.049 279.514C218.763 278.289 217.424 276.625 215.864 276.283C212.494 275.544 209.572 278.147 207.912 282.039C206.971 284.247 208.224 287.992 210.679 289.393C213.57 291.042 216.548 292.803 219.72 293.64C224.961 295.023 230.386 295.716 235.741 296.652C236.008 296.699 236.354 296.292 236.956 295.803Z" fill="white"/>
<path fill-rule="evenodd" clip-rule="evenodd" d="M354.872 177.888C356.591 180.977 358.28 184.083 360.057 187.139C360.418 187.761 361.109 188.192 361.649 188.71C361.736 187.967 362.027 187.18 361.879 186.487C360.565 180.317 359.39 174.104 357.716 168.03C356.839 164.846 356.213 161.282 352.186 159.842C349.157 158.759 347.372 160.347 345.578 162.025C343.815 163.674 345.678 164.804 346.524 166.019C349.207 169.879 351.893 173.736 354.872 177.888Z" fill="white"/>
<path d="M318.5 553.633C317.948 551.348 316.676 549.234 316.991 547.391C317.729 543.064 321.571 543.073 325.454 545.116C326.846 545.848 327.901 547.2 329.198 548.15C329.742 548.549 330.512 548.64 331.18 548.872C331.054 548.204 331.16 547.311 330.765 546.905C327.914 543.973 326.627 540.291 326.38 536.431C326.262 534.588 327.208 532.267 328.455 530.854C329.881 529.238 333.335 530.091 335.461 532.198C343.297 539.962 351.059 547.801 358.899 555.56C359.799 556.452 360.956 557.145 362.102 557.714C364.654 558.98 366.112 558.359 367.191 555.722C369.156 550.918 375.412 546.199 379.999 546.668C385.211 547.202 387.71 550.104 385.049 555.34C383.721 557.951 381.749 560.227 380.136 562.699C376.039 568.981 377.129 573.675 383.136 578.32C394.344 586.987 407.857 590.362 420.708 595.287C426.38 597.461 432.175 598.956 438.316 598.814C442.92 598.707 447.68 599.406 452.092 598.453C457.612 597.261 461.533 592.876 464.928 588.606C468.698 583.867 472.531 578.906 474.949 573.429C478.409 565.593 480.918 557.289 483.252 549.021C485.269 541.878 486.676 534.541 487.972 527.222C488.905 521.954 489.142 516.566 489.819 511.247C490.513 505.792 491.292 500.344 492.236 494.927C492.355 494.245 493.7 493.776 494.478 493.208C494.756 494.011 558.34 515.156 558.34 515.156C558.34 515.156 565.601 515.156 561.92 522.249C556.156 533.357 551.172 544.581 546.011 555.845C541.195 566.356 536.921 577.121 531.975 587.569C526.143 599.888 518.53 611.164 510.275 621.983C506.782 626.56 503.344 631.278 499.228 635.257C492.493 641.766 485.181 647.692 475.952 650.461C468.566 652.677 461.032 652.7 453.44 651.63C450.808 651.259 448.109 651.362 445.479 650.982C440.897 650.32 436.307 649.626 431.789 648.633C421.822 646.444 412.176 643.25 403.32 638.09C399.504 635.866 395.723 633.448 392.368 630.598C387.65 626.589 383.186 622.247 378.906 617.768C374.291 612.939 370.168 607.638 365.518 602.846C363.505 600.771 360.814 599.265 358.244 597.837C352.059 594.4 345.551 591.499 339.575 587.743C334.296 584.424 329.559 580.241 324.588 576.433C324.357 576.256 324.167 576.026 323.963 575.814C322.448 574.244 320.39 572.396 321.81 570.33C322.431 569.427 325.346 570.098 327.22 570.06C327.936 570.046 328.652 570.049 329.367 570.044C329 569.491 328.636 568.935 328.264 568.385C325.01 563.565 321.755 558.745 318.5 553.633Z" fill="white"/>
<path fill-rule="evenodd" clip-rule="evenodd" d="M581.374 246.569C582.841 261.437 586.927 275.446 595.629 287.876C599.049 292.761 601.742 298.197 605.466 302.818C610.102 308.57 615.43 313.77 620.52 319.15C625.442 324.353 630.491 329.436 635.39 334.659C638.661 338.145 641.813 341.746 644.938 345.365C650.71 352.05 656.612 358.637 662.116 365.539C670.082 375.527 676.357 386.642 680.458 398.681C683.743 408.329 685.676 418.446 688.06 428.39C690.052 436.701 689.959 445.466 693.38 453.467C695.404 458.203 697.706 462.822 699.63 467.596C700.29 469.231 702.097 471.24 699.754 472.933C699.021 473.462 697.556 473.758 696.835 473.38C694.485 472.15 692.015 470.876 690.145 469.051C683.449 462.519 676.355 456.299 671.654 448.002C671.472 447.681 671.278 447.329 670.997 447.111C670.572 446.781 670.065 446.558 669.593 446.289C669.682 446.761 669.655 447.298 669.877 447.695C673.378 453.973 676.708 460.358 680.503 466.453C683.345 471.017 686.805 475.195 689.966 479.562C690.389 480.146 690.822 480.794 690.99 481.477C691.556 483.773 690.512 484.849 688.445 483.747C685.373 482.108 682.342 480.234 679.699 477.984C671.415 470.931 663.295 463.684 655.178 456.439C653.697 455.117 652.561 453.416 651.188 451.963C650.879 451.636 650.246 451.615 649.762 451.454C649.825 451.905 649.748 452.448 649.973 452.794C656.74 463.195 663.531 473.581 670.333 483.96C674.87 490.883 679.443 497.781 683.947 504.726C684.279 505.238 684.18 506.03 684.281 506.692C683.564 506.695 682.692 506.967 682.157 506.656C679.306 505.003 676.285 503.505 673.796 501.395C667.73 496.256 661.953 490.777 656.007 485.496C651.665 481.641 646.873 478.221 642.938 473.997C637.484 468.143 631.372 462.755 627.652 455.444C627.526 455.197 627.316 454.945 627.079 454.811C626.563 454.517 626.005 454.297 625.464 454.047C625.609 454.531 625.719 455.031 625.906 455.499C628.486 461.958 631.521 468.277 633.554 474.903C636.122 483.275 638.182 491.836 639.879 500.43C641.167 506.948 641.693 513.632 642.284 520.266C642.868 526.833 643.111 533.43 643.499 540.015C643.887 546.601 644.283 553.187 644.626 559.775C644.652 560.267 644.134 560.774 644.112 561.284C644.037 562.984 652.389 565.449 605.466 597.476C588.271 609.213 518.349 619.305 485.75 597.476C429.392 559.738 405.964 481.887 407.823 469.24C409.683 456.594 410.694 451.318 414.729 443.122C418.377 435.713 422.509 428.541 426.498 421.303C432.116 411.111 437.743 400.923 443.47 390.792C448.939 381.118 454.739 371.626 459.993 361.839C462.239 357.655 464.112 353.049 464.996 348.414C466.077 342.744 466.448 336.82 466.194 331.046C465.929 325.032 464.595 319.061 463.644 313.084C463.298 310.915 462.729 308.78 462.22 306.639C461.796 304.86 461.313 304.073 458.915 304.767C453.458 306.349 447.835 307.458 442.214 308.341C438.446 308.933 434.541 309.172 430.743 308.909C426.174 308.593 421.676 308.05 417.223 306.225C410.837 303.609 407.987 298.557 405.964 292.743C403.58 285.894 401.627 278.895 399.446 271.974C398.58 269.227 397.368 266.842 394.72 265.129C391.512 263.053 390.965 259.635 393.26 256.453C394.56 254.652 393.73 254.077 392.708 253.314C389.687 251.061 389.626 248.147 393.025 246.302C396.078 244.645 397.96 238.473 397.02 236.328C396.406 234.925 395.051 233.755 393.811 232.748C392.779 231.909 391.407 231.5 390.225 230.83C384.816 227.766 384.079 221.79 386.972 215.666C388.214 213.036 389.801 210.525 391.526 208.177C394.225 204.502 395.378 200.218 395.213 195.968C394.906 188.061 393.618 180.198 393.078 172.293C392.832 168.689 393.407 165.03 393.585 161.395C393.699 159.056 393.456 157.096 390.911 155.765C382.416 151.324 376.319 144.585 373.47 135.379C371.682 129.599 372.288 123.651 373.334 117.683C374.651 110.174 379.383 104.754 383.812 99.1396C389.495 91.9366 396.404 86.0665 404.115 81.0762C410.127 77.1847 416.727 74.9889 423.681 73.7903C431.285 72.4795 438.905 71.1566 446.571 70.3335C451.307 69.8249 456.163 70.5294 460.929 70.1857C476.185 69.0853 490.547 73.0546 504.901 77.3765C512.609 79.6975 520.145 82.421 526.581 87.3088C533.12 92.2736 539.743 97.2629 545.533 103.039C551.623 109.114 556.237 116.471 560.43 124.068C567.176 136.292 571.146 149.488 574.151 162.95C575.996 171.211 576.85 179.72 577.731 188.162C578.611 196.589 578.956 205.072 579.56 213.529C579.926 218.663 580.337 223.794 580.729 229.219C580.924 235.2 580.817 240.917 581.374 246.569Z" fill="white"/>
<path fill-rule="evenodd" clip-rule="evenodd" d="M449.619 387.619C446.029 394.429 436.341 435.193 440.05 474.808C444.726 524.752 463.729 575.035 465.11 577.362C465.464 577.958 465.141 578.955 465.131 579.767C464.452 579.46 463.551 579.333 463.129 578.815C460.226 575.254 457.475 571.57 454.576 568.006C451.527 564.258 448.249 560.692 445.286 556.88C441.23 551.661 437.132 546.445 433.494 540.936C428.199 532.919 423.033 524.793 418.301 516.436C413.233 507.488 409.991 497.784 408.89 487.51C408.24 481.443 407.403 475.279 407.823 469.24C408.454 460.189 410.694 451.318 414.73 443.122C418.377 435.714 422.509 428.541 426.498 421.303C432.116 411.111 437.743 400.923 443.471 390.792C448.94 381.118 451.821 383.442 449.619 387.619Z" fill="#E7EAEE"/>
<path fill-rule="evenodd" clip-rule="evenodd" d="M494.323 364.807C494.323 364.807 507.663 365.227 516.308 361.292C524.954 357.356 532.324 347.509 532.324 347.509C532.324 347.509 510.525 321.645 500.898 306.129C491.271 290.613 492.687 283.622 492.687 283.622C492.687 283.622 489.444 306.264 492.687 312.83C498.39 324.381 513.736 326.352 513.879 333.442C514.215 350.12 494.323 364.807 494.323 364.807Z" fill="#E7EAEE"/>
<ellipse cx="419.5" cy="221.417" rx="13.5" ry="5.94106" fill="#FFB61D"/>
<path fill-rule="evenodd" clip-rule="evenodd" d="M260.422 180.235C258.695 182.548 257.125 185 255.212 187.148C250.146 192.833 245.115 198.571 239.717 203.933C235.758 207.865 231.26 211.257 226.957 214.836C226.201 215.464 225.225 215.827 224.351 216.313C224.497 215.187 224.294 213.84 224.846 212.973C227.622 208.62 230.906 204.567 233.423 200.078C237.097 193.529 240.285 186.705 243.628 179.972C243.87 179.485 243.694 178.79 243.713 178.191C243.31 178.588 242.81 178.923 242.518 179.389C238.35 186.065 234.066 192.675 230.097 199.468C224.595 208.887 217.92 217.387 210.548 225.374C210.175 225.778 209.487 225.892 208.946 226.142C208.801 225.405 208.341 224.544 208.572 223.955C209.23 222.277 210.186 220.716 210.998 219.096C215.353 210.398 220.111 201.789 218.139 191.48C217.916 190.312 217.085 189.26 216.536 188.154C216.151 188.991 215.713 189.808 215.388 190.667C211.713 200.387 207.975 210.085 204.421 219.849C202.192 225.973 200.171 232.175 198.24 238.4C197.894 239.516 198.022 241.196 198.652 242.128C202.028 247.124 205.581 252.003 209.173 256.847C212.348 261.128 215.383 265.56 218.969 269.479C224.165 275.158 229.564 280.704 235.316 285.812C241.493 291.298 247.981 296.487 254.688 301.313C265.136 308.831 276.137 315.407 288.185 320.232C297.988 324.158 308.004 327.057 318.499 327.647C324.26 327.971 330.175 327.472 335.88 326.51C351.666 323.849 363.155 314.884 370.661 300.943C376.706 289.716 377.978 277.33 378.301 264.829C378.357 262.668 378.042 260.481 377.732 258.33C376.833 252.069 376.021 245.788 374.859 239.574C372.982 229.534 369.952 219.823 365.409 210.652C361.065 201.885 356.986 192.943 351.993 184.552C342.912 169.289 330.921 156.266 318.696 143.488C318.344 143.12 317.875 142.864 317.46 142.556C317.22 143.141 316.667 143.804 316.79 144.298C317.628 147.65 318.395 151.048 319.624 154.263C320.362 156.192 322.129 157.714 322.962 159.625C323.333 160.476 322.778 162.652 322.235 162.807C320.646 163.264 318.677 163.494 317.166 162.952C309.174 160.083 301.297 156.898 293.339 153.934C289.777 152.607 288.274 153.679 286.762 157.131C284.622 162.018 282.458 166.971 279.604 171.449C276.301 176.629 272.522 181.579 268.411 186.145C265.417 189.471 261.596 192.072 258.027 194.846C257.426 195.313 256.231 195.014 255.311 195.069C255.475 194.206 255.434 193.227 255.846 192.505C256.668 191.063 257.777 189.789 258.699 188.4C263.901 180.562 269.345 172.863 272.985 164.112C273.313 163.324 273.247 162.373 273.364 161.498C272.742 162.096 271.982 162.603 271.52 163.306C267.886 168.83 264.31 174.392 260.422 180.235Z" fill="white"/>
<ellipse cx="352.47" cy="227.338" rx="8.51058" ry="8.26193" fill="#FFB61D"/>
<ellipse cx="270.47" cy="287.338" rx="8.51058" ry="8.26193" fill="#FFB61D"/>
<path fill-rule="evenodd" clip-rule="evenodd" d="M198.052 235.674C197.031 241.83 200.158 248.473 198.677 254.539C197.45 259.566 195.826 264.496 194.424 269.483C194.311 269.884 194.557 270.387 194.637 270.843C194.97 270.546 195.44 270.313 195.615 269.941C196.617 267.817 197.61 265.685 198.495 263.51C203.159 252.049 207.886 240.612 212.392 229.089C214.631 223.364 216.565 217.51 218.416 211.644C220.166 206.096 233.713 210.793 232.878 215.718C232.747 216.492 232.834 217.304 232.821 218.097C233.362 217.558 234.031 217.098 234.422 216.466C236.2 213.596 238.021 210.742 239.603 207.762C243.002 201.359 255.542 195.653 252.653 202.271C251.023 206.005 248.624 209.399 246.634 212.981C246.31 213.565 246.311 214.331 246.162 215.013C246.646 214.632 247.212 214.32 247.6 213.859C250.459 210.458 253.265 207.015 256.12 203.611C259.35 199.76 262.886 196.132 265.806 192.061C271.936 183.512 287.909 173.94 285.997 177.699C283.232 183.136 277.598 194.972 278.005 194.57C278.659 193.924 279.112 193.079 279.695 192.355C286.576 183.808 292.263 174.633 295.996 164.2C297.868 158.967 297.854 158.481 303.31 158.93C306.765 159.213 310.243 160.003 313.551 161.063C317.323 162.271 320.896 164.088 324.607 165.504C325.343 165.785 326.315 165.449 327.178 165.397C327.112 164.652 327.073 163.903 326.974 163.162C326.8 161.872 326.541 160.591 326.402 159.298C325.999 155.546 325.581 151.795 325.32 148.033C325.279 147.452 325.925 146.662 326.47 146.27C326.746 146.072 327.604 146.419 328.025 146.745C328.792 147.338 329.315 148.489 330.139 148.73C337.233 150.806 339.65 153.826 335.749 148.73C334.399 146.966 335.742 124.634 321.399 127.489C320.079 127.752 331.361 142.136 330.139 142.556C328.588 143.088 313.184 133.804 311.715 134.561C308.859 136.034 316.566 151.524 313.551 153.675C310.07 156.159 294.462 147.377 289.875 150.438C287.498 152.025 266.729 184.099 263.111 185.847C260.117 187.293 276.956 152.333 274.807 153.675C270.304 156.488 234.422 207.762 232.821 207.762C231.219 207.762 248.561 166.452 244.081 169.285C237.946 173.165 226.159 205.921 220.917 208.161C216.38 210.099 222.277 179.994 215.168 184.159C208.802 187.888 198.379 233.702 198.052 235.674Z" fill="#E7EAEE"/>
<path fill-rule="evenodd" clip-rule="evenodd" d="M580.729 229.219C580.924 235.2 580.817 240.917 581.374 246.569C582.841 261.437 586.927 275.446 595.629 287.876C599.049 292.761 601.742 298.197 605.466 302.818C610.102 308.57 615.43 313.77 620.52 319.15C625.442 324.353 630.491 329.436 635.39 334.659C638.661 338.145 641.813 341.746 644.938 345.365C650.71 352.05 656.612 358.637 662.116 365.539C670.082 375.527 676.357 386.642 680.458 398.681C683.743 408.329 685.676 418.446 688.06 428.39C690.052 436.701 689.959 445.466 693.38 453.467C695.404 458.203 697.706 462.822 699.63 467.596C700.29 469.231 702.097 471.24 699.754 472.933C699.021 473.462 697.556 473.758 696.835 473.38C694.485 472.15 692.015 470.876 690.145 469.051C683.449 462.519 676.355 456.299 671.654 448.002C671.472 447.681 671.278 447.329 670.997 447.111C670.572 446.781 670.065 446.558 669.593 446.289C669.682 446.761 669.655 447.298 669.877 447.695C673.378 453.973 676.708 460.358 680.503 466.453C683.345 471.017 686.805 475.195 689.966 479.562C690.389 480.146 690.822 480.794 690.99 481.477C691.556 483.773 690.512 484.849 688.445 483.747C685.373 482.108 682.342 480.234 679.699 477.984C671.415 470.931 663.295 463.684 655.178 456.439C653.697 455.117 652.561 453.416 651.188 451.963C650.879 451.636 650.246 451.615 649.762 451.454C649.825 451.905 649.748 452.448 649.973 452.794C656.74 463.195 663.531 473.581 670.333 483.96C674.87 490.883 679.443 497.781 683.947 504.726C684.279 505.238 684.18 506.03 684.281 506.692C683.564 506.695 682.692 506.967 682.157 506.656C679.306 505.003 676.285 503.505 673.796 501.395C667.73 496.256 661.953 490.777 656.007 485.496C651.665 481.641 646.873 478.221 642.938 473.997C637.484 468.143 631.372 462.755 627.652 455.444C627.526 455.197 627.316 454.945 627.079 454.811C626.563 454.517 626.005 454.297 625.464 454.047C625.609 454.531 625.719 455.031 625.906 455.499C628.486 461.958 631.521 468.277 633.554 474.903C636.122 483.275 638.182 491.836 639.879 500.43C641.167 506.948 641.693 513.632 642.284 520.266C642.868 526.833 643.111 533.43 643.499 540.015C643.887 546.601 644.283 553.187 644.626 559.775C644.652 560.267 644.134 560.774 644.112 561.284C644.037 562.984 644.198 565.334 642.038 565.217C639.531 565.081 640.002 562.525 639.987 560.691C639.96 557.465 640.04 554.237 639.967 551.012C639.812 544.151 639.857 537.27 639.327 530.435C638.614 521.239 637.651 512.048 636.374 502.914C635.681 497.956 634.214 493.093 632.917 488.234C630.852 480.499 628.946 472.699 626.392 465.123C624.234 458.719 621.226 452.605 618.647 446.34C617.478 443.5 616.659 440.498 615.299 437.758C611.309 429.722 607.472 421.578 602.911 413.869C599.333 407.823 594.92 402.242 590.581 396.687C587.917 393.277 584.907 390.065 581.672 387.192C576.309 382.43 570.63 378.024 565.101 373.447C559.273 368.621 553.463 363.774 547.652 358.927C547.204 358.553 546.867 358.034 546.393 357.706C543.034 355.38 542.978 355.652 540.194 359.061C535.969 364.235 530.734 368.315 525.01 371.794C517.978 376.067 510.368 378.646 502.296 379.986C493.602 381.43 484.84 382.171 476.045 381.682C471.193 381.413 466.207 381.069 461.973 378.204C460.728 377.362 459.723 376.129 458.718 374.979C457.771 373.894 457.072 373.827 456.356 375.157C454.118 379.315 451.821 383.442 449.619 387.619C441.502 403.015 433.083 418.218 423.817 432.979C419.009 440.64 416.032 449.266 413.989 458.236C412.415 465.141 412.175 472.016 412.416 478.946C412.774 489.257 415.347 499.086 419.364 508.605C424.453 520.667 432.141 531.066 439.828 541.479C445.643 549.356 451.675 557.075 457.399 565.015C460.231 568.944 462.633 573.189 465.11 577.362C465.463 577.958 465.141 578.955 465.131 579.767C464.452 579.46 463.55 579.333 463.129 578.815C460.226 575.254 457.475 571.57 454.576 568.006C451.527 564.258 448.249 560.692 445.286 556.88C441.23 551.66 437.132 546.445 433.494 540.936C428.199 532.919 423.033 524.793 418.301 516.436C413.233 507.488 409.99 497.784 408.89 487.51C408.24 481.443 407.403 475.279 407.823 469.24C408.454 460.189 410.694 451.318 414.729 443.122C418.377 435.713 422.509 428.541 426.498 421.303C432.116 411.111 437.743 400.923 443.47 390.792C448.939 381.118 454.739 371.626 459.993 361.839C462.239 357.655 464.112 353.049 464.996 348.414C466.077 342.744 466.448 336.82 466.194 331.046C465.929 325.032 464.595 319.061 463.644 313.084C463.298 310.915 462.729 308.78 462.22 306.639C461.796 304.86 461.313 304.073 458.915 304.767C453.458 306.349 447.835 307.458 442.214 308.341C438.446 308.933 434.541 309.172 430.743 308.909C426.174 308.593 421.676 308.05 417.223 306.225C410.837 303.609 407.987 298.557 405.964 292.743C403.58 285.894 401.627 278.895 399.446 271.974C398.58 269.227 397.368 266.842 394.72 265.129C391.512 263.053 390.965 259.635 393.26 256.453C394.56 254.652 393.73 254.077 392.708 253.314C389.687 251.061 389.626 248.147 393.025 246.302C396.078 244.645 397.96 238.473 397.02 236.328C396.406 234.925 395.051 233.755 393.811 232.748C392.779 231.909 391.407 231.5 390.225 230.83C384.816 227.766 384.079 221.79 386.972 215.666C388.214 213.036 389.801 210.525 391.526 208.177C394.225 204.502 395.378 200.218 395.213 195.968C394.906 188.061 393.618 180.198 393.078 172.293C392.832 168.689 393.407 165.03 393.585 161.395C393.699 159.056 393.456 157.096 390.911 155.765C382.416 151.324 376.319 144.585 373.47 135.379C371.682 129.599 372.288 123.651 373.334 117.683C374.651 110.174 379.383 104.754 383.812 99.1396C389.495 91.9366 396.404 86.0665 404.115 81.0762C410.127 77.1847 416.727 74.9889 423.681 73.7903C431.285 72.4795 438.905 71.1566 446.571 70.3335C451.307 69.8249 456.163 70.5294 460.929 70.1857C476.185 69.0853 490.547 73.0546 504.901 77.3765C512.609 79.6975 520.145 82.421 526.581 87.3088C533.12 92.2736 539.743 97.2629 545.533 103.039C551.623 109.114 556.237 116.471 560.43 124.068C567.176 136.292 571.146 149.488 574.151 162.95C575.996 171.211 576.85 179.72 577.731 188.162C578.611 196.589 578.956 205.072 579.56 213.529C579.926 218.663 580.337 223.794 580.729 229.219ZM524.118 269.698C516.815 264.849 510.45 259.118 505.477 251.755C500.306 244.1 497.881 235.34 494.494 226.957C489.809 215.364 487.914 203.039 485.137 190.951C483.277 182.858 480.649 175.038 476.839 167.698C472.017 158.407 467.246 149.096 460.212 141.105C455.981 136.297 451.579 132.12 445.269 130.447C442.789 129.789 440.255 129.331 437.749 128.77C430.516 127.15 423.313 127.166 416.076 128.877C410.035 130.305 405.109 133.339 401.082 138.064C398.923 140.598 398.293 143.592 397.752 146.659C397.67 147.126 398.288 147.765 398.697 148.221C398.762 148.293 399.581 147.91 399.818 147.573C406.36 138.255 415.695 139.791 423.706 144.628C427.763 147.077 431.811 149.562 436.012 151.744C441.953 154.829 448.199 157.354 454.007 160.659C460.756 164.5 465.78 169.989 467.549 177.913C468.365 181.568 469.316 185.193 470.234 188.824C471.699 194.62 475.031 199.144 479.28 203.307C482.975 206.927 485.115 211.458 485.192 216.978C485.279 223.272 483.194 229.071 481.344 234.795C479.451 240.65 479.236 246.219 481.538 251.623C484.833 259.355 488.785 266.806 492.431 274.389C494.9 279.524 496.964 284.893 499.842 289.784C507.332 302.511 514.33 315.543 524.482 326.568C529.735 332.273 535.264 337.525 541.649 341.817C553.827 350.004 566.916 356.631 580.144 362.871C592.351 368.63 605.124 373.083 618.649 374.658C627.583 375.698 636.571 376.273 645.535 377.052C647.897 377.257 650.281 377.321 652.616 377.694C653.733 377.872 654.808 378.543 655.804 379.151C656.232 379.413 656.413 380.082 656.706 380.566C656.202 380.764 655.688 381.152 655.194 381.128C652.534 381 649.882 380.721 647.223 380.582C639.272 380.166 631.315 379.849 623.367 379.377C618.926 379.113 614.343 379.219 610.097 378.111C598.443 375.072 586.875 371.592 576.064 366.152C570.622 363.414 565.576 359.888 560.131 357.156C545.883 350.01 532.229 342.07 522.189 329.292C517.316 323.09 512.809 316.594 508.288 310.125C506.414 307.443 504.961 304.469 503.246 301.671C502.99 301.254 502.34 301.078 501.873 300.79C501.927 301.251 501.853 301.778 502.054 302.162C504.443 306.748 506.546 311.527 509.369 315.833C513.639 322.347 518.32 328.602 523.025 334.817C525.097 337.553 527.38 340.269 530.05 342.384C536.69 347.64 543.644 352.498 550.402 357.609C555.04 361.117 559.633 364.693 564.114 368.397C570.621 373.776 577.126 379.17 583.403 384.811C586.84 387.9 589.792 391.527 592.992 394.883C598.74 400.913 603.076 407.937 607.101 415.148C611.97 423.87 616.275 432.926 621.483 441.433C630.246 455.748 641.159 468.313 653.888 479.33C661.449 485.874 668.642 492.843 676.019 499.601C676.55 500.088 677.229 500.413 677.839 500.813C677.675 500.077 677.714 499.198 677.315 498.625C672.338 491.483 667.204 484.449 662.295 477.261C656.123 468.223 650.652 458.831 646.243 448.726C643.778 443.075 639.416 438.246 635.859 433.081C633.912 430.254 631.839 427.515 629.884 424.693C629.659 424.368 629.828 423.769 629.814 423.297C630.229 423.388 630.791 423.337 631.036 423.591C634.939 427.628 638.929 431.59 642.643 435.797C648.423 442.344 653.693 449.37 659.766 455.625C666.042 462.09 673.018 467.877 679.691 473.957C679.895 474.142 680.123 474.343 680.375 474.423C680.94 474.6 681.528 474.706 682.106 474.841C681.948 474.253 681.865 473.629 681.607 473.089C681.409 472.674 680.942 472.398 680.678 472.004C677.556 467.336 673.83 462.949 671.469 457.922C666.828 448.039 662.955 437.797 658.746 427.71C657.807 425.46 656.722 423.267 655.867 420.986C655.631 420.356 655.979 419.506 656.06 418.757C656.67 419.137 657.48 419.377 657.858 419.919C660.552 423.772 663.253 427.627 665.763 431.6C667.901 434.986 669.688 438.592 671.804 441.992C677.59 451.289 685.524 458.766 692.956 466.661C693.374 467.106 694.045 467.312 694.598 467.629C694.534 466.823 694.753 465.829 694.361 465.241C690.93 460.089 688.9 454.343 687.567 448.406C686.269 442.626 685.818 436.655 684.509 430.879C681.453 417.398 679.609 403.541 672.836 391.143C669.702 385.405 666.859 379.491 663.425 373.941C661.022 370.058 657.879 366.625 654.992 363.051C652.846 360.394 650.651 357.77 648.348 355.25C646.317 353.027 643.978 351.081 641.999 348.816C636.125 342.09 630.559 335.085 624.501 328.533C618.061 321.568 609.68 316.557 604.654 308.096C599.083 298.72 592.843 289.743 587.232 280.389C581.2 270.336 578.604 259.073 577.301 247.585C576.427 239.882 576.419 232.082 576.038 224.324C575.637 216.177 575.311 208.025 574.84 199.881C574.572 195.246 574.274 190.597 573.645 186.001C572.637 178.643 571.48 171.299 570.139 163.995C567.744 150.955 563.519 138.485 557.178 126.85C551.317 116.096 544.057 106.484 534.142 98.8843C524.153 91.2275 513.675 84.8783 501.505 81.2747C496.36 79.7511 491.056 79.0291 486.007 77.5793C479.332 75.6622 472.627 75.185 465.914 75.0633C457.482 74.9105 449.011 75.4568 440.599 76.1904C434.319 76.7382 428.054 77.8121 421.874 79.0914C409.546 81.6431 399.829 87.9501 394.796 99.9254C392.277 105.919 390.06 112.104 388.465 118.395C387.595 121.825 388.29 125.658 388.335 129.308C388.341 129.762 388.694 130.212 388.886 130.663C389.261 130.194 389.841 129.778 389.981 129.246C392.1 121.218 396.322 114.712 402.769 109.315C411.11 102.332 420.993 98.91 431.264 97.4694C441.053 96.0963 451.049 96.9732 460.603 100.653C464.58 102.184 468.965 102.632 473.127 103.718C474.445 104.062 475.641 104.876 476.893 105.474C475.714 106.049 474.582 106.779 473.342 107.146C472.443 107.412 471.352 107.396 470.434 107.162C467.264 106.353 464.117 105.444 460.99 104.481C453.464 102.165 445.939 99.9324 437.901 100.727C435.425 100.972 432.825 100.612 430.463 101.225C425.203 102.592 419.9 104.022 414.907 106.122C409.053 108.584 403.992 112.324 399.967 117.453C396.238 122.205 394.257 127.666 393.123 133.381C392.463 136.706 392.948 140.27 393.059 143.722C393.077 144.27 393.84 144.794 394.259 145.329C394.427 144.756 394.768 144.172 394.735 143.61C394.473 139.14 396.721 135.849 399.476 132.643C404.268 127.064 411.065 125.351 417.531 123.089C424.023 120.818 430.79 120.927 437.358 122.619C443.038 124.081 448.85 125.478 453.776 128.971C460.948 134.056 465.815 141.213 470.341 148.472C474.703 155.466 478.569 162.82 482.051 170.296C484.559 175.681 486.386 181.443 487.959 187.189C489.797 193.906 490.754 200.865 492.595 207.581C494.918 216.061 497.704 224.417 500.37 232.801C503.651 243.121 508.14 252.765 516.382 260.183C519.066 262.598 521.839 264.915 524.607 267.234C525.611 268.075 526.016 268.821 524.118 269.698ZM394.763 212.5C393.932 213.722 393.012 214.893 392.287 216.174C389.197 221.629 388.735 225.82 395.001 228.746C397.588 229.954 400.371 231.96 400.147 235.536C399.999 237.892 399.362 240.225 398.853 242.548C398.497 244.176 398.594 244.161 400.246 244.017C404.115 243.678 408.04 243.589 411.094 246.546C411.696 247.128 411.567 248.465 411.775 249.454C411.116 249.358 410.457 249.267 409.798 249.164C409.065 249.049 408.329 248.947 407.602 248.801C403.902 248.054 400.227 246.501 396.419 248.039C395.358 248.467 394.526 249.462 393.59 250.197C394.305 250.861 394.926 251.7 395.759 252.146C396.78 252.693 397.999 252.859 399.091 253.293C399.65 253.516 400.119 253.964 400.629 254.31C400.307 254.746 400.024 255.22 399.655 255.611C398.521 256.814 397.226 257.893 396.263 259.217C395.897 259.72 396.041 260.869 396.367 261.515C396.621 262.018 397.654 262.607 398.105 262.456C401.702 261.249 405.275 259.954 408.782 258.509C410.034 257.993 411.061 256.949 412.241 256.228C412.608 256.004 413.14 256.05 413.597 255.973C413.576 256.504 413.743 257.143 413.507 257.549C411.072 261.731 407.381 264.203 402.645 264.954C401.091 265.2 399.945 265.682 400.857 267.206C404.862 273.892 405.948 281.538 408.345 288.755C409.646 292.672 411.019 297.182 413.848 299.837C418.753 304.441 425.635 304.848 432.177 304.829C435.535 304.82 438.947 304.372 442.236 303.663C447.219 302.588 452.287 301.546 457.001 299.685C461.697 297.832 466.057 295.083 470.465 292.554C476.953 288.832 483.322 284.902 489.811 281.181C491.564 280.177 491.284 279.039 490.515 277.772C487.999 273.625 485.294 269.589 482.886 265.381C479.011 258.608 476.167 251.356 476.455 243.482C476.606 239.367 478.305 235.31 479.279 231.22C479.434 230.57 479.452 229.887 479.533 229.22C478.992 229.761 478.272 230.21 477.939 230.858C476.102 234.43 473.727 237.522 470.261 239.634C468.845 240.497 467.302 241.153 465.817 241.903C466.6 240.291 467.109 238.456 468.214 237.109C471.976 232.522 475.917 228.123 477.736 222.26C479.317 217.163 479.477 212.223 476.874 207.445C475.31 204.573 473.112 203.993 470.595 205.991C468.991 207.263 467.83 209.086 466.424 210.62C466.114 210.958 465.61 211.119 465.195 211.362C464.988 210.959 464.608 210.555 464.611 210.154C464.616 209.428 464.61 208.491 465.031 208.017C466.64 206.204 468.416 204.538 470.133 202.821C470.959 201.995 472.164 201.366 471.04 199.862C467.423 195.026 466.48 189.233 465.083 183.552C464.117 179.62 463.194 175.314 460.905 172.148C456.167 165.596 448.998 161.925 441.652 158.839C434.898 156.001 428.563 152.521 422.495 148.359C419.386 146.226 415.387 145.013 411.624 144.383C409.943 144.102 407.736 146.122 405.965 147.375C398.471 152.676 397.566 160.585 398.046 168.785C398.415 175.069 399.6 181.306 399.958 187.59C400.203 191.882 400.15 196.321 399.313 200.51C398.509 204.532 396.523 208.317 394.763 212.5ZM465.747 303.43C466.023 304.488 466.39 305.532 466.561 306.607C467.682 313.676 468.949 320.729 469.764 327.833C470.106 330.818 469.301 333.916 469.299 336.962C469.292 344.121 467.719 351.001 465.875 357.842C465.458 359.393 465.81 360.437 467.436 360.844C469.564 361.377 471.682 361.989 473.839 362.361C477.418 362.979 481.01 363.615 484.623 363.911C489.877 364.34 495.27 365.27 500.393 364.53C506.629 363.628 512.83 361.669 518.702 359.31C523.432 357.41 527.61 354.137 530.197 349.475C530.675 348.615 530.573 346.765 529.954 346.07C525.283 340.823 519.984 336.083 515.72 330.539C510.342 323.545 505.299 316.198 500.98 308.516C497.553 302.419 495.206 295.67 492.838 289.047C491.811 286.174 491.476 285.668 488.872 287.313C481.987 291.66 475.021 295.88 468.145 300.24C467.182 300.851 466.538 301.963 465.747 303.43ZM498.305 377.053C500 376.662 501.683 376.203 503.392 375.891C518.3 373.169 530.338 365.634 540.002 354.11C540.163 353.918 540.304 353.419 540.23 353.364C538.976 352.433 537.786 351.246 536.363 350.775C535.59 350.52 534.298 351.348 533.444 351.968C532.726 352.49 532.364 353.472 531.742 354.158C527.065 359.316 521.287 362.575 514.563 364.351C508.045 366.072 501.672 368.643 494.784 368.208C489.052 367.846 483.331 367.187 477.631 366.453C474.259 366.019 470.86 365.44 467.613 364.461C463.712 363.284 463.776 363.07 462.138 366.875C460.623 370.397 462.108 374.954 465.48 375.802C469.864 376.904 474.378 377.996 478.857 378.094C485.134 378.23 491.431 377.444 498.305 377.053ZM383.617 115.117C383.96 113.991 384.233 112.838 384.661 111.745C386.042 108.22 387.493 104.722 388.879 101.199C389.028 100.82 388.93 100.345 388.946 99.9147C388.533 100.1 388.006 100.182 387.726 100.49C386.973 101.317 386.334 102.247 385.634 103.124C380.674 109.335 377.281 116.172 376.543 124.25C375.577 134.844 380.716 142.447 388.203 148.981C388.475 149.218 389.12 149.026 389.591 149.034C389.555 148.596 389.628 148.111 389.465 147.727C388.619 145.735 387.684 143.782 386.833 141.792C383.247 133.409 381.087 124.844 383.617 115.117Z" fill="#00160A"/>
<path fill-rule="evenodd" clip-rule="evenodd" d="M381.27 306.069C382.307 312.875 383.115 319.434 384.449 325.885C385.627 331.585 387.269 337.202 388.955 342.781C389.654 345.092 390.672 347.472 392.166 349.319C393.2 350.599 395.231 351.519 396.929 351.742C404.4 352.723 411.963 353.071 419.397 354.251C429.781 355.9 440.083 358.07 450.412 360.06C451.741 360.316 453.127 360.645 454.283 361.299C454.982 361.695 455.29 362.783 455.774 363.561C455.113 363.952 454.433 364.709 453.795 364.676C448.183 364.384 442.57 364.056 436.976 363.527C432.511 363.105 428.069 362.417 423.625 361.792C419.756 361.248 415.898 360.621 412.034 360.042C408.074 359.448 403.99 359.283 400.187 358.16C396.589 357.098 395.681 358.693 394.071 361.411C390.319 367.749 386.344 374.062 381.637 379.698C376.281 386.113 370.13 391.923 362.634 395.953C354.196 400.49 345.376 403.225 335.631 401.12C332.472 400.439 329.255 400.029 326.102 399.325C319.915 397.943 315.641 393.901 312.04 388.96C310.391 386.698 308.7 384.465 306.97 382.263C305.927 380.936 304.922 380.84 303.316 381.871C297.087 385.869 290.564 389.419 284.424 393.543C279.085 397.13 273.91 401.026 269.031 405.215C261.962 411.284 254.95 417.468 248.412 424.093C237.83 434.817 228.548 446.697 220.671 459.517C215.233 468.367 211.354 478.071 207.479 487.761C204.333 495.626 202.282 503.726 200.751 511.918C199.688 517.607 200.192 523.59 200 529.442C199.984 529.931 200.029 530.422 199.993 530.908C199.302 540.341 201.319 549.454 203.583 558.471C205.884 567.637 208.844 576.637 211.232 585.784C212.096 589.09 214.306 589.807 217.024 589.979C224.386 590.445 231.751 590.924 239.122 591.141C247.036 591.373 254.713 589.771 262.367 587.844C267.846 586.464 273.551 585.957 278.665 583.256C278.99 583.085 279.59 583.433 280.062 583.539C279.92 584.08 279.954 584.895 279.607 585.116C277.848 586.244 276.097 587.538 274.148 588.186C267.436 590.421 260.699 592.632 253.858 594.413C249.649 595.508 245.246 595.943 240.903 596.415C237.193 596.817 233.445 596.962 229.711 597.003C227.351 597.029 224.985 596.656 222.622 596.456C221.112 596.329 220.25 596.15 221.035 598.429C224.93 609.733 228.318 621.215 232.351 632.467C234.692 638.998 237.868 645.235 240.749 651.567C246.102 663.332 251.216 675.219 257.009 686.764C260.727 694.172 265.475 701.062 269.776 708.175C271.527 711.071 273.396 713.9 275.027 716.861C275.393 717.525 274.99 718.614 274.941 719.507C273.882 719.327 272.403 719.527 271.839 718.902C269.717 716.547 267.632 714.082 266.005 711.374C260.42 702.076 254.47 692.934 249.726 683.212C244.467 672.436 240.329 661.109 235.801 649.983C232.702 642.369 229.527 634.771 226.841 627.009C224.763 621 223.319 614.764 221.73 608.594C220.761 604.833 220.355 600.896 219.042 597.275C218.651 596.198 216.083 595.519 214.444 595.358C208.793 594.802 207.682 594.086 205.766 588.43C203.18 580.798 200.419 573.214 198.176 565.481C196.944 561.237 196.267 556.752 195.965 552.333C195.331 543.029 194.607 533.681 194.879 524.379C195.091 517.152 196.456 509.909 197.845 502.777C199.958 491.935 205.121 482.167 209.348 472.068C214.266 460.32 221.246 449.837 229.39 440.228C237.965 430.11 246.833 420.157 256.369 410.957C268.424 399.326 281.817 389.242 296.204 380.547C300.453 377.979 304.564 375.172 308.613 372.299C309.453 371.704 310.158 370.356 310.218 369.314C310.556 363.44 311.159 357.517 310.728 351.681C310.352 346.599 308.713 341.613 307.657 336.579C307.055 333.712 304.666 333.039 302.394 332.539C284.654 328.636 269.004 320.269 254.206 310.087C250.982 307.869 248.006 305.287 244.752 303.119C243.605 302.355 241.976 302.053 240.553 302.013C235.831 301.88 231.07 302.313 226.384 301.879C219.683 301.26 213.765 298.235 208.492 294.211C205.371 291.83 202.977 288.518 203.594 284.301C204.234 279.927 206.532 276.412 210.758 274.488C212.018 273.914 213.296 273.378 214.565 272.825C212.927 271.587 211.409 269.513 209.63 269.258C202.494 268.235 197.22 263.968 191.738 259.963C191.504 259.792 191.23 259.59 191.126 259.34C189.462 255.357 189.139 258.507 188.45 259.83C184.677 267.066 180.906 274.304 177.101 281.524C176.798 282.098 176.33 282.694 175.783 283.008C174.695 283.632 173.499 284.066 172.347 284.578C172.101 283.117 171.287 281.466 171.701 280.225C174.334 272.335 177.554 264.632 179.955 256.678C181.989 249.94 183.593 243.01 184.643 236.052C186.034 226.841 186.711 217.521 187.671 208.245C187.915 205.887 188.104 203.522 188.241 201.155C188.276 200.546 188.019 199.919 187.896 199.3C187.432 199.791 186.687 200.212 186.548 200.781C184.692 208.372 180.957 215.158 177.078 221.781C173.357 228.134 169.126 234.232 164.667 240.098C158.398 248.346 150.048 254.419 141.891 260.649C139.796 262.249 137.887 264.114 135.7 265.567C134.028 266.679 131.747 267.483 130.441 265.344C129.782 264.264 129.873 261.903 130.641 260.901C137.893 251.446 143.031 240.946 146.596 229.644C149.088 221.742 151.247 213.763 151.919 205.442C152.367 199.905 153.27 194.402 153.607 188.861C154.167 179.648 154.57 170.42 154.793 161.193C155.088 149.001 156.092 136.919 160.749 125.518C164.043 117.455 168.245 109.869 173.839 103.058C179.431 96.2509 186.08 90.7105 193.654 86.4606C197.853 84.1042 202.674 82.5904 207.4 81.5151C211.793 80.5159 216.439 80.2141 220.962 80.2953C229.641 80.4511 238.165 81.9198 246.548 84.2853C254.934 86.6514 263.268 89.1255 271.034 93.1496C273.064 94.2015 274.871 95.6777 276.825 96.8855C277.993 97.6072 279.189 98.5615 280.454 96.8649C285.733 89.7874 297.651 90.5652 303.836 96.3848C307.382 99.7215 310.469 103.6 314.256 106.614C319.309 110.637 323.002 115.713 326.54 120.905C331.102 127.597 335.062 134.703 337.079 142.613C337.875 145.732 337.893 149.123 337.79 152.376C337.669 156.232 340.264 158.317 342.483 160.699C342.603 160.828 343.666 160.327 344.064 159.906C346.086 157.77 348.306 156.535 351.45 156.374C356.208 156.129 359.52 158.393 361.192 162.198C363.66 167.811 365.612 173.722 367.094 179.678C368.873 186.83 369.987 194.152 371.271 201.421C371.856 204.735 371.714 208.234 372.681 211.413C374.493 217.372 376.958 223.128 378.993 229.024C381.642 236.698 383.429 244.59 384.179 252.679C384.698 258.274 385.299 263.889 385.305 269.496C385.313 278.29 383.352 286.82 381.3 295.354C380.51 298.64 381.235 302.291 381.27 306.069ZM260.422 180.235C258.695 182.548 257.125 185 255.212 187.148C250.146 192.833 245.115 198.571 239.717 203.933C235.758 207.865 231.26 211.257 226.957 214.836C226.201 215.464 225.225 215.827 224.351 216.313C224.497 215.187 224.294 213.839 224.846 212.973C227.622 208.619 230.906 204.567 233.423 200.078C237.097 193.529 240.285 186.705 243.628 179.972C243.87 179.485 243.694 178.79 243.713 178.191C243.31 178.588 242.81 178.923 242.518 179.389C238.35 186.065 234.066 192.675 230.097 199.468C224.595 208.887 217.92 217.387 210.548 225.374C210.175 225.778 209.487 225.892 208.946 226.142C208.801 225.405 208.341 224.544 208.572 223.955C209.23 222.277 210.186 220.716 210.998 219.096C215.353 210.398 220.111 201.789 218.139 191.48C217.916 190.312 217.085 189.26 216.536 188.154C216.151 188.991 215.713 189.808 215.388 190.667C211.713 200.387 207.975 210.085 204.421 219.849C202.192 225.973 200.171 232.175 198.24 238.4C197.894 239.516 198.022 241.196 198.652 242.128C202.028 247.124 205.581 252.002 209.173 256.847C212.348 261.128 215.383 265.56 218.968 269.479C224.165 275.158 229.564 280.704 235.316 285.812C241.493 291.298 247.981 296.487 254.688 301.313C265.136 308.831 276.137 315.407 288.185 320.232C297.988 324.157 308.004 327.057 318.499 327.647C324.26 327.971 330.175 327.472 335.88 326.51C351.666 323.848 363.155 314.884 370.661 300.943C376.706 289.716 377.978 277.33 378.301 264.829C378.357 262.668 378.042 260.481 377.732 258.33C376.833 252.069 376.021 245.788 374.859 239.574C372.982 229.534 369.952 219.823 365.409 210.652C361.065 201.885 356.986 192.943 351.993 184.552C342.912 169.289 330.921 156.266 318.696 143.488C318.344 143.12 317.875 142.864 317.46 142.556C317.22 143.141 316.667 143.804 316.79 144.298C317.628 147.65 318.395 151.048 319.624 154.263C320.362 156.192 322.129 157.714 322.962 159.625C323.333 160.476 322.778 162.652 322.235 162.807C320.646 163.264 318.677 163.494 317.166 162.951C309.174 160.083 301.297 156.898 293.339 153.934C289.777 152.607 288.274 153.679 286.762 157.131C284.622 162.018 282.458 166.971 279.604 171.449C276.301 176.629 272.522 181.579 268.411 186.145C265.417 189.471 261.596 192.072 258.027 194.846C257.426 195.313 256.231 195.014 255.311 195.069C255.475 194.206 255.434 193.227 255.846 192.505C256.668 191.063 257.777 189.789 258.699 188.4C263.901 180.562 269.345 172.863 272.985 164.111C273.313 163.324 273.247 162.373 273.364 161.498C272.742 162.096 271.982 162.603 271.52 163.306C267.886 168.83 264.31 174.392 260.422 180.235ZM156.586 212.5C156.195 214.29 155.764 216.073 155.42 217.873C153.652 227.11 150.722 235.989 146.786 244.502C145.3 247.717 143.081 250.589 141.278 253.666C140.907 254.299 140.903 255.146 140.73 255.895C141.41 255.618 142.289 255.524 142.738 255.036C149.589 247.576 158.11 241.936 164.374 233.714C173.184 222.152 179.425 209.406 184.762 196.064C186.171 192.544 187.686 189.054 189.399 185.675C189.796 184.893 191.206 184.625 192.15 184.12C192.42 185.084 192.899 186.042 192.926 187.013C193.291 200.146 192.714 213.24 190.564 226.21C189.543 232.366 188.158 238.473 186.677 244.539C185.45 249.566 183.826 254.496 182.424 259.482C182.311 259.884 182.557 260.387 182.637 260.843C182.971 260.546 183.44 260.313 183.616 259.941C184.617 257.817 185.61 255.685 186.495 253.51C191.159 242.049 195.886 230.612 200.392 219.089C202.631 213.363 204.565 207.51 206.416 201.644C208.166 196.096 209.488 190.413 211.262 184.874C212.451 181.161 218.349 179.499 220.15 182.381C221.745 184.933 223.327 188.098 223.257 190.951C223.134 195.89 221.713 200.793 220.878 205.718C220.747 206.492 220.834 207.303 220.821 208.097C221.362 207.558 222.031 207.098 222.422 206.466C224.2 203.596 226.022 200.741 227.603 197.762C231.002 191.359 234.29 184.897 237.569 178.43C238.999 175.608 240.254 172.697 241.662 169.864C242.689 167.799 244.493 167.824 246.31 168.506C247.894 169.099 249.331 170.107 248.579 172.095C246.022 178.854 243.542 185.653 240.653 192.271C239.023 196.004 236.624 199.399 234.634 202.981C234.31 203.565 234.311 204.331 234.162 205.013C234.646 204.632 235.212 204.32 235.601 203.858C238.459 200.458 241.266 197.014 244.12 193.611C247.35 189.76 250.886 186.132 253.806 182.06C259.936 173.512 265.72 164.715 271.737 156.083C272.461 155.044 273.636 154.065 274.807 153.675C275.682 153.384 276.924 153.997 277.925 154.402C278.23 154.525 278.529 155.379 278.401 155.75C277.012 159.765 275.909 163.94 273.997 167.699C271.232 173.136 267.851 178.259 264.777 183.541C264.48 184.053 264.5 184.749 264.373 185.359C264.926 185.105 265.598 184.972 266.005 184.57C266.659 183.924 267.112 183.079 267.695 182.355C274.576 173.808 280.263 164.633 283.996 154.2C285.868 148.967 285.854 148.481 291.31 148.929C294.765 149.213 298.243 150.003 301.551 151.062C305.323 152.27 308.896 154.088 312.607 155.504C313.344 155.785 314.315 155.448 315.178 155.397C315.112 154.652 315.073 153.903 314.974 153.162C314.8 151.871 314.541 150.591 314.402 149.297C313.999 145.546 313.581 141.795 313.32 138.033C313.28 137.452 313.925 136.662 314.47 136.27C314.746 136.072 315.604 136.419 316.025 136.745C316.792 137.338 317.316 138.489 318.139 138.73C325.233 140.806 329.797 146.02 334.268 151.394C334.604 151.798 335.128 152.048 335.564 152.369C335.621 151.758 335.839 151.11 335.708 150.543C334.283 144.34 331.805 138.634 327.905 133.537C322.978 127.1 318.519 120.271 313.223 114.163C309.649 110.042 305.097 106.719 300.755 103.331C297.564 100.841 294.264 98.3239 289.608 99.5254C285.061 100.699 284.017 102.816 286.523 106.612C286.824 107.068 287.265 107.537 287.311 108.03C287.376 108.715 287.129 109.429 287.016 110.131C286.364 109.828 285.33 109.69 285.119 109.199C282.356 102.773 276.56 99.8562 270.766 97.3272C264.565 94.6207 258.073 92.5242 251.6 90.5112C239.194 86.6533 226.509 83.9965 213.457 85.0433C208.337 85.4539 203.096 86.8239 198.342 88.7975C189.869 92.315 183.095 98.2999 176.981 105.169C170.805 112.107 166.78 120.244 163.781 128.754C160.609 137.753 159.454 147.297 159.514 156.912C159.546 162.16 159.66 167.413 159.487 172.656C159.22 180.709 158.858 188.764 158.302 196.802C157.952 201.855 157.173 206.877 156.586 212.5ZM384.203 343.321C380.56 331.951 378.103 320.344 377.136 308.429C377.073 307.646 376.617 306.895 376.343 306.129C375.835 306.66 375.141 307.105 374.846 307.736C371.878 314.075 366.965 318.696 361.678 323.049C351.995 331.023 340.548 334.384 328.383 335.267C322.838 335.669 317.189 334.603 311.584 334.256C311.084 334.225 310.479 334.481 310.081 334.801C309.869 334.972 309.829 335.663 309.998 335.954C314.745 344.156 315.768 353.216 316.148 362.425C316.192 363.495 315.904 364.656 316.225 365.623C317.461 369.34 316.994 372.511 313.782 375.026C312.821 375.779 311.729 376.427 310.962 377.344C310.397 378.019 309.717 379.42 310.02 379.87C312.564 383.643 314.648 388.253 318.191 390.687C322.372 393.56 326.927 396.387 332.489 397.133C340.635 398.226 348.226 397.239 355.557 393.675C362.803 390.152 368.97 385.313 374.604 379.502C379.892 374.048 384.21 367.975 388.097 361.574C389.557 359.169 390.988 356.413 388.977 353.173C387.133 350.204 385.963 346.817 384.203 343.321ZM236.956 295.803C231.326 290.368 225.715 284.912 220.049 279.514C218.763 278.289 217.424 276.625 215.864 276.283C212.494 275.544 209.571 278.147 207.912 282.039C206.97 284.247 208.224 287.992 210.679 289.393C213.57 291.042 216.548 292.803 219.719 293.64C224.961 295.023 230.385 295.716 235.741 296.652C236.008 296.699 236.354 296.292 236.956 295.803ZM354.871 177.888C356.591 180.977 358.28 184.083 360.057 187.139C360.418 187.761 361.109 188.191 361.649 188.71C361.736 187.967 362.027 187.18 361.879 186.486C360.565 180.317 359.39 174.104 357.716 168.03C356.839 164.845 356.213 161.282 352.186 159.842C349.157 158.759 347.372 160.347 345.578 162.025C343.815 163.674 345.678 164.803 346.523 166.019C349.207 169.879 351.893 173.736 354.871 177.888ZM201.171 262.951C203.123 264.121 205.048 265.339 207.043 266.43C207.612 266.741 208.382 266.684 209.059 266.796C208.794 266.119 208.646 265.36 208.245 264.776C204.282 259.003 200.301 253.242 196.257 247.525C195.723 246.771 194.893 245.303 194.099 247.563C193.265 249.937 192.144 252.209 191.228 254.557C191.064 254.977 191.097 255.815 191.365 256.009C194.5 258.275 197.697 260.455 201.171 262.951Z" fill="#00160A"/>
<path fill-rule="evenodd" clip-rule="evenodd" d="M318.5 553.633C317.948 551.348 316.676 549.235 316.991 547.391C317.729 543.064 321.571 543.073 325.454 545.116C326.846 545.848 327.901 547.2 329.198 548.15C329.742 548.549 330.512 548.641 331.18 548.872C331.054 548.204 331.16 547.311 330.765 546.905C327.914 543.973 326.627 540.291 326.38 536.431C326.262 534.588 327.208 532.267 328.455 530.854C329.881 529.238 333.335 530.092 335.461 532.198C343.297 539.962 351.059 547.801 358.899 555.561C359.799 556.452 360.956 557.146 362.102 557.714C364.654 558.98 366.112 558.359 367.191 555.722C369.156 550.918 375.412 546.199 379.999 546.668C385.211 547.202 387.71 550.104 385.049 555.341C383.721 557.951 381.749 560.227 380.136 562.699C376.039 568.981 377.129 573.675 383.136 578.32C394.344 586.987 407.857 590.363 420.708 595.287C426.38 597.461 432.175 598.956 438.316 598.814C442.92 598.707 447.68 599.406 452.092 598.453C457.612 597.261 461.533 592.876 464.928 588.607C468.698 583.867 472.531 578.906 474.949 573.429C478.409 565.593 480.918 557.289 483.252 549.022C485.269 541.878 486.676 534.541 487.972 527.222C488.905 521.954 489.142 516.566 489.819 511.247C490.513 505.792 491.292 500.344 492.236 494.928C492.355 494.245 493.7 493.776 494.478 493.209C494.756 494.011 495.333 494.841 495.261 495.611C494.903 499.436 494.416 503.25 493.897 507.058C492.951 513.99 492.013 520.924 490.953 527.839C490.069 533.608 489.381 539.443 487.948 545.082C486.118 552.281 483.715 559.34 481.396 566.406C478.244 576.012 472.861 584.239 466.177 591.827C462.812 595.648 459.066 598.625 454.604 600.759C452.748 601.647 450.568 602.17 448.508 602.263C440.43 602.629 432.336 602.427 424.569 599.924C418.207 597.874 412.017 595.299 405.715 593.054C396.14 589.644 387.009 585.387 378.931 579.131C374.902 576.011 373.48 569.872 376.152 564.39C377.626 561.365 379.723 558.643 381.194 555.617C381.896 554.175 383.878 552.294 381.49 550.703C379.601 549.444 377.675 550.058 375.731 551.187C371.603 553.585 369.954 557.923 367.308 561.471C365.632 563.718 363.446 564.571 361.536 562.833C356.026 557.815 350.722 552.569 345.389 547.359C341.415 543.477 337.544 539.489 333.564 535.613C333.119 535.18 332.044 534.817 331.646 535.058C331.159 535.354 330.707 536.437 330.879 536.975C331.954 540.331 332.87 543.807 334.489 546.903C336.397 550.553 338.777 554.003 341.308 557.264C343.131 559.612 345.522 561.523 347.69 563.596C348.296 564.176 349.091 564.57 349.643 565.189C349.903 565.481 349.792 566.103 349.849 566.575C349.42 566.563 348.889 566.711 348.575 566.515C342.824 562.917 337.034 559.375 331.397 555.603C328.895 553.929 326.758 551.719 324.356 549.881C323.758 549.424 322.775 549.469 321.969 549.283C321.986 550.008 321.74 550.887 322.061 551.433C324.794 556.082 327.536 560.731 330.46 565.261C334.351 571.291 339.345 576.191 345.79 579.524C346.183 579.727 346.249 580.562 346.467 581.103C345.925 581.217 345.293 581.566 344.859 581.4C343.344 580.819 341.885 580.083 340.425 579.365C336.525 577.447 332.649 575.481 328.725 573.614C328.241 573.384 327.526 573.637 326.918 573.666C327.265 574.346 327.445 575.237 327.989 575.667C329.951 577.215 331.965 578.723 334.088 580.038C339.99 583.696 345.862 587.421 351.94 590.768C354.756 592.32 358.263 592.646 361.019 594.27C364.228 596.16 367.192 598.629 369.829 601.278C372.606 604.067 374.717 607.508 377.394 610.409C382.393 615.828 387.387 621.28 392.753 626.326C401.966 634.988 412.834 640.725 425.256 643.389C431.631 644.757 437.949 646.809 444.393 647.341C454.899 648.207 465.664 649.913 475.908 646.169C480.37 644.538 484.352 641.418 488.303 638.623C491.396 636.435 494.321 633.911 496.933 631.167C500.596 627.32 504.163 623.324 507.293 619.042C512.024 612.57 516.71 606.012 520.736 599.095C525.104 591.592 528.91 583.737 532.563 575.851C536.167 568.069 539.227 560.037 542.611 552.152C545.675 545.012 548.703 537.85 552.041 530.837C553.992 526.737 556.352 522.8 558.862 519.012C560.03 517.25 559.813 516.113 558.34 515.156C551.089 510.444 543.702 506.023 535.459 503.134C528.3 500.625 521.377 497.427 514.177 495.059C508.636 493.237 502.872 491.986 497.125 490.922C489.241 489.461 487.201 487.02 486.815 478.856C486.186 465.54 488.944 452.965 494.329 440.882C495.69 437.826 497.035 434.747 498.686 431.848C499.152 431.031 500.712 430.346 501.706 430.423C503.888 430.591 503.348 432.078 502.717 433.491C500.654 438.11 498.474 442.687 496.649 447.401C493.813 454.724 491.022 462.047 490.307 470.025C489.849 475.141 489.016 480.2 491.036 485.115C491.413 486.032 492.527 487.081 493.459 487.265C499.183 488.397 505.006 489.06 510.693 490.337C517.356 491.833 524.162 493.174 530.463 495.692C541.605 500.143 552.572 505.133 562.209 512.52C562.794 512.968 563.461 513.311 564.031 513.775C567.758 516.809 568.423 516.509 571.396 512.531C574.943 507.785 576.265 502.237 578.08 496.801C581.366 486.96 583.866 476.965 585.461 466.708C587.137 455.938 585.35 445.695 581.558 435.646C580.217 432.091 578.868 428.517 577.925 424.849C577.649 423.776 578.409 421.767 579.317 421.22C580.601 420.446 581.93 421.353 582.511 423.035C584.606 429.105 587.116 435.053 588.842 441.222C590.304 446.45 591.342 451.889 591.734 457.295C592.044 461.579 591.495 466.039 590.61 470.271C589.193 477.044 587.564 483.825 585.314 490.357C583.084 496.83 580.306 503.173 577.127 509.237C575.159 512.991 572.114 516.222 569.287 519.457C568.565 520.283 566.664 520.789 565.607 520.463C563.533 519.825 562.727 520.535 561.92 522.249C556.643 533.46 551.172 544.581 546.011 555.845C541.195 566.356 536.921 577.121 531.975 587.569C526.143 599.888 518.53 611.164 510.275 621.983C506.782 626.56 503.344 631.279 499.228 635.257C492.493 641.766 485.181 647.692 475.952 650.461C468.566 652.677 461.032 652.7 453.44 651.63C450.808 651.259 448.109 651.362 445.479 650.982C440.897 650.32 436.307 649.626 431.789 648.633C421.822 646.444 412.176 643.25 403.32 638.09C399.504 635.866 395.723 633.449 392.368 630.598C387.65 626.589 383.186 622.247 378.906 617.768C374.291 612.939 370.168 607.638 365.518 602.846C363.505 600.771 360.814 599.265 358.244 597.837C352.059 594.4 345.551 591.5 339.575 587.743C334.296 584.424 329.559 580.241 324.588 576.433C324.357 576.257 324.167 576.026 323.963 575.814C322.448 574.244 320.39 572.396 321.81 570.331C322.431 569.427 325.346 570.098 327.22 570.06C327.936 570.046 328.652 570.049 329.367 570.044C329 569.491 328.636 568.935 328.264 568.385C325.01 563.565 321.755 558.746 318.5 553.633Z" fill="#00160A"/>
<path fill-rule="evenodd" clip-rule="evenodd" d="M269.075 531.487C268.03 528.096 267.102 524.858 266.262 521.598C266.118 521.041 266.354 520.385 266.414 519.775C266.959 520.105 267.823 520.316 267.998 520.785C269.455 524.681 270.855 528.603 272.141 532.56C275.165 541.868 278.126 551.198 281.095 560.525C282.91 566.227 284.483 572.015 286.54 577.628C289.305 585.173 292.508 592.556 295.387 600.061C300.081 612.294 304.452 624.654 309.375 636.792C312.327 644.071 316.156 650.989 319.422 658.146C321.332 662.333 322.878 666.684 324.654 670.934C325.409 672.741 325.059 674.352 323.333 674.979C321.737 675.56 320.435 674.858 319.543 672.973C315.4 664.221 310.829 655.668 306.827 646.854C302.834 638.059 299.13 629.119 295.669 620.1C290.618 606.937 285.74 593.701 281.112 580.384C279.083 574.547 277.761 568.456 276.282 562.44C273.858 552.581 271.565 542.688 269.233 532.806C269.145 532.435 269.221 532.025 269.075 531.487Z" fill="#00160A"/>
<path fill-rule="evenodd" clip-rule="evenodd" d="M406.349 201.207C404.499 199.812 405.687 198.42 406.556 197.908C408.949 196.496 411.483 194.887 414.138 194.462C418.135 193.821 422.284 194.008 426.363 194.106C427.297 194.128 428.415 195.057 429.06 195.875C429.594 196.554 430.03 198.054 429.66 198.527C429.078 199.273 427.533 200.076 426.83 199.79C421.328 197.551 416.266 198.405 411.569 201.688C409.613 203.055 408.083 203.064 406.349 201.207Z" fill="#00160A"/>
<path fill-rule="evenodd" clip-rule="evenodd" d="M421.749 181.701C416.436 180.982 411.414 179.888 406.812 183.359C405.643 184.241 404.1 184.71 402.831 183.054C401.461 181.266 403.16 180.568 404.028 179.836C408.455 176.104 413.729 175.423 419.259 176.02C420.409 176.144 421.651 176.455 422.61 177.062C423.821 177.828 424.785 178.985 425.855 179.974C424.584 180.55 423.313 181.125 421.749 181.701Z" fill="#00160A"/>
<path fill-rule="evenodd" clip-rule="evenodd" d="M461.787 245.499C460.598 242.355 461.038 239.532 462.854 236.99C463.3 236.366 464.214 236.012 464.982 235.712C465.341 235.572 465.866 235.856 466.315 235.948C466.121 236.35 465.957 236.77 465.727 237.151C464.549 239.099 463.536 240.614 464.956 243.365C466.362 246.092 467.139 244.548 468.369 243.896C469.391 243.354 470.393 242.774 471.404 242.21C470.855 243.485 470.58 245.005 469.704 245.99C467.036 248.993 463.69 248.75 461.787 245.499Z" fill="#00160A"/>
<path fill-rule="evenodd" clip-rule="evenodd" d="M468.093 215.727C467.251 215.959 466.701 216.192 466.152 216.425C466.155 215.761 465.932 214.645 466.199 214.511C467.38 213.921 468.754 213.164 469.961 213.303C472.229 213.564 472.799 215.761 472.676 217.517C472.541 219.43 471.584 221.298 470.888 223.15C470.756 223.501 470.064 223.967 469.811 223.877C469.361 223.716 468.688 223.108 468.741 222.794C468.996 221.282 469.35 219.764 469.883 218.328C470.477 216.729 470.691 215.562 468.093 215.727Z" fill="#00160A"/>
<path fill-rule="evenodd" clip-rule="evenodd" d="M324.806 279.524C318.472 282.041 312.285 284.409 305.507 284.364C305.213 284.362 304.879 284.456 304.635 284.348C303.585 283.882 302.562 283.357 301.53 282.854C302.603 282.379 303.64 281.78 304.756 281.455C307.641 280.616 310.712 280.245 313.435 279.059C319.231 276.534 325.04 273.933 330.5 270.77C337.737 266.58 342.444 260.301 343.725 251.797C343.919 250.511 343.874 249.116 344.388 247.972C344.806 247.04 345.895 246.41 346.687 245.645C347.264 246.412 348.391 247.223 348.333 247.939C347.747 255.287 346.37 262.241 341.091 268.102C336.508 273.192 330.889 276.421 324.806 279.524Z" fill="#00160A"/>
<path fill-rule="evenodd" clip-rule="evenodd" d="M232.263 240.952C231.481 243.361 230.811 245.531 229.853 247.563C229.533 248.239 228.471 248.565 227.749 249.051C227.689 248.164 227.257 247.057 227.63 246.426C230.245 242.003 228.786 237.386 228.548 232.813C228.469 231.293 228.452 229.711 228.779 228.24C230.566 220.216 234.286 213.473 241.545 209.008C243.403 207.865 245.314 207.74 246.004 209.495C246.478 210.7 245.647 213.287 244.546 214.098C239.138 218.084 235.934 223.512 234.006 229.66C232.908 233.164 232.811 236.982 232.263 240.952Z" fill="#00160A"/>
<path fill-rule="evenodd" clip-rule="evenodd" d="M320.259 193.434C320.846 194.516 321.69 195.905 321.299 196.606C320.758 197.579 319.337 198.522 318.209 198.633C312.231 199.217 309.226 202.159 309.13 208.041C309.091 210.445 308.051 212.164 305.64 212.121C303.361 212.08 302.342 210.123 302.106 208.077C301.452 202.416 305.165 196.128 311.639 194.069C314.302 193.222 317.059 191.838 320.259 193.434Z" fill="#00160A"/>
<path fill-rule="evenodd" clip-rule="evenodd" d="M258.222 250.485C255.897 252.288 256.356 254.675 256.309 256.934C256.263 259.086 255.573 260.418 252.974 260.384C250.854 260.357 250.089 259.33 249.877 257.582C248.922 249.704 252.878 244.174 259.963 241.852C261.624 241.308 264.081 241.598 265.574 242.497C267.944 243.923 267.085 246.272 264.198 247.437C262.191 248.247 260.307 249.361 258.222 250.485Z" fill="#00160A"/>
<path fill-rule="evenodd" clip-rule="evenodd" d="M312.193 246.672C314.366 250.146 314.73 253.522 312.633 256.968C310.921 259.781 306.845 261.127 305.049 259.474C303.221 257.792 303.449 256.484 305.934 254.397C309.079 251.757 309.076 251.449 307.372 247.788C304.995 242.682 300.53 239.403 296.87 235.414C296.378 234.878 296.179 234.075 295.844 233.396C296.719 233.442 297.901 233.136 298.42 233.589C302.96 237.559 307.385 241.662 311.826 245.745C311.996 245.901 311.977 246.261 312.193 246.672Z" fill="#00160A"/>
<path fill-rule="evenodd" clip-rule="evenodd" d="M311.46 173.488C307.797 173.685 304.238 172.698 301.16 174.753C299.592 175.799 298.393 177.431 296.776 178.36C295.772 178.937 294.296 178.694 293.032 178.819C292.917 177.565 292.234 175.909 292.787 175.127C294.998 172.004 298.212 169.852 301.996 169.466C308.403 168.813 314.652 169.96 320.651 172.387C321.989 172.928 323.46 173.143 324.8 173.681C325.472 173.951 325.989 174.609 326.576 175.092C325.897 175.34 325.196 175.844 324.546 175.785C322.9 175.634 321.279 175.228 319.647 174.929C317.016 174.447 314.384 173.968 311.46 173.488Z" fill="#00160A"/>
<path fill-rule="evenodd" clip-rule="evenodd" d="M334.192 285.977C337.247 282.922 339.444 282.428 341.544 284.265C341.89 284.567 342.058 285.074 342.309 285.487C341.911 285.699 341.497 286.119 341.117 286.09C338.358 285.88 336.166 286.494 335.296 289.515C335.204 289.835 334.413 290.28 334.199 290.171C333.763 289.949 333.185 289.353 333.227 288.975C333.336 288.006 333.752 287.072 334.192 285.977Z" fill="#00160A"/>
</svg>
