<svg width="750" height="750" viewBox="0 0 750 750" fill="none" xmlns="http://www.w3.org/2000/svg">
<rect width="750" height="750" fill="none"/>
<path d="M638.487 538.299C634.32 619.563 569.209 693.205 489.395 709.045C409.581 724.886 322.229 682.753 283.339 611.278C279.047 603.39 275.225 595.117 271.404 586.845C261.538 565.489 251.675 544.14 233.74 529.451C213.263 512.678 186.927 508.192 160.326 503.661C143.434 500.784 126.435 497.888 110.761 491.817C72.977 477.181 43.6396 442.508 35.4615 402.822C22.2087 338.511 64.187 272.85 120.167 238.531C176.146 204.211 243.413 194.652 308.662 187.287C333.621 184.47 353.896 165.66 368.377 145.136C373.983 137.191 379.027 128.841 384.067 120.499C392.046 107.291 400.015 94.0988 410.191 82.5474C453.279 33.6346 533.518 25.3808 588.401 60.552C643.283 95.7232 669.552 168.045 654.957 231.575C652.443 242.517 648.875 253.172 645.307 263.827L645.306 263.829C641.89 274.029 638.474 284.229 635.982 294.683C630.657 317.028 629.64 340.152 629.034 363.115C628.311 390.493 628.141 417.943 630.705 445.211C631.597 454.697 632.819 464.17 634.042 473.642C636.819 495.165 639.596 516.678 638.487 538.299Z"/>
<path d="M308.571 167.878C338.414 153.032 362.166 127.248 377.124 97.4605C379.085 93.5549 380.943 89.4051 380.875 85.0352C380.806 80.6654 378.263 76.0368 374.036 74.927C367.978 73.3366 362.769 79.1448 358.991 84.1404C333.041 118.458 295.27 145.399 252.648 151.274C236.279 153.531 219.659 152.683 203.157 151.831L177.381 150.5C156.621 149.428 135.572 148.378 115.251 152.759C94.93 157.139 75.0737 167.675 63.9127 185.213C60.3602 190.795 57.6992 197.373 58.6822 203.917C59.6894 210.622 64.4558 216.313 70.1972 219.921C75.9385 223.528 82.6087 225.333 89.2191 226.843C94.0589 227.949 99.0022 228.928 103.954 228.58C112.051 228.01 119.398 223.984 126.547 220.066C127.024 219.805 127.499 219.545 127.974 219.286C140.469 212.469 153.416 206.415 166.92 201.917C186.613 195.358 207.319 192.148 227.975 188.946C255.801 184.632 283.535 180.333 308.571 167.878Z" />
<path d="M153.377 563.395L153.395 563.396C154.611 563.444 155.827 563.493 157.039 563.556C176.216 564.553 195.193 569.255 212.617 577.325C219.261 580.402 225.989 584.253 229.721 590.552C234.338 598.347 239.88 605.593 246.193 612.089C248.643 614.609 251.295 617.074 254.565 618.362C257.836 619.649 261.874 619.531 264.527 617.227C267.75 614.427 267.959 609.455 266.966 605.303C265.338 598.498 261.278 592.568 257.26 586.84C244.075 568.044 230.194 549.251 211.845 535.449C193.496 521.648 169.816 513.291 147.357 518.059C139.602 519.705 131.916 523.06 126.775 529.095C121.633 535.129 119.601 544.211 123.304 551.22C126.242 556.781 132.197 560.203 138.295 561.745C143.209 562.987 148.298 563.191 153.376 563.395H153.377Z" />
<path d="M672.086 280.686C666.959 278.753 661.153 281.087 656.814 284.432C648.244 291.039 643.174 301.374 640.867 311.946C638.56 322.518 638.746 333.454 638.944 344.274L640.638 437.235C640.762 444.026 641.064 451.346 645.24 456.703C646.547 458.379 648.336 459.851 650.451 460.067C653.014 460.328 655.385 458.71 657.236 456.918C667.358 447.117 668.687 431.679 669.899 417.608L669.943 417.097C671.723 396.441 674.806 375.898 679.167 355.63C680.393 349.93 681.741 344.194 684.306 338.959C692.348 322.546 690.425 301.711 679.514 287.048C677.54 284.396 675.179 281.852 672.086 280.686Z" />
<path d="M488.456 406.516C493.866 408.005 498.711 412.51 499.242 418.095C500.268 415.873 502.521 414.268 504.956 414.024L501.421 417.78L505.894 417.87L499.739 421.307C503.555 428.364 502.937 437.068 500.491 444.709C498.994 449.386 496.829 454.07 497.251 458.962C497.667 463.774 501.94 468.69 506.61 467.705L506.844 467.651C512.458 466.233 518.605 467.054 523.65 469.896C530.899 473.979 535.296 481.562 540.278 488.225C544.675 494.107 549.88 499.577 556.386 502.985C562.892 506.392 570.87 507.517 577.647 504.688C581.01 503.284 584.021 500.96 587.589 500.221C591.158 499.481 594.814 501.465 596.125 504.847C596.704 506.343 595.458 511.886 592.282 518.359C592.799 518.211 593.339 518.115 593.905 518.079C610.596 516.995 627.442 513.366 641.807 504.796C646.373 502.072 650.639 498.88 654.873 495.661L657.341 493.781L658.834 492.63C668.127 485.432 677.299 477.408 681.12 466.459L681.32 465.87L681.743 464.576C682.56 462.126 683.596 459.594 685.961 458.833C689.235 457.78 692.215 460.949 694.205 463.753L708.542 483.966C708.91 484.485 709.287 485.022 709.427 485.643C710.049 488.39 705.949 489.777 703.307 488.802C698.502 487.028 694.646 481.744 689.605 482.651C686.062 483.288 683.945 486.719 682.194 489.951L681.751 490.775C671.141 510.639 653.288 526.53 632.329 534.766C626.926 536.889 621.344 538.516 615.77 540.139L604.511 543.419L606.495 543.773C623.295 546.719 641.219 548.517 656.477 541.072C666.634 536.115 674.459 527.582 681.841 518.958L684.52 515.81L685.624 514.496C690.154 509.061 694.459 503.243 695.782 496.355C696.289 493.71 699.627 492.449 702.224 493.165C704.821 493.882 706.797 495.935 708.636 497.904L722.573 512.821C723.671 513.997 724.827 515.294 724.988 516.894C725.149 518.494 723.714 520.305 722.169 519.857L707.056 515.467C705.638 515.055 704.068 514.653 702.734 515.284C701.711 515.767 701.051 516.758 700.465 517.736L684.217 545.175C679.642 552.902 671.162 557.381 662.831 560.732C642.852 568.766 621.172 572.541 599.653 571.732C597.316 571.645 594.977 571.503 592.666 571.139C583.986 569.771 576.146 565.358 568.556 560.893C569.887 565.76 568.701 569.866 560.796 570.178C553.795 570.455 536.645 541.627 531.311 540.131C502.2 531.968 497.42 515.854 488.068 504.847C488.068 504.847 469.168 507.289 456.69 504.688C427.44 498.59 407.783 479.831 400.696 478.636C393.61 477.442 388.936 481.984 386.748 479.229L386.748 477.233C387.087 476.684 390.473 473.52 400.134 475.575C413.623 478.445 435.187 489.279 451.656 491.303C468.943 493.427 483.587 490.615 483.507 490.144C483.342 489.181 487.688 485.09 484.216 483.025C480.744 480.959 430.341 460.73 419.386 443.872L419.254 443.661C417.371 440.535 415.94 432.765 419.73 436.322L420.791 434.441C424.873 438.289 438.272 447.086 452.191 455.759C466.907 464.928 487.688 470.8 488.068 470.543C496.537 464.815 489.026 460.668 487.624 459.45C484.343 456.601 479.987 455.047 477.16 451.747C470.378 443.829 475.222 429.667 467.47 422.697C466.297 421.642 464.874 420.812 464.025 419.483C462.569 417.207 463.284 414.038 465.048 411.99C466.811 409.942 469.39 408.798 471.942 407.908C477.239 406.058 483.047 405.026 488.456 406.516Z" fill="white"/>
<circle cx="493" cy="447" r="2" fill="#FFB61D"/>
<ellipse cx="480.806" cy="447" rx="1.48322" ry="2" fill="#FFB61D"/>
<path d="M408.329 456.692C389.734 451.884 370.191 450.774 351.171 453.447C352.61 446.339 354.411 439.304 356.566 432.379C350.378 434.376 343.072 428.704 343.472 422.214C343.872 415.723 351.82 410.992 357.716 413.734C359.741 409.061 359.87 403.597 358.066 398.833C357.201 396.548 360.65 395.229 363.094 395.229L376.596 395.226C378.483 395.225 381.115 394.349 380.646 392.521C379.534 388.185 382.515 383.232 386.866 382.184C391.138 381.156 395.948 384.081 397.052 388.321L397.109 388.557C398.134 393.111 403.901 394.556 408.568 394.467L410.89 394.411C414.926 394.326 419.132 394.457 421.833 397.28C425.064 400.656 424.342 406.033 423.277 410.617L423.206 410.921C421.697 417.283 420.088 423.622 418.38 429.934C421.697 456.626 413.484 458.025 408.329 456.692Z" fill="white"/>
<path d="M253.236 434.406C251.265 421.576 251.268 408.446 253.244 395.617L253.344 394.996C253.835 392.085 254.696 389.011 257.129 387.408C258.95 386.207 261.25 386.117 263.444 386.116L280.239 386.162C281.003 386.164 281.841 386.193 282.416 386.697C282.99 387.201 282.975 388.358 282.238 388.562C280.479 389.05 279.468 391.078 279.681 392.891C279.895 394.704 281.074 396.274 282.458 397.464C285.759 400.302 290.891 401.31 294.545 398.944C298.199 396.578 299.058 390.482 295.596 387.844C303.441 387.684 311.29 387.709 319.134 387.917L322.075 388.004C323.026 388.035 324.077 388.111 324.741 388.792C325.24 389.303 325.404 390.046 325.516 390.751C326.385 396.181 325.435 401.886 322.854 406.742C322.443 407.516 321.491 408.368 320.842 407.779C318.086 405.277 313.451 405.618 310.631 408.048C307.81 410.477 306.72 414.513 307.219 418.202C307.698 421.752 310.286 425.544 313.865 425.365C316.683 425.224 319.817 422.759 321.946 424.611L318.358 440.641C317.721 443.489 316.577 446.868 313.723 447.478C297.249 451.002 279.976 450.735 263.618 446.705L262.824 446.504C260.839 445.985 258.862 445.312 257.313 443.987C254.617 441.679 253.775 437.913 253.236 434.406Z" fill="white"/>
<path d="M382.484 308.607L422.295 309.408L422.946 309.423C424.141 309.461 425.346 309.566 426.423 310.068C428.856 311.204 429.972 314.004 430.712 316.586C434.662 330.366 434.174 345.382 429.339 358.877L429.135 359.429C428.506 361.09 427.683 362.745 426.197 363.679C424.973 364.448 423.482 364.609 422.031 364.686L421.721 364.702C415.801 364.983 409.861 364.831 403.963 364.249C407.034 362.358 407.81 357.755 405.86 354.721C403.909 351.687 399.788 350.42 396.319 351.405C394.204 352.006 392.234 353.451 391.469 355.512C390.703 357.573 391.443 360.22 393.398 361.227C394.75 361.923 394.517 364.115 393.333 365.069C392.149 366.024 390.504 366.092 388.984 366.116L369.01 366.44C367.509 366.465 365.93 366.471 364.612 365.752C362.743 364.732 361.883 362.535 361.357 360.472C360.086 355.494 359.914 350.238 360.857 345.188C361.993 349.176 366.908 351.599 370.763 350.069C374.617 348.54 376.535 343.407 374.627 339.725C372.719 336.043 367.419 334.649 363.947 336.916L363.803 335.629C363.304 331.119 362.917 326.549 363.784 322.107C364.732 317.241 367.439 312.462 371.876 310.251C375.112 308.638 378.849 308.549 382.484 308.607Z" fill="white"/>
<path d="M261.742 353.39C256.136 353.412 250.529 353.182 244.943 352.699L244.401 352.649C242.401 352.45 240.303 352.049 238.993 350.562C237.224 348.554 237.656 345.528 238.187 342.879L238.241 342.616C240.614 330.996 241.547 319.083 241.011 307.235L240.912 305.193C240.763 301.519 240.998 297.354 244.049 295.465C244.977 294.89 246.055 294.623 247.129 294.407L247.487 294.336C267.023 290.531 287.365 290.916 306.743 295.46C309.294 296.058 310.004 299.515 309.158 301.995C308.312 304.475 306.495 306.56 305.815 309.092C305.135 311.623 306.381 315.049 309.001 315.131C314.452 315.302 319.073 320.841 318.341 326.246C317.608 331.65 311.766 335.75 306.418 334.676C305.163 334.425 304.719 336.279 304.857 337.552L306.383 351.661C306.632 353.964 303.364 354.691 301.055 354.512L287.582 353.463C285.465 353.298 282.627 353.663 282.301 355.761C281.488 360.985 276.133 365.064 270.881 364.458C265.63 363.852 261.343 358.661 261.742 353.39Z" fill="white"/>
<path fill-rule="evenodd" clip-rule="evenodd" d="M225.476 440.223C226.971 440.586 229.111 441.232 228.993 442.645C226.6 471.136 216.302 465.893 207.12 474.062C204.693 476.221 203.243 481.326 202.201 481.443C206.065 483.228 211.674 490.388 221.326 490.716C248.218 491.628 258.006 472.005 258.006 472.005C258.639 465.713 255.448 454.382 259.431 457.555C262.18 459.745 261.636 449.075 265.392 450.137C266.521 450.457 264.549 457.551 265.392 457.975C265.858 458.21 266.546 456.276 267.747 454.737C268.749 453.454 270.294 452.504 270.614 452.784C270.831 452.974 270.623 454.808 269.721 456.359C268.453 458.54 266.333 460.639 266.63 460.988C266.956 461.373 272.547 456.171 272.887 456.626C275.149 459.643 260.822 494.372 236.647 500.929L234.733 501.443C220.64 505.187 214.722 505.698 201.665 500.929C195.474 498.667 191.623 519.789 188.182 526.819C186.009 531.258 175.455 542.137 170.635 538.847C164.277 534.506 159.092 526.427 153.681 522.341L153.333 522.085C149.646 519.441 141.305 515.429 128.312 510.048L128.897 509.778C131.608 508.546 138.591 505.532 143.952 500.929C151.571 494.388 155.697 480.338 161.007 472.761C166.251 465.28 173.288 466.382 169.041 465.059C169.041 465.059 158.28 459.358 153.333 458.836C136.813 457.092 115.276 464.9 108.386 469.931C98.933 476.835 108.325 486.995 95.2634 482.015C90.91 480.356 102.578 458.855 118.673 450.137C141.044 438.02 162.197 434.687 183.405 453.976C192.036 461.826 192.89 468.815 195.205 474.143L194.731 472.837C220.315 471.15 181.982 445.537 213.984 439.127C217.345 438.453 220.873 439.154 224.241 439.933L225.476 440.223Z" fill="white"/>
<circle cx="209" cy="458" r="2" fill="#FFB61D"/>
<circle cx="220" cy="462" r="2" fill="#FFB61D"/>
<path fill-rule="evenodd" clip-rule="evenodd" d="M103.894 535.563C125.572 550.574 97.835 529.839 121.521 554.549C126.305 559.539 150.523 531.041 153.021 547.93C153.932 554.09 151.945 560.503 153.157 566.611C154.287 572.311 179.078 568.889 180.992 566.396C187.934 557.359 166.331 534.145 161.802 530.435C136.525 509.728 128.184 511.165 104.566 532.588L103.894 535.563Z" fill="white"/>
<path fill-rule="evenodd" clip-rule="evenodd" d="M667.836 160.355C672.088 160.863 676.042 161.335 676.042 156.38C676.042 155.2 661.731 144.842 657.491 148.831C652.038 153.961 647.707 159.843 643.513 165.541C634.706 177.502 626.499 188.65 609.765 190.311L609.563 190.333C603.077 191.116 615.162 196.874 628.734 190.311C638.065 185.798 650.48 171.523 656.377 164.742C657.921 162.968 659.017 161.706 659.496 161.268L659.619 161.163C661.629 159.613 664.808 159.993 667.836 160.355ZM688.024 173.767L702.183 185.006C704.942 187.196 701.711 191.915 698.197 192.141C696.158 192.272 694.202 191.644 692.236 191.014C690.814 190.557 689.386 190.099 687.918 189.926C679.603 188.943 673.264 196.774 668.105 203.369C663.392 209.396 658.23 215.074 652.678 220.338L651.927 221.044L651.144 221.764C646.678 225.825 641.668 229.503 635.776 230.562C627.1 232.123 618.481 227.68 611.395 222.438C609.665 221.158 607.967 219.816 606.267 218.473C601.004 214.314 595.732 210.147 589.491 207.812C584.081 210.763 579.019 214.33 574.396 218.399L574.602 218.236C582.363 226.015 587.791 236.094 590.013 246.856L588.528 246.595L587.548 246.428C578.377 244.89 568.556 243.98 560.805 248.888C558.074 250.617 555.638 253.033 553.229 255.421C551.552 257.083 549.889 258.733 548.148 260.129C548.59 260.391 549.043 260.664 549.506 260.948C558.082 264.456 567.172 266.703 576.395 267.594C577.805 267.73 579.23 267.838 580.659 267.947C587.274 268.449 593.975 268.958 599.628 272.279L601.611 273.465C604.793 275.348 608.335 277.141 611.001 274.96C611.768 274.333 612.27 273.473 612.773 272.609L612.774 272.609C613.08 272.083 613.387 271.556 613.756 271.079C614.73 269.818 616.662 268.931 617.873 269.966L618.364 273.82C618.721 271.341 621.113 269.326 623.616 269.395C626.12 269.465 628.396 271.61 628.614 274.105C629.01 278.634 623.875 281.344 619.517 282.786L596.928 290.066C588.857 292.666 579.909 291.319 572.128 287.947C564.884 284.808 558.493 280.03 552.385 275.009L551.032 273.889C546.419 270.051 540.185 265.882 534.952 268.817C544.045 269.37 550.677 277.206 556.1 284.617L556.621 285.333C557.499 286.543 558.403 287.817 558.62 289.297C559.227 293.438 554.523 296.187 550.549 297.504C553.898 299.297 552.238 304.505 549.644 307.279C545.869 311.315 540.926 314.22 535.594 315.658L535.107 317.343C535.076 317.456 535.062 317.515 535.065 317.517C537.58 317.342 539.131 320.721 538.106 323.024C537.082 325.328 534.553 326.554 532.127 327.24C524.133 329.5 515.104 327.717 508.569 322.588L507.299 323.25C501.778 326.107 496.067 328.764 489.931 329.665C483.323 330.635 476.049 329.273 471.272 324.606L471.587 325.293C472.262 326.791 472.869 328.341 472.891 329.974C472.916 331.857 471.942 333.891 470.158 334.495C467.213 335.493 464.641 332.346 463.113 329.639C462.276 331.723 463.139 334.068 463.978 336.349C464.936 338.95 465.862 341.467 464.198 343.415C462.465 345.443 459.177 344.924 456.792 343.727C447.858 339.246 443.66 327.966 445.596 318.16C447.531 308.353 454.582 300.141 462.978 294.718C457.278 290.54 453.108 284.319 451.409 277.459C451.861 278.043 453.882 276.164 456.753 273.496L456.753 273.496C462.005 268.614 470.101 261.09 476.642 261.16C477.895 261.173 479.919 262.143 481.901 263.092L481.901 263.092L481.901 263.092C483.336 263.78 484.749 264.457 485.833 264.754C485.923 264.638 486.032 264.533 486.158 264.442L484.92 263.553C482.43 261.784 479.831 260.121 476.883 259.388C473.444 258.533 469.372 259.237 467.181 262.022C461.823 268.832 455.035 274.512 447.387 278.585L451.921 286.956C450.047 287.851 447.712 287.687 445.973 286.558L445.759 286.413L445.893 286.58C448.505 289.986 446.21 295.925 441.935 296.598C437.597 298.419 433.222 292.981 433.649 288.296C433.949 285.012 435.575 282.102 437.205 279.187C437.9 277.942 438.597 276.697 439.19 275.421C441.196 271.111 442.078 266.323 442.955 261.565C444.156 255.044 445.346 248.581 449.406 243.484C452.25 239.914 456.232 237.432 460.317 235.396C476.527 227.316 495.71 225.384 513.206 230.069C516.186 219.393 522.093 209.549 530.113 201.898L530.591 201.449C533.659 198.623 537.476 196.097 541.545 196.561L541.867 196.604C545.908 197.22 549.42 194.102 552.357 191.216L553.263 190.327L553.972 189.643C559.801 184.077 566.567 178.939 574.53 178.385C581.614 177.892 588.395 181.144 594.509 184.755C601.427 188.841 608.008 193.498 614.162 198.662L615.243 199.579L615.56 199.85L615.912 200.153L616.114 200.326C621.918 205.311 628.268 210.766 635.823 210.314C643.569 209.85 649.227 203.421 654.441 197.496L654.442 197.494L654.445 197.492C654.865 197.014 655.283 196.539 655.699 196.071C662.131 188.831 669.455 182.457 676.868 176.213L680.048 173.543C681.01 172.736 682.046 171.896 683.291 171.734C685.043 171.507 686.64 172.669 688.024 173.767ZM548.03 296.499C546.456 296.185 544.308 296.322 541.587 296.909C543.379 296.916 544.887 296.884 546.112 296.813C546.705 296.74 547.295 296.648 547.875 296.531L548.03 296.499ZM489.726 261.831C490.3 261.241 490.906 260.62 491.578 260.088C492.828 259.429 494.236 259.095 495.654 259.229C500.45 259.685 504.083 264.787 503.455 269.564C500.923 275.838 494.657 279.419 488.459 282.96L488.459 282.96C484.641 285.141 480.85 287.308 477.973 290.08C478.695 288.889 479.485 287.939 480.286 287.356C482.788 285.535 485.403 283.957 487.868 282.47L487.869 282.469C489.941 281.219 491.907 280.033 493.609 278.821C496.288 276.914 498.087 275.101 499.481 273.696L499.482 273.696L499.482 273.696L499.482 273.696L499.482 273.696C500.548 272.622 501.377 271.787 502.182 271.33C502.247 271.292 505.27 265.165 497.963 261.16C492.445 258.136 489.987 261.961 488.666 264.017C488.237 264.684 487.928 265.165 487.674 265.165C487.607 265.165 487.515 265.155 487.4 265.134C487.582 264.482 487.86 263.852 488.215 263.263C488.71 262.873 489.205 262.365 489.726 261.831ZM491.286 260.25C490.031 260.977 488.954 262.033 488.215 263.263L488.033 263.4C487.669 263.665 487.304 263.859 486.928 263.948C486.168 264.127 484.36 262.74 482.828 261.565C481.912 260.862 481.095 260.235 480.66 260.065C477.796 258.941 477.46 258.926 475.474 258.831C475.139 258.815 474.756 258.797 474.306 258.771L473.482 258.72C473.302 258.709 473.103 258.701 472.891 258.692L472.891 258.692L472.891 258.692C471.244 258.623 468.875 258.523 469.348 257.243C477.81 234.341 513.965 229.357 507.987 255.246C507.493 257.387 506.195 259.26 504.897 261.134C504.248 262.071 503.6 263.008 503.051 263.978C500.715 260.658 498.169 258.908 495.414 258.728C493.878 258.627 492.645 259.244 491.578 260.088L491.286 260.25ZM556.868 239.704L556.875 239.691C554.885 243.473 552.748 248.026 550.465 253.349C552.182 248.619 554.333 244.051 556.868 239.704ZM572.988 243.192L572.71 243.203C570.504 243.295 568.525 243.625 566.773 244.193C564.83 244.823 562.761 245.876 560.569 247.352C564.406 245.227 568.646 243.805 572.988 243.192Z" fill="white"/>
<path fill-rule="evenodd" clip-rule="evenodd" d="M460.176 339.112C458.443 341.141 455.931 340.487 453.629 338.243C448.812 333.547 446.877 324.487 448.812 314.68C450.747 304.874 458.291 300.834 466.687 295.411C462.92 293.859 456.094 284.02 455.409 274.459C457.731 277.455 457.854 282.833 460.176 285.83C462.38 288.674 466.784 292.135 468.987 294.979C469.269 295.342 469.511 295.952 469.112 296.179C461.063 300.751 455.847 302.264 451.1 314.68C446.352 327.096 455.991 338.581 457.272 338.243C458.849 337.826 458.29 335.733 457.384 334.376C454.828 330.547 457.259 325.443 459.343 321.338C460.457 322.587 457.779 326.17 458.343 329.895C458.894 333.532 461.719 337.306 460.176 339.112Z" fill="#E7EAEE"/>
<circle cx="493" cy="298" r="2" fill="#FFB61D"/>
<circle cx="486" cy="290" r="2" fill="#FFB61D"/>
<path d="M186.91 309.642C188.066 311.8 186.249 314.885 183.801 314.92C181.704 303.135 179.444 290.94 172.622 281.104C159.559 262.27 132.642 256.084 121.458 236.078C113.843 241.497 102.2 240.116 96.0647 233.065C92.2493 228.679 85.5986 228.141 79.8688 229.119C74.139 230.098 68.541 232.261 62.7312 232.077C60.2102 231.997 57.4635 231.319 55.9963 229.267C54.5291 227.216 55.3767 223.605 57.8735 223.248C68.751 221.691 79.6285 220.134 90.5059 218.577C91.3601 218.455 92.2666 218.309 92.9151 217.74C93.6488 217.096 93.8792 216.066 94.0695 215.109C95.6442 207.183 96.7788 197.736 90.9431 192.147C86.1066 187.515 78.4731 187.675 71.9023 188.967C65.3315 190.259 58.5595 192.385 52.0839 190.679C45.6083 188.973 40.1928 181.281 43.6837 175.566C46.0219 171.738 43.3855 166.633 39.7788 163.967C36.1722 161.301 31.6838 159.987 28.188 157.177C24.6922 154.367 22.4736 148.945 25.2581 145.429C26.4827 143.882 28.4002 143.068 30.2814 142.474C36.5076 140.51 43.45 140.36 49.4516 142.93C55.4532 145.5 60.327 151.008 61.3036 157.463C62.0992 162.722 60.5874 168.84 64.0639 172.865C68.6092 178.128 77.0099 175.176 83.9635 175.113C91.0754 175.048 98.1081 178.818 101.99 184.778C105.872 190.737 106.478 198.694 103.545 205.173C111.805 196.768 122.932 190.32 134.709 190.759C145.587 191.164 155.581 197.421 162.857 205.518C170.132 213.615 175.095 223.477 179.961 233.214C181.775 236.841 186.373 238.807 190.248 237.612C194.124 236.416 196.815 232.2 196.268 228.182C199.645 228.918 199.997 233.483 200.101 236.938C200.32 244.197 202.949 251.363 207.475 257.042C208.99 254.248 210.145 251.26 210.904 248.175C214.209 251.974 215.441 257.472 214.076 262.318C212.71 267.164 208.787 271.209 203.985 272.723C201.43 273.529 198.306 273.916 197.038 276.276C201.829 284.666 205.951 293.439 209.349 302.483C211.172 307.333 212.487 313.574 208.651 317.056C204.215 313.782 201.695 308.588 199.342 303.602C195.671 295.825 192 288.048 188.33 280.271" fill="white"/>
<path fill-rule="evenodd" clip-rule="evenodd" d="M199.018 231.793C198.054 241.211 201.579 250.989 208.33 257.625C210.737 256.173 212.276 253.385 212.223 250.574C214.753 254.733 213.335 260.374 210.19 264.09C207.044 267.805 202.531 270.033 198.151 272.159C195.642 273.378 193.036 274.62 190.248 274.704C185.994 274.831 182.183 272.273 178.705 269.82L168.5 262.625C173.772 272.463 185.773 278.193 196.738 276.106C204.364 286.803 209.033 299.585 210.098 312.679L208.048 308.892C208.029 308.846 208.004 308.8 207.973 308.754L208.048 308.892C208.342 309.618 207.19 310.421 206.415 310.046C205.59 309.646 205.278 308.653 205.035 307.769C202.033 296.883 196.653 286.66 189.38 278.021L200.392 301.353C202.745 306.338 205.266 311.533 209.701 314.807C213.537 311.325 212.222 305.084 210.4 300.234C207.001 291.19 202.88 282.417 198.088 274.027C199.118 272.111 201.372 271.495 203.551 270.9L203.551 270.9L203.552 270.9L203.552 270.9L203.552 270.899L203.552 270.899C204.056 270.762 204.556 270.625 205.036 270.474C209.837 268.96 213.76 264.915 215.126 260.069C216.492 255.223 215.259 249.724 211.955 245.926C211.195 249.011 210.04 251.999 208.526 254.792C203.999 249.114 201.37 241.948 201.152 234.689C201.047 231.234 200.696 226.669 197.319 225.932C197.865 229.951 195.174 234.167 191.299 235.362C187.424 236.558 182.825 234.592 181.012 230.965C176.145 221.228 171.182 211.366 163.907 203.269C156.632 195.172 146.637 188.915 135.759 188.51C123.982 188.071 112.856 194.519 104.595 202.924C107.529 196.445 106.922 188.488 103.04 182.529C99.1583 176.569 92.1256 172.799 85.0137 172.863C83.2097 172.88 81.3083 173.091 79.4021 173.302C73.9607 173.905 68.4802 174.513 65.1141 170.616C62.7367 167.863 62.6921 164.132 62.6471 160.366C62.6263 158.625 62.6054 156.876 62.3538 155.214C61.3772 148.758 56.5034 143.251 50.5018 140.681C44.5002 138.111 37.5578 138.261 31.3317 140.225C29.4504 140.818 27.5329 141.633 26.3083 143.18C23.5238 146.696 25.7424 152.118 29.2382 154.928C31.0781 156.407 33.1928 157.471 35.3093 158.537C37.2142 159.495 39.1206 160.455 40.829 161.718C44.4357 164.384 47.0721 169.489 44.734 173.317C41.243 179.031 46.6585 186.724 53.1341 188.43C58.4872 189.84 64.0427 188.632 69.5197 187.441C70.6683 187.191 71.8134 186.942 72.9525 186.718C79.5233 185.426 87.1568 185.266 91.9933 189.898C97.829 195.486 96.6944 204.934 95.1197 212.859C94.9294 213.817 94.699 214.847 93.9653 215.491C93.3168 216.06 92.4103 216.205 91.5561 216.328L58.9237 220.999C56.4269 221.356 55.5793 224.967 57.0465 227.018C58.5137 229.07 61.2604 229.748 63.7814 229.828C67.636 229.95 71.3973 229.039 75.1658 228.126C77.0773 227.663 78.9907 227.2 80.919 226.87C86.6488 225.892 93.2995 226.43 97.1149 230.815C103.25 237.867 114.894 239.248 122.508 233.829C128.393 244.356 138.635 251.057 148.922 257.787C158.184 263.848 167.483 269.932 173.672 278.855C180.494 288.691 182.754 300.886 184.851 312.671C187.299 312.636 189.117 309.55 187.96 307.393L185.66 310.426C184.811 291.852 175.324 273.85 160.482 262.65C156.806 259.876 152.776 257.444 148.754 255.018C139.916 249.687 131.12 244.38 126.226 235.525C125.786 234.727 125.375 233.882 125.304 232.974C125.214 231.825 125.672 230.717 126.114 229.647L126.177 229.494C127.941 225.215 129.173 220.519 128.307 215.973C127.44 211.426 124.017 207.126 119.44 206.442C127.188 211.398 128.777 223.699 122.541 230.461C116.306 237.223 103.918 236.635 98.3505 229.313C93.8887 223.445 84.967 224.163 77.7856 225.828C70.6042 227.492 62.1474 229.234 56.5998 224.379C68.4685 221.116 80.6815 219.107 92.9702 218.396C95.8976 218.226 97.0459 214.574 97.4402 211.669C98.0463 207.202 98.6525 202.663 97.9884 198.205C97.3244 193.746 95.2052 189.298 91.4218 186.848C86.8785 183.905 81.0133 184.361 75.6296 184.924L61.3225 186.421C58.2397 186.744 55.0715 187.06 52.0826 186.239C49.0937 185.419 46.2814 183.19 45.7083 180.144C45.3464 178.22 45.8972 176.325 46.4524 174.415C46.8522 173.04 47.2543 171.657 47.3198 170.25C47.5065 166.241 44.9169 162.568 41.7703 160.078C39.8424 158.552 37.6941 157.351 35.5439 156.149C34.1846 155.39 32.8246 154.63 31.5188 153.786C29.061 152.2 26.5393 149.636 27.2226 146.791C27.6597 144.972 29.3059 143.711 30.9609 142.839C36.5488 139.893 43.5333 139.761 49.2288 142.492C54.9244 145.224 59.1933 150.754 60.3941 156.955C60.6904 158.485 60.825 160.083 60.9594 161.677C61.2701 165.366 61.5794 169.037 63.8841 171.809C66.637 175.119 71.3949 175.953 75.6955 175.748C77.17 175.678 78.6444 175.512 80.1176 175.347C82.9411 175.031 85.7601 174.716 88.5673 175.069C98.0065 176.258 105.444 186.079 104.029 195.487C103.95 196.007 103.85 196.532 103.749 197.059C103.388 198.935 103.025 200.83 103.666 202.593C104.487 204.85 108.077 206.052 109.215 203.937C114.312 194.458 126.003 189.683 136.692 190.935C147.382 192.187 156.947 198.623 163.965 206.782C170.983 214.942 175.757 224.761 180.111 234.603C181.644 238.07 186.21 239.325 189.858 238.294C193.506 237.262 196.4 234.535 199.018 231.793ZM179.863 248.313C179.966 248.298 180.207 248.769 180.569 249.479C181.462 251.225 183.093 254.419 185.245 255.391C185.149 256.296 183.726 255.811 183.134 255.12C181.452 253.154 179.667 250.893 179.863 248.313ZM184.941 263.827C186.051 265.455 179.401 266.264 177.19 264.845C177.58 264.77 178.093 264.81 178.661 264.854C179.334 264.906 180.086 264.965 180.799 264.845C181.845 264.669 182.854 264.348 183.616 264.106C184.355 263.871 184.861 263.71 184.941 263.827ZM183.345 257.78C180.697 258.234 177.445 254.708 177.445 251.392C178.208 253.843 180.919 255.788 182.417 256.863C183.179 257.41 183.627 257.731 183.345 257.78ZM192.829 271.647C189.303 271.647 187.705 265.701 189.303 265.319C189.686 265.146 189.704 265.678 189.731 266.465C189.758 267.291 189.796 268.399 190.277 269.261C190.811 270.22 191.941 270.86 192.601 271.234C193.1 271.516 193.33 271.647 192.829 271.647ZM196.757 263.551C197.532 263.977 198.238 264.638 198.438 265.499C198.638 266.36 198.157 267.403 197.292 267.583C197.021 267.184 197.168 266.931 197.323 266.664C197.55 266.272 197.795 265.85 196.757 264.894C196.32 264.491 195.812 264.316 195.455 264.193C195.18 264.099 194.996 264.035 195.003 263.923C195.047 263.207 196.13 263.205 196.757 263.551ZM190.158 255.803C189.983 255.924 189.863 256.008 189.966 256.104C190.285 256.4 190.66 256.541 191.034 256.326C191.32 256.162 191.465 255.829 191.532 255.507C191.908 253.705 190.006 251.845 188.214 252.261C188.373 252.681 188.677 252.815 189.047 252.978C189.474 253.166 189.987 253.392 190.463 254.138C191.106 255.144 190.517 255.554 190.158 255.803ZM189.555 272.784C187.479 272.179 185.426 267.276 186.531 266.905C187.22 266.673 187.217 266.71 187.176 267.098C187.14 267.454 187.073 268.103 187.479 269.109C187.983 270.359 188.69 271.373 189.14 272.018C189.448 272.461 189.636 272.73 189.555 272.784ZM665.077 161.468C660.619 162.015 657.107 165.61 654.891 169.517C653.82 171.405 652.963 173.404 652.106 175.402L652.106 175.402L652.106 175.403C651.19 177.538 650.275 179.672 649.099 181.671C643.491 191.209 632.835 196.423 622.623 200.684C620.862 201.419 617.777 201.073 618.327 199.246C635.046 196.073 649.439 182.836 653.997 166.44C654.534 164.508 652.021 162.878 650.083 163.389C648.329 163.851 647.08 165.314 645.953 166.766L645.601 167.222C636.288 179.335 622.919 189.576 607.654 190.237C606.573 190.284 605.027 189.625 605.503 188.653C616.809 188.274 627.467 182.694 635.862 175.112C644.257 167.529 650.659 158.026 656.648 148.429C657.575 146.945 659.799 147.262 661.455 147.827C666.536 149.56 671.412 151.897 675.945 154.774C678.379 156.319 676.451 160.44 673.684 161.248C672.094 161.712 670.434 161.6 668.766 161.486C667.532 161.403 666.293 161.319 665.077 161.468ZM660.735 152.016L660.344 151.898C659.155 151.556 657.826 151.367 656.869 152.105C656.498 152.392 656.233 152.787 655.989 153.19L652.807 158.555C654.477 158.941 656.078 159.625 657.511 160.566C658.682 161.334 660.296 161.363 661.494 160.639C662.693 159.914 663.416 158.471 663.279 157.077C663.228 156.557 664.08 156.416 664.436 156.798C664.702 157.084 664.781 157.476 664.86 157.866L664.86 157.867L664.86 157.867L664.861 157.869C664.887 158 664.914 158.131 664.948 158.258C665.082 158.763 665.494 159.307 666.006 159.203C666.525 158.71 666.809 157.979 666.759 157.265C666.945 156.527 668.095 157.185 668.273 157.924C668.451 158.663 668.785 159.714 669.519 159.517C670.598 159.25 670.937 157.747 670.411 156.767C669.886 155.788 668.828 155.234 667.819 154.767C665.519 153.701 663.151 152.782 660.735 152.016ZM651.064 160.738C652.725 162.41 655.142 163.299 657.491 163.103C656.051 161.29 653.602 160.343 651.317 160.694L651.064 160.738ZM532.126 327.24C524.133 329.501 515.103 327.717 508.569 322.588C502.654 325.688 496.539 328.695 489.931 329.665C483.323 330.635 476.048 329.273 471.272 324.606C472.061 326.316 472.865 328.09 472.89 329.974C472.915 331.857 471.941 333.891 470.157 334.495C467.213 335.493 464.64 332.346 463.112 329.639C462.275 331.723 463.139 334.068 463.978 336.349C464.935 338.95 465.862 341.467 464.197 343.415C462.464 345.444 459.176 344.924 456.791 343.727C447.857 339.246 443.66 327.966 445.595 318.16C447.531 308.353 454.581 300.141 462.978 294.718C457.277 290.54 453.107 284.319 451.408 277.459C452.569 278.957 453.431 280.697 454.292 282.438L454.292 282.438C455.153 284.179 456.014 285.92 457.175 287.418C458.277 288.84 459.679 290.019 461.081 291.199L461.081 291.199C462.483 292.378 463.885 293.558 464.987 294.979C465.268 295.342 465.511 295.952 465.111 296.179C457.062 300.751 450.177 308.036 447.893 317.006C445.609 325.977 448.787 336.566 456.669 341.42C458.059 342.275 459.715 342.962 461.293 342.545C462.87 342.128 464.054 340.148 463.148 338.791C460.591 334.963 460.281 329.745 462.364 325.64L468.97 333.047C470.489 332.656 470.864 330.613 470.46 329.098C470.332 328.618 470.156 328.144 469.981 327.671L469.981 327.67C469.604 326.651 469.228 325.635 469.329 324.569C469.477 323.008 471.514 321.611 472.591 322.752C476.886 327.305 483.787 328.596 489.966 327.594C496.144 326.592 501.804 323.626 507.339 320.703L513.871 317.254C513.4 319.138 511.872 320.72 510.006 321.257C516.312 325.787 524.744 327.211 532.188 325.002C533.47 324.621 534.786 324.095 535.617 323.047C536.449 321.999 536.584 320.295 535.579 319.412C535.456 319.305 535.319 319.21 535.183 319.116L535.183 319.115C534.914 318.93 534.647 318.745 534.493 318.463C534.261 318.038 534.621 317.322 535.065 317.517C537.58 317.342 539.131 320.721 538.106 323.024C537.081 325.328 534.552 326.554 532.126 327.24ZM487.496 293.806C486.06 293.344 484.449 294.335 483.825 295.708C483.201 297.081 483.378 298.695 483.85 300.128C484 298.512 484.205 297.294 484.817 296.231C485.081 295.773 485.898 295.341 486.615 294.961C487.543 294.47 488.306 294.066 487.496 293.806ZM486.279 289.745C488.374 289.223 490.74 290.029 492.081 291.722C493.421 293.415 493.663 295.903 492.674 297.823C492.437 297.536 492.381 297.016 492.311 296.364C492.103 294.438 491.77 291.36 486.279 289.745ZM484.462 304.626C483.798 305.454 486.108 307.641 489.719 306.133C490.388 305.853 489.842 305.821 488.981 305.771C488.196 305.725 487.15 305.664 486.526 305.385C485.999 305.15 485.728 304.773 485.526 304.49C485.226 304.072 485.075 303.862 484.462 304.626ZM491.779 307.395C494.092 306.242 492.641 309.622 487.8 309.207C487.363 309.17 486.792 309.002 486.797 308.562C486.799 308.407 487.208 308.371 487.845 308.316C488.834 308.23 490.371 308.096 491.779 307.395ZM477.501 300.979C478.372 301.829 479.64 301.852 480.485 301.688C481.001 301.589 481.254 301.128 480.781 300.979C480.671 300.944 480.488 300.915 480.267 300.88C479.765 300.801 479.07 300.692 478.604 300.41C478.305 300.23 478.134 299.614 477.988 299.086C477.838 298.543 477.713 298.093 477.501 298.304C477.082 298.721 476.63 300.128 477.501 300.979ZM478.273 303.856C478.695 304.498 477.089 304.277 476.744 303.856C476.399 303.435 476.059 301.852 476.637 301.852C476.805 301.852 476.862 302.101 476.931 302.4C476.994 302.676 477.067 302.994 477.246 303.196C477.592 303.589 477.824 303.648 477.995 303.69C478.111 303.719 478.198 303.741 478.273 303.856ZM550.493 300.671C551.358 302.4 549.843 304.339 548.383 305.607C542.447 310.761 535.352 314.573 527.778 316.679C535.941 316.735 544.067 313.241 549.643 307.279C552.238 304.505 553.897 299.297 550.549 297.504C554.522 296.187 559.227 293.438 558.62 289.297C558.403 287.817 557.498 286.543 556.621 285.333L556.1 284.617C550.676 277.206 544.044 269.37 534.951 268.817C540.185 265.882 546.419 270.051 551.032 273.889L552.385 275.009C558.492 280.03 564.883 284.808 572.128 287.947C579.909 291.319 588.856 292.666 596.928 290.066L619.516 282.786C623.875 281.344 629.009 278.634 628.613 274.105C628.395 271.61 626.119 269.465 623.616 269.395C621.112 269.326 618.72 271.341 618.364 273.82L617.873 269.967C616.662 268.931 614.73 269.818 613.755 271.079C613.387 271.556 613.079 272.083 612.773 272.609C612.269 273.473 611.768 274.333 611.001 274.96C608.335 277.141 604.792 275.348 601.611 273.465L599.628 272.279C593.974 268.958 587.274 268.449 580.658 267.947C579.229 267.838 577.804 267.73 576.395 267.594C567.172 266.703 558.081 264.456 549.505 260.948C557.37 267.397 567.646 268.48 578.012 269.572C583.235 270.122 588.482 270.675 593.454 271.918C597.398 272.904 601.757 274.914 602.725 278.862C604.13 284.596 597.319 289.037 591.441 289.573C581.827 290.45 572.459 286.361 564.296 281.143L563.377 280.548C560.423 278.609 557.56 276.522 554.698 274.437C549.447 270.61 544.201 266.787 538.405 263.882C544.391 264.183 548.763 259.848 553.229 255.421C555.637 253.033 558.073 250.617 560.805 248.888C568.832 243.805 579.081 244.962 588.528 246.595L590.012 246.856C587.79 236.094 582.363 226.015 574.602 218.236L587.939 244.456C573.897 239.778 557.057 245.624 548.934 257.996C555.204 236.838 570.119 218.382 589.49 207.812C595.731 210.147 601.004 214.314 606.267 218.473L606.271 218.476L606.272 218.477C607.97 219.819 609.666 221.16 611.394 222.438C618.481 227.68 627.099 232.123 635.775 230.563C642.014 229.44 647.264 225.383 651.926 221.044L652.677 220.338C658.23 215.074 663.391 209.397 668.105 203.369C673.263 196.774 679.602 188.943 687.917 189.926C689.386 190.099 690.813 190.557 692.235 191.014C694.201 191.644 696.157 192.272 698.196 192.141C701.711 191.915 704.941 187.196 702.183 185.007L688.023 173.767C686.639 172.669 685.042 171.507 683.29 171.734C682.045 171.896 681.01 172.736 680.047 173.543L676.867 176.213C669.454 182.457 662.13 188.831 655.698 196.071C655.281 196.541 654.863 197.017 654.441 197.496C649.227 203.421 643.568 209.851 635.823 210.314C628.267 210.766 621.917 205.311 616.114 200.326C615.822 200.076 615.532 199.826 615.243 199.579L614.161 198.662C608.007 193.498 601.427 188.841 594.509 184.756C588.394 181.145 581.614 177.892 574.529 178.385C566.241 178.962 559.25 184.504 553.262 190.327L552.357 191.216C549.42 194.102 545.907 197.22 541.867 196.604L541.545 196.561C537.475 196.097 533.659 198.623 530.591 201.45L530.113 201.898C522.093 209.55 516.185 219.393 513.205 230.069C495.71 225.385 476.526 227.317 460.316 235.396C456.231 237.432 452.249 239.914 449.406 243.484C445.346 248.581 444.155 255.045 442.954 261.565L442.954 261.566C442.078 266.323 441.196 271.111 439.19 275.421C438.596 276.697 437.9 277.943 437.204 279.187C435.575 282.102 433.948 285.012 433.649 288.296C433.221 292.982 437.596 298.419 441.935 296.598C446.281 295.914 448.58 289.787 445.758 286.412C447.517 287.672 449.968 287.888 451.92 286.956L447.386 278.585C455.035 274.513 461.823 268.833 467.181 262.022C469.372 259.237 473.443 258.533 476.882 259.388C479.83 260.121 482.429 261.784 484.92 263.553L486.157 264.442C484.715 265.491 485.546 268.279 487.327 268.367C486.178 263.688 490.857 258.774 495.653 259.23C500.45 259.685 504.082 264.787 503.455 269.564C500.922 275.839 494.656 279.419 488.458 282.96C481.733 286.802 475.089 290.598 473.385 297.739C471.667 304.934 477.216 312.991 484.549 313.953C491.883 314.915 499.321 308.561 499.518 301.167C499.518 301.167 500.603 301.279 500.987 300.128C501.592 298.315 502.166 296.306 502.734 294.315C503.802 290.572 504.852 286.892 506.064 284.694C509.464 278.53 515.793 273.65 522.83 273.48C525.065 273.426 527.286 273.095 529.504 272.763L529.504 272.763C532.338 272.34 535.167 271.918 538.019 272.075C543.103 272.355 548.676 275.332 549.409 280.371C543.771 279.276 537.889 279.461 532.331 280.907L552.008 283.248C556.329 283.762 557.138 290.452 554.058 293.527C551.154 296.425 546.73 296.902 542.589 297.086L541.84 297.117C542.563 298.594 544.363 298.746 546.164 298.899C547.961 299.052 549.759 299.204 550.493 300.671ZM655.166 214.683C649.066 221.456 641.934 228.735 632.825 229.075C624.86 229.372 617.892 224.239 611.448 219.491L610.972 219.14L609.433 218.016C602.233 212.793 594.775 207.925 587.097 203.435C581.151 199.958 574.312 196.599 567.643 198.324L578.201 201.647C576.42 202.601 575.786 205.2 576.926 206.868C577.17 204.371 580.058 202.783 582.537 203.173C585.015 203.564 587.031 205.383 588.566 207.368C575.257 212.471 563.933 222.575 557.352 235.219C556.128 237.571 555.063 240.003 553.999 242.435C552.556 245.73 551.115 249.024 549.278 252.112C546.087 257.48 541.362 262.362 535.281 263.784C534.43 263.983 533.557 264.114 532.685 264.245C530.937 264.506 529.194 264.767 527.64 265.577C527.556 265.621 527.471 265.666 527.384 265.712L527.221 265.799L527.099 265.864C525.273 266.838 523.023 268.04 521.898 266.455C520.055 263.859 517.116 262.067 513.964 261.618C519.176 244.108 532.585 229.228 549.46 222.227C550.415 221.831 550.049 220.402 549.527 219.509L541.852 206.375C541.143 205.162 541.973 203.512 543.222 202.869C544.471 202.225 545.96 202.322 547.354 202.495C556.233 203.601 564.781 207.244 571.728 212.883C572.839 213.785 574.66 214.671 575.472 213.493C567.548 205.501 556.212 201.795 545.057 200.302C554.7 199.359 564.671 202.396 572.152 208.553L572.516 208.851C574.304 210.302 576.467 211.844 578.528 210.955C570.174 202.941 558.749 198.212 547.175 197.975C549.556 196.204 551.78 194.236 554.003 192.267L554.004 192.267L554.005 192.266C556.264 190.266 558.524 188.265 560.949 186.472C565.76 182.914 571.512 180.137 577.485 180.485C581.822 180.739 585.889 182.61 589.726 184.648C597.837 188.954 605.474 194.152 612.455 200.118C612.949 200.541 613.447 200.969 613.947 201.401C620.583 207.119 627.822 213.357 636.398 212.551C641.627 212.06 646.261 208.9 649.941 205.153C651.977 203.08 653.793 200.809 655.609 198.538C657.076 196.704 658.543 194.869 660.127 193.138C662.411 190.641 665.057 188.292 668.304 187.339C671.552 186.385 675.51 187.175 677.439 189.956L655.166 214.683ZM444.996 261.071C446.173 254.635 447.336 248.27 451.685 243.585C453.815 241.29 456.54 239.638 459.314 238.187C473.505 230.764 490.056 227.939 505.905 230.233C509.784 230.794 514.59 232.97 514.528 236.653C514.505 236.878 514.483 237.104 514.463 237.329C514.503 237.098 514.524 236.873 514.528 236.653C516.108 221.255 525.077 206.768 538.181 198.518C539.343 206.621 542.893 214.367 548.273 220.538C534.015 226.543 522.176 238.09 515.817 252.194L515.716 252.416C513.91 256.37 511.045 261.225 506.862 260.241L508.933 247.445C509.123 246.271 509.298 245.001 508.742 243.95C508.121 242.778 506.793 242.237 505.498 241.847L505.044 241.715C497.547 239.593 489.136 237.555 482.289 241.274C478.667 243.241 476.067 246.539 473.635 249.924L471.83 252.46C467.545 258.442 462.748 264.058 457.508 269.224C455.398 271.305 453.116 273.373 450.291 274.269C447.466 275.165 443.955 274.562 442.278 272.118C443.616 268.625 444.308 264.836 444.996 261.071ZM491.202 310.932C486.75 312.583 483.128 311.769 479.654 309.746C478.167 308.88 476.767 307.766 475.929 306.263C474.673 304.009 474.862 301.211 475.586 298.734C476.669 295.032 478.884 291.67 481.858 289.214C483.915 287.516 486.283 286.269 488.65 285.024L488.65 285.023L488.653 285.022C489.469 284.592 490.285 284.163 491.089 283.715C498.94 279.335 505.713 273.037 510.652 265.524C511.638 264.024 513.716 263.538 515.455 263.981C517.194 264.424 518.643 265.615 519.897 266.899C520.795 267.817 521.46 269.644 520.263 270.108C511.879 273.354 505.127 280.557 502.43 289.132C502.356 289.367 502.285 289.603 502.213 289.84L502.213 289.84C501.804 291.196 501.389 292.569 500.509 293.667C499.476 294.956 497.402 299.495 498.46 301.647C498.46 301.647 495.653 309.281 491.202 310.932ZM502.833 242.997C504.192 243.301 505.671 243.739 506.416 244.915C507.026 245.878 506.987 247.102 506.892 248.237C506.513 252.73 505.569 257.174 504.088 261.432C503.837 262.152 503.064 263.017 502.501 262.504C501.862 259.281 498.916 256.66 495.641 256.4C492.365 256.14 489.043 258.263 487.903 261.345C487.678 261.954 486.888 262.18 486.262 262.012C485.792 261.886 485.39 261.602 485.007 261.295L484.627 260.986C480.724 257.816 475.442 256.409 470.48 257.216C473.124 252.767 476.477 248.741 480.376 245.336C481.971 243.943 483.701 242.629 485.716 241.976C487.612 241.361 489.649 241.367 491.64 241.468C495.405 241.66 499.154 242.172 502.833 242.997ZM680.78 186.373C678.883 184.351 676.283 182.998 673.536 182.613L676.653 178.655C677.641 177.414 678.796 176.141 680.355 175.945C681.479 175.804 682.585 176.265 683.608 176.753C687.031 178.384 690.257 180.427 693.196 182.824C694.176 183.624 695.163 184.517 695.589 185.708C696.015 186.9 695.672 188.46 694.53 189.005C693.388 189.55 691.742 188.356 692.211 187.18L692.256 187.048C692.448 186.38 692.145 185.59 691.541 185.239L690.437 187.354C690.336 187.539 690.218 187.718 690.036 187.818C689.299 188.225 688.701 187.081 688.653 186.241L688.645 186.124C688.566 185.297 688.132 184.242 687.371 184.5C687.269 185.917 686.255 187.226 684.909 187.68C683.563 188.134 681.964 187.706 681.024 186.641L680.78 186.373ZM443.16 290.795L441.828 285.742C441.195 285.565 440.577 286.199 440.487 286.851C440.427 287.285 440.523 287.714 440.653 288.138L440.859 288.769C441.543 290.914 441.526 293.276 440.811 295.411C439.49 292.708 438.801 289.7 438.814 286.692C437.953 286.219 437.367 287.661 437.429 288.641L437.801 294.49C435.996 292.864 435.359 290.224 435.668 287.813C435.976 285.403 437.108 283.177 438.38 281.107C439.045 280.026 439.78 278.943 440.837 278.241C441.894 277.539 443.349 277.299 444.428 277.965C445.324 278.519 445.741 279.503 446.163 280.5C446.482 281.254 446.804 282.016 447.34 282.606C447.53 282.815 447.751 283.028 447.977 283.246C448.849 284.087 449.781 284.986 449.171 285.892C447.293 284.739 445.575 283.325 444.082 281.704C443.542 285.052 444.037 288.561 445.482 291.629C445.778 292.257 444.801 292.855 444.186 292.534C443.571 292.212 443.337 291.466 443.16 290.795ZM623.544 274.264C624.506 273.413 625.385 272.634 625.811 272.846C627.051 273.465 623.683 276.182 621.899 276.95C622.028 277.811 623.278 277.425 624.008 276.95C624.737 276.475 626.781 275.963 626.381 276.48C623.889 279.704 619.076 282.266 614.628 282.767C612.824 282.97 610.595 282.489 610.02 280.767C609.496 279.197 610.663 277.647 611.897 276.48L612.194 276.208C612.712 275.744 613.545 275.291 614.023 275.797C615.295 277.142 617.517 276.042 618.981 274.91C618.981 274.91 622.786 271.238 623.425 271.474C624.059 271.707 621.526 275.847 621.526 275.847C622.154 275.494 622.869 274.861 623.543 274.265L623.544 274.264ZM605.328 277.672C605.783 277.568 606.258 277.752 606.651 278.004C608.081 278.922 608.764 280.858 608.226 282.47C607.689 284.082 605.982 285.221 604.287 285.098C604.046 285.081 603.795 285.035 603.606 284.884C603.211 284.567 603.261 283.962 603.348 283.462L603.987 279.811C604.141 278.929 604.455 277.87 605.328 277.672ZM524.721 269.38C527.173 268.966 529.711 269.067 532.122 269.675C531.982 270.67 530.821 271.122 529.838 271.325C526.804 271.952 523.668 272.087 520.592 271.724C521.362 270.275 523.103 269.653 524.721 269.38ZM678.422 188.405L671.988 184.605C675.158 184.132 678.539 185.797 680.095 188.599C679.649 189.006 678.942 188.712 678.422 188.405ZM537.431 264.609C534.703 265.331 532.007 266.171 529.351 267.125C532.11 268.65 536.026 267.431 537.431 264.609ZM510.769 261.16C511.519 261.315 511.179 262.496 510.58 262.975C508.757 264.431 505.986 264.556 504.039 263.271L510.769 261.16ZM681.99 173.023C682.432 172.919 682.886 173.097 683.3 173.284C685.987 174.498 688.449 176.209 690.522 178.306L681.275 173.585C681.417 173.306 681.686 173.096 681.99 173.023ZM541.122 198.53L541.213 198.593C542.047 198.473 542.909 198.544 543.712 198.798C543.011 200.124 542.035 201.304 540.864 202.241C540.278 201.079 540.381 199.599 541.122 198.53ZM699.343 185.557L699.362 185.615C700.384 186.03 701.079 187.138 701.008 188.239C698.904 187.147 697.201 185.301 696.282 183.116C697.539 183.551 698.639 184.428 699.343 185.557ZM507.899 266.259L507.747 266.468C507.214 267.192 506.579 267.979 505.685 268.083C504.792 268.186 503.876 267.031 504.506 266.389C505.565 265.915 506.808 265.867 507.899 266.259ZM444.619 275.231C445.416 275.417 446.317 275.998 446.192 276.807C444.366 276.569 442.564 276.147 440.822 275.549C442.013 275.051 443.362 274.938 444.619 275.231ZM614.199 275.076C613.784 275.256 613.409 274.499 613.803 274.278C613.803 274.278 616.525 269.503 616.643 272.846C616.701 273.679 614.941 274.696 614.199 275.076ZM499.152 299.593C499.354 298.143 499.735 295.411 500.509 295.411C501.606 295.295 501.184 297.163 500.887 298.48C500.805 298.843 500.732 299.164 500.703 299.39C500.604 300.181 499.865 300.802 499.019 300.421C499.052 300.305 499.095 300 499.152 299.593ZM243.943 349.699C249.528 350.182 255.135 350.412 260.741 350.39C260.343 355.661 264.629 360.852 269.88 361.458C275.132 362.064 280.488 357.985 281.3 352.761C281.626 350.663 284.464 350.298 286.581 350.463L300.054 351.512C302.364 351.691 305.632 350.964 305.383 348.661L303.856 334.552C303.719 333.28 304.163 331.425 305.418 331.676C310.765 332.75 316.607 328.65 317.34 323.246C318.073 317.841 313.452 312.302 308 312.131C305.38 312.049 304.134 308.623 304.814 306.092C305.18 304.731 305.874 303.499 306.57 302.265L306.57 302.265L306.57 302.264C307.168 301.204 307.766 300.142 308.157 298.995C309.004 296.515 308.294 293.058 305.742 292.46C286.364 287.916 266.022 287.531 246.486 291.336L246.128 291.407C245.054 291.623 243.976 291.89 243.048 292.465C239.997 294.354 239.762 298.519 239.911 302.193L240.01 304.235C240.546 316.083 239.614 327.996 237.24 339.616L237.186 339.879C236.655 342.528 236.223 345.554 237.992 347.562C239.303 349.049 241.4 349.45 243.4 349.649L243.943 349.699ZM278.312 352.541C278.468 353.303 278.272 354.098 277.966 354.814L277.868 355.032C276.065 358.838 270.698 360.471 267.101 358.244C263.437 355.976 262.539 350.276 265.327 346.99C258.241 347.839 251.06 347.894 243.961 347.156C241.764 346.927 238.892 345.741 239.341 343.579C242.431 328.706 243.396 313.395 242.198 298.252C241.981 295.508 245.359 294.084 248.066 293.587C265.536 290.38 283.612 290.512 301.032 293.976C303.261 294.419 306.13 296.112 305.142 298.159C302.817 302.977 301.887 308.458 302.495 313.773C302.65 315.128 303.711 316.902 304.894 316.223C308.08 314.393 312.692 315.86 314.234 319.195C315.777 322.529 313.91 326.994 310.453 328.238C306.996 329.482 302.712 327.229 301.777 323.676C300.942 330.995 301.239 338.441 302.657 345.67C303.148 348.175 299.5 349.121 296.954 348.931L276.628 347.417C276.005 348.398 276.644 349.412 277.315 350.479C277.734 351.144 278.166 351.83 278.312 352.541ZM383.484 306.608L423.295 307.408L423.946 307.424C425.141 307.461 426.346 307.566 427.422 308.069C429.856 309.204 430.972 312.004 431.712 314.586C435.662 328.366 435.174 343.382 430.338 356.877L430.135 357.43C429.506 359.09 428.683 360.745 427.196 361.679C425.973 362.448 424.482 362.609 423.031 362.686L422.721 362.702C416.801 362.983 410.86 362.831 404.963 362.249C408.034 360.359 408.81 355.755 406.859 352.721C404.909 349.687 400.788 348.42 397.319 349.405C395.204 350.006 393.234 351.451 392.468 353.512C391.703 355.574 392.443 358.221 394.398 359.227C395.75 359.923 395.517 362.115 394.333 363.07C393.149 364.024 391.504 364.092 389.984 364.117L370.01 364.441C368.508 364.465 366.93 364.471 365.612 363.752C363.743 362.732 362.883 360.535 362.357 358.472C361.086 353.494 360.914 348.239 361.857 343.188C362.993 347.177 367.908 349.599 371.762 348.07C375.617 346.54 377.535 341.407 375.627 337.725C373.719 334.043 368.419 332.649 364.947 334.917L364.803 333.63C364.304 329.119 363.917 324.55 364.783 320.107C365.732 315.241 368.439 310.462 372.876 308.251C376.112 306.639 379.848 306.55 383.484 306.608ZM426.942 310.772C425.945 310.172 424.744 310.069 423.574 310.02L423.283 310.008C410.899 309.546 398.507 309.312 386.114 309.306L381.983 309.313C379.37 309.322 376.672 309.359 374.28 310.412C370.711 311.984 368.399 315.629 367.455 319.413C366.512 323.196 366.738 327.161 366.97 331.054C373.245 329.325 379.996 335.702 379.251 342.168C378.506 348.634 371.338 353.304 364.95 352.057C364.66 354.1 364.375 356.22 364.975 358.195C365.575 360.169 367.327 361.954 369.389 361.888L387.907 361.292C389.054 361.255 390.638 360.662 390.305 359.564C388.413 353.331 393.873 346.055 400.386 346.128C406.9 346.202 412.194 353.599 410.162 359.788C414.232 360.705 418.464 360.897 422.601 360.355C423.944 360.178 425.346 359.894 426.375 359.012C427.387 358.146 427.884 356.835 428.305 355.572C432.603 342.694 433.074 328.566 429.643 315.431C429.199 313.732 428.583 311.905 427.162 310.914L426.942 310.772ZM251.236 433.406C249.265 420.576 249.267 407.446 251.244 394.617L251.344 393.996C251.835 391.085 252.696 388.012 255.128 386.408C256.95 385.207 259.25 385.117 261.443 385.116L278.238 385.162C279.003 385.165 279.841 385.193 280.415 385.697C280.99 386.201 280.975 387.358 280.238 387.562C278.479 388.05 277.467 390.078 277.681 391.891C277.895 393.704 279.073 395.274 280.458 396.464C283.759 399.302 288.89 400.31 292.545 397.944C296.199 395.578 297.058 389.482 293.596 386.844C301.441 386.684 309.29 386.709 317.133 386.917L320.075 387.004C321.025 387.035 322.077 387.111 322.741 387.792C323.239 388.303 323.403 389.046 323.516 389.751C324.385 395.181 323.435 400.887 320.854 405.743C320.443 406.516 319.491 407.368 318.842 406.78C316.086 404.278 311.451 404.618 308.63 407.048C305.81 409.478 304.72 413.513 305.218 417.202C305.698 420.752 308.286 424.544 311.864 424.365C312.873 424.315 313.921 423.967 314.95 423.626L314.95 423.626C316.797 423.013 318.578 422.422 319.946 423.611L316.358 439.642C315.721 442.489 314.577 445.868 311.723 446.478C295.248 450.002 277.975 449.736 261.617 445.705L260.824 445.505C258.839 444.985 256.861 444.313 255.312 442.987C252.617 440.679 251.775 436.913 251.236 433.406ZM316.766 426.477C312.105 428.669 306.034 426.788 303.117 422.543C300.2 418.299 300.486 412.233 303.479 408.041C306.472 403.85 311.851 401.622 316.982 402.06L317.41 402.098C318.13 402.159 318.868 402.185 319.478 401.826C320.251 401.371 320.58 400.436 320.795 399.566C321.652 396.093 321.605 392.402 320.659 388.953L298.947 389.111C299.342 395.139 294.381 401.02 288.373 401.646C282.366 402.272 276.298 397.539 275.443 391.56L275.324 390.671C275.195 389.774 274.994 388.888 274.324 388.319C273.854 387.919 273.236 387.761 272.625 387.64L272.397 387.596C266.08 386.402 258.071 385.906 254.756 391.415C253.627 393.29 253.323 395.535 253.094 397.712C251.774 410.211 252.088 422.881 254.024 435.3L254.119 435.881C254.434 437.729 254.927 439.627 256.302 440.867C257.248 441.719 258.489 442.142 259.72 442.489L260.028 442.575C275.781 446.907 292.553 447.486 308.569 444.257L309.458 444.074C310.245 443.908 311.064 443.717 311.683 443.203C312.489 442.532 312.799 441.451 313.067 440.438L316.766 426.477ZM433.937 458.24C433.937 458.24 434.027 455.742 434.342 454.921C434.912 453.439 436.591 451.331 436.591 451.331C436.474 451.901 436.311 452.512 436.142 453.142C435.565 455.301 434.927 457.686 435.896 459.45C436.644 460.811 447.583 467.98 451.342 469.66C467.42 476.845 483.578 483.347 499.812 489.879L499.813 489.88L499.814 489.88L499.815 489.881L499.83 489.887C506.464 492.556 513.11 495.23 519.768 497.959C508.324 496.564 497.786 491.235 487.519 485.991C485.303 498.286 492.154 510.681 501.397 519.086C508.128 525.206 516.05 529.743 523.972 534.279L523.972 534.28L523.973 534.28L523.973 534.28L523.973 534.28L523.974 534.281L523.974 534.281L523.974 534.281L523.975 534.281C526.931 535.974 529.887 537.667 532.781 539.442L533.845 540.101C544.114 546.53 553.937 554.645 558.471 565.839C559.303 567.892 561.856 569.061 563.954 568.349C566.052 567.636 567.366 565.155 566.775 563.019C568.971 564.821 567.704 568.848 565.044 569.844C562.384 570.839 559.335 569.488 557.371 567.436C555.892 565.89 554.86 564.001 553.829 562.114L553.828 562.113L553.828 562.112L553.828 562.112L553.827 562.111L553.825 562.107C553.489 561.492 553.153 560.877 552.801 560.274C546.462 549.405 535.262 542.656 524.152 536.478L518.937 533.591C506.88 526.858 494.527 518.771 489.363 506.027C470.617 509.001 451.101 506.984 433.36 500.237C429.565 498.794 425.849 497.139 422.135 495.485L422.134 495.485C416.218 492.85 410.306 490.218 404.086 488.446C400.621 487.458 395.844 487.352 394.546 490.714C394.546 490.712 394.544 490.715 394.541 490.722L394.541 490.722C394.503 490.788 394.257 491.22 393.151 491.315C392.633 491.359 392.157 490.45 392.009 489.848C391.883 489.679 391.839 489.203 391.839 488.225C391.839 487.699 392.913 485.396 394.933 483.972C396.337 482.982 397.919 482.622 398.747 482.434C399.12 482.349 399.341 482.299 399.322 482.242C399.28 482.109 397.844 481.736 396.538 482.369C395.531 482.858 394.578 483.503 393.701 484.097L393.701 484.097L393.7 484.097L393.7 484.097L393.7 484.097C392.343 485.015 391.171 485.809 390.269 485.704C389.049 485.563 388.182 484.993 388.169 483.764C388.155 482.535 388.481 481.041 389.429 480.269C391.455 478.62 394.071 477.711 396.683 477.748C397.247 477.756 397.872 477.837 398.24 478.264C398.609 478.692 398.427 479.546 397.864 479.571C394.478 479.723 390.563 480.29 389.244 483.764C388.861 484.775 391.284 484.938 392.221 484.398C392.765 484.086 393.232 483.665 393.7 483.244C394.038 482.939 394.376 482.634 394.744 482.369C395.845 481.578 397.213 481.163 398.568 481.211C399.115 481.231 399.717 481.357 400.039 481.799C400.361 482.24 400.134 483.043 399.587 483.052C396.077 483.109 392.872 486.152 392.632 489.654C392.645 489.78 392.742 490.359 393.151 490.496C393.629 490.657 394.156 490.267 394.178 490.229C396.005 486.965 399.343 484.784 402.93 485.876C404.286 486.289 405.591 486.918 406.89 487.544C409.163 488.638 411.418 489.725 413.896 489.633L412.409 481.746C406.379 476.22 397.292 474.271 389.527 476.84C388.696 477.115 387.799 477.514 387.459 478.321C387.12 479.128 387.864 480.3 388.682 479.987C387.396 481.176 385.223 479.158 385.713 477.476C386.202 475.795 388.046 474.931 389.741 474.49C399.252 472.018 408.731 476.327 417.892 480.491L417.892 480.491L417.899 480.494C419.597 481.266 421.284 482.032 422.958 482.75C441.611 490.745 462.686 492.981 482.602 489.079C481.738 491.443 478.792 492.158 476.291 492.439C458.552 494.434 440.332 491.993 423.744 485.399C421.718 487.973 422.683 491.972 424.989 494.299C427.295 496.625 430.556 497.682 433.694 498.62C451.282 503.877 469.93 507.897 487.902 504.16L484.989 487.118L484.93 486.807C484.786 486.127 484.521 485.424 483.886 485.208L483.725 485.153C460.69 477.331 443.133 471.369 420.338 449.639C420.292 449.595 420.248 449.55 420.204 449.505C420.036 456.036 417.965 457.473 409.328 455.692C390.484 451.808 371.19 449.774 352.171 452.447C353.609 445.339 355.411 438.304 357.566 431.379C351.377 433.376 344.071 427.704 344.471 421.214C344.871 414.723 352.819 409.992 358.715 412.734C360.741 408.061 360.869 402.597 359.066 397.833C358.2 395.548 361.649 394.229 364.093 394.229L377.595 394.226C379.482 394.225 382.114 393.349 381.645 391.521C380.533 387.185 383.514 382.232 387.866 381.184C392.138 380.156 396.947 383.081 398.051 387.321L398.108 387.557C399.133 392.111 404.901 393.556 409.567 393.467L411.89 393.411C415.926 393.326 420.132 393.457 422.833 396.28C426.063 399.656 425.341 405.033 424.277 409.617L424.205 409.921C423.686 412.111 422.929 413.891 422.167 415.681C420.716 419.091 419.25 422.538 419.38 428.934C419.433 431.541 419.527 433.934 419.634 436.125C420.008 434.586 420.338 433.569 420.338 433.569C420.338 433.569 464.347 466.337 491.527 470.785C494.784 467.907 492.904 462.3 489.623 459.45C488.241 458.249 486.667 457.278 485.097 456.31C482.942 454.981 480.794 453.656 479.159 451.747C475.91 447.953 475.329 442.727 474.753 437.545C474.127 431.91 473.507 426.328 469.469 422.697C469.109 422.373 468.726 422.071 468.342 421.768L468.341 421.767C467.476 421.085 466.613 420.404 466.024 419.483C464.568 417.207 465.284 414.038 467.047 411.99C468.811 409.942 471.39 408.798 473.941 407.908C479.238 406.058 485.046 405.026 490.456 406.516C495.865 408.005 500.71 412.51 501.241 418.095C502.267 415.873 504.521 414.268 506.956 414.024L503.421 417.78L507.894 417.87L501.739 421.307C505.555 428.364 504.937 437.068 502.491 444.709C502.191 445.645 501.865 446.581 501.538 447.518C500.231 451.268 498.913 455.049 499.251 458.962C499.666 463.774 503.939 468.69 508.61 467.705L508.843 467.651C514.457 466.233 520.605 467.054 525.65 469.896C531.533 473.21 535.538 478.83 539.501 484.392C540.421 485.683 541.339 486.97 542.277 488.225C546.675 494.107 551.88 499.577 558.386 502.985C564.892 506.392 572.869 507.517 579.647 504.688C580.893 504.168 582.091 503.521 583.287 502.876C585.318 501.779 587.343 500.686 589.589 500.221C593.157 499.481 597.7 501.227 598.124 504.847C596.278 501.763 591.905 501.216 588.465 502.256C586.523 502.843 584.732 503.802 582.938 504.762C581.554 505.504 580.168 506.246 578.711 506.818C571.412 509.684 562.912 507.947 556.193 503.906C549.683 499.991 544.585 494.145 539.985 488.089L539.541 487.502C539.074 486.882 538.61 486.258 538.145 485.634L538.144 485.632L538.143 485.631L538.142 485.63L538.141 485.628L538.14 485.627L538.139 485.626L538.138 485.624L538.137 485.623C534.903 481.276 531.645 476.898 527.375 473.591C522.587 469.883 516.156 467.691 510.391 469.471L510.039 469.585C504.524 471.453 498.683 466.177 497.69 460.439C496.697 454.702 499.036 448.969 501.325 443.615C503.687 438.092 499.351 431.649 493.885 429.16C488.813 426.85 482.721 426.902 477.69 429.298C476.06 430.075 475.765 432.214 475.819 434.043L475.827 434.245C476.109 440.701 477.834 447.487 482.547 451.909C483.948 453.223 485.567 454.285 487.183 455.345L487.183 455.345C489.206 456.671 491.223 457.994 492.804 459.806C495.647 463.066 496.085 469.172 492.134 470.936C498.912 472.159 505.619 473.78 512.208 475.786C476.758 472.159 444.163 455.439 420.761 435.242C420.282 436.177 419.945 437.166 419.74 438.181C419.794 439.193 419.85 440.157 419.903 441.075C419.977 442.371 420.047 443.574 420.101 444.688C421.227 448.396 423.86 451.664 427.476 453.1C427.19 450.496 428.068 447.786 429.826 445.844C428.685 448.395 426.875 453.287 433.937 458.24ZM488.389 408.335C485.235 407.747 482.029 407.434 478.82 407.401C478.602 407.805 478.519 408.281 478.588 408.734C482.166 409.032 485.689 409.974 488.937 411.503C487.58 412.861 485.337 412.048 483.515 411.387L483.408 411.348C480.294 410.221 476.876 409.949 473.623 410.568C471.964 410.884 470.305 411.452 469.027 412.556C467.75 413.66 466.914 415.379 467.199 417.043C467.563 419.169 469.562 420.622 471.558 421.44C476.506 423.467 482.437 422.895 486.907 419.961C487.27 419.724 487.78 420.121 487.802 420.553C487.823 420.986 487.531 421.369 487.224 421.675C485.442 423.448 482.791 424.013 480.282 424.159C479.549 424.201 478.812 424.216 478.075 424.23H478.075H478.075C476.289 424.265 474.504 424.3 472.779 424.737C473.012 426.16 474.789 426.65 476.227 426.754C481.722 427.153 487.298 426.413 492.499 424.595C493.802 424.14 494.999 425.445 495.767 426.591L501.371 434.953C503.211 433.22 503.101 430.226 502.233 427.852C501.894 426.924 501.462 426.029 501.031 425.136C500.359 423.743 499.688 422.353 499.372 420.846C499.198 420.015 499.136 419.163 499.073 418.312V418.312C498.986 417.117 498.898 415.925 498.502 414.801C497.109 410.841 492.516 409.103 488.389 408.335ZM420.703 484.662L415.617 481.74C415.053 481.416 414.013 481.362 414.07 482.01C413.896 484.635 414.11 487.851 415.798 490.039C416.861 491.418 417.629 492.124 421.385 493.057L421.109 485.704C421.094 485.314 421.041 484.857 420.703 484.662ZM498.15 444.665C498.768 444.307 499.162 443.668 499.53 443.055C500.189 441.959 500.867 440.798 500.896 439.52C500.926 438.242 500.042 436.847 498.765 436.797C498.129 436.772 497.525 437.074 497.005 437.442C495.853 438.257 494.964 439.439 494.499 440.772C495.087 441.619 496.418 440.862 497.01 440.017C497.602 439.172 498.479 438.104 499.42 438.526C498.799 440.682 497.7 442.698 496.224 444.388C496.619 444.985 497.531 445.024 498.15 444.665ZM508.325 506.768C506.91 504.522 505.383 502.097 502.863 501.366C508.454 511.889 517.119 520.755 527.512 526.586C531.14 528.622 534.967 530.294 538.79 531.964C544.123 534.294 549.448 536.62 554.217 539.926C560.193 544.068 565.135 549.689 568.478 556.145C567.164 546.939 559.466 539.892 551.249 535.54C547.529 533.569 543.62 531.981 539.714 530.394L539.713 530.393C534.99 528.474 530.27 526.556 525.89 523.966C518.907 519.836 512.922 514.031 508.583 507.177C508.497 507.042 508.411 506.905 508.325 506.768ZM525.887 509.881L526.043 510.228C526.731 511.82 527.208 513.821 525.916 514.899C524.886 515.758 523.326 515.43 522.111 514.86C519.486 513.628 517.316 511.451 516.092 508.822C517.624 508.518 519.061 507.747 520.161 506.638C521.075 505.717 522.693 505.904 523.723 506.693C524.753 507.482 525.339 508.705 525.887 509.881ZM525.053 513.649C526.376 511.274 523.678 507.772 522.36 507.544C521.787 507.445 521.195 508.013 520.56 508.623C519.907 509.249 519.208 509.919 518.436 509.958C518.436 509.958 523.731 516.023 525.053 513.649ZM591.761 520.477C623.878 519.421 655.232 503.775 675.386 478.747C676.43 477.452 678.495 477.43 679.946 478.244C681.396 479.058 682.376 480.488 683.303 481.869C684.313 481.721 684.343 480.153 683.647 479.406C683.304 479.037 682.872 478.769 682.441 478.502C681.998 478.227 681.555 477.952 681.208 477.568C679.805 476.014 680.555 473.57 681.377 471.645L685.041 463.064C685.532 461.915 686.299 460.574 687.549 460.591C688.464 460.604 689.167 461.368 689.748 462.075C696.071 469.779 701.937 477.857 707.304 486.255C703.995 486.768 700.814 485.138 697.676 483.529C694.171 481.734 690.72 479.965 687.204 481.239C684.141 482.35 682.337 485.434 680.715 488.259C675.41 497.502 669.333 506.404 661.636 513.774C643.759 530.889 618.814 538.296 594.512 542.98C609.544 548.67 626.103 550.266 641.945 547.552C651.011 545.999 660.051 542.94 667.117 537.051C669.978 534.666 672.46 531.867 674.929 529.079L693.128 508.536C694.193 507.333 696.16 508.488 697.153 509.751C698.145 511.015 699.492 512.59 701.006 512.051C699.922 509.624 698.041 507.562 695.724 506.26C695.587 503.363 695.5 500.259 697.041 497.801C698.582 495.343 702.422 494.146 704.421 496.248C710.974 503.142 717.253 510.296 723.239 517.688C719.726 518.24 716.389 516.728 713.077 515.228L713.076 515.228L713.076 515.228L713.075 515.228L713.075 515.227L713.074 515.227C712.051 514.764 711.031 514.301 710.008 513.901C705.673 512.206 699.597 512.242 697.62 516.456C692.214 527.98 686.597 539.8 677.317 548.514C661.818 563.066 639.173 566.351 618.049 568.747C608.68 569.809 599.057 570.817 589.935 568.431C583.295 566.695 577.254 563.241 571.303 559.824L566.58 557.112C565.19 557.46 566.306 559.567 567.541 560.295C575.448 564.958 583.598 569.71 592.666 571.139C594.976 571.503 597.316 571.645 599.653 571.732C621.172 572.541 642.851 568.766 662.83 560.732C671.162 557.381 679.641 552.902 684.216 545.175L700.34 517.946C700.958 516.903 701.637 515.802 702.733 515.284C704.068 514.653 705.638 515.055 707.055 515.467L722.169 519.857C723.713 520.305 725.148 518.494 724.987 516.894C724.826 515.294 723.671 513.997 722.573 512.821L708.635 497.904C706.796 495.935 704.82 493.882 702.223 493.165C699.627 492.449 696.289 493.71 695.781 496.355C694.282 504.164 688.948 510.599 683.8 516.658C675.831 526.037 667.536 535.675 656.476 541.072C640.616 548.811 621.875 546.563 604.51 543.419L615.77 540.139C621.343 538.516 626.926 536.889 632.328 534.766C653.288 526.53 671.141 510.639 681.75 490.775C683.592 487.328 685.757 483.343 689.604 482.651C692.766 482.082 695.462 483.949 698.217 485.857C699.855 486.992 701.515 488.141 703.306 488.802C705.948 489.777 710.048 488.389 709.426 485.643C709.286 485.022 708.91 484.485 708.541 483.966L694.204 463.753C692.215 460.949 689.234 457.78 685.961 458.833C683.331 459.679 682.345 462.715 681.475 465.392L681.395 465.635L681.359 465.746L681.319 465.87C677.238 478.305 666.264 486.992 655.849 494.918C651.292 498.386 646.724 501.862 641.806 504.796C627.442 513.366 610.596 516.995 593.904 518.079C589.188 518.385 586.224 522.809 583.511 526.858C583.188 527.34 582.87 527.816 582.552 528.279C577.906 535.049 571.29 540.449 563.727 543.646C564.992 545.044 567.297 544.206 568.896 543.206C576.484 538.464 582.921 531.893 587.507 524.208C588.518 522.514 589.788 520.542 591.761 520.477ZM490.993 447.923C490.255 449.541 488.608 450.705 486.838 450.863C485.067 451.02 483.241 450.164 482.229 448.703C481.857 448.166 481.86 447.117 482.511 447.173C483.865 448.972 486.69 449.437 488.549 448.167C489.354 447.617 490.751 446.979 490.993 447.923ZM476.758 436.17C476.918 434.815 478.06 433.638 479.409 433.437C480.759 433.236 482.195 434.028 482.743 435.277C481.757 435.277 481.096 435.099 480.546 434.95C479.426 434.648 478.764 434.47 476.758 436.17ZM487.215 443.717L485.679 444.375L485.59 444.324C485.192 445.082 484.02 444.224 483.93 443.372C483.911 443.196 483.902 443.01 483.893 442.821C483.859 442.1 483.824 441.35 483.227 441.026C482.482 442.1 482.141 443.512 482.575 444.746C483.008 445.979 484.327 446.914 485.614 446.682C486.9 446.45 487.824 444.873 487.215 443.717ZM489.058 433.25C491 433.406 491.516 433.511 492.052 434.788C492.158 435.039 491.327 434.803 490.536 434.577L490.536 434.577C489.954 434.411 489.394 434.251 489.242 434.296C482.743 436.223 487.116 433.094 489.058 433.25ZM488.509 436.607C489.582 437.457 489.271 440.845 487.687 440.208C487.024 439.941 486.231 434.8 488.509 436.607ZM539.88 527.342C539.368 526.704 539.948 525.565 540.766 525.605C541.127 525.839 541.372 526.242 541.414 526.67C541.104 527.174 540.463 527.45 539.885 527.328L539.88 527.342ZM525.286 520.737L526.402 520.567L526.491 520.535C526.879 519.811 525.612 518.984 525.105 519.631C524.995 520.002 525.063 520.421 525.286 520.737ZM533.231 525.138C532.584 525.314 532.497 524.203 532.861 523.64L534.405 524.343C534.167 524.761 533.725 525.055 533.248 525.114L533.231 525.138ZM513.941 508.947C513.77 508.523 513.155 508.36 512.797 508.645L512.895 508.743C512.586 509.148 512.832 509.839 513.327 509.958C513.782 509.914 514.112 509.371 513.941 508.947ZM480.005 440.287C479.383 440.287 478.732 439.678 478.764 438.622C478.797 437.565 479.084 436.589 480.005 437.108C480.926 437.626 480.646 440.287 480.005 440.287ZM190.375 311.906C190.749 312.399 191.605 312.182 191.935 311.659C192.264 311.135 192.223 310.468 192.163 309.853C191.301 300.949 188.991 292.187 185.349 284.017C184.312 281.69 183.222 278.788 184.81 276.795C188.48 285.97 192.182 295.258 193.519 305.049C193.884 307.721 194.015 310.647 192.525 312.895C191.035 315.143 187.323 316.005 185.668 313.876C188.214 313.344 190.161 310.766 189.978 308.172C191.154 308.974 191.356 310.875 190.375 311.906ZM220.046 488.694C233.365 487.963 248.796 486.04 255.782 474.677C257.594 471.73 257.208 467.098 256.889 463.28C256.633 460.213 256.421 457.672 257.428 456.955C259.689 455.343 261.497 459.499 261.497 459.499C261.526 459.379 261.557 459.248 261.589 459.106C261.631 458.92 261.677 458.717 261.725 458.499C262.356 455.668 263.519 450.453 265.345 451.432C266.097 451.835 265.838 454.371 265.66 456.113L265.66 456.114C265.619 456.522 265.581 456.887 265.563 457.171C265.52 457.44 265.514 457.665 265.546 457.824C265.572 457.814 265.598 457.799 265.626 457.78C265.637 457.778 265.65 457.772 265.664 457.76C265.674 457.751 265.685 457.74 265.696 457.727C265.991 457.477 266.396 456.861 266.846 456.176C267.779 454.756 268.907 453.038 269.663 453.669C270.85 454.661 266.629 460.988 266.629 460.988C266.629 460.988 271.642 455.48 272.064 457.824C272.487 460.169 261.072 481.34 250.768 489.644C240.464 497.947 225.946 502.596 212.817 500.931C213.111 495.725 214.839 488.98 220.046 488.694ZM265.696 457.727C265.672 457.747 265.649 457.765 265.626 457.78C265.546 457.793 265.537 457.558 265.563 457.171C265.66 456.558 265.946 455.719 266.404 454.917C266.317 455.192 266.23 455.458 266.149 455.709C265.783 456.831 265.518 457.644 265.793 457.58C265.77 457.621 265.749 457.654 265.73 457.682C265.718 457.699 265.707 457.714 265.696 457.727ZM268.177 452.949C267.439 453.416 266.842 454.149 266.404 454.917C267.088 452.751 267.78 450.019 266.097 449.801C263.242 449.43 260.451 454.077 260.947 456.545C260.155 454.578 256.858 455.429 256.06 457.393C255.447 458.9 255.708 460.551 255.966 462.19L255.966 462.19L255.966 462.19C256.045 462.687 256.123 463.182 256.177 463.672C257.034 471.504 251.163 478.824 244.045 482.202C237.334 485.386 229.718 485.834 222.268 486.065L220.53 486.115C216.277 486.227 211.672 486.129 208.426 483.414C205.082 480.617 205.085 473.98 209.285 472.807C219.945 469.83 228.076 459.443 228.407 448.38C228.505 445.111 230.625 442.39 232.675 439.761C232.774 439.633 232.874 439.505 232.973 439.378C233.057 439.27 233.14 439.162 233.224 439.054L233.674 438.465C235.968 435.422 237.854 431.229 235.927 427.941C232.943 431.77 227.353 433.314 222.826 431.56C220.938 430.827 219.265 429.604 217.602 428.389C215.375 426.761 213.167 425.146 210.486 424.743C205.242 423.953 200.04 429.263 200.938 434.49C199.518 433.298 197.314 435.102 197.161 436.949C197.071 438.034 197.356 439.09 197.643 440.151C197.844 440.895 198.046 441.642 198.119 442.402C198.204 443.288 198.113 444.174 198.022 445.061C197.961 445.661 197.899 446.261 197.892 446.862C197.854 449.973 199.24 452.853 200.606 455.688L200.607 455.692L200.609 455.696C200.746 455.979 200.882 456.263 201.017 456.546L201.382 457.324C202.936 460.694 204.089 464.705 202.433 468.026C200.776 471.347 195.138 472.387 193.54 469.038C185.711 452.62 167.966 441.441 149.777 441.468C128.717 441.5 109.769 455.379 97.3581 472.393C95.8102 474.515 94.2952 476.801 93.9579 479.406C93.6206 482.01 94.8293 485 97.3072 485.871C99.785 486.743 102.998 484.306 102.191 481.806C103.448 483.273 106.019 481.886 106.611 480.046C106.944 479.013 106.94 477.923 106.936 476.829C106.933 475.976 106.929 475.121 107.086 474.289C107.854 470.209 112.05 467.852 115.828 466.129L116.59 465.783C125.487 461.757 134.758 458.162 144.49 457.478C154.5 456.775 165.183 459.557 172.062 466.863C162.675 469.091 157.224 478.509 152.879 487.209L152.276 488.422C147.889 497.232 142.142 506.844 132.521 508.712C132.887 510.61 134.563 512.18 136.481 512.421L101.211 533.39L103.917 536.746C95.329 549.908 85.6166 562.335 74.9198 573.848C69.104 580.108 61.5522 586.594 53.1329 585.137C51.6105 584.874 50.1344 584.351 48.6635 583.83C46.5095 583.067 44.3665 582.308 42.105 582.373C38.299 582.482 34.4796 587.112 37.063 589.908C42.7845 596.103 49.3146 601.549 56.4352 606.066L56.6196 606.182C57.4864 606.722 58.4399 607.226 59.445 607.111C60.4611 606.994 61.2884 606.271 62.0441 605.582L109.812 562.028C113.724 558.49 118.029 554.95 123.241 554.43L123.68 554.377C127.535 553.84 130.71 551.404 133.894 548.96C135.281 547.896 136.669 546.83 138.116 545.92C143.011 542.839 151.131 542.523 153.035 547.984C154.047 550.887 152.723 553.839 151.417 556.749C151.028 557.616 150.641 558.479 150.318 559.336C148.91 563.069 150.064 568.812 154.053 568.741L176.377 568.346C177.179 568.338 178.024 568.383 178.648 568.874C179.301 569.387 179.53 570.242 179.655 571.08L179.707 571.464C180.548 578.301 180.432 585.256 179.363 592.061C178.206 599.437 175.126 607.549 168.167 610.253C163.778 611.959 158.889 611.073 154.266 610.014L126.176 603.453C126.129 600.051 129.206 597.282 132.487 596.38C135.268 595.616 138.19 595.849 141.083 596.08L141.375 596.103L141.616 596.122L142.637 596.198C149.746 596.687 156.933 596.027 163.834 594.251L153.876 569.331C154.891 577.604 157.129 585.726 160.494 593.351L127.759 594.413C124.909 594.493 121.744 594.367 119.828 592.287C119.336 591.753 118.926 591.096 118.52 590.444C117.686 589.107 116.867 587.795 115.386 587.624C114.106 587.475 112.946 588.33 111.966 589.166C105.566 594.625 100.252 601.352 96.4239 608.842C97.8042 612.26 102.377 613.216 105.93 612.235C108.009 611.662 109.906 610.628 111.806 609.592L111.807 609.592C113.155 608.857 114.505 608.122 115.923 607.548C123.836 604.35 132.535 606.518 140.891 609.034L145.855 610.545C155.664 613.492 167.624 615.003 174.975 607.871C179.312 603.662 180.892 597.4 181.751 591.417C184.229 574.154 182.22 556.267 175.974 539.984C182.939 537.297 186.225 529.506 188.78 522.493L193.783 508.757C195.455 504.168 199.253 498.537 203.773 500.386C216.696 505.671 231.96 503.437 243.992 496.353C256.023 489.268 265.03 477.793 271.096 465.218L271.259 464.878C272.446 462.379 273.959 456.549 272.607 455.902C272.104 455.507 271.206 456.164 270.594 456.611C270.264 456.853 270.016 457.034 269.96 456.955C269.926 456.906 270.037 456.583 270.194 456.125C270.812 454.325 272.146 450.439 268.177 452.949ZM182.659 530.052C181.095 533.567 178.508 537.704 174.69 537.237C172.645 536.987 171.101 535.444 169.711 533.858L168.967 532.996C160.896 523.628 149.933 517.401 138.914 511.67L135.243 509.774C144.219 508.008 149.756 499.131 153.71 490.882L154.969 488.253C158.585 480.758 162.699 473.046 170.156 469.672C171.186 469.205 172.368 468.834 173.431 469.222C173.514 469.252 173.599 469.284 173.688 469.317C173.76 469.345 173.833 469.373 173.908 469.402L173.947 469.417C175.26 469.921 176.95 470.571 176.923 469.328C174.53 468.363 174.137 464.874 175.517 462.694C176.777 460.704 178.96 459.555 181.121 458.566L181.737 458.287C180.358 456.386 177.371 457.984 175.809 459.739L175.681 459.882C174.114 461.6 171.71 463.482 169.902 462.085C162.43 456.312 152.472 454.459 143.074 455.365C133.676 456.271 124.709 459.708 116.123 463.636C112.976 465.076 109.78 466.646 107.444 469.2C105.638 471.175 105.45 473.805 105.262 476.448C105.207 477.222 105.152 477.997 105.056 478.757C104.824 480.594 103.813 480.665 102.923 480.727C102.446 480.76 102.003 480.79 101.734 481.09C101.712 481.114 101.642 481.221 101.537 481.382C101.003 482.203 99.5559 484.425 98.9025 484.203C97.9429 483.878 98.4323 481.806 98.4323 481.806C98.4323 481.806 95.5844 482.62 95.3724 481.806C94.6309 478.958 98.9025 473.131 98.9025 473.131C106.085 462.565 116.735 453.798 128.445 448.702C140.371 443.512 154.288 442.51 166.48 447.041C180.225 452.15 191.109 464.354 194.618 478.591C195.493 482.141 199.622 483.708 203.23 484.298C203.569 484.354 203.913 484.407 204.259 484.461C207.588 484.981 211.129 485.535 213.251 488.077C213.876 488.826 213.704 489.935 213.489 490.887L213.426 491.162C212.634 494.557 211.254 498.357 207.954 499.388C204.956 500.324 201.403 497.907 201.174 494.774C201.154 494.498 201.148 494.206 201.142 493.91C201.116 492.693 201.09 491.41 200.067 490.908L182.659 530.052ZM154.303 548.621C153.182 542.859 149.774 537.676 145.303 533.873C145.477 536.138 146.436 538.335 147.976 540.004C140.399 542.413 133.254 546.172 126.978 551.053C125.298 552.36 122.445 553.551 121.461 551.664C117.59 544.241 111.428 538.032 104.034 534.106L134.432 516.637C135.806 515.848 137.259 515.035 138.844 515.02C140.072 515.008 141.239 515.478 142.35 516.026L142.9 516.305C154.276 522.163 164.458 530.326 172.652 540.155C174.68 542.588 175.625 545.704 176.428 548.787L180.044 562.913C180.283 563.848 180.459 565.006 179.726 565.635C179.314 565.989 178.733 566.05 178.191 566.092L177.557 566.14C168.556 566.833 161.294 567.392 152.276 566.092C150.93 563.512 151.947 560.315 152.997 557.013C153.897 554.185 154.821 551.279 154.303 548.621ZM109.081 539.934C112.454 542.905 115.495 546.252 118.129 549.894C118.41 550.283 118.7 550.718 118.67 551.198C118.635 551.758 118.182 552.189 117.759 552.558L78.4708 586.945C76.8325 588.379 74.2192 588.127 72.3842 586.956C70.7786 585.931 69.6305 584.359 68.5772 582.757L68.1305 582.07C78.3698 576.689 84.938 567.05 91.5646 557.324C95.7211 551.224 99.9006 545.09 105.023 539.952C105.521 539.453 106.083 538.936 106.784 538.857C107.651 538.76 108.427 539.358 109.081 539.934ZM223.495 444.018L224.498 444.326C226.451 444.931 226.776 447.548 226.527 449.577C225.498 457.981 220.274 466.299 212.22 468.91L211.933 469.007C206.684 470.86 202.933 476.35 203.157 481.919C199.634 482.579 195.857 479.761 195.487 476.196C195.413 475.485 195.623 474.562 196.33 474.453C199.53 473.962 202.474 471.998 204.157 469.231C205.839 466.465 206.229 462.947 205.194 459.879C204.982 459.252 204.714 458.625 204.444 457.997C203.679 456.21 202.911 454.417 203.448 452.616C204.675 452.729 204.908 454.411 204.778 455.636L204.764 455.785C204.665 456.993 204.878 458.542 206.05 458.703C206.822 456.93 206.983 454.945 207.142 452.975C207.343 450.487 207.542 448.023 208.969 446.041C210.6 443.775 213.526 442.733 216.318 442.701C218.761 442.672 221.149 443.306 223.495 444.018ZM46.9659 585.704L47.2179 585.413C48.624 585.105 49.9667 586.906 49.2703 588.166C48.8236 588.974 50.1975 589.774 50.9647 589.26C51.7318 588.746 51.8866 587.701 51.971 586.782C52.7428 586.54 53.4105 587.424 53.5562 588.22C53.5947 588.43 53.6186 588.647 53.6425 588.865C53.709 589.471 53.7757 590.078 54.1581 590.534C54.6778 591.154 56.0546 590.833 55.8288 590.057C55.4919 588.898 56.8605 587.952 58.0549 587.781C58.3421 587.74 58.6386 587.716 58.9359 587.692C59.8752 587.615 60.8221 587.537 61.5059 586.927L61.609 586.845C62.4767 586.229 63.5511 587.368 64.206 588.379L64.5106 588.869C65.9507 591.108 68.3986 592.676 71.0376 593.034C71.5547 593.104 71.2916 593.91 70.9117 594.268L62.0052 602.656C61.5734 603.062 60.8738 602.773 60.368 602.463C55.0812 599.226 50.2007 595.326 45.8769 590.884C44.5147 589.485 45.6699 587.252 46.9659 585.704ZM124.855 601.315C124.598 602.373 123.868 603.557 122.782 603.477C120.166 603.283 117.514 603.599 115.016 604.4C115.245 603.335 114.779 602.153 113.884 601.531C113.232 602.465 113.498 603.911 114.441 604.551L111.951 607.011L110.759 604.272C110.171 604.428 110.154 605.149 110.194 605.811L110.223 606.221C110.343 607.956 108.872 609.642 107.137 609.759C105.403 609.876 103.719 608.403 103.604 606.668C103.479 604.779 104.926 603.193 106.272 601.861L115.825 592.401C116.029 592.208 116.261 592.028 116.536 592.032C116.839 592.038 117.084 592.268 117.298 592.483L121.026 596.245C121.749 596.975 121.292 598.091 120.847 599.179C120.388 600.298 119.942 601.388 120.808 601.995C121.65 602.045 122.352 601.313 122.676 600.534C122.841 600.136 122.942 599.716 123.042 599.297C123.139 598.893 123.235 598.49 123.389 598.106C123.703 597.323 124.381 596.577 125.225 596.595C126.069 596.613 126.721 597.819 126.068 598.354C125.372 598.925 125.173 599.853 124.98 600.755C124.94 600.944 124.9 601.132 124.855 601.315ZM59.5347 605.498C50.9476 600.905 43.3571 594.46 37.4324 586.731C38.2093 585.994 39.3776 586.777 40.129 587.611L40.3151 587.829C45.9445 594.795 53.0143 600.592 60.9484 604.747C60.8841 605.373 60.09 605.795 59.5347 605.498ZM100.717 603.739C104.437 598.874 108.559 594.317 113.026 590.128C113.719 589.479 115.157 589.041 115.332 589.974C110.131 594.939 105.157 600.14 100.43 605.558C99.916 605.112 100.304 604.279 100.717 603.739ZM72.1498 591.576C69.5541 590.653 67.24 588.953 65.5821 586.753C64.9583 585.925 64.5648 584.487 65.5101 584.061C66.2571 583.725 66.9748 584.431 67.4958 585.116L67.8865 585.647C69.5655 587.863 71.9603 589.529 74.6239 590.326C74.6286 591.036 74.0403 591.702 73.3345 591.785C72.9325 591.833 72.5311 591.712 72.1498 591.576ZM199.527 447.613C200.747 447.642 201.78 448.914 201.558 450.115L201.587 450.132C201.756 451.002 201.645 451.924 201.274 452.729C199.94 451.421 199.272 449.465 199.527 447.613ZM222.774 447.643C222.928 447.63 223.09 447.615 223.254 447.613C223.46 447.611 223.697 447.648 223.921 447.682C224.525 447.776 225.031 447.854 224.553 447.107C223.899 446.082 221.984 445.967 221.67 447.141C221.757 447.733 222.214 447.692 222.774 447.643ZM224.315 452.71C224.325 452.675 224.334 452.639 224.343 452.604C224.809 450.84 224.539 449.448 223.254 449.448C222.758 449.486 222.001 452.011 222.073 452.776C222.146 453.542 223.009 454.251 223.677 453.87C224.073 453.645 224.2 453.155 224.315 452.71ZM215.839 452.174C214.943 450.93 214.849 449.159 215.608 447.826C215.721 447.628 215.858 447.432 216.057 447.318C216.559 447.03 217.232 447.42 217.453 447.956C217.675 448.491 217.578 449.098 217.478 449.669C217.478 449.669 216.734 453.419 215.839 452.174ZM405.623 452.211C389.257 448.197 372.159 447.181 355.433 449.233C358.336 442.47 359.61 435.014 359.119 427.67C354.76 430.725 347.604 427.141 347.439 421.821C347.274 416.502 354.194 412.481 358.733 415.26C359.937 415.996 361.259 414.469 361.741 413.143C363.38 408.625 363.396 403.537 361.785 399.009C361.158 397.246 363.819 396.289 365.691 396.326L381.574 396.64C382.64 396.661 383.773 396.666 384.684 396.11C385.595 395.555 386.112 394.219 385.443 393.389C382.694 389.978 385.853 383.875 390.224 384.15C394.596 384.424 396.966 390.875 393.813 393.915C393.224 394.482 394.367 395.211 395.184 395.23L415.952 395.708C420.082 395.803 423.001 400.204 423.17 404.332C423.312 407.825 422.072 411.171 420.846 414.476C420.74 414.764 420.633 415.051 420.527 415.339L420.188 416.274C416.51 426.595 415.326 437.795 416.765 448.658C417.046 450.777 415.095 452.662 413.007 453.121C411.165 453.525 409.268 453.124 407.424 452.663L405.623 452.211Z" fill="#00160A"/>
<path fill-rule="evenodd" clip-rule="evenodd" d="M184.261 262.125C184.413 261.146 185.717 260.581 186.66 260.917C187.603 261.253 188.444 262.605 187.754 263.37C186.66 264.581 183.968 264.025 184.261 262.125Z" fill="#FFB61D"/>
<path fill-rule="evenodd" clip-rule="evenodd" d="M594.67 515.609C594.054 516.126 592.817 516.313 592.703 515.517C595.108 513.069 596.763 509.894 597.391 506.52C598.176 506.31 598.403 507.56 598.206 508.349C597.543 511.007 596.768 513.848 594.67 515.609Z" fill="#00160A"/>
<path d="M63.626 224.025C63.6016 224.814 62.4048 224.768 61.6811 224.453C61.9416 223.749 62.9977 223.513 63.5327 224.04L63.626 224.025Z" fill="black"/>
<path fill-rule="evenodd" clip-rule="evenodd" d="M405.135 440.768C404.301 441.51 402.899 440.376 403.023 439.267C403.146 438.157 404.129 437.364 405.072 436.766C408.451 434.626 412.364 433.336 416.353 433.047C416.46 434.569 414.488 435.197 412.991 435.489C409.815 436.108 406.789 437.484 404.235 439.471C404.697 439.754 405.032 440.237 405.135 440.768V440.768Z" fill="#00160A"/>
<path fill-rule="evenodd" clip-rule="evenodd" d="M416.467 442.709C414.595 443.612 412.69 444.447 410.757 445.211C410.976 446.026 412.148 445.999 412.943 445.713C413.737 445.426 414.782 445.124 415.297 445.794C413.99 447.789 410.752 448.1 409.089 446.39C408.366 445.647 407.057 446.136 406.123 445.685C404.787 445.04 405.036 443.022 405.823 441.764C407.465 439.137 410.597 437.517 413.69 437.695C414.868 437.763 416.275 438.344 416.353 439.521C412.659 439.289 408.893 440.812 406.399 443.547C407.816 444.643 409.848 443.825 411.446 443.015C413.044 442.206 415.154 441.49 416.467 442.709Z" fill="#00160A"/>
<path fill-rule="evenodd" clip-rule="evenodd" d="M219.826 453.187C220.886 454.248 221.326 454.733 221.326 456.294C221.326 457.854 220.48 458.855 219.051 459.313C218.393 459.525 217.481 459.363 217.31 458.693C222.07 457.721 220.321 455.646 219.826 453.187Z" fill="#00160A"/>
<path fill-rule="evenodd" clip-rule="evenodd" d="M213.476 446.55C213.983 444.866 216.192 443.956 217.738 444.794C218.35 445.125 218.859 445.728 218.891 446.423C217.086 446.465 215.599 445.298 213.476 446.55Z" fill="#00160A"/>
<path fill-rule="evenodd" clip-rule="evenodd" d="M217.797 461.59C207.728 456 215.611 463.163 217.797 461.59V461.59Z" fill="#00160A"/>
</svg>
