<svg width="750" height="750" viewBox="0 0 750 750" fill="none" xmlns="http://www.w3.org/2000/svg">
<rect width="750" height="750" fill="none"/>
<path fill-rule="evenodd" clip-rule="evenodd" d="M464.409 154.581C465.584 110.965 410.383 36.5075 319.952 49.4804C220.942 63.6837 149.101 177.449 163.412 304.602L163.957 309.486C172.743 388.905 175.679 451.466 160.499 539.559C149.149 605.422 229.857 751.241 408.387 728.173C586.917 705.106 684.979 491.031 600.73 390.021C488.203 255.103 461.838 250.04 464.409 154.581Z" />
<path fill-rule="evenodd" clip-rule="evenodd" d="M358.385 281.741C355.322 273.859 349.52 267.422 344.498 260.618C331.069 242.428 322.741 220.513 320.701 197.995C319.612 185.974 323.747 127.301 345.614 113.537C334.818 110.213 323.747 106.747 314.892 99.734C306.037 92.7208 299.77 81.2551 302.153 70.2135C305.76 53.5015 327.465 46.3267 343.655 51.8196C359.846 57.3125 371.492 71.2088 382.268 84.4819C392.572 83.614 395.13 68.4317 404.541 64.1473C410.889 61.2574 418.269 64.2203 424.423 67.5031C442.332 77.0566 459.106 90.1568 468.575 108.11C478.045 126.064 478.865 149.5 466.799 165.822C471.194 160.79 480.302 167.048 479.782 173.709C479.261 180.37 473.377 185.203 467.76 188.82C462.143 192.437 455.866 196.186 453.646 202.488C448.059 218.351 439.182 233.047 427.742 245.374C420.752 252.906 412.728 259.682 407.543 268.554C402.359 277.426 400.627 289.348 406.674 297.656C414.715 289.098 428.574 286.691 439.03 292.038C449.485 297.384 455.647 310.029 453.416 321.558C467.985 322.809 481.073 334.35 484.137 348.648C513.676 378.424 537.803 413.552 554.993 451.81C565.904 476.095 574.007 501.527 582.085 526.895C585.246 536.821 588.445 547.219 586.684 557.487C583.109 578.336 560.491 590.619 539.482 593.087C513.324 596.16 486.067 588.53 465.306 572.323C454.217 606.808 443.147 644.477 455.754 678.438C458.454 685.71 453.055 693.971 446.002 697.202C438.95 700.434 430.832 699.962 423.093 699.425C379.716 696.419 336.34 693.412 292.963 690.405C283.873 689.775 271.445 684.427 274.663 675.903C281.848 656.865 283.901 635.918 280.549 615.848C277.991 629.366 273.557 642.526 267.412 654.835C267.412 654.835 245.76 699.425 224.168 676.541C211.861 651.674 211.33 622.556 214.963 595.05C218.596 567.543 226.105 540.626 229.04 513.037C231.898 486.159 230.379 458.961 233.175 432.077C235.97 405.192 243.697 377.66 262.047 357.814C276.566 342.112 291.085 326.41 305.604 310.707C309.513 306.48 313.633 302.107 319.038 300.124C324.444 298.141 331.51 299.402 334.29 304.444C337.717 300.181 341.727 295.586 347.167 295.015C352.608 294.445 358.285 301.11 354.793 305.319C361.052 299.634 361.448 289.623 358.385 281.741Z" fill="white"/>
<path fill-rule="evenodd" clip-rule="evenodd" d="M474.137 348.648C503.676 378.423 527.803 413.552 544.993 451.81C555.904 476.095 564.007 501.527 572.085 526.895C575.246 536.821 578.445 547.219 576.684 557.487C573.109 578.336 550.491 590.619 529.482 593.087C503.324 596.16 477.745 586.937 456.984 570.73C445.895 605.215 433.147 644.477 445.754 678.437C446.896 681.515 449.876 684.996 448.606 687.972C446.876 692.028 440.07 695.338 436.002 697.202C434.931 697.693 437.791 687.547 437.666 672.657C437.454 647.317 426.829 559.279 451.838 565.095C512.92 579.299 558.973 577.097 559.939 561.944C564.842 485.014 471.073 334.35 474.137 348.648Z" fill="#E7EAEE"/>
<path fill-rule="evenodd" clip-rule="evenodd" d="M340.826 264.995L340.826 264.994L340.826 264.994L340.825 264.993L340.825 264.993L340.824 264.992L340.824 264.992L340.823 264.991L340.823 264.99L340.822 264.99L340.822 264.989L340.821 264.989L340.821 264.988L340.821 264.987L340.82 264.987L340.82 264.986L340.819 264.986C339.699 263.535 338.58 262.085 337.498 260.618C324.069 242.428 315.741 220.513 313.701 197.995C312.612 185.974 316.747 127.301 338.614 113.537C327.818 110.213 316.747 106.747 307.892 99.734C299.037 92.7208 292.77 81.2551 295.153 70.2135C298.76 53.5015 320.465 46.3267 336.655 51.8196C352.846 57.3125 364.492 71.2088 375.268 84.4819C380.943 84.0039 384.269 79.1833 387.683 74.233C390.468 70.1956 393.313 66.0719 397.541 64.1473C403.889 61.2574 411.269 64.2203 417.423 67.5031C435.332 77.0566 452.106 90.1568 461.575 108.11C471.045 126.064 471.865 149.5 459.799 165.822C464.194 160.79 473.302 167.048 472.782 173.709C472.261 180.37 466.377 185.203 460.76 188.82C460.461 189.012 460.16 189.205 459.858 189.399C454.486 192.843 448.748 196.522 446.646 202.488C441.059 218.351 432.182 233.047 420.742 245.374C418.882 247.378 416.948 249.329 415.015 251.28L415.014 251.28L415.014 251.28C409.682 256.661 404.348 262.043 400.543 268.554C395.359 277.426 393.627 289.348 399.674 297.656C407.715 289.098 421.574 286.691 432.03 292.038C442.485 297.384 448.647 310.029 446.416 321.558C460.985 322.809 474.073 334.35 477.137 348.648C506.676 378.424 530.803 413.552 547.993 451.81C558.904 476.095 567.007 501.527 575.085 526.895C578.246 536.821 581.445 547.219 579.684 557.487C576.109 578.336 553.491 590.619 532.482 593.087C506.324 596.16 479.067 588.53 458.306 572.323C447.217 606.808 436.147 644.477 448.754 678.438C449.87 681.444 449.602 684.619 448.405 687.538C440.196 669.7 438.692 649.339 440.888 629.817C443.102 610.136 448.889 591.057 454.649 572.108C455.604 568.966 450.613 568.137 447.359 567.691C441.581 566.899 437.389 561.976 433.775 557.399L419.084 538.788C409.602 526.777 398.67 513.885 383.545 511.559C379.35 510.914 375.105 511.149 370.854 511.384C368.265 511.527 365.673 511.67 363.088 511.615C353.05 511.4 343.1 508.096 334.927 502.264C332.967 500.866 330.978 499.114 330.576 496.74C330.183 494.422 332.278 491.704 334.503 492.294L334.661 492.342C334.637 492.334 334.613 492.326 334.589 492.319C334.561 492.31 334.532 492.302 334.503 492.294C327.422 490.158 320.678 486.905 314.598 482.692C313.478 481.916 312.335 481.054 311.758 479.819C310.51 477.151 312.575 473.883 315.296 472.757C318.018 471.631 321.1 472.042 324.014 472.471C320.538 471.765 316.954 471.014 314.041 468.99C311.129 466.965 309.042 463.311 309.944 459.881C310.845 456.451 315.573 454.328 318.238 456.668C317.075 453.205 319.596 449.368 322.894 447.797C326.192 446.226 330.013 446.35 333.661 446.551C348.965 447.395 364.227 449.029 379.363 451.442L377.146 420.304C377.056 419.034 376.946 417.704 376.258 416.633C375.376 415.261 373.744 414.607 372.215 414.04C341.404 402.626 309.708 393.604 277.505 387.08L284.719 522.233C284.941 526.377 286.095 531.634 290.19 532.307C315.631 536.495 340.588 543.622 364.404 553.501C367.749 554.889 370.195 550.205 370.811 546.637L376.914 511.266C377.762 526.218 375.623 541.334 370.659 555.463C374.455 556.356 376.652 551.341 377.259 547.489L382.77 512.536C383.709 524.926 382.625 537.468 379.576 549.514C378.875 552.28 377.812 555.339 375.225 556.543C373.036 557.562 370.472 556.901 368.154 556.225L287.566 532.724C286.299 532.354 284.977 531.953 284.037 531.026C282.64 529.646 282.449 527.492 282.341 525.531L275.634 403.666C275.199 395.766 275.631 387.847 276.062 379.947L278.273 339.488C265.302 385.181 264.077 433.616 269.541 480.799C275.006 527.982 287.009 574.153 300.16 619.795C294.627 610.33 290.585 599.995 288.23 589.287C281.798 598.493 275.049 608.987 276.884 620.067C279.966 638.675 278.001 658.095 271.253 675.709C269.714 679.726 272.481 684.359 276.269 686.397C280.058 688.434 284.551 688.535 288.853 688.589L346.117 689.3C344.538 687.295 345.108 683.968 347.265 682.604C346.687 688.827 354.67 691.757 360.863 692.6C390.123 696.58 421.227 700.312 448.119 688.193C446.327 692.06 442.92 695.407 439.002 697.202C431.95 700.434 423.832 699.962 416.093 699.425L285.963 690.405C276.873 689.775 264.445 684.427 267.663 675.903C274.848 656.865 276.901 635.918 273.549 615.848C270.991 629.366 266.557 642.526 260.412 654.835C262.932 634.283 269.823 614.277 280.492 596.532C288.086 583.901 283.711 567.829 279.811 553.616C261.342 486.327 258.479 414.805 271.51 346.254C243.699 366.583 232.088 402.657 228.79 436.947C227.41 451.283 227.182 465.719 226.955 480.146C226.637 500.226 226.32 520.288 222.9 540.04C221.338 549.064 219.134 557.982 216.931 566.893C213.451 580.972 209.974 595.036 209.04 609.475C207.582 632.024 212.389 654.456 217.168 676.541C204.861 651.674 204.33 622.556 207.963 595.05C209.63 582.426 212.114 569.927 214.597 557.429L214.597 557.429C217.525 542.695 220.452 527.965 222.04 513.037C223.479 499.5 223.809 485.882 224.138 472.264C224.463 458.843 224.787 445.421 226.175 432.077C228.97 405.192 236.697 377.66 255.047 357.814L298.604 310.707C302.513 306.48 306.633 302.107 312.038 300.124C317.444 298.141 324.51 299.402 327.29 304.444C330.717 300.181 334.727 295.586 340.167 295.015C345.608 294.445 351.285 301.11 347.793 305.319C354.052 299.634 354.448 289.623 351.385 281.741C348.984 275.562 344.899 270.27 340.826 264.995ZM448.119 688.193C448.22 687.977 448.315 687.758 448.405 687.538C448.472 687.683 448.539 687.827 448.606 687.972C448.538 688.003 448.469 688.035 448.4 688.066C448.306 688.109 448.213 688.151 448.119 688.193ZM576.711 546.081C578.184 558.361 571.6 570.706 561.831 578.292C552.062 585.878 539.554 589.211 527.215 590.059C501.235 591.843 474.681 582.936 455.031 565.847C470.115 550.387 470.958 523.227 456.861 506.861C468.989 501.219 481.39 495.499 494.686 494.037C507.982 492.575 522.574 496.104 531.217 506.313C532.694 508.057 533.972 509.96 535.249 511.861C536.817 514.197 538.384 516.53 540.317 518.565C538.642 507.495 530.013 498.249 519.683 493.93C509.354 489.611 497.603 489.707 486.673 492.137C475.744 494.567 465.449 499.201 455.243 503.804C453.302 504.679 451.85 501.886 451.534 499.781L449.706 487.582C448.952 482.554 449.032 475.972 453.769 474.125C457.328 472.738 456.395 467.31 454.04 464.304C453.645 463.8 453.222 463.294 452.796 462.782C450.675 460.242 448.449 457.574 449.011 454.445C454.981 421.21 460.984 387.841 471.607 355.789C471.936 354.796 472.336 353.719 473.241 353.195C474.464 352.485 476.01 353.099 477.241 353.794C487.193 359.418 493.14 369.465 499.075 379.491L499.075 379.492C501.169 383.03 503.262 386.565 505.529 389.903C509.026 395.052 513.033 399.819 517.041 404.588L517.042 404.589L517.042 404.59L517.043 404.591L517.044 404.592L517.045 404.593L517.045 404.594L517.046 404.595L517.047 404.596L517.048 404.597L517.048 404.597L517.049 404.598L517.05 404.599L517.05 404.6L517.051 404.601C520.024 408.138 522.997 411.675 525.763 415.371C542.834 438.176 551.209 465.605 559.601 493.093C563.429 505.632 567.261 518.182 571.924 530.312C572.113 530.804 572.304 531.296 572.495 531.789C574.299 536.444 576.117 541.135 576.711 546.081ZM442.962 474.307C445.397 474.284 447.947 474.232 450.08 473.056C452.213 471.879 453.72 469.184 452.734 466.957C451.797 464.843 449.098 464.081 446.805 464.381C445.477 464.555 444.207 464.989 442.936 465.424L442.935 465.424L442.935 465.424L442.935 465.424L442.934 465.424L442.934 465.424L442.934 465.424L442.933 465.424L442.933 465.424L442.933 465.425L442.932 465.425L442.932 465.425L442.932 465.425L442.932 465.425C442.01 465.74 441.087 466.056 440.14 466.272C435.42 467.352 430.602 465.929 425.81 464.514C420.623 462.982 415.466 461.459 410.497 463.13C413.711 457.81 413.499 451.229 413.297 444.977C413.287 444.65 413.276 444.324 413.266 443.999C412.246 410.797 419.613 377.371 434.495 347.674C429.002 351.603 425.059 357.643 423.673 364.254C423.508 365.039 423.377 365.836 423.245 366.632C422.908 368.678 422.571 370.724 421.668 372.577C418.008 380.087 407.672 380.643 399.351 379.892C392.533 379.277 385.387 378.382 379.833 374.378C377.047 372.37 374.805 369.674 372.574 366.993C369.605 363.424 366.658 359.881 362.481 358.023C355.552 354.94 348.148 357.509 340.656 360.108C333.889 362.456 327.05 364.829 320.426 363.082C316.693 362.098 314.112 366.68 312.992 370.374L308.111 386.468C305.834 377.671 308.615 367.747 315.132 361.414C312.341 359.583 313.093 355.825 313.837 352.103C314.59 348.334 315.337 344.603 312.386 342.953C303.479 337.97 301.716 326.135 300.956 315.958C289.623 320.142 283.158 332.391 281.165 344.306C279.99 351.33 280.004 358.458 280.018 365.593V365.593C280.027 370.563 280.036 375.537 279.644 380.481C313.812 387.17 347.49 396.358 380.32 407.948C382.33 408.658 384.441 409.448 385.782 411.105C387.224 412.887 387.493 415.316 387.705 417.599C388.777 429.144 389.789 441.165 385.659 451.998L385.694 418.238C385.696 416.369 385.376 414.029 383.597 413.457C380.83 412.566 379.532 416.794 379.76 419.693L381.737 444.789C382.007 448.224 382.507 452.094 385.271 454.151L335.597 449.161C330.437 448.643 324.253 448.557 321.235 452.774C321.732 456.809 326.555 458.503 330.535 459.332L362.155 465.925C352.26 467.97 341.861 466.136 332.499 462.334C331.789 462.045 331.082 461.745 330.373 461.445L330.369 461.443C327.405 460.186 324.431 458.925 321.253 458.505C317.315 457.985 312.864 459.058 310.577 462.306C324.725 471.662 341.167 477.521 358.043 479.219C357.941 481.05 355.498 481.599 353.669 481.465C348.909 481.119 344.331 479.723 339.749 478.325L339.748 478.325C337.621 477.676 335.494 477.027 333.347 476.483C326.573 474.766 318.979 474.197 312.966 477.758C326.5 488.796 344.345 492.632 361.456 496.13L333.123 495.526C338.134 504.442 349.377 507.727 359.59 508.268C362.611 508.428 365.658 508.424 368.705 508.42C375.96 508.41 383.208 508.401 390.066 510.607C402.514 514.611 411.53 525.174 419.858 535.256L435.916 554.698C438.105 557.349 442.277 557.642 445.371 556.143C448.465 554.644 450.648 551.755 452.36 548.773C455.76 542.848 457.782 535.891 456.685 529.149C455.587 522.406 450.935 516.035 444.38 514.113C433.119 510.811 425.125 500.803 419.599 490.451C417.702 486.897 415.998 483.23 414.294 479.566C411.036 472.556 407.781 465.555 403.189 459.366C401.812 457.511 400.312 455.722 398.813 453.934C395.107 449.514 391.403 445.097 389.569 439.688C399.003 448.816 407.009 459.416 413.209 470.987C413.881 472.241 414.622 473.595 415.921 474.178C416.752 474.551 417.697 474.549 418.609 474.54L442.962 474.307ZM440.365 191.251C442.645 190.955 444.448 189.246 446.078 187.625L454.01 179.735C439.357 216.043 418.432 251.147 386.713 274.099C380.273 278.759 372.617 283.051 364.792 281.653C360.693 280.92 357.016 278.672 353.756 276.081C346.966 270.687 341.595 263.702 337.001 256.347C324.032 235.583 316.831 211.18 316.94 186.698C317.05 162.217 324.537 137.746 338.549 117.67C339.031 116.98 339.571 116.256 340.366 115.981C341.173 115.702 342.057 115.949 342.874 116.198C372.242 125.125 401.33 134.976 430.079 145.73C434.63 147.433 436.525 152.789 437.352 157.577C439.056 167.439 438.602 177.668 436.031 187.341C435.44 189.562 438.086 191.548 440.365 191.251ZM421.203 117.846C424.667 117.877 427.083 122.51 425.125 125.368C423.167 128.226 417.975 127.647 416.695 124.428C415.259 120.817 411.555 118.857 408.062 117.008C407.691 116.812 407.323 116.617 406.96 116.421C395.219 110.098 386.193 100.056 377.211 90.0629L377.211 90.0626C374.854 87.4411 372.501 84.8229 370.103 82.2761C365.546 77.4374 360.766 72.8083 355.785 68.4081C350.321 63.5824 344.524 58.9768 337.834 56.0811C331.145 53.1854 323.41 52.1302 316.525 54.526C319.626 54.6832 322.056 58.2173 321.092 61.1693C320.129 64.1213 316.082 65.5409 313.485 63.8379C310.888 62.1349 310.578 57.8574 312.901 55.7972C305.861 57.8814 299.945 63.4493 297.439 70.3506C296.945 71.7114 296.577 73.2162 297.029 74.5916C297.284 75.3671 297.784 76.0558 298.279 76.7366C298.977 77.6984 299.664 78.6445 299.632 79.7971C299.378 89.0234 308.411 97.377 317.59 96.4035C319.387 96.2129 320.112 98.0056 320.863 99.8653C321.221 100.753 321.586 101.655 322.076 102.365C322.952 103.633 324.416 104.339 325.817 104.98C340.063 111.496 354.803 116.93 369.87 121.219C371.616 121.716 374.006 121.923 374.747 120.265C375.74 118.041 378.627 116.886 380.881 117.812C383.134 118.737 384.376 121.588 383.519 123.869C383.135 124.89 384.395 125.719 385.421 126.09L436.746 144.647C435.799 140.848 440.625 137.073 444.084 138.905C447.543 140.738 447.13 146.851 443.455 148.201L462.214 157.66L465.582 130.132C465.739 128.846 465.225 126.933 463.983 127.301C461.681 127.983 458.968 126.681 458.059 124.459C457.15 122.238 458.174 119.408 460.293 118.281C461.924 117.414 462.532 115.276 462.171 113.464C461.811 111.652 460.695 110.094 459.581 108.62C447.534 92.6725 432.273 79.0958 414.77 69.447C410.079 66.8611 404.393 64.5308 399.545 66.8093C396.739 68.1284 394.851 70.7242 393.006 73.2619C392.712 73.6657 392.42 74.0681 392.125 74.4636C388.434 79.4115 383.867 83.7041 378.701 87.082L395.055 103.72C393.702 100.8 395.76 96.866 398.931 96.3126C402.101 95.7592 405.37 98.763 405.087 101.969C404.804 105.174 401.058 107.558 398.034 106.457C404.863 111.975 412.424 117.768 421.203 117.846ZM442.021 343.206C444.506 343.388 447.03 341.896 448.068 339.63C449.106 337.364 448.588 334.478 446.827 332.715C444.626 330.512 447.174 326.398 450.271 326.078C453.368 325.759 456.182 327.737 458.665 329.616L470.631 338.675C472.082 339.774 473.709 341.415 473.075 343.121C459.408 379.873 450.424 418.363 446.409 457.368C446.084 460.529 443.037 462.857 439.909 463.423C436.782 463.99 433.586 463.197 430.507 462.409L419.498 459.592C418.751 459.4 417.967 459.19 417.411 458.655C416.616 457.889 416.494 456.68 416.428 455.579C414.192 418.018 421.918 379.91 438.606 346.186C439.32 344.744 440.417 343.088 442.021 343.206ZM417.773 319.648C414.794 317.4 415.477 311.913 418.916 310.465C410.404 311.2 402.639 314.994 394.866 318.791C387.368 322.454 379.864 326.12 371.676 327.048C376.596 330.387 378.918 336.785 378.252 342.693C377.585 348.601 374.276 353.981 369.975 358.087C373.657 365.138 379.738 370.909 386.973 374.216C389.522 375.381 392.444 376.252 395.099 375.353C395.678 375.157 396.296 374.895 396.925 374.628C399.218 373.656 401.646 372.627 402.797 374.537C404.955 378.119 410.463 377.297 414.036 375.124C416.477 373.64 418.748 371.629 419.753 368.955C420.758 366.28 420.163 362.865 417.814 361.24C415.862 359.889 415.206 356.974 416.391 354.918C417.576 352.862 420.427 351.967 422.573 352.978C424.448 353.861 426.203 351.661 427.323 349.917C429.958 345.813 433.84 342.522 438.32 340.593C436.527 337.956 436.779 334.11 438.901 331.729C433.418 327.722 429.02 322.246 426.29 316.029C425.84 319.733 420.751 321.895 417.773 319.648ZM345.167 305.302L345.167 305.303C345.099 305.745 345.031 306.187 344.978 306.626C344.731 308.673 344.952 311.054 346.592 312.302C352.852 304.715 356.531 295.038 356.893 285.209C356.966 283.245 359.942 283.529 361.798 284.176C367.275 286.084 373.424 285.132 378.737 282.805C384.05 280.479 388.686 276.875 393.26 273.31C391.921 282.221 393.087 291.496 396.59 299.799L378.507 313.379C377.792 313.916 377.121 315.147 377.941 315.505C384.794 313.283 390.612 308.764 396.31 304.339L396.31 304.339L396.844 303.925C402.713 299.37 408.858 294.8 416.05 292.937C423.242 291.074 431.8 292.544 436.383 298.391C438.643 301.273 439.724 304.88 440.758 308.393L443.96 319.272C444.654 321.63 445.336 324.229 444.337 326.475C443.337 328.721 439.821 329.827 438.418 327.809L431.861 318.375C428.737 313.881 425.194 309.079 419.919 307.621C414.164 306.03 408.23 308.905 402.879 311.554C393.502 316.194 383.902 320.384 374.123 324.102C371.116 325.246 367.782 324.129 364.519 323.038C360.805 321.795 357.184 320.583 354.249 322.772C353.159 323.584 351.619 323.14 350.363 322.621C341.724 319.052 333.985 313.328 328.043 306.112L340.483 298.032C342.212 296.909 344.617 298.521 345.204 300.497C345.665 302.049 345.415 303.681 345.167 305.302V305.302ZM354.313 353.505C348.652 348.877 345.916 340.943 347.521 333.809C347.929 331.996 346.045 330.592 344.521 329.528C342.998 328.463 341.49 326.387 342.666 324.948C343.299 324.172 342.436 323.086 341.644 322.473L326.423 310.673C324.597 309.257 322.714 307.774 321.66 305.718C319.754 302.001 314.668 300.325 310.926 302.18C305.612 304.814 304.871 311.957 304.842 317.888C304.835 319.286 305.228 321.141 306.624 321.22C310.191 321.422 311.88 326.961 309.032 329.119C306.242 331.232 308.233 335.814 311.007 337.947C311.613 338.413 312.261 338.859 312.912 339.307C315.246 340.913 317.621 342.548 318.229 345.215C318.682 347.201 318.013 349.305 317.359 351.361C316.541 353.931 315.748 356.425 317.203 358.515C318.985 361.074 322.786 360.825 325.85 360.25C335.437 358.453 344.939 356.201 354.313 353.505ZM421.956 477.532C428.855 476.975 435.801 476.989 442.698 477.572C443.276 477.621 443.887 477.686 444.352 478.034C445.067 478.57 445.195 479.572 445.275 480.462C445.935 487.771 447.323 495.014 449.413 502.048C449.088 502.911 448.166 503.12 447.208 503.338C446.582 503.479 445.941 503.625 445.441 503.958C443.824 505.032 444.295 507.604 445.496 509.129C445.921 509.668 446.413 510.16 446.904 510.651L446.904 510.652C447.802 511.55 448.696 512.444 449.162 513.609C434.366 508.974 423.58 495.723 417.817 481.329C417.468 480.456 417.131 479.484 417.449 478.6C417.766 477.715 419.071 477.194 419.669 477.919C419.905 478.204 419.965 478.591 420.017 478.958L421.024 486.15C421.155 487.09 422.694 487.1 423.216 486.307C423.737 485.515 423.545 484.47 423.333 483.545L421.956 477.532ZM373.995 336.028C372.007 330.301 366.653 325.887 360.651 325.029C358.455 324.715 355.979 324.938 354.407 326.503C350.95 329.944 349.585 335.191 350.396 340C351.207 344.809 354.03 349.149 357.752 352.3C360.534 354.655 364.457 356.437 367.76 354.896C368.744 354.437 369.583 353.715 370.332 352.929C374.512 348.538 375.982 341.756 373.995 336.028ZM439.943 184.967C441.575 173.608 443.093 161.361 437.73 151.216C437.357 150.51 436.972 149.581 437.507 148.988L454.341 157.328C455.676 157.99 457.256 159.27 456.635 160.624C455.91 162.206 455.772 163.953 455.635 165.703C455.577 166.443 455.518 167.182 455.416 167.91C454.796 172.31 452.509 176.34 449.609 179.706C446.709 183.073 443.201 185.852 439.716 188.608C439.596 187.395 439.77 186.174 439.943 184.967ZM456.893 511.166C454.962 508.447 452.38 505.783 449.061 505.452C447.781 505.324 446.058 506.624 446.988 507.513C455.026 515.198 460.409 526.195 459.414 537.271C458.418 548.346 450.063 558.917 439.072 560.603C442.323 564.464 448.525 564.765 452.932 562.303C457.338 559.841 460.171 555.256 461.958 550.536C466.835 537.652 464.873 522.396 456.893 511.166ZM284.371 383.584C296.565 385.495 308.462 388.923 320.322 392.343L352.638 401.662C362.474 404.498 372.421 407.381 381.291 412.491C377.084 412.338 372.993 411.136 368.967 409.905C361.848 407.729 354.753 405.431 347.656 403.132C324.635 395.675 301.597 388.213 277.679 384.892C279.207 383.063 282.017 383.215 284.371 383.584ZM461.065 168.85C459.214 170.513 458.33 172.993 457.798 175.424C457.642 176.138 457.51 176.859 457.378 177.579L457.377 177.58C457.059 179.313 456.741 181.046 456.093 182.679C455.987 182.947 455.872 183.218 455.755 183.49C455.173 184.857 454.57 186.269 455.005 187.648C461.985 187.2 468.3 181.577 469.551 174.695C469.971 172.385 469.722 169.672 467.893 168.2C465.955 166.641 462.916 167.188 461.065 168.85ZM425.328 78.5044C426.131 80.7838 424.919 83.5816 422.707 84.5544C420.494 85.5271 417.613 84.5292 416.476 82.3964C415.225 80.0484 416.368 76.7482 418.804 75.6773C421.239 74.6064 424.444 75.995 425.328 78.5044ZM342.236 80.6558C342.375 78.5832 341.073 76.4925 339.153 75.7015C336.708 74.6948 333.565 76.0335 332.598 78.4937C331.63 80.9539 333.019 84.0749 335.494 85.0032C338.4 86.0932 342.03 83.7529 342.236 80.6558ZM436.778 101.533C436.847 104.155 439.253 106.493 441.876 106.486C444.658 106.478 447.137 103.803 446.934 101.028C446.742 98.4118 444.229 96.1901 441.609 96.3205C438.989 96.451 436.709 98.9113 436.778 101.533ZM362.005 104.578C360.104 106.955 355.952 106.961 354.043 104.59C352.134 102.218 353.027 98.164 355.755 96.8136C358.483 95.4632 362.248 97.212 362.976 100.168C363.349 101.682 362.98 103.361 362.005 104.578ZM346.582 144.194C344.973 146.709 344.629 149.991 345.683 152.785C346.073 153.821 346.655 154.802 347.483 155.537C350.136 157.898 354.673 156.901 356.907 154.139C359.141 151.378 359.448 147.482 358.789 143.992C358.527 142.6 358.043 141.115 356.855 140.343C356.029 139.806 354.989 139.709 354.006 139.78C351.028 139.993 348.191 141.68 346.582 144.194ZM400.024 169.931C399.147 169.034 398.568 167.879 398.209 166.677C396.876 162.222 398.752 157.003 402.616 154.415C404.363 153.245 406.616 152.594 408.594 153.311C411.019 154.189 412.351 156.834 412.811 159.372C413.469 163.003 412.678 167.073 410.004 169.617C407.33 172.16 402.606 172.568 400.024 169.931ZM333.071 220.022C333.16 217.778 333.342 215.538 333.617 213.31C333.712 212.537 334.38 211.874 335.153 211.784C335.511 217.28 335.678 222.789 335.653 228.296C333.222 226.514 332.951 223.033 333.071 220.022ZM423.367 196.162C422.637 192.82 420.127 189.923 416.924 188.723C416.389 188.522 416.413 187.665 416.863 187.312C417.314 186.959 417.955 186.995 418.51 187.131C421.556 187.874 423.44 190.863 424.832 193.672C425.201 194.415 425.563 195.281 425.239 196.044C424.914 196.808 423.544 196.972 423.367 196.162ZM367.68 683.113C367.36 682.39 366.547 682.045 365.804 681.774C354.171 677.534 341.821 675.27 329.44 675.108C327.676 675.085 325.614 675.255 324.643 676.729C325.588 677.524 326.945 677.523 328.18 677.504C341.288 677.307 354.431 679.74 366.599 684.618C367.333 684.912 368 683.836 367.68 683.113ZM371.879 177.792L371.879 177.793C371.008 178.335 370.137 178.876 369.371 179.556C367.926 180.837 366.882 182.91 367.629 184.69C368.551 186.89 371.515 187.305 373.862 186.882L373.958 186.864L374.087 186.84L374.157 186.827C374.899 186.687 375.658 186.544 376.38 186.742C377.199 186.966 377.918 187.828 377.637 188.629C377.44 189.191 376.851 189.505 376.296 189.722C372.857 191.067 368.565 190.567 366.013 187.897C363.462 185.228 363.398 180.34 366.312 178.073L377.698 169.215C377.582 171.924 376.216 174.532 374.123 176.256C373.424 176.832 372.651 177.312 371.879 177.792ZM417.723 199.12C418.43 203.12 417.405 207.23 415.953 211.023C409.703 227.355 394.946 240.155 377.894 244.032C371.032 245.593 363.461 245.685 357.354 242.187C351.247 238.689 347.322 230.823 349.999 224.315C353.143 216.676 362.874 214.534 371.132 214.361C371.856 214.345 372.587 214.335 373.323 214.324C380.986 214.21 389.167 214.088 394.713 208.986C396.686 207.17 398.11 204.886 399.537 202.597C400.739 200.667 401.943 198.735 403.48 197.077C406.841 193.454 413.423 191.722 416.377 195.685C417.118 196.68 417.507 197.898 417.723 199.12ZM414.214 205.215C415.065 201.96 414.691 197.277 411.363 196.785C410.125 196.603 408.891 197.157 407.863 197.87C405.305 199.644 403.666 202.317 402.018 205.005L402.018 205.005C400.71 207.138 399.396 209.28 397.613 210.99C392.957 215.454 385.993 216.244 379.566 216.801L367.215 217.87C364.065 218.143 360.801 218.45 358.059 220.026C352.91 222.985 351.124 230.55 354.406 235.5C357.956 240.852 365.358 242.014 371.751 241.396C391.457 239.49 409.204 224.368 414.214 205.215ZM421.252 455.408C420.582 455.485 419.885 455.296 419.346 454.891C418.981 454.616 418.689 454.247 418.506 453.829C417.911 452.47 418.714 450.682 420.126 450.224C421.538 449.767 423.237 450.744 423.552 452.194C423.867 453.644 422.726 455.238 421.252 455.408ZM444.097 455.592C443.61 455.165 442.959 454.931 442.312 454.95C440.719 454.998 439.441 456.795 439.917 458.314C440.393 459.834 442.469 460.58 443.803 459.711C445.138 458.841 445.295 456.642 444.097 455.592ZM396.069 339.88C394.415 337.976 394.557 334.777 396.372 333.027C398.188 331.276 401.39 331.252 403.232 332.975C405.199 334.816 405.226 338.33 403.286 340.199C401.347 342.069 397.836 341.913 396.069 339.88ZM374.422 355.755C374.043 356.772 374.011 357.914 374.334 358.95C375.251 361.896 379.324 363.298 381.86 361.541C384.397 359.784 384.516 355.479 382.08 353.584C379.644 351.69 375.501 352.864 374.422 355.755ZM330.62 348.262C330.049 350.148 328.242 351.594 326.276 351.737C323.375 351.949 320.665 349.069 321.052 346.186C321.438 343.303 324.811 341.24 327.554 342.208C329.909 343.039 331.343 345.872 330.62 348.262Z" fill="#00160A"/>
</svg>
