<svg width="750" height="750" viewBox="0 0 750 750" fill="none" xmlns="http://www.w3.org/2000/svg">
<rect width="750" height="750" fill="none"/>
<path fill-rule="evenodd" clip-rule="evenodd" d="M140.262 548.938C185.532 598.215 360.593 569.909 475.863 569.909C525.591 569.909 692.471 594.832 623.559 423.668C397.609 -137.553 -3.17657 392.8 140.262 548.938Z" />
<path fill-rule="evenodd" clip-rule="evenodd" d="M340.561 552.901C340.781 552.732 341.012 552.55 341.108 552.289C341.415 551.454 340.21 550.9 339.321 550.92C338.03 550.949 336.376 551.818 336.77 553.047C336.999 553.758 337.875 554.088 338.61 553.957C339.345 553.826 339.969 553.356 340.561 552.901ZM344.397 538.268C345.372 538.574 346.334 538.952 347.183 539.52C348.776 540.587 349.86 542.243 350.9 543.854C351.646 545.009 352.403 546.186 352.775 547.51C353.178 548.943 353.106 550.473 352.836 551.937C351.995 556.498 349.18 560.66 345.26 563.139C341.34 565.618 336.373 566.376 331.891 565.181C331.019 564.948 330.141 564.631 329.47 564.026C328.906 563.519 328.526 562.843 328.178 562.168C326.353 558.629 325.122 554.698 325.263 550.718C325.403 546.739 327.039 542.712 330.138 540.211C334.026 537.072 339.629 536.772 344.397 538.268" fill="white"/>
<path fill-rule="evenodd" clip-rule="evenodd" d="M550.197 321.779C548.06 321.752 546.056 323.544 545.845 325.67C545.758 326.539 546.127 327.619 546.992 327.739C547.64 327.829 548.209 327.328 548.645 326.84C549.566 325.807 550.358 324.658 550.995 323.429C551.208 323.017 551.397 322.488 551.116 322.118C550.911 321.848 550.535 321.784 550.197 321.779ZM549.272 312.245C552.306 313.304 555.056 315.166 557.165 317.59C558.978 319.673 560.359 322.377 559.978 325.113C559.838 326.117 559.468 327.075 559.045 327.996C557.445 331.487 554.693 334.832 550.913 335.508C548.93 335.863 546.885 335.438 544.978 334.789C542.773 334.038 540.67 332.986 538.748 331.67C537.728 330.972 536.715 330.144 536.268 328.992C535.96 328.198 535.95 327.323 535.962 326.472C535.99 324.365 536.13 322.224 536.864 320.249C537.794 317.752 539.611 315.69 541.539 313.849C542.314 313.109 543.137 312.38 544.132 311.983C545.761 311.334 547.616 311.667 549.272 312.245Z" fill="white"/>
<path fill-rule="evenodd" clip-rule="evenodd" d="M550.2 160.288C562.754 173.234 572.662 188.715 579.149 205.516C579.594 206.67 580.026 207.952 579.601 209.113C576.329 218.057 570.014 225.513 563.822 232.763C559.865 237.395 555.909 242.028 551.952 246.661C548.175 251.083 544.397 255.507 540.492 259.818C520.611 281.769 497.119 300.964 469.911 312.774C468.884 313.22 467.783 313.664 466.677 313.486C465.571 313.308 464.535 312.239 464.825 311.161C468.188 298.634 471.574 285.538 468.875 272.852C468.223 269.792 467.498 265.94 470.036 264.099C490.584 249.192 505.379 227.885 519.557 206.867C523.123 201.582 526.678 196.283 529.833 190.745C535.435 180.913 539.748 170.354 542.631 159.42C543.027 157.919 544.928 157.243 546.435 157.637C547.941 158.03 549.118 159.172 550.2 160.288" fill="white"/>
<path fill-rule="evenodd" clip-rule="evenodd" d="M158.694 210.583C160.735 229.035 166.416 247.077 175.314 263.369C180.824 273.457 187.525 282.837 194.209 292.188C198.86 298.695 203.833 305.476 211.09 308.839C213.02 309.733 212.751 312.515 212.233 314.578C209.994 323.493 208.95 332.708 209.136 341.898C209.154 342.767 209.177 343.667 208.835 344.465C207.677 347.177 203.71 346.725 200.978 345.616C184.077 338.755 171.101 324.957 158.979 311.327C143.241 293.629 127.737 275.155 118.44 253.373C117.808 251.892 117.194 250.334 117.3 248.727C117.408 247.09 118.249 245.602 119.102 244.201C127.53 230.358 139.255 218.537 153.03 209.997C154 209.395 155.036 208.793 156.176 208.753C157.317 208.714 158.568 209.449 158.694 210.583Z" fill="white"/>
<path fill-rule="evenodd" clip-rule="evenodd" d="M547.736 534.274C549.193 531.806 550.998 529.089 553.825 528.62C554.94 528.436 555.528 527.225 555.907 526.161C560.581 513.051 561.031 498.473 557.176 485.1C556.075 481.283 557.43 477.236 558.771 473.497C562.23 463.846 565.69 454.195 569.149 444.545C567.167 441.116 561.941 441.218 559.264 438.3C555.818 434.545 558.417 428.575 561.116 424.252C576.885 399 592.653 373.747 608.422 348.494C610.353 345.4 614.593 344.43 618.146 345.255C621.699 346.079 624.733 348.315 627.656 350.498C639.156 359.088 650.656 367.678 662.157 376.267C668.329 380.878 675.143 386.767 674.787 394.462C674.591 398.721 672.154 402.506 669.797 406.058C660.682 419.792 651.568 433.526 642.454 447.26C637.319 454.997 638.737 465.159 637.185 474.315C634.733 488.781 624.813 500.661 615.627 512.102C606.442 523.544 597.25 536.319 596.734 550.982C596.118 568.459 587.816 585.528 574.446 596.801C578.324 587.393 553.825 591.146 525.801 579.996C530.412 563.681 539.119 548.875 547.736 534.274Z" fill="white"/>
<path fill-rule="evenodd" clip-rule="evenodd" d="M240.01 575.189C238.263 573.76 237.706 571.347 237.397 569.104C233.828 543.155 249.156 517.542 246.425 491.49C245.018 478.064 238.85 465.537 231.087 454.519C225.726 446.911 225.426 436.718 227.426 427.615C229.426 418.512 233.46 410 236.181 401.087C248.282 361.453 233.558 319.113 219 280.322C248.008 266.295 281.859 269.012 313.995 270.912C346.131 272.813 380.693 272.947 407.478 255C411.149 293.825 403.054 332.693 395.005 370.845C435.846 366.866 476.688 362.887 517.529 358.908C518.7 358.794 519.981 358.706 520.954 359.371C522.252 360.258 522.452 362.067 522.526 363.643C524.435 404.02 525.593 444.432 525.998 484.853C526.008 485.866 525.973 486.997 525.262 487.716C524.653 488.331 523.724 488.46 522.865 488.556C465.645 494.932 408.425 501.309 351.205 507.685C346.257 508.237 339.209 506.948 339.498 501.953C340.79 479.682 340.036 457.291 337.248 435.158C322.042 434.583 306.732 436.902 292.369 441.956C289.111 443.102 285.193 446.185 286.95 449.171C298.577 468.929 284.146 498.627 299.937 515.212C305.366 520.915 304.991 529.886 303.915 537.704C301.609 554.462 297.69 570.996 292.232 587C294.871 568.579 241.623 585.068 240.01 575.189Z" fill="white"/>
<path fill-rule="evenodd" clip-rule="evenodd" d="M76.3457 157.027C76.3946 157.42 76.1818 157.833 75.8331 158.022C75.5554 157.744 75.2777 157.466 75 157.188C75.4163 157.006 75.8884 156.954 76.3344 157.041L76.3457 157.027Z" fill="#00160A"/>
<path fill-rule="evenodd" clip-rule="evenodd" d="M343.397 538.268C344.372 538.574 345.334 538.952 346.183 539.52C347.776 540.587 348.86 542.243 349.9 543.854C350.646 545.009 351.403 546.186 351.775 547.51C352.178 548.943 352.106 550.473 351.836 551.937C350.995 556.498 348.18 560.66 344.26 563.139C340.34 565.618 335.373 566.376 330.891 565.181C330.019 564.948 329.141 564.631 328.47 564.026C327.906 563.519 327.526 562.843 327.178 562.168C325.353 558.629 324.122 554.698 324.263 550.718C324.403 546.739 326.039 542.712 329.138 540.211C333.026 537.072 338.629 536.772 343.397 538.268M337.933 561.962C340.371 561.592 342.516 560 343.917 557.971C345.318 555.942 346.036 553.509 346.381 551.068C346.579 549.674 346.597 548.076 345.612 547.07C345.023 546.467 344.182 546.198 343.375 545.956C340.344 545.05 336.885 544.279 334.17 545.903C332.194 547.086 331.091 549.277 330.092 551.353C328.923 553.784 329.212 556.851 330.815 559.021C332.418 561.19 335.266 562.367 337.933 561.962V561.962Z" fill="#00160A"/>
<path fill-rule="evenodd" clip-rule="evenodd" d="M454.739 428.788C454.782 428.27 454.844 427.716 455.186 427.326C455.521 426.944 456.047 426.807 456.541 426.692C469.275 423.727 482.428 422.568 495.484 423.258C497.147 423.346 499.286 423.909 499.396 425.57C500.026 435.096 500.657 444.622 501.288 454.147C501.32 454.63 501.336 455.164 501.027 455.536C500.776 455.839 500.37 455.956 499.99 456.055C486.41 459.596 472.096 460.293 458.236 458.091C457.879 458.034 457.504 457.968 457.227 457.736C456.892 457.455 456.774 456.998 456.679 456.572C454.635 447.479 453.979 438.076 454.739 428.788ZM457.742 444.59C457.992 448.187 458.746 451.749 459.976 455.138C461.203 455.315 462.417 455.57 463.639 455.777C474.172 457.56 484.944 455.766 495.475 453.974C496.223 453.847 497.042 453.678 497.503 453.076C497.974 452.462 497.912 451.606 497.827 450.836C497.464 447.554 497.101 444.272 496.738 440.989C496.709 440.725 496.672 440.441 496.493 440.244C496.275 440.005 495.919 439.966 495.597 439.945C488.113 439.452 480.605 440.01 473.126 440.569C468.992 440.877 464.858 441.186 460.724 441.494C459.752 441.567 458.649 441.711 458.09 442.509C457.678 443.097 457.692 443.874 457.742 444.59ZM457.858 430.861C457.204 432.959 457.087 435.222 457.52 437.376C457.598 437.763 457.708 438.171 458.001 438.435C458.437 438.826 459.101 438.762 459.68 438.677C466.723 437.645 473.843 437.132 480.961 437.144C481.965 437.146 482.273 435.794 482.262 434.79C482.246 433.319 482.23 431.848 482.214 430.376C482.205 429.525 482.162 428.587 481.579 427.967C480.879 427.221 479.709 427.244 478.688 427.322C476.33 427.502 473.972 427.682 471.614 427.862C470.486 427.949 467.493 428.715 466.118 428.805C463.724 429.187 461.33 429.569 458.936 429.951C458.681 429.992 458.411 430.039 458.215 430.207C458.023 430.37 457.933 430.62 457.858 430.861ZM489.435 437.261C491.306 437.285 493.18 437.098 495.01 436.704C495.446 436.61 495.904 436.491 496.214 436.172C496.67 435.703 496.666 434.968 496.633 434.314C496.536 432.417 496.439 430.52 496.342 428.623C496.308 427.947 496.232 427.185 495.703 426.761C495.238 426.389 494.581 426.411 493.986 426.451C491.905 426.593 489.824 426.735 487.743 426.876C487.414 426.899 487.067 426.926 486.792 427.109C486.288 427.442 486.212 428.139 486.198 428.743C486.152 430.754 486.234 432.768 486.444 434.768C486.505 435.347 486.589 435.957 486.947 436.416C487.506 437.131 488.528 437.249 489.435 437.261Z" fill="#FFB61D"/>
<path fill-rule="evenodd" clip-rule="evenodd" d="M487.329 387.159C490.111 385.956 493.524 386.359 495.949 388.178C498.373 389.997 499.715 393.161 499.338 396.169C501.042 395.247 503.204 394.34 504.795 395.446C506.591 396.696 506.181 399.387 505.911 401.558C505.439 405.352 506.051 409.274 507.654 412.744C508.317 414.177 508.886 416.352 507.416 416.931C507.168 417.028 506.898 417.051 506.632 417.072C489.402 418.461 472.173 419.849 454.943 421.238C454.47 421.276 453.941 421.296 453.584 420.985C453.219 420.667 453.173 420.127 453.154 419.643C452.988 415.591 452.823 411.538 452.658 407.485C452.614 406.398 452.593 405.226 453.207 404.328C454.223 402.841 456.351 402.846 458.129 402.561C459.907 402.276 461.976 400.776 461.291 399.111C460.528 397.254 463.128 395.897 465.113 395.595C467.098 395.293 469.73 394.11 469.129 392.195C468.472 390.103 471.351 388.804 473.525 388.516C475.059 388.312 476.663 388.115 478.118 388.641C479.572 389.167 480.802 390.665 480.475 392.177C480.099 393.909 482.208 395.522 483.871 394.91C485.533 394.299 486.207 392.026 485.365 390.468C484.678 389.195 486.001 387.734 487.329 387.159ZM496.226 413.866C495.582 412.671 495.577 411.249 495.571 409.891C495.544 403.517 495.152 397.144 494.399 390.815C494.361 390.495 494.301 390.138 494.039 389.951C493.813 389.79 493.51 389.809 493.234 389.835C491.888 389.96 490.293 390.258 489.761 391.501C489.534 392.031 489.561 392.63 489.592 393.206C489.933 399.595 490.274 405.983 490.616 412.372C490.648 412.967 490.727 413.65 491.221 413.983C491.491 414.164 491.83 414.198 492.154 414.215C493.519 414.29 494.894 414.172 496.226 413.866ZM473.052 404.043C472.885 405.108 472.65 406.164 472.588 407.24C472.483 409.037 472.862 410.824 473.238 412.585C473.48 413.714 474.939 414.269 476.008 413.834C477.078 413.399 477.724 412.258 477.901 411.117C478.079 409.976 477.871 408.816 477.689 407.676C476.975 403.197 476.666 398.654 476.766 394.119C476.792 392.972 475.673 391.936 474.531 392.049C473.389 392.162 472.495 393.398 472.745 394.518C473.443 397.637 473.547 400.886 473.052 404.043ZM484.384 397.925C483.712 397.045 482.172 397.514 481.648 398.489C481.124 399.464 481.284 400.646 481.414 401.746C481.754 404.616 481.786 407.523 481.511 410.401C481.429 411.249 481.339 412.176 481.808 412.888C482.528 413.983 484.109 413.973 485.413 413.841C485.822 413.799 486.292 413.72 486.498 413.364C486.641 413.116 486.607 412.809 486.569 412.525C485.968 408.06 485.366 403.596 484.765 399.131C484.708 398.708 484.642 398.264 484.384 397.925ZM499.308 399.844C498.802 400.534 498.695 401.432 498.651 402.287C498.501 405.218 498.889 408.146 499.276 411.055C499.429 412.201 499.953 413.674 501.107 413.596C502.276 413.517 502.581 411.953 502.554 410.781C502.482 407.679 502.41 404.576 502.338 401.473C502.319 400.658 502.233 399.713 501.556 399.257C500.846 398.78 499.814 399.154 499.308 399.844ZM463.991 399.111C463.991 399.111 464.505 403.16 464.684 405.223C464.909 407.813 465.195 410.398 465.543 412.974C465.593 413.349 465.661 413.754 465.937 414.011C466.415 414.458 468.261 414.161 468.602 413.602C468.942 413.043 468.923 412.345 468.893 411.691C468.799 409.623 468.706 407.554 468.612 405.486C468.511 403.269 467.984 398.489 467.984 398.489M457.295 413.773C457.443 414.236 457.617 414.722 457.992 415.032C458.724 415.638 459.911 415.263 460.488 414.508C461.065 413.754 461.195 412.76 461.305 411.816C461.44 410.658 461.571 409.455 461.196 408.351C460.821 407.248 459.784 406.276 458.622 406.379C457.555 406.473 456.727 407.449 456.478 408.492C456.229 409.535 456.439 410.628 456.698 411.668C456.875 412.376 457.074 413.078 457.295 413.773Z" fill="#E7EAEE"/>
<path fill-rule="evenodd" clip-rule="evenodd" d="M527.14 247.962C525.749 250.05 524.241 252.165 522.089 253.454C519.936 254.743 516.964 254.995 515.03 253.396C512.896 251.633 512.765 248.454 512.933 245.691C512.998 244.627 513.084 243.555 513.389 242.534C513.917 240.762 515.072 239.251 516.277 237.849C517.739 236.149 519.358 234.509 521.386 233.552C523.414 232.595 525.934 232.427 527.834 233.617C530.109 235.042 530.95 238.074 530.52 240.723C530.089 243.372 528.628 245.728 527.14 247.962M522.723 250.171C524.477 248.302 525.981 246.2 527.183 243.937C527.975 242.447 528.648 240.829 528.616 239.142C528.585 237.456 527.695 235.694 526.129 235.068C524.09 234.253 521.85 235.557 520.146 236.942C518.932 237.928 517.757 239.01 516.978 240.366C516.486 241.224 516.166 242.167 515.849 243.104C515.25 244.876 514.642 246.722 514.87 248.579C515.098 250.435 516.427 252.299 518.288 252.492C520.01 252.67 521.537 251.433 522.723 250.171Z" fill="#FFB61D"/>
<path fill-rule="evenodd" clip-rule="evenodd" d="M168.799 271.562C170.978 273.77 172.777 276.352 174.093 279.16C175.416 281.983 174.082 285.612 171.487 287.339C168.891 289.066 165.382 289.043 162.536 287.77C159.691 286.497 157.454 284.122 155.807 281.475C154.566 279.48 153.603 277.243 153.499 274.895C153.396 272.547 154.261 270.076 156.118 268.636C157.997 267.18 160.639 266.972 162.911 267.671C165.183 268.37 167.129 269.871 168.799 271.562M160.296 270.22C158.411 270.026 156.736 271.756 156.412 273.624C156.089 275.492 156.801 277.387 157.722 279.044C159.72 282.636 163.285 285.827 167.39 285.628C169.501 285.526 171.814 284.064 171.777 281.951C171.76 281.038 171.31 280.195 170.86 279.4C169.664 277.287 168.372 275.197 166.647 273.489C164.922 271.781 162.711 270.469 160.296 270.22Z" fill="#FFB61D"/>
<path fill-rule="evenodd" clip-rule="evenodd" d="M333.573 549.453C335.087 548.303 336.969 547.559 338.866 547.681C340.764 547.803 342.641 548.892 343.435 550.619C344.287 552.473 343.756 554.777 342.427 556.325C341.098 557.873 339.096 558.728 337.075 559.011C335.696 559.203 334.052 559.03 333.297 557.86C332.933 557.296 332.85 556.601 332.777 555.933C332.645 554.734 332.514 553.535 332.382 552.336C332.327 551.828 332.273 551.301 332.436 550.817C332.628 550.247 333.094 549.817 333.573 549.453M339.561 552.902C339.781 552.733 340.012 552.55 340.108 552.289C340.415 551.455 339.21 550.9 338.321 550.92C337.03 550.949 335.375 551.819 335.77 553.047C335.999 553.759 336.875 554.088 337.61 553.957C338.345 553.826 338.969 553.357 339.561 552.902H339.561Z" fill="#00160A"/>
<path fill-rule="evenodd" clip-rule="evenodd" d="M547.99 166.13C559.784 178.34 569.093 192.939 575.187 208.783C575.605 209.871 576.011 211.08 575.612 212.176C572.538 220.61 566.605 227.641 560.787 234.478L549.636 247.585C546.087 251.756 542.538 255.927 538.869 259.993C520.191 280.694 498.121 298.796 472.56 309.934C471.595 310.354 470.56 310.773 469.521 310.605C468.482 310.437 467.509 309.429 467.781 308.412C470.941 296.599 474.122 284.248 471.586 272.285C470.974 269.4 470.292 265.766 472.677 264.03C491.982 249.972 505.881 229.878 519.202 210.057C522.551 205.073 525.892 200.076 528.855 194.853C534.118 185.581 538.171 175.623 540.879 165.312C541.251 163.897 543.037 163.26 544.453 163.63C545.868 164.001 546.973 165.078 547.99 166.13ZM539.736 181.292C538.537 180.797 537.432 182.137 536.821 183.281C536.16 184.52 535.5 185.761 534.839 187.002C522.619 209.956 510.212 233.261 491.59 251.34C489.831 253.048 487.864 255.112 488.189 257.542C489.228 265.334 485.068 273.562 478.178 277.345C475.049 279.062 475.086 283.493 475.544 287.032C475.728 288.449 476.263 290.225 477.687 290.345C481.863 290.697 485.87 292.753 488.592 295.939C489.451 296.945 491.079 296.316 492.198 295.613C520.369 277.902 542.015 251.743 563.149 226.04C563.878 225.154 564.654 224.036 564.274 222.953C561.076 213.843 561.589 203.489 565.671 194.74C563.262 189.947 560.391 185.386 557.111 181.141C551.653 183.511 545.234 183.566 539.736 181.292ZM472.916 305.255C474.027 305.837 475.372 305.284 476.484 304.703C479.406 303.178 482.22 301.447 484.899 299.527C485.607 299.02 485.818 298.006 485.568 297.172C485.318 296.338 484.691 295.665 483.997 295.139C481.831 293.495 478.803 293.062 476.264 294.034C475.794 294.214 475.328 294.448 475.005 294.833C474.626 295.283 474.488 295.882 474.366 296.458C473.753 299.367 473.269 302.303 472.916 305.255ZM552.028 175.226C550.114 171.483 547.162 168.278 543.589 166.063C542.346 167.159 542.105 168.824 541.858 170.521C541.689 171.685 541.518 172.865 541.019 173.887C540.857 174.22 540.659 174.538 540.461 174.855L540.461 174.855L540.461 174.855L540.46 174.856C540.083 175.46 539.708 176.062 539.587 176.757C539.402 177.816 540.298 179.145 541.315 178.794C542.141 178.509 543.007 178.692 543.881 178.877C544.342 178.974 544.805 179.072 545.265 179.102C547.948 179.275 550.174 177.173 552.028 175.226ZM567.2 197.659C565.149 201.737 565.473 206.555 565.846 211.105L566.381 217.63C566.44 218.348 566.83 219.316 567.522 219.117C567.952 217.915 568.769 216.924 569.59 215.929C570.307 215.06 571.026 214.188 571.488 213.172C573.054 209.73 571.316 205.764 569.604 202.393L567.2 197.659ZM475.408 270.082C475.494 271.358 476.82 272.313 478.098 272.278C479.377 272.242 480.528 271.414 481.276 270.376C482.023 269.338 482.433 268.101 482.832 266.885L484.15 262.872C484.518 261.753 484.54 260.043 483.37 259.911C482.948 259.863 482.544 260.087 482.198 260.333C480.886 261.266 479.931 262.605 479.001 263.919L476.468 267.497C475.919 268.273 475.345 269.133 475.408 270.082ZM173.314 259.369C164.416 243.077 158.735 225.035 156.694 206.583C156.568 205.449 155.317 204.714 154.176 204.753C153.036 204.793 152 205.395 151.03 205.997C137.255 214.537 125.53 226.358 117.102 240.201C116.249 241.602 115.408 243.09 115.3 244.727C115.194 246.334 115.808 247.892 116.44 249.373C125.737 271.155 141.241 289.629 156.979 307.327C169.101 320.957 182.077 334.755 198.978 341.616C201.71 342.725 205.677 343.177 206.835 340.465C207.172 339.677 207.154 338.789 207.137 337.931L207.136 337.898C206.95 328.708 207.994 319.493 210.233 310.578C210.751 308.515 211.02 305.733 209.09 304.839C201.833 301.476 196.86 294.695 192.209 288.188C185.525 278.837 178.824 269.457 173.314 259.369ZM189.023 330.587C188.023 330.853 187.025 330.223 186.19 329.611C170.808 318.341 158.887 303.087 147.175 288.038L126.506 261.481C129.995 259.259 130.438 254.431 130.514 250.295C130.612 244.92 130.685 239.385 128.743 234.371C128.311 233.257 128.873 232.022 129.475 230.989C132.055 226.561 135.635 222.719 139.868 219.83C140.278 219.551 140.712 219.273 141.204 219.203C142.5 219.02 143.495 220.281 144.188 221.392C146.924 225.781 150.685 230.743 155.844 230.382C157.809 230.245 158.898 232.558 159.471 234.442C166.597 257.87 179.977 279.001 195.668 297.802C197.707 300.245 198.218 303.542 198.725 306.809C199.291 310.453 199.85 314.059 202.515 316.402C204.791 318.402 204.369 321.994 203.755 324.961C203.629 325.568 203.479 326.218 203.018 326.633C202.676 326.94 202.213 327.069 201.768 327.187L189.023 330.587ZM152.556 224.955C149.734 222.984 147.296 220.464 145.419 217.578C145.013 216.954 144.619 216.255 144.69 215.514C144.768 214.708 145.374 214.063 145.977 213.523C147.467 212.189 149.151 211.073 150.959 210.22C151.621 209.908 152.476 209.654 153.027 210.137C153.35 210.422 153.453 210.876 153.537 211.299L156.144 224.334C156.298 225.105 155.489 225.799 154.704 225.821C153.918 225.843 153.2 225.405 152.556 224.955ZM126.764 250.167C126.708 252.619 126.521 255.371 124.684 256.995C124.299 257.041 124.044 256.619 123.893 256.262C122.569 253.128 121.227 249.919 121.018 246.523C120.81 243.127 121.948 239.45 124.723 237.482C125.098 237.215 125.649 236.995 125.98 237.315C126.114 237.443 126.17 237.63 126.219 237.808C126.973 240.58 126.914 243.499 126.849 246.37L126.764 250.167ZM201.644 331.723C202.09 332.087 202.137 332.74 202.149 333.315L202.282 339.617C199.696 338.184 197.22 336.555 194.879 334.749C194.436 334.407 193.948 333.853 194.22 333.362C194.355 333.119 194.635 333.002 194.896 332.906C196.568 332.289 198.298 331.827 200.055 331.526C200.599 331.433 201.217 331.374 201.644 331.723ZM201.793 306.898C201.769 306.614 201.769 306.303 201.938 306.073C202.385 305.467 203.354 306.016 203.763 306.648C204.75 308.171 204.967 310.166 204.333 311.866C202.884 310.625 201.951 308.799 201.793 306.898ZM586.87 259.045C589.447 255.8 594.144 255.333 598.286 255.434C599.254 255.458 600.25 255.505 601.131 255.906C603.582 257.023 604.102 260.225 604.185 262.917C604.26 265.367 604.246 267.848 603.651 270.225C603.056 272.602 601.824 274.893 599.855 276.351C598.97 277.007 597.944 277.485 596.857 277.667C595.179 277.948 593.461 277.517 591.865 276.923C589.739 276.132 587.723 275.046 585.893 273.705C584.999 273.05 584.076 272.192 584.047 271.084C583.981 268.529 584.267 265.966 584.895 263.489C585.296 261.905 585.854 260.324 586.87 259.045ZM593.552 275.207C596.86 276.157 600.379 273.597 601.633 270.391C602.886 267.186 602.423 263.585 601.733 260.213C601.469 258.919 600.085 258.195 598.81 257.849C596.836 257.313 594.737 257.242 592.731 257.643C591.734 257.843 590.715 258.184 590.016 258.922C589.635 259.324 589.371 259.82 589.112 260.31L587.174 263.973C586.833 264.617 586.49 265.267 586.289 265.968C585.69 268.064 586.482 270.391 587.946 272.007C589.409 273.622 591.457 274.605 593.552 275.207ZM549.272 312.245C552.306 313.303 555.056 315.165 557.165 317.589C558.979 319.673 560.359 322.377 559.978 325.113C559.838 326.117 559.468 327.074 559.045 327.996C557.445 331.487 554.693 334.832 550.913 335.508C548.93 335.862 546.885 335.437 544.978 334.789C542.773 334.038 540.67 332.986 538.748 331.67C537.728 330.972 536.715 330.144 536.268 328.992C535.96 328.198 535.95 327.323 535.962 326.472C535.991 324.365 536.13 322.224 536.864 320.249C537.794 317.751 539.611 315.689 541.539 313.849C542.314 313.109 543.137 312.38 544.132 311.983C545.761 311.334 547.616 311.667 549.272 312.245ZM552.374 330.603C554.567 328.434 555.842 325.289 555.495 322.224C555.148 319.159 553.073 316.283 550.172 315.237C548.966 314.802 547.629 314.681 546.394 315.022C545.727 315.207 545.102 315.521 544.519 315.892C542.022 317.48 540.268 320.19 539.843 323.119C539.417 326.047 540.326 329.144 542.268 331.378C543.512 332.808 545.541 333.421 547.421 333.184C549.301 332.946 551.027 331.936 552.374 330.603ZM275.485 294.178C275.383 292.733 273.451 292.354 272.003 292.396C264.401 292.62 256.809 293.189 249.258 294.103C248.018 294.253 247.917 296.252 248.913 297.008C249.908 297.763 251.294 297.623 252.531 297.447L275.485 294.178ZM251.182 303.949C251.248 303.205 252.183 302.936 252.925 302.852L297.703 297.781C298.513 297.689 299.376 297.606 300.105 297.971C300.834 298.336 301.303 299.333 300.827 299.995C300.477 300.483 299.804 300.582 299.206 300.64L253.406 305.084C252.454 305.176 251.099 304.903 251.182 303.949ZM351.568 311.492C349.063 312.042 346.491 311.138 344.089 310.24C336.32 307.337 328.581 304.353 320.874 301.29C317.763 300.054 314.349 301.905 311.551 303.744C303.453 309.063 295.657 314.841 288.211 321.041C286.299 322.634 283.356 321.516 281.427 319.944C281.02 319.611 280.618 319.256 280.215 318.9C278.713 317.573 277.192 316.228 275.249 315.952C272.262 315.529 269.634 317.793 267.47 319.894L253.513 333.449C251.635 335.272 249.66 338.192 251.33 340.206C252.433 341.534 254.456 341.467 256.171 341.268C265.125 340.23 274.035 338.775 282.941 337.32L282.942 337.32L282.942 337.32C297.663 334.915 312.375 332.512 327.264 331.997C330.563 331.883 333.864 331.862 337.165 331.841H337.166C339.234 331.827 341.301 331.814 343.368 331.778C352.691 331.616 362.006 330.988 371.266 329.897C371.714 329.844 372.224 329.752 372.456 329.365C372.632 329.073 372.588 328.705 372.538 328.368L368.616 301.68C368.416 300.324 368.068 298.756 366.829 298.17C365.577 297.579 364.102 298.342 363.074 299.27C361.466 300.723 360.227 302.652 359.005 304.555C357 307.677 355.041 310.729 351.568 311.492ZM287.869 326.095C296.247 319.207 304.982 312.755 314.027 306.771C315.885 305.543 318.142 304.285 320.218 305.092L342.153 313.615C345.813 315.038 349.817 316.479 353.575 315.338C357.944 314.012 360.556 309.665 362.756 305.665C363.184 304.887 364.429 304.976 365.045 305.616C365.661 306.255 365.817 307.196 365.944 308.075L367.549 319.204C367.796 320.913 368.038 322.687 367.544 324.341C367.051 325.996 365.6 327.498 363.873 327.465C335.639 326.92 307.35 329.248 279.585 334.402C278.725 334.562 277.865 334.724 277.005 334.886L277.004 334.887C270.371 336.139 263.713 337.396 256.973 337.418C260.227 332.808 264.352 328.892 268.448 325.009C270.697 322.877 273.508 320.578 276.527 321.275C278.158 321.652 279.408 322.823 280.652 323.989L280.652 323.989L280.653 323.989L280.653 323.989L280.653 323.989L280.653 323.99L280.653 323.99L280.653 323.99L280.653 323.99L280.654 323.99L280.654 323.99L280.654 323.99L280.654 323.991C281.052 324.364 281.45 324.736 281.86 325.082C283.548 326.507 286.163 327.499 287.869 326.095ZM650.094 403.734C649.345 404.013 648.509 403.822 647.747 403.582C642.584 401.959 638.391 398.329 634.27 394.762C633.712 394.279 633.155 393.797 632.598 393.321C625.77 387.497 618.359 382.355 610.514 377.998C609.715 377.555 608.878 377.088 608.389 376.317C607.9 375.546 607.915 374.372 608.669 373.857C612.187 371.455 614.469 367.333 614.636 363.076C614.681 361.941 615.963 361.185 617.095 361.276C618.226 361.367 619.213 362.047 620.138 362.704L655.99 388.153C656.688 388.648 657.439 389.223 657.61 390.061C657.75 390.746 657.463 391.438 657.174 392.074C655.628 395.486 653.85 398.793 651.856 401.964C651.404 402.682 650.889 403.437 650.094 403.734ZM614.227 373.544C613.805 374.287 613.441 375.362 614.123 375.876L643.379 397.904C644.981 399.11 647.471 400.241 648.733 398.682C650.181 396.891 651.534 395.024 652.784 393.09C653.126 392.56 653.475 391.956 653.352 391.338C653.239 390.773 652.765 390.364 652.318 390.002C641.581 381.296 630.213 373.369 618.333 366.303L614.227 373.544ZM599.667 387.014C600.14 386.204 600.713 385.317 601.63 385.118C602.331 384.966 603.045 385.266 603.69 385.58C607.213 387.291 610.439 389.609 613.184 392.403C613.844 393.075 613.926 394.157 613.632 395.052C613.338 395.947 612.732 396.701 612.139 397.432C611.184 398.608 610.167 399.831 608.759 400.389C607.239 400.991 605.471 400.701 604.032 399.926C602.592 399.151 601.437 397.939 600.419 396.66C599.091 394.991 597.902 392.99 598.108 390.868C598.243 389.477 598.963 388.221 599.667 387.014ZM605.829 396.354C608.044 397.216 609.461 396.533 609.52 395.08C609.556 394.163 608.756 393.457 608.029 392.898L605.829 391.205C605.101 390.646 604.299 390.06 603.382 390.066C602.464 390.071 601.53 391.018 601.906 391.855C601.849 392.259 603.613 395.493 605.829 396.354ZM597.084 414.24C597.624 414.536 598.197 414.826 598.813 414.838C599.428 414.851 600.096 414.503 600.247 413.906C600.602 412.504 601.53 411.342 602.438 410.205C602.537 410.08 602.636 409.956 602.733 409.833C603.728 408.574 604.687 407.149 604.714 405.545C604.74 403.942 603.412 402.233 601.824 402.451C600.572 402.624 599.408 401.803 598.498 400.926C598.353 400.786 598.21 400.642 598.065 400.498C597.304 399.739 596.531 398.968 595.521 398.639C594.32 398.248 592.683 398.87 592.588 400.13C592.397 402.668 590.287 404.579 588.331 406.206C587.745 406.693 588.274 407.628 588.822 408.158C591.288 410.541 594.075 412.593 597.084 414.24ZM597.475 409.405L593.621 406.798C592.642 406.136 592.72 404.512 593.594 403.714C594.467 402.917 595.825 402.856 596.938 403.255C598.052 403.654 598.978 404.437 599.878 405.205C600.474 405.714 600.556 406.639 600.283 407.373C600.011 408.107 599.456 408.695 598.916 409.261C598.73 409.455 598.524 409.661 598.258 409.695C597.975 409.731 597.711 409.565 597.475 409.405ZM628.022 409.577L629.906 405.573C630.483 404.348 631.042 402.831 630.263 401.722C629.993 401.337 629.594 401.066 629.204 400.803L622.349 396.184C621.61 395.685 620.808 395.168 619.917 395.182C618.861 395.199 617.976 395.953 617.226 396.696C616.102 397.81 615.052 398.998 614.083 400.249C613.346 401.201 612.741 402.768 613.748 403.429L624.237 410.311C625.065 410.854 626.116 411.412 626.986 410.94C627.496 410.662 627.775 410.102 628.022 409.577ZM625.698 406.743C625.257 406.844 624.797 406.732 624.364 406.602C621.716 405.804 619.292 404.275 617.431 402.23C616.811 401.55 617.162 400.349 617.948 399.872C618.735 399.395 619.758 399.504 620.606 399.861C621.154 400.091 621.655 400.411 622.157 400.732C622.432 400.908 622.707 401.084 622.99 401.245C623.295 401.418 623.613 401.577 623.93 401.737C624.832 402.188 625.734 402.641 626.349 403.423C627.18 404.48 627.009 406.441 625.698 406.743ZM629.24 411.214C630.449 410.927 630.818 409.694 631.202 408.413C631.52 407.354 631.847 406.262 632.666 405.643C634.076 404.577 636.074 405.468 637.593 406.372L642.425 409.246C643.195 409.705 643.984 410.179 644.536 410.884C645.088 411.59 645.359 412.589 644.973 413.397C644.715 413.937 644.228 414.295 643.737 414.655C643.334 414.951 642.929 415.248 642.646 415.649C642.283 416.164 642.148 416.809 642.014 417.446C641.847 418.246 641.682 419.034 641.071 419.537C639.959 420.453 638.305 419.719 637.075 418.968L630.268 414.808C629.581 414.388 628.857 413.927 628.519 413.197C628.182 412.466 628.457 411.4 629.24 411.214ZM638.165 415.345C639.14 415.012 639.923 414.289 640.675 413.585C641.22 413.075 640.491 412.236 639.841 411.87L635.67 409.521C635.235 409.276 634.629 409.053 634.292 409.421C633.206 410.606 633.048 412.541 633.928 413.887C634.808 415.233 636.643 415.864 638.165 415.345ZM590.312 415.199C589.378 414.936 588.428 414.668 587.665 414.148C586.481 413.34 584.832 413.536 583.589 414.25C582.346 414.964 581.419 416.108 580.523 417.226C580.025 417.846 579.514 418.493 579.323 419.266C579.133 420.038 579.36 420.974 580.055 421.361L587.328 425.415C587.879 425.722 588.494 426.04 589.109 425.903C589.722 425.767 590.145 425.223 590.514 424.715L592.385 422.14C593.427 420.707 594.516 418.88 593.754 417.28C593.143 415.998 591.748 415.604 590.312 415.199ZM588.01 421.869C587.629 421.97 587.238 421.786 586.887 421.608L581.932 419.086C582.885 417.738 584.697 417.22 586.34 417.384C587.983 417.547 589.508 418.277 590.994 418.996L588.717 421.361C588.513 421.573 588.294 421.794 588.01 421.869ZM553.683 321.036C554.45 322.206 554.21 323.769 553.701 325.072C553.03 326.789 551.897 328.381 550.295 329.294C548.694 330.208 546.591 330.341 545.03 329.359C543.47 328.377 542.686 326.194 543.522 324.551C543.716 324.171 543.98 323.834 544.243 323.497C544.496 323.175 544.749 322.853 544.94 322.492C545.065 322.255 545.163 322.003 545.261 321.752C545.402 321.389 545.543 321.027 545.766 320.711C546.56 319.586 548.125 319.365 549.502 319.385C551.064 319.407 552.826 319.73 553.683 321.036ZM550.197 321.779C548.06 321.752 546.056 323.544 545.845 325.67C545.758 326.539 546.127 327.619 546.992 327.739C547.64 327.829 548.209 327.328 548.645 326.84C549.566 325.807 550.358 324.658 550.995 323.429C551.208 323.017 551.397 322.488 551.116 322.118C550.911 321.848 550.535 321.783 550.197 321.779ZM601.297 266.055C601.132 264.099 599.823 262.175 597.922 261.685C595.507 261.062 593.166 262.762 591.249 264.358C590.682 264.829 590.09 265.337 589.85 266.034C589.442 267.218 590.176 268.465 590.898 269.488C591.725 270.658 592.608 271.836 593.815 272.609C595.021 273.383 596.63 273.684 597.896 273.011C598.541 272.669 599.044 272.109 599.48 271.522C600.652 269.947 601.461 268.012 601.297 266.055ZM595.941 271.071C595.123 271.194 594.274 270.863 593.671 270.296C592.769 269.446 592.411 268.079 592.726 266.88C593.058 265.618 594.118 264.575 595.385 264.264C596.653 263.952 598.075 264.385 598.954 265.35C598.921 265.613 598.894 265.878 598.866 266.143L598.866 266.143C598.773 267.043 598.68 267.944 598.368 268.789C597.965 269.883 597.094 270.898 595.941 271.071ZM530.938 576.234C535.391 560.482 543.797 546.186 552.117 532.089C553.523 529.706 555.267 527.082 557.996 526.63C559.073 526.452 559.64 525.283 560.006 524.255C564.519 511.598 564.954 497.522 561.231 484.61C560.169 480.925 561.477 477.018 562.771 473.407L572.792 445.453C571.75 443.651 569.779 442.859 567.783 442.056C566.113 441.385 564.425 440.707 563.247 439.424C559.921 435.798 562.43 430.034 565.036 425.86L610.71 352.714C612.576 349.727 616.669 348.79 620.099 349.586C623.53 350.382 626.46 352.542 629.281 354.649L662.593 379.53C668.552 383.981 675.131 389.667 674.788 397.097C674.598 401.209 672.245 404.864 669.969 408.294L643.569 448.075C640.156 453.219 639.742 459.473 639.326 465.755V465.756C639.137 468.597 638.949 471.444 638.482 474.197C636.206 487.628 627.261 498.751 618.691 509.408L618.156 510.074C617.993 510.277 617.83 510.479 617.668 510.682C608.798 521.728 599.924 534.063 599.425 548.221C598.831 565.096 590.815 581.576 577.906 592.46L589.139 565.21C591.81 558.729 594.284 550.667 589.814 545.268C587.791 542.825 584.734 541.533 581.799 540.329L564.354 533.171C563.151 532.678 561.911 532.177 560.611 532.169C556.558 532.144 554.147 536.539 552.504 540.244C546.819 553.06 539.558 565.177 530.938 576.234ZM588.301 539.227C591.292 540.334 595.504 541.007 596.921 538.15C603.781 524.321 610.83 510.226 621.75 499.314C628.044 493.025 631.902 484.633 634.085 476.007C636.268 467.382 636.886 458.448 637.495 449.572C634.845 450.536 634.615 454.112 634.626 456.932C634.651 463.149 633.564 469.369 631.432 475.208C630.986 476.431 630.387 477.751 629.193 478.267C627.998 478.783 626.238 477.747 626.639 476.509C629.721 467.01 630.87 456.888 629.995 446.94C629.723 443.855 629.149 440.556 626.956 438.37C627.194 443.24 627.432 448.132 626.938 452.983C626.084 461.376 623.075 469.378 620.092 477.269C619.705 478.294 619.237 479.411 618.253 479.892C617.269 480.374 615.742 479.611 615.999 478.546L620.466 460.082C622.922 449.93 625.337 439.009 621.535 429.28C619.62 429.152 619.169 431.89 619.34 433.802C620.511 446.894 616.892 459.889 613.308 472.536C612.89 474.012 611.41 475.858 610.259 474.843C609.763 474.405 609.74 473.65 609.78 472.99C610.006 469.271 611.026 465.67 612.044 462.074C612.36 460.957 612.676 459.842 612.968 458.723C615.661 448.408 616.348 437.575 614.979 427.003C612.62 430.027 611.619 433.863 610.674 437.581L605.068 459.648C602.533 469.624 599.295 480.591 590.508 485.95C589.808 486.377 588.996 486.774 588.198 486.585C587.207 486.35 586.645 485.325 586.232 484.394C580.623 471.761 579.922 457.023 584.307 443.916C584.573 443.12 583.764 442.289 582.928 442.223C582.092 442.157 581.309 442.613 580.624 443.096C573.428 448.173 570.672 457.37 568.383 465.874L565.34 477.18C564.896 478.832 564.449 480.498 564.356 482.206C564.215 484.801 564.893 487.341 565.567 489.867C565.723 490.453 565.879 491.037 566.025 491.622C568.952 503.369 567.63 516.127 562.356 527.024C561.578 528.631 563.631 530.092 565.305 530.712L588.301 539.227ZM599.668 431.318C598.469 430.491 597.183 429.548 596.812 428.139C596.244 425.979 598.301 423.808 600.516 423.518C602.731 423.227 604.898 424.296 606.734 425.57C609.32 427.363 612.592 424.628 614.528 422.147C611.917 420.585 609.425 418.16 609.322 415.118C609.219 412.076 612.917 409.179 615.379 410.969C616.334 411.664 617.489 412.089 618.632 412.509C620.343 413.139 622.026 413.758 622.965 415.257C624.033 416.962 623.653 419.268 622.566 420.961C621.479 422.654 619.806 423.869 618.172 425.043C620.517 425.275 622.8 426.111 624.741 427.448L626.855 421.286C627.019 420.808 627.197 420.309 627.573 419.971C628.298 419.321 629.426 419.522 630.354 419.816C632.789 420.589 635.177 421.796 636.784 423.781C638.392 425.767 639.061 428.652 637.938 430.946C636.815 433.241 633.646 434.465 631.498 433.081C631.053 432.794 630.605 432.41 630.157 432.027C628.96 431.001 627.763 429.975 626.608 430.796C630.136 433.544 632.56 437.672 633.24 442.092C644.348 425.172 655.336 408.174 666.204 391.099C667.242 389.469 668.079 386.9 666.389 385.963C659.172 381.959 652.792 376.596 646.428 371.246C638.394 364.493 630.385 357.761 620.745 353.808C620.133 353.557 619.464 353.314 618.825 353.482C618.155 353.659 617.683 354.242 617.262 354.792C599.311 378.222 583.2 403.061 569.128 429.005C567.164 432.625 569.792 436.94 572.306 440.201C573.562 441.831 575.986 443.552 577.356 442.017C579.082 440.082 581.912 438.976 584.357 439.84C586.802 440.704 588.323 443.883 586.994 446.11C586.032 447.72 587.915 449.509 589.559 450.41C592.846 452.211 596.217 453.856 599.658 455.34C600.136 455.546 600.693 455.748 601.159 455.515C601.602 455.293 601.782 454.765 601.921 454.288L605.733 441.172C606.36 439.015 606.779 436.215 604.929 434.941L599.668 431.318ZM667.86 394.549C667.354 394.376 666.892 394.882 666.595 395.327L638.052 438.053C637.284 439.202 636.498 440.397 636.274 441.761C636.05 443.125 636.551 444.711 637.792 445.318C639.848 446.324 641.998 444.211 643.318 442.341L669.837 404.755C671.806 401.965 670.139 398.149 668.454 395.179C668.308 394.922 668.139 394.645 667.86 394.549ZM587.499 451.603C586.997 451.237 586.245 451.455 585.825 451.913C585.404 452.37 585.232 452.997 585.074 453.598C584.684 455.077 584.291 456.572 584.234 458.1C584.176 459.629 584.454 461.149 584.73 462.654L587.464 477.511C587.578 478.134 587.712 478.796 588.154 479.25C588.596 479.703 589.456 479.802 589.814 479.279C593.859 473.363 597.962 467.331 600.078 460.483C600.341 459.631 600.417 458.434 599.583 458.121C595.287 456.504 591.21 454.305 587.499 451.603ZM619.063 414.945C617.693 413.64 615.882 412.806 614 412.614C612.284 412.439 611.294 414.85 612.078 416.386C612.861 417.923 614.591 418.684 616.192 419.326C617.322 419.779 618.693 420.206 619.678 419.491C621.094 418.463 620.33 416.152 619.063 414.945ZM607.795 432.161C608.354 431.764 608.426 430.952 608.27 430.284C607.681 427.769 604.923 426.485 602.448 425.748C601.49 425.463 600.299 425.264 599.624 426.001C599.06 426.616 599.18 427.635 599.666 428.313C600.152 428.991 600.913 429.409 601.647 429.804L605.471 431.864C606.198 432.255 607.122 432.64 607.795 432.161ZM629.553 423.097C628.743 424.181 628.826 425.758 629.502 426.93C630.177 428.102 631.347 428.916 632.581 429.471C633.004 429.661 633.469 429.828 633.924 429.737C634.315 429.66 634.65 429.396 634.889 429.076C635.772 427.896 635.344 426.118 634.331 425.046C633.319 423.973 631.879 423.436 630.493 422.934C630.254 422.847 629.976 422.763 629.757 422.894C629.737 422.906 629.718 422.92 629.7 422.935C629.644 422.981 629.597 423.039 629.553 423.097ZM246.046 521.363C246.575 517.45 247.317 513.144 250.391 510.666C252.843 508.691 256.208 508.375 259.356 508.315C269.668 508.117 280.014 509.791 289.737 513.233C292.813 514.321 296.032 515.755 297.714 518.551C299.535 521.578 299.091 525.396 298.587 528.892L290.778 583.144C296.163 567.433 300.029 551.201 302.304 534.749C303.366 527.074 303.736 518.267 298.379 512.668C290.017 503.929 290.245 491.481 290.477 478.823C290.677 467.899 290.88 456.82 285.566 447.835C283.833 444.903 287.698 441.876 290.913 440.751C305.083 435.789 320.189 433.512 335.192 434.077C337.942 455.806 338.686 477.787 337.412 499.652C337.126 504.555 344.08 505.821 348.962 505.279L518.325 486.499C519.172 486.405 520.089 486.279 520.69 485.674C521.391 484.969 521.426 483.859 521.416 482.864C521.016 443.182 519.874 403.508 517.991 363.87C517.917 362.322 517.72 360.546 516.44 359.675C515.479 359.022 514.216 359.108 513.06 359.221L392.175 370.939C400.117 333.485 408.103 295.327 404.481 257.211C378.055 274.831 343.956 274.699 312.25 272.833C310.932 272.755 309.611 272.676 308.288 272.597C277.776 270.774 245.956 268.872 218.525 282.071C232.888 320.152 247.416 361.719 235.477 400.629C234.42 404.071 233.164 407.453 231.907 410.833C229.971 416.044 228.035 421.251 226.838 426.672C224.865 435.609 225.162 445.616 230.451 453.085C238.109 463.901 244.196 476.199 245.584 489.38C246.901 501.887 243.958 514.291 241.018 526.682C237.946 539.628 234.877 552.559 236.676 565.576C236.981 567.778 237.531 570.146 239.255 571.55L246.046 521.363ZM258.028 364.192C261.231 364.306 262.504 368.327 262.914 371.505L266.156 396.674C259.825 393.392 250.918 398.963 251.1 406.093C245.765 395.795 244.954 383.993 244.152 372.311C243.977 369.77 243.803 367.234 243.583 364.721C241.227 337.843 233.127 311.846 225.077 286.095C223.929 282.423 228.887 280.042 232.694 279.484C257.673 275.821 282.954 276.327 308.247 276.833C319.712 277.062 331.179 277.292 342.622 277.133C362.953 276.851 384.466 274.927 400.959 263.033C404.666 287.745 399.628 312.677 394.653 337.296C393.98 340.626 393.308 343.95 392.659 347.268C387.214 375.109 383.508 404.785 393.926 431.172C394.365 432.284 392.868 433.122 391.698 433.366C383.129 435.153 374.27 435.538 365.578 434.501C361.85 434.056 358.161 433.353 354.471 432.649C351.693 432.12 348.914 431.59 346.117 431.17C325.065 428.011 303.09 431.29 283.877 440.457C283.107 440.824 282.191 440.652 281.384 440.373C277.493 439.026 274.717 435.431 273.332 431.553C271.947 427.675 271.749 423.49 271.564 419.376L270.789 402.123C270.761 401.504 270.924 400.662 271.544 400.642C305.201 399.591 338.82 397.322 372.314 393.841C370.897 385.917 370.757 377.766 371.899 369.797C372.62 364.767 367.89 360.18 362.852 359.507C357.815 358.834 352.834 361.115 348.651 364.002C347.087 365.082 345.584 366.255 344.083 367.427C341.571 369.389 339.061 371.348 336.266 372.867C334.437 373.861 332.237 374.662 330.317 373.86C327.966 372.877 327.178 370.081 326.474 367.585C326.43 367.428 326.386 367.272 326.342 367.118C325.426 363.903 323.912 360.703 321.249 358.681C318.587 356.66 314.57 356.156 311.942 358.222C309.695 359.989 308.985 363.049 308.608 365.882C308.575 366.134 308.543 366.388 308.51 366.642C308.176 369.247 307.831 371.939 306.277 374.028C304.57 376.321 300.762 377.304 298.891 375.144C295.189 370.872 288.694 369.976 283.244 371.475C277.794 372.974 273.13 376.437 268.608 379.829C265.88 375.56 265.655 369.812 268.039 365.342L268.079 365.268C268.528 364.429 269.043 363.465 268.646 362.611C268.401 362.081 267.859 361.757 267.323 361.527C264.116 360.151 260.019 361.327 258.028 364.192ZM354.399 436.34C356.192 436.697 358.396 437.497 358.507 439.322C359.564 456.728 373.397 472.369 390.404 476.222C407.411 480.074 426.26 472.284 436.176 457.94C446.093 443.596 446.869 423.67 438.738 408.244C430.017 391.7 408.825 382.915 390.957 388.436C390.128 384.78 390.222 380.919 391.226 377.307C391.413 376.637 391.656 375.936 392.198 375.498C392.726 375.07 393.441 374.973 394.116 374.891L444.449 368.829C448.874 368.296 453.31 367.762 457.767 367.726C476.932 367.568 496.083 365.657 514.902 362.024C517.827 401.29 519.203 440.671 519.026 480.045C519.018 481.913 518.449 484.395 516.582 484.449C484.905 485.372 453.478 489.539 422.038 493.707C400.915 496.508 379.787 499.309 358.574 501.128C353.845 501.533 349.085 501.89 344.361 501.44C343.504 501.358 342.538 501.183 342.073 500.46C341.792 500.023 341.761 499.478 341.737 498.959L338.913 435.981C338.876 435.167 338.926 434.186 339.63 433.778C340.097 433.507 340.682 433.604 341.211 433.71L354.399 436.34ZM267.735 421.759C267.234 425.03 266.671 428.71 268.814 431.185C276.807 440.416 285.111 450.278 287.235 462.303C288.227 467.918 287.801 473.697 287.377 479.452C286.842 486.702 286.31 493.915 288.619 500.716C288.679 500.893 288.741 501.071 288.804 501.249C289.228 502.462 289.66 503.698 289.523 504.963C289.365 506.415 288.105 507.876 286.666 507.628L269.956 504.746C264.422 503.792 258.576 502.863 253.32 504.838C252.303 505.22 251.134 504.55 250.589 503.611C250.044 502.672 249.973 501.541 249.926 500.456C249.869 499.147 249.826 497.828 249.783 496.506C249.513 488.187 249.238 479.713 245.388 472.424L233.103 449.169C231.289 445.736 229.433 442.15 229.308 438.27C229.225 435.678 229.924 433.133 230.618 430.634L236.746 408.559C238.037 403.911 239.402 399.116 242.457 395.383C249.88 407.977 250.613 424.269 244.35 437.478C243.77 438.7 245.54 439.958 246.802 439.471C248.063 438.984 248.704 437.602 249.149 436.325C250.93 431.21 251.555 425.817 252.181 420.416C252.687 416.047 253.193 411.672 254.314 407.435C255 404.839 255.991 402.19 257.995 400.403C259.999 398.617 263.268 398.005 265.368 399.678C266.976 400.958 267.498 403.145 267.804 405.177C268.611 410.538 268.607 416.019 267.793 421.379C267.774 421.505 267.754 421.632 267.735 421.759ZM296.567 378.177C299.03 380.062 301.443 381.908 304.398 381.566C308.154 381.132 310.495 377.265 311.586 373.644C311.825 372.852 312.037 372.041 312.25 371.228C313.01 368.327 313.776 365.404 315.766 363.221C316.344 362.587 317.177 361.996 317.999 362.245C318.665 362.446 319.052 363.121 319.361 363.743C319.799 364.626 320.214 365.524 320.628 366.421C321.798 368.954 322.967 371.487 324.665 373.687C326.965 376.668 330.543 379.012 334.285 378.602C337.631 378.235 340.246 375.866 342.794 373.556C343.317 373.083 343.836 372.612 344.359 372.161C350.497 366.868 358.491 363.771 366.593 363.548C365.5 366.279 366.229 369.258 366.944 372.182C367.116 372.886 367.288 373.586 367.432 374.279C368.576 379.747 367.998 385.563 365.8 390.698L311.686 394.864C299.053 395.837 286.388 396.81 273.726 396.365C272.926 396.337 272.106 396.298 271.37 395.984C269.98 395.389 269.154 393.906 268.855 392.424C268.185 389.101 269.717 385.641 272.037 383.17C274.357 380.698 277.387 379.034 280.363 377.412C283.46 375.723 286.898 373.978 290.351 374.699C292.649 375.178 294.624 376.69 296.567 378.177ZM399.038 457.004C390.84 456.835 383.737 450.147 381.303 442.317C380.806 440.718 381.84 438.964 383.266 438.087C384.691 437.209 386.416 437.001 388.08 436.815L400.092 435.465C396.439 428.365 393.837 420.725 392.397 412.871C392.267 412.159 392.148 411.411 392.373 410.722C392.768 409.513 394.071 408.877 395.276 408.472C405.036 405.192 416.754 409.174 422.493 417.722C428.232 426.27 427.48 438.626 420.744 446.413C417.828 449.784 414.007 452.272 409.981 454.187C406.548 455.82 402.839 457.082 399.038 457.004ZM437.941 414.803C439.399 419.62 439.82 424.686 440.021 429.715C436.745 429.219 433.437 428.938 430.124 428.873C429.477 420.414 423.847 412.772 416.445 408.626C409.044 404.48 400.111 403.585 391.747 405.004C391.676 403.812 391.459 402.568 391.241 401.323C390.668 398.04 390.094 394.757 392.217 392.426C393.499 391.018 395.453 390.455 397.325 390.107C405.851 388.518 414.943 390.182 422.355 394.689C429.766 399.195 435.427 406.501 437.941 414.803ZM377.816 441.463C377.802 441.619 377.789 441.773 377.782 441.92C377.726 443.089 378.271 444.161 378.81 445.222C378.955 445.506 379.099 445.79 379.231 446.074C379.856 447.421 380.159 449.194 379.114 450.248C376.587 452.799 374.354 455.64 372.473 458.699C372.008 459.455 370.863 459.517 370.098 459.066C369.333 458.615 368.859 457.81 368.417 457.04C365.621 452.165 362.755 447.066 362.407 441.457C362.363 440.76 362.44 439.915 363.058 439.59C363.331 439.447 363.652 439.443 363.96 439.442L376.465 439.404C376.764 439.403 377.078 439.406 377.338 439.554C377.951 439.902 377.881 440.712 377.816 441.463Z" fill="#00160A"/>
</svg>
