<svg width="750" height="750" viewBox="0 0 750 750" fill="none" xmlns="http://www.w3.org/2000/svg">
<rect width="750" height="750" fill="none"/>
<path fill-rule="evenodd" clip-rule="evenodd" d="M114.963 376.779C74.3677 392.113 22.4882 467.93 65.6081 548.471C112.818 636.652 244.293 665.25 358.884 608.313C432.565 571.701 489.686 541.197 580.667 530.691C629.484 525.056 746.286 374.465 673.124 233.242C599.962 92.0188 355.683 54.4376 289.58 168.153C201.285 320.038 184.561 350.488 114.963 376.779Z" />
<path fill-rule="evenodd" clip-rule="evenodd" d="M423.82 445.528L430.601 434.233L431.096 422.184C431.096 422.184 436.355 420.222 438.773 421.505C438.773 421.505 446.191 419.838 447.902 413.929C447.902 413.929 438.635 415.614 433.731 415.262C433.731 415.262 435.704 395.14 437.845 386.432C437.845 386.432 434.478 375.902 427.661 386.766C420.844 397.628 424.24 406.79 424.894 419.984C425.545 433.174 425.157 441.145 423.82 445.528Z" fill="white"/>
<path fill-rule="evenodd" clip-rule="evenodd" d="M356.13 504.577C356.13 504.577 350.451 501.95 354.925 494.246C355.896 492.571 353.026 492.841 351.294 491.466C348.371 489.144 344.947 485.535 341.426 484.785C341.426 484.785 327.383 487.107 333.077 481.621C338.773 476.135 350.149 480.263 354.825 485.564C354.825 485.564 362.45 471.794 355.739 451.64C349.53 432.985 346.174 429.085 345.036 421.36C345.036 421.36 338.083 424.403 332.959 422.679C327.839 420.958 325.364 419.977 322.085 419.251C318.806 418.53 321.402 413.531 327.586 414.683C333.766 415.835 342.209 416.364 342.731 412.656C342.731 412.656 332.525 401.941 343.478 390.846C356.891 377.259 389.675 372.426 389.692 385.438C389.71 398.449 384.508 410.736 380.571 434.244C376.635 457.751 376.788 491.85 377.122 500.14C377.452 508.431 377.3 511.539 369.693 509.917C362.087 508.296 360.867 509.423 356.13 504.577Z" fill="white"/>
<path fill-rule="evenodd" clip-rule="evenodd" d="M175.614 533.684C175.614 533.684 144.1 543.554 144.537 547.109C144.974 550.664 147.136 561.312 182.257 561.554C217.377 561.799 290.063 557.082 266.491 549.74C244.11 542.768 251.622 530.698 276.991 528.458C290.717 527.249 272.421 515.741 302.562 510.024C302.562 510.024 281.041 510.813 266.088 519.261C251.135 527.704 254.121 530.303 211.228 529.717C211.228 529.717 185.74 531.359 175.614 533.684Z" fill="white"/>
<path fill-rule="evenodd" clip-rule="evenodd" d="M439.815 519.165C439.815 519.165 470.878 524.106 461.671 530.797C452.468 537.488 504.599 534.968 504.696 544.602C504.795 554.241 468.779 557.792 495.592 570.207C522.408 582.622 576.474 588.549 598.088 568.576C598.088 568.576 614.051 562.354 581.894 552.232C539.548 538.9 521.733 541.108 490.478 529.738C490.478 529.738 464.505 519.126 439.815 519.165Z" fill="white"/>
<path fill-rule="evenodd" clip-rule="evenodd" d="M301.04 510.223C301.04 510.223 316.726 503.326 303.153 459.373C293.85 429.931 260.951 425.271 265.751 370.25C265.751 370.25 254.624 372.108 259.586 360.031C264.548 347.955 306.765 357.275 314.891 359.24C323.02 361.205 338.304 366.848 328.216 376.779C328.216 376.779 319.215 387.615 322.341 412.959C322.341 412.959 314.777 414.615 317.995 418.629C319.82 420.905 323.539 421.95 325.595 426.497C330.378 437.081 332.511 451.43 333.18 468.78C333.18 468.78 330.054 506.632 333.425 512.527C333.425 512.527 325.659 513.992 321.011 516.349C321.011 516.349 309.148 511.261 301.04 510.223Z" fill="white"/>
<path fill-rule="evenodd" clip-rule="evenodd" d="M422.963 519.115C422.963 519.115 416.79 492.141 428.631 455.938C440.473 419.735 467.965 411.035 461.635 372.108C461.635 372.108 440.306 373.634 449.445 362.318C449.445 362.318 491.829 347.46 515.345 353.964C515.345 353.964 536.006 357.768 526.896 371.675C526.896 371.675 523.539 377.284 521.398 389.816C519.257 402.346 500.037 413.968 479.998 438.983C459.96 464.001 446.657 491.764 452.201 520.249C452.201 520.249 423.592 518.934 422.963 519.115Z" fill="white"/>
<path fill-rule="evenodd" clip-rule="evenodd" d="M299.746 356.144C299.746 356.144 294.155 336.731 271.413 336.1L281.19 331.667C281.19 331.667 271 303.487 323.109 288.79C375.219 274.091 357.538 256.568 352.158 254.934L349.804 251.033C349.804 251.033 372.417 252.638 391.57 245.398C391.57 245.398 392.597 236.461 367.396 235.179L366.421 232.795C366.421 232.795 393.629 225.801 405.022 233.971C405.022 233.971 398.789 237.854 400.165 241.986C400.165 241.986 400.78 245.453 408.091 248.811C408.091 248.811 402.832 252.003 404.475 258C404.475 258 406.431 267.495 449.171 286.116C491.907 304.738 507.01 304.806 504.46 322.478C504.46 322.478 512.418 323.226 515.886 325.808C515.886 325.808 491.175 330.963 490.03 348.758C490.03 348.758 482.263 352.193 471.545 351.244C471.545 351.244 491.488 328.504 458.455 318.787C458.455 318.787 424.659 312.443 420.1 346.996C420.1 346.996 421.8 335.609 416.231 331.537C416.231 331.537 417.269 340.674 409.122 340.459L367.46 340.778C367.46 340.778 358.922 340.846 362.524 331.465C362.524 331.465 348.072 336.349 344.452 352.019L343.24 355.456C343.24 355.456 343.467 324.276 312.035 321.105C284.209 318.298 292.513 344.243 301.89 351.167L306.833 357.141L299.746 356.144ZM335.622 308.858L327.899 308.338C327.899 308.338 323.169 299.038 332.209 295.216C341.245 291.393 330.363 303.796 338.613 304.857C346.867 305.918 349.345 302.95 347.628 300.14C345.91 297.33 362.73 311.21 358.723 314.5C358.723 314.5 341.031 310.633 335.622 308.858ZM405.204 298.063C405.204 298.063 401.153 309.101 410.492 308.738C410.492 308.738 410.62 303.709 414.858 304.303L423.247 308.06C423.247 308.06 438.396 308.47 433.417 296.113C433.417 296.113 427.738 288.99 425.864 289.556C416.54 292.374 420.975 299.036 415.36 301.082C413.507 301.756 411.907 303.675 405.204 298.063Z" fill="white"/>
<ellipse cx="250.025" cy="272.783" rx="37.7913" ry="37.7829" fill="white"/>
<ellipse cx="194.077" cy="471.632" rx="8.23618" ry="8.679" fill="white"/>
<ellipse cx="265.077" cy="475.908" rx="5.31782" ry="5.6096" fill="white"/>
<ellipse rx="8.23618" ry="8.679" transform="matrix(-1 0 0 1 531.031 493.485)" fill="white"/>
<ellipse rx="5.31782" ry="5.6096" transform="matrix(-1 0 0 1 478.882 489.512)" fill="white"/>
<ellipse cx="341.016" cy="308.192" rx="3.82258" ry="2.51356" transform="rotate(12.3059 341.016 308.192)" fill="#FFB61D"/>
<ellipse cx="415.403" cy="306.355" rx="3.82258" ry="2.51356" transform="rotate(-1.85304 415.403 306.355)" fill="#FFB61D"/>
<path fill-rule="evenodd" clip-rule="evenodd" d="M300.959 297.118C310.247 292.412 320.086 289.463 329.713 285.95C336.549 283.455 343.237 280.467 349.032 275.973C352.275 273.458 355.424 270.752 357.264 266.824C359.315 262.444 357.305 259.064 353.475 257.58C351.668 256.88 350.183 255.898 348.864 254.521C347.65 253.254 348.081 250.507 350.072 250.188C350.859 250.061 351.757 250.526 352.585 250.786C354.461 251.375 357.521 249.945 358.097 248.135C358.83 245.831 358.104 242.988 356.291 241.869C356.084 241.741 356.056 241.337 355.852 241.192C355.62 241.027 355.284 241.011 354.993 240.931C355.076 241.175 355.249 241.428 355.229 241.663C355.074 243.416 354.904 245.17 354.67 246.914C354.639 247.137 354.166 247.512 353.973 247.47C352.137 247.075 348.68 242.997 348.528 241.131C348.365 239.137 349.761 237.152 351.914 236.565C354.374 235.895 356.902 235.467 359.343 234.739C361.753 234.02 363.667 232.792 363.921 229.828C363.984 229.086 365.197 228.014 366.034 227.844C369.295 227.183 371.542 225.216 373.517 222.759C374.637 221.365 376.053 220.917 377.711 221.631C378.13 221.811 378.567 222.259 378.702 222.678C378.786 222.941 378.331 223.387 378.094 223.734C378.046 223.803 377.871 223.771 377.785 223.83C377.19 224.242 376.602 224.665 376.012 225.084C376.891 225.206 377.797 225.528 378.644 225.413C381.198 225.065 383.715 224.335 386.272 224.178C387.726 224.088 389.398 224.49 390.228 226.134C390.403 226.479 390.641 226.793 390.849 227.121C390.399 227.18 389.947 227.303 389.5 227.287C386.881 227.19 384.262 226.929 381.646 226.969C376.654 227.047 372.075 228.765 367.624 230.867C367.4 230.972 367.254 231.244 367.072 231.439C367.351 231.482 367.64 231.594 367.907 231.556C370.252 231.219 372.595 230.869 374.934 230.495C377.042 230.159 379.132 229.628 381.252 229.468C384.63 229.213 388.038 228.961 391.413 229.13C396.671 229.394 401.833 230.358 406.648 232.651C407.249 232.937 407.901 233.362 408.23 233.904C408.574 234.472 408.867 235.417 408.618 235.91C408.311 236.515 407.412 237.201 406.781 237.189C404.763 237.153 403.564 238.241 402.763 239.801C401.984 241.318 402.989 243.179 404.104 244.784C405.43 246.692 407.393 246.884 409.203 247.557C411.149 248.28 411.917 249.313 411.445 251.085C411.362 251.398 410.852 251.801 410.525 251.814C406.905 251.96 405.842 255.214 406.84 258.102C407.981 261.405 410.915 263.004 413.407 264.89C419.921 269.82 426.859 274.115 434.247 277.643C434.395 277.714 434.589 277.705 434.708 277.818C435.442 278.518 441.204 281.568 444.744 282.987C449.391 284.851 453.412 286.142 457.972 287.887C464.111 290.237 470.239 292.622 476.285 295.19C483.042 298.059 489.757 301.037 496.386 304.184C500.729 306.247 504.552 309.166 506.725 313.593C507.924 316.037 508.735 318.737 508.073 321.616C508.02 321.859 508.76 322.507 509.211 322.611C512.089 323.271 515.023 323.726 517.868 324.496C518.597 324.693 520.173 324.636 519.906 326.134C519.771 326.903 519.266 327.709 518.697 328.263C518.323 328.625 517.544 328.667 516.943 328.676C512.665 328.745 508.625 329.817 504.951 331.925C498.396 335.685 493.712 341.018 491.855 348.532C491.763 348.905 491.628 349.268 491.496 349.63C491.45 349.762 491.357 349.879 491.286 350.003C491.24 349.844 491.229 349.66 491.14 349.531C489.544 347.239 489.867 344.862 490.749 342.422C492.62 337.241 496.603 333.905 501.078 331.261C504.357 329.324 508.055 328.102 511.562 326.552C511.772 326.459 511.943 326.273 512.131 326.13C511.893 326.035 511.665 325.903 511.42 325.852C506.526 324.854 501.892 326.023 497.357 327.683C496.077 328.152 495.021 328.958 494.27 327.042C493.673 325.523 494.014 324.44 495.732 323.74C496.696 323.347 497.766 323.149 498.808 323.026C499.801 322.908 500.821 323.001 501.828 323.001C504.858 323.001 505.954 321.381 505.253 318.4C504.079 313.388 500.572 310.222 496.532 307.759C487.125 302.024 476.889 298.038 466.611 294.154C458.21 290.981 449.87 287.641 441.564 284.222C432.583 280.526 424.223 275.692 416.298 270.067C414.133 268.531 411.804 267.451 408.808 268.095C406.369 268.62 405.148 270.059 404.813 272.076C404.487 274.044 405.323 275.958 406.937 277.37C409.014 279.188 411.218 280.89 413.108 282.888C416.722 286.707 415.551 292.146 412.62 295.722C411.119 297.554 409.13 298.51 406.935 299.185C406.627 299.279 406.175 299.663 406.179 299.905C406.234 303.099 407.21 305.962 409.441 308.319C409.626 308.515 409.904 308.622 410.139 308.77C410.23 308.47 410.381 308.174 410.403 307.87C410.644 304.423 413.761 302.254 417.009 303.472C418.797 304.142 420.536 305.06 422.124 306.126C426.029 308.747 432.805 306.16 433.278 301.392C433.603 298.11 431.765 294.069 428.248 292.985C427.726 292.824 427.142 292.704 426.728 292.383C425.78 291.646 424.394 290.931 424.146 289.962C423.748 288.41 425.54 287.63 426.613 287.522C429.127 287.27 431.731 287.282 434.229 287.654C438.736 288.327 442.519 290.876 445.603 293.93C448.552 296.851 450.854 300.539 451.64 304.825C451.933 306.424 451.922 308.082 452.019 309.714C452.127 311.536 450.871 312.051 449.465 311.931C446.933 311.717 444.417 311.288 441.903 310.895C439.91 310.584 437.941 310.006 435.94 309.876C432.027 309.623 428.078 309.287 424.18 309.544C415.008 310.147 406.028 311.81 397.596 315.715C396.155 316.383 394.68 316.981 393.25 317.671C390.715 318.897 388.208 317.913 387.302 315.232C386.195 311.953 387.461 309.194 389.304 306.579C392.405 302.177 397.329 300.599 401.884 298.458C405.075 296.959 408.233 295.455 410.806 292.93C413.197 290.583 413.137 288.033 411.003 285.757C407.802 282.343 404.436 279.079 401.086 275.808C399.718 274.473 397.986 274.853 396.439 275.353C389.184 277.697 381.851 279.864 375.186 283.709C370.417 286.461 366.253 289.968 363.308 294.624C361.658 297.232 360.647 300.307 362.788 303.254C363.628 304.408 364.751 305.434 365.932 306.246C368.215 307.816 370.725 309.062 372.962 310.689C374.917 312.11 375.548 314.339 374.036 316.267C373.169 317.373 371.363 318.088 369.882 318.301C365.807 318.885 361.919 317.433 358.013 316.559C351.745 315.156 345.575 313.287 339.276 312.058C335.615 311.344 331.772 311.19 328.033 311.337C323.296 311.524 318.648 312.552 314.398 314.833C313.303 315.421 312.45 315.162 311.663 314.394C310.643 313.4 310.495 312.112 311.034 310.917C312.457 307.762 314.483 305.03 317.399 303.087C321.2 300.555 325.003 298.019 328.906 295.65C330.172 294.883 331.567 294.2 333.333 294.715C334.585 295.08 334.774 296.014 334.798 296.744C334.815 297.298 333.989 298.141 333.353 298.402C331.612 299.119 329.025 302.04 329.284 304.18C329.481 305.807 330.647 307.653 332.129 308.058C334.553 308.72 335.632 308.299 336.791 306.239C337.754 304.527 341.484 303.648 343.635 304.364C346.624 305.358 346.71 308.035 347.455 310.367C347.511 310.542 347.514 310.867 347.593 310.884C350.484 311.501 353.377 312.106 356.278 312.674C357.268 312.869 357.704 312.058 357.25 310.915C356.212 308.304 354.057 306.641 352.053 304.863C349.982 303.025 347.685 301.407 345.812 299.391C342.903 296.258 342.904 292.061 344.717 287.85C346.327 284.112 349.27 281.474 352.41 279.191C356.591 276.151 360.964 273.338 365.444 270.756C370.113 268.065 375.32 266.759 380.592 265.684C384.375 264.913 388.069 263.829 391.298 261.478C394.489 259.154 396.537 252.634 394.987 249.046C394.163 247.138 393.141 246.8 391.275 247.67C387.862 249.262 384.254 250.13 380.503 250.433C380.152 250.461 379.814 250.634 379.47 250.739C379.746 250.97 379.988 251.289 380.306 251.418C383.34 252.651 385.781 254.62 387.597 257.331C388.332 258.428 388.815 259.655 387.993 260.947C387.78 261.281 387.416 261.52 387.121 261.802C386.942 261.524 386.731 261.261 386.588 260.966C384.318 256.286 380.169 254.065 375.447 252.964C368.336 251.305 361.253 252.14 354.266 253.993C354.107 254.035 353.996 254.257 353.863 254.395C354.035 254.494 354.198 254.651 354.383 254.683C358.307 255.38 360.47 259.376 361.017 262.107C361.937 266.711 359.871 270.188 357.044 273.341C353.913 276.834 349.892 279.143 345.842 281.45C336.633 286.696 326.623 289.993 316.841 293.877C309.133 296.937 301.352 299.922 294.53 304.845C289.42 308.532 285.309 313.086 283.908 319.287C282.87 323.879 282.704 328.706 285.683 332.962C285.778 333.097 285.318 333.916 285.014 333.989C282.739 334.538 280.436 334.97 278.148 335.464C277.88 335.522 277.646 335.734 277.396 335.875C277.631 335.971 277.859 336.127 278.101 336.155C284.733 336.941 290.366 339.834 295.488 344.033C297.338 345.55 298.76 347.338 300.164 349.188C300.619 349.789 301.031 350.529 301.145 351.254C301.299 352.236 301.115 353.197 299.8 353.445C298.886 353.617 298.371 353.805 297.804 352.586C295.874 348.437 292.608 345.385 288.812 342.94C283.899 339.776 278.46 338.437 272.632 338.662C272.186 338.679 271.735 338.767 271.304 338.887C269.408 339.415 268.134 338.837 267.534 337.15C267.054 335.799 268.091 333.82 269.701 333.346C270.984 332.969 272.333 332.746 273.667 332.633C275.08 332.514 276.51 332.616 277.933 332.604C280.081 332.586 280.07 332.327 279.932 330.062C279.674 325.828 279.942 321.659 281.504 317.575C283.324 312.817 286.292 308.794 289.597 305.149C291.96 302.544 295.32 300.839 298.26 298.767C299.086 298.185 299.997 297.724 300.959 297.118ZM405.611 266.788C407.015 265.442 407.34 264.223 405.968 262.433C402.936 258.476 402.964 254.101 405.52 249.973C406.386 248.573 405.628 248.572 404.902 248.312C398.981 246.195 397.709 239.639 401.953 235.232C402.22 234.955 402.534 234.725 402.826 234.474C402.399 234.216 401.999 233.806 401.541 233.727C399.15 233.316 396.751 232.919 394.34 232.652C391.484 232.337 388.613 231.98 385.747 231.974C383.06 231.969 380.36 232.304 377.689 232.66C375.025 233.015 372.388 233.575 369.744 234.072C369.549 234.109 369.395 234.368 369.223 234.524C369.441 234.605 369.655 234.748 369.877 234.759C372.434 234.892 374.993 234.999 377.552 235.126C381.275 235.311 384.836 236.357 388.075 238.034C393.133 240.652 396.666 244.805 398.091 250.411C399.594 256.327 398.861 259.84 393.851 263.269C390.192 265.773 385.991 266.897 381.854 268.226C377.256 269.703 372.52 270.916 368.166 272.939C363.475 275.119 359.114 278.033 354.693 280.764C351.936 282.467 349.245 284.356 347.718 287.368C346.583 289.607 345.951 291.916 346.72 294.505C347.778 298.071 350.347 300.314 353.18 302.346C354.339 303.178 355.608 303.906 356.919 304.464C358.024 304.934 358.917 304.35 358.728 303.504C358.006 300.266 358.534 297.177 360.013 294.28C363.431 287.588 369.187 283.372 375.616 279.97C381.317 276.953 387.447 275.028 393.602 273.168C397.921 271.863 402.158 270.307 405.611 266.788ZM439.754 307.347C441.788 307.721 443.839 308.023 445.849 308.499C446.941 308.758 447.472 308.253 447.729 307.423C448.074 306.312 448.34 305.152 448.442 303.995C448.616 302.037 448.29 300.108 446.969 298.589C444.404 295.642 441.397 293.202 437.751 291.727C436.077 291.049 434.262 290.702 432.488 290.309C432.183 290.241 431.763 290.69 431.396 290.901C431.591 291.165 431.729 291.538 431.991 291.675C433.769 292.598 434.545 294.368 435.247 295.992C436.486 298.863 436.642 301.892 435.46 304.911C435.121 305.775 435.212 306.544 436.494 306.664C437.475 306.756 438.431 307.109 439.754 307.347ZM378.047 239.927C378.089 239.648 378.172 239.368 378.164 239.09C378.149 238.597 378.077 238.107 378.029 237.615C377.561 237.903 376.953 238.093 376.663 238.506C376.368 238.926 376.298 239.564 376.285 240.11C376.242 241.967 376.339 243.83 376.243 245.683C376.184 246.84 375.431 247.843 374.265 247.47C373.683 247.285 373.267 246.025 373.105 245.188C372.686 243.025 372.477 240.823 372.113 238.648C372.05 238.273 371.635 237.957 371.382 237.615C371.114 238.044 370.595 238.489 370.622 238.899C370.739 240.653 371.15 242.394 371.181 244.144C371.197 245.046 370.909 246.354 370.284 246.779C369.137 247.556 368.319 246.578 368.05 244.838C367.737 242.818 367.169 240.831 366.618 238.856C366.518 238.496 365.967 238.263 365.624 237.971C365.497 238.353 365.233 238.747 365.266 239.115C365.457 241.274 365.734 243.425 365.945 245.582C366.01 246.248 366.128 247.001 365.883 247.567C365.757 247.858 364.887 247.857 364.346 247.919C364.184 247.937 363.936 247.761 363.83 247.605C362.454 245.575 363.728 242.603 361.442 240.882C361.192 240.694 361.031 240.387 360.828 240.136C360.759 240.383 360.619 240.634 360.631 240.877C360.73 242.844 360.744 244.825 361.002 246.774C361.391 249.721 361.482 249.903 364.28 249.67C369.736 249.217 375.173 248.542 380.615 247.926C384.221 247.518 387.701 246.639 390.885 244.833C391.111 244.704 391.322 244.02 391.211 243.901C389.135 241.682 386.458 240.396 383.653 239.449C382.618 239.1 381.439 239.49 381.613 241.077C381.673 241.627 381.908 242.161 381.946 242.71C382.029 243.935 381.698 245.231 380.398 245.324C379.779 245.368 378.804 244.27 378.471 243.486C378.065 242.531 378.166 241.36 378.047 239.927ZM398.497 311.616C400.057 311.241 401.607 310.814 403.181 310.509C404.289 310.295 404.665 309.893 404.194 308.749C403.371 306.748 402.875 304.708 403.626 302.513C403.996 301.43 403.32 300.913 402.336 301.406C398.693 303.234 394.959 304.962 392.135 308.039C390.566 309.749 390.457 311.524 391.254 313.008C391.474 313.417 392.381 313.829 392.798 313.695C394.614 313.112 396.366 312.327 398.497 311.616ZM322.031 302.721C319.789 304.608 317.485 306.428 315.354 308.432C314.864 308.892 314.971 309.987 314.803 310.789C315.292 310.614 315.778 310.431 316.27 310.269C316.429 310.217 316.605 310.22 316.773 310.192C319.599 309.718 322.415 309.161 325.256 308.801C326.96 308.584 327.305 308.2 326.696 306.653C326.415 305.938 326.17 305.159 326.144 304.4C326.019 300.722 325.851 300.612 322.64 302.473C322.541 302.53 322.471 302.638 322.031 302.721ZM368.267 310.549C366.867 310.216 365.356 310.116 364.095 309.501C361.875 308.418 361.595 308.392 361.045 310.684C360.885 311.352 360.87 312.111 361.016 312.778C361.123 313.263 361.565 314.009 361.926 314.052C364.771 314.387 367.631 314.604 370.491 314.776C370.739 314.791 371.231 314.235 371.256 313.916C371.411 311.933 369.748 311.474 368.267 310.549ZM343.371 309.837C344.093 310.198 345.144 310.765 345.254 309.531C345.404 307.839 342.236 306.355 340.892 307.396C340.614 307.612 340.578 308.273 340.613 308.714C340.634 308.984 340.956 309.356 341.226 309.454C341.793 309.661 342.415 309.718 343.371 309.837ZM418.236 307.524C418.142 306.027 417.103 305.5 415.855 306.388C415.481 306.653 415.303 307.193 415.035 307.607C415.506 307.757 415.975 308.019 416.448 308.028C416.983 308.038 417.521 307.821 418.236 307.524Z" fill="#00160A"/>
<path fill-rule="evenodd" clip-rule="evenodd" d="M389.517 408.831C388.296 412.779 387.043 416.609 386.063 420.506C384.817 425.465 383.598 430.446 382.723 435.48C381.78 440.896 381.188 446.377 380.559 451.843C380.196 454.992 380.006 458.163 379.84 461.33C379.656 464.835 379.571 468.348 379.473 471.856C379.338 476.726 379.139 481.6 379.14 486.471C379.141 491.462 379.161 496.468 379.544 501.438C379.756 504.203 380.004 506.885 379.101 509.536C378.621 510.941 377.576 511.88 376.075 511.894C369.788 511.948 363.552 511.297 357.562 509.376C352.54 507.764 349.665 503.893 350.382 499.072C350.777 496.411 350.403 493.935 349.141 491.85C347.179 488.605 344.353 486.279 340.18 486.279C338.219 486.275 336.305 486.332 334.551 487.307C333.409 487.94 332.27 487.933 331.484 486.923C330.065 485.101 330.126 483.856 331.111 482.522C332.648 480.437 334.942 479.636 337.223 479.256C341.411 478.562 345.663 478.331 349.782 479.893C353.625 481.351 356.401 483.913 357.325 487.962C357.584 489.096 356.98 490.665 356.294 491.729C354.951 493.807 353.948 495.942 353.324 498.347C352.675 500.844 354.063 505.028 357.034 506.038C358.484 506.529 358.803 506.344 358.848 504.804C358.946 501.413 359.033 498.023 359.209 494.636C359.39 491.174 359.764 487.72 359.889 484.258C360.185 476.114 360.704 467.963 360.527 459.828C360.359 452.089 358.463 444.568 355.592 437.361C352.451 429.474 349.033 421.694 346.001 413.766C344.997 411.144 344.448 408.222 344.333 405.411C344.061 398.744 347.131 393.56 352.819 390.317C357.424 387.692 362.406 385.729 367.228 383.487C368.321 382.979 369.445 382.542 370.545 382.049C370.705 381.977 370.805 381.772 370.934 381.628C370.745 381.653 370.557 381.694 370.368 381.701C365.164 381.878 360.202 383.23 355.511 385.326C352.25 386.783 349.174 388.72 346.183 390.695C343.282 392.611 341.01 395.267 339.293 398.281C337.333 401.719 336 405.379 338.219 409.208C338.911 410.402 340.09 411.348 341.157 412.282C342.487 413.448 344.207 414.268 345.267 415.623C347.259 418.172 346.77 420.45 344.234 422.631C344.153 422.7 344.206 422.982 344.26 423.144C345.677 427.419 347.009 431.725 348.55 435.954C350.725 441.927 353.221 447.786 355.252 453.805C356.331 457.004 356.798 460.422 357.4 463.766C358.295 468.743 357.906 473.638 355.967 478.341C355.768 478.825 355.202 479.355 354.724 479.451C354.434 479.508 353.702 478.8 353.665 478.391C353.576 477.406 353.764 476.388 353.865 475.385C354.093 473.112 354.503 470.842 354.542 468.565C354.656 461.784 353.192 455.252 350.801 448.959C349.11 444.508 347.074 440.187 345.178 435.814C344.175 433.502 343.066 431.232 342.164 428.882C341.809 427.955 341.819 426.862 341.793 425.842C341.774 425.104 341.789 424.662 340.798 424.729C336.291 425.035 332.246 423.39 328.186 421.717C326.869 421.175 325.363 421.007 323.924 420.863C321.447 420.616 319.838 417.895 321.066 415.775C321.899 414.337 323.245 414.252 324.829 413.905C328.245 413.156 330.734 416.142 333.934 415.502C335.139 415.261 336.337 414.944 337.554 414.816C338.58 414.708 338.427 414.343 337.845 413.906C333.717 410.806 333.277 406.57 334.453 402.053C336.299 394.966 341.144 390.153 347.11 386.338C353.085 382.517 359.644 380.255 366.58 378.795C372.117 377.629 377.667 377.681 383.22 377.864C386.15 377.96 389.343 378.367 390.841 381.573C391.533 383.053 391.99 384.699 392.24 386.319C393.123 392.048 392.487 397.676 390.874 403.225C390.349 405.035 390.023 406.901 389.517 408.831ZM362.754 451.257C363.109 453.896 363.74 456.532 363.765 459.175C363.821 465.289 363.641 471.407 363.444 477.523C363.317 481.458 362.998 485.389 362.75 489.321C362.655 490.815 362.507 492.306 362.4 493.8C362.156 497.197 361.793 500.595 361.73 503.996C361.685 506.472 362.696 507.846 364.958 508.187C368.181 508.671 371.46 508.867 374.721 508.959C375.89 508.995 376.76 508.401 376.686 506.697C376.412 500.406 376.292 494.109 376.294 487.816C376.297 481.106 376.486 474.399 376.635 467.69C376.681 465.603 376.818 463.516 376.988 461.435C377.438 455.939 377.843 450.436 378.429 444.954C378.886 440.68 379.295 436.365 380.246 432.186C381.816 425.294 383.488 418.393 385.703 411.689C388.336 403.714 389.385 395.618 389.027 387.306C388.922 384.88 388.656 382.12 385.629 381.401C383.553 380.908 381.352 380.744 379.215 380.797C378.276 380.821 376.874 380.945 376.597 382.538C376.321 384.123 374.863 384.51 373.597 384.884C369.79 386.01 365.829 386.727 362.164 388.195C358.509 389.659 354.849 391.449 351.715 393.796C347.091 397.257 346.806 402.682 347.562 407.782C348.658 415.168 351.937 421.919 354.923 428.714C356.599 432.524 358.411 436.29 359.806 440.203C361.044 443.678 361.79 447.329 362.754 451.257ZM343.015 420.838C343.098 420.754 343.187 420.675 343.265 420.586C344.446 419.225 344.623 417.867 343.605 416.832C342.464 415.673 341.417 416.081 340.299 417.078C339.726 417.589 338.809 417.74 338.027 417.985C335.403 418.807 332.966 417.736 330.478 417.191C328.317 416.719 326.202 415.642 323.929 416.59C323.546 416.75 323.279 417.187 322.958 417.496C323.304 417.78 323.607 418.205 324.003 418.326C328.005 419.548 331.996 420.816 336.043 421.868C338.347 422.467 340.751 422.702 343.015 420.838ZM343.904 481.141C341.895 481.44 339.879 481.693 337.883 482.059C337.367 482.155 336.916 482.6 336.435 482.885C336.872 483.073 337.298 483.397 337.748 483.433C341.005 483.71 344.177 484.237 346.884 486.264C348.425 487.417 349.849 488.769 351.51 489.705C352.272 490.132 353.477 489.776 354.48 489.772C354.445 488.965 354.695 487.969 354.315 487.385C353.503 486.136 352.305 485.147 351.373 483.966C349.489 481.582 346.96 480.875 343.904 481.141Z" fill="#FFB61D"/>
<path fill-rule="evenodd" clip-rule="evenodd" d="M454.602 371.831C456.24 370.903 457.766 370.012 459.345 369.24C461.052 368.409 462.809 368.861 463.442 370.177C464.103 371.552 463.221 372.91 461.735 372.809C459.153 372.633 458.043 373.604 458.086 376.188C458.146 380.053 458.384 383.916 458.409 387.781C458.445 394.096 456.852 400.083 454.516 405.903C451.708 412.907 447.228 418.86 442.86 424.921C438.848 430.488 434.877 436.133 431.476 442.08C426.998 449.912 424.081 458.426 422.524 467.345C421.814 471.407 421.154 475.492 420.77 479.594C420.341 484.162 419.913 488.773 420.101 493.341C420.333 498.98 421.184 504.594 421.805 510.215C421.952 511.553 422.307 512.869 422.437 514.207C422.47 514.549 422.077 515.168 421.761 515.264C421.216 515.424 420.328 515.516 420.029 515.21C419.397 514.556 418.88 513.673 418.636 512.798C418.333 511.713 418.308 510.539 418.244 509.397C417.988 504.815 417.725 500.229 417.536 495.643C417.366 491.544 417.002 487.424 417.237 483.344C417.581 477.356 417.906 471.34 419.604 465.499C420.625 461.986 420.961 458.244 422.249 454.849C423.566 451.378 425.573 448.15 427.462 444.923C428.978 442.334 430.925 439.992 432.388 437.377C433.484 435.418 433.942 433.105 435.002 431.12C435.999 429.252 437.347 427.556 438.658 425.876C440.447 423.581 442.463 421.456 444.166 419.102C445.891 416.72 447.533 414.241 448.881 411.634C450.362 408.772 451.769 405.802 452.659 402.72C453.801 398.767 454.646 394.686 455.152 390.603C455.617 386.841 455.525 383.003 455.561 379.198C455.585 376.455 453.95 374.945 451.219 374.944C448.589 374.942 446.092 372.331 445.955 369.671C445.75 365.662 447.789 363.036 450.98 361.075C454.628 358.833 458.783 358.068 462.873 357.17C466.092 356.464 469.339 355.874 472.579 355.278C475.179 354.801 477.782 354.376 480.392 353.957C483.451 353.465 486.513 352.969 489.583 352.542C491.727 352.243 493.882 351.987 496.041 351.833C500.089 351.544 504.147 351.084 508.191 351.169C513.924 351.289 519.579 352.19 524.704 355.032C529.647 357.774 532.798 361.702 532.375 367.689C532.219 369.965 531.543 372.265 529.59 373.566C527.414 375.016 526.973 377.183 526.365 379.356C524.917 384.511 523.79 389.777 521.979 394.799C520.948 397.66 519.191 400.455 517.139 402.714C511.125 409.328 504.762 415.623 498.609 422.113C494.562 426.385 490.543 430.698 486.673 435.133C479.71 443.113 473.162 451.45 467.735 460.548C463.122 468.284 459.064 476.36 456.638 485.105C455.408 489.541 454.355 494.038 453.485 498.556C452.525 503.541 452.07 508.596 452.553 513.688C452.562 513.773 452.629 513.855 452.669 513.94C452.447 513.976 452.226 514.043 452.004 514.047C451.418 514.05 450.724 514.214 450.278 513.958C449.886 513.734 449.578 513.029 449.566 512.528C449.499 509.746 449.349 506.942 449.583 504.174C449.839 501.15 450.293 498.115 450.999 495.166C452.194 490.174 453.325 485.122 455.096 480.327C457.026 475.097 459.345 469.949 462.062 465.085C465.394 459.124 469.029 453.285 473.062 447.779C477.323 441.963 482.132 436.539 486.841 431.064C489.885 427.522 493.139 424.15 496.379 420.782C501.494 415.468 506.69 410.231 511.829 404.944C517.679 398.931 521.037 391.625 522.783 383.519C523.245 381.377 523.58 379.201 523.847 377.025C524.088 375.025 523.043 373.46 521.819 372.006C519.244 368.942 515.695 367.606 511.953 367.188C506.323 366.558 500.629 366.022 494.981 366.156C489.234 366.292 483.444 366.804 477.85 368.479C474.784 369.397 471.682 370.206 468.574 370.973C468.037 371.107 467.226 370.974 466.821 370.632C466.166 370.079 465.281 369.339 466.963 368.679C472.077 366.674 477.316 365.223 482.729 364.212C488.91 363.059 495.127 362.939 501.319 363.281C508.688 363.688 515.876 365.368 522.801 368.011C523.978 368.46 525.12 369.039 526.329 369.356C527.207 369.586 528.712 369.855 528.993 369.45C529.597 368.576 530.049 367.148 529.768 366.178C528.047 360.265 523.765 356.995 518.017 355.37C512.96 353.942 507.778 353.737 502.603 354.003C498.047 354.237 493.506 354.866 488.967 355.387C485.304 355.807 481.634 356.206 478.002 356.828C473.158 357.659 468.311 358.527 463.545 359.699C459.818 360.615 456.137 361.827 452.584 363.271C450.282 364.206 448.796 365.961 448.743 368.885C448.68 372.378 451.484 373.003 453.902 372.172C454.11 372.101 454.31 372.004 454.602 371.831Z" fill="#00160A"/>
<path fill-rule="evenodd" clip-rule="evenodd" d="M302.204 452.235C303.952 456.558 305.909 460.704 307.189 465.05C308.509 469.529 309.363 474.172 310.055 478.797C310.601 482.447 310.801 486.183 310.779 489.879C310.747 495.34 309.933 500.744 308.696 506.07C308.47 507.045 307.761 507.55 306.982 507.027C306.483 506.689 306.137 505.704 306.186 505.042C306.606 499.371 307.444 493.714 307.538 488.043C307.628 482.6 306.74 477.206 305.576 471.834C304.103 465.039 301.755 458.605 298.689 452.44C296.093 447.22 292.808 442.405 289.013 437.936C284.941 433.14 280.77 428.393 277.107 423.291C272.785 417.269 269.762 410.495 267.839 403.321C266.758 399.286 265.903 395.157 265.369 391.015C264.836 386.883 264.914 382.675 264.563 378.513C264.338 375.848 263.514 373.421 261.006 371.865C255.767 368.615 257.121 362.591 259.736 359.045C261.969 356.016 265.42 354.762 268.934 354.39C274.137 353.839 279.404 353.568 284.633 353.676C289.305 353.773 293.993 354.35 298.619 355.071C304.079 355.922 309.557 356.868 314.882 358.309C319.465 359.549 323.925 361.358 328.288 363.262C331.688 364.746 334.137 367.467 333.826 371.402C333.676 373.301 332.383 375.171 331.386 376.928C329.524 380.206 328.538 383.723 327.874 387.401C326.952 392.503 326.816 397.635 326.809 402.796C326.805 406.081 326.942 409.324 327.898 412.492C327.942 412.637 327.804 412.837 327.75 413.011C326.33 412.561 324.889 412.53 324.951 410.172C325.028 407.248 324.137 404.311 324.029 401.366C323.767 394.263 325.151 387.348 326.836 380.489C327.192 379.042 326.726 377.811 325.522 377.109C322.909 375.586 320.276 374.053 317.51 372.849C312.992 370.883 308.419 369.009 303.758 367.423C301.085 366.513 298.207 366.168 295.398 365.708C286.619 364.272 278.701 367.21 270.91 370.684C268.759 371.643 267.614 373.387 267.443 375.737C267.3 377.702 266.979 379.687 267.128 381.633C267.455 385.896 267.829 390.173 268.565 394.378C269.231 398.186 270.141 401.995 271.406 405.643C273.874 412.754 277.494 419.276 282.237 425.171C287.661 431.913 293.047 438.688 298.303 445.561C299.832 447.559 300.858 449.941 302.204 452.235ZM263.526 359.823C262.779 360.57 261.968 361.264 261.299 362.076C260.055 363.588 259.961 367.019 261.037 368.66C261.859 369.914 264.356 370.428 266.532 369.596C269.752 368.366 272.912 366.981 276.113 365.698C279.959 364.157 283.877 362.884 288.082 362.85C290.235 362.833 292.394 362.743 294.538 362.878C296.51 363.001 298.506 363.214 300.42 363.681C306.416 365.146 312.118 367.416 317.57 370.316C320.697 371.978 323.964 373.247 327.467 373.887C329.293 374.221 331.349 373.133 331.4 371.415C331.456 369.561 330.739 367.663 329.042 366.817C325.569 365.087 322.006 363.479 318.352 362.181C312.595 360.137 306.69 358.537 300.587 357.879C294.56 357.228 288.53 356.578 282.485 356.137C280.009 355.956 277.493 356.319 274.995 356.444C270.987 356.646 267.101 357.285 263.526 359.823Z" fill="#00160A"/>
<path fill-rule="evenodd" clip-rule="evenodd" d="M396.096 339.989C400.547 339.84 404.909 339.83 409.269 339.696C410.813 339.648 412.41 339.635 413.651 338.32C414.539 337.381 414.613 335.687 413.588 334.895C411.912 333.598 411.299 331.571 412.195 330.288C412.815 329.401 416.148 329.075 417.365 329.778C419.123 330.792 420.081 332.426 420.712 334.26C421.41 336.287 422.001 338.351 422.651 340.395C422.734 340.653 422.897 340.886 423.022 341.13C423.205 340.919 423.436 340.734 423.564 340.494C427.132 333.796 432.657 329.452 439.826 327.223C447.63 324.796 455.001 325.889 462.097 329.974C465.849 332.135 468.826 334.902 470.736 338.731C472.987 343.236 472.593 347.921 471.184 352.57C471.035 353.066 470.281 353.379 469.808 353.777C469.452 352.975 468.67 352.092 468.805 351.387C469.861 345.965 468.2 341.242 465.081 337.007C460.127 330.274 453.018 328.281 445.144 329.122C437.333 329.957 431.356 334.17 426.743 340.493C424.49 343.581 422.954 346.95 421.781 350.542C421.248 352.171 419.725 352.87 418.323 352.571C417.08 352.307 417.323 351.607 417.533 350.862C418.221 348.423 419.31 346.029 419.546 343.551C419.741 341.498 418.95 339.35 418.583 337.246C418.564 337.134 418.43 337.041 418.349 336.94C418.193 337.171 417.994 337.385 417.887 337.638C417.082 339.543 415.78 341.001 413.855 341.752C412.78 342.171 411.6 342.497 410.457 342.532C407.141 342.634 403.819 342.539 400.501 342.573C390.355 342.677 380.209 342.871 370.064 342.875C367.693 342.876 365.251 342.625 363.145 341.159C361.125 339.752 360.198 337.826 360.625 335.507C360.669 335.268 360.784 335.042 360.866 334.809C360.621 334.889 360.358 334.935 360.136 335.055C354.762 337.966 350.876 342.208 348.917 348.034C348.229 350.078 348.026 352.281 347.428 354.361C347.029 355.749 346.705 357.373 345.003 357.848C343.146 358.367 342.088 357.21 341.756 354.686C341.051 349.325 338.84 344.615 335.508 340.377C332.002 335.919 327.734 332.44 322.502 330.263C316.843 327.908 311.05 327.147 305.387 330.155C302.346 331.77 299.845 335.711 300.761 339.985C301.65 344.14 304.026 347.156 306.548 350.248C307.143 350.978 307.865 351.981 307.796 352.798C307.66 354.405 305.563 354.981 304.396 353.651C303.049 352.116 301.832 350.356 301.013 348.494C299.889 345.942 299.101 343.228 298.333 340.537C297.182 336.505 298.824 330.311 303.549 327.876C308.911 325.111 314.24 324.955 319.918 326.521C326.527 328.344 332.009 331.898 336.567 336.882C339.977 340.611 342.502 344.926 343.913 349.834C344.002 350.144 344.227 350.414 344.389 350.703C344.473 350.414 344.536 350.116 344.644 349.837C347.779 341.713 352.858 335.266 360.738 331.264C361.464 330.896 362.277 330.626 363.079 330.493C364.808 330.206 365.94 331.672 365.351 333.378C365.12 334.049 364.786 334.686 364.535 335.351C363.63 337.755 364.109 339.162 366.998 339.719C367.112 339.741 367.234 339.72 367.353 339.722C376.904 339.84 386.456 339.959 396.096 339.989Z" fill="#00160A"/>
<path fill-rule="evenodd" clip-rule="evenodd" d="M384.804 516.185C385.229 516.306 385.473 516.519 385.724 516.527C389.764 516.665 393.804 516.818 397.846 516.85C398.402 516.854 399.189 516.345 399.485 515.847C400.939 513.396 403.213 513.015 405.398 514.879C406.863 516.128 408.366 517.366 409.993 518.384C411.987 519.632 412.435 519.245 412.58 516.925C412.672 515.459 411.384 513.88 412.837 512.545C413.394 512.033 414.119 511.706 414.768 511.293C414.857 511.435 414.982 511.563 415.03 511.72C416.471 516.423 420.598 517.669 424.227 517.957C428.453 518.291 432.193 516.448 436.085 515.26C438.203 514.612 440.37 513.986 442.558 513.755C444.903 513.51 445.643 514.741 444.494 516.722C443.916 517.715 443.668 517.985 445.107 517.992C450.56 518.014 455.201 516.057 459.149 512.396C459.814 511.777 459.853 512.186 460.048 512.652C460.895 514.662 460.728 516.58 459.586 518.444C459.458 518.651 459.611 519.309 459.75 519.348C460.817 519.657 461.905 520.01 463 520.066C465.045 520.17 467.151 519.899 468.943 521.187C469.438 521.539 469.761 522.134 470.163 522.617C469.644 522.728 469.128 522.913 468.606 522.934C464.921 523.073 461.236 523.268 457.552 523.261C455.983 523.258 454.324 522.945 454.03 520.86C453.996 520.618 453.908 520.355 453.965 520.131C454.082 519.672 454.281 519.234 454.446 518.789C453.958 518.964 453.473 519.152 452.98 519.316C449.96 520.326 446.963 521.415 443.905 522.294C442.791 522.61 441.498 522.617 440.347 522.422C438.517 522.105 438.676 520.458 438.934 519.238C439.166 518.138 439.058 517.935 437.971 517.946C433.804 517.978 430.259 519.526 427.047 522.094C426.022 522.913 424.808 523.521 423.624 524.112C422.251 524.798 420.956 524.389 420.155 523.197C419.441 522.137 419.793 521.134 420.766 520.141C421.559 519.33 420.483 518.729 419.872 518.743C419.096 518.757 418.043 519.021 417.608 519.572C415.842 521.81 413.651 521.628 411.253 521.141C408.069 520.493 404.871 519.896 401.66 519.405C397.352 518.743 393.029 518.174 388.706 517.622C387.106 517.42 385.488 517.299 383.876 517.267C376.932 517.117 369.984 516.85 363.043 516.953C357.91 517.028 352.734 517.281 347.678 518.088C344.637 518.572 342.076 517.854 339.479 516.808C338.855 516.559 338.342 515.352 338.278 514.548C338.176 513.275 337.478 513.613 336.877 513.808C332.117 515.331 327.4 517 322.606 518.401C320.063 519.145 319.591 518.928 318.275 516.655C318.135 516.413 317.596 516.132 317.422 516.221C315.42 517.242 313.778 516.21 312.232 515.235C309.993 513.819 307.655 512.958 304.978 512.972C295.754 513.022 286.795 514.605 278.098 517.64C276.66 518.138 275.346 519.01 273.998 519.75C273.108 520.241 272.417 520.18 271.792 519.312C271.177 518.458 270.791 517.551 271.462 516.64C272.546 515.16 274.129 514.374 275.892 514.065C280.213 513.307 284.539 512.57 288.879 511.944C290.763 511.67 292.689 511.681 294.595 511.56C294.998 511.535 295.4 511.499 295.803 511.471C295.609 511.101 295.428 510.724 295.22 510.361C295.025 510.023 294.867 509.628 294.583 509.386C293.313 508.312 293.376 506.483 293.993 505.729C294.551 505.049 296.563 504.992 297.64 505.412C301.769 507.027 305.783 508.934 309.831 510.749C310.758 511.165 310.756 511.193 310.828 510.119C310.958 508.155 313.035 506.931 314.851 508.016C316.643 509.087 318.254 510.493 319.829 511.884C321.695 513.531 323.956 514.018 326.189 513.631C331.154 512.773 336.034 511.382 341.141 511.563C344.313 511.674 347.485 511.784 350.656 511.93C351.083 511.951 351.542 512.097 351.912 512.311C352.255 512.51 352.498 512.876 352.785 513.172C352.394 513.229 352.003 513.289 351.61 513.339C348.676 513.695 345.741 514.05 342.807 514.41C342.587 514.438 342.373 514.506 342.156 514.552C342.403 514.623 342.649 514.748 342.897 514.755C347.471 514.883 352.046 514.972 356.619 515.125C362.804 515.335 368.988 515.594 375.172 515.829C378.324 515.95 381.475 516.068 384.804 516.185Z" fill="#00160A"/>
<path fill-rule="evenodd" clip-rule="evenodd" d="M149.093 281.997C146.318 281.238 143.652 280.47 140.942 279.919C137.004 279.119 133.17 279.541 129.453 281.167C124.764 283.218 121.412 286.588 119.13 291.123C118.816 291.747 118.3 292.452 117.701 292.711C116.446 293.255 114.93 291.729 115.353 290.351C115.655 289.367 116.125 288.386 116.725 287.55C119.27 284.003 122.741 281.505 126.664 279.808C129.272 278.679 132.146 278.119 134.943 277.484C139.586 276.429 143.929 277.836 148.388 279.004C151.064 279.705 154.142 279.663 156.886 279.142C162.142 278.143 167.207 277.832 172.268 279.936C179.246 282.838 186.321 285.513 193.238 288.548C195.455 289.52 197.618 291.036 199.265 292.806C204.706 298.655 211.627 301.347 219.205 302.691C224.76 303.676 230.416 304.139 235.933 305.288C240.391 306.216 244.78 307.621 249.066 309.182C253.226 310.698 257.187 312.752 261.288 314.44C264.755 315.868 265.995 318.579 265.994 322.052C265.994 323.781 265.903 325.53 265.633 327.236C265.088 330.678 261.948 332.399 258.309 331.495C251.532 329.812 244.748 328.145 237.943 326.578C233.822 325.63 230.711 327.106 228.376 331.8C224.219 340.154 217.349 345.705 209.889 350.742C207.352 352.455 204.873 354.323 202.14 355.654C199.695 356.844 196.986 357.829 194.308 358.127C189.292 358.687 184.301 358.169 179.724 355.681C179.073 355.328 178.342 355.035 177.836 354.527C176.956 353.643 176.655 352.334 177.651 351.558C178.759 350.695 180.207 350.863 181.455 351.72C182.882 352.7 184.222 353.902 185.786 354.572C191.589 357.057 197.934 356.462 202.905 352.146C205.968 349.486 209.226 347.134 212.918 345.407C216.661 343.657 219.929 341.319 221.804 337.492C222.767 335.527 223.608 333.495 224.389 331.45C225.859 327.602 229.896 323.826 234.505 323.978C238.926 324.124 243.143 325.144 247.42 325.948C252.075 326.822 256.685 327.961 261.361 328.683C261.936 328.772 263.226 327.096 263.452 326.076C264.541 321.177 261.984 317.729 258.537 315.719C252.812 312.379 246.454 310.728 240.101 309.161C235.502 308.027 230.833 307.155 226.169 306.31C223.87 305.894 221.51 305.597 219.179 305.608C213.466 305.635 208.533 303.746 204.187 300.116C198.969 295.756 193.719 291.433 187.413 288.671C180.256 285.537 172.927 282.849 165.313 281.106C163.301 280.646 161.007 281.047 158.91 281.423C155.675 282.004 152.497 282.885 149.093 281.997Z" fill="#00160A"/>
<path fill-rule="evenodd" clip-rule="evenodd" d="M198.441 451.079C196.07 451.079 193.878 451.074 191.685 451.08C189.804 451.085 188.012 451.039 186.194 450.158C184.819 449.493 183.232 450.102 181.891 451.063C179.409 452.842 178.819 455.609 178.23 458.259C177.7 460.645 177.396 463.161 177.513 465.595C177.862 472.876 179.907 479.65 184.593 485.396C186.217 487.385 188.082 489.182 189.863 491.039C190.11 491.298 190.507 491.412 190.836 491.594C190.801 491.231 190.821 490.854 190.722 490.509C189.646 486.723 191.972 483.244 195.453 483.454C197.46 483.575 199.236 485.087 200.029 486.94C200.506 488.054 200.048 488.723 199.278 489.057C198.987 489.185 198.22 488.356 197.742 487.89C197.385 487.541 197.226 486.912 196.827 486.709C196.389 486.492 195.682 486.439 195.267 486.652C194.888 486.848 194.117 487.171 194.956 488.082C195.876 489.078 195.056 491.313 193.707 492.28C193.402 492.497 193.087 492.7 192.776 492.91C193.18 493.077 193.597 493.223 193.986 493.419C195.701 494.291 197.506 495.034 199.073 496.119C199.721 496.567 200.221 497.795 200.154 498.613C199.879 502.004 199.162 505.366 198.981 508.76C198.745 513.196 196.333 517.259 196.996 521.838C197.575 525.833 198.031 529.854 198.417 533.874C198.661 536.421 198.699 538.99 198.768 541.552C198.776 541.865 198.4 542.192 198.203 542.512C197.964 542.256 197.592 542.032 197.511 541.733C197.18 540.498 196.804 539.25 196.688 537.987C196.376 534.596 196.242 531.184 195.938 527.794C195.515 523.066 194.992 518.344 194.534 513.62C194.378 512.012 194.291 510.4 194.173 508.788C193.935 505.569 193.733 502.342 193.444 499.125C193.335 497.927 192.992 497.226 191.399 496.813C189.625 496.35 187.768 494.934 186.666 493.415C184.065 489.829 181.719 486.029 179.593 482.137C177.404 478.131 176.284 473.752 175.615 469.194C174.847 463.967 175.567 458.985 177.527 454.238C178.976 450.727 182.096 447.241 186.829 447.121C190.96 447.017 194.934 447.775 198.943 448.532C201.495 449.014 204.092 449.255 206.658 449.665C209.372 450.098 212.08 450.577 214.78 451.09C216.318 451.382 216.938 452.526 216.913 453.953C216.873 456.276 216.735 458.6 216.572 460.919C216.097 467.644 215.079 474.282 211.913 480.323C209.882 484.197 207.23 487.677 203.399 490.035C203.014 490.274 202.514 490.324 202.068 490.462C202.272 489.975 202.37 489.392 202.701 489.014C203.561 488.04 204.491 487.115 205.452 486.236C209.631 482.415 211.742 477.477 213.009 472.115C214.15 467.288 214.559 462.374 214.449 457.415C214.433 456.679 214.445 455.941 214.485 455.206C214.592 453.223 212.877 453.135 211.738 452.919C208.352 452.274 204.913 451.906 201.494 451.436C200.537 451.305 199.577 451.197 198.441 451.079Z" fill="#00160A"/>
<path fill-rule="evenodd" clip-rule="evenodd" d="M546.275 471.357C547.971 471.692 549.483 472.08 551.016 472.35C552.566 472.624 553.117 473.634 553.014 475.022C552.705 479.202 552.292 483.379 551.969 487.559C551.577 492.675 550.059 497.446 547.694 501.972C545.613 505.953 542.675 509.151 538.923 511.606C538.717 511.741 538.44 511.766 538.194 511.841C538.251 511.596 538.237 511.29 538.379 511.119C539.226 510.105 540.029 509.034 541 508.152C544.639 504.839 547.128 500.791 548.352 496.08C549.223 492.725 549.742 489.253 550.141 485.802C550.478 482.853 550.379 479.857 550.557 476.886C550.653 475.267 549.774 474.442 548.401 474.232C544.034 473.563 539.663 472.898 535.274 472.464C532.023 472.144 528.737 472.208 525.469 472.058C524.629 472.019 523.747 471.955 522.968 471.671C520.006 470.6 517.68 471.414 516.243 474.186C514.699 477.167 514.162 480.373 513.853 483.706C513.38 488.865 514.209 493.782 516.069 498.524C518.21 503.971 521.414 508.707 526.177 512.261C526.39 512.417 526.66 512.496 526.906 512.613C526.845 512.325 526.802 512.037 526.724 511.756C526.105 509.447 526.486 507.504 528.335 505.772C529.769 504.434 531.547 504.452 532.881 504.939C534.225 505.43 535.288 506.946 536.195 508.212C536.423 508.529 535.569 509.614 535.214 510.347C534.869 510.066 534.303 509.834 534.218 509.489C533.894 508.127 533.083 507.401 531.764 507.718C531.305 507.828 530.644 508.924 530.786 509.294C531.085 510.069 532.237 510.678 531.39 511.62C530.654 512.442 529.644 513.022 528.741 513.687C528.581 513.805 528.35 513.826 528.15 513.89C528.353 513.976 528.559 514.05 528.759 514.143C530.747 515.057 532.827 515.822 534.68 516.957C535.473 517.444 536.227 518.715 536.227 519.625C536.227 521.888 535.875 524.165 535.498 526.406C534.894 529.989 533.756 533.529 533.574 537.122C533.364 541.288 533.937 545.497 534.186 549.685C534.278 551.296 534.446 552.904 534.531 554.52C534.67 557.135 534.73 559.757 534.915 562.372C534.979 563.261 534.634 563.692 533.855 563.606C533.574 563.574 533.176 562.962 533.144 562.585C532.856 559.308 532.699 556.021 532.386 552.748C531.974 548.375 531.444 544.014 530.985 539.645C530.828 538.158 530.732 536.663 530.626 535.169C530.384 531.832 530.185 528.488 529.9 525.151C529.733 523.169 529.463 521.194 529.178 519.227C529.128 518.9 528.801 518.398 528.542 518.355C524.875 517.761 523.029 514.815 520.959 512.314C517.612 508.28 515.251 503.612 513.686 498.635C512.541 494.992 511.886 491.224 511.676 487.335C511.484 483.778 511.762 480.387 512.85 477.046C515.055 470.272 520.447 467.032 527.727 468.479C531.65 469.258 535.644 469.689 539.603 470.294C541.772 470.628 543.931 471.002 546.275 471.357Z" fill="#00160A"/>
<path fill-rule="evenodd" clip-rule="evenodd" d="M301.937 559.945C299.093 559.945 296.426 559.913 293.76 559.952C286.401 560.052 279.043 560.18 271.685 560.301C264.801 560.418 257.917 560.543 251.033 560.657C243.556 560.781 236.079 560.884 228.603 561.016C222.904 561.119 217.205 561.272 211.506 561.365C203.023 561.5 194.538 561.589 186.054 561.731C181.717 561.806 177.37 562.222 173.049 562.023C165.757 561.685 158.438 561.098 151.865 557.43C148.874 555.758 145.957 553.957 144.209 550.745C142.633 547.849 142.808 545.173 146.531 543.939C155.285 541.036 164.041 538.14 172.802 535.258C174.583 534.675 176.408 534.404 178.121 535.425C178.594 535.706 178.87 536.318 179.236 536.777C178.791 537.03 178.375 537.385 177.897 537.517C171.935 539.154 165.965 540.765 159.994 542.37C154.927 543.729 149.867 545.124 144.775 546.387C143.761 546.636 143.935 546.735 144.429 547.386C149.35 553.879 156.112 557.366 163.831 559.212C168.776 560.397 173.797 561.073 178.912 561.041C182.239 561.016 185.569 561.358 188.897 561.343C193.767 561.322 198.636 561.137 203.505 561.012C207.96 560.899 212.414 560.771 216.869 560.66C221.797 560.536 226.726 560.425 231.654 560.301C236.05 560.187 240.445 560.059 244.84 559.949C249.709 559.824 254.579 559.717 259.448 559.586C263.37 559.483 267.29 559.337 271.211 559.237C276.614 559.102 282.017 559.002 287.419 558.878C292.052 558.768 296.684 558.639 301.316 558.522C306.067 558.401 310.818 558.284 315.569 558.166C320.438 558.045 325.307 557.931 330.176 557.81C335.046 557.693 339.915 557.49 344.784 557.483C348.942 557.476 353.103 557.64 357.258 557.828C360.542 557.978 363.818 558.284 367.097 558.529C367.312 558.543 367.521 558.643 367.733 558.7C367.52 558.76 367.308 558.824 367.094 558.878C367.038 558.892 366.976 558.878 366.917 558.878C361.277 558.999 355.638 559.155 349.998 559.226C338.137 559.372 326.275 559.451 314.413 559.6C310.313 559.653 306.214 559.828 301.937 559.945Z" fill="#00160A"/>
<path fill-rule="evenodd" clip-rule="evenodd" d="M423.572 405.184C423.535 398.556 424.745 392.395 427.841 386.677C429.003 384.532 430.318 382.519 432.45 381.173C434.996 379.566 438.564 379.768 440.085 382.598C440.848 384.016 440.434 386.234 440.138 388.022C439.5 391.868 438.56 395.664 437.808 399.493C437.052 403.339 436.319 407.192 435.697 411.062C435.523 412.148 435.367 413.905 435.929 414.288C436.806 414.887 438.344 414.808 439.529 414.599C441.587 414.237 443.588 413.55 445.619 413.023C445.815 412.972 446.056 413.092 446.277 413.132C446.177 413.312 446.073 413.49 445.979 413.673C445.778 414.064 445.56 414.448 445.389 414.852C445.062 415.627 444.905 416.077 443.659 415.995C442.247 415.902 440.799 417.06 439.305 417.31C437.756 417.569 436.09 417.631 434.554 417.348C432.303 416.934 431.085 417.357 431.04 419.048C430.986 421.088 432.214 421.881 434.054 420.812C436.37 419.468 438.584 419.381 440.821 420.853C441.069 421.017 441.379 421.441 441.322 421.655C440.895 423.269 439.507 423.674 437.729 423.52C435.977 423.37 434.17 423.833 432.394 424.084C432.346 424.091 432.327 425.049 432.399 425.064C434.228 425.449 434.19 426.69 433.89 428.107C433.2 431.365 432.81 434.731 430.39 437.333C430.257 437.477 430.216 437.707 430.132 437.896C430.079 437.681 429.972 437.463 429.982 437.251C430.087 434.869 430.154 432.482 430.348 430.107C430.49 428.359 430.809 426.627 431.038 424.886C431.137 424.136 430.74 423.944 430.106 423.496C428.34 422.248 427.939 417.487 429.621 416.15C432.642 413.748 432.634 410.246 433.491 407.074C434.547 403.16 435.348 399.176 436.196 395.208C436.677 392.962 437.256 390.702 437.384 388.426C437.538 385.691 435.56 383.876 433.269 384.637C432.018 385.052 430.716 386.152 430.039 387.299C428.106 390.576 427.212 394.255 426.778 398.029C426.51 400.358 426.085 402.696 426.112 405.026C426.15 408.368 426.533 411.707 426.774 415.047C426.886 416.6 427.029 418.15 427.123 419.703C427.26 421.965 427.368 424.228 427.483 426.492C427.604 428.873 427.868 431.259 427.802 433.636C427.721 436.566 427.651 439.551 427.027 442.391C426.617 444.251 425.232 445.897 424.28 447.636C424.234 447.719 424.144 447.777 424.075 447.847C424.026 447.69 423.923 447.528 423.935 447.375C424.039 446.119 424.206 444.867 424.276 443.609C424.531 438.965 425.048 434.311 424.919 429.677C424.765 424.173 423.976 418.689 423.602 413.187C423.425 410.59 423.572 407.971 423.572 405.184Z" fill="#FFB61D"/>
<path fill-rule="evenodd" clip-rule="evenodd" d="M418.593 569.195C415.638 568.605 412.857 568.028 410.084 567.413C404.495 566.175 398.911 564.915 393.324 563.663C389.364 562.781 385.403 561.898 381.444 561.009C381.272 560.97 381.118 560.852 380.955 560.774C381.117 560.735 381.288 560.643 381.439 560.667C383.714 561.034 385.998 561.354 388.255 561.813C392.564 562.688 396.852 563.667 401.157 564.567C405.253 565.421 409.347 566.292 413.462 567.043C417.172 567.722 420.918 568.203 424.633 568.854C428.378 569.508 432.097 570.316 435.845 570.956C439.072 571.511 442.327 571.903 445.564 572.404C449.234 572.974 452.89 573.628 456.564 574.162C459.488 574.589 462.436 574.845 465.363 575.258C468.376 575.678 471.367 576.243 474.379 576.652C476.702 576.969 479.045 577.104 481.371 577.389C484.974 577.83 488.563 578.36 492.166 578.791C494.666 579.089 497.18 579.314 499.691 579.506C504.699 579.886 509.707 580.231 514.718 580.577C518.353 580.829 521.987 581.178 525.626 581.267C533.813 581.466 542.004 581.63 550.191 581.608C554.597 581.598 559.047 581.487 563.396 580.861C569.588 579.972 575.823 578.983 581.816 577.261C587.716 575.564 593.261 572.757 597.931 568.562C598.805 567.779 599.503 566.769 600.449 566.104C602.703 564.513 601.861 560.262 599.666 558.839C596.832 557.003 593.602 556.516 590.472 555.697C581.634 553.395 572.779 551.175 563.919 548.966C557.521 547.372 551.105 545.849 544.696 544.291C543.298 543.95 541.901 543.612 540.521 543.202C540.147 543.092 539.599 542.758 539.578 542.484C539.546 542.121 539.855 541.598 540.176 541.356C541.748 540.164 543.505 540.182 545.308 540.733C554.252 543.462 563.194 546.212 572.146 548.909C580.528 551.435 588.947 553.84 597.308 556.434C599.115 556.996 601.06 557.825 602.376 559.109C604.759 561.432 604.411 564.965 601.793 567.52C598.396 570.839 594.321 573.187 590.071 575.251C584.828 577.802 579.316 579.548 573.6 580.537C568.966 581.341 564.278 582.014 559.584 582.302C552.289 582.754 544.97 582.985 537.658 583.021C532.365 583.046 527.066 582.661 521.774 582.338C517.588 582.085 513.409 581.719 509.237 581.274C504.436 580.762 499.656 580.075 494.858 579.523C491.276 579.114 487.677 578.869 484.103 578.431C478.818 577.78 473.551 576.99 468.269 576.325C464.929 575.902 461.565 575.663 458.225 575.226C454.254 574.706 450.302 574.03 446.335 573.472C442.685 572.959 439.012 572.593 435.372 572.02C431.498 571.415 427.652 570.633 423.789 569.953C422.123 569.661 420.444 569.448 418.593 569.195Z" fill="#00160A"/>
<path fill-rule="evenodd" clip-rule="evenodd" d="M300.159 275.327C304.01 275.327 307.686 275.238 311.357 275.347C317.012 275.515 322.597 276.231 327.944 278.2C328.81 278.519 329.576 279.158 330.325 279.733C330.997 280.25 331.089 280.961 330.607 281.685C330.075 282.485 329.47 282.592 328.571 282.106C324.493 279.901 320.121 278.693 315.48 278.533C311.441 278.394 307.402 278.298 303.363 278.171C299.916 278.062 296.447 278.139 293.03 277.758C289.825 277.401 286.685 276.494 283.497 275.936C281.156 275.526 278.886 274.548 276.38 275.269C275.461 275.533 275.618 275.596 276.15 276.032C278.407 277.885 280.942 279.311 283.777 279.912C288.924 281.001 294.136 281.778 299.294 282.82C303.471 283.664 307.587 284.828 311.029 287.477C311.822 288.087 312.485 289.368 312.499 290.35C312.513 291.366 311.566 292.263 310.228 292.113C310.07 292.095 309.842 292.088 309.773 291.988C306.837 287.796 302.379 286.278 297.704 285.329C294.329 284.644 290.856 284.457 287.465 283.836C283.141 283.044 278.918 281.981 275.439 278.945C273.524 277.274 272.257 275.382 271.567 272.937C271.151 271.464 271.599 270.474 272.612 269.66C273.527 268.924 274.372 269.281 275.406 269.875C279.252 272.086 283.332 273.787 287.803 274.247C291.857 274.663 295.922 274.971 300.159 275.327Z" fill="#FFB61D"/>
<path fill-rule="evenodd" clip-rule="evenodd" d="M260.77 489.413C257.251 485.702 255.217 481.412 254.238 476.516C253.582 473.233 253.415 470.006 254.299 466.791C255.262 463.288 257.453 459.952 262.156 460.382C266.416 460.772 270.637 461.601 274.872 462.26C275.692 462.388 276.497 462.618 277.303 462.822C279.859 463.469 280.188 463.824 280.236 466.331C280.393 474.62 277.896 481.878 271.863 487.755C271.452 488.154 271.105 488.62 270.728 489.057C270.962 488.289 270.963 487.282 271.468 486.795C274.586 483.792 276.581 480.159 277.837 476.075C278.948 472.461 279.186 468.775 278.432 465.078C278.111 463.507 276.442 463.729 275.386 463.593C270.624 462.977 265.835 462.569 261.053 462.113C258.247 461.845 256.378 463.187 255.711 466.026C253.73 474.449 255.697 481.8 261.831 487.958C262.206 488.335 262.776 488.517 263.255 488.791C263.346 488.314 263.514 487.837 263.514 487.357C263.516 483.849 262.48 480.658 260.505 477.765C259.325 476.036 259.684 473.571 261.51 472.549C263.171 471.621 264.965 470.795 266.803 470.344C269.735 469.621 273.093 473.791 271.951 476.883C271.276 478.708 269.867 480.263 268.773 481.928C268.661 482.098 268.445 482.202 268.278 482.337C268.235 482.116 268.087 481.846 268.168 481.689C268.546 480.953 268.872 480.142 269.425 479.551C271.264 477.587 271.157 474.229 269.111 472.496C267.554 471.18 264.097 471.518 262.815 473.112C261.222 475.09 261.508 478.228 263.435 479.608C263.688 479.789 264.06 479.804 264.377 479.896C264.331 479.629 264.176 479.316 264.259 479.096C264.469 478.534 264.66 477.822 265.098 477.534C265.466 477.288 266.474 477.356 266.659 477.637C266.973 478.117 267.065 478.939 266.884 479.501C266.6 480.373 266.007 481.149 265.549 481.967C265.072 482.817 265.129 483.237 266.261 483.578C268.908 484.379 269.285 485.051 268.901 487.222C268.874 487.378 268.99 487.556 269.039 487.723C268.879 487.681 268.66 487.691 268.572 487.588C268.436 487.428 268.442 487.14 268.298 487.001C267.673 486.393 267.015 485.82 266.369 485.233C266.226 485.909 266.086 486.588 265.937 487.264C265.926 487.314 265.843 487.343 265.817 487.392C265.418 488.164 265.023 488.94 264.627 489.716C265.398 490 266.197 490.228 266.934 490.58C268.659 491.413 269.365 494.017 268.832 496.504C268.256 499.193 267.658 501.915 267.495 504.647C267.269 508.447 267.404 512.272 267.455 516.082C267.476 517.694 267.684 519.305 267.784 520.917C267.795 521.105 267.662 521.305 267.595 521.5C267.511 521.298 267.418 521.102 267.346 520.896C267.018 519.963 266.521 519.049 266.408 518.092C266.17 516.082 266.124 514.047 266.018 512.023C265.774 507.38 265.67 502.723 265.252 498.098C265.034 495.685 265.189 492.996 262.716 491.324C262.009 490.847 261.473 490.118 260.77 489.413Z" fill="#FFB61D"/>
<path fill-rule="evenodd" clip-rule="evenodd" d="M481.811 484.61C484.756 486.204 485.443 489.2 483.803 492.345C483.394 493.127 482.54 493.689 481.861 494.319C481.744 494.429 481.466 494.365 481.264 494.383C481.296 494.18 481.26 493.921 481.374 493.785C481.758 493.337 482.188 492.932 482.612 492.515C483.906 491.238 483.981 487.784 482.58 486.492C480.947 484.991 478.276 484.503 476.324 486.41C474.926 487.78 474.385 490.349 476.324 492.003C476.558 492.202 476.644 492.572 476.864 492.804C476.999 492.946 477.255 492.974 477.458 493.056C477.49 492.853 477.497 492.643 477.554 492.448C477.736 491.832 477.824 491.131 478.194 490.655C478.319 490.491 479.428 490.737 479.638 491.078C479.916 491.53 479.93 492.313 479.745 492.846C479.496 493.561 478.859 494.134 478.554 494.839C478.18 495.696 478.287 496.386 479.446 496.653C480.118 496.806 480.883 497.176 481.285 497.695C481.68 498.201 481.666 499.022 481.833 499.709C481.338 499.407 480.709 499.207 480.371 498.781C479.574 497.777 479.436 498.347 479.201 499.122C479.012 499.748 478.699 500.335 478.465 500.947C478.155 501.762 476.864 502.787 479.229 502.74C481.178 502.705 482.391 505.793 481.854 508.262C481.278 510.891 480.819 513.559 480.51 516.235C480.236 518.597 480.051 521.002 480.172 523.372C480.296 525.905 480.851 528.417 481.153 530.943C481.207 531.405 480.94 531.903 480.819 532.383C480.588 532.06 480.229 531.764 480.143 531.401C479.848 530.153 479.542 528.886 479.432 527.609C479.233 525.353 479.201 523.083 479.048 520.824C478.71 515.932 478.404 511.033 477.92 506.156C477.842 505.402 476.942 504.669 476.309 504.035C474.154 501.886 471.853 499.827 470.686 496.934C469.58 494.191 468.396 491.43 467.749 488.563C467.091 485.652 467.251 482.636 468.368 479.74C470.22 474.929 473.162 473.997 477.928 474.698C481.032 475.157 484.109 475.79 487.2 476.338C488.583 476.584 489.97 476.79 491.346 477.075C491.549 477.117 491.752 477.47 491.848 477.719C493.146 481.191 492.449 484.631 491.688 488.079C490.532 493.295 487.566 497.443 484.034 501.275C483.963 501.349 483.935 501.467 483.888 501.566C483.817 501.438 483.76 501.303 483.675 501.189C483.035 500.342 483.287 499.631 484.08 499.115C488.316 496.372 489.792 492.128 490.422 487.446C490.735 485.122 490.987 482.789 491.122 480.448C491.236 478.416 490.514 477.932 488.483 477.729C484.76 477.367 481.054 476.808 477.337 476.342C476.203 476.2 475.065 476.015 473.93 476.004C471.878 475.983 470.228 477.591 469.491 479.868C468.104 484.172 468.528 488.474 469.986 492.736C471.167 496.191 473.461 498.788 476.018 501.232C476.146 501.353 476.27 501.47 476.395 501.588C476.452 501.435 476.533 501.282 476.558 501.122C476.804 499.681 477.095 498.243 477.234 496.792C477.266 496.447 476.829 495.995 476.508 495.696C474.922 494.216 474.012 492.32 473.763 490.26C473.201 485.645 477.711 483.155 481.811 484.61Z" fill="#FFB61D"/>
<path fill-rule="evenodd" clip-rule="evenodd" d="M333.501 428.043C334.775 433.266 336.043 438.384 337.112 443.543C337.662 446.198 337.877 448.924 338.208 451.622C338.7 455.628 339.163 459.638 339.632 463.646C339.66 463.88 339.626 464.12 339.637 464.356C339.753 466.972 339.938 469.586 339.963 472.204C339.974 473.442 339.677 474.68 339.523 475.919C339.39 476.989 338.518 477.448 337.724 477.334C336.957 477.228 336.349 476.673 336.385 475.499C336.513 471.357 336.618 467.199 336.386 463.066C336.121 458.336 335.64 453.604 334.967 448.914C334.349 444.608 333.559 440.303 332.462 436.097C331.441 432.181 329.913 428.398 328.614 424.554C328.521 424.279 328.48 423.987 328.414 423.703C328.693 423.732 328.979 423.731 329.249 423.796C331.479 424.333 333.316 425.274 333.501 428.043Z" fill="#00160A"/>
<path fill-rule="evenodd" clip-rule="evenodd" d="M536.583 500.798C535.743 501.207 534.996 501.527 534.249 501.847C534.538 501.036 534.726 500.172 535.135 499.428C535.989 497.877 537.016 496.418 537.866 494.864C538.965 492.853 538.411 490.797 537.714 488.83C537.048 486.948 534.029 485.66 531.842 486.361C529.078 487.243 526.461 488.239 524.27 490.47C522.904 491.857 523.69 492.811 524.074 493.7C524.86 495.515 526.027 497.165 527.083 498.855C527.303 499.211 527.705 499.457 528.025 499.752C528.178 499.282 528.367 498.82 528.474 498.339C528.516 498.144 528.399 497.905 528.321 497.699C527.922 496.632 527.883 495.554 528.972 494.956C529.605 494.607 530.753 494.312 531.169 494.636C531.899 495.205 532.525 496.219 532.695 497.137C532.962 498.574 532.439 499.848 531.041 500.716C530.544 501.022 530.394 501.854 529.999 502.381C529.459 503.103 528.836 504.32 528.257 504.313C527.4 504.306 526.137 503.616 525.767 502.861C524.056 499.371 522.42 495.821 521.165 492.153C520.845 491.213 521.691 489.399 522.566 488.616C525.557 485.948 529.281 484.546 533.175 483.863C535.914 483.383 539.52 486.78 540.235 490.025C541.174 494.312 539.328 497.639 536.583 500.798Z" fill="#E7EAEE"/>
<path fill-rule="evenodd" clip-rule="evenodd" d="M199.152 463.175C203.55 465.197 205.899 469.952 203.48 474.947C202.543 476.882 201 478.54 199.627 480.237C199.392 480.529 198.622 480.387 198.099 480.444C198.257 479.921 198.273 479.277 198.597 478.896C200.235 476.957 201.64 474.958 202.251 472.396C203.031 469.127 200.525 465.106 197.204 465.023C195.771 464.986 194.272 465.581 192.888 466.112C191.718 466.561 190.641 467.284 189.575 467.967C186.714 469.799 187.095 470.603 188.285 473.069C189.157 474.872 190.303 476.548 191.402 478.231C191.543 478.448 192.137 478.366 192.521 478.423C192.548 478.213 192.604 478 192.599 477.793C192.566 476.63 192.324 475.427 192.529 474.31C192.764 473.022 193.827 472.948 194.925 473.353C197.197 474.196 197.242 476.616 195.751 478.789C194.954 479.953 193.579 480.718 193.71 482.45C193.718 482.564 192.132 483.052 191.391 482.891C190.705 482.742 189.91 482.073 189.591 481.422C188.075 478.327 186.685 475.171 185.289 472.015C184.492 470.215 184.904 468.664 186.49 467.487C189.887 464.966 193.437 462.791 197.878 462.834C198.244 462.838 198.609 463.056 199.152 463.175Z" fill="#FFB61D"/>
<path fill-rule="evenodd" clip-rule="evenodd" d="M246.099 528.993C250.871 527.989 255.168 526.189 259.355 524.097C259.452 524.051 259.57 524.008 259.674 524.019C260.244 524.062 260.813 524.126 261.382 524.179C261.019 524.549 260.702 524.987 260.285 525.278C256.044 528.253 251.299 530.056 246.207 530.725C241.822 531.305 237.388 531.533 232.97 531.825C228.452 532.124 223.917 532.198 219.408 532.593C216.681 532.835 214 533.55 211.283 533.949C210.179 534.112 208.901 533.995 208.485 532.753C208.068 531.515 208.539 530.185 209.8 529.765C211.276 529.274 212.895 529.146 214.464 529.028C215.349 528.961 216.256 529.299 217.158 529.338C223.042 529.598 228.927 530.003 234.812 529.996C238.515 529.989 242.218 529.348 246.099 528.993Z" fill="#00160A"/>
<path fill-rule="evenodd" clip-rule="evenodd" d="M517.466 537.532C519.219 538.161 520.794 538.788 522.37 539.421C522.64 539.528 522.893 539.677 523.156 539.805C522.825 540.115 522.459 540.723 522.178 540.684C520.578 540.47 518.945 540.253 517.416 539.762C512.718 538.247 508.098 536.486 503.371 535.059C500.607 534.223 497.691 533.913 494.871 533.241C493.064 532.807 490.777 533.245 489.82 530.996C489.557 530.377 489.447 529.224 489.792 528.922C490.325 528.459 491.407 528.207 492.093 528.41C495.191 529.335 498.257 530.395 501.29 531.512C506.639 533.479 511.956 535.522 517.466 537.532Z" fill="#E7EAEE"/>
<path fill-rule="evenodd" clip-rule="evenodd" d="M335.013 495.55C335.013 493.892 334.992 492.409 335.018 490.929C335.05 489.018 337.032 487.638 338.63 488.58C339.203 488.918 339.766 490.192 339.566 490.779C337.573 496.592 338.386 502.587 338.199 508.518C338.188 508.884 338.077 509.425 337.828 509.575C337.324 509.873 336.698 510.009 336.107 510.08C336.026 510.09 335.764 509.347 335.738 508.938C335.589 506.622 335.491 504.298 335.367 501.979C335.255 499.894 335.131 497.813 335.013 495.55Z" fill="#00160A"/>
<path fill-rule="evenodd" clip-rule="evenodd" d="M368.889 559.075C369.62 559.035 370.263 559.17 370.906 559.298C370.204 559.278 369.501 559.264 368.889 559.075Z" fill="#00160A"/>
<path fill-rule="evenodd" clip-rule="evenodd" d="M372.357 404.117C370.845 406.148 369.159 407.235 366.522 406.656C362.469 405.766 361.207 400.468 363.493 397.519C366.28 393.923 370.947 394.252 373.954 396.578C376.354 398.434 378.364 400.571 379.421 403.369C380.424 406.026 379.823 408.706 378.589 411.222C377.765 412.902 376.856 414.344 377.899 416.522C378.486 417.747 377.68 419.72 377.252 421.287C377.16 421.627 375.896 421.959 375.362 421.766C374.925 421.608 374.464 420.62 374.543 420.078C374.921 417.491 374.252 416.842 371.69 417.262C367.106 418.012 363.247 416.828 360.538 412.787C360.29 412.418 359.736 412.254 359.325 411.995C359.164 412.461 358.807 412.966 358.889 413.385C359.009 414.007 359.441 414.568 359.74 415.155C360.879 417.389 361.178 419.636 359.497 420.729C358.455 421.406 355.936 420.917 355.307 419.704C353.337 415.903 352.488 411.977 354.587 407.926C355.348 406.457 358.951 405.207 360.665 406.151C361.835 406.795 362.92 407.605 363.999 408.4C365.549 409.541 366.974 410.88 368.611 411.872C370.503 413.019 373.077 412.152 374.145 410.294C374.426 409.807 374.749 409.275 375.192 408.963C377.571 407.286 378.073 405.932 376.745 403.393C375.377 400.78 373.732 398.372 370.585 397.516C368.286 396.891 365.842 397.733 364.89 399.668C364.112 401.249 364.644 403.239 366.059 404.042C367.647 404.944 369.142 404.383 370.245 402.592C370.594 402.024 371.525 401.134 371.636 401.209C372.593 401.859 373.284 402.729 372.357 404.117ZM362.577 412.3C362.903 412.626 363.22 412.962 363.557 413.277C364.993 414.621 366.463 415.876 368.667 415.198C368.805 415.155 368.992 415.271 369.156 415.313C369.06 415.139 369.007 414.901 368.86 414.801C367.954 414.178 366.97 413.657 366.119 412.971C364.424 411.603 362.858 410.072 361.127 408.756C359.591 407.589 357.517 407.81 356.572 409.081C356.351 409.378 356.31 409.807 356.186 410.176C356.561 410.172 356.936 410.159 357.311 410.167C358.381 410.188 359.53 409.988 360.497 410.319C361.248 410.575 361.773 411.496 362.577 412.3Z" fill="#FFB61D"/>
<path fill-rule="evenodd" clip-rule="evenodd" d="M368.534 434.625C370.745 433.456 371.873 433.964 371.961 436.527C372.197 443.348 372.308 450.177 372.305 457.003C372.304 458.574 371.583 460.134 371.31 461.72C371.093 462.978 371.051 464.266 370.937 465.542C370.921 465.718 370.929 465.898 370.935 466.075C371.053 469.7 371.188 473.325 371.272 476.95C371.284 477.491 371.212 478.174 370.894 478.548C370.497 479.01 369.805 479.22 369.239 479.54C369.093 479.06 368.839 478.583 368.821 478.096C368.765 476.62 368.833 475.132 368.794 473.652C368.695 469.849 368.704 466.036 368.415 462.246C367.815 454.352 366.616 446.557 363.822 439.089C363.42 438.011 362.898 436.951 362.693 435.835C362.576 435.198 362.823 434.336 363.221 433.817C363.48 433.479 364.504 433.303 364.833 433.541C365.361 433.923 365.757 434.667 365.927 435.331C366.589 437.912 367.156 440.518 367.729 443.122C368.34 445.895 368.919 448.675 369.512 451.452C369.558 451.669 369.603 451.888 369.649 452.106C369.722 451.926 369.849 451.749 369.859 451.566C370.126 446.804 369.929 442.092 368.578 437.465C368.333 436.624 368.595 435.634 368.534 434.625Z" fill="#FFB61D"/>
<path fill-rule="evenodd" clip-rule="evenodd" d="M357.419 427.954C357.437 425.309 358.664 424.043 361.051 424.041C365.317 424.038 369.585 423.977 373.848 424.079C375.12 424.109 376.53 424.345 377.604 424.961C378.608 425.537 378.835 428.829 377.989 429.527C376.837 430.479 375.477 430.873 373.794 430.716C370.447 430.405 367.061 430.481 363.692 430.481C363.261 430.48 362.773 430.914 362.408 431.252C360.928 432.62 358.577 432.081 357.794 430.11C357.551 429.498 357.537 428.794 357.419 427.954ZM373.246 427.954C373.822 427.287 373.765 426.988 372.835 426.908C369.455 426.616 366.067 426.395 362.68 426.197C362.276 426.174 361.714 426.343 361.478 426.63C361.217 426.948 361.194 427.503 361.188 427.957C361.186 428.072 361.654 428.307 361.893 428.289C362.851 428.22 363.804 427.97 364.758 427.976C366.492 427.988 368.225 428.164 369.96 428.214C370.994 428.243 372.032 428.163 373.246 427.954Z" fill="#FFB61D"/>
<path fill-rule="evenodd" clip-rule="evenodd" d="M363.465 493.415C363.583 492.814 363.776 492.394 363.807 491.964C363.929 490.32 365.073 489.281 366.483 489.961C367.059 490.235 367.413 491.676 367.311 492.519C367.097 494.287 367.576 495.091 369.377 495.205C370.052 495.244 370.747 495.301 371.382 495.507C371.734 495.621 372.113 496.02 372.226 496.372C372.307 496.621 372.05 497.158 371.794 497.304C370.1 498.261 365.628 497.443 364.375 495.87C363.888 495.258 363.758 494.362 363.465 493.415Z" fill="#FFB61D"/>
<path fill-rule="evenodd" clip-rule="evenodd" d="M501.974 267.448C499.78 268.331 497.297 269.011 494.619 269.526C485.554 271.267 474.276 271.322 465.63 271.183C462.845 271.139 460.345 271.08 458.289 271.071C456.272 271.063 454.729 271.062 453.84 271.285C449.643 272.298 446.83 273.52 444.948 274.737C441.651 276.867 441.491 278.736 441.491 278.736C441.523 279.421 440.993 280.005 440.307 280.038C439.624 280.07 439.041 279.541 439.009 278.856C439.009 278.856 438.621 275.767 443.28 272.324C445.283 270.842 448.32 269.278 452.908 267.877C453.971 267.563 455.831 267.375 458.268 267.334C460.352 267.3 462.891 267.36 465.712 267.444C474.162 267.692 485.201 268.217 494.079 266.619C500.544 265.455 505.858 263.305 507.704 259.091C508.028 258.357 508.867 258.003 509.617 258.284C510.368 258.566 510.77 259.385 510.528 260.151C510.528 260.151 508.657 266.687 502.291 271.899C500.569 273.308 498.524 274.629 496.088 275.663C494.047 276.53 491.728 277.176 489.124 277.566C480.005 278.771 473.205 279.141 468.866 281.149C466.394 282.295 464.819 284.015 464.211 286.928C464.083 287.631 463.407 288.097 462.703 287.967C461.998 287.837 461.533 287.16 461.664 286.457C462.297 282.522 464.303 280.119 467.547 278.447C471.989 276.155 479.07 275.412 488.552 273.784C490.817 273.435 492.82 272.831 494.609 272.105C496.721 271.248 498.531 270.212 500.061 269.06C500.754 268.537 501.391 267.996 501.974 267.448Z" fill="#FFB61D"/>
<path fill-rule="evenodd" clip-rule="evenodd" d="M223.592 298.38C223.592 298.38 216.762 291.746 214.723 280.918C214.273 278.53 214.069 275.941 214.179 273.154C214.317 269.636 214.947 265.8 216.481 261.691C218.935 254.998 223.137 249.414 228.443 245.325C232.089 242.514 236.251 240.412 240.678 239.1C251.183 235.988 263.204 237.363 273.715 244.515C273.687 244.495 278.899 248.25 282.833 255.82C284.78 259.559 286.339 264.242 286.902 269.792C287.009 270.618 287.767 271.204 288.6 271.1C289.433 270.996 290.024 270.242 289.917 269.416C289.024 263.536 287.037 258.676 284.851 254.75C280.422 246.791 274.979 242.752 274.979 242.752C274.968 242.746 274.958 242.739 274.947 242.732C263.855 235.151 251.161 233.727 240.041 236.958C235.337 238.325 230.921 240.535 227.003 243.453C221.249 247.74 216.579 253.573 213.776 260.676C212.058 265.106 211.225 269.248 211.134 273.059C211.061 276.098 211.447 278.92 212.092 281.489C212.836 284.452 213.941 287.075 215.159 289.338C218.584 295.7 222.885 299.171 222.885 299.171C223.104 299.364 223.441 299.345 223.637 299.127C223.832 298.909 223.812 298.574 223.592 298.38Z" fill="#00160A"/>
</svg>
