<svg width="606" height="486" viewBox="0 0 606 486" fill="none" xmlns="http://www.w3.org/2000/svg">
<path fill-rule="evenodd" clip-rule="evenodd" d="M349.089 485.784C421.518 485.784 485.079 431.907 449.383 358.729C413.687 285.551 546.319 287.914 585.28 237.338C632.794 175.659 619.034 -86.1615 314.013 73.4569C265.153 99.0259 139.668 47.1524 98.0438 72.8911C49.0483 103.188 -19.8856 165.227 49.0483 228.776C83.0038 260.079 -38.7346 341.328 14.5844 414.106C66.6104 485.119 103.08 417.423 182.288 431.907C261.497 446.392 295.297 485.784 349.089 485.784Z"/>
<path d="M265.022 358.475C265.022 358.475 281.699 350.63 287.925 345.173C294.151 339.715 301.891 326.155 301.891 326.155C301.891 326.155 386.914 387.559 442.352 378.8C455.125 376.782 480.014 368.291 481.601 353.332C485.935 312.483 425.971 302.044 439.07 281.329C447.065 268.685 471.902 287.504 471.902 287.504L574.92 338.176C574.92 338.176 539.33 425.905 452.962 429.421C346.718 433.746 265.022 358.475 265.022 358.475Z" fill="white"/>
<path fill-rule="evenodd" clip-rule="evenodd" d="M183.345 14.9051C182.378 14.5255 177.186 8.16742 170.593 7.01021C167.598 6.48435 170.317 10.2988 167.02 10.3331C157.201 10.4353 141.244 8.59061 138.288 10.3331C136.091 11.624 140.929 16.1339 138.288 16.3409C113.366 18.2944 75.3466 43.1777 67.0978 55.2498C64.4727 59.0917 85.7041 52.5734 82.3213 54.4728C78.5246 56.6045 74.3137 70.563 71.796 81.3438C70.0531 88.7676 68.9556 98.3218 68.5683 108.715C68.2455 117.688 68.3746 119.173 69.6657 124.079C71.1505 129.566 72.3125 131.18 74.3137 130.406C75.0238 130.147 75.3466 129.179 75.3466 127.372C75.3466 125.951 76.1212 121.691 77.0896 117.882L78.768 111.039L79.4781 113.88C80.3819 117.172 85.6754 127.372 90.4525 134.795C90.7101 135.189 91.8186 134.688 92.8182 132.272C93.7291 130.07 93.3594 126.553 94.9068 122.784C98.4315 114.197 105.352 103.032 113.366 94.0957C125.21 80.888 129.139 65.6028 140.242 53.3328C160.961 30.4347 186.965 16.3261 183.345 14.9051Z" fill="white"/>
<path fill-rule="evenodd" clip-rule="evenodd" d="M82.6157 57.5884C79.2921 60.261 74.3586 81.9392 74.274 82.3016C72.531 89.7254 70.8508 115.506 72.5682 120.387C74.2856 125.268 79.0946 107.673 79.0946 107.673C79.0946 107.673 86.3633 126.547 92.7859 131.722C93.0602 131.943 85.1518 108.371 82.6157 94.6094C79.2681 76.4438 84.5073 56.0673 82.6157 57.5884Z" fill="#E7EAEE"/>
<path fill-rule="evenodd" clip-rule="evenodd" d="M206.496 437.251C212.693 435.896 223.15 431.175 227.154 429.561C231.157 427.946 243.357 410.719 247.747 391.288C250.91 376.957 252.524 356.558 250.716 353.136C250.449 352.651 249.473 343.374 252.072 346.403C257.85 353.136 264.709 363.706 286.35 344.766C292.244 339.607 300.057 332.949 298 327.064C292.244 310.596 267.295 277.435 263.492 274.924C258.944 271.92 235.959 274.472 201.752 264.376C162.958 252.926 146.805 219.209 131.624 223.598C119.347 227.148 89.9319 248.96 82.5497 262.773C47.6984 327.984 89.9319 373.679 99.55 386.803L108.889 390.836L109.211 399.164L109.663 404.393C110.503 414.399 110.825 415.303 115.344 418.66C126.641 427.245 148.913 435.25 169.054 438.091C178.415 439.382 198.749 438.93 206.496 437.251Z" fill="white"/>
<path fill-rule="evenodd" clip-rule="evenodd" d="M112.562 396.116L113.013 401.344C113.853 411.351 114.175 412.254 118.694 415.611C125.359 420.676 135.843 425.539 147.455 429.259C155.527 431.844 164.145 433.877 172.404 435.042C181.765 436.333 202.1 435.881 209.846 434.203C213.675 433.373 182.179 408.629 163.624 415.611C149.375 420.973 115.791 380.074 129.446 369.389C144.764 357.402 116.695 310.126 115.791 299.862C114.887 289.598 111.328 287.146 111.224 287.506C111.12 287.866 111.12 289.094 111.4 292.053C112.604 304.806 112.562 396.116 112.562 396.116Z" fill="#E7EAEE"/>
<path fill-rule="evenodd" clip-rule="evenodd" d="M109.199 296.932C110.554 296.668 111.867 297.553 112.13 298.908C117.002 323.939 137.611 340.885 174.463 349.746C211.533 358.66 236.784 358.179 250.088 348.665C251.211 347.861 250.374 354.74 249.552 355.267C240.874 360.832 211.371 369.135 176.163 361.63C131.146 352.035 110.01 314.183 107.222 299.864C106.959 298.508 107.843 297.196 109.199 296.932Z" fill="#FFB61D"/>
<path fill-rule="evenodd" clip-rule="evenodd" d="M90.4262 251.77C91.6246 251.085 136.336 302.328 197.696 313.927C259.056 325.526 273.912 318.149 276.3 302.328C276.506 300.963 277.78 300.023 279.145 300.229C280.51 300.435 281.45 301.709 281.244 303.074C278.217 323.126 249.825 327.895 196.855 318.856C144.55 309.93 108.69 288.724 89.4979 255.182C88.8122 253.984 89.2278 252.456 90.4262 251.77Z" fill="#FFB61D"/>
<path fill-rule="evenodd" clip-rule="evenodd" d="M347.963 248.929C346.284 248.348 344.477 247.057 343.315 245.572L341.378 243.183L348.221 236.405C358.744 226.076 366.813 215.489 373.785 202.901C376.109 198.705 381.983 184.696 381.983 183.341C381.983 182.889 382.694 181.081 383.533 179.209C384.824 176.498 385.792 175.465 388.568 173.916C391.86 171.979 395.605 171.334 397.218 172.431C400.317 174.497 400.317 181.017 397.218 192.249C393.797 204.579 389.214 213.424 379.724 226.141C378.239 228.078 375.463 231.886 373.462 234.533C368.104 241.634 364.618 245.056 359.906 247.702C355.258 250.285 352.546 250.607 347.963 248.929ZM394.313 243.119L398.961 245.185C399.925 245.629 410.558 250.738 423.329 256.875C443.92 266.769 470.071 279.334 470.23 279.334C470.489 279.334 471.7 276.533 471.973 273.266C472.619 266.23 475.007 256.675 477.783 250.026C479.074 247.057 480.107 243.345 480.107 243.023C480.107 242.875 479.058 242.452 477.34 241.759C475.294 240.934 472.302 239.727 469.004 238.148C452.736 230.337 420.91 214.392 416.972 212.003C413.099 209.744 412.324 209.55 412.324 211.035C412.324 212.972 408.386 221.945 405.352 226.786C403.739 229.433 400.575 234.21 398.316 237.373L394.313 243.119ZM469.133 267.714C470.984 268.787 467.777 270.361 467.003 270.619C462.441 271.007 457.071 270.149 452.671 267.585C450.371 265.954 432.256 255.89 420.24 249.215C414.747 246.163 410.528 243.819 409.678 243.313C406.966 241.699 404.384 239.956 403.932 239.439C402.577 237.696 403.868 236.922 407.676 237.244C409.966 237.438 465.134 265.397 469.133 267.714ZM206.716 436.72C211.696 435.63 219.426 432.368 224.348 430.291C225.552 429.783 226.587 429.346 227.374 429.029C231.378 427.414 243.577 410.188 247.967 390.756C251.13 376.425 252.744 356.026 250.937 352.604C249.847 350.623 256.321 357.27 261.143 362.221C262.605 363.721 263.915 365.066 264.816 365.967C292.962 393.92 334.858 416.385 378.368 426.907C400.059 432.201 415.488 434.073 436.21 434.073C471.005 434.073 498.441 427.23 523.359 412.189C524.543 411.474 525.652 410.818 526.709 410.192C535.395 405.049 540.57 401.985 554.733 386.044C570.619 368.162 584.751 326.653 589.464 312.322C591.529 305.866 596.565 280.19 596.565 273.783C596.565 266.197 593.918 262.615 590.303 258.935C583.912 252.673 575.261 250.414 568.096 253.125L564.739 254.416L563.706 250.995C562.221 245.83 559.123 241.699 554.346 238.6C547.245 233.888 546.212 233.565 539.821 233.565C534.85 233.565 533.494 233.823 530.331 235.308L526.651 236.986L525.877 234.662C524.392 229.885 519.412 223.226 515.548 221.299C512.121 219.591 506.189 219.434 502.056 220.202C493.018 221.88 486.563 226.076 483.916 231.951C483.141 233.758 482.173 235.179 481.786 235.179C481.463 235.179 468.746 231.627 453.575 224.913C451.016 223.777 448.612 222.711 446.355 221.711C419.113 209.636 413.208 207.019 413.745 203.74C414.196 200.964 414.067 199.415 413.293 197.027C411.937 193.024 410.388 191.927 405.998 191.927C402.512 191.927 402.512 191.927 402.899 190.184C404.965 180.307 404.901 174.626 402.706 171.011C401.221 168.622 399.478 167.654 395.475 167.073C393.151 166.75 392.054 166.944 389.472 168.364C387.729 169.268 386.244 169.913 386.115 169.784C385.986 169.655 386.438 166.105 387.148 161.909C392.441 130.858 388.352 104.104 374.86 75.6997C374.731 75.428 374.581 75.1066 374.41 74.7387C370.308 65.9328 353.815 30.5239 306.648 12.6571C304.513 11.8484 302.493 11.0665 300.551 10.3151L300.551 10.3149C284.484 4.09578 273.803 -0.0386214 248.032 0.00428281C219.146 0.0523716 209.363 4.13581 190.319 12.8508C187.673 14.0773 185.349 14.7874 185.155 14.5292C184.961 14.2064 183.735 13.4317 182.508 12.7862C181.282 12.1406 178.635 10.5268 176.698 9.23567C171.146 5.49147 167.725 3.94215 165.982 4.32948C163.981 4.84592 163.981 6.52435 165.982 7.29901C166.821 7.62179 167.79 8.71922 168.177 9.81666C169.016 12.1406 169.984 12.3989 170.565 10.4622C170.824 9.75211 171.211 9.23567 171.405 9.36478C171.478 9.4015 171.724 9.51656 172.099 9.69213L172.099 9.6922C173.043 10.1339 174.804 10.9586 176.698 11.8824C179.345 13.1735 182.25 14.5292 183.025 14.852C184.445 15.3684 183.993 15.7557 177.86 19.3708C153.91 33.4438 134.415 55.328 123.505 80.2463C121.826 83.9905 120.342 86.3145 118.792 87.6056C114.854 90.8979 107.108 100.258 105.3 103.938C104.332 105.939 102.266 109.038 100.652 110.845C99.1029 112.653 97.4244 114.977 96.8434 115.945C96.327 116.978 95.8106 117.688 95.6169 117.559C95.4878 117.366 95.6815 114.202 96.1333 110.523C97.1017 101.937 97.1017 99.6774 96.327 99.4837C95.165 99.1609 93.4866 103.68 92.7765 109.296C92.26 112.718 92.1309 117.882 92.4537 123.175L92.841 131.568L88.2576 124.144C86.6816 121.661 85.1295 119.179 84.0272 117.416L84.0268 117.415L84.0265 117.415L84.0258 117.414L84.0236 117.41L84.0225 117.409L84.0219 117.408L84.0215 117.407L84.0209 117.406L84.0191 117.403C83.3196 116.284 82.8023 115.457 82.5768 115.106C80.8983 112.653 79.93 108.973 80.6401 107.747C81.0274 107.037 80.9629 106.714 80.3173 106.714C78.9617 106.714 76.3149 111.039 74.5719 116.01C73.7327 118.334 72.8935 120.27 72.6353 120.27C71.6669 120.27 72.1188 97.1598 73.1517 89.7359C75.282 75.0819 80.8983 57.0065 83.416 57.0065C83.9324 57.0065 84.3843 56.7482 84.3843 56.3609C84.3843 55.1989 82.7059 55.6508 81.3502 57.1356C78.3161 60.4279 74.3137 70.563 71.7961 81.3437C70.0531 88.7676 68.9556 98.3217 68.5683 108.715C68.2455 117.688 68.3746 119.173 69.6657 124.079C71.1505 129.566 72.3125 131.18 74.3137 130.406C75.0238 130.147 75.3466 129.179 75.3466 127.372C75.3466 125.951 76.1213 121.691 77.0896 117.882L78.768 111.039L79.4781 113.88C80.3819 117.172 85.6754 127.372 90.4525 134.795C93.7448 139.831 93.8094 140.153 94.9068 148.029C95.4878 152.483 97.2953 163.318 101.491 179.984C105.199 194.71 126.041 209.317 131.246 212.965L131.246 212.965L131.249 212.967C131.933 213.446 132.346 213.736 132.413 213.811C133.059 214.521 133.963 214.908 134.479 214.715C135.06 214.521 135.383 214.779 135.383 215.489C135.383 216.135 135.835 216.974 136.351 217.361C136.997 217.813 137.449 219.556 137.578 222.59C137.901 228.659 142.419 240.278 145.905 244.087C148.165 246.54 152.877 247.573 158.106 246.669C161.528 246.153 162.496 245.766 162.173 244.991C161.98 244.475 163.206 245.12 164.885 246.411C184.509 261.388 204.392 270.361 226.728 274.234C235.379 275.719 249.71 276.558 257.521 275.977C264.429 275.526 264.429 275.526 264.106 276.881C263.654 278.689 264.235 279.786 273.724 295.86C281.277 308.578 281.923 309.417 290.315 318.003C308.132 336.401 327.563 350.668 349.577 361.707C370.299 372.035 403.383 380.621 433.628 383.333C463.872 386.044 485.594 358.285 485.53 351.184C485.401 341.436 484.045 335.045 480.753 328.848C477.525 322.844 475.395 320.779 465.711 314.323C454.931 307.158 448.282 301.283 443.892 295.021C441.116 291.083 440.083 286.629 440.083 284.24C440.083 282.691 442.084 279.205 445.054 278.495C447.765 277.785 448.282 277.85 451.316 279.334C453.123 280.174 457.836 282.368 461.709 284.24C465.647 286.048 469.456 287.856 470.23 288.243C472.514 288.877 473.48 293.348 474.003 295.771C474.12 296.312 474.215 296.751 474.297 297.022C475.201 300.379 479.478 304.714 482.238 306.189C487.083 308.781 499.023 309.127 502.315 305.577C503.155 304.673 505.937 303.562 506.51 303.898C507.084 304.235 509.157 307.028 509.157 309.288C509.222 313.161 511.223 316.712 515.483 320.262C523.553 326.976 529.815 328.59 536.141 325.62C539.433 324.071 542.132 323.466 542.132 323.466C542.132 323.466 544.823 326.9 544.985 328.073C546.253 337.245 559.832 341.09 563.448 341.478C564.276 341.561 565.889 341.206 567.526 340.846C569.716 340.365 571.951 339.873 572.421 340.403C573.343 341.444 556.992 368.485 554.733 371.906C533.236 404.184 491.404 423.938 440.212 426.004C406.966 427.359 366.103 418.063 330.662 401.15C308.003 390.24 287.927 376.877 266.43 358.156C262.686 354.928 258.36 351.249 256.811 349.958C255.262 348.731 251.582 344.535 248.742 340.662C243.965 334.206 241.253 331.882 241.253 334.077C241.253 335.045 244.352 340.984 247.902 346.859C249.323 349.183 250.226 350.797 249.904 350.539C249.581 350.28 248.548 354.928 247.58 360.867C244.416 379.911 239.187 398.697 233.894 410.381C230.989 416.708 225.419 421.432 223.74 422.723C217.543 427.436 208.266 429.554 195.419 430.845C179.151 432.459 155.201 428.844 136.932 422.001C132.091 420.194 119.631 414.965 118.792 414.384C118.742 414.333 118.456 412.476 118.057 409.884C117.944 409.153 117.823 408.364 117.695 407.541C115.371 391.596 112.143 330.204 112.143 301.799C112.143 290.05 112.014 287.468 111.239 287.468C109.625 287.468 108.98 289.018 108.27 294.569C106.656 307.222 106.979 373.262 108.722 387.141L109.109 390.305L106.914 389.078C103.557 387.141 90.7753 374.166 86.321 368.162C82.55 363.03 80.3088 356.456 78.632 351.538C78.242 350.394 77.8825 349.34 77.5415 348.414C68.181 322.463 71.4733 293.343 84.3843 267.133C95.3587 244.797 108.851 232.403 128.605 226.399C131.832 225.431 134.673 224.398 134.996 224.14C136.222 222.978 128.346 223.559 124.021 224.914C109.948 229.24 95.2296 241.053 85.2235 256.159C71.1505 277.333 64.8241 308.578 69.2784 335.239C70.3113 341.565 74.5074 355.251 75.6694 356.219C75.7722 356.322 76.3032 357.436 77.1062 359.121C79.3265 363.779 83.6267 372.8 86.7083 376.877C90.4525 381.977 101.75 393.08 106.462 396.502L109.432 398.632L109.884 403.861C110.723 413.867 111.046 414.771 115.564 418.128C126.862 426.714 149.133 434.718 169.274 437.559C178.635 438.85 198.97 438.398 206.716 436.72ZM424.913 376.102C387.406 372.81 342.088 354.927 309.294 327.298C295.48 315.613 277.533 292.891 270.432 280.303C268.947 277.72 267.85 276.494 266.559 276.171C265.203 275.784 266.365 275.396 271.917 274.493C295.35 270.49 318.138 260.742 336.537 246.863L339.248 244.862L340.023 246.734C341.766 250.93 348.479 255.191 353.45 255.191C355.451 255.191 362.165 252.157 366.232 249.381L369.008 247.509L371.267 249.768C373.333 251.834 373.72 251.963 377.594 251.963C382.048 251.963 387.406 249.962 390.376 247.121L391.989 245.637L396.573 248.671C399.026 250.414 405.869 254.222 411.743 257.256C420.523 261.775 429.819 267.004 438.663 272.427L440.083 273.331L438.727 275.138C437.307 277.075 434.662 280.755 434.662 286.371C434.662 292.697 441.24 304.064 453.833 311.87C463.727 318.003 480.753 330.066 480.107 347.698C480.029 349.828 477.654 355.122 474.491 359.899C472.425 362.933 466.68 367.452 461.451 370.099C452.542 374.553 436.855 377.135 424.913 376.102ZM80.7047 86.3145C82.4477 86.7018 83.6096 87.2828 83.3514 87.541C82.5122 88.3802 78.0579 87.9929 77.025 86.96C75.4111 85.4107 75.7985 84.3133 78.0579 83.8614C79.2199 83.6677 80.9629 82.6994 81.9312 81.7311C82.8995 80.7627 83.7388 80.3109 83.7388 80.6336C83.7388 81.4729 80.511 84.4424 78.8971 85.0879C77.8642 85.5398 78.187 85.7335 80.7047 86.3145ZM106.398 87.3474C108.27 86.3145 107.882 85.6044 105.687 85.9272C103.493 86.2499 103.364 85.9917 104.784 83.7968C105.365 82.9576 105.687 81.7311 105.558 81.0855C105.365 80.2463 104.913 80.6336 103.88 82.6994C103.105 84.1842 102.008 85.4107 101.491 85.4107C99.8775 85.4107 99.7484 86.7018 101.298 87.2828C103.299 88.122 104.848 88.122 106.398 87.3474ZM84.0615 52.1003C82.5122 52.3585 77.6706 54.2951 73.4099 56.4255C69.0847 58.4912 65.4051 60.2342 65.1469 60.1697C58.5623 59.4596 67.7291 48.4852 84.3843 37.2526C100.329 26.4719 111.11 20.791 121.116 17.8861C127.378 16.0785 134.415 15.8203 136.416 17.3051C137.513 18.1443 137.126 18.2088 132.349 18.2734C122.02 18.2734 110.077 23.5669 90.6462 36.5425C80.5756 43.2562 68.8911 52.8749 68.8911 54.4243C68.8911 54.747 70.7632 54.1015 73.0872 53.0686C78.0579 50.8092 83.1578 49.6472 85.4172 50.1636C87.8057 50.8092 87.2893 51.6484 84.0615 52.1003ZM109.044 57.652C115.113 56.4255 115.371 56.3609 115.371 55.7154C115.371 55.3926 113.047 55.0698 110.142 54.9407L104.913 54.747L109.754 49.2598C112.401 46.2258 115.5 43.1917 116.597 42.4816C118.986 40.9322 119.115 39.8348 117.178 39.1892L115.694 38.7374L117.307 38.1564C118.211 37.8336 119.89 37.7045 121.052 37.8981C122.795 38.1564 123.182 38.0273 122.988 37.1235C122.795 36.2197 122.085 36.026 118.921 36.0906C109.69 36.2197 105.752 38.6728 112.982 39.8348C114.983 40.1576 116.662 40.674 116.662 40.9968C116.662 41.255 116.339 41.5132 115.952 41.5132C114.725 41.5132 104.332 52.0357 103.041 54.6179C101.04 58.4267 102.137 59.0077 109.044 57.652ZM151.651 32.6046C149.779 32.7337 149.327 33.0565 149.456 33.9603L149.476 34.0918C149.548 34.5693 149.59 34.8436 149.483 34.9269C149.338 35.0394 148.923 34.8037 147.947 34.25L147.777 34.1539C146.551 33.5084 146.422 33.1856 147.132 32.6692C147.584 32.2818 148.81 31.7008 149.779 31.5072L151.586 31.0553L150.231 29.6351C149.52 28.7959 149.133 28.0212 149.327 27.763C149.843 27.2465 156.17 27.9567 157.073 28.6668C157.461 28.9895 158.042 28.925 158.429 28.5376C159.333 27.6339 160.559 28.344 160.559 29.7642C160.559 30.5389 160.366 30.6034 159.785 30.0224C159.268 29.506 158.816 29.506 158.235 29.9579C157.719 30.4097 157.332 30.4097 157.009 29.8933C156.815 29.5705 155.589 29.2478 154.298 29.2478C153.106 29.2478 152.543 29.2478 152.428 29.4747C152.325 29.6783 152.583 30.0645 153.071 30.7971C154.101 32.406 154.04 32.4109 151.673 32.6028L151.651 32.6046ZM141.838 15.433C141.838 14.5937 141.064 13.109 140.095 12.1406L138.288 10.3331L147.971 10.7204C153.329 10.9787 159.397 11.5597 161.528 12.1406C163.658 12.6571 166.111 13.0444 167.015 13.0444C168.371 13.0444 168.112 12.7862 165.595 11.4305C161.205 9.17111 155.589 8.07367 144.808 7.29901C131.897 6.39524 125.377 7.62179 126.603 10.8495C126.797 11.4951 127.83 11.8179 129.379 11.8179C132.542 11.8179 137.707 13.69 139.45 15.433C141.322 17.3051 141.838 17.3051 141.838 15.433ZM110.335 186.375C115.564 193.089 122.472 200.706 125.7 203.288C127.636 204.838 129.315 206.129 129.444 206.129C129.508 206.129 128.088 203.159 126.281 199.544C118.986 185.019 114.725 170.559 112.724 153.904C112.272 150.224 111.562 147.125 110.787 145.834C109.238 143.252 109.238 139.895 110.852 136.732C111.691 135.054 112.143 132.923 112.143 130.599V127.049L109.044 130.277C106.01 133.44 103.105 134.731 103.105 132.794C103.105 131.374 107.882 124.531 110.4 122.401C112.401 120.722 112.659 120.141 113.305 115.106C113.757 112.072 114.79 106.714 115.629 103.163C116.533 99.6128 117.049 96.5788 116.92 96.4496C116.468 95.9977 101.298 113.421 99.232 118.979C98.7784 120.2 97.5536 122.336 96.5852 123.627L94.9068 125.782C94.9068 125.782 95.4282 128.8 96.0042 132.593C96.5862 136.424 96.8593 139.058 97.1026 141.404C97.4279 144.543 97.6999 147.165 98.5864 151.451C99.6193 156.744 100.652 161.328 100.91 161.65C101.104 162.038 101.943 165.007 102.783 168.299C104.59 175.594 107.624 182.824 110.335 186.375ZM372.3 247.444L370.945 246.088C370.945 246.088 393.445 217.501 397.477 206.968C400.553 198.93 402.364 196.65 404.807 196.65C406.174 196.65 407.289 196.962 407.805 197.737C408.709 199.092 409.58 200.771 408.418 206.516C406.482 215.812 403.512 221.945 394.603 235.179C392.538 238.213 389.891 241.57 388.729 242.732C386.018 245.249 379.918 247.831 376.367 248.412C374.108 248.735 373.462 248.606 372.3 247.444Z" fill="#00160A"/>
<path d="M551.053 310.596C559.085 288.713 557.869 284.051 556.476 283.595C556.476 283.595 553.409 285.338 552.053 289.018C549.536 295.925 540.918 314 537.691 317.228C533.882 321.037 533.882 321.037 530.008 321.037C526.135 321.037 514.964 315.204 513.443 309.454C511.01 300.255 521.487 268.295 521.745 266.488L520.002 265.261C518.84 266.359 503.726 312.193 483.852 300.25C481.576 298.883 476.75 292.439 476.363 289.018C474.212 279.076 484.082 244.313 485.76 237.173C487.263 230.782 495.084 224.85 504.703 224.85C519.486 224.85 517.5 237.772 524.122 242.326C527.056 244.343 531.879 240.685 533.365 240.408C541.693 238.858 544.884 240.662 550.989 245.507C555.701 249.247 559.188 256.65 563.026 259.258C565.158 260.706 567.42 258.726 568.161 258.354C571.198 256.829 577.715 257.967 579.522 259.258C582.172 260.413 588.666 266.655 589.691 270.285C594.341 286.739 579.66 323.217 574.117 330.06C564.943 341.387 543.022 332.478 551.053 310.596Z" fill="white"/>
<path fill-rule="evenodd" clip-rule="evenodd" d="M179.926 250.637C197.614 261.805 215.853 269.099 236.639 271.101C253.036 272.65 275.145 270.52 291.025 265.355C304.388 261.03 322.464 249.048 334.535 238.913C357.969 219.288 372.752 188.634 379.208 156.099C380.111 151.515 381.49 139.994 381.425 128.568C381.425 115.269 375.573 78.9286 357.84 57.9748C321.266 14.7575 261.146 -4.71066 210.62 11.9236C192.394 17.9241 172.988 28.7959 158.334 42.998C139.871 61.0089 126.25 85.5398 120.827 110.587C115.147 137.055 122.536 168.687 135.383 194.638C145.647 215.296 162.561 239.598 179.926 250.637ZM352.288 172.625C340.152 209.098 308.52 236.341 268.754 244.604C262.686 245.83 258.489 246.282 249.968 246.411C243.965 246.605 237.961 246.54 236.734 246.411C208.911 243.054 187.737 232.79 168.241 213.294C159.72 204.709 156.105 200.061 150.812 190.894C142.484 176.369 138.03 161.521 136.674 143.639C132.026 82.3766 175.859 31.3135 237.574 26.02C261.782 23.9542 288.637 31.3781 309.036 45.8384C316.589 51.1965 330.275 64.7531 334.535 71.0795C336.278 73.5971 353.192 98.3217 356.161 112.524C359.97 130.987 358.485 154.097 352.288 172.625Z" fill="white"/>
<path fill-rule="evenodd" clip-rule="evenodd" d="M381.448 128.568C381.448 171.898 360.952 219.269 334.5 239.5C321.88 249.152 305.387 260.84 291.025 265.355C269.978 271.972 236.639 271.101 236.639 271.101C236.639 271.101 270.651 266.554 283.255 261.481C319.399 246.936 339.129 224.608 351.312 203.184C375.361 160.895 381.448 127.515 381.448 128.568Z" fill="#E7EAEE"/>
<path fill-rule="evenodd" clip-rule="evenodd" d="M237.38 238.665C220.144 236.47 203.037 230.337 189.222 221.235C181.023 215.877 168.629 203.288 162.625 194.315C154.039 181.404 148.358 167.589 145.583 152.742C143.581 141.961 143.646 125.37 145.647 115.752C147.713 105.939 150.36 98.4509 155.072 88.9612C160.559 77.9869 166.369 69.9175 175.084 61.2025C189.932 46.3549 207.168 36.9298 227.697 32.411C234.346 30.9907 258.425 29.8288 259.264 30.9262C259.458 31.249 260.749 32.0882 262.105 32.7983C263.46 33.5729 267.075 36.2843 270.045 38.931C274.499 42.8043 276.5 45.2574 280.374 51.3256C283.02 55.4571 285.151 59.2013 285.151 59.5241C285.151 60.2342 287.216 61.5253 288.378 61.5253C289.992 61.5253 291.09 56.6837 291.413 48.1624C291.606 43.4499 291.994 39.5766 292.252 39.5766C293.156 39.5766 303.097 45.0638 307.745 48.1624C316.847 54.2306 325.95 62.7519 332.663 71.6605C335.697 75.6629 336.149 76.6958 336.149 79.1489C336.149 81.4083 336.795 83.1513 338.796 86.6373C343.831 95.4168 347.769 106.456 350.158 118.657C351.707 126.855 351.707 142.348 350.093 150.934C345.703 174.561 332.663 198.059 315.685 212.972C301.29 225.56 285.99 233.307 267.915 237.115C261.717 238.471 243.125 239.375 237.38 238.665ZM191.223 194.509C191.804 193.863 192.191 192.895 191.998 192.443C191.94 192.307 191.131 191.927 189.948 191.371C187.19 190.075 182.395 187.82 180.317 185.471C172.054 176.046 169.02 169.01 167.148 154.485C165.34 140.347 166.859 130.79 170.117 115.429C171.707 107.936 175.932 101.746 178.56 97.8953C180.348 95.277 181.397 93.7399 180.378 93.6092C177.86 93.2219 177.473 93.4156 174.826 95.9332C169.145 101.356 166.563 105.681 163.852 114.009C159.656 127.049 158.845 162.29 167.148 178.176C175.45 194.063 189.738 196.187 191.223 194.509ZM283.02 140.283C281.924 150.311 277.275 164.814 271.852 171.14C269.335 174.109 260.093 179.209 252.292 178.176C244.757 177.179 238.865 173.658 233.829 166.105C229.504 159.585 227.27 151.67 225.76 141.703C223.152 124.491 234.54 104.454 239.446 99.4837C244.416 94.3839 247.967 92.5763 252.486 92.5118C256.876 92.5118 259.716 93.4801 264.17 96.6433C272.304 102.324 285.151 120.795 283.02 140.283ZM196 86.8955C197.291 85.4107 197.485 84.7006 197.098 81.9247C196.839 79.3425 196.323 78.3097 194.967 77.2122C192.579 75.2756 189.609 75.2756 187.414 77.3413C185.865 78.8261 185.671 79.3425 185.865 82.8931C186.059 86.7018 186.188 86.96 188.318 88.122C191.158 89.6714 193.934 89.2195 196 86.8955ZM236.283 47.065C224.663 55.3926 219.627 58.814 214.398 62.0418C210.267 64.624 208.976 64.6885 208.976 62.3645C208.976 61.138 209.879 59.7823 212.203 57.652L215.431 54.6825L209.169 53.8433C202.133 52.9395 195.29 51.0028 193.805 49.5181C191.352 47.0004 193.482 46.4194 200.454 47.7105C203.553 48.227 209.557 48.8725 213.817 49.0016L221.564 49.3244L227.18 45.2574C239.51 36.3488 252.292 31.3135 258.425 32.8628C262.234 33.7666 261.782 34.7995 257.457 35.3159C252.486 35.8969 249.452 37.5754 236.283 47.065Z" fill="white"/>
<path d="M252.873 169.332C252.873 169.01 253.26 168.687 253.777 168.687C254.293 168.687 254.939 169.01 255.133 169.332C255.326 169.72 254.939 169.978 254.229 169.978C253.454 169.978 252.873 169.72 252.873 169.332Z" fill="white"/>
<path d="M256.746 168.751C256.746 168.041 258.36 167.396 260.168 167.396C261.588 167.46 261.588 167.46 260.362 168.364C258.941 169.461 256.746 169.655 256.746 168.751Z" fill="white"/>
<path d="M246.74 167.073C246.547 166.557 246.289 165.653 246.095 165.136C245.901 164.491 246.224 164.168 247.063 164.168C247.773 164.168 248.354 164.555 248.354 165.072C248.354 165.588 248.548 166.427 248.742 167.008C249 167.719 248.806 168.041 248.096 168.041C247.515 168.041 246.87 167.589 246.74 167.073Z" fill="white"/>
<path d="M250.162 165.459C249.839 163.522 250.549 162.877 252.873 162.877C253.583 162.877 254.164 163.522 254.422 164.62C254.939 166.492 254.1 167.396 251.84 167.396C250.807 167.396 250.355 166.944 250.162 165.459Z" fill="white"/>
<path d="M243.577 165.782C242.351 164.814 242.351 164.814 243.706 164.814C244.546 164.814 245.127 165.201 245.127 165.782C245.127 166.944 245.127 166.944 243.577 165.782Z" fill="white"/>
<path d="M256.553 165.717C255.714 164.878 256.101 162.36 257.134 161.973C259.006 161.263 259.845 161.586 260.232 163.264C260.491 164.233 260.62 165.072 260.491 165.136C259.974 165.717 256.94 166.105 256.553 165.717Z" fill="white"/>
<path d="M262.298 164.362C262.105 164.168 261.911 163.329 261.911 162.554C261.911 161.457 262.427 161.005 263.977 160.682C265.332 160.424 266.172 160.553 266.559 161.069C267.204 162.102 267.204 163.393 266.623 163.716C265.461 164.362 262.75 164.749 262.298 164.362Z" fill="white"/>
<path d="M240.608 162.36C240.608 161.586 241.189 160.94 242.028 160.747C243.706 160.295 243.642 160.23 243.965 161.909C244.094 162.877 243.771 163.264 242.415 163.393C240.995 163.587 240.608 163.329 240.608 162.36Z" fill="white"/>
<path d="M245.514 162.425C244.61 161.457 245.191 159.649 246.418 159.649C247.257 159.649 247.709 160.101 247.709 160.876C247.709 162.102 246.224 163.135 245.514 162.425Z" fill="white"/>
<path d="M249.387 160.488C248.871 159.262 249.968 158.358 252.098 158.358C253.067 158.358 253.519 158.745 253.519 159.585C253.519 160.295 252.938 160.94 252.098 161.198C249.968 161.715 249.839 161.715 249.387 160.488Z" fill="white"/>
<path d="M268.044 160.295C268.237 159.972 268.56 159.649 268.754 159.649C268.947 159.649 268.883 159.972 268.689 160.295C268.496 160.682 268.173 160.94 267.979 160.94C267.785 160.94 267.85 160.682 268.044 160.295Z" fill="white"/>
<path d="M255.197 159.197C254.681 157.906 255.326 157.261 257.392 156.938C258.554 156.809 259.07 157.067 259.2 157.971C259.651 160.101 255.972 161.263 255.197 159.197Z" fill="white"/>
<path d="M239.704 158.1C239.123 155.969 239.252 155.776 240.931 155.776C241.834 155.776 242.544 156.034 242.544 156.357C242.544 156.68 242.738 157.39 242.932 157.906C243.125 158.552 242.738 158.939 241.641 159.133C240.414 159.391 239.962 159.133 239.704 158.1Z" fill="white"/>
<path d="M261.265 157.39C261.265 156.228 261.717 155.711 262.944 155.388C264.751 154.937 265.784 155.84 265.784 157.906C265.784 158.745 265.268 159.004 263.525 159.004C261.524 159.004 261.265 158.81 261.265 157.39Z" fill="white"/>
<path d="M237.767 157.39C237.574 156.873 237.703 156.421 238.025 156.421C238.413 156.421 238.671 156.873 238.671 157.39C238.671 157.906 238.542 158.358 238.413 158.358C238.284 158.358 238.025 157.906 237.767 157.39Z" fill="white"/>
<path d="M244.287 157.906C243.384 157.067 243.9 155.259 245.062 154.937C245.772 154.743 246.482 154.807 246.676 155.001C247.451 155.711 246.999 157.583 246.03 157.971C244.804 158.423 244.804 158.423 244.287 157.906Z" fill="white"/>
<path d="M267.334 157.454C266.623 155.582 267.398 154.162 269.206 153.968C270.561 153.775 270.949 154.033 270.949 155.066C270.949 157.196 270.239 158.358 268.947 158.358C268.237 158.358 267.527 157.971 267.334 157.454Z" fill="white"/>
<path d="M248.806 156.615C248.031 155.905 248.29 154.614 249.387 154.226C250.614 153.775 253.196 155.066 252.486 155.776C251.582 156.55 249.258 157.131 248.806 156.615Z" fill="white"/>
<path d="M254.422 155.001C253.841 154.097 255.907 152.548 257.586 152.548C258.36 152.548 258.683 152.935 258.554 153.645C258.296 154.937 255.003 155.969 254.422 155.001Z" fill="white"/>
<path d="M236.734 154.549C236.734 154.226 236.541 153.516 236.347 152.935C236.153 152.354 236.218 151.902 236.605 151.902C237.445 151.902 238.09 154.356 237.315 154.872C236.993 155.066 236.734 154.937 236.734 154.549Z" fill="white"/>
<path d="M238.477 153.064C238.09 151.644 238.865 150.611 240.35 150.611C241.189 150.611 242.028 153.129 241.512 153.968C240.801 155.066 238.8 154.42 238.477 153.064Z" fill="white"/>
<path d="M242.996 153.387C242.028 152.419 242.609 150.095 243.9 149.772C244.868 149.514 245.385 149.837 245.901 150.999C246.289 151.838 246.482 152.677 246.353 152.806C245.708 153.387 243.384 153.839 242.996 153.387Z" fill="white"/>
<path d="M260.426 153.387C259.587 152.548 259.974 152.032 261.911 151.322C263.525 150.805 263.977 150.87 264.299 151.644C264.88 153.194 261.653 154.678 260.426 153.387Z" fill="white"/>
<path d="M266.107 151.903C265.462 150.87 266.365 149.966 268.044 149.966C270.045 149.966 270.626 151.644 268.818 152.161C266.882 152.677 266.559 152.613 266.107 151.903Z" fill="white"/>
<path d="M271.594 150.353C271.594 149.385 272.756 148.352 273.273 148.868C273.725 149.32 272.821 151.257 272.175 151.257C271.852 151.257 271.594 150.87 271.594 150.353Z" fill="white"/>
<path d="M235.895 149.514C235.637 149.32 235.443 148.481 235.508 147.771C235.508 146.544 235.572 146.544 236.153 147.965C236.799 149.514 236.67 150.289 235.895 149.514Z" fill="white"/>
<path d="M237.122 148.546C236.541 146.286 236.605 146.093 238.284 146.093C240.156 146.093 241.318 148.481 239.898 149.385C238.413 150.289 237.574 150.03 237.122 148.546Z" fill="white"/>
<path d="M259.329 149.837C259.329 149.643 259.652 148.61 260.039 147.448C260.943 144.866 262.944 144.737 263.396 147.255C263.589 148.223 263.654 149.062 263.589 149.127C263.267 149.514 259.329 150.095 259.329 149.837Z" fill="white"/>
<path d="M241.705 148.223C241.447 148.029 241.253 147.255 241.253 146.544C241.253 145.512 241.447 145.447 242.222 146.093C242.738 146.544 243.19 147.319 243.19 147.771C243.19 148.739 242.415 148.998 241.705 148.223Z" fill="white"/>
<path d="M264.945 146.932C264.558 144.931 265.397 144.027 267.398 144.285C268.366 144.414 268.689 144.995 268.689 146.415C268.689 148.029 268.431 148.417 267.011 148.546C265.591 148.739 265.268 148.417 264.945 146.932Z" fill="white"/>
<path d="M271.271 147.19C270.432 144.608 270.69 143.833 272.433 143.639C273.983 143.446 274.176 143.639 274.176 145.318C274.176 146.738 273.789 147.319 272.821 147.577C272.111 147.771 271.401 147.577 271.271 147.19Z" fill="white"/>
<path d="M234.927 143.51C234.927 142.284 235.056 141.767 235.25 142.413C235.379 142.994 235.379 144.027 235.25 144.672C235.056 145.253 234.927 144.737 234.927 143.51Z" fill="white"/>
<path d="M236.541 144.35C235.702 143.575 236.089 141.057 237.122 140.67C238.607 140.089 239.317 140.799 239.317 142.929C239.317 144.285 238.994 144.801 238.155 144.801C237.509 144.801 236.734 144.608 236.541 144.35Z" fill="white"/>
<path d="M240.414 142.607C240.156 141.638 240.027 140.605 240.285 140.412C240.93 139.766 241.318 140.799 241.124 142.671L240.93 144.479L240.414 142.607Z" fill="white"/>
<path d="M261.265 142.155C261.265 141.445 261.588 141.057 261.911 141.251C262.298 141.445 262.556 142.09 262.556 142.607C262.556 143.123 262.298 143.51 261.911 143.51C261.588 143.51 261.265 142.929 261.265 142.155Z" fill="white"/>
<path d="M264.17 142.994C263.267 142.026 263.977 140.283 265.461 139.895C267.334 139.443 267.398 139.443 267.979 141.315C268.366 142.477 268.108 142.736 266.43 142.994C265.397 143.188 264.364 143.123 264.17 142.994Z" fill="white"/>
<path d="M270.109 141.767C269.399 141.122 269.593 138.991 270.303 138.991C270.69 138.991 270.949 138.733 270.949 138.346C270.949 138.023 270.561 137.7 270.045 137.7C268.947 137.7 268.044 134.537 268.947 133.633C270.109 132.471 271.4 133.698 272.175 136.861C272.627 138.54 273.079 140.476 273.273 141.122C273.531 141.961 273.273 142.219 272.046 142.219C271.207 142.219 270.303 142.026 270.109 141.767Z" fill="white"/>
<path d="M273.595 138.346C273.144 136.409 271.982 132.536 271.142 129.696C269.851 125.564 269.722 124.531 270.432 124.079C270.884 123.756 271.465 123.498 271.659 123.498C272.369 123.498 274.951 136.732 274.693 139.314L274.499 141.896L273.595 138.346Z" fill="white"/>
<path d="M234.281 138.023C234.281 136.99 234.41 136.603 234.604 137.248C234.733 137.829 234.733 138.733 234.604 139.185C234.41 139.572 234.281 139.121 234.281 138.023Z" fill="white"/>
<path d="M235.572 137.894C235.831 135.635 237.703 135.118 238.219 137.184C238.671 138.862 238.8 138.669 236.863 139.314C235.508 139.702 235.379 139.572 235.572 137.894Z" fill="white"/>
<path d="M262.815 137.313C262.298 135.441 263.396 134.344 265.461 134.602C267.011 134.795 267.592 137.571 266.301 138.41C264.687 139.443 263.202 138.991 262.815 137.313Z" fill="white"/>
<path d="M239.317 136.797C239.317 135.699 239.639 135.118 240.35 135.118C240.995 135.118 241.253 135.57 241.124 136.538C240.801 138.604 239.317 138.798 239.317 136.797Z" fill="white"/>
<path d="M233.571 134.085C233.571 133.375 233.765 133.182 233.959 133.698C234.152 134.15 234.088 134.731 233.894 134.925C233.7 135.183 233.507 134.795 233.571 134.085Z" fill="white"/>
<path d="M234.798 133.892C234.798 132.923 235.185 132.536 236.153 132.536C237.057 132.536 237.38 132.859 237.251 133.633C236.928 135.312 234.798 135.505 234.798 133.892Z" fill="white"/>
<path d="M238.348 133.311C237.896 132.149 237.896 132.149 239.833 131.632C240.995 131.245 241.253 131.439 241.253 132.407C241.253 133.956 238.929 134.731 238.348 133.311Z" fill="white"/>
<path d="M261.717 132.407C261.265 130.793 262.105 129.954 264.364 129.954C265.461 129.954 265.784 130.341 265.784 131.568C265.784 132.536 265.397 133.181 264.881 133.181C264.364 133.181 263.525 133.375 263.008 133.569C262.427 133.762 261.976 133.375 261.717 132.407Z" fill="white"/>
<path d="M267.334 130.922C266.817 129.631 267.592 128.663 269.076 128.663C269.98 128.663 270.303 129.115 270.303 130.277C270.303 131.439 269.98 131.89 269.012 131.89C268.302 131.89 267.527 131.439 267.334 130.922Z" fill="white"/>
<path d="M234.152 130.018C234.152 128.663 235.637 127.113 236.283 127.823C236.541 128.017 236.734 128.921 236.734 129.76C236.734 130.793 236.347 131.245 235.443 131.245C234.604 131.245 234.152 130.793 234.152 130.018Z" fill="white"/>
<path d="M237.703 129.244C237.186 127.63 237.767 126.92 239.962 126.597C241.963 126.339 242.609 128.469 240.866 129.76C239.188 130.987 238.155 130.793 237.703 129.244Z" fill="white"/>
<path d="M261.072 128.856C260.62 128.469 260.426 126.08 260.814 126.08C260.878 126.08 261.846 125.822 263.008 125.499C264.945 124.918 265.074 124.983 265.01 126.726C264.945 128.017 264.558 128.663 263.589 128.921C261.846 129.373 261.588 129.373 261.072 128.856Z" fill="white"/>
<path d="M258.683 127.372C258.683 126.92 258.877 126.726 259.135 126.92C259.329 127.178 259.329 127.565 259.135 127.823C258.877 128.017 258.683 127.823 258.683 127.372Z" fill="white"/>
<path d="M265.913 126.339C266.107 125.241 268.108 123.627 268.56 124.144C268.754 124.337 269.077 125.112 269.27 125.951C269.722 127.242 269.528 127.372 267.721 127.372C266.172 127.372 265.72 127.113 265.913 126.339Z" fill="white"/>
<path d="M234.798 126.274C234.798 125.951 235.121 125.306 235.443 124.789C235.96 124.015 236.089 124.079 236.089 125.306C236.089 126.08 235.831 126.726 235.443 126.726C235.121 126.726 234.798 126.532 234.798 126.274Z" fill="white"/>
<path d="M236.734 124.854C236.734 123.046 238.09 122.465 239.123 123.821C239.768 124.789 239.768 125.112 239.123 125.564C237.767 126.403 236.734 126.145 236.734 124.854Z" fill="white"/>
<path d="M256.359 124.015C255.197 122.724 255.197 122.659 256.295 123.046C256.94 123.305 257.779 123.498 258.102 123.498C258.425 123.498 258.683 123.95 258.683 124.467C258.683 125.822 257.779 125.693 256.359 124.015Z" fill="white"/>
<path d="M242.48 123.95C239.704 121.82 239.317 117.043 241.899 117.043C243.642 117.043 245.256 119.754 244.997 122.272C244.804 124.596 244.029 125.112 242.48 123.95Z" fill="white"/>
<path d="M260.168 124.337C260.426 124.144 260.813 124.144 261.072 124.337C261.265 124.596 261.072 124.789 260.62 124.789C260.168 124.789 259.974 124.596 260.168 124.337Z" fill="white"/>
<path d="M269.916 121.82C270.109 121.239 270.303 120.658 270.303 120.529C270.303 120.4 270.626 120.27 270.949 120.27C271.336 120.27 271.594 120.851 271.594 121.562C271.594 122.336 271.142 122.853 270.561 122.853C269.851 122.853 269.658 122.53 269.916 121.82Z" fill="white"/>
<path d="M236.089 121.626C236.089 120.141 237.445 117.688 238.219 117.688C239.575 117.688 238.607 121.82 237.186 122.078C236.605 122.207 236.089 122.013 236.089 121.626Z" fill="white"/>
<path d="M250.614 120.916L248.677 120.464L250.42 120.012C252.228 119.496 253.519 119.883 253.519 120.981C253.519 121.626 253.454 121.626 250.614 120.916Z" fill="white"/>
<path d="M248.354 117.817C248.354 115.171 249.839 114.783 251.195 117.107C252.099 118.657 252.163 118.979 251.324 118.979C250.807 118.979 249.968 119.173 249.387 119.367C248.613 119.689 248.354 119.302 248.354 117.817Z" fill="white"/>
<path d="M259.587 118.721C256.682 117.43 254.81 114.009 254.81 109.942C254.81 107.037 255.068 106.327 256.811 104.713C257.908 103.68 259.006 102.841 259.329 102.841C260.749 102.841 265.978 107.811 267.721 110.91L269.722 114.461L267.592 116.72C265.139 119.302 262.427 120.012 259.587 118.721Z" fill="white"/>
<path d="M246.095 117.043C245.901 116.72 246.03 116.397 246.353 116.397C246.74 116.397 247.063 116.72 247.063 117.043C247.063 117.43 246.934 117.688 246.805 117.688C246.611 117.688 246.289 117.43 246.095 117.043Z" fill="white"/>
<path d="M237.638 116.01C237.832 115.429 238.026 114.848 238.026 114.719C238.026 114.59 238.607 114.461 239.317 114.461C240.931 114.461 240.995 115.493 239.381 116.397C237.638 117.301 237.186 117.236 237.638 116.01Z" fill="white"/>
<path d="M242.738 115.235C241.253 115.042 240.801 114.202 241.77 113.621C242.028 113.428 243.19 113.105 244.352 112.847C246.095 112.459 246.418 112.588 246.418 113.686C246.418 115.042 245.062 115.623 242.738 115.235Z" fill="white"/>
<path d="M247.709 113.04C247.709 112.266 247.773 111.814 247.902 111.943C247.967 112.072 248.483 112.718 248.935 113.363C249.71 114.267 249.645 114.461 248.742 114.461C248.096 114.461 247.709 113.944 247.709 113.04Z" fill="white"/>
<path d="M238.671 112.588C238.671 112.201 238.994 111.749 239.317 111.556C239.704 111.362 239.962 111.62 239.962 112.137C239.962 112.718 239.704 113.169 239.317 113.169C238.994 113.169 238.671 112.911 238.671 112.588Z" fill="white"/>
<path d="M241.06 111.62C240.543 110.329 245.127 108.909 245.901 110.135C246.482 111.168 245.901 111.62 243.448 112.137C241.963 112.459 241.318 112.33 241.06 111.62Z" fill="white"/>
<path d="M247.128 109.554C247.128 108.844 247.321 108.651 247.515 109.167C247.709 109.619 247.644 110.2 247.451 110.394C247.257 110.652 247.063 110.264 247.128 109.554Z" fill="white"/>
<path d="M241.641 108.521C242.415 107.101 244.675 104.777 245.256 104.777C245.901 104.777 245.966 107.811 245.32 108.199C244.997 108.328 243.965 108.651 242.996 108.909C241.576 109.232 241.253 109.167 241.641 108.521Z" fill="white"/>
<path d="M246.805 107.037C246.095 105.1 246.418 104.261 247.967 104.003C249.581 103.68 249.581 103.68 248.548 105.681C247.257 108.263 247.321 108.263 246.805 107.037Z" fill="white"/>
<path d="M246.418 103.163C246.418 103.034 247.709 102.13 249.323 101.227C251.259 100.065 252.615 99.6774 253.583 99.9356C254.745 100.323 254.423 100.581 251.582 101.937C248.419 103.357 246.418 103.873 246.418 103.163Z" fill="white"/>
<path d="M282.246 45.9675C280.503 43.4499 276.823 39.3829 274.176 36.9298C271.53 34.4767 269.787 32.4755 270.303 32.4755C271.723 32.4755 282.569 35.445 285.28 36.607C287.539 37.5754 287.604 37.7045 287.023 39.7057C286.7 40.8677 286.442 43.7727 286.442 46.1612C286.442 48.6143 286.248 50.5509 285.99 50.5509C285.667 50.5509 284.053 48.4852 282.246 45.9675Z" fill="white"/>
<path d="M150.876 241.505C148.229 240.149 147.648 239.375 144.292 232.726C139.45 223.3 139.321 221.106 143.904 226.464C145.712 228.594 149.908 232.984 153.2 236.211C158.816 241.634 159.075 242.021 157.203 241.763C155.847 241.57 155.33 241.699 155.653 242.215C156.428 243.377 153.975 243.054 150.876 241.505Z" fill="white"/>
<path fill-rule="evenodd" clip-rule="evenodd" d="M259.063 359.119C258.527 357.846 259.125 356.38 260.397 355.845L261.788 355.255C275.31 349.469 283.072 345.993 288.346 340.474C293.62 334.955 294.251 326.849 295.242 321.916C295.513 320.563 298.579 322.94 299.932 323.212C301.286 323.484 302.163 324.802 301.891 326.155C300.7 332.086 297.492 337.74 292.327 343.107C287.18 348.456 277.214 354.19 262.337 360.453C261.065 360.989 259.599 360.391 259.063 359.119Z" fill="#00160A"/>
<path fill-rule="evenodd" clip-rule="evenodd" d="M320.213 101.544C321.4 100.838 322.934 101.227 323.64 102.413C330.712 114.292 334.5 127.872 334.5 142C334.5 184.802 299.802 219.5 257 219.5C245.626 219.5 234.595 217.047 224.494 212.373C223.241 211.793 218.507 207.177 223.274 209.055C228.042 210.932 246.488 215.146 257.133 215.146C297.173 215.146 325.5 182.041 325.5 142C325.5 128.778 320.213 117.043 319.344 104.971C319.243 103.571 319.027 102.25 320.213 101.544Z" fill="#00160A"/>
<path fill-rule="evenodd" clip-rule="evenodd" d="M72.6188 290.755C73.5025 289.695 75.0789 287.551 76.1398 288.435C80.4919 292.06 85.1362 296.26 90.1041 297.07C95.2737 297.914 101.407 297.914 108.495 297.056C109.866 296.89 111.111 297.867 111.277 299.237C111.443 300.608 110.467 301.854 109.096 302.02C101.568 302.931 94.9721 302.931 89.2989 302.005C83.4239 301.046 77.9603 298.458 72.9397 294.276C71.8788 293.393 71.7351 291.816 72.6188 290.755Z" fill="#00160A"/>
<path d="M125.7 203.288C122.472 200.706 115.564 193.089 110.335 186.375C107.624 182.824 104.59 175.594 102.782 168.299C101.943 165.007 101.104 162.038 100.91 161.65C100.652 161.328 99.6193 156.744 98.5864 151.451C97.0371 143.962 97.3648 141.55 96.0042 132.593C95.4281 128.8 94.9067 125.782 94.9067 125.782L96.5852 123.627C97.5535 122.336 98.7784 120.2 99.2319 118.979C101.298 113.421 116.468 95.9978 116.92 96.4496C117.049 96.5787 116.533 99.6128 115.629 103.163C114.79 106.714 113.757 112.072 113.305 115.106C112.659 120.141 112.401 120.722 110.4 122.401C107.882 124.531 103.105 131.374 103.105 132.794C103.105 134.731 106.01 133.44 109.044 130.277L112.143 127.049V130.599C112.143 132.923 111.691 135.054 110.852 136.732C109.238 139.895 109.238 143.252 110.787 145.834C111.562 147.125 112.272 150.224 112.724 153.904C114.725 170.559 118.986 185.019 126.281 199.544C128.088 203.159 129.508 206.129 129.444 206.129C129.315 206.129 127.636 204.838 125.7 203.288Z" fill="white"/>
<path fill-rule="evenodd" clip-rule="evenodd" d="M394.313 243.119L398.961 245.185C399.925 245.629 410.558 250.738 423.329 256.875C443.92 266.769 470.071 279.334 470.23 279.334C470.489 279.334 471.7 276.533 471.973 273.266C472.619 266.23 475.007 256.675 477.783 250.026C479.074 247.057 480.107 243.345 480.107 243.023C480.107 242.875 479.058 242.452 477.34 241.759C475.294 240.934 472.302 239.727 469.004 238.148C452.736 230.337 420.91 214.392 416.972 212.003C413.099 209.744 412.324 209.55 412.324 211.035C412.324 212.972 408.386 221.945 405.352 226.786C403.739 229.433 400.575 234.21 398.316 237.373L394.313 243.119ZM469.133 267.714C470.984 268.787 467.777 270.361 467.003 270.619C462.441 271.007 457.071 270.149 452.671 267.585C450.371 265.954 432.256 255.89 420.24 249.215C414.747 246.163 410.528 243.819 409.678 243.313C406.966 241.699 404.384 239.956 403.932 239.439C402.577 237.696 403.868 236.922 407.676 237.244C409.966 237.438 465.134 265.397 469.133 267.714Z" fill="white"/>
<path d="M347.963 248.929C346.284 248.348 344.477 247.057 343.315 245.572L341.378 243.183L348.221 236.405C358.744 226.076 366.49 214.788 373.462 202.2C375.786 198.004 382.693 181.081 383.533 179.209C384.824 176.498 385.792 175.465 388.568 173.916C391.86 171.979 395.604 171.334 397.218 172.431C400.317 174.497 400.317 181.017 397.218 192.249C393.797 204.579 389.214 213.424 379.724 226.141C378.239 228.078 375.463 231.886 373.462 234.533C368.104 241.634 364.618 245.056 359.905 247.702C355.258 250.285 352.546 250.607 347.963 248.929Z" fill="white"/>
<path d="M372.3 247.444L370.944 246.088C370.944 246.088 393.445 217.501 397.477 206.968C400.553 198.93 402.364 196.65 404.807 196.65C406.174 196.65 407.289 196.962 407.805 197.737C408.709 199.092 409.58 200.771 408.418 206.516C406.481 215.812 403.512 221.945 394.603 235.179C392.538 238.213 389.891 241.57 388.729 242.732C386.017 245.249 379.918 247.831 376.367 248.412C374.108 248.735 373.462 248.606 372.3 247.444Z" fill="white"/>
<path fill-rule="evenodd" clip-rule="evenodd" d="M410.095 217.551C411.397 214.573 412.324 211.975 412.324 211.035C412.324 209.55 413.099 209.744 416.972 212.003C420.91 214.392 452.736 230.337 469.004 238.148C475.072 241.053 480.107 242.7 480.107 243.023C480.107 243.345 408.714 220.709 410.095 217.551Z" fill="#E7EAEE"/>
<path fill-rule="evenodd" clip-rule="evenodd" d="M189.222 221.235C181.023 215.877 168.629 203.288 162.625 194.315C154.039 181.404 148.358 167.589 145.583 152.742C143.581 141.961 143.646 125.37 145.647 115.752C147.713 105.939 150.36 98.4508 155.072 88.9612C160.559 77.9869 166.369 69.9175 175.084 61.2025C183.63 52.6564 145.647 87.9983 155.072 151.233C162.625 204.223 195.085 225.098 189.222 221.235Z" fill="#E7EAEE"/>
</svg>
