<svg width="750" height="750" viewBox="0 0 750 750" fill="none" xmlns="http://www.w3.org/2000/svg">
<rect width="750" height="750" fill="none"/>
<path fill-rule="evenodd" clip-rule="evenodd" d="M662.229 410.658C679.571 274.202 400.562 77.8098 199.762 102.046C-1.03715 126.282 190.497 284.073 109.229 457.033C52.8505 577.022 98.6085 681.018 370.53 674.729C566.716 670.192 648.438 541.659 662.229 410.658Z" />
<path fill-rule="evenodd" clip-rule="evenodd" d="M220.92 127.098C219.475 127.6 219.964 169.881 220.084 177.319C220.353 194.076 219.456 500.499 219.488 517.297C219.498 522.228 219.825 523.316 220.92 522.928C224.611 521.618 511.89 521.98 519.055 520.658C519.405 520.593 521.018 474.306 521.024 473.011C521.094 458.783 522.066 154.942 522.069 140.707C522.071 134.675 521.237 131.269 519.936 130.373C518.409 129.32 516.849 128.842 515.299 128.636C510.014 127.936 227.044 124.974 220.92 127.098Z" fill="white"/>
<path fill-rule="evenodd" clip-rule="evenodd" d="M184.999 96.8254C188.361 96.7067 191.723 96.5524 195.085 96.428C202.48 96.1547 279.875 95.8988 287.269 95.6179C290.096 95.5104 292.92 95.3222 295.748 95.2272C300.517 95.0671 305.287 94.9654 310.056 94.8135C313.553 94.7022 317.049 94.5401 320.545 94.4185C324.711 94.2736 328.878 94.1593 333.044 94.0101C336.273 93.8945 339.5 93.7172 342.729 93.6182C347.9 93.4598 353.073 93.3548 358.244 93.206C362.277 93.0899 366.309 92.9355 370.341 92.8091C374.842 92.6681 379.344 92.5394 383.846 92.4054C388.347 92.2714 392.848 92.1342 397.35 92.0042C402.12 91.8663 406.889 91.7372 411.659 91.6007C416.25 91.4692 420.842 91.3266 425.433 91.2009C430.605 91.0593 435.777 90.9317 440.948 90.7968C446.053 90.6637 451.157 90.5262 456.262 90.3957C461.635 90.2583 467.007 90.1282 472.38 89.9924C477.619 89.8601 482.859 89.7717 488.095 89.5755C492.092 89.4257 496.083 89.1222 500.079 88.928C500.671 88.8992 501.274 89.1837 501.87 89.1754C510.125 89.0609 518.379 88.9332 526.633 88.7824C532.811 88.6694 538.987 88.5134 545.164 88.3858C551.944 88.2458 558.724 88.0703 565.504 88.0013C569.022 87.9655 571.335 89.553 572.164 92.8724C572.578 94.5263 572.361 96.3452 572.373 98.0899C572.405 102.574 572.457 107.06 572.399 111.544C572.364 114.337 572.142 117.127 572.01 119.919C571.985 120.45 571.979 120.983 571.979 121.515C571.977 127.368 572.023 133.222 571.967 139.074C571.869 149.339 571.718 159.604 571.572 169.869C571.452 178.391 571.306 186.913 571.173 195.436C571.038 204.092 570.906 212.749 570.771 221.405C570.638 229.927 570.522 238.45 570.362 246.972C570.267 252.01 570.067 257.047 569.979 262.085C569.917 265.592 570.004 269.101 569.959 272.608C569.848 281.265 569.718 289.922 569.557 298.577C569.465 303.549 569.261 308.518 569.175 313.49C569.113 317.063 569.213 320.64 569.15 324.214C569.065 329.118 568.856 334.02 568.773 338.925C568.71 342.699 568.812 346.477 568.747 350.252C568.67 354.754 568.451 359.254 568.372 363.757C568.307 367.397 568.396 371.04 568.351 374.682C568.24 383.539 568.098 392.397 567.954 401.254C567.831 408.839 567.702 416.423 567.55 424.007C567.439 429.514 567.247 435.02 567.165 440.527C567.101 444.771 567.204 449.018 567.138 453.261C567.069 457.63 566.834 461.996 566.764 466.364C566.698 470.541 566.802 474.721 566.735 478.898C566.671 482.864 566.426 486.828 566.363 490.794C566.296 495.038 566.39 499.284 566.339 503.529C566.234 512.319 566.086 521.11 565.944 529.9C565.819 537.618 565.822 545.342 565.502 553.053C565.195 560.468 566.904 567.345 570.591 573.676C574.347 580.124 578.372 586.419 582.364 592.727C586.31 598.963 589.773 605.455 591.608 612.613C592.917 617.723 593.109 623.028 591.639 628.201C591.136 629.97 588.074 642.172 590.68 645.342C594.025 649.412 598.255 651.238 603.464 651.357C608.542 651.473 613.363 650.237 618.229 649.111C624.146 647.741 630.086 646.752 636.044 648.914C639.008 649.989 641.681 651.509 643.434 654.252C643.701 654.67 644.349 655.372 642.933 655.38C639.503 655.398 636.075 655.611 632.645 655.745C625.787 656.013 618.929 656.288 612.07 656.546C608.105 656.695 604.139 656.823 600.174 656.949C595.74 657.09 591.305 657.227 586.87 657.351C581.699 657.494 576.527 657.634 571.355 657.752C564.911 657.899 558.466 658.035 552.021 658.154C544.102 658.301 536.182 658.442 528.263 658.555C517.73 658.706 507.197 658.812 496.664 658.967C489.482 659.073 482.3 659.233 475.118 659.36C473.889 659.382 472.66 659.354 471.43 659.365C456.609 659.497 441.787 659.632 426.965 659.764C425.669 659.776 424.372 659.756 423.076 659.767C407.919 659.899 392.762 660.035 377.606 660.166C376.242 660.178 374.879 660.157 373.516 660.169C358.493 660.301 343.47 660.437 328.447 660.568C327.151 660.58 325.855 660.56 324.558 660.571C309.402 660.703 294.245 660.839 279.088 660.97C277.859 660.981 158.629 660.963 157.4 660.973C155.456 660.993 147.154 646.049 158.48 612.613C162.252 601.475 184.999 571.864 184.999 571.864C184.999 571.864 181.901 96.9347 184.999 96.8254Z" fill="white"/>
<path fill-rule="evenodd" clip-rule="evenodd" d="M214.342 518.93C214.345 520.813 214.309 522.827 213.238 524.375C212.167 525.923 209.643 526.587 208.408 525.166C208.257 418.015 208.106 310.864 207.956 203.713C207.93 185.385 207.905 167.039 209.176 148.756C213.653 157.444 213.768 167.645 213.784 177.419C213.97 291.256 214.156 405.093 214.342 518.93Z" fill="#00160A"/>
<path fill-rule="evenodd" clip-rule="evenodd" d="M488.94 373.555C489.636 375.116 487.24 376.135 485.531 376.173C462.251 376.691 438.962 376.803 415.679 376.508C415.486 336.133 416.504 295.752 418.73 255.438C450.148 255.201 481.566 254.964 512.984 254.727C513.776 255.562 512.212 256.586 511.065 256.677C481.368 259.033 451.526 259.573 421.763 258.291C419.605 296.515 418.506 334.799 418.465 373.083C441.955 372.566 465.46 372.723 488.94 373.555Z" fill="#00160A"/>
<path fill-rule="evenodd" clip-rule="evenodd" d="M297.067 176.053C297.356 176.413 297.382 176.911 297.395 177.373C298.05 201.125 298.705 224.877 299.361 248.63C336.703 247.103 374.059 245.89 411.422 244.991C410.922 223.756 410.422 202.52 409.921 181.285C409.915 181.026 409.91 180.761 409.996 180.517C410.326 179.58 411.804 179.612 412.456 180.361C413.108 181.11 413.161 182.192 413.182 183.185C413.633 204.926 414.085 226.668 414.537 248.409C375.273 249.652 336.008 250.895 296.744 252.138C295.948 227.751 295.151 203.364 294.354 178.977C294.326 178.091 294.314 177.139 294.809 176.403C295.303 175.668 296.511 175.363 297.067 176.053L297.067 176.053Z" fill="#00160A"/>
<path fill-rule="evenodd" clip-rule="evenodd" d="M254.571 263.863C249.672 264.075 243.998 263.903 240.954 260.058C257.74 260.355 274.547 259.441 291.203 257.326C291.794 257.251 292.03 258.063 292.037 258.659C292.522 296.929 293.006 335.199 293.49 373.47C293.501 374.303 293.433 375.289 292.725 375.729C292.347 375.964 291.875 375.975 291.43 375.978C276.572 376.08 261.712 375.829 246.867 375.224C245.167 375.155 242.791 373.865 243.778 372.479C259.227 372.211 274.681 372.163 290.132 372.337C290.373 335.424 289.857 298.506 288.583 261.615C277.265 262.624 265.924 263.374 254.571 263.863Z" fill="#00160A"/>
<path fill-rule="evenodd" clip-rule="evenodd" d="M242.309 380.314C259.574 379.682 276.872 379.946 294.11 381.105C293.008 413.529 293.917 445.983 294.827 478.413C295.102 488.226 295.377 498.039 295.652 507.852C295.142 508.626 293.852 508.423 293.27 507.701C292.688 506.98 292.615 505.986 292.568 505.06C290.516 464.774 290.032 424.408 291.117 384.085C275.796 383.751 260.474 383.417 245.153 383.082C244.294 383.064 243.378 383.027 242.677 382.529C241.977 382.032 241.673 380.891 242.309 380.314L242.309 380.314Z" fill="#00160A"/>
<path fill-rule="evenodd" clip-rule="evenodd" d="M299.049 375.507C298.934 338.463 298.256 301.421 297.015 264.398C296.949 262.407 296.88 260.417 296.812 258.426C296.8 258.089 296.803 257.712 297.035 257.467C297.259 257.229 297.62 257.199 297.947 257.184C336.385 255.427 374.877 254.823 413.352 255.374C414.799 295.75 413.923 336.21 410.728 376.485C373.516 374.985 336.236 373.485 299.049 375.507ZM302.184 371.764C337.366 369.804 372.638 371.354 407.84 372.905C411.092 335.004 411.936 296.896 410.364 258.888C373.568 258.523 336.763 259.176 300.003 260.846C300.988 297.813 301.715 334.787 302.184 371.764Z" fill="#00160A"/>
<path fill-rule="evenodd" clip-rule="evenodd" d="M236.043 251.273C253.685 250.466 271.328 249.659 288.97 248.853C287.767 225.669 286.565 202.485 285.363 179.301C285.334 178.743 285.324 178.125 285.688 177.701C286.257 177.038 287.426 177.315 287.951 178.014C288.477 178.713 288.539 179.644 288.582 180.517C289.752 204.415 290.921 228.313 292.091 252.211C279.895 253.017 267.699 253.823 255.503 254.629C248.784 255.073 241.414 255.334 236.043 251.273Z" fill="#00160A"/>
<path fill-rule="evenodd" clip-rule="evenodd" d="M407.505 505.891C406.358 506.351 405.667 504.61 405.658 503.374C405.341 463.347 405.797 423.314 407.024 383.305C371.906 383.526 336.787 383.747 301.668 383.969C302.276 425.094 302.883 466.22 303.49 507.345C303.497 507.88 303.478 508.484 303.086 508.848C302.011 509.85 300.76 507.789 300.722 506.32C299.652 464.804 299.024 423.276 298.837 381.747C335.745 381.469 372.654 381.191 409.562 380.913C409.15 421.922 408.738 462.932 408.326 503.942C408.318 504.692 408.202 505.612 407.505 505.891Z" fill="#00160A"/>
<path fill-rule="evenodd" clip-rule="evenodd" d="M505.869 246.692C476.814 247.259 447.758 247.825 418.703 248.392C419.558 225.271 419.39 202.112 418.201 179.006C418.17 178.4 418.167 177.714 418.6 177.289C419.771 176.141 421.229 178.402 421.313 180.04C422.421 201.654 422.663 223.313 422.038 244.946C451.943 243.597 481.893 243.241 511.822 243.877C511.2 246.158 508.232 246.646 505.869 246.692Z" fill="#00160A"/>
<path fill-rule="evenodd" clip-rule="evenodd" d="M489.11 379.613C490.971 379.582 493.635 380.686 492.822 382.359C467.92 382.181 443.015 382.594 418.133 383.598C415.556 421.943 414.912 460.417 416.205 498.827C416.293 501.451 416.363 504.208 415.161 506.542C414.446 507.424 413.343 505.861 413.305 504.726C411.906 463.643 412.656 422.487 415.549 381.483C440.063 380.645 464.585 380.021 489.11 379.613Z" fill="#00160A"/>
<path fill-rule="evenodd" clip-rule="evenodd" d="M476.865 200.593C477.424 201.487 477.244 202.691 476.697 203.592C476.15 204.494 475.297 205.159 474.462 205.803C466.943 211.609 459.424 217.415 451.904 223.22C451.234 223.738 450.465 224.284 449.625 224.178C448.785 224.071 448.157 222.876 448.823 222.354C456.79 216.105 464.757 209.857 472.724 203.609C474.069 202.554 475.416 201.498 476.865 200.593Z" fill="#E7EAEE"/>
<path fill-rule="evenodd" clip-rule="evenodd" d="M462.739 423.993C462.981 424.685 462.433 425.383 461.926 425.912C456.676 431.393 451.427 436.873 446.177 442.353C445.538 443.02 444.797 443.735 443.874 443.755C442.95 443.774 442.083 442.581 442.723 441.914C448.284 436.112 453.845 430.31 459.406 424.508C459.877 424.017 460.376 423.508 461.026 423.309C461.676 423.111 462.514 423.352 462.739 423.993Z" fill="#E7EAEE"/>
<path fill-rule="evenodd" clip-rule="evenodd" d="M453.085 411.684C448.624 415.597 444.163 419.51 439.702 423.424C440.779 423.135 441.393 424.936 440.593 425.712C439.793 426.489 438.486 426.356 437.434 425.987C437.127 425.88 436.816 425.751 436.586 425.521C435.696 424.631 436.568 423.15 437.44 422.243C441.816 417.694 446.526 413.466 451.519 409.605C452.232 409.053 453.318 408.526 453.936 409.183C454.614 409.903 453.829 411.031 453.085 411.684Z" fill="#E7EAEE"/>
<path fill-rule="evenodd" clip-rule="evenodd" d="M250.227 444.12C249.639 443.196 250.686 442.119 251.594 441.505C256.728 438.033 261.366 433.828 265.323 429.058C265.864 428.405 266.445 427.707 267.259 427.474C268.074 427.241 269.147 427.762 269.124 428.609C269.111 429.064 268.801 429.449 268.504 429.794C263.976 435.053 258.832 439.781 253.212 443.852C252.3 444.512 250.831 445.07 250.227 444.12V444.12Z" fill="#E7EAEE"/>
<path fill-rule="evenodd" clip-rule="evenodd" d="M245.73 484.033C244.934 484.11 244.403 483.09 244.631 482.323C244.86 481.557 245.545 481.031 246.186 480.554C255.603 473.544 264.114 465.318 271.439 456.144C272.019 455.417 273.327 456.126 273.425 457.052C273.522 457.977 272.898 458.807 272.302 459.522C264.76 468.562 256.105 476.673 246.594 483.613C246.332 483.804 246.053 484.001 245.73 484.033V484.033Z" fill="#E7EAEE"/>
<path fill-rule="evenodd" clip-rule="evenodd" d="M431.62 205.763C430.799 204.715 431.908 203.275 432.931 202.424C435.555 200.244 438.179 198.063 440.803 195.882C441.73 195.112 443.395 194.479 443.887 195.579C444.229 196.345 443.525 197.146 442.888 197.692C440.286 199.919 437.683 202.147 435.081 204.375C434.094 205.219 432.868 206.122 431.62 205.763L431.62 205.763Z" fill="#E7EAEE"/>
<path fill-rule="evenodd" clip-rule="evenodd" d="M253.771 425.164C255.806 422.727 257.977 420.402 260.27 418.205C260.847 417.652 261.614 417.063 262.368 417.332C262.667 417.439 262.914 417.682 263.026 417.98C263.312 418.74 262.717 419.523 262.164 420.118C260.324 422.097 258.484 424.076 256.643 426.055C256.135 426.602 255.581 427.176 254.852 427.341C254.124 427.507 253.209 427.038 253.21 426.291C253.21 425.862 253.497 425.494 253.771 425.164Z" fill="#E7EAEE"/>
<path fill-rule="evenodd" clip-rule="evenodd" d="M446.879 469.396C446.574 469.561 446.22 469.718 445.892 469.607C445.082 469.331 445.498 468.106 446.045 467.449C451.47 460.929 456.913 454.391 463.114 448.605C466.036 445.879 469.118 443.33 472.197 440.782C475.537 438.018 478.878 435.254 482.218 432.49C482.678 432.109 483.239 431.704 483.817 431.854C485.121 432.194 484.343 434.19 483.34 435.091C474.457 443.057 464.214 449.66 456.788 458.999C453.785 462.777 451.124 467.1 446.879 469.396Z" fill="#E7EAEE"/>
<path fill-rule="evenodd" clip-rule="evenodd" d="M253.932 152.584C239.249 160.245 218.897 153.734 211.388 138.972C222.829 142.187 232.555 153.692 244.142 151.055C253.011 149.036 258.242 139.353 266.826 136.347C276.065 133.112 285.818 138.425 294.85 142.201C303.881 145.976 316.213 147.413 321.765 139.351C326.615 132.307 337.471 135.218 345.266 138.737C353.06 142.256 364.174 144.721 368.543 137.369C372.476 130.751 382.262 130.98 389.423 133.81C396.583 136.641 403.515 141.289 411.195 140.751C424.221 139.838 435.572 124.283 447.465 129.673C451.129 131.333 453.753 134.765 457.4 136.462C469.716 142.194 486.511 126.115 496.45 135.377C501.859 140.418 510.539 137.478 517.269 134.415C523.999 131.351 532.943 128.807 537.941 134.256C533.722 144.076 533.29 155.044 532.92 165.726C528.874 282.493 524.828 399.26 520.781 516.028C518.054 515.592 517.454 511.979 517.516 509.218C519.13 437.491 520.744 365.763 522.358 294.036C523.502 243.212 524.645 192.389 525.889 141.567C520.728 137.808 514.619 145.411 508.301 146.336C502.498 147.186 497.604 142.205 492.012 140.435C479.491 136.474 464.561 148.802 453.63 141.522C450.689 139.564 448.596 136.395 445.379 134.938C440.134 132.562 434.029 135.569 429.59 139.236C425.151 142.902 421.036 147.468 415.445 148.844C402.972 151.913 391.63 137.661 378.89 139.304C371.731 140.227 366.286 145.914 360.08 149.599C353.874 153.285 344.263 154.145 340.827 147.797C336.995 140.718 324.97 140.582 320.979 147.573C316.713 155.046 305.512 154.145 297.755 150.419C289.998 146.693 282.293 141.007 273.762 142.138C266.295 143.128 260.611 149.099 253.932 152.584Z" fill="#00160A"/>
<path fill-rule="evenodd" clip-rule="evenodd" d="M440.085 211.403C440.171 211.209 440.328 211.058 440.482 210.911C445.93 205.73 451.378 200.548 456.826 195.366C457.117 195.089 457.455 194.793 457.857 194.806C458.424 194.824 458.791 195.488 458.71 196.05C458.63 196.612 458.247 197.077 457.876 197.507C453.386 202.71 448.439 207.517 443.11 211.856C442.56 212.303 441.948 212.768 441.239 212.773C440.529 212.779 439.8 212.053 440.085 211.403Z" fill="#E7EAEE"/>
<path fill-rule="evenodd" clip-rule="evenodd" d="M354.705 280.255C347.604 287.55 340.443 294.836 334.327 302.974C328.902 310.192 324.244 318.138 317.427 324.06C317.118 324.328 316.728 324.61 316.336 324.494C315.582 324.269 315.892 323.132 316.349 322.493C327.544 306.818 339.734 291.854 352.821 277.72C353.795 276.669 354.984 275.535 356.412 275.652C357.248 277.199 355.932 278.995 354.705 280.255Z" fill="#E7EAEE"/>
<path fill-rule="evenodd" clip-rule="evenodd" d="M308.812 289.718C308.156 289.119 308.7 288.046 309.258 287.355C313.524 282.075 317.79 276.795 322.056 271.516C322.505 270.961 322.99 270.379 323.666 270.153C324.343 269.926 325.249 270.239 325.384 270.939C325.484 271.46 325.142 271.953 324.817 272.373C320.448 278.029 315.897 283.545 311.175 288.91C310.558 289.61 309.501 290.348 308.812 289.718H308.812Z" fill="#E7EAEE"/>
<path fill-rule="evenodd" clip-rule="evenodd" d="M359.567 298.628C360.133 299.522 359.174 300.579 358.337 301.225C347.144 309.857 340.356 323.132 329.521 332.21C329.056 332.6 328.458 333.006 327.889 332.793C326.763 332.372 327.533 330.674 328.408 329.85C338.549 320.304 345.773 307.874 356.524 299.02C357.423 298.28 358.944 297.645 359.567 298.628V298.628Z" fill="#E7EAEE"/>
<path fill-rule="evenodd" clip-rule="evenodd" d="M180.419 103.329C196.923 244.269 178.377 387.253 190.342 528.651C309.24 524.597 428.254 523.959 547.188 526.738C551.962 526.849 553.588 520.469 553.666 515.695C555.967 375.144 558.268 234.594 560.569 94.0435C457.588 96.6739 354.606 99.3042 251.624 101.935C230.296 102.479 208.797 103.012 187.786 99.3055C310.993 94.0569 434.263 90.2915 557.561 88.0105C560.198 87.9617 563.113 88.0112 565.074 89.7757C567.304 91.7825 567.42 95.1796 567.372 98.1795C564.95 250.176 562.527 402.172 560.104 554.169C559.872 568.748 564.111 570.68 577.506 593.541C590.901 616.402 583.887 648.824 583.887 648.824C583.887 648.824 590.901 650.664 594.876 651.308C602.676 652.572 610.419 649.378 618.223 648.14C626.028 646.902 635.641 648.664 638.792 655.909C573.386 659.057 507.885 659.592 442.405 660.126C331.937 661.027 221.468 661.929 111 662.83C125.082 657.572 140.116 654.876 155.147 654.913C146.993 636.827 149.91 614.259 162.395 598.84C170.145 589.268 181.871 580.708 181.615 568.394C178.395 413.397 177.996 258.341 180.419 103.329ZM441.169 614.534C403.702 613.683 366.433 622.944 329.02 620.764C313.687 619.87 298.504 617.06 283.159 616.402C270.29 615.851 257.41 616.818 244.565 617.785C216.792 619.875 189.019 621.965 161.246 624.055C159.925 624.155 158.419 624.357 157.681 625.457C157.112 626.305 157.198 627.416 157.307 628.432C158.088 635.732 158.869 643.032 159.65 650.332C159.821 651.93 160.1 653.722 161.403 654.662C162.388 655.373 163.695 655.389 164.909 655.378C175.346 655.279 185.782 655.181 196.218 655.082C322.365 653.891 448.512 652.7 574.659 651.509C575.941 651.497 577.352 651.436 578.292 650.565C579.227 649.698 579.398 648.304 579.511 647.034C580.303 638.136 581.095 629.239 581.886 620.342C550.776 622.199 519.521 621.614 488.502 618.594C472.736 617.059 457.005 614.894 441.169 614.534ZM303.031 610.943C346.248 618.065 390.3 607.992 434.1 607.828C481.348 607.651 528.691 619.018 575.509 612.656C576.92 612.465 578.526 612.126 579.212 610.879C579.984 609.473 579.149 607.757 578.328 606.379C573.705 598.613 569.081 590.847 564.458 583.081C561.718 578.478 557.927 573.274 552.576 573.515C433.364 578.886 313.716 571.971 194.726 581.012C193.387 581.188 192.097 579.786 192.383 578.467C181.908 591.482 170.574 603.806 158.48 615.333C206.594 619.99 255.335 603.083 303.031 610.943ZM423.574 531.469C411.201 531.709 398.865 532.829 386.518 533.676C344.653 536.55 302.637 536.297 260.68 535.515C236.538 535.066 212.399 534.442 188.26 533.819C186.828 541.59 185.405 549.668 187.437 557.304C189.468 564.94 196.021 571.988 203.922 571.862C320.095 570.013 436.269 568.164 552.442 566.315C552.753 558.486 553.064 550.658 553.374 542.829C553.441 541.144 553.414 539.222 552.161 538.093C551.187 537.215 549.765 537.103 548.456 537.035C519.183 535.524 489.911 534.014 460.639 532.503C448.293 531.866 435.934 531.228 423.574 531.469Z" fill="#00160A"/>
</svg>
