<svg width="594" height="593" viewBox="0 0 594 593" fill="none" xmlns="http://www.w3.org/2000/svg">
<path fill-rule="evenodd" clip-rule="evenodd" d="M522.982 306.844C524.293 468.269 453.682 586.192 318.688 592.887C220.297 597.767 279.155 443.393 155.842 340.896C76.9098 275.288 24.8125 104.822 219.35 60.7462C413.888 16.6706 521.672 145.42 522.982 306.844Z"/>
<path d="M124.622 541.243C112.375 518.667 114.375 491.349 116.903 465.791C122.719 407.001 131.672 343.693 172.852 301.333C183.743 290.129 197.037 280.63 212.294 277.257C224.116 274.643 235.506 270.083 245.865 263.814C248.362 249.192 234.604 237.678 224.991 226.379C214.227 213.727 207.512 197.681 206.056 181.133C205.194 171.338 203.137 157.992 193.313 157.575C185.237 157.231 179.158 147.487 182.399 140.083C185.641 132.679 196.925 130.537 202.655 136.237C194.481 105.596 211.748 70.2424 240.939 57.8489C236.179 51.042 246.568 42.8844 254.817 43.8593C263.065 44.8342 271.049 49.8165 279.148 47.9758C276.373 43.0883 280.82 36.5948 286.299 35.3429C291.779 34.0909 297.402 36.4697 302.317 39.1965C333.866 56.7001 354.716 91.9991 354.815 128.079C355.631 121.493 365.514 119.238 370.348 123.785C375.181 128.331 374.951 136.469 371.519 142.148C368.086 147.828 362.236 151.557 356.446 154.798C356.592 178.724 347.493 202.59 331.455 220.346C319.785 233.266 303.25 246.97 307.08 263.954C313.288 262.581 319.568 269.743 317.396 275.718C344.014 273.501 368.854 289.567 387.712 308.483C415.357 336.212 435.227 371.613 444.497 409.656C446.116 416.301 455.57 418.112 461.419 414.567C467.268 411.022 470.274 404.317 472.94 398.018L525.593 273.589C522.2 256.826 524.945 239.501 527.696 222.62L536.823 166.597C537.652 161.512 541.209 154.802 545.905 156.922C547.527 157.654 548.433 159.238 549.005 160.983C549.271 161.792 549.464 162.635 549.625 163.445C552.472 177.81 553.382 192.558 552.322 207.164L570.549 175.984C573.499 170.939 579.611 165.357 584.173 167.444C585.888 167.781 587.051 169.492 587.296 171.237C587.946 173.609 587.395 176.462 586.653 178.923C583.328 189.944 577.908 200.33 570.768 209.36C580.394 212.644 591.544 217.629 593.229 227.659C592.229 245.843 578.826 266.718 568.945 277.556C571.212 276.188 572.695 280.259 572.244 282.869C561.405 345.577 534.994 405.533 496.041 455.857C484.545 470.708 471.195 482.201 450.253 484.273C421.714 487.097 403 445 387.502 446.126C387.502 446.126 373 521 362.5 531C352 541 283 562 262.207 555C241.415 548 220.617 566.719 193.313 564.843C165.015 562.898 124.622 541.243 124.622 541.243Z" fill="white"/>
<path d="M558.267 291.109C558.019 290.779 557.85 290.389 557.778 289.983C557.506 288.448 558.88 286.843 560.438 286.874C561.997 286.906 563.304 288.566 562.97 290.088C562.637 291.61 560.755 292.571 559.326 291.947C558.909 291.765 558.54 291.473 558.267 291.109Z" fill="#00160A"/>
<path d="M303.925 130.998C302.866 130.759 302.351 129.431 302.643 128.386C302.936 127.34 303.796 126.557 304.684 125.931C310.728 121.67 319.924 122.773 324.79 128.342C325.178 128.786 325.558 129.306 325.539 129.895C325.52 130.484 324.876 131.055 324.353 130.782C321.614 129.353 318.822 127.906 315.782 127.355C312.742 126.803 309.36 127.275 307.046 129.322C306.123 130.139 305.128 131.27 303.925 130.998Z" fill="#00160A"/>
<path d="M252.036 130.792C251.704 131.813 250.374 132.186 249.34 131.897C248.306 131.608 247.475 130.863 246.599 130.242C243.717 128.204 240.063 127.425 236.541 127.654C233.018 127.882 229.612 129.062 226.456 130.644C225.733 131.007 224.873 130.165 224.917 129.357C224.962 128.55 225.569 127.894 226.182 127.366C229.464 124.54 233.925 123.249 238.25 123.472C242.576 123.695 246.757 125.356 250.32 127.819C251.332 128.519 252.416 129.621 252.036 130.792Z" fill="black"/>
<path d="M559.754 302.511C559.387 303.001 558.861 303.346 558.329 303.648C557.776 303.961 557.167 304.247 556.533 304.198C555.691 304.133 554.988 303.471 554.641 302.701C553.788 300.804 555.238 298.212 557.317 298.139C559.395 298.065 560.999 300.846 559.754 302.511Z" fill="#00160A"/>
<path d="M374.781 381.575C375.79 382.038 375.071 383.669 374.041 384.086C373.012 384.502 371.715 384.515 371.044 385.4C370.566 386.03 370.586 386.893 370.633 387.682C370.73 389.295 370.832 391.006 370.064 392.427C369.296 393.848 367.293 394.724 366.012 393.74C364.836 392.837 364.941 391.084 364.9 389.602C364.859 388.119 364.114 386.264 362.633 386.332C355.381 386.663 348.129 386.994 340.877 387.326C339.957 387.368 338.912 387.361 338.285 386.687C337.427 385.764 338.009 384.134 339.092 383.49C340.176 382.845 341.521 382.898 342.779 382.971C348.108 383.279 353.437 383.587 358.765 383.895C359.593 383.942 360.461 383.983 361.21 383.627C361.959 383.272 362.522 382.379 362.219 381.607C361.405 379.54 362.486 376.923 364.522 376.034C365.229 375.725 365.55 374.909 365.725 374.158C365.9 373.406 366.026 372.589 366.561 372.033C367.096 371.477 368.22 371.442 368.501 372.16C369.149 373.818 370.735 374.888 371.85 376.276C372.965 377.663 373.481 379.969 372.07 381.053C372.148 382.07 373.854 381.15 374.781 381.575Z" fill="#00160A"/>
<path d="M232.95 194.395C231.938 194.333 231.518 192.712 232.372 192.167C233.447 192.09 233.92 193.931 232.942 194.382L232.95 194.395Z"/>
<path d="M313.842 169.008C313.551 168.484 313.855 167.729 314.427 167.552C314.999 167.375 315.677 167.827 315.733 168.423C315.575 169.199 314.443 169.551 313.872 169.002L313.842 169.008Z"/>
<path d="M310.449 159.015C310.021 159.861 308.475 159.625 308.319 158.69C308.632 158.264 309.081 157.94 309.583 157.777C310.009 158.09 310.337 158.535 310.51 159.035L310.449 159.015Z"/>
<path d="M289.748 196.71C290.382 196.668 291.023 197.048 291.289 197.625C291.075 198.277 290.265 198.729 289.658 198.409C289.05 198.089 289.109 196.968 289.783 196.838L289.748 196.71Z"/>
<path d="M308.742 197.655C309.054 196.876 310.506 197.173 310.487 198.012C310.049 198.447 309.48 198.748 308.875 198.867C308.387 198.7 308.266 197.931 308.678 197.622L308.742 197.655Z"/>
<path d="M276.046 162.462C275.406 162.465 274.935 163.288 275.258 163.841C275.581 164.394 276.529 164.39 276.846 163.834C277.164 163.278 276.686 162.459 276.046 162.462Z"/>
<path d="M237.442 172.218C236.926 171.831 236.049 172.207 235.972 172.847C235.896 173.487 236.66 174.059 237.252 173.805C237.845 173.552 237.958 172.604 237.442 172.218Z"/>
<path d="M323.716 173.755C323.1 173.958 322.4 173.267 322.585 172.645C322.77 172.023 323.718 171.821 324.149 172.306C324.58 172.792 324.278 173.7 323.645 173.841L323.716 173.755Z"/>
<path d="M272.369 192.795C272.13 192.196 271.185 192.058 270.785 192.564C270.385 193.07 270.739 193.958 271.377 194.051C272.015 194.144 272.607 193.395 272.369 192.795Z"/>
<path d="M271.36 208.632C270.912 208.763 270.566 208.217 270.489 207.756C270.931 206.918 272.464 207.152 272.635 208.084C272.365 208.493 271.842 208.719 271.359 208.636L271.36 208.632Z"/>
<path d="M277.481 207.882C276.786 208.053 275.808 207.714 275.877 207.001C276.292 206.573 276.94 206.265 277.479 206.517C278.019 206.769 278.049 207.762 277.461 207.86L277.481 207.882Z"/>
<path d="M308.873 207.555C308.586 207.344 308.39 207.013 308.341 206.66C308.641 206.229 309.088 205.903 309.591 205.749C309.887 206.048 310.184 206.348 310.48 206.647C310.153 207.21 309.522 207.583 308.872 207.598L308.873 207.555Z"/>
<path d="M281.448 164.259C280.94 164.949 279.617 164.613 279.5 163.764C279.932 162.846 281.652 163.256 281.624 164.27L281.448 164.259Z"/>
<path d="M295.531 198.164C294.957 198.717 293.793 198.14 293.887 197.347C293.981 196.555 295.248 196.266 295.677 196.938C295.36 197.171 295.232 197.628 295.381 197.991L295.531 198.164Z"/>
<path d="M260.479 162.723C261.096 162.521 261.795 163.211 261.61 163.833C261.425 164.455 260.477 164.658 260.046 164.172C259.616 163.687 259.917 162.779 260.55 162.637L260.479 162.723Z"/>
<path d="M275.53 182.872C276.135 182.366 277.235 182.806 277.326 183.589C276.912 183.965 276.346 184.275 275.81 184.114C275.274 183.952 275.02 183.102 275.507 182.827L275.53 182.872Z"/>
<path d="M289.26 187.926C289.675 187.083 291.213 187.305 291.372 188.231C290.912 189.074 289.373 188.848 289.175 187.908L289.26 187.926Z"/>
<path d="M290.109 192.765C290.533 192.139 291.743 192.545 291.704 193.3C291.429 193.737 290.986 194.065 290.487 194.201C289.99 193.934 289.788 193.233 290.066 192.742L290.109 192.765Z"/>
<path d="M310.135 163.368C309.74 162.852 308.785 162.977 308.536 163.578C308.287 164.178 308.873 164.943 309.517 164.858C310.162 164.774 310.531 163.884 310.135 163.368Z"/>
<path d="M299.871 211.192C299.994 210.629 300.983 210.902 301.044 211.474C301.106 212.046 300.643 212.526 300.217 212.913C299.894 212.706 299.552 212.476 299.415 212.118C299.279 211.76 299.483 211.256 299.866 211.245L299.871 211.192Z"/>
<path d="M252.169 158.528C251.931 157.929 250.985 157.791 250.586 158.297C250.186 158.803 250.539 159.691 251.177 159.784C251.815 159.877 252.407 159.127 252.169 158.528Z"/>
<path d="M276.722 211.193C276.395 210.674 275.488 210.708 275.202 211.251C274.915 211.793 275.399 212.561 276.012 212.538C276.624 212.515 277.048 211.712 276.722 211.193Z"/>
<path d="M236.531 191.881C236.876 191.491 237.581 191.965 237.566 192.485C237.55 193.005 237.131 193.411 236.742 193.757C235.904 193.623 235.762 192.188 236.557 191.893L236.531 191.881Z"/>
<path d="M281.464 202.875C281.109 203.095 280.755 203.315 280.4 203.534C279.751 203.296 279.675 202.218 280.284 201.891C280.893 201.564 281.749 202.222 281.59 202.894L281.464 202.875Z"/>
<path d="M322.823 192.39C322.625 191.776 323.824 191.578 324.06 192.178C324.296 192.779 323.819 193.427 323.287 193.792C322.762 193.558 322.421 192.966 322.484 192.395L322.823 192.39Z"/>
<path d="M308.334 192.95C308.723 192.389 309.575 192.216 310.153 192.58C310.304 193.421 309.239 194.193 308.487 193.789C308.413 193.513 308.339 193.237 308.265 192.961L308.334 192.95Z"/>
<path d="M251.101 187.252C251.717 187.049 252.417 187.739 252.231 188.361C252.046 188.983 251.098 189.186 250.668 188.7C250.237 188.215 250.538 187.307 251.172 187.165L251.101 187.252Z"/>
<path d="M318.039 154.353C318.046 153.812 318.61 153.351 319.142 153.45C319.673 153.55 320.031 154.185 319.842 154.692C319.282 155.115 318.384 154.984 317.969 154.418L318.039 154.353Z"/>
<path d="M304.36 182.846C304.879 182.428 305.807 182.901 305.775 183.567C305.319 184.277 304.1 184.278 303.642 183.568C303.882 183.328 304.122 183.088 304.362 182.848L304.36 182.846Z"/>
<path d="M245.367 197.083C245.891 196.528 246.933 196.623 247.349 197.263C247.033 197.7 246.619 198.146 246.081 198.172C245.543 198.197 245.035 197.498 245.407 197.109L245.367 197.083Z"/>
<path d="M323.839 202.684C323.625 202.97 323.297 203.167 322.944 203.222C322.302 202.855 322.304 201.712 322.993 201.447C323.683 201.181 324.428 202.252 323.875 202.742L323.839 202.684Z"/>
<path d="M237.165 202.976C237.669 202.626 237.593 201.72 237.038 201.458C236.482 201.197 235.735 201.716 235.787 202.328C235.838 202.94 236.661 203.327 237.165 202.976Z"/>
<path d="M323.557 184.344C323.053 184.859 322.203 183.789 322.691 183.259C323.178 182.729 324.123 183 324.558 183.574C324.259 183.873 323.959 184.172 323.66 184.471L323.557 184.344Z"/>
<path d="M231.562 159.752C231.424 158.878 232.84 158.307 233.347 159.032C232.926 159.586 232.504 160.14 232.082 160.694C231.775 160.48 231.562 160.136 231.507 159.766L231.562 159.752Z"/>
<path d="M236.987 184.344C236.483 184.859 235.633 183.789 236.121 183.259C236.608 182.729 237.553 183 237.988 183.574C237.689 183.873 237.389 184.172 237.09 184.471L236.987 184.344Z"/>
<path d="M313.817 159.343C313.387 158.933 313.471 158.118 313.976 157.804C314.481 157.49 315.249 157.775 315.427 158.342C315.176 158.915 314.539 159.293 313.916 159.24L313.817 159.343Z"/>
<path d="M250.282 163.754C250.679 163.042 251.871 163.001 252.317 163.683C252.177 164.68 250.392 164.734 250.191 163.747L250.282 163.754Z"/>
<path d="M286.609 167.873C286.62 168.381 286.443 168.891 286.121 169.285C285.561 169.599 284.811 168.894 285.005 168.282C285.199 167.669 286.066 167.45 286.598 167.809L286.609 167.873Z"/>
<path d="M271.898 202.202C271.717 201.624 270.842 201.427 270.432 201.873C270.021 202.318 270.289 203.175 270.88 203.307C271.471 203.44 272.079 202.78 271.898 202.202Z"/>
<path d="M290.756 206.969C291.016 207.653 290.499 208.514 289.773 208.606C289.293 208.403 289.069 207.751 289.322 207.296C289.576 206.84 290.248 206.686 290.674 206.986L290.756 206.969Z"/>
<path d="M259.955 212.063C259.955 211.407 260.344 210.765 260.925 210.459C261.346 210.88 261.647 211.529 261.39 212.066C261.133 212.603 260.138 212.619 260.051 212.03L259.955 212.063Z"/>
<path d="M314.023 206.602C314.527 206.087 315.377 207.157 314.889 207.687C314.402 208.217 313.457 207.946 313.022 207.372C313.321 207.073 313.621 206.774 313.92 206.475L314.023 206.602Z"/>
<path d="M271.098 163.317C271.602 162.802 272.453 163.871 271.965 164.401C271.477 164.932 270.533 164.66 270.097 164.087C270.397 163.788 270.697 163.488 270.996 163.189L271.098 163.317Z"/>
<path d="M241.431 193.489C241.063 193.091 241.565 192.388 242.107 192.406C242.649 192.423 243.074 192.871 243.376 193.322C242.948 193.947 241.928 194.042 241.392 193.506L241.431 193.489Z"/>
<path d="M251.868 176.86C252.381 176.819 252.587 177.624 252.235 178C251.883 178.375 251.297 178.393 250.786 178.334C250.319 177.698 251.132 176.65 251.864 176.943L251.868 176.86Z"/>
<path d="M277.126 221.98C276.59 222.663 275.267 222.312 275.141 221.453C275.598 220.642 277.13 221.052 277.121 221.983L277.126 221.98Z"/>
<path d="M250.561 193.763C250.274 193.204 250.651 192.407 251.272 192.314C251.893 192.221 252.494 192.932 252.262 193.516C252.029 194.099 251.049 194.167 250.769 193.605L250.561 193.763Z"/>
<path d="M270.999 212.599C270.549 212.744 270.225 212.169 270.105 211.712C270.566 211.002 271.781 210.995 272.251 211.699C271.944 212.126 271.5 212.454 271.001 212.622L270.999 212.599Z"/>
<path d="M275.074 173.465C275.247 172.537 276.749 172.273 277.229 173.086C277.004 173.955 275.643 174.218 275.109 173.497L275.074 173.465Z"/>
<path d="M323.84 188.135C323.66 187.556 322.784 187.36 322.374 187.805C321.963 188.251 322.231 189.107 322.822 189.24C323.413 189.373 324.021 188.713 323.84 188.135Z"/>
<path d="M282 193.672C281.48 194.089 280.552 193.617 280.584 192.951C281.041 192.24 282.26 192.24 282.717 192.95C282.477 193.19 282.238 193.429 281.998 193.669L282 193.672Z"/>
<path d="M271.714 220.549C272.165 220.405 272.489 220.979 272.609 221.437C272.147 222.147 270.933 222.154 270.463 221.45C270.77 221.022 271.214 220.694 271.712 220.526L271.714 220.549Z"/>
<path d="M329.25 153.63C329.487 153.867 329.723 154.103 329.959 154.339C329.54 154.98 328.457 155.203 328.035 154.565C327.613 153.927 328.8 153.021 329.148 153.702L329.25 153.63Z"/>
<path d="M308.898 169.29C309.363 169.698 310.23 169.404 310.351 168.798C310.472 168.191 309.784 167.587 309.198 167.786C308.612 167.984 308.433 168.882 308.898 169.29Z"/>
<path d="M280.039 207.577C280.225 207.145 280.905 207.046 281.207 207.408C281.546 207.953 281.238 208.833 280.6 208.906C279.963 208.98 279.525 207.945 280.085 207.63L280.039 207.577Z"/>
<path d="M251.154 197.103C251.605 196.959 251.929 197.534 252.049 197.992C251.747 198.422 251.301 198.749 250.8 198.907C250.515 198.685 250.318 198.354 250.257 197.998C250.557 197.697 250.857 197.397 251.157 197.096L251.154 197.103Z"/>
<path d="M315.493 183.725C315.619 184.566 314.388 185.212 313.767 184.631C313.502 183.79 314.893 183.01 315.363 183.756L315.493 183.725Z"/>
<path d="M266.658 183.043C267.071 183.295 267.3 183.816 267.205 184.29C266.693 184.489 266.128 184.553 265.583 184.473C265.415 184.208 265.351 183.879 265.407 183.57C265.827 183.389 266.248 183.209 266.668 183.028L266.658 183.043Z"/>
<path d="M290.499 202.133C290.686 202.518 290.731 202.97 290.622 203.384C290.132 203.81 289.213 203.415 289.184 202.766C289.156 202.118 290.037 201.644 290.562 202.026L290.499 202.133Z"/>
<path d="M320.206 193.633C319.635 194.153 318.536 193.739 318.449 192.973C318.639 192.529 319.206 192.291 319.656 192.466C320.105 192.641 320.362 193.201 320.202 193.656L320.206 193.633Z"/>
<path d="M271.892 159.035C272.222 159.256 272.369 159.715 272.23 160.087C271.734 160.557 270.737 160.399 270.566 159.737C270.395 159.076 271.494 158.515 271.828 159.111L271.892 159.035Z"/>
<path d="M237.315 188.432C237.346 187.825 236.591 187.336 236.05 187.612C235.509 187.889 235.463 188.787 235.972 189.117C236.482 189.448 237.283 189.039 237.315 188.432Z"/>
<path d="M285.409 184.955C284.812 184.765 284.767 183.775 285.319 183.479C285.871 183.182 286.637 183.661 286.681 184.286C286.422 184.695 285.901 184.919 285.426 184.825L285.409 184.955Z"/>
<path d="M236.34 163.303C235.94 162.765 237.186 162.305 237.468 162.913C237.751 163.52 237.25 164.206 236.704 164.595C236.308 164.341 236.097 163.829 236.199 163.369L236.34 163.303Z"/>
<path d="M276.585 202.685C276.37 202.972 276.04 203.169 275.686 203.223C275.4 203.014 275.204 202.685 275.157 202.333C275.444 201.902 275.89 201.58 276.39 201.444C276.882 201.612 277.013 202.381 276.605 202.702L276.585 202.685Z"/>
<path d="M319.151 203.048C318.73 203.228 318.309 203.408 317.888 203.589C317.601 203.361 317.401 203.028 317.333 202.668C317.706 202.362 318.137 202.048 318.617 202.086C319.098 202.125 319.513 202.739 319.195 203.102L319.151 203.048Z"/>
<path d="M285.506 206.32C285.917 206.533 286.328 206.747 286.739 206.96C286.291 207.433 285.698 207.767 285.062 207.905C284.775 207.696 284.577 207.367 284.528 207.015C284.741 206.728 285.072 206.532 285.426 206.482L285.506 206.32Z"/>
<path d="M237.264 206.648C237.594 206.87 237.741 207.329 237.602 207.701C237.106 208.17 236.109 208.012 235.938 207.351C235.767 206.689 236.866 206.128 237.2 206.724L237.264 206.648Z"/>
<path d="M270.872 188.971C271.017 189.832 272.661 189.556 272.517 188.695C272.372 187.834 270.728 188.11 270.872 188.971Z"/>
<path d="M289.558 167.197C290.334 167.114 290.986 168.103 290.605 168.783C290.227 169.074 289.615 168.979 289.342 168.589C289.069 168.199 289.19 167.591 289.591 167.336L289.558 167.197Z"/>
<path d="M232.146 188.201C232.569 187.778 233.377 188.417 233.189 188.985C233 189.553 232.216 189.733 231.682 189.464C231.323 189.053 231.54 188.297 232.062 188.139L232.146 188.201Z"/>
<path d="M270.99 177.972C271.426 177.349 272.635 177.766 272.595 178.525C272.244 179.006 271.569 179.22 271.005 179.03C270.741 178.742 270.731 178.256 270.982 177.958L270.99 177.972Z"/>
<path d="M314.275 162.834C314.569 163.026 314.762 163.364 314.781 163.715C314.473 164.489 313.034 164.209 313.039 163.376C313.285 162.962 313.81 162.735 314.28 162.84L314.275 162.834Z"/>
<path d="M247.064 211.972C247.351 212.531 246.974 213.328 246.353 213.421C245.732 213.514 245.131 212.802 245.363 212.219C245.596 211.635 246.576 211.567 246.856 212.13L247.064 211.972Z"/>
<path d="M260.174 202.164C260.774 202.099 261.542 202.127 261.771 202.686C261.5 203.116 261.057 203.434 260.563 203.553C260.279 203.397 259.975 203.221 259.844 202.924C259.712 202.627 259.875 202.19 260.2 202.181L260.174 202.164Z"/>
<path d="M323.66 164.272C324.236 164.072 324.406 163.185 323.944 162.786C323.483 162.388 322.63 162.684 322.515 163.283C322.401 163.881 323.084 164.472 323.66 164.272Z"/>
<path d="M300.384 168.062C301.026 168.453 300.62 169.684 299.872 169.616C299.445 169.471 299.187 168.952 299.33 168.524C299.473 168.097 299.991 167.837 300.419 167.977L300.384 168.062Z"/>
<path d="M281.532 211.365C281.366 210.53 279.772 210.847 279.938 211.682C280.104 212.517 281.698 212.2 281.532 211.365Z"/>
<path d="M240.621 164.07C240.787 164.905 242.381 164.588 242.216 163.753C242.05 162.919 240.455 163.236 240.621 164.07Z"/>
<path d="M319.689 207.908C319.298 208.55 318.067 208.144 318.135 207.395C318.28 206.968 318.799 206.711 319.227 206.854C319.654 206.997 319.914 207.514 319.774 207.943L319.689 207.908Z"/>
<path d="M236.884 157.894C237.507 157.658 238.233 158.422 237.965 159.032C237.415 159.326 236.719 159.328 236.168 159.036C236.24 158.595 236.529 158.195 236.925 157.987L236.884 157.894Z"/>
<path d="M271.363 169.316C271.069 169.124 270.876 168.786 270.857 168.435C271.165 167.661 272.604 167.941 272.599 168.774C272.353 169.188 271.828 169.415 271.358 169.31L271.363 169.316Z"/>
<path d="M299.329 198.718C299.051 198.214 299.524 197.489 300.097 197.532C300.671 197.576 301.032 198.351 300.701 198.822C300.371 199.293 299.528 199.226 299.27 198.712L299.329 198.718Z"/>
<path d="M284.528 173.476C284.72 173.182 285.058 172.988 285.409 172.97C286.183 173.278 285.903 174.717 285.07 174.711C284.656 174.465 284.429 173.941 284.534 173.471L284.528 173.476Z"/>
<path d="M324.455 158.128C324.497 158.431 324.539 158.734 324.58 159.037C324.022 159.321 323.329 159.323 322.769 159.043C322.749 158.249 323.753 157.635 324.451 158.015L324.455 158.128Z"/>
<path d="M267.203 216.397C266.824 215.638 265.375 216.361 265.753 217.12C266.132 217.879 267.581 217.156 267.203 216.397Z"/>
<path d="M300.776 177.777C300.175 177.181 299.036 178.327 299.637 178.923C300.237 179.52 301.376 178.373 300.776 177.777Z"/>
<path d="M285.96 158.323C285.581 157.564 284.131 158.286 284.51 159.045C284.888 159.805 286.338 159.082 285.96 158.323Z"/>
<path d="M319.193 198.339C318.827 197.549 317.318 198.249 317.685 199.039C318.051 199.829 319.56 199.129 319.193 198.339Z"/>
<path d="M235.666 198.169C236.037 198.922 237.476 198.212 237.105 197.459C236.733 196.706 235.295 197.415 235.666 198.169Z"/>
<path d="M295.339 212.42C295.146 212.714 294.809 212.908 294.458 212.926C293.683 212.618 293.963 211.179 294.797 211.184C295.21 211.43 295.437 211.955 295.333 212.425L295.339 212.42Z"/>
<path d="M267.37 188.088C266.998 187.335 265.56 188.044 265.931 188.797C266.303 189.551 267.741 188.841 267.37 188.088Z"/>
<path d="M314.264 172.934C314.72 173.41 314.236 174.371 313.581 174.287C313.106 174.15 312.844 173.531 313.076 173.093C313.308 172.656 313.968 172.527 314.348 172.843L314.264 172.934Z"/>
<path d="M280.194 222.165C279.955 221.926 279.716 221.686 279.477 221.447C279.922 220.734 281.136 220.72 281.598 221.422C281.367 221.961 280.769 222.317 280.185 222.262L280.194 222.165Z"/>
<path d="M324.742 168.961C324.502 169.2 324.263 169.439 324.023 169.678C323.31 169.233 323.296 168.019 323.999 167.557C324.537 167.787 324.894 168.386 324.839 168.97L324.742 168.961Z"/>
<path d="M255.671 168.065C255.864 167.771 256.201 167.578 256.552 167.559C257.327 167.867 257.047 169.306 256.213 169.301C255.8 169.055 255.573 168.53 255.677 168.061L255.671 168.065Z"/>
<path d="M238.119 169.33C237.671 169.571 237.038 169.339 236.851 168.867C236.665 168.394 236.969 167.793 237.46 167.663C238.117 167.771 238.477 168.681 238.071 169.209L238.119 169.33Z"/>
<path d="M295.394 173.83C295.39 172.99 293.786 172.997 293.79 173.837C293.793 174.677 295.397 174.67 295.394 173.83Z"/>
<path d="M286.32 202.69C285.942 201.931 284.492 202.654 284.871 203.413C285.249 204.172 286.699 203.449 286.32 202.69Z"/>
<path d="M327.191 164.07C327.357 164.905 328.952 164.588 328.786 163.753C328.62 162.919 327.025 163.236 327.191 164.07Z"/>
<path d="M279.635 188.063C280.164 187.508 281.21 187.609 281.624 188.254C281.328 188.683 280.883 189.008 280.384 189.159C280.007 188.913 279.722 188.528 279.595 188.096L279.635 188.063Z"/>
<path d="M313.127 187.966C313.716 187.615 314.597 187.987 314.755 188.654C314.414 189.12 313.753 189.323 313.208 189.127C312.944 188.842 312.933 188.358 313.183 188.06L313.127 187.966Z"/>
<path d="M280.264 183.186C280.052 182.799 280.532 182.321 280.97 182.382C281.407 182.442 281.724 182.826 281.937 183.213C281.607 183.892 280.459 183.916 280.101 183.252L280.264 183.186Z"/>
<path d="M327.991 192.777C328.382 192.135 329.613 192.541 329.545 193.29C329.4 193.717 328.881 193.974 328.453 193.831C328.025 193.688 327.765 193.17 327.906 192.742L327.991 192.777Z"/>
<path d="M275.687 187.735C276.191 187.457 276.915 187.929 276.872 188.503C276.829 189.077 276.053 189.437 275.582 189.107C275.111 188.776 275.178 187.934 275.692 187.675L275.687 187.735Z"/>
<path d="M279.842 197.642C280.146 197.383 280.635 197.377 280.945 197.627C280.972 198.274 280.589 198.921 280.007 199.207C279.428 198.937 279.322 198.011 279.824 197.617L279.842 197.642Z"/>
<path d="M322.376 198.38C322.976 198.976 324.115 197.829 323.515 197.233C322.915 196.637 321.776 197.783 322.376 198.38Z"/>
<path d="M266.822 169.525C266.136 168.955 266.939 167.587 267.771 167.907C268.146 168.549 267.589 169.506 266.845 169.496L266.822 169.525Z"/>
<path d="M267.009 163.56C266.638 162.806 265.199 163.516 265.57 164.269C265.942 165.022 267.38 164.313 267.009 163.56Z"/>
<path d="M231.321 164.63C231.034 164.419 230.838 164.089 230.788 163.737C231.083 163.311 231.523 162.987 232.018 162.833C232.519 163.438 232.101 164.53 231.324 164.645L231.321 164.63Z"/>
<path d="M313.58 203.686C313.013 203.684 312.581 202.972 312.85 202.472C313.119 201.973 313.962 201.948 314.253 202.436C314.543 202.923 314.106 203.658 313.54 203.629L313.58 203.686Z"/>
<path d="M323.316 153.755C323.823 153.921 324.269 154.268 324.555 154.718C324.151 155.308 323.236 155.464 322.659 155.042C322.824 154.613 322.989 154.185 323.154 153.756L323.316 153.755Z"/>
<path d="M275.686 197.639C275.694 197.141 276.227 196.723 276.713 196.833C277.199 196.943 277.5 197.55 277.293 198.003C276.731 198.385 275.866 198.201 275.509 197.622L275.686 197.639Z"/>
<path d="M284.432 178.566C284.168 178.063 284.585 177.348 285.154 177.331C285.723 177.314 286.182 178.003 285.948 178.521C285.527 178.802 284.937 178.804 284.515 178.525L284.432 178.566Z"/>
<path d="M246.92 158.879C246.746 159.557 245.767 159.855 245.244 159.389C245.047 158.972 245.26 158.401 245.694 158.243C246.128 158.085 246.675 158.417 246.708 158.877L246.92 158.879Z"/>
<path d="M240.27 188.834C240.108 188.417 240.344 187.89 240.764 187.734C241.183 187.577 241.707 187.822 241.857 188.244C241.721 188.905 240.833 189.272 240.27 188.9L240.27 188.834Z"/>
<path d="M255.847 198.537C255.562 198.32 255.364 197.991 255.307 197.637C255.604 197.343 255.901 197.05 256.199 196.756C256.969 197.085 256.686 198.514 255.849 198.526L255.847 198.537Z"/>
<path d="M241.409 203.536C240.839 203.745 240.354 202.815 240.775 202.377C241.196 201.939 242.017 202.161 242.311 202.693C242.013 202.992 241.716 203.29 241.418 203.589L241.409 203.536Z"/>
<path d="M240.695 159.945C240.275 159.428 240.749 158.497 241.414 158.533C241.829 158.78 242.058 159.304 241.958 159.776C241.571 159.965 241.12 160.02 240.699 159.929L240.695 159.945Z"/>
<path d="M309.937 183.392C310.446 183.53 310.235 184.412 309.719 184.526C309.204 184.639 308.711 184.288 308.307 183.949C308.668 183.457 309.358 183.236 309.937 183.427L309.937 183.392Z"/>
<path d="M318.534 183.86C318.253 183.654 317.973 183.449 317.692 183.243C318.134 182.502 319.389 182.48 319.857 183.203C319.606 183.615 319.083 183.841 318.611 183.74L318.534 183.86Z"/>
<path d="M327.177 159.71C326.86 159.267 327.279 158.545 327.822 158.565C328.366 158.585 328.74 159.277 328.491 159.761C328.081 160.047 327.495 160.049 327.082 159.767L327.177 159.71Z"/>
<path d="M295.346 188.982C294.828 189.401 293.899 188.928 293.932 188.263C294.105 187.963 294.443 187.766 294.788 187.764C295.273 187.938 295.577 188.508 295.449 189.007L295.346 188.982Z"/>
<path d="M251.603 206.003C251.885 206.218 252.168 206.432 252.45 206.647C251.992 207.087 251.413 207.401 250.794 207.546C250.371 207.036 250.857 206.104 251.518 206.161L251.603 206.003Z"/>
<path d="M247.003 168.062C246.625 167.303 245.175 168.026 245.553 168.785C245.932 169.544 247.382 168.821 247.003 168.062Z"/>
<path d="M240.518 207.017C240.734 206.731 241.064 206.533 241.418 206.478C241.703 206.694 241.901 207.023 241.958 207.376C241.658 207.676 241.359 207.975 241.06 208.274C240.653 208.012 240.431 207.492 240.523 207.017L240.518 207.017Z"/>
<path d="M275.172 159.379C275.675 159.997 276.854 159.035 276.351 158.418C275.848 157.801 274.669 158.762 275.172 159.379Z"/>
<path d="M318.059 178.53C318.016 177.702 319.445 177.371 319.77 178.134C319.665 178.895 318.467 179.182 318.028 178.552L318.059 178.53Z"/>
<path d="M327.993 188.802C327.699 189.362 326.625 188.862 326.864 188.276C326.924 187.822 327.496 187.521 327.904 187.729C328.313 187.936 328.407 188.575 328.075 188.891L327.993 188.802Z"/>
<path d="M281.087 173.598C280.517 173.807 280.032 172.876 280.453 172.438C280.874 172 281.695 172.222 281.988 172.754C281.691 173.053 281.393 173.351 281.096 173.65L281.087 173.598Z"/>
<path d="M246.482 206.546C246.869 206.325 247.356 206.809 247.295 207.25C247.234 207.691 246.845 208.009 246.456 208.227C245.805 207.91 245.832 206.783 246.497 206.498L246.482 206.546Z"/>
<path d="M260.372 160.131C260.188 159.37 261.169 158.492 261.736 159.032C261.701 159.461 261.649 159.928 261.348 160.236C261.046 160.543 260.407 160.521 260.285 160.108L260.372 160.131Z"/>
<path d="M296.074 216.023C296.118 216.851 294.689 217.182 294.364 216.419C294.469 215.658 295.667 215.371 296.105 216.001L296.074 216.023Z"/>
<path d="M256.386 206.641C255.562 206.754 255.777 208.326 256.6 208.213C257.423 208.101 257.209 206.529 256.386 206.641Z"/>
<path d="M294.431 206.486C295.144 206.942 295.154 208.162 294.448 208.629C293.737 208.164 293.734 206.944 294.444 206.476L294.431 206.486Z"/>
<path d="M261.429 173.466C260.859 173.851 259.985 173.669 259.618 173.087C259.993 172.784 260.424 172.47 260.905 172.509C261.387 172.547 261.801 173.164 261.48 173.525L261.429 173.466Z"/>
<path d="M276.412 217.298C276.117 217.858 275.043 217.358 275.283 216.772C275.343 216.318 275.914 216.017 276.323 216.225C276.731 216.432 276.825 217.071 276.494 217.387L276.412 217.298Z"/>
<path d="M232.392 179.008C231.821 179.217 231.336 178.287 231.757 177.849C232.178 177.41 233 177.632 233.293 178.165C232.995 178.463 232.698 178.762 232.4 179.06L232.392 179.008Z"/>
<path d="M310.319 154.896C310.024 155.456 308.95 154.955 309.19 154.37C309.25 153.915 309.821 153.615 310.23 153.822C310.638 154.03 310.732 154.668 310.401 154.985L310.319 154.896Z"/>
<path d="M289.884 163.39C290.103 163.96 289.88 164.666 289.375 165.007C289.043 164.599 288.69 164.11 288.803 163.595C288.915 163.081 289.803 162.876 289.927 163.388L289.884 163.39Z"/>
<path d="M276.409 192.766C276.827 193.284 276.355 194.213 275.689 194.179C275.39 194.007 275.193 193.669 275.191 193.323C275.364 192.839 275.935 192.535 276.434 192.662L276.409 192.766Z"/>
<path d="M280.081 159.587C280.032 160.372 281.533 160.467 281.582 159.681C281.631 158.895 280.131 158.801 280.081 159.587Z"/>
<path d="M304.9 172.57C305.187 172.781 305.384 173.111 305.432 173.465C305.176 173.874 304.656 174.099 304.183 174.006C303.755 173.497 304.239 172.56 304.902 172.614L304.9 172.57Z"/>
<path d="M285.603 221.442C285.388 221.728 285.057 221.926 284.703 221.981C284.417 221.766 284.22 221.437 284.166 221.083C284.439 220.758 284.831 220.463 285.251 220.528C285.672 220.592 285.95 221.211 285.606 221.462L285.603 221.442Z"/>
<path d="M319.505 173.098C319.14 173.663 318.291 173.842 317.729 173.473C317.473 173.088 317.878 172.535 318.339 172.5C318.8 172.466 319.217 172.773 319.531 173.111L319.505 173.098Z"/>
<path d="M250.714 169.07C250.364 168.646 250.768 167.886 251.317 167.909C251.866 167.932 252.219 168.667 251.922 169.129C251.624 169.591 250.852 169.604 250.511 169.173L250.714 169.07Z"/>
<path d="M266.826 212.067C266.931 212.354 266.87 212.695 266.671 212.927C266.117 213.186 265.336 212.662 265.474 212.067C265.612 211.472 266.71 211.491 266.741 212.102L266.826 212.067Z"/>
<path d="M313.933 198.125C313.53 198.09 313.501 197.43 313.834 197.201C314.167 196.971 314.614 197.047 315.009 197.132C315.197 197.383 315.264 197.721 315.185 198.024C314.795 198.207 314.344 198.258 313.923 198.166L313.933 198.125Z"/>
<path d="M275.685 167.879C276.047 167.878 276.408 167.878 276.769 167.878C276.939 168.144 277.003 168.477 276.945 168.787C276.538 168.949 276.069 169.11 275.68 168.91C275.29 168.711 275.264 167.978 275.699 167.929L275.685 167.879Z"/>
<path d="M296.131 168.283C295.85 167.548 294.446 168.085 294.727 168.82C295.008 169.555 296.412 169.018 296.131 168.283Z"/>
<path d="M318.089 169.508C317.998 169.101 318.085 168.615 318.43 168.38C318.775 168.145 319.37 168.358 319.371 168.775C319.306 169.138 319.221 169.537 318.926 169.758C318.631 169.979 318.078 169.825 318.093 169.457L318.089 169.508Z"/>
<path d="M232.473 169.852C231.905 170.044 231.265 169.368 231.488 168.812C231.71 168.256 232.639 168.208 232.918 168.737C232.744 169.051 232.57 169.364 232.395 169.678L232.473 169.852Z"/>
<path d="M254.945 217.122C254.885 216.458 255.826 215.97 256.334 216.401C256.554 216.767 256.403 217.303 256.025 217.5C255.647 217.697 255.121 217.515 254.947 217.126L254.945 217.122Z"/>
<path d="M300.47 193.752C301.046 193.224 300.037 192.123 299.46 192.652C298.884 193.18 299.894 194.281 300.47 193.752Z"/>
<path d="M271.715 199.22C271.219 199.379 270.715 198.738 270.926 198.262C271.137 197.785 271.846 197.669 272.253 197.994C272.375 198.467 272.137 199.007 271.707 199.237L271.715 199.22Z"/>
<path d="M303.943 155.855C303.401 155.325 304.209 154.228 304.876 154.589C305.396 155.102 304.623 156.159 303.976 155.818L303.943 155.855Z"/>
<path d="M272.077 173.272C271.472 173.34 270.699 173.299 270.468 172.735C270.832 172.263 271.503 172.054 272.07 172.236C272.333 172.525 272.343 173.01 272.094 173.31L272.077 173.272Z"/>
<path d="M299.287 163.313C299.899 163.059 300.635 163.829 300.354 164.429C300.065 164.734 299.52 164.737 299.227 164.437C298.935 164.136 298.954 163.591 299.267 163.311L299.287 163.313Z"/>
<path d="M294.263 158.682C294.479 158.396 294.809 158.198 295.163 158.144C295.449 158.358 295.647 158.688 295.7 159.041C295.486 159.327 295.156 159.524 294.803 159.578C294.516 159.364 294.319 159.033 294.269 158.679L294.263 158.682Z"/>
<path d="M272.023 183.634C271.637 184.294 270.489 184.258 270.146 183.575C270.474 182.891 271.626 182.859 271.992 183.524L272.023 183.634Z"/>
<path d="M246.457 202.119C246.845 202.068 247.137 202.559 247.011 202.929C246.885 203.299 246.491 203.515 246.106 203.584C245.821 203.37 245.624 203.04 245.571 202.687C245.784 202.4 246.115 202.203 246.469 202.154L246.457 202.119Z"/>
<path d="M286.239 212.226C286.255 212.508 286.272 212.79 286.288 213.071C285.939 213.57 284.982 213.301 284.944 212.694C284.906 212.087 285.823 211.701 286.231 212.153L286.239 212.226Z"/>
<path d="M304.901 197.098C305.187 197.313 305.385 197.643 305.439 197.997C305.225 198.284 304.896 198.481 304.542 198.534C304.256 198.32 304.059 197.99 304.005 197.637C304.219 197.35 304.55 197.153 304.905 197.103L304.901 197.098Z"/>
<path d="M260.391 217.475C260.259 217.076 260.37 216.577 260.727 216.354C261.084 216.132 261.657 216.33 261.717 216.746C261.565 217.057 261.412 217.369 261.259 217.68C260.954 217.645 260.649 217.61 260.345 217.575L260.391 217.475Z"/>
<path d="M286.358 164.093C286.4 164.576 285.884 165.019 285.413 164.906C284.941 164.792 284.684 164.162 284.942 163.751C285.338 163.371 286.116 163.587 286.261 164.116L286.358 164.093Z"/>
<path d="M245.715 193.107C246.075 192.584 247.096 193.037 246.95 193.655C246.799 193.966 246.461 194.177 246.115 194.177C245.717 194.024 245.52 193.49 245.725 193.116L245.715 193.107Z"/>
<path d="M318.641 162.821C319.083 163.508 318.215 164.548 317.46 164.237C317.356 163.56 317.927 162.857 318.612 162.821L318.641 162.821Z"/>
<path d="M240.502 178.163C240.481 177.488 241.409 177.013 241.944 177.424C242.222 178.171 240.942 178.838 240.489 178.182L240.502 178.163Z"/>
<path d="M327.261 177.613C327.506 177.291 327.962 177.148 328.347 177.273C328.525 177.522 328.589 177.849 328.517 178.146C328.22 178.32 327.923 178.493 327.626 178.667C327.232 178.507 327.042 177.976 327.245 177.603L327.261 177.613Z"/>
<path d="M290.315 158.649C290.838 159.009 290.385 160.03 289.768 159.884C289.456 159.733 289.245 159.395 289.245 159.049C289.398 158.651 289.932 158.454 290.306 158.659L290.315 158.649Z"/>
<path d="M246.669 163.699C247.192 164.059 246.74 165.08 246.122 164.934C245.811 164.783 245.599 164.445 245.6 164.099C245.752 163.701 246.286 163.504 246.661 163.709L246.669 163.699Z"/>
<path d="M291.009 177.436C290.621 177.996 289.77 178.169 289.194 177.804C289.183 176.953 290.656 176.664 290.968 177.456L291.009 177.436Z"/>
<path d="M259.996 198.36C260.212 198.074 260.542 197.876 260.896 197.822C261.182 198.036 261.379 198.366 261.433 198.719C261.219 199.005 260.889 199.202 260.536 199.256C260.248 199.042 260.052 198.711 260.002 198.357L259.996 198.36Z"/>
<path d="M267.207 173.829C266.991 174.115 266.661 174.312 266.307 174.367C266.021 174.153 265.824 173.823 265.77 173.47C265.985 173.184 266.314 172.987 266.668 172.933C266.955 173.146 267.152 173.478 267.201 173.832L267.207 173.829Z"/>
<path d="M318.108 188.643C318.392 187.984 319.509 187.958 319.824 188.603C319.504 189.294 318.343 189.334 317.976 188.667L318.108 188.643Z"/>
<path d="M290.281 221.423C289.982 221.605 289.683 221.788 289.385 221.97C289.1 221.763 288.907 221.435 288.863 221.086C289.122 220.678 289.642 220.453 290.117 220.545C290.289 220.806 290.35 221.137 290.282 221.442L290.281 221.423Z"/>
<path d="M289.573 211.707C289.406 211.305 290.063 211.107 290.493 211.17C290.68 211.557 290.734 212.007 290.643 212.427C290.384 212.6 290.055 212.664 289.75 212.602C289.578 212.342 289.517 212.011 289.585 211.707L289.573 211.707Z"/>
<path d="M259.996 169.143C260.212 168.856 260.542 168.659 260.896 168.604C261.182 168.819 261.379 169.148 261.433 169.502C261.219 169.788 260.889 169.985 260.536 170.038C260.248 169.825 260.052 169.494 260.002 169.139L259.996 169.143Z"/>
<path d="M309.227 177.619C309.625 177.443 309.829 178.102 309.764 178.532C309.378 178.72 308.929 178.777 308.508 178.693C308.337 178.431 308.273 178.102 308.334 177.795C308.594 177.623 308.925 177.562 309.229 177.63L309.227 177.619Z"/>
<path d="M246.99 173.474C247.081 173.774 247.024 174.116 246.84 174.37C246.528 174.444 246.186 174.38 245.922 174.198C245.925 173.836 245.928 173.474 245.931 173.112C246.235 172.721 247.001 172.975 247.012 173.47L246.99 173.474Z"/>
<path d="M261.649 189.182C261.289 189.705 260.268 189.252 260.414 188.634C260.565 188.323 260.903 188.112 261.249 188.112C261.647 188.265 261.844 188.799 261.639 189.173L261.649 189.182Z"/>
<path d="M252.043 172.436C252.394 172.513 252.524 173.05 252.247 173.279C251.647 173.34 250.882 173.309 250.653 172.751C250.904 172.254 251.61 172.055 252.085 172.348L252.043 172.436Z"/>
<path d="M271.716 216.576C272.002 216.791 272.2 217.122 272.254 217.476C272.04 217.762 271.71 217.959 271.357 218.013C271.071 217.798 270.874 217.469 270.82 217.115C271.034 216.828 271.365 216.631 271.719 216.581L271.716 216.576Z"/>
<path d="M284.518 187.889C284.976 187.556 285.72 187.758 285.948 188.276C285.583 188.746 284.913 188.954 284.346 188.772C284.104 188.527 284.216 188.041 284.541 187.927L284.518 187.889Z"/>
<path d="M256.599 184.492C256.239 185.015 255.218 184.563 255.364 183.945C255.515 183.634 255.853 183.423 256.199 183.423C256.598 183.575 256.794 184.109 256.589 184.484L256.599 184.492Z"/>
<path d="M285.442 197.445C285.05 196.843 283.9 197.592 284.292 198.194C284.684 198.796 285.834 198.047 285.442 197.445Z"/>
<path d="M246.898 188.443C246.819 189.197 245.506 189.335 245.272 188.613C245.531 188.032 246.461 187.925 246.845 188.432L246.898 188.443Z"/>
<path d="M280.397 217.601C279.618 217.306 279.899 215.856 280.732 215.874C281.116 216.431 280.94 217.292 280.369 217.654L280.397 217.601Z"/>
<path d="M241.704 173.4C241.429 173.198 241.154 172.997 240.879 172.795C241.165 172.102 242.341 172.077 242.657 172.756C242.454 173.043 242.126 173.238 241.776 173.28L241.704 173.4Z"/>
<path d="M294.619 201.957C295.148 202.318 295.046 203.276 294.453 203.518C293.737 203.28 293.866 201.981 294.615 201.89L294.619 201.957Z"/>
<path d="M318.231 159.955C318.623 160.557 319.773 159.808 319.381 159.206C318.989 158.604 317.839 159.353 318.231 159.955Z"/>
<path d="M284.561 216.056C284.85 215.395 285.973 215.374 286.285 216.025C285.981 216.685 284.847 216.679 284.551 216.015L284.561 216.056Z"/>
<path d="M266.016 158.967C266.218 158.691 266.419 158.416 266.62 158.141C267.313 158.427 267.339 159.604 266.659 159.92C266.373 159.716 266.178 159.388 266.136 159.039L266.016 158.967Z"/>
<path d="M309.253 173.243C308.793 173.169 308.851 172.375 309.29 172.217C309.729 172.06 310.209 172.367 310.479 172.747C310.225 173.155 309.704 173.379 309.233 173.28L309.253 173.243Z"/>
<path d="M304.04 188.278C304.269 187.768 304.992 187.56 305.456 187.871C305.596 188.265 305.341 188.752 304.937 188.861C304.533 188.969 304.068 188.676 303.992 188.265L304.04 188.278Z"/>
<path d="M261.235 182.713C261.695 182.788 261.638 183.582 261.199 183.74C260.76 183.897 260.28 183.59 260.01 183.21C260.264 182.801 260.785 182.578 261.256 182.677L261.235 182.713Z"/>
<path d="M299.474 189.172C299.866 189.774 301.017 189.025 300.624 188.423C300.232 187.821 299.082 188.57 299.474 189.172Z"/>
<path d="M267.581 207.755C268.183 207.363 267.434 206.213 266.832 206.605C266.23 206.997 266.979 208.147 267.581 207.755Z"/>
<path d="M313.846 178.81C313.571 178.609 313.295 178.407 313.02 178.206C313.306 177.513 314.483 177.487 314.799 178.167C314.595 178.454 314.267 178.649 313.918 178.691L313.846 178.81Z"/>
<path d="M310.095 188.236C309.806 188.897 308.683 188.917 308.371 188.267C308.674 187.607 309.808 187.613 310.105 188.277L310.095 188.236Z"/>
<path d="M324.162 178.136C323.873 178.797 322.751 178.818 322.438 178.167C322.742 177.507 323.876 177.513 324.172 178.177L324.162 178.136Z"/>
<path d="M254.801 202.98C254.998 202.567 255.195 202.155 255.392 201.742C255.785 202.012 256.141 202.461 256.029 202.924C255.916 203.387 255.1 203.519 255.005 203.052L254.801 202.98Z"/>
<path d="M328.642 173.433C328.229 173.236 327.817 173.039 327.404 172.842C327.674 172.449 328.123 172.093 328.586 172.205C329.049 172.317 329.181 173.134 328.714 173.228L328.642 173.433Z"/>
<path d="M304.189 206.492C304.506 206.405 304.86 206.467 305.129 206.656C304.986 207.168 304.64 207.62 304.183 207.891C303.623 207.683 303.632 206.712 304.196 206.514L304.189 206.492Z"/>
<path d="M231.659 183.634C231.433 182.814 233.013 182.401 233.217 183.226C232.989 183.72 232.28 183.91 231.835 183.597L231.659 183.634Z"/>
<path d="M231.701 173.604C231.241 173.53 231.298 172.735 231.737 172.578C232.176 172.42 232.656 172.727 232.926 173.108C232.672 173.516 232.151 173.739 231.68 173.641L231.701 173.604Z"/>
<path d="M300.424 201.963C300.404 202.326 300.178 202.669 299.854 202.832C299.189 202.527 299.196 201.386 299.864 201.089C300.149 201.293 300.343 201.621 300.385 201.969L300.424 201.963Z"/>
<path d="M241.426 199.318C240.88 199.324 240.797 198.535 240.906 198C241.181 197.727 241.677 197.725 241.954 197.995C242.075 198.467 241.837 199.008 241.407 199.238L241.426 199.318Z"/>
<path d="M305.396 202.699C305.219 201.994 303.872 202.331 304.049 203.036C304.225 203.741 305.572 203.404 305.396 202.699Z"/>
<path d="M304.697 164.768C304.308 164.988 303.886 164.356 304.115 163.972C304.343 163.589 304.863 163.504 305.308 163.543C305.489 164.013 305.185 164.608 304.698 164.736L304.697 164.768Z"/>
<path d="M290.092 172.614C290.552 172.688 290.494 173.482 290.055 173.64C289.616 173.797 289.136 173.49 288.866 173.11C289.12 172.702 289.641 172.478 290.112 172.577L290.092 172.614Z"/>
<path d="M237.47 177.733C237.696 178.553 236.117 178.967 235.912 178.141C236.14 177.648 236.849 177.457 237.294 177.77L237.47 177.733Z"/>
<path d="M261.605 192.769C261.97 193.173 261.786 193.925 261.277 194.117C260.472 193.933 260.864 192.391 261.659 192.614L261.605 192.769Z"/>
<path d="M276.114 177.247C276.164 177.554 276.214 177.861 276.263 178.167C275.806 178.509 275.051 178.314 274.817 177.793C275.06 177.384 275.582 177.161 276.046 177.27L276.114 177.247Z"/>
<path d="M250.989 212.787C250.246 212.964 250.141 211.606 250.787 211.199C251.373 211.47 251.491 212.398 250.992 212.807L250.989 212.787Z"/>
<path d="M267.367 221.309C267.827 221.384 267.77 222.178 267.331 222.336C266.892 222.493 266.412 222.186 266.142 221.806C266.396 221.397 266.917 221.174 267.388 221.272L267.367 221.309Z"/>
<path d="M304.704 177.443C304.792 177.742 304.737 178.08 304.557 178.336C304.084 178.445 303.538 178.233 303.313 177.803C303.566 177.305 304.272 177.106 304.748 177.397L304.704 177.443Z"/>
<path d="M303.282 159.046C303.484 158.755 303.819 158.56 304.172 158.529C304.724 158.756 304.728 159.703 304.178 159.935C303.879 159.637 303.579 159.339 303.279 159.041L303.282 159.046Z"/>
<path d="M246.286 178.146C245.882 178.511 245.129 178.328 244.938 177.818C245.122 177.013 246.664 177.406 246.441 178.2L246.286 178.146Z"/>
<path d="M286.166 193.244C286.392 194.064 284.812 194.477 284.607 193.652C284.836 193.158 285.545 192.968 285.99 193.281L286.166 193.244Z"/>
<path d="M293.881 163.33C294.272 163.144 294.798 163.339 294.973 163.735C294.678 164.029 294.382 164.323 294.087 164.617C293.602 164.436 293.48 163.676 293.883 163.351L293.881 163.33Z"/>
<path d="M298.926 159.804C298.568 159.554 298.563 158.938 298.917 158.682C299.271 158.426 299.854 158.624 299.979 159.043C299.771 159.434 299.383 159.725 298.949 159.814L298.926 159.804Z"/>
<path d="M300.089 207.377C300.051 207.878 299.286 208.118 298.969 207.729C298.806 207.254 299.109 206.72 299.537 206.458C299.721 206.753 299.905 207.047 300.089 207.342L300.089 207.377Z"/>
<path d="M333.033 168.942C332.733 169.031 332.395 168.975 332.139 168.796C332.03 168.323 332.242 167.777 332.673 167.552C333.17 167.805 333.37 168.51 333.079 168.987L333.033 168.942Z"/>
<path d="M280.01 168.965C279.671 168.518 279.866 167.773 280.381 167.55C280.788 167.8 281.01 168.318 280.91 168.785C280.65 168.956 280.32 169.016 280.016 168.949L280.01 168.965Z"/>
<path d="M303.891 168.345C304.094 168.067 304.298 167.788 304.501 167.51C304.944 167.737 305.192 168.288 305.07 168.77C304.777 169.169 304 168.912 304.002 168.417L303.891 168.345Z"/>
<path d="M309.588 212.611C309.249 212.164 309.444 211.419 309.959 211.196C310.366 211.445 310.588 211.964 310.488 212.43C310.228 212.601 309.898 212.662 309.594 212.595L309.588 212.611Z"/>
<path d="M255.483 178.354C255.252 178.036 255.382 177.523 255.736 177.353C256.09 177.184 256.571 177.405 256.674 177.784C256.528 178.276 255.942 178.588 255.452 178.434L255.483 178.354Z"/>
<path d="M251.225 215.349C251.635 215.545 252.045 215.74 252.455 215.936C252.225 216.396 251.669 216.668 251.164 216.568C250.907 216.268 250.895 215.786 251.135 215.472L251.225 215.349Z"/>
<path d="M290.545 216.563C290.591 216.866 290.637 217.169 290.683 217.473C290.425 217.654 290.084 217.71 289.782 217.62C289.254 217.207 289.928 216.174 290.518 216.49L290.545 216.563Z"/>
<path d="M305.114 212.425C305.09 212.788 304.865 213.131 304.541 213.298C304.117 213.073 303.887 212.535 304.018 212.072C304.313 211.677 305.085 211.936 305.082 212.43L305.114 212.425Z"/>
<path d="M295.164 178.339C294.927 178.562 294.689 178.785 294.452 179.008C293.957 178.906 293.766 178.151 294.153 177.827C294.541 177.502 295.251 177.822 295.264 178.327L295.164 178.339Z"/>
<path d="M328.5 168.428C328.71 168.978 328.225 169.665 327.637 169.652C327.133 169.117 327.888 168.071 328.554 168.382L328.5 168.428Z"/>
<path d="M328.353 184.111C327.95 184.28 327.75 183.62 327.814 183.188C328.269 182.862 329.004 183.067 329.224 183.582C329.02 183.867 328.693 184.06 328.346 184.102L328.353 184.111Z"/>
<path d="M241.949 168.779C242.039 169.314 241.346 169.791 240.878 169.516C240.86 169.124 240.865 168.675 241.159 168.415C241.453 168.154 242.077 168.415 241.933 168.78L241.949 168.779Z"/>
<path d="M299.136 217.293C298.845 217.092 298.65 216.756 298.619 216.403C298.847 215.851 299.793 215.847 300.025 216.397C299.727 216.697 299.429 216.996 299.131 217.296L299.136 217.293Z"/>
<path d="M266.309 203.227C266.022 203.011 265.825 202.681 265.77 202.327C265.986 202.041 266.315 201.843 266.669 201.788C267.018 202.228 266.811 202.984 266.287 203.186L266.309 203.227Z"/>
<path d="M299.111 184.491C298.829 184.033 299.288 183.337 299.819 183.416C300.352 183.827 299.686 184.869 299.089 184.559L299.111 184.491Z"/>
<path d="M242.441 183.131C242.784 183.735 241.712 184.448 241.287 183.899C240.917 183.39 241.903 182.746 242.32 183.218L242.441 183.131Z"/>
<path d="M313.924 154.556C314.212 154.445 314.56 154.511 314.786 154.721C315.029 155.169 314.527 155.8 314.035 155.663C313.544 155.527 313.438 154.728 313.877 154.469L313.924 154.556Z"/>
<path d="M309.973 201.766C310.255 202.223 309.796 202.92 309.265 202.841C308.732 202.43 309.398 201.388 309.995 201.697L309.973 201.766Z"/>
<path d="M294.616 184.629C294.143 184.849 293.847 184.086 293.908 183.568C294.162 183.266 294.709 183.295 294.93 183.622C295.152 183.95 294.974 184.468 294.599 184.591L294.616 184.629Z"/>
<path d="M261.633 177.966C261.854 178.295 261.707 178.808 261.345 178.969C260.983 179.131 260.503 178.898 260.406 178.513C260.636 178.099 261.162 177.875 261.621 177.996L261.633 177.966Z"/>
<path d="M266.859 178.589C266.556 178.637 266.252 178.685 265.949 178.733C265.646 178.286 266.123 177.571 266.652 177.678C267.007 177.756 267.136 178.301 266.854 178.531L266.859 178.589Z"/>
<path d="M255.86 164.644C255.212 164.806 255.298 163.625 255.834 163.226C256.401 163.416 256.399 164.4 255.831 164.588L255.86 164.644Z"/>
<path d="M251.178 202.126C251.46 202.584 251.001 203.28 250.469 203.201C249.937 202.79 250.602 201.748 251.199 202.058L251.178 202.126Z"/>
<path d="M245.444 184.215C245.641 183.967 245.838 183.718 246.035 183.47C246.486 183.488 246.791 184.09 246.538 184.465C246.286 184.84 245.613 184.783 245.427 184.371L245.444 184.215Z"/>
<path d="M299.458 172.947C299.258 172.565 299.46 172.031 299.862 171.875C300.15 172.068 300.343 172.397 300.369 172.743C300.249 173.088 299.732 173.205 299.474 172.947L299.458 172.947Z"/>
<path d="M250.402 184.129C250.202 183.747 250.403 183.213 250.805 183.057C251.094 183.249 251.287 183.579 251.312 183.925C251.192 184.27 250.675 184.387 250.418 184.129L250.402 184.129Z"/>
<path d="M333.111 163.544C333.158 163.86 333.206 164.176 333.253 164.492C332.939 164.555 332.624 164.617 332.31 164.679C332.013 164.208 332.479 163.482 333.03 163.556L333.111 163.544Z"/>
<path d="M256.24 188.061C256.499 188.545 256.025 189.231 255.481 189.16C255.314 188.894 255.251 188.565 255.308 188.256C255.569 188.084 255.901 188.022 256.206 188.09L256.24 188.061Z"/>
<path d="M255.506 173.96C254.939 173.791 254.923 172.81 255.484 172.623C256.047 172.808 256.034 173.791 255.466 173.962L255.506 173.96Z"/>
<path d="M256.4 212.418C256.433 212.767 256.193 213.123 255.857 213.222C255.416 213.168 255.164 212.555 255.439 212.206C255.715 211.857 256.369 211.959 256.525 212.376L256.4 212.418Z"/>
<path d="M260.501 207.936C260.302 207.554 260.503 207.019 260.905 206.864C261.194 207.056 261.386 207.386 261.412 207.732C261.292 208.076 260.775 208.194 260.518 207.935L260.501 207.936Z"/>
<path d="M255.641 158.686C255.678 158.145 256.318 157.603 256.732 157.953C256.788 158.306 256.79 158.717 256.529 158.961C256.268 159.206 255.702 159.023 255.774 158.673L255.641 158.686Z"/>
<path d="M304.718 193.996C304.375 194.165 303.956 193.752 304.031 193.377C304.107 193.002 304.514 192.767 304.896 192.764C305.212 193.128 305.125 193.763 304.724 194.029L304.718 193.996Z"/>
<path d="M266.001 197.558C266.2 197.315 266.399 197.072 266.598 196.829C267.025 196.811 267.353 197.365 267.132 197.731C266.91 198.097 266.267 198.063 266.085 197.676L266.001 197.558Z"/>
<path d="M295.16 194.194C294.853 194.272 294.514 194.221 294.244 194.056C294.247 193.571 294.669 193.058 295.144 193.159C295.618 193.26 295.616 194.156 295.132 194.13L295.16 194.194Z"/>
<path d="M290.455 182.724C290.863 182.837 291.072 183.39 290.84 183.744C290.498 183.826 290.121 183.746 289.843 183.532C290.033 183.232 290.223 182.931 290.414 182.631L290.455 182.724Z"/>
<path d="M255.647 192.522C256.236 192.5 255.947 193.468 255.482 193.828C255.174 193.468 255.269 192.841 255.67 192.589L255.647 192.522Z"/>
<path d="M313.733 192.586C314.203 192.814 314.079 193.67 313.564 193.756C312.952 193.636 313.133 192.477 313.752 192.55L313.733 192.586Z"/>
<path d="M279.78 178.28C279.486 178.119 279.67 177.61 279.996 177.532C280.322 177.453 280.646 177.641 280.929 177.821C280.914 178.315 280.131 178.544 279.853 178.136L279.78 178.28Z"/>
<path d="M267.029 193.842C266.802 194.312 265.945 194.188 265.86 193.673C265.98 193.061 267.139 193.242 267.066 193.862L267.029 193.842Z"/>
<path d="M241.271 211.359C241.404 210.935 242.136 210.924 242.282 211.343C242.138 211.764 241.403 211.754 241.272 211.329L241.271 211.359Z"/>
<path d="M260.75 221.098C260.882 220.675 261.614 220.663 261.76 221.082C261.616 221.503 260.882 221.493 260.75 221.068L260.75 221.098Z"/>
<path d="M332.8 159.018C332.699 159.421 332.156 159.636 331.807 159.41C331.634 159.085 331.768 158.614 332.111 158.483C332.455 158.352 332.897 158.686 332.815 159.045L332.8 159.018Z"/>
<path d="M323.22 208.042C322.977 207.843 322.734 207.644 322.491 207.446C322.473 207.018 323.027 206.69 323.393 206.912C323.759 207.133 323.725 207.776 323.338 207.958L323.22 208.042Z"/>
<path d="M313.742 212.799C313.387 212.642 313.519 211.984 313.906 211.976C314.423 211.992 314.149 213.063 313.755 212.729L313.742 212.799Z"/>
<path d="M262.207 552C239.503 531.258 220.284 506.71 205.597 479.691C199.402 468.294 193.866 455.489 196.185 442.727C200.522 418.855 191.558 394.867 184.497 371.654C177.435 348.441 172.433 322.228 183.792 300.788C165.874 317.311 158.688 342.348 154.846 366.417C145.941 422.217 150.953 480.185 169.304 533.629C147.757 494.185 146.909 446.993 148.953 402.094C150.543 367.156 154.45 329.951 176.397 302.721C142.609 330.276 132.329 376.79 124.873 419.747C117.873 460.082 111.642 502.416 124.622 541.243C112.375 518.667 114.375 491.349 116.903 465.791C122.719 407.001 131.672 343.693 172.852 301.333C183.743 290.129 197.037 280.63 212.294 277.257C224.116 274.643 235.506 270.083 245.865 263.814C248.362 249.192 234.604 237.678 224.991 226.379C214.227 213.727 207.512 197.681 206.056 181.133C205.194 171.338 203.137 157.992 193.313 157.575C185.237 157.231 179.158 147.487 182.399 140.083C185.641 132.679 196.925 130.537 202.655 136.237C194.481 105.596 211.748 70.2424 240.939 57.8489C236.179 51.042 246.568 42.8844 254.817 43.8593C263.065 44.8342 271.049 49.8165 279.148 47.9758C276.373 43.0883 280.82 36.5948 286.299 35.3429C291.779 34.0909 297.402 36.4697 302.317 39.1965C333.866 56.7001 354.716 91.9991 354.815 128.079C355.631 121.493 365.514 119.238 370.348 123.785C375.181 128.331 374.951 136.469 371.519 142.148C368.086 147.828 362.236 151.557 356.446 154.798C356.592 178.724 347.493 202.59 331.455 220.346C319.785 233.266 303.25 246.97 307.08 263.954C313.288 262.581 319.568 269.743 317.396 275.718C344.014 273.501 368.854 289.567 387.712 308.483C415.357 336.212 435.227 371.613 444.497 409.656C446.116 416.301 455.57 418.112 461.419 414.567C467.268 411.022 470.274 404.317 472.94 398.018C490.491 356.542 508.042 315.065 525.593 273.589C519.718 237.489 524.945 239.501 527.696 222.62C535.218 203 533.781 185.272 536.823 166.597C537.652 161.512 541.209 154.802 545.905 156.922C548.28 157.994 549.118 160.889 549.625 163.445C552.472 177.81 553.382 192.558 552.322 207.164C558.398 196.771 564.474 186.378 570.549 175.984C573.874 170.296 581.219 163.926 585.831 168.632C588.364 171.217 587.698 175.458 586.653 178.923C583.328 189.944 577.908 200.33 570.768 209.36C580.394 212.644 591.544 217.629 593.229 227.659C593.928 231.82 592.749 236.054 591.353 240.035C586.497 253.874 578.826 266.718 568.945 277.556C571.212 276.188 572.695 280.259 572.244 282.869C561.405 345.577 534.994 405.533 496.041 455.857C484.545 470.708 468.951 486.025 450.253 484.273C438.549 483.177 428.659 475.497 419.502 468.126C409.642 460.19 399.782 452.253 389.922 444.317C412.874 449.444 425.656 478.076 449.004 480.903C467.987 483.201 483.922 467.302 495.395 452.004C532.832 402.089 558.401 343.333 569.412 281.917C554.441 284.43 538.858 283.204 524.465 278.381C510.183 322.66 492.198 365.743 470.757 407.034C467.051 414.17 460.459 422.466 452.847 419.871C449.44 418.709 447.138 415.582 445.219 412.537C426.033 382.108 421.575 341.531 393.592 318.925C404.87 388.869 387.089 459.994 366.962 527.922C382.37 474.991 391.756 420.309 394.881 365.269C395.598 352.633 395.956 339.718 392.38 327.578C388.804 315.437 380.64 304.013 368.79 299.568C361.072 349.766 315.865 387.107 304.425 436.59C295.175 476.602 280.959 515.464 262.207 552ZM308.677 414.585C325.876 381.888 348.424 351.956 362.424 317.766C365.607 309.993 368.233 300.754 363.905 293.555C362.343 290.956 360.014 288.922 357.725 286.934C354.104 283.79 350.134 280.492 345.355 280.104C339.013 279.588 333.514 284.331 329.434 289.214C319.54 301.053 313.15 315.363 307.075 329.546C292.542 363.47 279.032 397.998 270.535 433.913C262.039 469.828 258.651 507.317 264.494 543.758C271.893 510.339 296.772 482.022 300.182 447.964C300.744 442.354 300.706 436.661 301.927 431.157C303.222 425.316 305.891 419.88 308.677 414.585ZM342.725 105.997C340.396 101.507 337.49 97.2117 333.516 94.0824C324.664 87.1116 312.2 87.0932 301.125 89.1646C294.046 90.4888 287.101 92.5306 280.431 95.2488C278.69 95.9584 276.841 96.73 274.991 96.3937C273.141 96.0574 271.477 94.0628 272.235 92.3423C272.381 92.0113 272.607 91.7041 272.646 91.3444C272.754 90.3372 271.474 89.8331 270.471 89.6885C255.229 87.4908 238.999 90.061 226.186 98.6028C213.372 107.145 204.502 122.039 204.977 137.431C205.083 140.885 207.68 143.711 210.287 145.979C214.274 149.449 218.667 152.451 223.349 154.905C225.45 156.006 228.333 156.879 229.939 155.133C233.125 151.67 238.418 151.401 243.123 151.501C259.475 151.852 275.916 153.738 292.127 151.559C302.002 150.232 311.62 147.414 321.458 145.828C324.471 145.342 327.582 144.976 330.552 145.68C333.522 146.383 336.359 148.359 337.304 151.261C341.134 146.932 344.579 142.263 347.584 137.326C348.485 135.844 349.36 134.304 349.694 132.602C349.99 131.092 349.844 129.532 349.643 128.006C348.636 120.342 346.283 112.858 342.725 105.997ZM318.199 213.517C323.97 210.986 327.213 204.849 329.396 198.937C334.6 184.848 336.272 169.47 334.219 154.592C334.013 153.096 333.737 151.529 332.783 150.359C331.272 148.505 328.571 148.217 326.181 148.315C320.561 148.544 315.093 150.092 309.622 151.398C298.102 154.148 286.301 155.857 274.458 155.897C262.754 155.936 251.07 154.349 239.375 154.803C237.047 154.893 234.586 155.112 232.696 156.475C229.701 158.636 229.174 162.822 229.055 166.514C228.599 180.548 230.256 194.649 233.951 208.196C234.173 209.01 234.423 209.859 235.015 210.46C235.653 211.108 236.579 211.36 237.452 211.615C251.582 215.753 263.804 227.604 278.492 226.581C289.387 225.823 298.548 218.008 309.212 215.654C312.226 214.989 315.373 214.756 318.199 213.517ZM197.41 445.355C196.533 458.089 203.738 469.815 210.667 480.534C217.682 491.385 224.696 502.236 231.71 513.088C221.365 478.659 216.485 442.826 213.166 407.03C209.7 369.653 207.98 331.31 218.2 295.191C219.822 289.46 221.765 283.754 224.903 278.691C215.495 278.446 205.486 279.167 197.811 284.614C192.822 288.155 189.281 293.41 186.658 298.937C178.552 316.017 178.532 335.95 182.115 354.513C185.699 373.076 192.651 390.79 198.098 408.894C199.681 414.154 201.152 419.556 200.959 425.046C200.718 431.925 197.882 438.489 197.41 445.355ZM243.106 217.154C238.257 215.292 232.375 213.772 230.447 208.949C229.542 206.684 229.762 204.151 229.501 201.726C229.24 199.301 228.223 196.641 225.955 195.745C220.489 193.585 215.246 190.862 210.336 187.633C212.772 201.958 219.259 215.572 228.85 226.488C233.653 231.955 239.222 236.77 243.478 242.673C247.735 248.576 250.629 256.003 249.062 263.109C248.562 265.374 251.816 266.36 254.135 266.305C269.535 265.941 284.934 265.511 300.331 265.014C302.94 264.93 304.479 261.883 304.418 259.273C304.358 256.664 303.306 254.141 303.341 251.531C303.391 247.695 305.743 244.308 308.137 241.31C315.227 232.429 323.509 224.57 330.88 215.919C338.251 207.269 344.818 197.578 347.621 186.565C342.743 194.792 332.452 199.034 328.636 207.805C326.47 212.783 321.232 215.712 316.045 217.313C310.857 218.913 305.359 219.563 300.408 221.79C297.869 222.932 295.528 224.466 293.042 225.718C284.309 230.116 273.785 230.814 264.547 227.607C257.027 224.997 250.537 220.008 243.106 217.154ZM551.504 238.912C556.855 238.594 563.318 240.676 566.862 236.655C567.674 235.734 568.209 234.467 567.915 233.276C567.514 231.654 565.808 230.762 564.254 230.148C554.331 226.229 543.224 225.367 532.814 227.708C529.189 228.523 527.071 231.87 526.276 235.5C525.482 239.13 525.675 243.059 526.276 246.726C527.804 256.04 529.332 265.353 530.86 274.666C530.929 275.086 531.003 275.52 531.239 275.873C531.593 276.405 532.237 276.651 532.841 276.857C540.361 279.419 548.362 280.561 556.299 280.207C559.454 280.066 562.867 279.567 565.082 277.314C575.923 266.291 583.849 252.425 587.845 237.489C585.669 239.436 582.875 240.952 579.964 240.727C577.053 240.502 574.224 238.025 574.414 235.111C568.834 239.412 562.26 243.963 555.36 242.535C550.085 241.443 544.262 243.78 541.205 248.216C539.342 247.726 540.059 244.843 541.415 243.474C544.072 240.793 547.737 239.136 551.504 238.912ZM231.071 321.812C227.417 322.381 223.781 323.062 220.175 323.876C217.638 324.449 214.619 325.614 214.29 328.193C213.636 333.336 213.281 338.516 213.227 343.7C240.81 337.194 270.097 338.069 297.242 346.209C300.127 339.451 303.011 332.694 305.895 325.937C281.607 319.359 255.934 317.944 231.071 321.812ZM332.975 281.278C328.611 278.968 323.528 278.04 318.629 278.659C317.662 278.781 316.576 279.049 316.11 279.905C314.25 283.323 310.184 284.801 306.422 285.797C287.494 290.81 267.509 290.697 248.108 288.053C244.501 287.561 240.845 286.965 237.568 285.38C234.291 283.795 231.394 281.069 230.422 277.561C227.839 277.522 226.288 280.343 225.37 282.758C222.595 290.059 220.196 297.504 218.188 305.052C249.642 297.927 282.885 298.848 313.896 307.705C316.855 304.091 319.052 299.856 320.301 295.355C320.884 293.254 322.496 291.622 324.048 290.09C327.024 287.153 330 284.215 332.975 281.278ZM281.6 387.707C284.64 380.985 287.222 374.056 289.321 366.983C265.104 362.971 240.303 362.501 215.951 365.593C214.918 365.724 213.772 365.925 213.148 366.758C212.599 367.491 212.627 368.491 212.68 369.405C212.939 373.94 213.199 378.475 213.458 383.011C213.528 384.229 214.109 385.876 215.305 385.63C237.159 381.124 260.072 381.842 281.6 387.707ZM583.68 179.564C584.374 177.843 585.04 176.033 584.889 174.184C584.738 172.335 583.533 170.44 581.71 170.097C580.573 169.883 579.401 170.295 578.416 170.902C576.003 172.391 574.491 174.947 573.073 177.403C566.656 188.523 560.238 199.642 553.82 210.761C552.988 212.202 550.584 211.756 549.671 210.364C548.758 208.972 548.88 207.171 549.009 205.511C550.088 191.604 549.278 177.552 546.61 163.861C546.444 163.011 546.259 162.132 545.747 161.433C544.265 159.406 540.806 160.111 539.314 162.129C537.822 164.148 537.735 166.844 537.715 169.355C537.567 188.478 537.747 208.28 530.023 225.774C537.869 222.728 546.702 222.289 554.812 224.54C555.971 224.862 557.172 225.24 558.354 225.017C559.536 224.793 560.659 223.717 560.453 222.532C559.679 218.091 562.867 214.054 565.669 210.523C573.118 201.14 579.205 190.677 583.68 179.564ZM314.613 271.127C314.079 268.935 312.114 266.922 309.867 267.123C286.939 269.176 263.881 269.76 240.879 268.869C239.517 268.817 238.084 268.774 236.876 269.405C236.023 269.85 235.356 270.604 234.904 271.453C233.068 274.899 234.932 279.392 238.061 281.727C241.191 284.061 245.221 284.743 249.095 285.232C266.004 287.367 283.237 287.142 300.023 284.193C303.648 283.556 307.366 282.744 310.366 280.613C313.366 278.482 315.485 274.702 314.613 271.127ZM273.739 411.523C273.872 411.065 273.999 410.545 273.758 410.133C273.501 409.694 272.936 409.564 272.434 409.478C254.208 406.387 235.553 407.906 217.129 409.433C216.608 409.476 216.015 409.559 215.723 409.992C215.494 410.33 215.527 410.773 215.568 411.179C216.102 416.409 216.636 421.64 217.17 426.87C217.272 427.875 217.698 429.177 218.706 429.126C234.726 428.308 250.824 429.017 266.71 431.242C267.72 431.384 268.327 430.179 268.611 429.201C270.32 423.308 272.03 417.416 273.739 411.523ZM263.292 458.585C263.371 457.833 263.416 456.975 262.895 456.427C262.497 456.007 261.879 455.899 261.305 455.819C248.834 454.082 236.162 455.315 223.631 456.55C223.005 456.612 222.28 456.735 221.978 457.287C221.771 457.666 221.836 458.13 221.908 458.556C222.748 463.567 223.589 468.578 224.43 473.589C224.551 474.311 224.932 475.236 225.655 475.128C237.608 473.347 250.328 472.823 261.26 477.974C261.938 471.511 262.615 465.048 263.292 458.585ZM213.156 185.694C217.671 188.795 222.628 191.253 227.83 192.968C225.565 182.522 225.122 171.684 226.525 161.088C226.703 159.748 225.194 158.883 223.949 158.358C216.665 155.287 210.054 150.631 204.71 144.807C205.262 155.862 206.457 166.884 208.287 177.8C208.561 179.437 208.868 181.119 209.754 182.523C210.588 183.843 211.869 184.81 213.156 185.694ZM333.518 196.918C338.369 192.976 342.617 188.328 346.376 183.335C348.405 180.642 350.316 177.804 351.44 174.625C352.57 171.428 352.863 168.002 352.997 164.614C353.349 155.748 352.672 146.841 350.985 138.129C347.09 143.42 343.196 148.711 339.301 154.002C338.704 154.814 338.092 155.656 337.862 156.637C337.677 157.424 337.752 158.246 337.818 159.051C338.858 171.793 337.388 184.734 333.518 196.918ZM258.277 520.489C259.13 520.661 259.521 519.47 259.541 518.6C259.665 513.401 259.788 508.201 259.912 503.002C259.923 502.534 259.93 502.045 259.728 501.623C259.354 500.843 258.416 500.545 257.578 500.328C252.845 499.097 248.044 497.858 243.154 497.917C239.092 497.966 235.07 498.913 231.01 498.813C230.55 498.802 229.95 498.878 229.853 499.328C229.819 499.484 229.863 499.645 229.908 499.799C231.699 506.019 234.058 512.075 236.945 517.868C237.324 518.627 237.776 519.443 238.566 519.751C239.124 519.968 239.747 519.887 240.341 519.813C246.304 519.067 252.387 519.296 258.277 520.489ZM355.696 130.071C354.767 131.507 353.945 133.076 353.793 134.779C353.699 135.824 353.863 136.873 354.025 137.909C354.652 141.902 355.278 145.896 355.904 149.889C355.941 150.121 355.983 150.366 356.138 150.543C356.501 150.958 357.175 150.738 357.666 150.488C359.649 149.481 361.655 148.459 363.329 146.995C364.671 145.821 365.765 144.392 366.796 142.936C368.949 139.893 370.926 136.5 371.066 132.775C371.206 129.05 368.92 125 365.254 124.328C361.371 123.615 357.84 126.757 355.696 130.071ZM186.988 137.979C185.5 139.282 184.961 141.353 184.714 143.316C184.488 145.113 184.449 146.985 185.072 148.686C185.932 151.032 187.976 152.791 190.237 153.854C192.499 154.918 194.99 155.373 197.449 155.819C198.663 156.039 199.876 156.26 201.09 156.48C201.391 156.534 201.747 156.572 201.959 156.353C202.136 156.171 202.136 155.886 202.124 155.633C201.924 151.138 201.723 146.643 201.522 142.148C201.437 140.238 200.072 138.556 198.389 137.649C196.707 136.742 194.747 136.498 192.837 136.45C190.773 136.397 188.54 136.618 186.988 137.979ZM577.118 214.898C576.225 213.922 574.907 213.475 573.64 213.096C572.298 212.694 570.848 212.326 569.517 212.764C568.006 213.262 567.006 214.675 566.209 216.052C565.002 218.134 564.001 220.335 563.226 222.613C562.951 223.42 562.702 224.268 562.817 225.112C562.931 225.957 563.507 226.795 564.344 226.953C567.763 227.594 570.749 230.17 571.885 233.457C573.473 230.13 575.061 226.802 576.649 223.475C577.306 222.099 577.971 220.697 578.197 219.189C578.423 217.68 578.148 216.022 577.118 214.898ZM589.018 221.866C587.392 220.337 584.686 220.444 582.806 221.648C580.926 222.851 579.755 224.909 578.998 227.008C578.136 229.4 577.717 231.951 577.768 234.493C577.78 235.1 577.824 235.727 578.104 236.265C578.779 237.565 580.561 237.856 581.981 237.497C585.084 236.714 587.151 233.831 588.685 231.023C589.475 229.575 590.21 228.057 590.416 226.421C590.621 224.785 590.219 222.995 589.018 221.866ZM261.789 546.412C261.026 542 260.263 537.588 259.5 533.176C259.411 532.662 259.292 532.098 258.873 531.787C258.599 531.583 258.244 531.529 257.905 531.485C253.972 530.974 249.976 530.948 246.037 531.409C250.687 536.994 255.984 542.04 261.789 546.412Z" fill="#00160A"/>
<path d="M35.9324 116.218C32.0061 123.744 29.9692 132.095 30.0188 140.543C26.7582 134.12 22.8538 127.479 15.3258 125.532C9.02055 123.846 1.71843 127.31 0.864712 134.121C-0.15651 142.304 7.21247 149.449 12.7399 154.492C19.2155 160.45 26.6997 165.234 34.3713 169.547C38.2993 171.746 42.2693 173.778 46.2554 175.855C45.3738 178.645 44.5312 181.824 46.2145 184.336C47.5352 186.274 50.201 187.118 52.1409 185.404C54.0809 183.69 54.0308 180.735 52.7554 178.78C51.6386 177.121 49.8945 175.992 48.047 175.001C48.1472 174.713 48.2182 174.485 48.3183 174.197C49.0417 171.817 49.8265 169.465 50.6728 167.142C52.3039 162.466 54.1033 157.83 55.7182 153.11C58.5928 144.807 61.0048 136.219 61.3884 127.412C61.6664 120.709 61.354 110.694 54.8762 106.702C47.0393 101.794 39.2899 109.805 35.9324 116.218ZM51.7954 180.087C52.4009 181.328 52.4826 182.961 51.4416 184.046C49.6861 185.844 47.4856 184.024 46.9735 182.195C46.4615 180.366 46.9651 178.368 47.5626 176.488C49.2709 177.378 50.9826 178.418 51.7954 180.087ZM59.9014 122.763C60.1041 127.124 59.7893 131.471 58.9861 135.745C57.4444 144.469 54.3724 152.794 51.3005 161.118C49.708 165.477 48.0865 169.897 46.7237 174.324C45.6625 173.803 44.6336 173.371 43.6791 172.862C39.9098 170.958 36.2148 168.977 32.5326 166.891C25.0131 162.573 17.739 157.661 11.5189 151.56C7.92661 148.03 3.94267 143.987 2.41989 139.099C0.816124 133.988 2.81242 128.625 8.18749 126.77C18.349 123.273 25.7423 133.583 29.9901 141.309C30.0195 141.954 30.049 142.598 30.0784 143.243C30.1436 144.126 31.447 143.903 31.4143 143.109C31.1512 134.638 32.6252 126.291 36.3185 118.546C38.1506 114.705 40.5227 110.516 44.3837 108.304C48.6652 105.839 53.7892 106.392 56.6637 110.486C59.1141 113.979 59.7181 118.596 59.9014 122.763Z"/>
<path d="M558.044 12.0325C550.198 15.2745 543.27 20.3622 537.878 26.8656C539.508 19.8498 540.787 12.2522 536.271 5.92206C532.525 0.577484 524.704 -1.46262 519.672 3.20649C513.63 8.81831 514.683 19.028 515.675 26.4443C516.806 35.1708 519.464 43.6467 522.568 51.882C524.164 56.0911 525.899 60.1997 527.618 64.3528C525.149 65.9235 522.46 67.8172 522.135 70.8232C521.901 73.1569 523.4 75.5169 525.988 75.4509C528.576 75.3849 530.437 73.0891 530.716 70.7719C530.928 68.7827 530.317 66.7968 529.539 64.8505C529.801 64.6939 530.001 64.5653 530.264 64.4088C532.347 63.0507 534.46 61.7536 536.602 60.5175C540.857 57.9843 545.215 55.5896 549.487 53.0119C557.026 48.4993 564.394 43.4709 570.349 36.9707C574.87 32.0149 581.068 24.1419 578.672 16.9201C575.823 8.12285 564.738 9.27843 558.044 12.0325ZM529.141 71.156C528.807 72.4959 527.82 73.7995 526.325 73.9611C523.825 74.21 523.309 71.4017 524.092 69.6712C524.876 67.9407 526.546 66.7343 528.212 65.6778C528.949 67.4577 529.591 69.3546 529.141 71.156ZM572.198 32.4533C569.55 35.9242 566.514 39.0523 563.152 41.8096C556.363 47.5022 548.659 51.9044 540.955 56.3066C536.933 58.6222 532.85 60.9659 528.96 63.4809C528.482 62.3998 527.972 61.4077 527.568 60.404C525.904 56.5229 524.347 52.6302 522.867 48.665C519.883 40.5236 517.468 32.0856 516.624 23.4135C516.142 18.4001 515.689 12.7423 517.664 8.01889C519.721 3.07299 524.697 0.248075 530.007 2.28165C540.039 6.13456 539.075 18.7851 537.363 27.4342C536.971 27.9468 536.58 28.4594 536.188 28.9719C535.67 29.6905 536.812 30.3579 537.297 29.7283C542.541 23.07 549.036 17.623 556.843 14.0646C560.715 12.2994 565.225 10.615 569.605 11.4027C574.469 12.2661 578.038 15.9841 577.609 20.9678C577.241 25.2182 574.736 29.144 572.198 32.4533Z"/>
</svg>
