<svg width="750" height="750" viewBox="0 0 750 750" fill="none" xmlns="http://www.w3.org/2000/svg">
<rect width="750" height="750" fill="none"/>
<path fill-rule="evenodd" clip-rule="evenodd" d="M400.975 474.728C410.058 472.776 409.612 465.03 438.863 465.03C444.082 465.03 454.467 468.865 460.797 470.273C472.898 472.965 495.317 483.144 495.317 483.144C495.317 483.144 505.309 489.185 521.285 489.49C537.262 489.795 545.952 485.447 562.826 485.447C575.131 485.447 585.813 489.49 596.355 489.49C606.896 489.49 621.464 488.146 621.961 480.033C628.659 370.735 592.674 325.432 567.977 286.948C528.816 225.926 539.618 133.385 490.125 178.472C477.571 189.909 476.068 199.342 453.857 211.568C436.176 221.301 422.403 223.234 413.028 229.185C387.076 245.66 373.445 268.613 355.389 279.595C323.859 298.773 313.517 291.001 288.591 304.123C285.301 305.855 281.652 308.299 277.592 309.939C269.517 313.201 260.316 315.842 252.585 321.291C246.337 325.695 236.73 338.384 236.73 338.384L177.51 359.011C177.51 359.011 164.356 365.122 169.858 386.927C175.361 408.732 192.674 456.979 192.674 456.979C192.674 456.979 209.162 456.743 222.986 465.03C236.811 473.316 241.341 491.433 241.341 491.433C241.341 491.433 274.503 481.421 288.591 476.514C292.459 475.167 301.211 471.765 314.588 471.128C329.252 470.429 340.307 477.694 361.626 478.753C373.604 479.348 391.893 476.68 400.975 474.728Z" />
<path fill-rule="evenodd" clip-rule="evenodd" d="M633.255 407.327C632.753 406.08 630.629 406.659 630.226 407.942C629.84 409.171 630.421 410.46 630.955 411.644L631.025 411.798C636.628 424.258 632.168 440.408 620.964 448.225C619.613 447.4 618.644 446.102 617.679 444.81C616.602 443.369 615.531 441.935 613.941 441.168C612.55 440.498 610.955 440.443 609.412 440.401L595.656 440.025C593.983 439.979 591.969 440.116 591.157 441.58C589.386 444.769 584.652 446.042 581.785 443.786C578.918 441.53 579.409 436.137 582.805 434.805C583.057 434.706 583.32 434.627 583.582 434.549L583.582 434.549C584.155 434.377 584.725 434.206 585.179 433.828C585.773 433.333 586.06 432.57 586.323 431.843L591.66 417.061C591.995 416.132 592.335 415.177 592.311 414.19C592.263 412.179 590.744 410.525 589.185 409.253C588.938 409.051 588.685 408.852 588.432 408.651C587.09 407.59 585.728 406.513 584.989 404.991C584.11 403.181 584.625 400.502 586.551 399.921C596.656 396.874 608.015 394.94 617.422 399.724C617.685 399.858 617.948 399.997 618.212 400.137L618.212 400.137C619.562 400.853 620.934 401.58 622.444 401.622C624.25 401.673 626.247 400.195 625.918 398.419C625.707 397.284 624.687 396.447 623.709 395.645C622.533 394.681 621.42 393.768 621.846 392.448C622.014 391.926 622.418 391.52 622.808 391.134L634.78 379.302C635.194 377.064 631.94 375.842 629.844 376.728C628.806 377.167 627.912 377.867 627.018 378.567C626.108 379.281 625.197 379.994 624.134 380.43C619.877 382.177 615.319 378.945 611.949 375.812C599.887 364.598 589.189 351.917 580.167 338.139C579.753 337.506 579.325 336.811 579.38 336.057C579.45 335.089 580.276 334.373 581.038 333.771L600.944 318.051C602.547 316.785 605.056 315.576 606.376 317.135L643.034 360.428C643.617 361.117 644.219 361.845 644.4 362.728C644.772 364.544 643.258 366.186 641.724 367.227C641.485 367.389 641.24 367.548 640.994 367.709L640.993 367.709C639.657 368.578 638.283 369.472 637.69 370.921C636.988 372.636 638.519 375.165 640.234 374.462C649.015 368.154 658.194 361.675 668.842 359.803C670.856 359.449 673.046 359.293 674.84 360.278C678.83 362.469 678.268 368.345 676.751 372.637C673.984 380.468 669.882 387.826 664.674 394.297C663.637 395.586 662.485 397.135 662.923 398.73C663.542 400.986 666.674 401.263 668.915 400.595C669.27 400.489 669.63 400.372 669.993 400.253L669.993 400.253L669.993 400.253C671.925 399.624 673.942 398.967 675.698 399.857C676.621 400.324 677.295 401.157 677.94 401.965L710.661 442.936C703.126 448.862 695.455 454.616 687.657 460.192C686.887 460.743 686.027 461.318 685.083 461.24C683.966 461.148 683.148 460.185 682.462 459.298L651.082 418.702C649.744 416.971 651.004 414.382 652.727 413.033C653.35 412.546 654.034 412.129 654.716 411.712C655.921 410.978 657.12 410.246 657.968 409.136C659.297 407.398 658.944 404.156 656.781 403.827C655.551 403.64 654.421 404.496 653.532 405.367C652.837 406.047 652.176 406.776 651.515 407.505C649.813 409.38 648.112 411.254 645.841 412.307C641.262 414.43 635.142 412.008 633.255 407.327ZM589.29 432.549C589.23 432.705 589.168 432.867 589.171 433.034C589.179 433.514 589.728 433.836 590.205 433.786C590.682 433.737 591.089 433.434 591.469 433.142L601.605 425.354C602.133 424.948 602.711 424.444 602.708 423.779C602.706 423.259 602.342 422.82 601.998 422.431L597.544 417.384C597.312 417.121 597.062 416.846 596.727 416.743C595.81 416.461 595.103 417.546 594.757 418.441L589.29 432.549ZM605.639 427.695C605.931 427.81 606.147 428.057 606.351 428.296L612.4 435.385C612.552 435.956 611.734 436.242 611.144 436.253L594.992 436.567C594.201 436.582 593.367 436.587 592.674 436.205C595.719 432.443 599.79 429.519 604.327 427.834C604.749 427.677 605.22 427.531 605.639 427.695Z" fill="white"/>
<path fill-rule="evenodd" clip-rule="evenodd" d="M282.778 406.014C283.097 401.339 286.533 397.033 291.021 395.683C293.717 394.872 295.595 392.283 296.264 389.548C296.933 386.813 296.582 383.937 296.065 381.169C294.412 372.332 290.591 363.211 282.901 358.554C274.563 353.505 263.815 354.952 254.625 358.205C250.62 359.622 246.457 361.579 244.353 365.27C243.059 367.541 242.704 370.209 242.373 372.801C241.697 378.102 241.019 383.454 241.508 388.776C241.996 394.097 243.755 399.461 247.386 403.382C249.915 406.112 253.79 408.104 257.328 406.95C260.101 406.046 262.645 408.623 265.271 409.893C268.855 411.627 273.086 410.909 276.995 410.154C279.51 409.669 282.603 408.569 282.778 406.014Z" fill="white"/>
<path fill-rule="evenodd" clip-rule="evenodd" d="M376.498 476.731C385.581 475.798 394.663 474.865 403.745 473.933C402.124 476.413 398.86 477.112 395.93 477.558C378.702 480.181 360.811 481.342 344.081 476.462C326.549 471.347 307.51 471.528 290.078 476.975C290.217 474.796 292.657 473.628 294.749 473.002C308.84 468.787 324.091 468.519 338.322 472.236C344.619 473.88 350.744 476.291 357.192 477.173C363.586 478.048 370.079 477.39 376.498 476.731Z" fill="#00160A"/>
<path fill-rule="evenodd" clip-rule="evenodd" d="M305.236 295.328C314.139 293.073 323.579 293.002 332.185 289.794C332.642 290.145 333.099 290.497 333.556 290.848C329.528 294.755 323.284 294.797 317.692 295.268C307.062 296.162 296.644 299.502 287.475 304.955C283.076 307.571 278.839 310.718 273.857 311.893C261.985 314.693 251.058 321.363 243.141 330.643C242.607 329.713 241.711 328.996 240.685 328.679C246.98 323.12 253.913 318.287 261.306 314.304C265.778 311.895 270.41 309.799 275.038 307.706C278.929 305.946 282.82 304.186 286.711 302.426C292.744 299.696 298.816 296.953 305.236 295.328Z" fill="#00160A"/>
<path fill-rule="evenodd" clip-rule="evenodd" d="M479.021 191.172C477.468 193.293 476.014 195.498 474.245 197.443C471.905 200.016 469.066 202.076 466.228 204.088C457.651 210.169 448.797 216.026 439.009 219.864C434.449 221.652 429.721 222.987 425.173 224.804C410.92 230.497 398.891 240.748 388.751 252.268C387.962 253.164 387.12 254.111 385.976 254.454C384.833 254.796 383.33 254.217 383.159 253.036C395.083 241.713 407.339 230.166 422.42 223.611C429.139 220.691 436.282 218.829 442.97 215.839C449.622 212.865 455.733 208.816 461.717 204.658C465.698 201.891 469.667 199.043 472.982 195.505C478.2 189.937 481.777 182.695 488.132 178.47C488.903 177.957 490.256 177.693 490.485 178.59C486.23 182.36 482.38 186.586 479.021 191.172Z" fill="#00160A"/>
<path fill-rule="evenodd" clip-rule="evenodd" d="M179.432 236.529C181.073 239.736 184.028 242.246 187.46 243.346C187.445 243.746 187.43 244.146 187.415 244.546C184.462 246.332 182.873 250.115 183.664 253.474C183.908 254.508 182.429 255.238 181.469 254.783C180.509 254.328 180.026 253.267 179.574 252.305C179.006 251.099 178.352 249.9 177.367 249.001C176.382 248.102 175.008 247.539 173.703 247.814C172.747 248.015 171.872 246.997 171.889 246.021C171.905 245.044 172.538 244.187 173.236 243.504C173.934 242.82 174.736 242.219 175.255 241.391C175.862 240.423 176.019 239.244 176.083 238.103C176.123 237.392 176.139 236.652 176.46 236.016C176.781 235.38 177.516 234.886 178.196 235.098C178.815 235.291 179.137 235.951 179.432 236.529L179.432 236.529Z" fill="#00160A"/>
<path fill-rule="evenodd" clip-rule="evenodd" d="M537.617 490.322C524.875 492.046 511.729 490.713 499.593 486.467C497.505 485.736 495.041 484.282 495.343 482.091C507.218 487.281 520.455 489.32 533.342 487.944C541.927 487.027 550.34 484.631 558.968 484.304C568.736 483.933 578.38 486.223 588.065 487.55C597.75 488.877 608.006 489.164 616.879 485.062C617.708 484.678 618.601 484.247 619.495 484.435C620.389 484.622 621.084 485.795 620.474 486.474C620.289 486.681 620.026 486.798 619.77 486.907C612.646 489.942 604.874 491.446 597.132 491.287C584.702 491.032 572.571 486.569 560.146 486.982C552.552 487.234 545.146 489.303 537.617 490.322Z" fill="#00160A"/>
<path fill-rule="evenodd" clip-rule="evenodd" d="M578.936 269.585C579.074 270.762 579.363 272.408 578.225 272.734C577.163 273.038 576.487 271.673 576.042 270.662C574.845 267.942 571.998 266.031 569.028 265.952C567.852 265.921 567.654 264.063 568.48 263.226C569.306 262.388 570.564 262.188 571.61 261.65C573.24 260.811 574.316 259.141 574.846 257.386C575.376 255.631 575.427 253.773 575.475 251.94C575.486 251.476 576.015 251.158 576.476 251.218C576.936 251.279 577.315 251.606 577.617 251.958C579.689 254.37 579.421 258.304 581.793 260.422C582.895 261.406 584.457 261.869 585.31 263.076C584.644 263.872 583.465 263.914 582.471 264.212C580.24 264.88 578.667 267.273 578.936 269.585H578.936Z" fill="#00160A"/>
<path fill-rule="evenodd" clip-rule="evenodd" d="M239.414 261.538C241.067 262.76 241.931 264.757 243.272 266.315C244.693 267.965 246.684 269.114 248.824 269.519C245.795 271.187 243.809 274.594 243.85 278.052C243.859 278.868 243.737 279.987 242.924 280.058C242.714 280.077 242.507 280.007 242.313 279.926C239.127 278.584 237.821 273.972 234.387 273.571C233.176 273.43 232.962 271.623 233.664 270.626C234.366 269.629 235.548 269.071 236.318 268.126C237.873 266.219 237.505 263.09 239.414 261.538Z" fill="#00160A"/>
<path fill-rule="evenodd" clip-rule="evenodd" d="M317.641 219.222C316.884 219.674 315.879 219.197 315.326 218.509C314.774 217.822 314.49 216.953 313.962 216.247C312.601 214.429 309.875 213.977 308.675 212.049C308.293 211.436 308.138 210.555 308.65 210.047C308.854 209.844 309.13 209.737 309.387 209.607C311.218 208.686 312.139 206.596 312.592 204.597C313.045 202.597 313.189 200.49 314.104 198.656C314.332 198.199 314.637 197.738 315.112 197.551C315.587 197.364 316.248 197.603 316.321 198.108C316.586 199.947 316.852 201.786 317.117 203.625C317.271 204.689 317.438 205.791 318.024 206.692C318.61 207.593 319.741 208.235 320.766 207.912C321.479 207.687 322.05 208.693 321.793 209.396C321.537 210.098 320.855 210.532 320.295 211.028C318.901 212.263 318.128 214.168 318.267 216.026C318.353 217.175 318.63 218.632 317.641 219.222Z" fill="#00160A"/>
<path fill-rule="evenodd" clip-rule="evenodd" d="M194.91 355.568C195.743 355.086 196.564 356.544 196.01 357.33C195.456 358.116 194.375 358.262 193.426 358.416C187.398 359.395 182.202 363.432 178.587 368.354C176.693 370.932 175.109 374.028 175.532 377.199C175.761 378.921 176.427 381.05 175.053 382.113C173.452 380.407 172.526 378.084 172.516 375.745C172.497 371.617 175.148 367.994 177.879 364.899C181.016 361.344 184.809 357.836 189.523 357.329C191.416 357.126 193.264 356.522 194.91 355.568Z" fill="#00160A"/>
<path fill-rule="evenodd" clip-rule="evenodd" d="M495.699 516.17C497.839 514.409 499.284 511.824 499.663 509.079C499.806 508.044 501.474 507.999 502.105 508.831C502.736 509.664 502.651 510.812 502.619 511.856C502.576 513.216 502.692 514.639 503.385 515.81C504.078 516.981 505.483 517.82 506.803 517.486C507.321 517.354 507.807 517.932 507.769 518.466C507.73 519 507.342 519.441 506.929 519.781C505.315 521.103 502.898 521.691 502.136 523.634C501.868 524.319 501.86 525.074 501.722 525.797C501.583 526.52 501.257 527.278 500.597 527.605C499.938 527.932 498.94 527.529 498.938 526.793C498.93 524.229 497.65 521.7 495.589 520.174C494.992 519.732 494.277 519.286 494.145 518.555C493.966 517.571 494.927 516.805 495.699 516.17L495.699 516.17Z" fill="#00160A"/>
<path fill-rule="evenodd" clip-rule="evenodd" d="M198.312 378.078C200.93 380.043 204.133 381.218 207.401 381.414C208.146 381.458 208.094 382.581 207.8 383.267C206.959 385.227 206.119 387.187 205.279 389.147C205.749 389.831 206.242 390.623 206.059 391.433C205.876 392.242 204.583 392.678 204.227 391.929C202.848 389.029 199.37 387.298 196.226 387.946C196.384 386.836 196.994 385.854 197.451 384.831C198.389 382.729 198.693 380.348 198.312 378.078Z" fill="#00160A"/>
<path fill-rule="evenodd" clip-rule="evenodd" d="M360.669 457.369C359.565 454.661 356.755 452.739 353.831 452.693C353.031 449.846 356.472 447.495 356.778 444.555C356.842 443.944 356.767 443.317 356.924 442.724C357.081 442.13 357.578 441.554 358.19 441.595C359.043 443.673 360.578 445.464 362.5 446.625C362.999 446.926 363.543 447.203 363.878 447.681C364.213 448.158 364.239 448.917 363.759 449.249C361.29 450.958 360.867 454.373 360.669 457.369Z" fill="#00160A"/>
<path fill-rule="evenodd" clip-rule="evenodd" d="M253.552 437.118C253.956 436.922 254.425 436.862 254.865 436.95C255.21 439.936 257.461 442.613 260.343 443.466C259.052 446.066 258.331 448.947 258.246 451.848C257.958 452.081 257.541 451.828 257.264 451.582C255.052 449.626 252.84 447.67 250.628 445.714C252.765 443.441 253.86 440.223 253.552 437.118Z" fill="#00160A"/>
<path fill-rule="evenodd" clip-rule="evenodd" d="M548.879 411.072C548.515 410.862 548.116 410.66 547.697 410.691C547.32 410.72 546.973 410.936 546.596 410.944C546.218 410.951 545.797 410.55 546.008 410.237C549.634 408.31 551.106 403.966 552.261 400.026C552.45 399.675 553.029 399.773 553.256 400.101C553.482 400.429 553.468 400.86 553.47 401.259C553.48 402.988 553.987 404.749 555.087 406.084C556.187 407.419 557.917 408.275 559.64 408.123C557.026 409.924 554.175 412.1 553.783 415.251C552.422 413.573 550.751 412.149 548.879 411.072H548.879Z" fill="#00160A"/>
<path fill-rule="evenodd" clip-rule="evenodd" d="M263.344 475.837C268.254 473.859 273.355 471.748 276.839 467.762C277.26 467.28 277.697 466.745 278.317 466.584C278.937 466.423 279.743 466.903 279.617 467.531C279.005 470.59 275.93 472.408 273.158 473.84C271.472 474.711 269.787 475.582 268.101 476.453C267.267 476.884 266.394 477.325 265.455 477.332C264.516 477.339 263.502 476.763 263.344 475.837L263.344 475.837Z" fill="#00160A"/>
<path fill-rule="evenodd" clip-rule="evenodd" d="M456.014 470.442C456.663 469.466 458.067 469.45 459.232 469.571C464.704 470.139 470.104 471.395 475.265 473.3C479.403 474.827 483.401 476.779 487.017 479.306C483.293 479.572 479.795 477.733 476.345 476.305C471.619 474.349 466.635 473.1 461.673 471.858C459.787 471.386 457.901 470.914 456.014 470.442Z" fill="#00160A"/>
<path fill-rule="evenodd" clip-rule="evenodd" d="M186.493 424.123C185.257 421.112 184.113 418.063 183.065 414.982C182.807 414.224 182.555 413.465 182.303 412.705C180.202 406.372 178.1 400.037 176.238 393.63C176.021 392.883 176.246 391.662 176.987 391.902C177.291 392 177.441 392.333 177.557 392.631C179.991 398.912 182.426 405.194 184.86 411.476C186.499 415.703 188.165 420.1 187.868 424.624C187.845 424.964 187.369 425.107 187.071 424.942C186.773 424.776 186.622 424.438 186.493 424.123Z" fill="#00160A"/>
<path fill-rule="evenodd" clip-rule="evenodd" d="M279.773 452.302C280.028 453.385 279.769 455.065 278.674 454.868C275.372 442.951 272.237 430.988 269.269 418.983C269.169 418.58 269.071 418.146 269.215 417.756C269.36 417.367 269.857 417.082 270.205 417.31C270.38 417.423 270.47 417.628 270.549 417.821C273.135 424.129 274.708 430.798 276.271 437.434C277.438 442.39 278.606 447.346 279.773 452.302Z" fill="#00160A"/>
<path fill-rule="evenodd" clip-rule="evenodd" d="M174.215 330.662C173.736 331.028 173.258 331.393 172.779 331.759C162.243 324.013 149.5 319.305 136.459 318.339C136.277 317.748 136.225 317.118 136.305 316.505C148.094 316.595 159.835 320.165 169.678 326.653C171.373 327.771 173.044 329.003 174.215 330.662Z" fill="#00160A"/>
<path fill-rule="evenodd" clip-rule="evenodd" d="M208.896 555.581C223.838 547.621 236.83 536.031 246.438 522.092C248.361 519.303 250.148 516.424 251.935 513.547C252.667 512.369 253.398 511.191 254.13 510.012C255.35 513.742 252.865 517.575 250.51 520.715C239.948 534.796 228.479 549.574 211.975 555.695C210.953 556.074 209.657 556.361 208.896 555.581V555.581Z" fill="#00160A"/>
<path fill-rule="evenodd" clip-rule="evenodd" d="M279.875 371.131C280.938 370.71 282.135 371.187 283.132 371.749C285.288 372.967 287.261 374.712 288.151 377.023C289.041 379.334 288.6 382.26 286.662 383.802C285.654 384.604 284.124 384.413 283.049 383.704C281.973 382.995 281.247 381.878 280.552 380.793C279.124 378.563 277.633 376.022 278.184 373.431C278.391 372.462 278.953 371.497 279.875 371.131H279.875Z" fill="#FFB61D"/>
<path fill-rule="evenodd" clip-rule="evenodd" d="M83.9326 392.34C82.0156 391.906 80.35 390.485 79.619 388.661C78.8879 386.836 79.1118 384.659 80.1987 383.021C81.5402 381 83.9496 379.963 86.3074 379.394C88.7063 378.814 91.1945 378.606 93.6563 378.78C94.5947 378.846 95.5701 378.982 96.3459 379.514C96.9452 379.925 97.376 380.542 97.6969 381.194C98.7795 383.393 98.6681 386.138 97.4107 388.243C96.1533 390.347 93.7893 391.746 91.3393 391.835C88.853 391.925 86.3592 392.889 83.9326 392.34ZM87.0874 386.938C88.9258 386.841 90.7581 386.63 92.5702 386.305C93.3064 386.173 94.0956 385.991 94.5848 385.425C95.0739 384.859 95.0137 383.791 94.3094 383.539C91.615 382.574 88.4776 382.947 86.0841 384.516C85.5307 384.878 84.9567 385.463 85.1277 386.102C85.3272 386.848 86.3169 386.978 87.0874 386.938V386.938Z" fill="#00160A"/>
<path fill-rule="evenodd" clip-rule="evenodd" d="M215.162 335.246C215.473 335.266 215.601 335.705 215.446 335.976C215.312 336.208 215.064 336.338 214.813 336.441L196.908 343.439C196.193 343.719 194.959 343.57 195.179 342.834C195.267 342.539 195.587 342.388 195.874 342.274C202.229 339.734 208.662 337.39 215.162 335.246Z" fill="#00160A"/>
<path fill-rule="evenodd" clip-rule="evenodd" d="M273.083 359.334C270.923 359.442 268.802 360.11 266.938 361.206C265.447 362.082 263.563 361.64 261.898 361.173C260.29 360.722 258.681 360.271 257.072 359.82C256.971 359.332 257.554 359.009 258.029 358.861C262.737 357.396 267.671 356.371 272.582 356.813C277.493 357.256 282.408 359.312 285.522 363.135C281.608 361.151 277.465 359.116 273.083 359.334Z" fill="#00160A"/>
<path fill-rule="evenodd" clip-rule="evenodd" d="M253.96 371.556C254.153 375.354 252.569 379.206 249.76 381.77C249.027 382.44 248.095 383.057 247.114 382.901C246.121 382.744 245.394 381.797 245.213 380.808C245.032 379.819 245.294 378.804 245.639 377.86C246.711 374.93 248.627 372.314 251.098 370.409C251.724 369.926 252.585 369.477 253.26 369.888C253.797 370.215 253.928 370.928 253.96 371.556Z" fill="#FFB61D"/>
<path fill-rule="evenodd" clip-rule="evenodd" d="M376.136 531.495C372.101 530.305 367.689 527.4 367.934 523.201C368.103 520.291 370.495 518.047 372.833 516.307C376.046 513.916 379.493 511.841 383.11 510.122C385.567 508.955 388.44 507.545 388.915 504.867C391.691 489.21 403.599 475.551 418.691 470.544C433.784 465.537 451.427 469.329 463.215 480C465.553 482.116 468.434 484.677 471.416 483.652C477.409 481.592 484.108 480.193 489.979 482.58C492.147 483.461 494.335 485.26 494.227 487.598C494.175 488.705 493.606 489.716 493.01 490.651C489.308 496.46 483.957 501.206 477.748 504.19C474.676 505.666 472.66 508.741 471.437 511.923C470.213 515.105 469.633 518.498 468.533 521.724C464.164 534.543 451.435 543.593 437.987 545.199C424.54 546.805 410.796 541.608 400.498 532.812C399.323 531.808 397.862 530.682 396.394 531.167C389.882 533.319 382.714 533.435 376.136 531.495ZM396.638 519.648C397.31 519.973 398.085 519.983 398.831 519.974C414.981 519.785 430.453 513.9 445.525 508.094C452.063 505.577 458.6 503.059 465.137 500.541C466.471 500.027 467.949 499.374 468.454 498.036C468.785 497.157 468.608 496.174 468.38 495.263C466.381 487.298 460.652 480.516 453.507 476.467C446.362 472.419 437.917 470.974 429.725 471.551C418.536 472.339 407.381 477.065 400.155 485.643C392.929 494.222 390.226 506.822 394.662 517.124C395.094 518.127 395.654 519.172 396.638 519.648M466.353 510.548C447.515 519.48 427.402 525.719 406.817 529.017C405.382 529.247 404.764 531.158 405.327 532.497C405.891 533.837 407.197 534.691 408.453 535.421C416.043 539.833 424.631 542.762 433.409 542.889C442.187 543.016 451.15 540.174 457.632 534.253C464.114 528.332 467.809 519.206 466.353 510.548ZM371.305 524.842C371.804 526.361 373.358 527.257 374.851 527.83C380.703 530.077 387.221 529.5 393.432 528.656C418.501 525.253 443.049 518.034 465.969 507.324C475.152 503.033 484.473 497.826 489.91 489.271C490.382 488.529 490.836 487.699 490.747 486.825C490.559 484.985 488.269 484.259 486.421 484.173C481.842 483.958 477.306 484.978 472.836 485.992C471.277 486.345 469.332 487.193 469.477 488.785C469.636 490.532 472.086 490.859 473.781 490.408C475.476 489.957 477.574 489.337 478.752 490.637C480.363 492.415 478.144 495.052 476.108 496.321C460.72 505.91 443.312 511.673 426.093 517.35C422.03 518.689 417.957 520.031 413.766 520.891C410.169 521.63 406.51 522.008 402.857 522.385C399.44 522.738 396.023 523.091 392.606 523.444C390.874 523.623 389.073 523.793 387.437 523.2C385.8 522.606 384.389 521.005 384.616 519.279C384.867 517.368 386.818 516.262 388.276 515.003C389.734 513.743 390.726 511.195 389.156 510.079C383.812 512.253 378.796 515.229 374.328 518.878C372.487 520.381 370.564 522.584 371.305 524.842ZM471.9 496.276C473.321 495.379 474.741 494.481 476.162 493.583C476.596 493.309 477.095 492.862 476.912 492.382C476.752 491.961 476.198 491.889 475.748 491.885C474.45 491.874 473.009 491.917 472.072 492.814C471.152 493.695 471.072 495.309 471.9 496.276ZM387.682 518.991C387.577 519.105 387.47 519.224 387.424 519.372C387.226 520.006 388.209 520.343 388.84 520.133C389.47 519.923 390.182 519.516 390.736 519.882C391.535 520.409 392.655 519.316 392.363 518.405C392.07 517.493 390.911 517.102 389.985 517.344C389.059 517.587 388.331 518.287 387.682 518.991H387.682Z" fill="#00160A"/>
<path fill-rule="evenodd" clip-rule="evenodd" d="M275.652 397.985C274.579 398.272 273.263 398.16 272.603 397.267C272.089 396.572 272.126 395.606 272.377 394.778C272.745 393.561 273.575 392.441 274.746 391.944C275.916 391.446 277.423 391.69 278.224 392.679C278.958 393.586 278.97 394.953 278.404 395.974C277.838 396.996 276.779 397.684 275.652 397.985L275.652 397.985Z" fill="#FFB61D"/>
<path fill-rule="evenodd" clip-rule="evenodd" d="M271.404 389.772C271.166 390.371 270.694 390.928 270.06 391.047C269.009 391.246 268.139 390.206 267.748 389.21C267.374 388.256 267.193 387.227 267.22 386.202C267.228 385.899 267.31 385.525 267.604 385.45C268.751 385.159 270.045 385.56 270.827 386.448C271.608 387.337 271.84 388.672 271.404 389.772H271.404Z" fill="#FFB61D"/>
<path fill-rule="evenodd" clip-rule="evenodd" d="M449.522 537.821C448.834 538.132 447.775 538.226 447.557 537.503C450.009 536.035 452.461 534.568 454.913 533.101C453.632 535.158 451.731 536.823 449.522 537.821Z" fill="#E7EAEE"/>
<path fill-rule="evenodd" clip-rule="evenodd" d="M256.867 394.744C257.564 395.549 258.176 396.494 258.266 397.554C258.356 398.614 257.778 399.788 256.755 400.082C255.757 400.368 254.731 399.776 253.91 399.141C252.975 398.418 252.079 397.558 251.692 396.442C251.306 395.327 251.581 393.908 252.587 393.29C253.987 392.429 255.791 393.502 256.867 394.744H256.867Z" fill="#FFB61D"/>
<path fill-rule="evenodd" clip-rule="evenodd" d="M408.434 531.51C409.484 532.649 410.534 533.788 411.584 534.928C411.752 535.11 411.634 535.462 411.39 535.507C409.333 534.56 407.56 533.003 406.357 531.085C406.727 530.332 407.866 530.894 408.434 531.51L408.434 531.51Z" fill="#E7EAEE"/>
<path fill-rule="evenodd" clip-rule="evenodd" d="M106.798 489.453C105.808 488.319 104.877 487.006 104.789 485.504C104.732 484.534 105.038 483.575 105.456 482.698C107.12 479.211 110.616 476.778 114.39 475.95C118.165 475.121 122.167 475.783 125.711 477.324C126.998 477.884 128.281 478.596 129.1 479.736C130.382 481.518 130.246 484.03 129.286 486.004C128.327 487.979 126.673 489.519 124.995 490.934C123.449 492.238 121.776 493.514 119.8 493.947C118.737 494.179 117.637 494.155 116.549 494.13C115.459 494.104 114.36 494.078 113.296 493.838C110.703 493.254 108.546 491.456 106.798 489.453ZM113.982 482.779C113.081 481.915 111.654 481.024 110.727 481.858C109.932 482.573 109.317 483.485 108.953 484.49C110.762 484.552 112.586 483.932 113.982 482.779ZM116.606 478.56C115.507 478.824 114.365 479.11 113.502 479.839C114.11 480.457 114.813 481.041 115.661 481.223C116.509 481.405 117.524 481.06 117.855 480.258C118.186 479.457 117.449 478.357 116.606 478.56M119.611 486.063C119.527 486.723 119.447 487.411 119.664 488.04C119.88 488.669 120.491 489.216 121.151 489.128C122.096 489.001 122.511 487.764 123.416 487.463C122.256 486.753 120.954 486.274 119.611 486.063ZM123.883 480.674C124.617 480.898 125.476 480.264 125.48 479.497C123.659 478.856 121.423 479.855 120.685 481.638C121.802 481.867 123.025 481.485 123.813 480.661M117.522 488.472C117.433 488.25 117.301 488.019 117.076 487.937C116.346 487.671 116.159 489.029 115.476 489.399C114.831 489.748 114.924 490.843 115.564 491.199C116.204 491.555 117.076 491.217 117.457 490.591C117.837 489.965 117.795 489.152 117.522 488.472M112.151 486.79C111.492 487.353 110.291 487.096 109.834 487.833C109.435 488.476 110.087 489.377 110.841 489.438C111.596 489.498 112.284 488.977 112.735 488.368C112.982 488.035 113.19 487.622 113.097 487.218C113.003 486.813 112.466 486.52 112.151 486.79M125.797 484.391C126.04 484.146 126.283 483.902 126.526 483.657C125.895 483.046 124.878 483.189 124.019 483.373C123.754 483.43 123.47 483.497 123.288 483.697C122.864 484.164 123.372 484.977 123.996 485.065C124.62 485.153 125.21 484.791 125.736 484.444L125.797 484.391Z" fill="#00160A"/>
<path fill-rule="evenodd" clip-rule="evenodd" d="M445.439 347.643C442.911 345.352 440.383 343.061 437.856 340.77C437.032 340.023 436.34 338.428 437.393 338.072C438.484 340.129 440.92 341.113 443.233 341.381C445.546 341.649 447.901 341.369 450.208 341.69C452.393 341.993 454.463 342.825 456.538 343.574C467.984 347.707 480.161 349.488 491.67 353.44C492.345 353.672 493.117 354.02 493.261 354.719C493.422 355.5 492.688 356.165 491.989 356.549C488.401 358.523 483.551 357.852 480.635 354.977C479.229 353.591 476.923 354.556 475.022 355.09C471.52 356.073 467.795 355.23 464.257 354.387C460.512 353.493 456.767 352.6 453.022 351.707C451.717 351.396 450.398 351.08 449.199 350.478C447.791 349.772 446.606 348.701 445.439 347.643ZM487.646 355.71C488.241 355.441 487.563 354.589 486.948 354.369C480.9 352.211 474.758 350.1 468.366 349.487C465.05 349.169 461.777 348.416 458.655 347.254C454.471 345.696 450.222 343.359 445.821 344.109C446.2 346.501 448.51 348.152 450.845 348.798C453.179 349.444 455.653 349.363 458.032 349.822C461.017 350.397 463.77 351.803 466.67 352.717C469.57 353.631 472.86 354.013 475.549 352.594C477.454 351.589 479.808 352.22 481.739 353.174C483.67 354.128 485.513 355.406 487.646 355.71Z" fill="#00160A"/>
<path fill-rule="evenodd" clip-rule="evenodd" d="M641.761 381.936C643.667 380.424 645.574 378.913 647.48 377.401C648.027 376.967 648.617 376.515 649.313 376.454C650.334 376.365 651.211 377.131 651.937 377.855C654.441 380.352 656.819 382.976 659.059 385.713C659.604 386.38 658.918 387.329 658.276 387.903C656.161 389.791 654.046 391.678 651.931 393.566C651.396 394.044 650.823 394.541 650.117 394.667C649.02 394.863 648 394.119 647.134 393.418C645.301 391.934 643.468 390.45 641.635 388.966C640.535 388.076 639.34 387.003 639.3 385.588C639.256 384.063 640.565 382.884 641.761 381.936ZM651.351 382.171C650.803 381.56 650.163 380.903 649.343 380.864C648.705 380.834 648.12 381.192 647.582 381.537C646.622 382.153 645.661 382.769 644.701 383.385C644.324 383.627 643.931 383.885 643.719 384.28C643.179 385.286 644.067 386.44 644.888 387.234C646.092 388.399 647.297 389.565 648.501 390.73C648.871 391.087 649.311 391.471 649.823 391.421C650.184 391.386 650.485 391.138 650.755 390.895C651.785 389.967 652.729 388.945 653.573 387.845C654.17 387.067 654.707 385.916 654.052 385.185C653.152 384.181 652.251 383.176 651.351 382.171V382.171Z" fill="#FFB61D"/>
<path fill-rule="evenodd" clip-rule="evenodd" d="M519.248 280.159C526.761 294.661 524.504 312.071 522.058 328.219C536.232 335.414 548.458 346.403 557.119 359.732C559.811 363.876 562.242 368.9 560.697 373.594C558.822 379.289 552.143 381.654 546.247 382.747C531.485 385.484 516.15 385.086 501.55 381.588C496.038 380.267 489.749 378.637 485.09 381.865C464.541 396.104 436.075 397.343 413.768 386.055C391.461 374.767 375.81 351.808 372.161 327.075C371.464 322.353 367.251 319.089 363.501 316.135C350.664 306.026 339.601 293.672 330.963 279.802C327.354 274.006 324.083 266.908 326.647 260.58C329.61 253.269 338.731 250.861 346.613 250.535C364.126 249.81 381.828 254.693 396.493 264.295C406.58 251.745 421.181 242.904 436.976 239.78C452.771 236.657 469.639 239.276 483.743 247.042C490.749 250.899 497.032 255.941 503.029 261.232C509.296 266.762 515.404 272.738 519.248 280.159ZM531.7 363.782C528.578 368.577 522.117 369.744 516.397 369.897C499.022 370.362 481.983 365.586 465.258 360.853C453.596 357.552 441.878 354.231 430.864 349.172C424.177 346.1 417.795 342.407 411.495 338.604C388.975 325.009 365.998 308.185 357.676 283.23C356.05 278.356 359.328 272.824 363.965 270.612C368.603 268.399 374.112 268.893 379.018 270.42C381.565 271.212 384.128 272.282 386.789 272.092C389.45 271.902 392.236 269.899 392.153 267.233C392.066 264.427 389.12 262.703 386.532 261.615C371.891 255.46 355.783 251.955 340.054 254.157C336.724 254.623 333.187 255.476 330.964 258C326.94 262.569 329.287 269.71 332.208 275.053C344.503 297.542 363.632 315.762 385.021 329.883C406.41 344.005 430.093 354.267 453.99 363.534C482.925 374.754 513.782 384.773 544.486 380.257C547.557 379.805 550.688 379.178 553.317 377.529C555.946 375.88 558.002 372.999 557.865 369.899C557.772 367.805 556.724 365.885 555.64 364.091C547.3 350.291 535.167 338.808 520.929 331.24C520.236 333.873 519.544 336.506 518.851 339.139C523.185 341.97 527.633 344.911 530.555 349.184C533.477 353.457 534.524 359.444 531.7 363.782ZM517.6 328.887C518.407 328.124 518.729 326.993 518.994 325.915C521.844 314.324 522.038 302.088 519.559 290.413C515 291.515 510.442 292.616 505.883 293.718C503.715 294.242 501.521 294.77 499.29 294.765C496.581 294.758 493.943 293.969 491.268 293.543C485.286 292.59 479.181 293.459 473.187 294.329C470.87 294.665 468.576 293.669 466.526 292.539C452.117 284.592 442.741 269.192 427.873 262.145C426.287 261.394 424.626 260.729 423.29 259.593C420.575 257.282 419.579 253.352 416.707 251.239C418.931 260.308 426.023 267.36 433.506 272.946C440.99 278.532 449.25 283.246 455.563 290.126C458.798 293.651 463.711 295.1 468.451 295.745C473.191 296.389 478.05 296.393 482.645 297.725C486.142 298.74 489.544 300.529 493.181 300.342C496.56 300.169 499.588 298.313 502.806 297.269C507.514 295.741 512.587 295.969 517.53 296.214C518.529 296.263 519.802 296.545 519.948 297.534C520.123 298.72 518.516 299.263 517.318 299.278C511.504 299.351 505.054 297.997 500.346 301.408C496.706 304.046 491.72 303.853 487.366 302.734C483.012 301.616 478.844 299.689 474.376 299.187C471.203 298.831 467.97 299.207 464.819 298.692C456.02 297.254 449.939 289.487 443.068 283.808C437.788 279.443 431.702 276.147 426.342 271.883C420.981 267.618 416.199 262.03 415.016 255.283C414.71 253.536 412.061 254.032 410.558 254.973C406.875 257.28 403.149 259.622 400.155 262.771C397.161 265.921 394.928 270.018 394.897 274.364C394.855 280.406 399.593 286.134 405.537 287.225C410.569 288.148 410.499 297.583 415.61 297.807C418.896 297.95 420.606 301.633 422.076 304.574C423.547 307.515 426.907 310.591 429.68 308.823C431.484 307.672 433.78 308.96 435.659 309.985C437.538 311.01 440.4 311.511 441.383 309.611C437.513 308.95 435.42 303.583 437.821 300.476C439.63 298.135 442.9 297.555 445.858 297.479C449.325 297.39 452.945 297.804 455.876 299.66C458.806 301.516 460.842 305.112 460.011 308.48C459.046 312.388 459.781 316.686 461.989 320.052C463.773 318.906 465.557 317.759 467.341 316.612C469.736 315.073 472.218 313.5 475.027 313.041C477.835 312.583 481.081 313.537 482.456 316.028C483.833 318.523 482.977 321.608 482.092 324.317C486.811 322.552 492.406 323.366 496.427 326.402C501.72 330.398 508.902 331.77 515.296 330.005C516.128 329.775 516.974 329.48 517.6 328.887ZM491.697 256.48C490.797 255.967 489.663 255.474 488.779 256.015C485.627 257.943 481.585 257.547 478.025 256.558C474.465 255.568 470.992 254.042 467.301 253.888C464.523 253.772 461.766 254.444 458.986 254.445C452.38 254.447 446.42 250.734 440.872 247.148C440.16 246.688 439.412 246.188 439.057 245.418C438.702 244.648 438.948 243.539 439.755 243.282C445.41 249.389 454.059 252.582 462.326 251.615C464.597 251.349 466.858 250.79 469.138 250.95C472.387 251.179 475.336 252.836 478.434 253.841C481.532 254.846 485.309 255.06 487.68 252.826C468.892 238.48 441.273 236.922 420.991 249.064C420.677 249.252 420.317 249.567 420.445 249.91C422.508 255.455 428.307 258.466 433.296 261.648C444.597 268.858 453.581 279.125 464.082 287.459C467.285 290.001 471.235 292.492 475.196 291.475C480.863 290.021 486.855 289.848 492.596 290.975C495.12 291.47 497.63 292.216 500.202 292.172C505.495 292.081 510.398 288.663 515.679 289.022C517.216 289.126 518.447 287.542 518.523 286.004C518.599 284.466 517.85 283.018 517.078 281.685C511.029 271.249 502.175 262.456 491.697 256.48ZM408.209 364.198C412.921 367.052 419.191 365.02 424.346 366.963C426.847 367.906 429.062 369.776 431.729 369.956C434.073 370.114 436.356 368.915 438.699 369.094C440.926 369.265 442.845 370.637 444.747 371.807C452.304 376.455 461.449 378.466 470.258 377.419C472.575 377.143 474.693 378.609 476.914 379.324C479.135 380.04 482.309 379.413 482.617 377.101C469.954 373.498 457.748 368.474 445.574 363.46C420.373 353.081 394.789 342.48 373.524 325.432C374.784 329.564 376.045 333.696 377.305 337.827C378.875 342.974 380.452 348.141 382.752 353.006C391.852 372.258 411.643 384.87 432.364 389.782C441.518 391.952 451.29 392.785 460.228 389.849C454.275 389.355 449.922 384.072 444.38 381.843C438.66 379.543 431.621 380.475 426.823 376.603C420.993 371.898 410.805 373.499 407.04 367.022C406.336 365.81 407.011 363.472 408.209 364.198M395.435 301.296C395.49 304.3 397.188 307.224 399.771 308.761C401.002 309.494 402.439 309.95 403.416 310.998C404.574 312.24 404.83 314.237 404.022 315.731C402.664 318.242 399.221 318.633 396.392 318.253C394.836 318.043 393.269 317.685 391.916 316.889C390.119 315.832 388.846 314.102 387.428 312.574C384.368 309.277 380.44 306.793 376.149 305.443C376.481 308.716 379.135 311.21 381.666 313.312C392.68 322.459 404.689 330.34 416.963 337.712C420.971 340.119 425.013 342.475 429.183 344.589C444.467 352.336 461.202 356.694 477.788 360.998C483.784 362.553 489.779 364.109 495.775 365.664C496.603 365.879 497.486 366.093 498.299 365.827C499.177 365.54 499.784 364.758 500.332 364.015C504.25 358.698 507.981 353.243 511.516 347.665C511.686 347.396 511.863 347.094 511.808 346.78C511.734 346.361 511.29 346.129 510.898 345.961C504.456 343.19 498.013 340.418 491.57 337.647C490.412 337.149 489.207 336.641 487.948 336.684C486.446 336.735 485.095 337.555 483.678 338.054C474.851 341.162 465.754 331.664 456.552 333.365C453.519 333.926 450.846 335.665 447.926 336.656C445.006 337.648 441.35 337.697 439.292 335.401C438.1 334.071 437.699 332.237 436.999 330.594C436.299 328.951 435 327.291 433.215 327.218C432.34 327.183 431.503 327.542 430.643 327.707C427.253 328.359 424.018 325.955 421.862 323.258C419.707 320.561 418.043 317.368 415.238 315.354C412.046 313.061 407.752 312.587 404.783 310.011C401.774 307.401 400.645 303.063 397.511 300.603C396.967 300.176 396.102 299.846 395.658 300.376C395.45 300.623 395.429 300.973 395.435 301.296ZM478.539 325.379C477.904 323.346 480.278 321.442 480.084 319.321C479.846 316.708 476.225 316.073 473.698 316.777C471.271 317.454 469.002 318.689 467.117 320.361C464.945 322.288 461.999 324.963 459.677 323.22C459.067 322.761 458.683 322.068 458.352 321.38C456.251 317.019 455.563 311.99 456.414 307.224C456.837 304.856 455.011 302.551 452.801 301.602C450.591 300.653 448.094 300.738 445.691 300.838C444.166 300.902 442.513 301.015 441.363 302.018C440.213 303.021 440.103 305.253 441.51 305.845C443.555 306.705 444.696 309.271 443.966 311.365C441.593 313.719 437.745 313.383 434.44 312.883C431.88 312.495 429.32 312.108 426.76 311.72C424.892 311.438 422.916 311.106 421.489 309.869C418.699 307.448 418.735 302.225 415.229 301.062C414.288 300.75 413.254 300.825 412.307 300.531C407.566 299.06 408.332 290.228 403.441 289.386C395.688 288.051 390.16 279.208 392.357 271.654C385.172 280.96 379.553 291.472 375.807 302.616C380.811 303.613 385.495 306.155 389.057 309.808C390.841 311.637 392.433 313.798 394.767 314.84C397.101 315.881 400.495 315.135 401.135 312.661C398.191 312.352 395.769 310.143 394.155 307.663C393.047 305.96 392.196 303.999 392.276 301.97C392.357 299.941 393.558 297.865 395.488 297.232C398.055 296.391 400.75 298.294 402.286 300.516C403.822 302.739 404.755 305.398 406.66 307.313C408.587 309.25 411.264 310.188 413.702 311.419C417.394 313.283 420.686 315.933 423.295 319.142C425.111 321.376 426.911 324.079 429.749 324.562C432.347 325.003 435.239 323.407 437.534 324.703C440.947 326.629 439.831 333.14 443.586 334.262C445.238 334.756 446.933 333.819 448.482 333.064C455.71 329.542 464.594 329.637 471.745 333.311C473.637 334.283 475.49 335.514 477.608 335.715C481.025 336.039 484.119 333.618 487.533 333.27C491.473 332.868 495.084 335.227 498.553 337.137C502.411 339.262 506.517 340.934 510.761 342.109C511.506 342.315 512.31 342.504 513.038 342.247C513.935 341.93 514.474 341.029 514.875 340.166C515.974 337.804 516.609 335.227 516.733 332.624C509.407 333.804 500.981 334.689 495.428 329.768C492.723 327.369 488.929 326.252 485.355 326.8C482.829 327.187 479.301 327.819 478.539 325.379M364.623 289.971C366.915 293.701 369.207 297.431 371.5 301.161C371.78 301.617 372.257 302.141 372.746 301.926C373.035 301.8 373.161 301.467 373.259 301.168C376.15 292.375 380.23 283.975 385.353 276.267C385.713 275.725 384.98 275.127 384.375 274.886C382.58 274.171 380.78 273.455 378.92 272.934C375.282 271.915 371.432 271.66 367.692 272.19C365.079 272.561 362.215 273.56 361.112 275.957C360.605 277.06 360.55 278.316 360.632 279.527C360.752 281.323 361.156 283.099 361.823 284.77C362.554 286.601 363.591 288.291 364.623 289.971ZM527.942 364.317C530.621 362.812 531.476 359.168 530.649 356.208C529.822 353.248 527.701 350.843 525.548 348.651C523.184 346.243 520.701 343.953 518.111 341.791C513.812 350.064 508.912 358.025 503.462 365.591C503.115 366.073 503.418 366.801 503.928 367.107C504.438 367.413 505.067 367.415 505.662 367.402C512.14 367.268 518.606 366.552 524.957 365.268C525.985 365.06 527.028 364.831 527.942 364.317ZM418.911 369.803C422.744 370.122 425.751 373.093 429.21 374.775C435.672 377.917 443.885 376.592 449.763 380.722C451.573 381.994 453.049 383.722 454.969 384.82C457.047 386.009 459.487 386.368 461.87 386.601C466.696 387.072 472.238 386.833 475.43 383.183C475.611 382.976 475.785 382.753 475.863 382.49C476.256 381.158 474.247 380.565 472.861 380.643C461.839 381.264 450.213 379.571 441.298 373.062C438.962 371.356 435.745 373.047 432.854 373.11C429.872 373.174 427.199 371.445 424.455 370.278C420.632 368.65 416.37 368.067 412.25 368.608C413.844 370.298 416.596 369.611 418.911 369.803Z" fill="#00160A"/>
<path fill-rule="evenodd" clip-rule="evenodd" d="M253.429 349.623C251.968 348.45 251.406 346.524 250.544 344.861C247.645 339.267 240.964 336.47 234.663 336.429C228.362 336.387 222.293 338.609 216.386 340.802C206.97 344.297 197.555 347.791 188.14 351.286C179.365 354.543 169.727 358.577 165.897 367.117C162.255 375.24 165.141 384.65 168.054 393.062C175.07 413.323 182.086 433.583 189.102 453.844C189.995 456.424 191.639 459.525 194.359 459.29C215.014 457.509 235.727 473.158 239.657 493.515C252.673 490.666 265.247 485.807 276.796 479.162C279.968 477.337 283.17 475.274 285.123 472.179C288.692 466.524 287.172 459.185 285.533 452.703C282.522 440.791 279.511 428.88 276.5 416.968C268.32 416.685 259.914 415.646 252.77 411.651C239.907 404.46 233.581 387.461 238.461 373.557C243.341 359.652 258.764 350.353 273.362 352.367C287.961 354.38 300.243 367.378 301.591 382.053C302.939 396.728 293.341 411.67 279.49 416.701C281.996 426.086 284.502 435.47 287.008 444.854C288.795 451.547 290.597 458.359 290.354 465.282C289.971 476.195 284.582 486.237 279.058 495.656C262.481 523.919 241.615 552.241 210.965 563.825C199.727 568.072 187.704 569.827 175.735 570.864C169.488 571.406 163.148 571.756 156.984 570.599C149.978 569.284 143.476 566.074 137.288 562.535C89.0423 534.936 54.8922 483.987 47.6968 428.873C46.9388 423.066 46.4544 417.182 44.7699 411.574C43.2374 406.472 40.7378 401.694 39.3157 396.56C36.2784 385.594 38.5819 373.279 45.3774 364.153C48.9997 359.288 49.7159 352.931 51.6999 347.2C53.5986 341.715 56.7498 336.667 60.8441 332.553C65.3325 328.043 70.8591 324.71 76.5023 321.771C105.473 306.68 139.251 300.995 171.566 305.771C203.88 310.547 234.569 325.76 257.936 348.587C257.68 350.442 254.889 350.795 253.429 349.623ZM210.076 481.504C207.856 478.83 205.678 476.016 204.577 472.719C203.477 469.423 203.623 465.519 205.77 462.786C204.656 461.582 202.683 461.284 201.264 462.107C199.844 462.931 199.122 464.79 199.614 466.356C200.527 469.259 198.592 472.729 195.643 473.48C197.418 469.978 197.998 465.883 197.265 462.026C197.213 461.75 197.138 461.45 196.91 461.286C196.426 460.937 195.798 461.475 195.492 461.986C193.666 465.035 193.759 468.933 194.903 472.297C196.047 475.661 198.131 478.612 200.186 481.511C205.351 479.828 211.58 483.298 212.868 488.575C213.984 493.148 218.55 496.294 223.217 496.898C227.885 497.502 232.585 495.996 236.811 493.923C229.255 492.905 221.288 491.718 215.338 486.951C213.364 485.37 211.692 483.449 210.076 481.504ZM55.237 392.087C51.3734 383.167 49.3692 373.539 48.2359 363.884C42.0336 372.774 39.5919 384.202 41.6192 394.85C43.6465 405.499 50.1164 415.23 59.1514 421.219C61.991 423.102 62.4989 426.961 63.1344 430.308C64.677 438.431 68.4566 445.93 72.1934 453.306C79.4139 467.559 86.7233 481.948 96.9542 494.22C103.262 501.786 111.937 508.945 121.744 508.016C132.336 507.012 139.98 496.47 141.36 485.921C142.739 475.371 139.361 464.844 136.028 454.74C132.38 443.683 128.732 432.626 125.084 421.569C124.649 420.25 124.276 418.621 125.237 417.619C131.173 411.428 132.775 402.051 131.431 393.58C130.087 385.109 126.178 377.292 122.279 369.652C120.907 370.111 120.965 372.036 121.175 373.467C122.747 384.178 117.139 395.208 108.422 401.626C99.7048 408.045 88.3574 410.215 77.5789 409.208C73.4938 408.827 69.3563 407.983 65.8428 405.865C60.7976 402.822 57.5785 397.494 55.237 392.087ZM169.719 526.263C165.144 523.042 161.537 518.644 158.217 514.141C152.879 506.902 148.119 499.238 143.996 491.244C141.912 497.147 138.181 502.459 133.335 506.422C127.783 510.962 119.616 511.218 112.926 508.633C106.237 506.048 100.78 501.041 95.9351 495.753C78.5925 476.826 67.0767 453.068 60.2011 428.334C59.4989 425.808 58.7196 423.079 56.6347 421.489C54.5498 419.899 50.758 420.454 50.2246 423.021C50.1104 423.57 50.1572 424.139 50.2045 424.698C51.0212 434.359 51.8513 444.094 54.5421 453.409C55.8371 457.892 57.5533 462.241 59.3053 466.565C65.7328 482.431 72.7723 498.243 83.0498 511.933C96.6473 530.044 115.272 543.623 133.605 556.92C140.451 561.885 148.637 567.115 156.763 564.773C160.068 563.82 162.899 561.689 165.483 559.419C174.365 551.617 181.306 541.623 185.514 530.575C179.986 531.44 174.295 529.483 169.719 526.263ZM127.804 336.174C119.961 330.249 111.381 325.025 101.867 322.557C92.3529 320.09 81.7627 320.622 73.3067 325.632C70.3965 327.357 67.7956 329.566 65.4263 331.981C57.3865 340.174 51.8763 351.184 51.7038 362.661C51.6127 368.726 52.9775 374.714 54.537 380.576C56.0398 386.225 57.7784 391.926 61.0715 396.755C64.3646 401.585 69.4702 405.488 75.2917 406.016C84.4261 406.843 93.9368 405.707 102.012 401.358C110.087 397.009 116.534 389.154 117.845 380.077C118.803 373.444 117.056 366.73 117.081 360.029C117.093 356.775 117.527 353.523 118.367 350.38C119.13 347.526 120.279 344.681 122.356 342.581C124.434 340.482 127.597 339.265 130.42 340.133C130.565 338.484 129.125 337.172 127.804 336.174ZM252.139 492.444C242.233 495.511 232.326 498.578 222.42 501.646C215.611 503.754 208.698 505.88 201.572 506.08C194.447 506.281 186.957 504.314 181.932 499.258C184.655 505.861 189.355 511.633 195.267 515.639C196.769 516.657 196.181 518.967 195.431 520.62C191.178 529.993 186.89 539.429 180.979 547.855C175.067 556.282 167.369 563.733 157.895 567.758C160.136 568.696 162.524 569.284 164.945 569.493C168.388 569.79 171.846 569.325 175.271 568.861C190.29 566.826 205.652 564.685 219.101 557.696C230.968 551.529 240.643 541.944 250.115 532.503C257.894 524.749 266.003 516.419 268.572 505.74C271.089 495.283 282.875 488.529 283.994 477.832C274.924 485.32 263.374 488.965 252.139 492.444ZM133.022 384.987C135.656 392.737 136.4 401.417 133.408 409.036C131.698 413.392 128.78 417.474 128.712 422.152C128.681 424.341 129.289 426.484 129.939 428.573C135.52 446.495 144.746 463.79 144.98 482.558C145.036 486.991 147.178 491.105 149.419 494.93C153.711 502.256 158.567 509.251 163.931 515.833C168.293 521.187 173.414 526.527 180.133 528.123C181.855 528.533 183.723 528.666 185.349 527.968C188.289 526.707 189.503 523.266 190.402 520.196C190.853 518.656 191.22 516.759 190.069 515.641C181.69 507.501 175.485 497.144 172.259 485.917C171.392 482.898 170.72 479.779 169.202 477.031C168.297 475.394 167.113 473.929 166.12 472.343C163.623 468.355 162.404 463.723 161.147 459.189C156.383 442.014 150.59 425.125 143.808 408.643C141.803 403.769 141.174 398.456 140.565 393.221C140.361 391.467 140.157 389.714 139.953 387.96C139.113 380.749 138.32 373.169 141.091 366.458C143.54 360.526 141.116 353.688 137.698 348.256C135.799 345.236 132.992 342.114 129.429 342.307C125.701 342.509 123.227 346.221 121.836 349.685C120.077 354.062 119.121 359.308 121.632 363.3C125.991 370.229 130.388 377.237 133.022 384.987ZM130.168 334.726C136.48 339.998 141.989 346.599 144.371 354.471C144.896 356.206 146.446 358.484 147.906 357.41C155.667 351.704 164.771 348.167 173.755 344.695C177.598 343.209 181.44 341.724 185.283 340.239C197.949 335.343 210.792 330.403 224.291 328.921C216.188 322.088 206.403 317.512 196.363 314.113C170.509 305.361 142.17 304.091 115.637 310.496C113.106 311.108 110.587 311.788 108.142 312.685C102.814 314.641 97.8129 317.632 92.2262 318.633C106.086 320.116 119.469 325.793 130.168 334.726ZM154.883 413.822C158.513 415.439 163.788 410.638 166.158 413.828C161.859 415.652 157.402 417.103 152.853 418.159C151.921 418.375 151.922 419.697 152.157 420.624C153.95 427.706 156.536 434.586 159.852 441.094C163.336 439.044 168.02 440.237 171.042 442.921C174.064 445.605 175.75 449.462 177.102 453.271C178.266 456.549 179.253 459.89 180.055 463.274C181.316 468.592 181.56 475.367 176.922 478.259C175.231 479.313 175.988 481.902 176.936 483.656C179.163 487.776 181.442 491.945 184.689 495.32C193.308 504.279 208.627 505.729 218.775 498.546C210.559 496.617 203.111 491.586 198.255 484.685C194.903 479.922 192.804 474.41 190.766 468.955C181.883 445.17 173.513 421.194 165.663 397.049C163.763 391.203 161.879 385.279 161.443 379.148C161.006 373.017 162.149 366.569 165.81 361.631C170.389 355.456 178.055 352.556 185.293 349.965C201.489 344.167 217.686 338.368 233.882 332.57C225.162 329.031 215.308 332.071 206.405 335.121C189.373 340.955 172.292 346.81 156.096 354.671C153.2 356.076 150.29 357.577 147.966 359.804C140.932 366.547 141.148 377.818 143.244 387.333C143.354 387.834 143.51 388.392 143.957 388.642C144.33 388.85 144.79 388.776 145.21 388.696C148.69 388.034 152.171 387.372 155.651 386.71C159.066 386.061 161.718 389.62 163.059 392.828C164.96 397.374 166.149 402.218 166.57 407.128C166.66 408.177 166.67 409.36 165.945 410.123C165.22 410.886 163.549 410.579 163.571 409.527C163.635 406.42 163.349 403.305 162.718 400.262C161.988 396.744 160.665 393.127 157.849 390.897C155.033 388.667 150.392 388.461 148.157 391.273C153.955 397.04 156.574 405.821 154.883 413.822ZM282.778 406.014C283.097 401.339 286.533 397.033 291.021 395.683C293.717 394.872 295.595 392.283 296.264 389.548C296.933 386.813 296.582 383.937 296.065 381.169C294.412 372.332 290.591 363.211 282.901 358.554C274.563 353.505 263.815 354.952 254.625 358.205C250.62 359.622 246.457 361.579 244.353 365.27C243.059 367.541 242.704 370.209 242.373 372.801C241.697 378.102 241.019 383.454 241.508 388.776C241.996 394.097 243.755 399.461 247.386 403.382C249.915 406.112 253.79 408.104 257.328 406.95C260.101 406.046 262.645 408.623 265.271 409.893C268.855 411.627 273.086 410.909 276.995 410.154C279.51 409.669 282.603 408.569 282.778 406.014ZM176.211 462.601C175.557 460.478 174.903 458.354 174.248 456.23C172.863 451.733 171.328 446.998 167.802 443.881C166.394 442.637 164.263 441.707 162.694 442.74C161.1 443.788 161.138 446.105 161.425 447.991C162.557 455.451 164.751 462.749 167.921 469.596C168.987 471.898 170.202 474.202 172.085 475.901C172.552 476.323 173.084 476.715 173.705 476.818C175.029 477.036 176.189 475.877 176.784 474.674C178.616 470.969 177.428 466.551 176.211 462.601ZM232.575 484.938C226.45 484.167 220.72 480.675 217.226 475.586C215.918 473.68 214.902 471.525 214.624 469.23C214.46 467.874 214.544 466.446 213.965 465.209C213.387 463.972 211.783 463.057 210.64 463.805C210.617 467.527 210.659 471.486 212.669 474.62C213.361 475.699 214.258 476.629 215.151 477.55C217.95 480.437 220.783 483.336 224.106 485.6C227.429 487.864 231.315 489.479 235.336 489.493C235.133 487.579 234.484 485.179 232.575 484.938ZM207.96 462.747C206.644 463.901 206.405 465.848 206.477 467.596C206.722 473.511 209.571 479.181 213.829 483.294C218.087 487.407 223.672 490.015 229.479 491.168C230.903 491.45 232.439 491.637 233.758 491.032C229.833 490.502 226.036 489.036 222.774 486.788C221.536 485.935 220.377 484.974 219.224 484.009C216.178 481.458 213.117 478.816 210.99 475.461C208.615 471.713 207.53 467.163 207.96 462.747ZM151.834 409.87C151.659 404.1 149.549 398.406 145.922 393.915C143.984 395.712 144.394 398.825 144.957 401.406C145.761 405.1 146.686 409.018 149.386 411.664C149.671 411.943 150.002 412.218 150.4 412.256C151.452 412.356 151.866 410.925 151.834 409.87ZM219.537 475.72C222.527 479.464 226.852 482.12 231.544 483.093C231.83 483.152 232.171 483.19 232.376 482.981C232.535 482.819 232.548 482.563 232.523 482.337C232.355 480.837 230.997 479.731 229.585 479.197C228.174 478.663 226.638 478.531 225.218 478.02C221.777 476.784 219.347 473.167 219.504 469.515C219.572 467.92 218.348 466.368 216.78 466.064C215.867 469.417 217.367 473.005 219.537 475.72ZM207.418 484.15C205.723 483.389 203.768 483.44 202.017 482.817C201.349 482.579 200.709 483.483 200.963 484.146C201.218 484.808 201.99 485.127 202.699 485.157C203.408 485.186 204.11 485.001 204.82 484.997C207.359 484.985 209.505 487.755 208.859 490.21C208.611 491.153 209.661 492.162 210.593 491.876C211.701 489.012 210.22 485.407 207.418 484.15ZM226.372 473.61C224.881 472.139 223.377 470.658 221.626 469.508C221.17 473.493 224.93 477.406 228.93 477.108C229.297 476.724 228.906 476.109 228.527 475.735C227.809 475.027 227.091 474.318 226.372 473.61ZM205.558 488.312C205.945 488.899 207.138 488.581 207 487.891C206.142 486.914 204.866 486.316 203.566 486.283C203.741 487.252 204.519 488.086 205.474 488.327M193.155 462.499C193.115 462.008 192.542 461.641 192.079 461.809C191.852 462.52 192.033 463.346 192.537 463.896C193.185 463.903 193.616 462.993 193.201 462.496M178.168 492.97C178.167 493.702 178.575 494.42 179.204 494.794C179.583 494.065 178.965 493.036 178.143 493.028" fill="#00160A"/>
<path fill-rule="evenodd" clip-rule="evenodd" d="M634.255 405.327C633.753 404.08 631.629 404.659 631.226 405.942C630.823 407.225 631.473 408.572 632.025 409.798C637.628 422.258 633.168 438.408 621.964 446.225C619.107 444.479 617.956 440.622 614.941 439.168C613.55 438.498 611.955 438.443 610.412 438.401C605.827 438.276 601.241 438.15 596.656 438.025C594.983 437.979 592.969 438.116 592.157 439.58C590.386 442.769 585.652 444.042 582.785 441.786C579.918 439.53 580.409 434.137 583.805 432.805C584.607 432.49 585.517 432.379 586.179 431.828C586.773 431.333 587.06 430.57 587.323 429.843C589.102 424.916 590.881 419.988 592.66 415.061C592.995 414.132 593.335 413.177 593.311 412.19C593.263 410.179 591.744 408.525 590.185 407.253C588.626 405.981 586.868 404.8 585.989 402.991C585.11 401.181 585.625 398.502 587.551 397.921C597.656 394.874 609.015 392.94 618.422 397.724C620.033 398.543 621.639 399.571 623.444 399.622C625.25 399.673 627.247 398.195 626.918 396.419C626.455 393.92 622.065 392.866 622.846 390.448C623.014 389.926 623.418 389.52 623.808 389.134C627.798 385.19 631.789 381.246 635.78 377.302C636.194 375.064 632.94 373.842 630.844 374.728C628.748 375.615 627.239 377.566 625.134 378.43C620.877 380.177 616.319 376.945 612.949 373.812C600.887 362.598 590.189 349.917 581.167 336.139C580.753 335.506 580.325 334.811 580.38 334.057C580.45 333.089 581.276 332.373 582.038 331.771C588.673 326.531 595.309 321.291 601.944 316.051C603.547 314.785 606.056 313.576 607.376 315.135C619.595 329.566 631.815 343.997 644.034 358.428C644.617 359.117 645.219 359.845 645.4 360.728C645.772 362.544 644.258 364.186 642.724 365.227C641.19 366.268 639.392 367.205 638.69 368.921C637.988 370.636 639.519 373.165 641.234 372.462C650.015 366.154 659.194 359.675 669.842 357.803C671.856 357.449 674.046 357.293 675.84 358.278C679.83 360.469 679.268 366.345 677.751 370.637C674.984 378.468 670.882 385.826 665.674 392.297C664.637 393.586 663.485 395.135 663.923 396.73C664.542 398.986 667.674 399.263 669.915 398.595C672.156 397.926 674.612 396.799 676.698 397.857C677.621 398.324 678.295 399.157 678.94 399.965C689.847 413.622 700.754 427.279 711.661 440.936C704.126 446.862 696.455 452.616 688.657 458.192C687.887 458.743 687.027 459.318 686.083 459.24C684.966 459.148 684.148 458.185 683.462 457.298C673.002 443.766 662.542 430.234 652.082 416.702C650.744 414.971 652.004 412.382 653.727 411.033C655.45 409.685 657.64 408.874 658.968 407.136C660.297 405.398 659.944 402.156 657.781 401.827C656.551 401.64 655.421 402.496 654.532 403.367C652.049 405.799 649.994 408.845 646.841 410.307C642.262 412.43 636.142 410.008 634.255 405.327ZM623.762 441.867C630.145 434.508 634.148 424.251 631.359 414.918C629.024 407.104 622.142 401.121 614.354 398.703C606.566 396.285 598.029 397.122 590.328 399.803C589.635 400.044 588.826 400.456 588.799 401.189C588.782 401.641 589.084 402.034 589.371 402.383C600.168 415.529 610.966 428.674 621.763 441.82C622.029 442.144 622.352 442.496 622.771 442.498C623.176 442.5 623.497 442.173 623.762 441.867ZM673.762 369.312C669.674 368.941 666.419 364.594 667.213 360.567C651.515 367.605 637.409 378.168 626.237 391.251C630.582 397.081 635.459 402.515 640.786 407.464C641.335 407.974 641.945 408.505 642.692 408.579C643.502 408.659 644.251 408.181 644.917 407.714C657.713 398.754 667.994 386.241 674.301 371.949C674.728 370.983 674.814 369.408 673.762 369.312ZM616.316 357.481C617.194 356.759 618.155 355.855 618.079 354.72C618.024 353.883 617.408 353.205 616.826 352.601C614.232 349.907 611.637 347.213 609.043 344.519C608.306 343.754 607.087 343.629 606.069 343.935C605.05 344.242 604.184 344.905 603.342 345.555C602.691 346.058 602.017 347.061 602.666 347.567C606.172 350.296 609.32 353.485 612.002 357.027C612.491 357.672 613.041 358.379 613.837 358.528C614.749 358.698 615.599 358.071 616.316 357.481M625.7 373.502C626.736 373.714 627.717 373.013 628.543 372.352C629.248 371.788 630.021 371.085 629.985 370.182C629.961 369.571 629.562 369.047 629.18 368.569C626.564 365.291 623.948 362.012 621.332 358.733C621.151 358.506 620.947 358.264 620.663 358.204C620.378 358.145 620.093 358.285 619.839 358.426C618.789 359.013 617.799 359.707 616.889 360.494C616.52 360.815 616.144 361.184 616.053 361.665C615.947 362.225 616.255 362.771 616.559 363.253C618.677 366.611 621.207 369.708 624.072 372.456C624.544 372.909 625.059 373.37 625.7 373.502ZM589.29 431.549C589.23 431.705 589.168 431.867 589.171 432.034C589.179 432.514 589.728 432.836 590.205 432.786C590.682 432.737 591.089 432.434 591.469 432.142C594.847 429.546 598.226 426.95 601.605 424.354C602.133 423.948 602.711 423.444 602.708 422.779C602.706 422.259 602.342 421.82 601.998 421.431C600.514 419.749 599.029 418.067 597.544 416.384C597.312 416.121 597.062 415.846 596.727 415.743C595.81 415.461 595.103 416.546 594.757 417.441C592.935 422.143 591.113 426.846 589.29 431.549ZM606.351 427.296C606.147 427.057 605.931 426.81 605.639 426.695C605.22 426.531 604.749 426.677 604.327 426.834C599.79 428.519 595.719 431.443 592.674 435.205C593.367 435.587 594.201 435.582 594.992 435.567C600.376 435.462 605.76 435.358 611.144 435.253C611.734 435.242 612.552 434.956 612.4 434.385C610.384 432.022 608.367 429.659 606.351 427.296ZM591.977 328.58C591.612 328.945 591.222 329.365 591.214 329.881C591.21 330.229 591.384 330.552 591.553 330.856C593.439 334.25 595.325 337.643 597.212 341.037C597.619 341.769 598.044 342.523 598.709 343.033C599.375 343.543 600.35 343.747 601.054 343.29C602.032 342.656 603.01 342.022 603.988 341.387C604.711 340.919 605.475 339.863 604.776 339.36C600.734 336.45 597.44 332.509 595.295 328.014C595.009 327.416 594.202 327.229 593.571 327.429C592.94 327.629 592.446 328.113 591.977 328.58ZM609.787 362.84C610.598 362.036 610.637 360.691 610.188 359.642C609.738 358.592 608.897 357.77 608.076 356.977C605.833 354.811 603.59 352.644 601.348 350.478C600.723 349.874 600.075 349.255 599.266 348.938C598.457 348.62 597.437 348.675 596.836 349.303C595.718 350.469 596.761 352.361 597.802 353.597C599.82 355.992 601.837 358.387 603.855 360.782C604.618 361.688 605.412 362.618 606.474 363.142C607.536 363.665 608.946 363.673 609.787 362.84ZM613.87 334.255C615.433 334.229 616.435 332.371 616.172 330.831C615.91 329.29 614.806 328.048 613.749 326.897C611.575 324.531 609.401 322.165 607.228 319.799C606.518 319.026 605.577 318.18 604.563 318.453C603.671 318.694 603.216 319.76 603.34 320.676C603.464 321.591 604.013 322.385 604.546 323.14C606.632 326.094 608.719 329.047 610.805 332C611.568 333.081 612.547 334.277 613.87 334.255ZM655.313 415.266C655.253 415.627 655.464 415.971 655.666 416.275C657.726 419.382 659.786 422.488 661.845 425.594C662.46 426.521 663.655 427.023 664.747 426.815C665.839 426.606 666.764 425.698 666.993 424.609C667.324 423.04 666.314 421.533 665.357 420.246C663.637 417.933 661.918 415.62 660.198 413.308C659.663 412.588 658.57 412.493 657.747 412.85C656.923 413.206 656.306 413.904 655.717 414.581C655.54 414.784 655.357 415.001 655.313 415.266ZM672.397 421.963C672.995 421.554 673.625 421.105 673.887 420.431C674.331 419.291 673.56 418.069 672.824 417.091C671.092 414.787 669.344 412.496 667.581 410.216C666.859 409.283 666.034 408.288 664.877 408.058C663.857 407.855 662.735 408.372 662.227 409.279C661.719 410.186 661.864 411.413 662.569 412.176C665.278 415.109 667.528 418.464 669.214 422.082C669.728 423.186 671.393 422.65 672.397 421.963ZM584.123 335.32C584.321 336.25 584.956 337.017 585.571 337.743C588.051 340.674 590.531 343.605 593.011 346.535C593.204 346.763 593.401 346.994 593.649 347.161C594.245 347.561 595.112 347.496 595.642 347.01C596.171 346.525 596.312 345.667 595.965 345.038C593.809 341.13 591.652 337.222 589.496 333.315C588.831 332.11 587.233 331.518 585.944 331.999C584.656 332.48 583.836 333.974 584.123 335.32ZM684.305 440.144C683.942 440.546 683.557 441.006 683.57 441.547C683.581 442.009 683.881 442.407 684.168 442.769C686.184 445.31 688.209 447.843 690.243 450.369C690.581 450.788 690.937 451.221 691.426 451.445C692.614 451.989 693.933 451.1 694.936 450.262C695.378 449.893 695.863 449.427 695.808 448.853C695.776 448.515 695.557 448.228 695.347 447.961C693.002 444.982 690.656 442.002 688.31 439.023C687.819 438.398 686.858 438.323 686.126 438.634C685.394 438.945 684.837 439.553 684.305 440.144ZM598.747 327.335C600.264 331.454 603.048 335.297 607.042 337.117C608.025 337.565 609.449 337.745 609.95 336.788C610.456 335.822 609.498 334.775 608.702 334.031C605.536 331.071 603.649 327.027 601.838 323.09C601.271 321.857 599.213 322.201 598.57 323.395C597.927 324.589 598.278 326.062 598.747 327.335ZM678.275 426.76C677.627 425.877 676.946 424.963 675.977 424.452C675.008 423.941 673.663 423.965 672.961 424.806C671.843 426.144 673.064 428.101 674.195 429.427C676.384 431.989 678.376 434.72 680.147 437.587C680.834 438.699 682.544 437.952 683.552 437.119C684.078 436.685 684.66 436.097 684.505 435.433C684.448 435.191 684.298 434.984 684.152 434.784C682.193 432.109 680.234 429.435 678.275 426.76ZM672.936 402.042C672.857 403.026 673.419 403.934 673.96 404.76C676.213 408.205 678.482 411.669 681.291 414.679C682.971 414.571 683.935 412.517 683.592 410.869C683.249 409.222 682.05 407.911 680.975 406.617C679.536 404.886 678.242 403.037 677.108 401.094C676.631 400.276 675.597 399.827 674.674 400.037C673.751 400.247 673.013 401.099 672.936 402.042ZM675.593 441.932C676.328 442.438 677.416 442.346 678.056 441.724C678.751 441.05 678.845 439.933 678.543 439.014C678.241 438.094 677.612 437.325 676.995 436.578C675.213 434.419 673.431 432.26 671.649 430.102C670.984 429.296 670.276 428.458 669.302 428.081C668.328 427.703 667.016 427.978 666.6 428.936C666.161 429.947 666.881 431.058 667.563 431.923C669.969 434.979 672.376 438.035 674.783 441.091C675.025 441.398 675.272 441.71 675.593 441.932ZM696.559 426.873C696.43 426.371 696.078 425.962 695.736 425.572C693.218 422.696 690.699 419.82 688.18 416.944C687.977 416.712 687.757 416.469 687.462 416.382C687.169 416.296 686.857 416.378 686.563 416.46C685.852 416.658 685.105 416.877 684.592 417.408C684.079 417.939 683.922 418.889 684.464 419.391C686.511 421.288 688.342 423.42 689.908 425.731C690.819 427.076 691.755 428.575 693.286 429.12C694.816 429.665 696.964 428.446 696.559 426.873M624.563 354.906C623.893 355.805 624.335 357.085 624.881 358.065C626.516 360.999 628.881 363.449 631.217 365.863C631.817 366.483 632.446 367.122 633.255 367.421C634.064 367.719 635.109 367.569 635.582 366.848C636.232 365.855 635.489 364.566 634.769 363.623C632.954 361.246 631.138 358.869 629.322 356.492C628.73 355.716 628.105 354.913 627.229 354.483C626.352 354.053 625.147 354.123 624.563 354.906ZM702.232 441.401C703.031 442.385 704.24 443.478 705.39 442.944C706.392 442.48 706.794 440.932 707.898 440.927C705.962 438.432 704.025 435.937 702.088 433.443C701.308 432.438 700.469 431.388 699.282 430.928C698.096 430.468 696.474 430.881 696.078 432.09C695.711 433.206 696.499 434.341 697.239 435.253C698.903 437.302 700.568 439.352 702.232 441.401ZM629.68 347.323C627.733 344.276 625.538 341.388 623.123 338.697C622.488 337.99 621.838 337.296 621.187 336.602C620.655 336.034 620.084 335.442 619.335 335.233C618.435 334.982 617.393 335.403 616.919 336.208C616.446 337.013 616.585 338.129 617.241 338.793C619.805 341.388 622.368 343.982 624.931 346.577C625.604 347.258 626.317 347.964 627.233 348.244C628.149 348.524 629.322 348.211 629.68 347.323ZM641.613 361.798C641.85 361.61 642.106 361.39 642.137 361.09C642.17 360.773 641.941 360.495 641.727 360.26C638.942 357.194 636.158 354.129 633.373 351.063C632.821 350.455 632.108 349.79 631.303 349.954C630.522 350.112 630.097 351.034 630.203 351.824C630.309 352.613 630.797 353.291 631.27 353.933C632.423 355.498 633.577 357.064 634.73 358.63C636.085 360.469 637.502 362.364 639.501 363.469C640.205 362.912 640.909 362.355 641.613 361.798ZM682.831 421.895C682.154 421.15 681.256 420.333 680.282 420.588C679.406 420.817 678.965 421.874 679.105 422.769C679.245 423.664 679.808 424.427 680.353 425.151C681.92 427.232 683.487 429.313 685.054 431.395C685.871 432.479 687.02 433.692 688.338 433.366C689.503 433.078 690.055 431.631 689.792 430.46C689.529 429.288 688.691 428.344 687.884 427.455C686.199 425.602 684.515 423.748 682.831 421.895ZM678.592 444.843C677.834 446.034 678.693 447.567 679.555 448.686C680.902 450.434 682.32 452.129 683.803 453.764C684.39 454.411 685.036 455.079 685.884 455.291C686.804 455.522 687.849 455.107 688.362 454.309C688.875 453.511 688.817 452.388 688.225 451.646C686.84 449.912 685.454 448.178 684.069 446.443C683.369 445.567 682.63 444.66 681.607 444.202C680.585 443.743 679.193 443.897 678.592 444.843ZM611.024 340.188C610.386 341.123 611.222 342.338 612.011 343.151C614.766 345.99 617.522 348.829 620.277 351.667C620.859 352.267 621.566 352.916 622.398 352.83C623.447 352.722 624.021 351.425 623.771 350.401C623.521 349.377 622.724 348.591 621.961 347.863C619.542 345.553 617.122 343.244 614.703 340.934C614.184 340.439 613.643 339.93 612.965 339.699C612.286 339.468 611.429 339.596 611.024 340.188M669.362 403.939C668.45 403.951 667.83 404.987 667.913 405.896C667.996 406.804 668.561 407.587 669.106 408.318C671.066 410.95 673.026 413.582 674.987 416.213C675.369 416.727 675.771 417.257 676.338 417.552C676.906 417.848 677.689 417.832 678.101 417.343C678.694 416.639 678.183 415.581 677.666 414.82C675.524 411.666 673.382 408.513 671.24 405.359C670.779 404.681 670.182 403.928 669.362 403.939M700.837 444.361C698.376 441.392 695.915 438.423 693.454 435.454C693.157 435.097 692.832 434.72 692.383 434.601C691.507 434.368 690.677 435.313 690.671 436.219C690.664 437.126 691.203 437.936 691.734 438.67C693.374 440.937 695.149 443.106 697.046 445.163C697.72 445.894 698.491 446.653 699.478 446.776C700.465 446.898 701.592 445.98 701.272 445.038C701.185 444.783 701.009 444.569 700.837 444.361ZM619.128 375.53C619.75 376.203 620.478 376.927 621.394 376.94C622.31 376.953 623.131 375.71 622.444 375.104C619.655 372.641 617.178 369.823 615.093 366.741C614.534 365.914 613.944 365.018 613.016 364.649C612.088 364.279 610.76 364.797 610.738 365.795C610.724 366.387 611.151 366.886 611.552 367.321C614.078 370.057 616.603 372.794 619.128 375.53ZM670.146 362.453C670.429 364.587 672.479 366.335 674.63 366.277C674.983 366.268 675.359 366.204 675.614 365.96C675.864 365.721 675.946 365.36 676.016 365.021C676.342 363.439 676.364 361.295 674.837 360.767C674.208 360.55 673.503 360.718 672.86 360.549C672.41 360.431 671.995 360.15 671.529 360.151C670.514 360.154 670.012 361.447 670.146 362.453ZM588.915 435.863C588.289 435.191 587.343 434.89 586.425 434.859C585.924 434.843 585.403 434.905 584.975 435.167C584.589 435.404 584.309 435.788 584.129 436.205C583.314 438.089 584.986 440.589 587.033 440.435C589.081 440.281 590.314 437.366 588.915 435.863M628.74 403.72C629.618 403.674 630.399 402.905 630.459 402.028C630.488 401.61 630.366 401.182 630.121 400.841C629.388 399.822 627.547 399.985 627.004 401.117C626.461 402.249 627.486 403.787 628.74 403.72ZM637.551 374.842C637.893 375.053 638.261 375.272 638.663 375.259C639.065 375.247 639.48 374.89 639.394 374.497C637.834 373.061 636.274 371.625 634.714 370.19C634.309 371.1 634.616 372.201 635.226 372.989C635.836 373.778 636.703 374.318 637.551 374.842ZM662.404 401.823C663.012 402.349 663.985 401.448 663.82 400.661C663.656 399.875 662.898 399.379 662.205 398.972C661.512 398.565 660.753 398.073 660.581 397.288C659.576 398.771 661.049 400.65 662.404 401.823Z" fill="#00160A"/>
</svg>
