<svg width="750" height="750" viewBox="0 0 750 750" fill="none" xmlns="http://www.w3.org/2000/svg">
<rect width="750" height="750" fill="none"/>
<path fill-rule="evenodd" clip-rule="evenodd" d="M691.106 449.673C680.694 474.269 662.633 478.548 643.509 498.172C624.386 517.797 566.953 506.567 547.194 517.988C493.622 548.954 491.937 583.982 401.5 588.52C368.981 590.151 340.458 586.452 311.382 582.684C280.902 578.734 244.771 590.807 203.531 565.509C102.929 503.795 40.3451 402.33 37.9999 348.99C36.1557 307.043 66.2145 278.132 86.4568 258.917C129.484 218.073 184.877 229.301 236.769 214.855C309.987 194.471 356.925 151.387 409.376 154C483.422 152.062 529.617 211.997 587.9 214.855C629.34 216.887 768.172 267.622 691.106 449.673Z" />
<path fill-rule="evenodd" clip-rule="evenodd" d="M243.903 555.443C245.352 558.841 245.468 563.992 241.908 564.979C237.212 562.667 233.865 557.816 233.371 552.605C214.11 553.445 194.85 554.285 175.589 555.125C168.43 555.437 159.594 556.963 157.463 563.805C156.631 558.414 149.512 557.175 144.058 557.248C127.759 557.467 111.46 557.686 95.1611 557.905C94.9126 550.464 94.6641 543.024 94.4156 535.583C94.3674 534.142 94.3337 532.631 94.9803 531.341C96.7163 527.88 101.702 528.248 105.471 529.137C104.26 517.023 103.048 504.91 101.837 492.796C96.2167 494.082 98.0246 479.672 92.368 480.785C88.9437 481.459 85.7154 478.314 84.9845 474.901C84.2537 471.489 85.3197 467.976 86.3745 464.65C89.5536 463.679 94.1096 464.64 97.3314 463.679C100.553 462.718 102.517 460.861 102.404 457.501C100.067 387.722 95.021 318.034 87.2817 248.647C82.3407 250.773 76.457 246.937 74.4692 241.939C72.4814 236.941 73.3329 231.312 74.3729 226.034C74.7378 224.182 75.1861 222.215 76.5461 220.906C78.2798 219.237 80.9446 219.132 83.3509 219.127C158.861 218.955 234.371 218.783 309.881 218.611C311.527 218.608 313.34 218.665 314.557 219.774C315.669 220.787 315.962 222.395 316.193 223.882C317.09 229.663 317.971 235.691 316.206 241.269C314.442 246.847 309.166 251.783 303.355 251.1C306.534 319.967 309.712 388.833 312.891 457.699C318.071 456.567 324.129 458.484 326.713 463.115C329.297 467.745 326.941 474.743 321.766 475.902C325.067 478.647 323.474 484.489 319.841 486.777C316.208 489.065 311.587 488.831 307.312 488.441C303.036 488.05 298.473 487.634 294.682 489.649C295.577 497.947 295.465 506.353 294.351 514.625C298.028 512.432 303.005 512.661 306.465 515.183C308.867 516.934 311.049 512.673 311.027 509.701C310.974 502.778 310.921 495.856 310.868 488.933C314.618 497.533 315.661 507.289 313.815 516.486C318.437 516.847 323.06 517.207 327.683 517.568C329.072 517.676 330.577 517.833 331.597 518.784C332.611 519.731 332.875 521.215 333.051 522.591C334.189 531.477 334.019 540.529 332.548 549.365C302.597 547.289 274.178 547.952 244.405 551.825C243.658 551.825 242.454 552.046 243.903 555.443Z" fill="white"/>
<ellipse cx="208.5" cy="401" rx="0.5" ry="2" transform="rotate(21 208.5 401)" fill="#FFB61D"/>
<path fill-rule="evenodd" clip-rule="evenodd" d="M442.535 411.218C442.535 411.218 438.334 315.775 440.771 268.098C441.037 262.893 441.327 257.558 439.786 252.579C438.245 247.6 434.446 242.969 429.324 242.005C428.314 233.073 428.449 224.013 429.724 215.116C503.545 215.5 577.366 215.884 651.188 216.268C651.454 221.885 651.721 227.502 651.988 233.119C652.24 238.437 650.134 245.967 644.916 244.907C642.797 244.477 641.78 247.402 641.668 249.562C640.752 267.307 639.836 285.051 638.921 302.796C636.199 355.531 633.476 408.346 635.303 461.12C640.021 461.356 644.739 461.591 649.457 461.826C650.708 464.789 651.987 467.94 651.52 471.123C651.053 474.305 648.099 477.353 644.954 476.68C647.695 483.07 640.383 491.081 633.77 488.934C634.301 496.575 634.831 504.216 635.362 511.856C635.462 513.298 635.611 514.859 636.589 515.922C639.641 519.239 646.179 514.119 649.402 517.27C649.838 524.785 650.274 532.3 650.711 539.815C650.83 541.865 650.842 544.199 649.353 545.612C648.353 546.56 646.913 546.84 645.554 547.07C619.074 551.547 591.929 552.076 565.294 548.634C566.725 555.482 567.83 563.574 562.988 568.623C559.416 572.347 559.795 577.691 561.404 575.169C561.092 578.442 558.047 581.222 554.759 581.236C551.937 581.534 552.499 576.82 554.424 574.735C558.652 570.159 564.119 566.064 565.465 559.981C566.811 553.898 552.084 557 552.5 560.724C549.836 557.718 550.183 552.542 553.226 549.919C545.293 551.729 537.063 552.225 528.97 551.382C539.191 549.833 549.413 548.284 559.634 546.734C556.724 538.681 523.554 560.002 522.82 576.031C521.229 566.807 522.401 557.124 526.147 548.546C525.246 547.115 524.078 545.852 522.722 544.843C532.041 541.194 513.326 561.198 510.287 553.598C500.044 554.764 489.801 555.931 479.559 557.097C479.929 558.973 480.896 560.726 482.286 562.04C476.212 562.919 470.113 557.132 470.673 551.02C467.685 556.409 472.295 562.834 477.04 566.765C481.785 570.695 487.538 575.111 487.336 581.269C482.62 582.922 476.824 579.56 475.918 574.645C477.632 577.838 475.68 570.848 473.61 571.503C469.769 572.717 466.96 583.458 468.809 579.887C468.606 584.689 463.959 588.839 459.164 588.5C455.767 581.828 461.38 572.501 468.867 572.379C471.953 572.328 473.783 568.46 472.97 565.483C472.157 562.506 469.667 560.336 467.301 558.354C465.709 560.434 463.652 562.156 461.325 563.358C461.25 559.848 461.94 556.322 463.334 553.099C460.187 556.674 458.412 561.428 458.447 566.191C456.841 562.265 456.984 557.66 458.831 553.842C449.52 555.428 440.065 556.172 430.62 556.061C429.064 545.273 427.509 534.485 425.953 523.698C431.794 522.118 437.844 521.318 443.895 521.324C440.863 503.178 443.895 502.674 440.128 494.503C439.617 493.393 437.799 495.515 436.562 493.014C435.325 490.514 434.773 484.002 434.773 484.002C434.773 484.002 429.722 483.264 429.324 481.905C427.761 476.57 426.005 471.804 429.805 468.934C433.855 465.875 440.198 468.496 444.443 465.711C443.55 462.188 444.767 449.875 441.862 442.221C439.575 436.197 434.814 438.891 429.743 434.534C426.453 431.707 422.865 428.828 421.428 424.735C419.992 420.642 421.951 415.036 426.247 414.438C430.448 413.854 433.625 418.01 435.773 421.667C434.806 418.44 437.389 414.654 440.747 414.377C444.902 427.479 442.535 411.218 442.535 411.218Z" fill="white"/>
<ellipse cx="515" cy="386" rx="1" ry="2" fill="#FFB61D"/>
<path fill-rule="evenodd" clip-rule="evenodd" d="M154.572 276.307C155.007 276.647 155.084 277.276 154.743 277.71L141.613 294.472C141.273 294.906 140.644 294.983 140.21 294.642C139.775 294.302 139.698 293.673 140.039 293.238L153.168 276.477C153.509 276.042 154.138 275.966 154.572 276.307Z" fill="#E7EAEE"/>
<path fill-rule="evenodd" clip-rule="evenodd" d="M171.674 281.106C172.095 281.464 172.145 282.096 171.787 282.516L154.215 303.134C153.857 303.554 153.226 303.604 152.805 303.246C152.385 302.888 152.335 302.257 152.693 301.836L170.265 281.219C170.623 280.798 171.254 280.748 171.674 281.106Z" fill="#E7EAEE"/>
<path fill-rule="evenodd" clip-rule="evenodd" d="M199.55 282.467C199.987 282.805 200.067 283.433 199.729 283.87L185.275 302.538C184.937 302.975 184.309 303.055 183.872 302.717C183.436 302.379 183.356 301.75 183.694 301.314L198.148 282.646C198.486 282.209 199.114 282.129 199.55 282.467Z" fill="#E7EAEE"/>
<path fill-rule="evenodd" clip-rule="evenodd" d="M238.565 280.959C239.013 281.283 239.114 281.908 238.791 282.356L227.021 298.66C226.698 299.108 226.073 299.209 225.625 298.886C225.177 298.562 225.076 297.937 225.399 297.489L237.169 281.185C237.492 280.737 238.117 280.636 238.565 280.959Z" fill="#E7EAEE"/>
<path fill-rule="evenodd" clip-rule="evenodd" d="M505.949 278.042C506.341 278.431 506.344 279.064 505.955 279.457L492.171 293.356C491.782 293.748 491.149 293.75 490.757 293.361C490.365 292.973 490.362 292.339 490.751 291.947L504.535 278.048C504.924 277.656 505.557 277.654 505.949 278.042Z" fill="#E7EAEE"/>
<path fill-rule="evenodd" clip-rule="evenodd" d="M525.017 281.913C525.4 282.311 525.388 282.944 524.99 283.327L506.88 300.757C506.482 301.14 505.849 301.128 505.466 300.73C505.083 300.332 505.095 299.699 505.493 299.316L523.603 281.886C524.001 281.503 524.634 281.516 525.017 281.913Z" fill="#E7EAEE"/>
<path fill-rule="evenodd" clip-rule="evenodd" d="M568.522 290.655C568.904 291.054 568.89 291.687 568.491 292.068L556.552 303.488C556.152 303.87 555.519 303.856 555.138 303.457C554.756 303.057 554.77 302.424 555.169 302.043L567.109 290.623C567.508 290.241 568.141 290.256 568.522 290.655Z" fill="#E7EAEE"/>
<path fill-rule="evenodd" clip-rule="evenodd" d="M591.236 291.458C591.612 291.862 591.589 292.495 591.184 292.871L578.804 304.379C578.399 304.755 577.767 304.732 577.391 304.328C577.015 303.923 577.038 303.29 577.442 302.914L589.822 291.406C590.227 291.03 590.86 291.053 591.236 291.458Z" fill="#E7EAEE"/>
<path fill-rule="evenodd" clip-rule="evenodd" d="M373.262 364.71C372.863 361.204 372.691 357.672 372.748 354.144C370.529 353.275 368.061 353.418 365.683 353.573C356.604 354.167 347.525 354.761 338.446 355.355C336.945 355.453 335.413 355.548 333.96 355.159C332.477 354.762 330.779 353.905 329.55 354.827C328.485 355.625 328.573 357.221 328.768 358.538C329.133 361.015 329.499 363.493 329.864 365.97C329.927 366.392 330.01 366.852 330.336 367.125C330.637 367.377 331.062 367.4 331.454 367.41C344.192 367.749 356.943 367.632 369.673 367.06C371.286 366.987 373.445 366.314 373.262 364.71V364.71Z" fill="white"/>
<path fill-rule="evenodd" clip-rule="evenodd" d="M416.832 305.359C417.113 304.255 416.081 303.174 414.967 302.937C413.853 302.699 412.709 303.046 411.605 303.323C407.202 304.43 394.971 304.425 393.31 304.436C388.451 304.47 383.592 304.503 378.732 304.537C377.581 304.544 376.606 305.492 376.197 306.569C375.788 307.645 375.825 308.832 375.868 309.983C375.912 311.171 375.956 312.36 376 313.548C376.027 314.257 376.12 315.085 376.728 315.45C376.991 315.608 377.307 315.645 377.612 315.677C382.323 316.174 387.072 316.306 391.803 316.073C400.173 315.66 408.546 314.105 416.882 314.965C416.048 311.837 416.031 308.496 416.832 305.359Z" fill="white"/>
<path fill-rule="evenodd" clip-rule="evenodd" d="M567.406 552.99C567.505 552.303 568.067 551.762 568.689 551.452C570.383 550.608 572.523 551.196 573.953 552.436C575.382 553.676 576.23 555.449 576.907 557.217C577.148 557.846 577.349 558.629 576.904 559.136C576.737 559.326 576.502 559.441 576.269 559.54C574.312 560.367 571.969 560.275 570.127 559.215C568.286 558.155 567.015 556.128 566.953 554.004C567.75 554.11 568.141 554.994 568.556 555.683C569.979 558.051 573.397 558.944 575.797 557.575C573.525 555.275 570.569 553.66 567.406 552.99Z" fill="#00160A"/>
<path fill-rule="evenodd" clip-rule="evenodd" d="M555.697 532.751C556.387 531.895 557.077 531.039 557.767 530.183C557.31 534.028 554.15 537.395 550.342 538.093C549.167 537.19 547.175 537.791 546.695 539.194C545.987 539.338 545.275 538.782 545.042 538.099C544.81 537.415 544.959 536.657 545.222 535.984C545.619 534.97 546.26 534.073 546.895 533.187C549.035 530.202 551.51 526.99 555.109 526.254C556.039 526.063 557.089 526.081 557.838 526.664C558.587 527.247 558.796 528.542 558.047 529.126C557.179 527.961 555.432 527.77 554.076 528.294C552.721 528.817 551.666 529.891 550.655 530.935C549.676 531.946 548.697 532.957 547.718 533.969C547.18 534.525 546.689 535.551 547.362 535.932C548.13 534.283 550.453 534.149 551.796 532.923C552.96 531.862 553.74 529.829 555.293 530.094C554.483 531.961 553.011 533.532 551.202 534.463C550.424 534.862 549.521 535.209 549.134 535.992C550.334 536.541 551.787 536.231 552.903 535.528C554.019 534.825 554.869 533.778 555.697 532.751Z" fill="#00160A"/>
<path fill-rule="evenodd" clip-rule="evenodd" d="M523.157 528.794C525.054 529.129 527.111 528.066 527.935 526.325C528.76 524.584 528.279 522.32 526.818 521.064C527.239 520.548 528.054 520.483 528.644 520.794C529.234 521.105 529.62 521.708 529.842 522.337C530.552 524.35 529.76 526.648 528.376 528.274C526.992 529.9 525.096 530.988 523.241 532.044C522.382 532.533 521.483 533.035 520.496 533.096C519.51 533.157 518.411 532.634 518.152 531.68C518.067 531.368 518.085 531.01 518.281 530.753C519.242 529.494 521.506 532.482 522.54 531.282C522.291 530.321 522.043 529.361 521.795 528.4C522.242 528.556 522.691 528.712 523.157 528.794Z" fill="#00160A"/>
<path fill-rule="evenodd" clip-rule="evenodd" d="M505.767 525.84C503.651 525.582 502.145 523.295 502.376 521.176C502.607 519.057 504.268 517.273 506.244 516.474C506.849 516.229 507.605 516.085 508.104 516.505C508.603 516.926 508.26 518.016 507.637 517.823C506.111 517.351 504.652 518.885 504.23 520.425C503.961 521.406 503.944 522.517 504.487 523.376C505.031 524.235 506.253 524.699 507.121 524.17C507.747 523.789 508.385 524.671 508.533 525.389C508.682 526.107 509.011 527.055 509.739 526.969C510.937 526.374 511.384 524.937 512.066 523.787C512.748 522.637 514.291 521.637 515.341 522.465C515.476 522.572 515.597 522.718 515.605 522.889C515.613 523.076 515.487 523.239 515.366 523.382C514.197 524.764 512.905 526.042 511.511 527.196C510.577 527.969 509.285 528.716 508.23 528.12C507.231 527.556 506.905 525.978 505.767 525.84Z" fill="#00160A"/>
<path fill-rule="evenodd" clip-rule="evenodd" d="M515.953 547.52C514.918 546.601 513.863 545.657 513.187 544.449C512.511 543.241 512.272 541.697 512.927 540.477C513.106 540.143 513.383 539.82 513.757 539.76C514.131 539.699 514.561 540.047 514.452 540.41C513.975 541.999 514.669 543.864 516.068 544.754C516.609 545.098 517.335 545.742 516.881 546.195C516.34 546.734 517.325 547.464 518.079 547.587C519.527 547.824 520.974 548.06 522.421 548.297C522.139 549.49 520.667 550.069 519.468 549.813C518.269 549.557 517.294 548.713 516.378 547.898C516.236 547.772 516.094 547.646 515.953 547.52Z" fill="#00160A"/>
<path fill-rule="evenodd" clip-rule="evenodd" d="M462.636 583.803C462.779 582.916 462.923 582.029 463.067 581.141C463.149 580.632 463.236 580.112 463.48 579.658C463.773 579.115 464.266 578.714 464.747 578.328C466.065 577.268 467.383 576.208 468.702 575.148C469.74 575.939 469.948 577.615 469.136 578.636C469.069 577.696 468.459 576.814 467.603 576.419C466.645 579.264 464.91 581.844 462.636 583.803Z" fill="#00160A"/>
<path fill-rule="evenodd" clip-rule="evenodd" d="M564.363 570.788C564.85 573.399 565.849 575.914 567.288 578.146C568.422 579.905 567.385 582.204 566.347 584.021C565.88 584.203 565.438 583.594 565.515 583.099C565.593 582.603 565.956 582.208 566.19 581.764C567.11 580.022 565.968 577.955 564.953 576.266C563.939 574.577 563.067 572.273 564.363 570.788L564.363 570.788Z" fill="#00160A"/>
<path fill-rule="evenodd" clip-rule="evenodd" d="M375.626 367.007C375.606 367.612 375.577 368.249 375.261 368.765C374.684 369.707 373.417 369.891 372.315 369.974C357.457 371.088 342.526 371.248 327.647 370.454C327.462 370.444 327.271 370.432 327.104 370.351C326.694 370.152 326.584 369.629 326.522 369.177C326.108 366.155 325.694 363.132 325.28 360.109C324.984 357.946 324.733 355.567 325.932 353.743C327.562 351.264 331.017 350.969 333.984 350.927C347.465 350.738 360.947 350.549 374.429 350.361C374.997 350.353 375.669 350.398 375.97 350.88C376.145 351.158 376.139 351.508 376.129 351.836C375.961 356.893 375.794 361.95 375.626 367.007ZM373.263 364.71C372.863 361.204 372.691 357.672 372.748 354.144C370.53 353.275 368.062 353.418 365.684 353.573C356.605 354.167 347.525 354.761 338.446 355.355C336.946 355.453 335.413 355.548 333.961 355.159C332.477 354.762 330.78 353.905 329.551 354.827C328.486 355.625 328.574 357.221 328.768 358.538C329.134 361.015 329.499 363.493 329.865 365.97C329.927 366.392 330.01 366.852 330.337 367.125C330.637 367.377 331.063 367.4 331.455 367.411C344.193 367.749 356.943 367.632 369.673 367.06C371.286 366.987 373.445 366.314 373.263 364.71V364.71Z" fill="#FFB61D"/>
<path fill-rule="evenodd" clip-rule="evenodd" d="M553.46 557.79C554.139 555.397 555.341 553.155 556.959 551.266C556.93 553.831 555.581 556.347 553.46 557.79L553.46 557.79Z" fill="#00160A"/>
<path fill-rule="evenodd" clip-rule="evenodd" d="M559.549 572.257C559.105 573.624 558.422 574.913 557.539 576.048C557.163 576.531 556.683 577.021 556.071 577.051C556.866 575.201 557.779 573.218 559.549 572.257L559.549 572.257Z" fill="#00160A"/>
<path fill-rule="evenodd" clip-rule="evenodd" d="M570.445 579.58C571.428 580.267 572.41 580.955 573.393 581.643C573.611 581.796 573.855 582.071 573.7 582.288C572.207 582.146 570.857 581.022 570.445 579.58Z" fill="#00160A"/>
<path fill-rule="evenodd" clip-rule="evenodd" d="M572.246 579.196C571.23 579.507 570.369 577.844 571.209 577.194C571.779 577.746 572.199 578.452 572.413 579.217L572.246 579.196Z" fill="#00160A"/>
<path fill-rule="evenodd" clip-rule="evenodd" d="M559.329 550.569C560.07 551.507 560.094 552.858 559.695 553.984C559.295 555.111 558.532 556.065 557.782 556.997C557.083 557.866 556.197 558.822 555.084 558.737C554.893 557.98 555.596 557.329 556.169 556.798C557.913 555.182 559.055 552.931 559.329 550.569Z" fill="#00160A"/>
<path fill-rule="evenodd" clip-rule="evenodd" d="M567.595 575.117C568.836 573.985 570.699 573.585 572.296 574.106C573.892 574.627 575.16 576.049 575.496 577.694C575.742 578.901 575.865 580.59 577.09 580.71C577.311 581.498 575.905 581.796 575.397 581.154C574.889 580.513 574.982 579.604 574.854 578.796C574.512 576.633 572.173 575.006 570.027 575.438C569.151 575.614 567.957 575.933 567.595 575.117L567.595 575.117Z" fill="#00160A"/>
<path fill-rule="evenodd" clip-rule="evenodd" d="M475.098 588.994C474.504 587.088 475.866 584.897 475.029 583.085C474.754 582.49 474.271 582.021 473.848 581.519C472.452 579.859 471.662 577.702 471.656 575.533C471.654 574.873 471.954 574.004 472.611 574.068C473.475 574.152 473.254 575.442 473.196 576.308C473.088 577.953 474.521 579.222 475.423 580.602C476.765 582.657 476.97 585.407 475.946 587.638C475.569 588.46 476.317 589.314 476.836 590.053C478.187 591.978 478.075 594.802 476.576 596.613C476.013 596.236 475.988 595.405 476.194 594.76C476.4 594.114 476.777 593.51 476.816 592.833C476.898 591.413 475.521 590.351 475.098 588.994H475.098Z" fill="#00160A"/>
<path fill-rule="evenodd" clip-rule="evenodd" d="M504.279 388.331C505.056 387.473 506.385 388.408 507.469 388.814C509.569 389.602 511.888 388.086 514.108 388.406C512.871 390.957 509.378 391.256 506.566 390.891C505.862 390.8 505.121 390.673 504.578 390.215C504.035 389.757 503.802 388.857 504.279 388.331L504.279 388.331Z" fill="#00160A"/>
<path fill-rule="evenodd" clip-rule="evenodd" d="M509.744 380.203C509.332 379.678 509.395 378.936 509.478 378.274C509.537 377.803 509.597 377.332 509.656 376.861C509.796 375.753 510.252 374.342 511.369 374.334C512.536 374.325 512.981 375.847 513.005 377.014C513.026 378.025 512.972 379.114 512.358 379.918C511.744 380.722 510.37 380.998 509.744 380.203V380.203Z" fill="#00160A"/>
<path fill-rule="evenodd" clip-rule="evenodd" d="M502.73 374.931C503.278 375.057 503.404 375.769 503.415 376.332C503.453 378.197 503.068 380.622 501.234 380.966C500.337 379.272 500.504 377.069 501.648 375.53C501.909 375.179 502.304 374.833 502.73 374.931L502.73 374.931Z" fill="#00160A"/>
<path fill-rule="evenodd" clip-rule="evenodd" d="M506.355 377.376C506.493 377.616 506.401 377.917 506.322 378.182C505.542 380.791 506.406 383.816 508.445 385.621C506.92 386.584 504.79 385.255 504.263 383.53C503.736 381.806 504.299 379.958 504.86 378.244C505.088 377.545 505.989 376.737 506.355 377.376L506.355 377.376Z" fill="#00160A"/>
<path fill-rule="evenodd" clip-rule="evenodd" d="M419.636 317.675C416.959 317.845 414.283 318.016 411.607 318.186C400.027 318.923 388.447 319.661 376.868 320.398C375.233 320.502 373.036 320.17 372.847 318.543C372.26 313.504 372.368 308.384 373.164 303.373C373.496 301.284 376.202 300.726 378.315 300.657C391.107 300.235 403.898 299.814 416.689 299.392C418.264 299.34 419.66 300.549 420.32 301.98C420.981 303.41 421.058 305.031 421.125 306.605C421.252 309.616 421.38 312.627 421.508 315.639C421.53 316.162 421.534 316.74 421.196 317.14C420.83 317.572 420.2 317.639 419.636 317.675ZM416.832 305.359C417.114 304.255 416.081 303.174 414.967 302.937C413.853 302.699 412.71 303.046 411.605 303.323C407.202 304.43 394.972 304.425 393.311 304.436C388.451 304.47 383.592 304.503 378.733 304.537C377.581 304.544 376.606 305.492 376.197 306.569C375.788 307.645 375.826 308.832 375.868 309.983C375.912 311.171 375.957 312.36 376.001 313.548C376.027 314.257 376.12 315.085 376.729 315.45C376.992 315.608 377.308 315.645 377.613 315.677C382.324 316.174 387.073 316.306 391.804 316.073C400.174 315.66 408.547 314.105 416.883 314.965C416.049 311.837 416.031 308.496 416.832 305.359Z" fill="#FFB61D"/>
<path fill-rule="evenodd" clip-rule="evenodd" d="M225.832 522.471C225.287 522.648 224.468 522.675 224.37 522.111C225.198 521.124 226.91 521.079 227.789 522.02C227.321 522.531 226.54 522.727 225.886 522.498L225.832 522.471Z" fill="#00160A"/>
<path fill-rule="evenodd" clip-rule="evenodd" d="M514.985 371.567C515.728 372.362 516.411 373.253 516.722 374.295C516.929 374.986 515.944 375.526 515.277 375.25C514.609 374.975 514.234 374.284 513.837 373.681C513.44 373.079 512.854 372.467 512.134 372.519C511.404 372.571 510.929 371.574 511.289 370.937C511.648 370.299 512.519 370.099 513.221 370.306C513.923 370.513 514.486 371.033 514.985 371.567L514.985 371.567Z" fill="#00160A"/>
<path fill-rule="evenodd" clip-rule="evenodd" d="M256.239 503.578C255.363 499.374 254.391 495.149 252.559 491.266C250.727 487.382 247.953 483.822 244.191 481.753C242.209 480.663 240.019 480.017 237.932 479.145C235.377 478.077 232.968 476.663 230.789 474.954C232.734 473.857 235.144 474.887 237.126 475.914C241.748 478.309 246.476 480.784 249.962 484.649C254.602 489.792 256.512 496.793 257.891 503.581C257.391 503.868 256.738 503.867 256.239 503.578Z" fill="#00160A"/>
<path fill-rule="evenodd" clip-rule="evenodd" d="M234.57 539.866C234.579 539.531 234.654 539.134 234.962 539C235.939 538.574 236.267 541.328 237.148 540.728C238.173 540.03 239.619 541.556 239.084 542.675C238.55 543.793 236.865 543.953 235.881 543.199C234.897 542.445 234.538 541.106 234.57 539.866Z" fill="#00160A"/>
<path fill-rule="evenodd" clip-rule="evenodd" d="M231.304 527.704C230.202 525.861 230.598 523.488 231.383 521.488C231.856 520.282 232.58 519.017 233.816 518.631C235.053 518.244 236.677 519.438 236.188 520.638C235.034 521.007 233.832 521.447 233.047 522.371C232.261 523.295 232.091 524.852 233.004 525.649C233.458 526.046 233.367 526.772 233.166 527.34C232.964 527.907 232.687 528.519 232.89 529.086C233.092 529.653 234.087 529.839 234.229 529.253C234.386 528.609 235.385 528.635 235.858 529.1C236.33 529.565 236.518 530.252 236.955 530.751C237.391 531.25 238.337 531.434 238.633 530.841C238.915 530.276 239.835 530.313 240.218 530.815C240.601 531.316 240.523 532.051 240.219 532.604C239.558 533.807 237.865 534.303 236.658 533.648C235.949 533.263 235.46 532.581 234.859 532.042C234.258 531.503 233.4 531.091 232.658 531.41C231.95 531.715 231.332 530.744 231.367 529.974C231.402 529.203 231.699 528.366 231.304 527.704Z" fill="#00160A"/>
<path fill-rule="evenodd" clip-rule="evenodd" d="M205.377 401.51C206.808 400.272 207.317 398.081 206.579 396.338C206.303 395.687 206.035 394.67 206.722 394.5C208.811 396.328 208.988 399.927 207.089 401.951C206.758 402.303 206.316 402.628 205.838 402.563C205.359 402.499 205.011 401.826 205.377 401.51L205.377 401.51Z" fill="#00160A"/>
<path fill-rule="evenodd" clip-rule="evenodd" d="M202.064 390.478C203.131 390.507 203.934 391.583 204.026 392.646C204.117 393.709 203.679 394.741 203.212 395.7C202.923 396.293 202.441 396.977 201.791 396.866C201.3 396.782 201.015 396.279 200.803 395.829C200.333 394.828 199.878 393.758 199.983 392.657C200.088 391.556 200.958 390.448 202.064 390.478V390.478Z" fill="#00160A"/>
<path fill-rule="evenodd" clip-rule="evenodd" d="M209.552 395.481C208.637 395.731 208.13 394.435 208.158 393.486C208.184 392.647 208.303 391.769 208.794 391.088C209.285 390.406 210.507 389.588 210.974 390.716C211.44 391.844 211.163 393.552 210.293 394.843C210.107 395.12 209.874 395.394 209.552 395.481Z" fill="#00160A"/>
<path fill-rule="evenodd" clip-rule="evenodd" d="M199.036 402.103C199.35 402.045 199.663 401.986 199.977 401.927C200.072 402.973 201.087 403.681 202.065 404.065C203.042 404.45 204.132 404.694 204.866 405.445C205.132 405.717 205.315 406.214 205.006 406.435C204.87 406.533 204.689 406.53 204.523 406.519C201.958 406.35 199.168 404.671 199.036 402.103Z" fill="#00160A"/>
<path fill-rule="evenodd" clip-rule="evenodd" d="M198.697 388.988C197.999 388.83 197.98 387.71 198.555 387.284C199.13 386.857 199.934 386.954 200.621 387.154C202.138 387.594 203.533 388.445 204.619 389.591C202.732 390.432 200.376 387.784 198.697 388.988V388.988Z" fill="#00160A"/>
<path fill-rule="evenodd" clip-rule="evenodd" d="M154.945 526.78C156.763 527.631 159.198 525.913 159.006 523.915C160.176 524.928 161.468 526.356 160.942 527.812C160.746 528.356 160.317 528.782 159.861 529.136C158.263 530.377 156.236 530.925 154.237 531.238C152.143 531.566 149.793 531.603 148.144 530.271C146.516 528.956 146.069 526.392 147.156 524.603C147.424 524.162 147.803 523.749 148.303 523.626C149.4 523.356 150.322 524.637 150.309 525.767C150.296 526.896 149.731 527.944 149.543 529.058C149.509 529.256 149.488 529.462 149.537 529.658C149.742 530.471 150.989 530.5 151.608 529.934C152.227 529.368 152.456 528.503 152.884 527.781C153.312 527.059 154.185 526.425 154.945 526.78ZM154.981 530.273C155.335 529.942 155.689 529.612 156.043 529.281C155.909 528.856 155.339 528.64 154.958 528.87C154.577 529.1 154.503 529.705 154.816 530.021L154.981 530.273Z" fill="#00160A"/>
<path fill-rule="evenodd" clip-rule="evenodd" d="M146.591 538.724C147.016 539.923 148.678 540.23 149.839 539.71C150.066 539.608 150.297 539.469 150.401 539.242C150.701 538.585 149.741 537.922 149.878 537.213C149.994 536.613 150.791 536.443 151.389 536.568C151.988 536.693 152.603 536.976 153.183 536.785C153.856 536.563 154.176 535.805 154.344 535.117C154.513 534.429 154.645 533.668 155.181 533.205C155.718 532.742 156.801 532.942 156.824 533.65C156.867 535.02 155.821 536.176 154.726 537.002C153.631 537.827 152.378 538.532 151.66 539.7C150.977 540.809 150.582 542.453 149.286 542.581C148.87 542.622 148.46 542.474 148.083 542.294C145.378 540.998 143.768 537.747 144.378 534.81C144.648 533.508 145.951 532.077 147.09 532.765C148.01 533.322 147.826 534.717 147.357 535.685C146.887 536.654 146.232 537.71 146.591 538.724V538.724Z" fill="#00160A"/>
<path fill-rule="evenodd" clip-rule="evenodd" d="M219.075 450.464C220.309 467.632 231.654 482.162 242.514 495.516C245.599 499.309 248.887 503.256 253.433 505.056C261.992 508.444 272.619 503.313 280.527 508.025C239.151 508.121 197.779 510.386 156.64 514.81C153.1 515.191 149.443 515.577 146.039 514.532C142.635 513.487 139.524 510.609 139.383 507.051C137.575 461.58 135.767 416.109 133.96 370.638C133.625 362.214 133.286 353.756 131.749 345.467C129.737 334.619 129.689 323.515 129.647 312.482C129.593 298.137 129.539 283.791 129.484 269.445C176.117 267.426 222.823 267.084 269.481 268.418C271.395 271.265 271.782 274.838 272.102 278.254C277.517 336.083 279.198 394.189 280.876 452.247C281.379 469.644 281.882 487.04 282.385 504.437C281.522 504.149 280.659 503.861 279.796 503.574C277.762 448.636 275.728 393.697 273.694 338.759C273.655 337.71 273.548 336.521 272.721 335.875C272.088 335.38 271.217 335.361 270.413 335.364C227.161 335.522 183.91 335.679 140.659 335.837C137.306 335.849 132.595 337.593 133.683 340.765C138.937 356.081 137.084 372.765 137.147 388.957C137.182 397.955 137.828 406.938 138.474 415.913C139.263 426.858 140.051 437.804 140.839 448.75C142.711 443.892 144.583 439.035 146.455 434.177C146.889 433.05 147.281 431.647 146.48 430.743C140.53 424.031 142.395 412.04 150.103 407.452C151.583 406.571 153.239 405.92 154.451 404.697C157.862 401.254 156.249 395.183 158.765 391.041C162.499 384.892 174.035 384.662 174.436 377.479C174.798 370.991 180.688 365.758 187.066 364.515C193.444 363.272 200.053 365.295 205.797 368.333C211.404 371.299 216.963 376.111 217.204 382.449C217.299 384.943 216.541 387.382 215.792 389.762C213.076 398.386 209.887 407.667 202.387 412.716C212.063 422.88 218.07 436.467 219.075 450.464ZM211.947 473.416C217.515 484.378 228.083 492.186 233.517 503.214C233.761 503.709 234.014 504.234 234.475 504.537C234.999 504.883 235.672 504.866 236.3 504.848C241.053 504.713 245.823 505.2 250.45 506.294C239.496 496.793 231.234 484.605 223.739 472.192C221.036 467.714 218.343 462.96 218.078 457.736C217.304 442.504 211.713 427.551 202.303 415.548C198.844 411.136 191.4 411.989 187.427 415.945C183.453 419.9 182.181 425.787 181.602 431.364C181.414 433.179 181.286 435.062 181.887 436.785C182.489 438.508 184.003 440.039 185.826 440.103C187.65 440.168 189.425 438.25 188.793 436.538C189.44 437.926 190.088 439.314 190.736 440.701C188.078 443.559 182.922 442.629 180.478 439.587C178.033 436.546 177.826 432.229 178.661 428.418C180.631 419.42 188.144 411.883 197.134 409.883C197.24 408.129 194.645 407.607 193.047 408.339C191.45 409.07 189.927 410.42 188.196 410.115C186.614 409.837 185.712 411.798 185.15 413.303C181.986 421.783 172.934 426.164 165.614 431.487C163.118 433.302 160.655 435.355 157.659 436.095C154.663 436.834 150.926 435.738 149.858 432.842C140.693 456.523 138.522 482.863 143.687 507.725C144.054 509.492 145.68 510.781 147.414 511.281C149.148 511.782 150.994 511.64 152.793 511.495C179.47 509.337 206.148 507.18 232.825 505.022C226.471 492.778 214.517 483.967 209.072 471.292C207.802 468.335 206.906 465.204 205.293 462.419C202.851 458.202 198.869 454.958 196.875 450.512C194.468 453.824 192.06 457.135 189.652 460.447C189.111 461.192 189.361 462.226 189.633 463.107C190.237 465.058 190.868 467.061 192.153 468.648C193.438 470.235 195.549 471.329 197.527 470.822C201.561 469.787 206.156 471.529 208.49 474.979C203.556 474.048 198.622 473.118 193.688 472.187C192.974 472.053 192.224 471.902 191.67 471.431C191.2 471.031 190.93 470.451 190.674 469.889C189.756 467.873 188.838 465.857 187.92 463.84C187.12 462.082 186.335 459.96 187.356 458.32C188.22 456.931 190.016 456.514 191.364 455.587C195.082 453.027 194.595 447.364 192.901 443.18C191.206 438.996 188.667 434.689 189.646 430.282C191.652 436.801 193.704 443.419 197.448 449.121C200.212 453.33 203.84 456.943 206.374 461.294C208.613 465.14 209.932 469.449 211.947 473.416ZM132.725 273.615C132.839 283.803 132.953 293.991 133.067 304.179C133.093 306.424 133.918 309.461 136.156 309.283C180.383 305.768 224.81 304.769 269.15 306.292C270.378 306.335 271.393 305.206 271.666 304.008C271.938 302.81 271.656 301.564 271.392 300.364C269.381 291.219 268.425 281.842 268.548 272.478C268.568 270.993 266.589 270.492 265.104 270.465C221.634 269.67 178.146 269.91 134.688 271.184C134.261 271.196 133.809 271.216 133.45 271.448C132.779 271.879 132.716 272.817 132.725 273.615M273.548 331.148C273.715 323.506 273.251 315.849 272.163 308.283C268.603 309.621 264.699 310.032 260.939 309.463C257.21 308.899 253.424 308.866 249.652 308.835C232.367 308.693 215.079 308.55 197.795 308.855C176.881 309.224 155.983 310.249 135.099 311.439C134.529 311.472 133.913 311.522 133.481 311.895C132.919 312.381 132.872 313.22 132.872 313.962C132.865 319.883 133.12 325.804 133.633 331.702C133.664 332.059 133.705 332.44 133.932 332.717C134.29 333.153 134.943 333.16 135.506 333.129C176.806 330.903 218.203 332.34 259.563 332.378C264.257 332.382 269.013 332.361 273.548 331.148ZM177.167 373.815C176.047 376.52 176.001 379.662 174.395 382.11C171.133 387.081 163.03 387.012 159.979 392.116C157.509 396.249 159.396 402.262 156.153 405.821C154.522 407.61 152.009 408.25 149.974 409.56C145.708 412.304 143.928 418.076 145.238 422.976C146.548 427.876 150.546 431.795 155.228 433.747C156.06 434.094 156.953 434.391 157.848 434.281C158.858 434.156 159.729 433.534 160.55 432.932C166.216 428.778 171.881 424.624 177.547 420.471C179.633 418.941 181.799 417.319 182.925 414.99C184.834 411.046 183.456 405.713 186.467 402.529C187.629 401.301 189.297 400.608 190.34 399.277C191.383 397.946 191.255 395.454 189.601 395.104C187.798 394.723 188.273 391.854 189.705 390.693C191.137 389.532 193.171 388.806 193.71 387.043C194.218 385.382 193.454 382.895 195.098 382.331C196.044 382.007 196.981 382.743 197.819 383.289C201.512 385.697 207.088 384.437 209.388 380.675C210.282 379.213 212.581 380.769 213 382.431C213.418 384.093 213.481 386.234 215.058 386.904C216.62 384.453 216.15 381.12 214.619 378.65C213.088 376.179 210.676 374.402 208.266 372.777C203.32 369.444 197.894 366.408 191.947 365.96C186 365.512 179.449 368.305 177.167 373.815ZM194.893 395.221C193.518 400.263 186.435 402.448 185.854 407.641C187.178 409.095 189.608 408.408 191.245 407.319C192.08 406.765 192.886 406.104 193.341 405.212C193.797 404.32 193.825 403.149 193.184 402.379C192.627 401.71 193.883 400.803 194.628 401.253C195.372 401.704 195.559 402.675 195.785 403.516C196.268 405.308 197.256 406.961 198.606 408.234C199.731 409.295 201.374 410.117 202.793 409.505C203.378 409.252 203.842 408.788 204.275 408.32C208.763 403.47 211.554 397.08 212.061 390.492C212.119 389.743 212.086 388.859 211.473 388.427C210.871 388.002 210.054 388.248 209.324 388.348C208.593 388.447 207.624 388.173 207.59 387.437C208.424 386.629 209.851 386.531 210.788 387.218C211.183 387.507 211.57 386.824 211.556 386.335C211.516 384.936 211.066 383.551 210.276 382.395C208.537 384.334 206.281 385.907 203.72 386.384C201.16 386.861 198.291 386.092 196.64 384.078C195.643 386.206 195.201 388.59 195.368 390.933C195.428 391.774 194.205 392.033 193.406 391.762C192.608 391.492 191.695 391.019 190.992 391.486C190.31 391.938 190.387 393.039 190.933 393.65C191.478 394.26 192.313 394.506 193.102 394.725C193.699 394.89 194.296 395.056 194.893 395.221ZM144.566 443.865C144.688 443.347 144.744 442.669 144.278 442.414C143.103 445.869 142 449.347 140.969 452.847C140.573 454.191 140.204 455.707 140.884 456.932C141.374 456.953 141.626 456.363 141.738 455.885C142.681 451.878 143.624 447.871 144.566 443.865Z" fill="#00160A"/>
<path fill-rule="evenodd" clip-rule="evenodd" d="M255.012 544.935C280.473 542.882 306.052 542.281 331.582 543.137C330.837 534.553 330.093 525.97 329.349 517.386C303.303 518.56 277.257 519.734 251.212 520.908C250.41 528.533 247.453 535.919 242.77 541.99C240.514 544.915 242.454 549.046 243.903 552.444C245.352 555.841 245.468 560.992 241.908 561.979C237.212 559.667 233.865 554.816 233.371 549.605C214.11 550.445 194.85 551.285 175.589 552.125C168.43 552.437 159.594 553.963 157.463 560.805C156.631 555.414 149.512 554.175 144.058 554.248C127.759 554.467 111.46 554.686 95.1611 554.905C94.9126 547.464 94.6641 540.024 94.4156 532.584C94.3674 531.142 94.3337 529.631 94.9803 528.341C96.7163 524.88 101.702 525.248 105.471 526.137C104.26 514.023 103.048 501.91 101.837 489.796C96.2167 491.082 98.0246 476.672 92.368 477.785C88.9437 478.459 85.7154 475.314 84.9845 471.901C84.2537 468.489 85.3197 464.977 86.3745 461.65C89.5536 460.679 94.1096 461.64 97.3314 460.679C100.553 459.718 102.517 457.861 102.404 454.501C100.067 384.722 95.021 315.035 87.2817 245.647C82.3407 247.773 76.457 243.937 74.4692 238.939C72.4814 233.941 73.3329 228.312 74.3729 223.034C74.7378 221.182 75.1861 219.215 76.5461 217.906C78.2798 216.237 80.9446 216.132 83.3509 216.127C158.861 215.955 234.371 215.783 309.881 215.611C311.527 215.608 313.34 215.665 314.557 216.774C315.669 217.787 315.962 219.395 316.193 220.882C317.09 226.664 317.971 232.691 316.206 238.269C314.442 243.847 309.166 248.783 303.355 248.1C306.534 316.967 309.712 385.833 312.891 454.699C318.071 453.567 324.129 455.484 326.713 460.115C329.297 464.745 326.941 471.743 321.766 472.902C325.067 475.647 323.474 481.489 319.841 483.777C316.208 486.065 311.587 485.832 307.312 485.441C303.036 485.05 298.473 484.634 294.682 486.649C295.577 494.947 295.465 503.353 294.351 511.625C298.028 509.432 303.005 509.661 306.465 512.183C308.867 513.934 311.049 509.674 311.027 506.701C310.974 499.779 310.921 492.856 310.868 485.933C314.618 494.533 315.661 504.289 313.815 513.486C318.437 513.847 323.06 514.207 327.683 514.568C329.072 514.676 330.577 514.833 331.597 515.784C332.611 516.731 332.875 518.215 333.051 519.591C334.189 528.477 334.019 537.529 332.548 546.366C302.597 544.289 272.44 545.197 242.668 549.07C245.755 545.878 250.585 545.291 255.012 544.935ZM166.153 522.39C168.301 516.414 176.15 515.341 182.499 515.269C185.422 515.237 188.345 515.204 191.267 515.171C197.588 515.1 203.934 515.031 210.203 515.841C210.983 516.771 211.763 517.701 212.543 518.631C215.041 517.837 218.007 518.89 219.445 521.083C223.721 516.643 228.997 512.779 235.095 511.881C241.193 510.983 248.13 513.802 250.462 519.508C251.304 516.614 252.356 513.543 254.787 511.763C257.219 509.982 261.424 510.416 262.42 513.26C266.344 508.908 274.276 509.271 277.787 513.963C277.827 511.678 280.925 510.875 283.163 511.338C285.4 511.8 287.869 512.793 289.825 511.612C291.931 510.341 292.059 507.389 291.94 504.931C288.017 424.263 284.095 343.594 280.172 262.926C280.145 262.359 280.093 261.736 279.691 261.336C279.272 260.918 278.616 260.885 278.024 260.878C226.712 260.225 175.401 259.572 124.089 258.919C122.987 258.905 121.752 258.944 120.984 259.734C120.26 260.48 120.212 261.632 120.208 262.672C119.982 327.388 122.561 392.115 127.934 456.608C128.145 459.142 129.544 462.56 131.981 461.835C132.104 469.115 132.228 476.396 132.351 483.676C132.379 485.325 132.273 487.253 130.919 488.196C130.166 488.719 129.199 488.794 128.284 488.852C120.792 489.324 113.3 489.796 105.809 490.268C106.979 501.846 108.149 513.423 109.319 525.001C116.024 525.226 122.748 524.873 129.393 523.948C126.209 513.893 125.09 503.19 126.124 492.694C128.371 492.879 129.078 495.786 129.193 498.038C129.468 503.441 129.743 508.844 130.018 514.247C130.163 517.105 130.38 520.163 132.14 522.419C133.9 524.676 137.808 525.442 139.527 523.154C145.65 515.004 159.572 514.604 166.153 522.39ZM308.448 422.219C305.733 364.239 303.017 306.259 300.302 248.279C229.992 247.568 159.682 246.857 89.3724 246.146C99.4747 316.911 102.374 388.482 105.26 459.906C111.877 460.689 118.587 460.688 125.203 459.902C123.298 431.691 121.394 403.481 119.489 375.27C118.812 365.245 118.135 355.216 117.803 345.173C117.527 336.818 117.49 328.457 117.453 320.098C117.368 300.752 117.282 281.406 117.197 262.06C117.187 259.935 117.854 257.08 119.98 257.091C173.319 257.351 226.658 257.612 279.997 257.873C281.171 257.879 282.555 257.997 283.164 259C283.459 259.487 283.496 260.081 283.525 260.65C285.689 303.303 287.853 345.958 289.547 388.633C289.829 395.749 290.098 402.866 290.367 409.983C290.927 424.786 291.487 439.589 292.047 454.392C292.101 455.804 294.031 456.144 295.442 456.051C300.291 455.729 305.139 455.407 309.988 455.086C309.475 444.13 308.961 433.175 308.448 422.219ZM76.2312 237.239C77.2372 240.737 80.1642 243.958 83.8014 244.098C136.666 246.142 189.631 243.054 242.492 245.172C263.914 246.03 285.498 247.735 306.698 244.535C308.148 244.317 309.673 244.04 310.793 243.093C311.842 242.206 312.374 240.862 312.792 239.554C314.51 234.164 314.925 228.364 313.993 222.784C313.759 221.389 313.35 219.866 312.164 219.095C311.279 218.52 310.157 218.499 309.102 218.496C277.257 218.42 245.413 218.344 213.568 218.268C208.419 218.256 203.271 218.244 198.122 218.232C181.256 218.191 164.389 218.151 147.523 218.111C125.596 218.059 103.669 218.007 81.7453 218.346C78.1794 218.401 76.7027 222.871 76.2144 226.404C75.7159 230.009 75.2252 233.741 76.2312 237.239ZM215.718 523.538C199.413 524.129 183.108 524.72 166.803 525.311C168.148 525.611 168.285 527.54 167.703 528.789C167.121 530.038 166.121 531.22 166.252 532.592C166.663 536.9 165.327 541.351 162.611 544.721C160.687 547.109 157.926 550.087 159.519 552.708C164.097 550.452 169.353 550.131 174.449 549.851C193.172 548.821 211.895 547.79 230.618 546.76C231.837 542.221 225.13 537.987 226.992 533.673C227.417 532.687 226.738 531.601 226.092 530.744C223.451 527.24 220.103 523.379 215.718 523.538ZM97.8578 532.886C98.2529 539.255 99.0525 545.6 100.25 551.867C116.298 551.819 132.345 551.77 148.393 551.721C149.194 551.718 150.335 551.076 149.815 550.466C147.267 547.479 144.72 544.493 142.173 541.507C140.755 539.845 139.284 538.073 138.9 535.923C138.318 532.672 140.164 528.668 137.79 526.371C125.325 528.487 112.642 529.311 100.008 528.826C98.272 528.76 97.7502 531.153 97.8578 532.886ZM230.611 539.621C232.084 542.126 231.177 545.923 233.522 547.64C237.484 550.542 236.844 558.048 241.549 559.456C242.388 558.612 243.25 557.734 243.681 556.624C244.112 555.515 243.999 554.103 243.094 553.329C240.611 551.209 240.038 547.503 240.717 544.309C241.396 541.115 243.104 538.254 244.567 535.334C246.26 531.954 247.652 528.423 248.719 524.796C249.196 523.175 249.513 521.17 248.28 520.015C247.253 519.054 245.429 519.024 244.795 517.767C244.465 517.113 244.577 516.294 244.211 515.659C243.812 514.966 242.971 514.686 242.201 514.469C239.692 513.762 237.093 513.132 234.501 513.412C231.909 513.692 229.291 515.051 228.165 517.403C227.211 519.395 223.859 518.426 222.308 519.998C220.736 521.589 222.207 524.316 224.007 525.644C225.807 526.973 228.128 528.12 228.585 530.31C228.996 532.277 227.664 534.357 228.279 536.27C228.699 537.572 229.917 538.441 230.611 539.621ZM89.5536 474.816C90.3259 476.035 92.0138 476.189 93.4566 476.192C104.767 476.217 116.035 474.93 127.272 473.644C129.303 473.412 129.803 470.662 129.461 468.646C129.119 466.63 128.617 464.181 130.169 462.849C117.227 461.92 104.208 462.057 91.2879 463.257C90.6539 463.316 89.9624 463.405 89.5223 463.865C89.0443 464.365 89.0223 465.133 89.0288 465.824C89.0496 468.037 89.0704 470.25 89.0912 472.463C89.0988 473.273 89.1199 474.132 89.5536 474.816ZM162.351 522.129C159.95 520.487 157.132 518.766 154.322 519.521C153.599 519.715 152.776 520.055 152.157 519.634C149.057 517.522 144.118 519.277 143.046 522.872C142.703 524.019 141.462 524.612 140.707 525.541C139.952 526.47 140.233 528.401 141.417 528.227C142.401 528.083 142.905 529.513 142.486 530.415C142.067 531.317 141.18 531.918 140.679 532.777C139.345 535.066 141.192 537.845 142.939 539.837C145.667 542.947 148.395 546.058 151.123 549.168C153.423 551.79 155.773 554.496 156.955 557.777C158.652 556.645 158.302 554.086 157.679 552.144C157.056 550.201 156.471 547.762 157.97 546.377C158.591 545.804 159.504 545.512 159.886 544.758C160.268 544.004 159.191 542.861 158.717 543.561C157.869 544.811 156.456 545.925 154.978 545.617C153.499 545.308 152.854 542.857 154.262 542.309C154.754 543.309 156.269 542.762 157.161 542.094C158.433 541.141 159.705 540.188 160.977 539.235C162.628 537.999 164.406 536.559 164.728 534.522C165.072 532.351 163.729 529.741 165.228 528.134C163.975 527.051 164.676 524.894 163.821 523.476C163.475 522.902 162.905 522.507 162.351 522.129ZM292.562 471.93C293.98 471.241 295.591 471.097 297.161 470.961C305.221 470.26 313.273 469.47 321.315 468.591C322.316 468.482 323.352 468.36 324.218 467.846C325.961 466.811 326.493 464.345 325.71 462.475C324.927 460.605 323.107 459.325 321.172 458.721C319.237 458.117 317.174 458.098 315.147 458.116C308.434 458.176 301.723 458.587 295.053 459.346C293.87 459.481 292.546 459.707 291.859 460.679C291.242 461.55 291.354 462.723 291.493 463.782C291.849 466.498 292.206 469.214 292.562 471.93ZM100.777 485.648C101.702 487.121 103.634 487.649 105.37 487.538C107.105 487.428 108.767 486.813 110.483 486.529C116.003 485.616 121.958 488.127 127.121 485.969C127.531 485.797 127.948 485.582 128.197 485.214C128.443 484.85 128.489 484.391 128.523 483.954C128.687 481.864 128.743 479.766 128.693 477.67C128.685 477.343 128.657 476.977 128.411 476.762C128.221 476.595 127.951 476.566 127.699 476.546C118.562 475.842 109.486 478.694 100.323 478.56C99.7081 478.551 99.5547 479.409 99.6187 480.021C99.7292 481.078 99.8655 482.133 100.027 483.183C100.159 484.038 100.317 484.916 100.777 485.648ZM320.669 473.714C320.586 473.278 320.473 472.817 320.15 472.513C319.691 472.083 318.981 472.113 318.355 472.171C311.055 472.843 303.759 473.562 296.467 474.325C295.471 474.43 294.325 474.628 293.829 475.498C293.224 476.56 293.977 477.86 294.026 479.081C294.057 479.846 293.812 480.669 294.172 481.345C294.649 482.243 295.874 482.347 296.891 482.329C299.844 482.279 302.797 482.182 305.749 482.084C310.354 481.932 314.96 481.78 319.566 481.628C320.473 481.598 320.86 480.468 320.946 479.563C321.13 477.614 321.037 475.638 320.669 473.714ZM292.557 514.284C292.183 514.079 291.908 513.724 291.531 513.523C290.732 513.096 289.739 513.474 288.992 513.988C288.245 514.501 287.556 515.164 286.672 515.366C285.789 515.567 284.65 515.004 284.7 514.099C284.768 512.857 282.971 512.368 281.849 512.904C280.726 513.441 279.912 514.514 278.752 514.965C277.982 515.265 277.075 515.283 276.443 515.816C275.81 516.348 275.954 517.716 276.779 517.658C285.299 517.059 293.819 516.459 302.339 515.86C303.057 515.809 303.891 515.69 304.247 515.065C304.789 514.116 303.614 512.969 302.522 512.99C301.43 513.012 300.476 513.688 299.462 514.093C297.703 514.795 295.74 514.683 293.851 514.56C293.407 514.531 292.947 514.498 292.557 514.284ZM189.473 521.675C196.069 521.26 202.665 520.844 209.261 520.429C209.651 520.404 210.08 520.362 210.351 520.08C210.876 519.532 210.313 518.55 209.576 518.365C208.84 518.18 208.082 518.48 207.346 518.665C206.61 518.851 205.715 518.876 205.217 518.302C204.172 517.097 202.113 519.53 200.753 518.695C198.878 517.544 196.665 516.875 194.473 517.059C192.28 517.242 190.129 518.336 188.886 520.151C188.581 520.598 188.386 521.317 188.853 521.591C189.036 521.699 189.262 521.689 189.473 521.675ZM260.813 512.086C259.804 511.516 258.57 512.286 257.756 513.11C256.781 514.098 255.929 515.691 256.788 516.78C257.377 517.528 258.465 517.596 259.417 517.602C261.682 517.616 263.948 517.629 266.213 517.643C266.619 517.645 267.043 517.644 267.405 517.459C267.962 517.175 268.227 516.541 268.45 515.957C268.891 514.797 269.225 513.237 268.211 512.521C267.831 512.254 267.35 512.19 266.889 512.134C265.91 512.015 264.768 511.951 264.098 512.674C263.19 513.653 263.554 515.673 262.283 516.08C261.635 514.768 262.087 512.806 260.813 512.086ZM184.609 521.202C184.932 521.187 185.264 521.171 185.558 521.035C186.615 520.544 186.367 518.777 185.347 518.213C184.327 517.649 183.04 517.98 182.009 518.525C181.074 519.02 179.961 518.473 178.961 518.124C176.208 517.161 172.941 517.865 170.829 519.877C170.285 520.395 169.79 521.198 170.156 521.854C174.974 521.636 179.792 521.419 184.609 521.202ZM270.05 517.887C270.216 517.994 270.422 518.011 270.618 518.02C272.117 518.089 273.988 517.554 274.23 516.073C274.37 515.214 273.777 514.298 272.936 514.073C271.497 513.69 270.225 515.184 269.824 516.618C269.699 517.062 269.662 517.637 270.05 517.887ZM255.337 514.971C255.405 514.344 255.059 513.4 254.499 513.691C253.925 514.75 253.572 515.929 253.471 517.129C253.435 517.566 253.441 518.041 253.698 518.396C253.955 518.752 254.549 518.882 254.828 518.543C254.963 518.379 254.991 518.154 255.014 517.942C255.122 516.952 255.229 515.962 255.337 514.971ZM160.891 541.22C160.452 542.09 160.765 543.266 161.578 543.802C162.146 543.105 162.751 542.263 162.54 541.388C162.33 540.514 160.77 540.246 160.64 541.136M215.625 521.507C216.213 521.595 216.96 521.508 217.177 520.953C216.547 520.486 215.697 520.328 214.942 520.539C214.766 520.768 214.701 521.078 214.77 521.358C215.016 521.522 215.329 521.58 215.616 521.515L215.625 521.507Z" fill="#00160A"/>
<path fill-rule="evenodd" clip-rule="evenodd" d="M603.92 269.941C606.234 270.002 608.856 270.205 610.313 272.004C611.512 273.484 611.513 275.569 611.456 277.472C609.222 352.404 606.557 427.324 603.461 502.225C600.687 480.394 601.727 458.278 602.771 436.296C604.602 397.727 606.434 359.157 608.266 320.588C608.13 327.15 605.851 335.911 599.29 335.718C562.991 334.648 526.691 333.577 490.391 332.507C487.575 332.424 484.132 331.921 483.134 329.287C523.011 330.367 562.888 331.447 602.765 332.527C604.49 326.274 604.948 319.675 604.103 313.244C564.1 312.458 524.097 311.672 484.094 310.886C483.263 308.716 486.576 307.494 488.898 307.543C526.735 308.356 564.572 309.168 602.409 309.981C604.412 310.024 605.171 307.406 605.303 305.406C605.867 296.877 606.431 288.347 606.995 279.818C607.119 277.945 607.171 275.851 605.923 274.45C604.63 273 602.452 272.856 600.51 272.815C561.665 271.996 522.82 271.177 483.975 270.358C481.403 321.312 480.601 372.356 481.573 423.366C485.549 413.056 493.889 404.511 504.1 400.286C497.336 393.966 495.144 383.243 498.884 374.776C494.578 376.995 490.941 370.13 492.252 365.466C492.638 364.092 494.779 362.768 495.344 361.402C496.695 358.131 496.061 356.076 495.428 351.581C494.795 347.087 500.947 345.811 504.623 347.999C508.299 350.188 511.936 354.017 516.038 352.801C521.013 351.327 526.289 355.272 528.165 360.11C530.041 364.948 529.415 370.348 528.761 375.495C527.816 382.926 525.408 392.032 518.069 393.53C517.521 398.829 525.313 399.591 530.565 400.479C537.727 401.689 543.617 407.148 547.063 413.543C550.508 419.937 551.862 427.225 552.948 434.407C556.427 457.417 557.54 481.454 550.03 503.481C567.131 503.209 584.232 502.938 601.334 502.666C591.39 506.131 580.637 506.266 570.106 506.29C541.31 506.358 512.512 505.876 483.734 504.844C482.003 504.782 480.12 504.659 478.828 503.506C477.444 502.27 477.169 500.242 477.01 498.394C475.986 486.493 476.107 474.494 477.372 462.616C478.437 475.815 479.502 489.014 480.568 502.213C494.542 502.73 508.516 503.248 522.491 503.765C527.799 503.962 534.53 503.232 536.183 498.183C536.173 499.848 536.163 501.513 536.152 503.178C539.813 503.975 543.628 504.056 547.319 503.413C553.734 484.562 555.033 463.998 551.041 444.489C546.726 444.028 543.063 448.119 542.152 452.362C541.241 456.604 542.262 460.985 542.764 465.296C544.034 476.205 541.861 487.491 536.631 497.149C541.101 484.364 542.085 470.38 539.45 457.095C537.534 447.43 533.73 437.967 534.119 428.122C537.254 434 538.755 440.739 538.411 447.392C542.669 445.622 546.928 443.852 551.187 442.082C550.493 432.494 549.707 422.576 545.136 414.12C540.565 405.663 531.103 399.05 521.672 400.913C520.835 406.806 516.828 412.999 510.887 413.379C504.946 413.759 500.371 404.643 505.438 401.518C493.454 404.908 486.405 416.953 480.62 427.983C478.307 432.391 475.939 437.058 476.103 442.033C476.266 447.008 479.967 452.241 484.945 452.218C490.713 446.041 494.062 437.664 494.142 429.214C495.638 451.065 495.575 473.023 493.954 494.865C493.789 497.079 491.41 500.014 490.175 498.168C493.208 481.54 493.567 464.428 491.236 447.687C485.865 455.092 478.483 461.023 470.094 464.672C466.243 466.348 465.253 471.433 465.883 475.585C466.513 479.738 468.215 483.829 467.67 487.994C467.124 492.158 464.87 495.993 459.026 494.503C453.181 493.014 444.733 495.419 444.733 495.419C444.733 495.419 445.828 514.605 447.731 520.316C455.067 526.01 466.079 515.225 474.553 519.027C479.823 521.391 485.827 521.26 491.601 521.086C495.205 520.978 500.275 518.266 498.175 515.335C489.001 516.299 479.724 516.286 470.553 515.296C466.609 514.871 463.721 511.055 463.031 507.148C462.341 503.242 463.347 499.258 464.346 495.419C464.956 498.559 464.736 504.044 465.074 506.29C465.413 508.537 466.399 512.256 468.867 512.497C488.228 514.389 494.723 513.159 508.275 509.998C510.657 509.443 513.592 508.741 516.038 508.757C518.965 508.775 521.702 510.353 524.543 511.057C534.405 513.5 544.742 512.738 554.873 511.959C574.425 510.457 593.978 508.955 613.53 507.453C621.489 494.054 606.392 473.721 617.118 462.414C618.023 394.439 618.928 326.464 619.834 258.489C568.968 256.882 518.052 256.885 467.187 258.498C463.711 317.503 463.052 376.673 465.212 435.74C461.988 427.308 461.761 418.069 461.62 409.042C460.855 360.249 461.43 311.435 463.343 262.673C463.431 260.439 463.662 257.914 465.413 256.523C466.727 255.479 468.535 255.389 470.213 255.346C520.523 254.059 570.866 254.081 621.175 255.413C621.175 303.765 623.739 345.14 620.403 389.871C618.551 414.689 619.834 437.685 619.834 462.616C624.678 463.198 631.084 460.902 632.628 456.274C634.172 451.646 633.578 446.616 633.085 441.762C626.467 376.57 641.497 310.782 636.604 245.437C573.916 242.566 511.113 242.207 448.397 244.36C447.099 244.405 445.677 244.5 444.733 245.391C443.675 246.389 443.594 248.016 443.585 249.471C443.235 303.386 442.885 357.302 442.535 411.218C439.251 363.592 438.334 315.775 440.771 268.098C441.037 262.893 441.327 257.558 439.786 252.579C438.245 247.6 434.446 242.969 429.324 242.005C428.314 233.073 428.449 224.013 429.724 215.116C503.545 215.5 577.366 215.884 651.188 216.268C651.454 221.885 651.721 227.502 651.988 233.119C652.24 238.437 650.134 245.967 644.916 244.907C642.797 244.477 641.78 247.402 641.668 249.562C640.752 267.307 639.836 285.051 638.921 302.796C636.199 355.531 633.476 408.346 635.303 461.12C640.021 461.356 644.739 461.591 649.457 461.826C650.708 464.789 651.987 467.94 651.52 471.123C651.053 474.305 648.099 477.353 644.954 476.68C647.695 483.07 640.383 491.081 633.77 488.934C634.301 496.575 634.831 504.216 635.362 511.856C635.462 513.298 635.611 514.859 636.589 515.922C639.641 519.239 646.179 514.119 649.402 517.27C649.838 524.785 650.274 532.3 650.711 539.815C650.83 541.865 650.842 544.199 649.353 545.612C648.353 546.56 646.913 546.84 645.554 547.07C619.074 551.547 591.929 552.076 565.294 548.634C566.725 555.482 567.83 563.574 562.988 568.623C559.416 572.347 552.59 575.249 554.217 580.146C557.144 579.527 559.795 577.691 561.404 575.169C561.092 578.442 558.047 581.222 554.759 581.236C551.937 581.534 552.499 576.82 554.424 574.735C558.652 570.159 564.119 566.064 565.465 559.981C566.811 553.898 559.844 546.463 554.914 550.273C551.949 552.564 552.084 557 552.5 560.724C549.836 557.718 550.183 552.542 553.226 549.919C545.293 551.729 537.063 552.225 528.97 551.382C539.191 549.833 549.413 548.284 559.634 546.734C556.724 538.681 557.483 529.381 561.659 521.905C555.264 521.201 548.753 521.557 542.472 522.955C540.715 523.346 538.919 523.845 537.514 524.971C536.038 526.154 535.147 527.902 534.34 529.613C527.495 544.126 523.554 560.002 522.82 576.031C521.229 566.807 522.401 557.124 526.147 548.546C525.246 547.115 524.078 545.852 522.722 544.843C532.041 541.194 536.511 528.586 531.572 519.881C530.795 518.512 529.834 517.25 528.741 516.117C522.174 509.311 510.581 508.124 502.771 513.458C499.433 517.66 501.046 519.074 499.632 521.565C498.77 523.085 496.857 524.038 496.036 525.609C495.728 526.197 495.651 527.076 495.344 527.664C497.627 529.528 500.491 530.671 503.431 530.89C503.141 534.043 502.851 537.197 502.561 540.351C504.229 540.642 505.897 540.932 507.566 541.222C505.332 543.446 507.323 548.079 510.473 547.989C513.451 557.459 516.428 566.929 519.405 576.399C516.366 568.799 513.326 561.198 510.287 553.598C500.044 554.764 489.801 555.931 479.559 557.097C479.929 558.973 480.896 560.726 482.286 562.04C476.212 562.919 470.113 557.132 470.673 551.02C467.685 556.409 472.295 562.834 477.04 566.765C481.785 570.695 487.538 575.111 487.336 581.269C482.62 582.922 476.824 579.56 475.918 574.645C477.632 577.838 481.336 579.844 484.947 579.534C482.599 577.177 480.251 574.819 477.903 572.461C479.639 573.502 481.374 574.542 483.109 575.583C483.889 573.557 482.087 571.283 479.986 570.736C477.885 570.188 475.68 570.848 473.61 571.503C469.769 572.717 465.799 574.004 462.815 576.711C459.832 579.417 458.119 583.968 459.898 587.582C463.7 586.274 466.96 583.458 468.809 579.887C468.606 584.689 463.959 588.839 459.164 588.5C455.767 581.828 461.38 572.501 468.867 572.379C471.953 572.328 473.783 568.46 472.97 565.483C472.157 562.506 469.667 560.336 467.301 558.354C465.709 560.434 463.652 562.156 461.325 563.358C461.25 559.848 461.94 556.322 463.334 553.099C460.187 556.674 458.412 561.428 458.447 566.191C456.841 562.265 456.984 557.66 458.831 553.842C449.52 555.428 440.065 556.172 430.62 556.061C429.064 545.273 427.509 534.485 425.953 523.698C431.794 522.118 437.844 521.318 443.895 521.324C440.863 503.178 443.895 502.674 440.128 494.503C439.617 493.393 437.799 495.515 436.562 493.014C435.325 490.514 434.773 484.002 434.773 484.002C434.773 484.002 429.722 483.264 429.324 481.905C427.761 476.57 426.005 471.804 429.805 468.934C433.855 465.875 440.198 468.496 444.443 465.711C442.847 459.415 442.538 452.795 443.54 446.377C446.034 450.616 445.146 456.006 446.518 460.73C447.89 465.453 454.356 469.423 457.447 465.597C452.917 457.518 446.844 445.901 440.707 438.965C436.784 434.531 431.219 435.59 427.146 430.694C423.073 425.799 421.865 424.828 420.428 420.735C418.992 416.642 420.951 411.036 425.247 410.438C429.448 409.854 432.625 414.01 434.773 417.667C433.806 414.44 436.389 410.654 439.747 410.377C443.902 423.479 451.43 435.496 461.407 444.951C464.537 447.918 470.855 449.913 472.1 445.783C469.88 442.311 473.737 438.333 475.884 434.816C478.479 430.565 478.593 425.306 478.631 420.325C479.011 370.839 479.39 321.352 479.77 271.865C479.8 267.971 485.067 266.843 488.96 266.944C527.28 267.943 565.6 268.942 603.92 269.941ZM432.183 240.222C432.759 240.666 433.545 240.685 434.273 240.686C449.213 240.7 464.154 240.713 479.095 240.727C487.753 240.735 496.412 240.743 505.07 240.75C521.652 240.766 538.233 240.781 554.815 240.796C584.513 240.823 614.212 240.85 643.91 240.877C645.526 240.878 647.441 240.719 648.262 239.326C648.68 238.616 648.694 237.746 648.695 236.921C648.705 231.367 648.715 225.812 648.726 220.258C648.727 219.68 648.705 219.041 648.308 218.621C647.885 218.173 647.197 218.139 646.581 218.136C576.145 217.72 505.709 217.303 435.274 216.887C434.401 216.882 433.424 216.918 432.816 217.543C432.267 218.107 432.199 218.969 432.163 219.755C431.895 225.591 431.626 231.426 431.358 237.262C431.308 238.328 431.336 239.571 432.183 240.222ZM559.598 538.271C559.159 537.838 558.343 538.298 558.23 538.904C558.116 539.509 558.446 540.101 558.77 540.626C559.903 542.466 561.18 544.325 563.055 545.399C564.875 546.442 567.044 546.626 569.135 546.786C576.329 547.34 583.524 547.893 590.719 548.446C595.345 548.802 599.98 549.158 604.619 549.078C619.029 548.829 633.137 544.385 647.548 544.316C648.732 544.31 649.057 542.695 649.002 541.513C648.719 535.362 648.435 529.211 648.151 523.06C648.074 521.395 647.414 519.174 645.752 519.309C618.287 521.541 590.687 522.121 563.152 521.042C563.312 526.617 561.693 532.23 558.589 536.864C561.561 536.995 564.549 536.765 567.466 536.181C565.26 535.456 562.934 535.097 560.612 535.123C564.531 533.041 569.877 534.204 572.576 537.727C572.824 538.052 573.062 538.429 573.027 538.837C572.958 539.63 571.987 539.951 571.201 540.08C567.183 540.743 562.496 541.132 559.598 538.271ZM459.629 542.216C458.975 542.691 458.053 543.165 457.428 542.653C457.126 542.405 457.014 541.999 456.918 541.62C456.423 539.661 455.925 537.655 456.111 535.643C456.297 533.631 457.303 531.575 459.114 530.679C460.953 529.768 463.12 528.179 462.557 526.206C462.021 524.329 459.532 524.016 457.581 524.072C448.457 524.334 439.333 524.595 430.209 524.857C429.837 524.868 429.424 524.896 429.166 525.165C428.858 525.488 428.914 526.002 428.991 526.442C430.444 534.747 431.896 543.051 433.349 551.356C433.462 552.003 433.631 552.734 434.201 553.06C434.578 553.276 435.039 553.256 435.472 553.23C441.392 552.865 447.299 552.298 453.181 551.53C458.016 550.899 463.719 550.428 466.973 554.06C466.951 550.855 469.361 548.245 471.033 545.509C472.704 542.774 473.437 538.655 470.825 536.798C468.12 534.875 465.768 532.456 463.92 529.699C462.787 531.119 464.156 533.11 464.434 534.905C464.906 537.947 462.12 540.409 459.629 542.216ZM421.742 415.477C421.837 416.371 422.403 417.135 422.949 417.85C425.529 421.226 428.109 424.602 430.689 427.978C427.753 425.613 424.818 423.247 421.882 420.882C424.945 427.513 430.693 432.857 437.53 435.429C438.668 435.858 439.849 436.219 440.863 436.89C442.636 438.064 443.688 440.029 444.72 441.888C448.245 448.242 452.35 454.274 456.968 459.884C459.028 462.388 461.774 465.038 464.981 464.564C471.804 463.555 478.149 459.646 482.118 454.005C480.289 452.082 478.459 450.158 476.629 448.235C475.994 447.567 475.315 446.872 474.428 446.623C473.541 446.374 472.402 446.776 472.189 447.672C471.552 450.347 468.114 451.506 465.486 450.697C462.858 449.887 460.896 447.743 459.069 445.688C450.307 435.83 441.174 425.22 439.063 412.201C437.528 411.443 436.517 413.908 436.562 415.619C436.612 417.525 436.662 419.43 436.711 421.336C431.885 419.363 430.225 411.665 425.012 411.688C427.422 415.834 430.107 419.82 433.043 423.612C428.716 421.517 425.153 417.886 423.139 413.521C422.24 413.551 421.648 414.582 421.742 415.477ZM618.159 501.432C617.522 504.704 615.749 507.919 612.81 509.491C610.709 510.616 608.251 510.802 605.874 510.965C590.138 512.047 574.403 513.129 558.667 514.211C560.423 516.568 562.641 519.165 565.579 519.101C587.622 518.62 609.664 518.14 631.707 517.66C632.483 517.643 633.38 517.565 633.821 516.926C634.158 516.438 634.103 515.79 634.034 515.201C633.065 506.941 632.096 498.68 631.127 490.42C631.064 489.888 630.977 489.307 630.578 488.95C630.108 488.531 629.396 488.584 628.771 488.662C626.031 489.006 623.29 489.349 620.55 489.692C619.437 489.832 617.995 490.356 618.11 491.471C618.454 494.787 618.796 498.16 618.159 501.432ZM483.41 554.349C491.037 553.771 498.631 552.767 506.146 551.344C507.476 551.092 509.107 550.503 509.199 549.152C507.638 549.275 506.046 548.364 505.362 546.956C504.677 545.548 504.945 543.733 506.006 542.582C504.803 542.618 503.543 542.641 502.469 542.099C501.395 541.557 500.605 540.249 501.06 539.135C501.802 537.32 501.878 535.241 501.27 533.377C500.904 532.257 500.038 531.066 498.864 531.163C496.851 531.331 494.838 529.799 494.464 527.814C494.089 525.829 495.406 523.669 497.342 523.092C497.233 522.585 496.552 522.505 496.036 522.54C486.013 523.216 475.99 523.893 465.968 524.569C465.619 524.593 465.206 524.659 465.061 524.976C464.971 525.172 465.019 525.401 465.074 525.609C466.021 529.221 468.408 532.433 471.593 534.382C469.991 532.74 471.433 529.64 473.661 529.094C475.889 528.549 478.191 529.843 479.753 531.523C481.315 533.202 482.399 535.276 483.928 536.987C484.374 537.485 484.876 537.986 485.031 538.637C485.185 539.288 484.792 540.12 484.123 540.133C483.827 540.139 483.553 539.989 483.296 539.843C480.104 538.034 476.911 536.224 473.719 534.414C474.398 533.137 476.387 533.565 477.487 534.504C478.587 535.443 479.552 536.778 480.992 536.918C480.374 535.86 479.756 534.802 479.138 533.745C478.215 532.164 476.751 530.339 474.98 530.807C473.548 531.186 472.92 533.007 473.31 534.437C473.7 535.866 474.798 536.976 475.854 538.016C477.506 539.643 479.805 541.401 481.904 540.417C482.531 540.123 483.136 541.106 482.787 541.703C482.438 542.301 481.647 542.461 480.955 542.448C478.976 542.411 477.038 541.405 475.868 539.808C475.46 542.087 475.053 544.367 474.645 546.647C477.321 547.557 479.408 550.014 479.873 552.803C480.106 554.204 481.994 554.456 483.41 554.349ZM516.826 354.209C515.279 354.281 513.839 355.033 512.302 355.224C510.403 355.461 508.41 354.777 507.055 353.424C505.353 351.723 500.206 347.333 498.381 348.99C496.556 350.648 496.179 357.144 498.28 360.652C498.678 361.317 498.284 362.21 497.681 362.699C497.079 363.189 496.312 363.42 495.642 363.812C493.758 364.913 492.814 367.399 493.494 369.473C494.173 371.547 496.405 372.993 498.576 372.765C497.001 370.84 497.198 367.707 499.002 365.994C500.806 364.282 503.945 364.248 505.785 365.921C506.971 366.999 508.855 366.769 510.322 366.123C511.788 365.477 513.125 364.481 514.697 364.167C516.755 363.756 519.018 364.696 520.179 366.445C521.339 368.193 521.326 370.644 520.148 372.381C519.042 374.011 519.978 376.605 521.87 377.152C523.763 377.699 525.939 376.006 525.874 374.037C525.766 370.779 528.06 367.762 527.788 364.514C527.559 361.781 525.574 359.548 523.583 357.662C521.693 355.872 519.425 354.088 516.826 354.209ZM501.241 367.214C499.307 367.66 498.642 370.653 500.206 371.876C501.555 370.69 503.724 370.566 505.2 371.589C504.446 372.87 502.386 372.167 501.089 372.891C499.99 373.505 499.736 374.949 499.632 376.203C499.35 379.597 499.283 383.009 499.433 386.412C499.533 388.679 499.74 390.992 500.65 393.071C501.56 395.15 503.29 396.986 505.505 397.485C507.445 397.922 509.505 397.281 511.158 396.174C512.811 395.068 514.122 393.532 515.383 391.995C516.984 390.044 518.561 388.023 519.518 385.687C520.474 383.352 520.752 380.632 519.733 378.324C518.892 376.419 518.516 374.312 518.647 372.234C518.751 370.583 519.113 368.723 518.078 367.431C516.819 365.858 514.329 366.186 512.49 367.01C510.652 367.834 508.791 369.036 506.799 368.739C504.869 368.453 503.142 366.776 501.241 367.214ZM429.91 477.909C429.909 478.723 430.126 479.598 430.465 480.233C431.358 481.905 439.455 480.27 440.707 480.144C447.885 479.427 455.062 478.71 462.239 477.992C463.34 477.882 464.668 477.6 465.012 476.549C465.183 476.027 465.045 475.461 464.906 474.93C464.582 473.689 464.257 472.448 463.932 471.207C463.737 470.459 463.521 469.673 462.976 469.124C462.066 468.207 460.595 468.257 459.308 468.371C450.591 469.141 441.874 469.912 433.158 470.682C432.003 470.784 430.648 471.017 430.141 472.059C429.919 472.516 429.914 473.044 429.914 473.552C429.913 475.004 429.911 476.457 429.91 477.909ZM615.691 473.042C616.017 473.495 616.662 473.541 617.22 473.543C627.119 473.591 637.018 473.639 646.917 473.686C647.57 473.69 648.267 473.68 648.808 473.316C649.707 472.713 649.79 471.445 649.78 470.362C649.768 469.06 649.75 467.723 649.275 466.51C648.8 465.296 647.762 464.214 646.466 464.076C637.152 463.084 627.824 466.429 618.481 465.764C617.112 465.667 615.91 466.832 615.492 468.139C615.074 469.447 615.255 470.86 615.439 472.22C615.478 472.507 615.522 472.807 615.691 473.042ZM615.286 478.259C615.022 481.047 615.217 483.877 615.859 486.603C624.072 486.322 632.278 485.859 640.471 485.214C641.826 485.108 643.604 484.539 643.506 483.183C643.402 481.759 643.299 480.334 643.195 478.91C643.162 478.444 643.117 477.947 642.828 477.579C642.432 477.074 641.72 476.976 641.081 476.92C633.106 476.222 625.083 476.081 617.088 476.501C616.64 476.525 616.157 476.563 615.815 476.854C615.423 477.187 615.334 477.748 615.286 478.259ZM464.594 482.51C464.452 481.427 462.967 481.259 461.881 481.381C454.107 482.255 446.333 483.128 438.559 484.002C438.228 484.039 437.881 484.083 437.612 484.28C437.082 484.669 437.09 485.45 437.162 486.105C437.384 488.123 437.82 490.321 439.401 491.594C441.535 493.312 444.638 492.572 447.318 492.003C452.308 490.944 457.492 490.802 462.532 491.586C463.634 491.757 464.671 490.847 465.036 489.793C465.401 488.74 465.26 487.587 465.115 486.482C464.942 485.158 464.768 483.834 464.594 482.51ZM516.063 408.403C516.895 407.304 517.657 406.151 518.342 404.954C518.865 404.042 519.356 402.981 519.052 401.974C518.854 401.319 518.35 400.811 517.935 400.267C516.641 398.571 516.14 396.295 516.604 394.214C516.644 394.036 516.69 393.847 516.628 393.675C516.387 393.004 515.407 393.645 515.04 394.257C513.459 396.895 510.731 398.818 507.714 399.421C507.058 399.553 507.232 400.574 506.885 401.076C505.438 403.177 502.456 405.96 505.2 409.214C507.261 411.658 507.698 412.196 508.275 412.373C511.248 413.285 514.185 410.882 516.063 408.403ZM537.66 521.407C538.47 521.261 539.281 521.115 540.091 520.969C541.669 520.685 543.304 520.377 544.612 519.451C546.339 518.228 547.417 515.99 549.474 515.49C549.973 515.369 550.662 514.857 550.24 514.565C550.137 514.494 550.003 514.493 549.878 514.494C544.356 514.563 538.837 514.808 533.331 515.229C534.017 517.031 534.814 518.791 535.718 520.495C535.897 520.832 536.1 521.188 536.441 521.361C536.81 521.549 537.252 521.48 537.66 521.407ZM553.849 515.575C551.294 515.947 549.115 517.625 547.362 519.52C546.937 519.978 547.381 520.88 548.004 520.823C548.68 519.755 550.136 519.573 551.398 519.498C554.294 519.327 557.19 519.156 560.086 518.985C559.328 516.518 556.403 515.203 553.849 515.575ZM521.058 385.579C520.526 387.698 519.344 389.649 517.713 391.103C517.817 391.645 518.609 391.592 519.125 391.398C520.979 390.701 522.892 389.937 524.243 388.488C525.594 387.039 526.204 384.701 525.112 383.048C524.739 384.698 521.471 383.938 521.058 385.579ZM472.728 551.466C472.098 552.752 472.072 554.601 473.311 555.321C474.371 555.937 475.893 555.22 476.241 554.044C476.59 552.869 475.856 551.531 474.738 551.029C474.045 550.718 473.062 550.784 472.728 551.466ZM467.271 520.822C467.083 521.12 467.034 521.618 467.367 521.728C469.65 521.485 471.953 521.43 474.245 521.565C474.503 521.01 474.159 520.325 473.644 519.994C473.129 519.663 472.493 519.598 471.884 519.541C470.206 519.385 468.168 519.396 467.271 520.822ZM569.133 538.826C569.516 538.705 569.78 538.286 569.723 537.889C567.056 537.333 564.267 537.371 561.616 537.999C563.862 539.3 566.659 539.607 569.133 538.826ZM459.001 539.09C459.64 536.612 460.088 534.084 460.341 531.536C457.855 533.026 457.178 536.837 459.001 539.09ZM522.188 382.993C523.202 382.911 524.097 382.046 524.214 381.035C524.332 380.024 523.658 378.978 522.689 378.666C521.775 379.578 521.271 380.887 521.339 382.177C521.352 382.426 521.398 382.7 521.591 382.859C521.753 382.992 521.98 383.01 522.188 382.993ZM476.947 557.359C476.123 556.506 474.632 556.419 473.715 557.171C474.102 558.047 474.788 558.788 475.632 559.241C476.02 559.449 476.493 559.596 476.893 559.412C477.622 559.077 477.504 557.936 476.947 557.359ZM477.639 552.035C477.72 550.778 477.044 549.503 475.959 548.864C474.874 548.225 473.431 548.253 472.371 548.933C474.332 549.551 476.148 550.62 477.639 552.035ZM462.602 534.964C462.443 534.579 462.116 534.175 461.703 534.231C460.848 535.589 460.855 537.439 461.718 538.791C462.764 537.865 463.135 536.255 462.602 534.964ZM463.604 558.742C463.401 559.089 463.585 559.599 463.962 559.738C464.515 559.457 464.879 558.838 464.855 558.218C464.409 558.03 463.828 558.314 463.703 558.781M604.996 310.983C604.737 311.173 604.478 311.364 604.219 311.554C604.381 311.848 604.543 312.142 604.705 312.436C605.178 312.193 605.369 311.524 605.096 311.069L604.996 310.983Z" fill="#00160A"/>
<ellipse cx="501" cy="387" rx="1" ry="2" fill="#FFB61D"/>
<path fill-rule="evenodd" clip-rule="evenodd" d="M521.913 498.064C523.618 477.936 525.049 457.783 527.028 437.681C527.522 432.666 541.668 438.74 535.797 482.225C534.869 489.1 530.447 499.373 522.556 499.9L521.913 498.064Z" fill="#E7EAEE"/>
<path fill-rule="evenodd" clip-rule="evenodd" d="M175.137 429.124C176.406 456.446 172.011 439.137 183.395 446.454C185.333 447.699 187.451 450.024 187.083 452.297C186.36 456.762 182.056 459.92 180.526 464.176C172.952 485.243 207.275 486.184 213.501 489.498C215.582 490.605 214.647 494.653 213.27 496.567C208.265 503.525 179.137 484.633 175.468 481.809C151.15 463.096 154.048 450.854 173.139 431.632L175.137 429.124Z" fill="#E7EAEE"/>
<ellipse cx="199" cy="399" rx="1" ry="2" fill="#FFB61D"/>
</svg>
